<?xml version="1.0" encoding="utf-8"?>
<!-- Generator: Adobe Illustrator 20.0.0, SVG Export Plug-In . SVG Version: 6.00 Build 0)  -->
<!DOCTYPE svg PUBLIC "-//W3C//DTD SVG 1.1//EN" "http://www.w3.org/Graphics/SVG/1.1/DTD/svg11.dtd">
<svg version="1.1" id="Layer_1" xmlns="http://www.w3.org/2000/svg" xmlns:xlink="http://www.w3.org/1999/xlink" x="0px" y="0px"
	 viewBox="0 0 100 100" style="enable-background:new 0 0 100 100;" xml:space="preserve">
<style type="text/css">
	.st0{display:none;fill:#FFFFFF;}
	.st1{display:none;}
	.st2{display:inline;}
	.st3{display:none;fill:#010101;}
	.st4{display:none;fill:#231F20;}
	.st5{fill:#231F20;}
</style>
<path id="won" class="st0" d="M87.6,36.3c1.6,0,3.1,0,4.6,0c1.2,0,1.9,0.7,1.9,1.8c0.1,1.9,0.1,3.8,0,5.6c0,1.5-1.1,2-2.4,2
	c-2.3,0-4.5,0-6.9,0c-0.5,1.9-0.9,3.4-1.5,5.5c2.7,0,5.1,0,7.4,0c3.1,0,3.4,0.3,3.4,3.5c0,1.3,0.1,2.6,0,3.9
	c-0.1,1.8-0.6,2.3-2.4,2.3c-2.9,0.1-5.8,0-8.6,0c-2.4,0-2.5,0-3.1,2.5c-2,7.3-4,14.7-6,22c-0.7,2.6-0.9,2.8-3.7,2.8
	c-5.4,0.1-4.5,0.1-5.9-4.3c-2.1-6.7-4.1-13.4-6.1-20.2c-0.3-0.9-0.7-1.8-1.1-2.9c-4.2,0-8.4,0-12.5,0c-1.6,0-1.8,1.2-2.2,2.3
	c-1.6,5.3-3.2,10.6-4.8,15.9c-0.7,2.4-1.5,4.7-2.1,7.1c-0.4,1.5-1.3,2.1-2.8,2c-5.9-0.1-5.1,0.5-6.6-4.8c-1.9-7.1-4-14.1-6-21.1
	c-0.1-0.4-0.3-0.7-0.5-1.4c-3,0-6,0-9.1,0c-4.5,0-4.5,0-4.5-4.4c0-4.8-1.1-5.5,5.4-5.3c1.7,0,3.4,0,5.5,0c-0.5-1.9-0.9-3.6-1.4-5.5
	c-2.4,0-4.7,0-7,0C6.4,45.7,6,45.3,6,43.3c-0.1-1.7,0-3.4,0-5.1c0-1.3,0.6-2,2-2c1.5,0,2.9,0,4.7,0c-1-3.6-1.9-6.9-2.8-10.1
	c-1-3.7-2.1-7.4-3.1-11.2c-0.7-2.7-0.3-3.2,2.5-3.2c2.2,0,4.4,0,6.5,0c2.6,0,2.9,0.2,3.6,3c1.7,6.2,3.3,12.4,5,18.6
	c0.3,0.9,0.6,1.8,0.9,2.8c4.7,0,9.3,0,14,0c0.3-0.7,0.6-1.3,0.9-2.1c2-6.5,4.1-13,6.1-19.6c0.8-2.7,0.9-2.7,3.7-2.8
	c0.4,0,0.8,0,1.2,0c2.6,0.1,2.7,0.2,3.5,2.7c2,6.3,3.9,12.7,5.9,19c0.3,0.8,0.6,1.7,0.9,2.7c4.6,0,9.3,0,14.2,0
	c0.9-3.3,1.8-6.7,2.7-10.2c1-3.7,1.8-7.5,2.8-11.2c0.7-2.7,0.9-2.9,3.6-2.9c1.8,0,3.6,0,5.4,0c3.1,0.1,3.6,0.6,2.8,3.5
	c-0.9,3.5-1.9,7-2.9,10.6c-0.7,2.7-1.5,5.3-2.2,8C87.7,34.6,87.7,35.3,87.6,36.3z M72,51.1c0.5-1.8,0.9-3.4,1.4-5.2
	c-3,0-5.8,0-8.8,0c0.6,1.9,1.1,3.5,1.6,5.2C68.2,51.1,70,51.1,72,51.1z M36.6,45.9c-3,0-5.7,0-8.7,0c0.5,1.9,1,3.5,1.4,5.1
	c2.1,0,3.8,0,5.7,0C35.5,49.3,36,47.7,36.6,45.9z M46.2,51c2.9,0,5.3,0,8.1,0c-0.6-1.9-1.1-3.5-1.6-5.1c-1.8,0-3.3,0-4.9,0
	C47.2,47.6,46.7,49.2,46.2,51z"/>
<path class="st0" d="M73.6,34.6c6.4,11,6.6,21.2,0.7,31.7c1,1.1,2,2.2,3.1,3.2c3,3,6.1,6,9.1,9c1.8,1.8,1.7,2.4,0,4.2
	c-1.4,1.4-2.8,2.8-4.2,4.2c-1.8,1.8-2.4,1.8-4.2,0c-3.4-3.4-6.9-6.9-10.3-10.3c-0.5-0.5-1-0.9-1.6-1.5c-11,7-22.1,7.1-33.6,0.3
	c-4.2,4.2-8.5,8.4-13,12.9c-1.2-1-2.3-1.9-3.2-2.8c-1.2-1.2-2.4-2.3-3.6-3.6c-1.4-1.5-1.5-2,0-3.5c2.2-2.3,4.5-4.5,6.7-6.7
	c1.5-1.5,3.1-3.1,4.8-4.8c-6.5-11.4-6.1-22.5,1.2-33.4c-3.4-3.4-6.8-6.8-10.1-10.2c-0.8-0.8-1.7-1.7-2.5-2.5c-0.8-0.8-1-1.7-0.1-2.6
	c1.9-1.9,3.7-3.8,5.7-5.7c1.3-1.2,1.8-1.1,3.3,0.4c3,2.9,5.9,5.9,8.8,8.8c1.3,1.3,2.5,2.5,3.9,3.7c10.5-5.3,20.8-5.1,31.1,1.1
	c3.4-3.4,6.8-6.8,10.3-10.2c1-1,1.9-2,2.9-3c1.6-1.5,2.1-1.6,3.7-0.1c1.6,1.5,3.1,3,4.6,4.6c1.7,1.7,1.7,2.2,0,3.9
	c-3.6,3.7-7.3,7.3-10.9,10.9C75.4,33.5,74.5,34,73.6,34.6z M65.1,51.3C65.6,42.3,57.9,35,49.4,35c-8.9,0-15.9,6.7-16.2,15.5
	C32.9,60.6,41,67,48.9,67.1C57.1,67.3,65.3,60.5,65.1,51.3z"/>
<path id="naira" class="st0" d="M66.3,13.3c3.3,0,6.1,0,8.8,0c1.1,0,1.6,0.6,1.6,1.7c0,0.7,0,1.4,0,2.1c0,6,0,12.1,0,18.1
	c0,1,0,1.9,0,3.2c1.3,0.1,2.4,0.1,3.4,0.2c2,0.1,2.4,0.4,2.4,2.5c0,1.9,0,3.7-0.1,5.7c-2,0.2-3.6,0.3-5.3,0.4c-0.7,2-0.5,3.9-0.2,6
	c1.8,0.1,3.4,0.2,5.1,0.4c0.9,2.4,0.6,4.8,0.3,7.1c-0.1,0.6-1.2,1.2-1.9,1.4c-1.1,0.3-2.3,0.2-3.8,0.2c0,1.2,0,2.1,0,3.1
	c0,6.2,0,12.5,0,18.7c0,3.4-0.1,3.4-3.4,3.6c-2.3,0.1-3.6-0.8-4.9-2.6c-4.9-7-9.9-13.9-14.7-20.9c-1.2-1.7-2.4-2.3-4.4-2.2
	c-5,0.1-10.1,0-15.6,0c0,8.1,0,16,0,24c-3.6,0.7-6.8,0.2-10.4,0.3c0-8.2,0-16.1,0-24.2c-1.4-0.1-2.5-0.2-3.5-0.3
	c-1.9-0.2-2.5-0.6-2.5-2.5c0-1.9,0.2-3.7,0.4-5.6c1.7-0.3,3.4-0.6,5.3-1c0-1.7,0-3.5,0-5.8c-1.2-0.1-2.4-0.3-3.6-0.3
	c-1.5,0-2.2-0.7-2.1-2.2c0-1.4,0-2.8,0-4.2c0-1.5,0.7-2.2,2.2-2.2c1.1,0,2.2,0,3.6,0c0.1-1.3,0.2-2.3,0.2-3.3c0-6.6,0-13.3,0-19.9
	c0-3.3,0.1-3.3,3.3-3.5c2.2-0.1,3.6,0.7,4.9,2.5C36.6,21.8,41.9,29,47,36.3c1.2,1.7,2.5,2.6,4.6,2.5c3.8-0.2,7.5,0,11.3-0.1
	c1,0,1.9-0.1,3.3-0.2c0-4.3,0-8.4,0.1-12.6C66.3,21.9,66.3,17.9,66.3,13.3z M45.7,53.4c-1.4-2-2.5-3.6-3.6-5.1
	c-0.4-0.5-1.1-1.1-1.6-1.1c-2.1,0-4.3-0.4-6.5,0.3c0,2,0,3.9,0,6c3.4,0,6.6,0,9.7,0C44.1,53.6,44.6,53.5,45.7,53.4z M66.2,53.6
	c0-1.8,0.1-3.4-0.1-4.9c-0.1-0.5-0.8-1.4-1.2-1.4c-3.1-0.1-6.2-0.1-10.1-0.1c1.6,2.3,2.8,4.1,4.1,5.7c0.3,0.3,0.8,0.6,1.3,0.6
	C62.2,53.6,64,53.6,66.2,53.6z M33.9,36.1c-0.6,1.2-0.6,2,0.3,2.5c0.1,0.1,0.5-0.2,0.9-0.4C34.8,37.5,34.4,36.9,33.9,36.1z"/>
<path id="peso" class="st0" d="M73.9,34.7c0,1.5,0,2.9,0,4.6c1.4,0,2.7-0.1,3.9,0c2,0.1,2.4,0.6,2.4,2.5c0,0.4,0,0.8,0,1.2
	c-0.4,3.9-0.5,3.9-4.3,3.5c-2.2-0.2-3.8,0.1-5.4,2.4c-3.8,5.7-9,9.7-16.2,10.9c-5.1,0.8-10.2,1.5-15.3,1c-0.5,0-1,0.1-1.7,0.2
	c-0.1,1-0.2,2-0.2,2.9c0.1,5.2,0.4,10.5,0.5,15.7c0,2.3-0.2,4.5-0.6,6.8c-0.1,0.6-0.9,1.5-1.4,1.5C32.8,88,29.9,88,27,87.8
	c-1-0.1-1.2-1.2-1.2-2.1c0-1.9,0-3.8,0-5.6c0-10,0-20,0-30c0-1.1,0-2.1,0-3.5c-1.6,0-2.9,0-4.1,0c-1.3,0-2.1-0.5-2-1.9
	c0-0.2,0-0.4,0-0.6c0-5.3-0.3-4.8,4.5-4.8c0.4,0,0.8-0.1,1.4-0.2c0-1.4,0-2.8,0-4.5c-1.1-0.1-2.1-0.1-3-0.2
	c-0.9-0.1-1.7-0.2-2.7-0.4c0-2.3,0-4.3,0-6.6c1.9-0.2,3.7-0.3,6-0.5c0-2.6,0-5.2,0-7.7c0-5.9-0.6-5.5,5.2-6.2
	c9.3-1.2,18.5-1.8,27.6,1.3c5.8,1.9,10.3,5.4,12.9,11.1c0.7,1.5,1.6,2.1,3.2,1.9c1.5-0.1,3.1,0,4.9,0c0,2.5,0,4.5,0,6.9
	C77.9,34.3,76.1,34.5,73.9,34.7z M62,34.9c-3.2-0.7-22.3-0.7-24.8,0.1c0.1,1.3,0.2,2.7,0.3,4.1c8.2,0,16,0,24.2,0
	C61.7,37.7,61.8,36.3,62,34.9z M58.2,27.2c-1.6-2.1-2.4-2.7-4.9-3.5c-4.7-1.6-9.5-1.7-14.3-1.1c-1.7,0.2-1.9,0.8-1.9,2.7
	c0,1.6,0.9,2,2.3,2c4.6,0,9.3,0,13.9,0C54.8,27.2,56.2,27.2,58.2,27.2z M37.3,49.9c6.6,1.9,17.1,0.1,19.4-3.2c-6.4,0-12.8,0-19.4,0
	C37.3,47.8,37.3,48.8,37.3,49.9z"/>
<path id="baht" class="st0" d="M51.4,15.3c8.2,1,15.3,3.3,18.1,11.9c1.2,3.9,0.9,7.8-0.6,11.7c-1.5,3.8-4.3,6.6-8.2,8.8
	c1.2,0.6,2,1,2.7,1.4c5.4,3.1,8.3,7.6,8.7,13.9c0.8,12.4-7.9,19.1-17.2,21.1c-1.1,0.2-2.1,0.5-3.3,0.7c-0.2,1-0.5,1.9-0.8,3.2
	c-2,0-3.9,0.1-5.9,0c-1.7-0.1-1.4-1.6-1.9-2.9c-2-0.1-4-0.2-6.1-0.4c-2.3-0.2-4.5-0.4-6.8-0.7c-1.6-0.2-2.2-1.1-2.1-2.7
	c0.1-1.8,0-3.6,0-5.4c0-18.3,0-36.7,0-55c0-0.6,0-1.2,0-1.8c0.1-2.2,0.5-2.8,2.8-3c3-0.3,6.1-0.5,9.2-0.7c1.7-0.1,3.3,0.2,3.6-2.3
	c0.2-1.5,1.9-1.1,3-1c1.5,0.1,3.3-0.8,4.4,0.9C51.3,13.6,51.2,14.4,51.4,15.3z M51.3,55c0,6.8,0,13.4,0,19.9
	c5.6,0.1,10.2-4.8,10-10.5C61.2,58.7,56.8,54.6,51.3,55z M51.4,25.2c-0.7,4.8-0.4,16.4,0.4,18.1c5.3-2,8.1-6.1,7.6-10.6
	C59,28.3,55.4,25.2,51.4,25.2z M43.1,75.8c0-7.5,0-14.5,0-21.5c-1.7,0-3.1,0-4.7,0c0,7,0,13.8,0,20.8C39.9,75.3,41.3,75.5,43.1,75.8
	z M38.5,24.8c-0.6,6.1-0.4,17.9,0.5,20.1c1.3-0.1,2.7-0.1,4.2-0.2c0-6.9,0-13.5,0-20.3C41.4,24.5,40,24.6,38.5,24.8z"/>
<path id="colon" class="st0" d="M58,15.1c0.9,0.1,1.5,0.1,2.2,0.2c1.3,0.2,2.4,0,2.5-1.7c0.1-1.4,1.1-1.8,2.3-1.8c1.3,0,2.6,0,3.9,0
	c2,0.1,2.3,0.5,2.2,2.6c-0.1,1.2-0.7,2.5,0.9,3.4c0.4,0.2,0.5,1.3,0.3,1.9c-0.4,1.8-0.9,3.6-1.4,5.4c-0.1,0.5-0.4,1.1-0.8,1.2
	c-2.3,0.8-2.1,3-2.4,4.7c-2.8,13.6-5.6,27.3-8.3,41c-0.2,0.8-0.1,1.7-0.2,2.7c3.3,0,6.2-0.7,9.1-2c2.6-1.1,2.8-1,3.7,1.7
	c0.4,1.1,0.7,2.3,1.1,3.4c0.6,1.6,0.1,2.6-1.3,3.5c-2.8,1.7-5.8,2.4-9,2.8c-1.9,0.2-3.7,0.4-5.7,0.6c-0.3,0.7-0.4,1.4-0.7,2
	c-0.2,0.4-0.6,1-0.9,1.1c-2.2,0.1-4.3,0.1-6.5,0c-0.3,0-0.8-0.8-0.9-1.3C48,85.8,48.2,85,48.3,84c-1.3-0.5-2.5-0.9-4.1-1.5
	c-0.3,1.3-0.7,2.4-0.9,3.5c-0.3,1.5-1,2.3-2.6,2.2c-1.4-0.1-2.8,0-4.2,0c-1.6-0.1-2.1-0.7-1.8-2.3c0.4-2.2,0.8-4.5,1.3-6.7
	c0.2-1,0.2-1.9-0.6-2.7c-5.7-6.2-8-13.8-8.6-22c-0.6-7.7,0-15.3,3.3-22.4c3.4-7.5,8.8-12.9,16.7-15.4c1.4-0.4,2.2-1.1,2.4-2.6
	c0.2-1.7,1.3-2.3,2.9-2.2c0.9,0.1,1.8,0,2.7,0C57.5,11.9,57.6,12,58,15.1z M50.6,73.8c3.3-16.5,6.6-32.4,9.8-48.6
	c-1.9,0-3.4,0-4.9,0c-3.1,15.5-6.2,30.8-9.3,46.2C47.6,72.2,48.8,72.9,50.6,73.8z M46.2,28.4c-8.9,5.5-10.1,23.7-6.7,32.8
	C41.9,50,44,39.4,46.2,28.4z"/>
<path id="kip" class="st0" d="M36.4,54.9c0,1,0,2.1,0,3.1c0,8.8,0,17.6,0,26.5c0,3.2-0.1,3.3-3.4,3.3c-2,0-4,0-5.9,0
	c-1.2,0-1.8-0.6-1.9-1.8c0-0.7,0-1.4,0-2.1c0-8.6,0-17.3,0-25.9c0-1.1,0-2.1,0-3.1c-4.2-0.8-4.2-0.8-4.2-4.8c0-0.1,0-0.2,0-0.3
	c0-3.8,0-3.8,4.1-4.5c0.1-5.3,0-10.7,0.1-16.1c0-5.4,0-10.9,0-16.6c3.8-0.4,7.3-0.1,11.2-0.2c0,11.1,0,22,0,32.8c2.1,0.3,3-0.8,4-2
	C46.4,35.1,52.5,27,58.6,19c0.5-0.7,1.2-1.3,1.6-2.1c1.9-4,5-5.2,9.2-4.5c1.7,0.3,3.6,0.1,5.3,0.1c0.2,0,0.3,0.2,0.6,0.3
	c0.8,1.3-0.3,2.2-1,3c-4.5,5.9-9.1,11.7-13.7,17.6c-2.6,3.3-5.1,6.6-7.6,9.9c-0.4,0.6-0.8,1.3-1.4,2.4c9.3,0,18.1,0,26.8,0
	c0.9,2.6,0.4,5,0.4,7.3c0,1.1-0.9,1.5-1.9,1.5c-1.2,0.1-2.4,0-3.6,0c-5.2,0-10.3,0-15.5,0c-1,0-1.9,0-3.5,0c0.9,1.3,1.5,2.2,2.2,3
	c6.9,8.8,13.8,17.6,20.7,26.4c0.7,0.9,2,1.7,1.4,3c-0.6,1.3-2.1,0.8-3.2,0.8c-2.3,0.1-4.6-0.1-6.8,0.1c-1.9,0.1-3.1-0.7-4.3-2.1
	C59,78.9,53.6,72,48.3,65.2c-2.3-3-4.8-5.8-7-8.9C40.1,54.6,38.7,54.1,36.4,54.9z"/>
<path id="unknown" class="st0" d="M17.4,25.7c0.9-0.1,1.4-0.2,1.9-0.2c4.7-0.1,4.7-0.1,6.4,4.4c0.8-0.6,1.6-1.1,2.3-1.6
	c5.2-4,11-4.4,17.2-3.1c3.1,0.7,5.1,2.9,6.8,5.3c2.4-1.6,4.8-3.2,7.1-4.8c0.6-0.4,0.9-1.3,1.3-2c1.9-3.3,3.7-6.5,5.6-9.8
	c1.1-1.9,1.6-2,3.5-1c1.1,0.5,2.1,1.2,3.1,1.8c0.3,0.2,0.7,0.4,1.2,0.8c-1.6,3-3.2,5.8-4.8,8.8c1.6,0.4,3,0.6,4.3,1
	c3.5,0.9,6,3.1,7.2,6.5c0.9,2.6,1.6,5.4,1.6,8.1c0.3,10.4,0.3,20.8,0.4,31.2c0,0.8,0,1.6,0,2.4c0,1-0.5,1.7-1.6,1.8
	c-2.6,0-5.1,0-8,0c-0.1-3.5-0.2-6.7-0.2-9.9c0-7,0.1-14.1,0.1-21.1c0-1.9-0.3-3.7-0.6-5.6c-0.5-2.7-2.1-4.4-4.8-5.1
	c-2.6-0.7-3.5-0.4-4.8,2c-2.3,3.9-4.5,7.9-6.8,11.8c-0.8,1.3-1.1,2.7-1.1,4.2c0,6.6,0,13.3,0,19.9c0,1.1,0,2.2,0,3.1
	c-2.3,0.9-6.2,1-9.6,0.3c0-2.3,0-4.7,0-7.1c-0.2-0.1-0.5-0.1-0.7-0.2c-0.5,0.7-1,1.3-1.4,2c-3.1,5.4-6.2,10.8-9.4,16.2
	c-1.3,2.2-1.5,2.3-3.7,1.1c-5.1-2.8-4.4-2.4-2-6.7c5.2-9.1,10.5-18.2,15.7-27.3c0.9-1.5,1.4-3,1.2-4.8c-0.2-2.6-0.1-5.2-0.5-7.7
	c-0.4-2.9-1.3-5.7-4.6-6.7c-3.3-1-6.3-0.4-8.9,1.8c-2.7,2.3-4.2,5.1-4.1,8.8c0.1,9.1,0,18.2,0,27.4c0,1.1,0,2.1,0,3.4
	c-3.4,0.5-6.4,0.4-9.4,0.1C17.4,58.6,17.4,42.3,17.4,25.7z"/>
<path id="rand" class="st0" d="M54.7,54.7c4.3,3.7,6.3,8.5,9.2,12.8c3.6,5.5,7,11,10.4,16.6c0.5,0.9,0.9,1.9,1.4,2.9
	c-0.7,0.4-1.1,0.8-1.6,0.8c-3.2,0.1-6.3,0.1-9.5,0.1c-1.4,0-1.9-1.2-2.6-2.2c-4.2-6.6-8.4-13.2-12.7-19.8c-1.6-2.5-3.3-5-4.8-7.5
	c-0.8-1.3-1.7-2-3.3-2.1c-1.7-0.1-3.5-0.5-5.6-0.9c-0.1,1.3-0.2,2.3-0.2,3.3c0,8.1,0,16.3,0,24.4c0,1,0,2,0,3c0,1.2-0.7,1.8-1.9,1.8
	c-2.5,0-5,0-7.4,0c-1.2,0-1.8-0.7-1.8-1.9c0-0.6,0-1.2,0-1.8c0-22.2,0-44.4,0-66.6c0-0.6,0-1.2,0-1.8c0-1.3,0.5-2,1.8-2.2
	c1.8-0.3,3.5-0.7,5.3-0.8c6.4-0.3,12.8-1.2,19.2-0.2c8.9,1.4,15.9,6.8,17.7,14.9c2.3,10.6-0.7,20.7-11.8,26.2
	C56.1,53.9,55.6,54.2,54.7,54.7z M35.6,46.6c6.1,0.4,12,0.8,17.2-2.9c2.8-1.9,4.1-4.7,4.3-8.1c0-0.9,0-1.8,0-2.7
	c0-3.9-1.8-7-5.1-8.8c-5.2-2.9-10.8-2.5-16.4-1.3C35.6,30.9,35.6,38.6,35.6,46.6z"/>
<path id="rouble" class="st0" d="M40.7,65c2.1,0,3.9,0,5.8,0c3.4,0,6.7,0,10.1,0c2.1,0,2.4,0.3,2.4,2.4c0,1.3,0,2.6,0,3.9
	c-0.1,2-0.4,2.4-2.5,2.4c-4.3,0.1-8.5,0-12.8,0c-1,0-1.9,0.1-3.2,0.1c0,4.6,0,9,0,13.7c-3.4,0.6-6.6,0.3-9.7,0.2
	c-1.4,0-1.6-1.2-1.6-2.4c0-2.8,0-5.5,0-8.3c0-1,0-1.9,0-3.1c-1.1-0.1-1.8-0.2-2.6-0.2c-3.7-0.1-3.7-0.1-3.7-3.9c0-0.9,0-1.8,0-2.7
	c0-1.4,0.7-2.2,2.2-2.2c1.3,0,2.5,0,3.9,0c0-1.8,0-3.1,0-4.7c-1.4-0.1-2.7-0.2-3.9-0.1c-1.5,0.1-2.2-0.7-2.2-2.1c0-1.7,0-3.4,0-5
	c0.1-1.8,0.5-2.2,2.4-2.3c1.2-0.1,2.3,0,3.9,0c0-1.4,0-2.4,0-3.5c0-10,0-20,0-30c0-3.2,0.2-3.5,3.4-4c8.6-1.3,17.3-1.9,26,0
	c4.9,1.1,9.4,3.1,12.9,6.8c3.8,4,5.3,8.9,5.5,14.3c0.4,10.3-3.6,19.1-13.8,23.4c-3.1,1.3-6.6,2.1-10,2.6c-3,0.5-6.1,0.3-9.2,0.4
	c-1.1,0-2.1,0-3.4,0C40.7,62.2,40.7,63.3,40.7,65z M40.7,50.2c1,0.1,1.9,0.4,2.9,0.3c2.9-0.1,5.7-0.1,8.6-0.4
	c8.2-0.8,12.7-5.4,13.2-13.6c0.4-6.1-2.7-10.8-8.5-12.8c-3.8-1.3-7.7-1.8-11.7-1.5c-1.5,0.1-2.9,0.3-4.5,0.5
	C40.7,31.9,40.7,40.9,40.7,50.2z"/>
<path id="hryvnia" class="st0" d="M28.8,66.5c-3-0.7-3.1-0.7-3.1-3.2c0-1.7-0.3-3.7,0.5-4.8c0.6-0.9,2.9-0.5,4.4-0.7
	c0.6-0.1,1.1-0.3,1.7-0.5c0.3-0.1,0.4-0.4,0.6-0.6c1.5-1.6,3.1-3.2,5.1-5.3c-2.3,0-3.9,0-5.5,0c-1.7,0-3.4,0-5.1,0
	c-1.1,0-1.7-0.6-1.7-1.6c-0.1-1.6,0-3.2-0.1-4.8c0-1.5,0.7-2.1,2.2-2.1c2.3,0.1,4.6,0,6.8,0c6,0,12.1,0,18.1,0c4.2,0,9.3-4,10-7.8
	c1-6-1.5-9.6-6.5-11.5c-2.3-0.9-4.8-1.2-7.2-1.3c-5.4-0.2-10.6,0.9-15.6,3c-0.6,0.3-1.3,0.5-1.9,0.8c-0.1,0-0.2,0-0.6,0
	c-0.3-0.5-0.9-1-1.1-1.7c-0.7-1.7-1.3-3.5-1.9-5.3c-0.8-2.3-0.7-2.8,1.6-3.6c2.8-1,5.6-1.9,8.5-2.4c6.8-1.2,13.6-1.4,20.3,0.3
	c12.4,3.2,18.9,15.3,14.6,27c-0.2,0.5-0.3,1-0.6,1.4c-1.6,2.4-3,4.8-2.5,7.9c0.2,1.1-0.7,1.9-1.9,1.7c-3.7-0.6-6.7,0.9-9.7,2.8
	c-1.3,0.8-2.9,1.3-4.3,2c-0.6,0.3-1,0.7-1.4,1.6c5.6,0,11.2,0,17.2,0c0,2.5,0.1,4.8,0,7c0,0.5-0.9,1.1-1.6,1.4
	c-0.6,0.2-1.4,0.1-2.1,0.1c-7.4,0-14.9,0-22.3,0c-1,0-2,0-2.8,0c-2.1,5.1,0.9,10,6.5,11.2c6.6,1.4,13,0.1,19.3-1.8
	c0.5-0.1,0.9-0.3,1.4-0.5c1.2-0.5,1.9-0.1,2.3,1c0.9,2.5,1.7,5,2.7,7.8c-1.1,0.6-1.9,1.2-2.9,1.5c-8.5,2.7-17.2,3.6-26,1.7
	C35.9,85.2,29,79.3,29,68.1C29,67.6,28.9,67.1,28.8,66.5z"/>
<path class="st0" d="M45.8,73.3c0-2,0-3.4,0-4.7c0-6,0-12.1,0-18.1c0-3.1,0.3-3.4,3.4-3.4c0.3,0,0.6,0,0.9,0c4.2,0,4.2,0,5.8,4
	c0.5-0.5,1-0.8,1.5-1.3c3.5-3.4,7.7-4.3,12.3-3.7c1.4,0.2,2.7,0.4,4.1,0.8c1.8,0.6,2.1,1.1,1.7,2.8c-0.4,2.1-0.8,4.3-1.4,6.4
	c-0.5,2-1.1,2.3-3.2,1.8c-2.6-0.6-5.2-1.1-7.9-0.2c-2.7,0.9-5.3,3.7-5.4,6.5c-0.2,4.2,0,8.5,0,13c2.8,0.6,5.4,0.2,7.9-0.5
	c1.8-0.5,3.5-1.3,5.3-1.9c1.7-0.7,2.2-0.5,2.9,1.3c0.6,1.7,1.1,3.4,1.7,5.1c0.5,1.5,0.1,2.6-1.3,3.2c-2.4,1.1-4.9,2.3-7.4,2.8
	C60.5,88.4,54.2,88.6,48,87c-8.7-2.2-15-7.4-19-15.3c-2.5-5-3.7-10.4-4.3-15.9c-0.7-6.9-0.3-13.7,1.6-20.3c2.4-8.3,7-15.1,14.6-19.5
	c4.6-2.7,9.7-3.9,15-4.1c5.4-0.1,10.7,0.2,15.8,1.8c0.6,0.2,1.1,0.3,1.7,0.6c1,0.5,1.5,1.2,1.2,2.4c-0.6,2.1-1,4.2-1.7,6.3
	c-0.6,1.8-1.2,2.1-3.1,1.4c-4.2-1.6-8.5-1.9-12.9-1.8C47.6,22.8,41,28,38.1,37.5c-1.5,5-1.6,10.1-1.5,15.3c0.1,4.3,0.9,8.4,2.8,12.4
	C40.8,68.1,42.5,70.8,45.8,73.3z"/>
<path id="guarani" class="st0" d="M48.5,15.5c0.2-1.1,0.3-2,0.5-3.2c2.1,0,4.2-0.3,6.2,0.1c0.9,0.1,1.6,1.4,2.8,2.4
	c2.2,0.2,4.8,0.3,7.5,0.7c1.9,0.3,3.8,0.9,5.7,1.5c1.3,0.4,1.7,1.2,1.3,2.5c-0.7,2.2-1.4,4.5-2.3,7.1c-4.3-1.6-8.5-2.4-13.1-1.9
	c-0.1,1.2-0.4,2.5-0.4,3.7c0,11,0.1,22,0.2,33c0,3.8,0,7.5,0,11.3c0,1,0.1,1.9,0.2,3c3,0.3,5.6-0.1,8.2-1.7c0-5.3,0-10.6,0-16.3
	c-1.2-0.1-2.4-0.3-3.5-0.4c-2-0.2-2.6-0.8-2.6-2.8c-0.1-6.1,0-5.6,5.1-5.6c2.7,0,5.4,0,8,0c2.2,0,2.6,0.4,2.6,2.7
	c0,8.8,0,17.6,0,26.5c0,1.7-0.9,2.5-2.1,3.2c-4,2.3-8.4,3.5-13,4c-0.8,0.1-1.6,0.1-2.4,0.1c-0.4,0.8-0.7,1.6-1.1,2.5
	c-2.4,0-4.7,0-7.2,0c-0.2-1-0.4-1.8-0.7-2.7c-0.2-0.2-0.5-0.4-0.7-0.5c-10-2.2-16.5-8.4-20-18c-2.5-6.9-3.1-13.8-2.4-21
	c0.4-4.9,1.4-9.6,3.6-14c3.7-7.5,9.3-12.7,17.3-15.3C46.9,16.1,47.7,15.8,48.5,15.5z M48.6,26c-4.4,2.7-8,5.6-9.9,10.1
	c-3.8,8.6-3.6,17.3-1,26.1c1.2,4.1,3.4,7.8,7.1,10.3c1.1,0.7,2.3,1.2,3.8,2C48.6,58.1,48.6,42.3,48.6,26z"/>
<path id="euro" class="st0" d="M28.7,62c-1.7,0-3.3,0-4.9,0c-2.2-0.1-2.5-0.4-2.6-2.6c0-1.4,0-2.8,0-4.2c0-1.5,0.7-2.2,2.2-2.2
	c1.3,0,2.6,0,4.1,0c0-2,0-3.8,0-5.9c-0.9-0.1-1.9-0.2-2.8-0.2c-3.3-0.1-3.4-0.2-3.5-3.6c0-1,0-2,0-3c0.1-1.9,0.5-2.4,2.5-2.5
	c1,0,2-0.1,3,0c1.7,0.2,2.4-0.7,2.8-2.3c1.5-5.6,4.2-10.7,8.3-14.8c5.5-5.5,12.2-8.4,19.9-8.8c5.5-0.3,10.9-0.2,16.2,1.4
	c0.8,0.2,1.5,0.5,2.3,0.8c1.4,0.4,1.8,1.4,1.4,2.8c-0.6,1.9-1,3.8-1.6,5.7c-0.6,1.9-1.2,2.3-3,1.6c-4.3-1.6-8.7-1.9-13.2-1.8
	c-7.3,0.1-15.6,4.2-18.4,15.1c0.8,0.1,1.5,0.3,2.2,0.3c5.5,0,10.9,0,16.4,0c3.1,0,3.4,0.3,3.4,3.4c0,6.1,0.5,5.6-5.6,5.6
	c-5,0-9.9,0-14.9,0c-1,0-1.9,0-3.1,0c0,2.1,0,3.8,0,5.9c0.9,0.1,1.9,0.2,2.8,0.2c5.7,0,11.5,0,17.2,0c3.3,0,3.4,0.1,3.5,3.6
	c0,1,0,2,0,3c-0.1,2.1-0.4,2.4-2.5,2.4c-4.2,0-8.3,0-12.5,0c-2.2,0-4.5,0-7.1,0c2.5,7.6,6.8,12.8,14.3,14.7c6,1.5,12,1.1,17.7-1.5
	c2.7-1.2,3-1.1,3.9,1.8c0.4,1.2,0.8,2.4,1.2,3.7c0.6,2.2,0.5,2.7-1.6,3.8c-1.5,0.8-3.2,1.6-4.9,2c-7.7,2.1-15.5,2.3-23.1-0.2
	C39.2,83,33.3,76.1,30.2,66.6C29.7,65.1,29.2,63.6,28.7,62z"/>
<path id="tughrik" class="st0" d="M56.5,55.1c3.7-2.7,7.5-5.4,11.2-8.1c1.2-0.9,2.4-1.8,3.7-2.5c1.9-1,3-0.5,4,1.5
	c0.8,1.5,1.6,2.9,2.6,4.7c-0.8,0.6-1.5,1.3-2.3,1.8c-5.8,4-11.5,8.1-17.4,11.9c-2.1,1.4-2.8,2.9-2.7,5.3c0.2,4.8,0.1,9.7,0.1,14.6
	c0,1,0,1.9,0,2.9c-2.2,1.1-4.3,0.6-6.4,0.6c-5.8,0.1-5,0.5-5-5.1c0-2.6,0-5.3,0-8.5c-1.6,1-2.7,1.6-3.7,2.3c-1.2,0.9-2.1,0.8-3-0.5
	c-4.5-6.6-4.4-5.1,1.2-9.1c1.3-0.9,2.6-1.8,3.9-2.6c1-0.6,1.6-1.3,1.5-2.6c-0.1-2.3,0-4.5,0-7.2c-0.8,0.4-1.5,0.6-2,0.9
	c-3.5,2.3-6.9,4.7-10.3,7c-3.2,2.2-3.2,2.2-5.4-1.1c-0.8-1.2-1.5-2.3-2.4-3.8c0.9-0.8,1.7-1.6,2.6-2.3c5.1-3.5,10.1-7,15.3-10.3
	c1.7-1.1,2.4-2.3,2.3-4.3c-0.2-5,0-9.9-0.1-14.9c0-0.9-0.1-1.7-0.2-2.9c-1.2-0.1-2.3-0.1-3.3-0.2c-5.3,0-10.5,0-15.8,0
	c-3.3,0-3.4-0.1-3.4-3.3c0-1.6,0-3.2,0-4.8c0.1-2.1,0.3-2.4,2.5-2.4c2.6-0.1,5.2,0,7.7,0c14.4,0,28.7,0,43.1,0c0.5,0,1,0,1.5,0
	c1.4,0,2,0.7,2,2c0,2.2,0,4.4,0,6.5c0,1.2-0.7,1.8-1.8,1.9c-0.7,0-1.4,0-2.1,0c-5.2,0-10.3,0-15.5,0c-1,0-1.9,0-3.1,0
	c0,4.2,0,8.1,0,12.6c2.1-1.3,3.8-2.5,5.6-3.7c3.9-2.6,3.7-3.2,6.7,1.4c2.2,3.4,2.2,3.4-1.3,5.7c-3.3,2.1-6.5,4.5-9.8,6.7
	c-1,0.7-1.5,1.4-1.4,2.7c0.1,2.2,0,4.5,0,6.7C56,54.8,56.3,55,56.5,55.1z"/>
<path id="pound" class="st0" d="M54.5,85.3c0,1.1,0,3.8,0,5.3c-0.8,0-8.2-0.2-9-0.2c0-0.5,0-2.4-0.1-4.5c-4.6-0.5-7.6-1-11.8-2.1
	c-1.7-0.5-3-0.9-4.4-1.6c-1.7-0.8-1.9-1.3-1.3-3c0.6-1.9,1.3-3.7,2.1-5.6c0.8-2,1.4-2.2,3.4-1.3c3.2,1.4,6.5,2.4,10,2.7
	c0.6,0.1,1.3,0.1,2,0.1c0-1.2,0.1-1.8,0.1-2.6c0-5.7-0.1-11.5,0.1-17.2c0-1.9-0.7-2.8-2.3-3.6c-3.5-1.6-6.7-3.8-9.4-6.7
	c-7.8-8-6.7-25.6,8.5-29.7c0.2-0.1,2.8-1,3-1c0-1.3,0-2.1,0-4.9c2.1,0,6.3-0.1,8.5-0.1c0.1,1.6,0.1,3.3,0.2,4.6
	c4.6,0.1,7.8,0.9,11.8,1.9c0.1,0,0.6,0.1,0.7,0.2c4.5,1.3,4.8,1.8,3.2,6.1c-0.4,1.1-0.7,2.3-1.1,3.4c-0.7,1.8-1.3,2-3.2,1.3
	c-3.5-1.2-7.3-2.1-11.2-2.2c0,1,0.1,1.4,0.1,2.1c0,5.1,0.1,10.1-0.1,15.2c-0.1,2,0.7,3,2.5,3.8c3.6,1.7,6.9,3.9,9.8,6.6
	c9.2,8.6,6.9,25.3-5.6,30.7C59,83.9,56.8,84.5,54.5,85.3z M54.5,74.2c4.7-1.7,6.7-4.5,6.6-8.7c-0.1-3.5-2.8-6.8-6.6-7.9
	C54.5,63.2,54.5,68.6,54.5,74.2z M45.5,25.7c-3.3,1.1-5,3.2-5,6.3c-0.1,3.3,1.7,5.9,5,7.1C45.5,34.7,45.5,30.3,45.5,25.7z"/>
<path id="yuan" class="st0" d="M32.2,58.7c3.9-0.1,7.8-0.2,12.2-0.3c-0.6-1.3-1-2.2-1.5-3c-7.1-13-14.2-26.1-21.4-39.1
	c-1.9-3.5-1.6-4.6,2.6-4.4c2.1,0.1,4.2,0.1,6.2,0c1.8-0.1,2.8,0.7,3.7,2.3c5.3,10,10.6,19.9,16,29.9c0.2,0.3,0.4,0.7,0.7,1.3
	c0.4-0.6,0.8-1.1,1.1-1.6c4.9-9.4,9.8-18.8,14.5-28.3c1.4-2.8,3-3.9,5.9-3.5c1.9,0.2,3.8,0,5.6,0.1c1.6,0.1,2.1,0.9,1.6,2.4
	c-0.4,1-0.9,2-1.5,2.9C71.1,30,64.3,42.6,57.4,55.2c-0.5,0.9-0.9,1.9-1.6,3.4c3,0,5.4,0,7.9,0c4.6,0,5.1-0.7,4.9,5.2
	c-0.1,1.9-0.6,2.3-2.6,2.4c-1.6,0.1-3.2,0-4.8,0c-1.6,0-3.1,0-4.9,0c0,1.6,0,2.9,0,4.6c2.7,0,5.1,0,7.6,0c0.8,0,1.6,0,2.4,0
	c0.4,0,0.9,0,1.2,0.2c2,1.5,1,3.6,1.1,5.5c0.1,1.3-0.9,1.9-2.1,2c-2.3,0.1-4.6,0-6.8,0c-1,0-1.9,0-3.3,0c0,2.2,0,4.1-0.1,6.1
	c0,3.3-0.2,3.5-3.6,3.5c-1.9,0-3.8,0-5.6,0c-2.3-0.1-2.5-0.3-2.5-2.7c0-2.2,0-4.3,0-6.7c-4.2-0.1-8.1-0.2-11.8-0.3
	c-0.4-0.5-0.5-0.6-0.6-0.8c-0.9-6.6-0.8-6.7,5.7-6.7c2.1,0,4.1,0,6.4,0c0-1.6,0-2.9,0-4.6c-2.8,0-5.5,0-8.3,0c-4,0-4,0-4-3.9
	c0-0.8,0-1.6,0-2.4C31.8,59.7,31.9,59.4,32.2,58.7z"/>
<path id="yen_1_" class="st0" d="M44,70.8c0-1.6,0-2.9,0-4.6c-2.8,0-5.5,0-8.3,0c-4,0-4,0-4-3.9c0-0.8,0-1.6,0-2.4
	c0-0.3,0.2-0.6,0.4-1.2c3.9-0.1,7.8-0.2,12.2-0.3c-0.6-1.3-1-2.2-1.5-3c-7.1-13-14.2-26.1-21.4-39.1c-1.9-3.5-1.6-4.6,2.6-4.4
	c2.1,0.1,4.2,0.1,6.2,0c1.8-0.1,2.8,0.7,3.7,2.3c5.3,10,10.6,19.9,16,29.9c0.2,0.3,0.4,0.7,0.7,1.3c0.4-0.6,0.8-1.1,1.1-1.6
	c4.9-9.4,9.8-18.8,14.5-28.3c1.4-2.8,3-3.9,5.9-3.5c1.9,0.2,3.8,0,5.6,0.1c1.6,0.1,2.1,0.9,1.6,2.4c-0.4,1-0.9,2-1.5,2.9
	C71.1,30,64.3,42.6,57.4,55.2c-0.5,0.9-0.9,1.9-1.6,3.4c3,0,5.4,0,7.9,0c4.6,0,5.1-0.7,4.9,5.2c-0.1,1.9-0.6,2.3-2.6,2.4
	c-1.6,0.1-3.2,0-4.8,0c-1.6,0-3.1,0-4.9,0c0,1.6,0,2.9,0,4.6l-0.1,7.7c0,2.2,0,4.1-0.1,6.1c0,3.3-0.2,3.5-3.6,3.5
	c-1.9,0-3.8,0-5.6,0c-2.3-0.1-2.5-0.3-2.5-2.7c0-2.2,0-4.3,0-6.7L44,70.8z"/>
<path class="st0" d="M68.5,14.8c0.4,2.7-0.9,5.1-1.6,7.7c-0.2,0.9-1.1,1.3-2.2,0.9c-3.3-1.3-6.7-1.5-10.2-1.7
	c-10.5-0.6-18.9,6.6-19.5,17.6c-0.3,5.4,1,10.2,4.3,14.5c1.9,2.5,4.1,4.1,7.1,5.1c0.1-1.1,0.2-2.1,0.2-3.2c0-3.7,0-7.3,0-11
	c0-2.6,0.4-3,2.9-3c7.6,0,15.3,0,22.9,0c2.4,0,2.7,0.3,2.8,2.8c0,1.2,0.1,2.4,0,3.6c-0.1,2.1-0.4,2.4-2.5,2.4c-4.2,0.1-8.3,0-12.5,0
	c-1.3,0-2.5,0-4,0c0,3.6,0,6.8,0,10.3c1.1,0,2.2,0.1,3.3,0.1c3.7,0,7.3,0,11,0c2.2,0,2.6,0.5,2.7,2.6c0.1,7.5,0.3,6.1-5.9,6.2
	c-3.4,0.1-6.7,0-10.1,0.1c-0.2,0-0.4,0.1-0.9,0.3c-0.4,2.9-0.3,5.8-0.1,9.1c2.6,0,5,0,7.3,0c3.2,0,6.3,0,9.5,0
	c2.1,0,2.4,0.4,2.5,2.4c0,1.3,0,2.6,0,3.9c-0.1,2.2-0.3,2.5-2.7,2.5c-4.5,0-8.9,0-13.4,0c-3.4,0-6.7,0-10.1,0
	c-2.4,0-2.8-0.4-2.8-2.7c-0.1-4.3,0-8.5,0-12.8c0-2.8,0-2.8-3-3.6C33.8,66.3,26.2,57.2,24.8,47c-0.6-4.6-0.7-9.2,0.4-13.6
	c2.2-9.1,7.6-15.9,16.5-19.2c8.6-3.2,17.3-2.8,25.9,0.1C67.9,14.4,68.1,14.6,68.5,14.8z"/>
<path id="riyal" class="st0" d="M38.8,22.1c-1.5-0.2-2.7-0.4-4.3-0.7c0-2.5,0-4.9,0-7.3c0-1.1,0.6-1.7,1.6-1.7c3.6,0,7.1,0,10.7,0
	c0.9,0,1.4,0.6,1.5,1.5c0,0.7,0,1.4,0,2.1c0,10.8,0,21.6,0,32.4c0,3.8-0.7,7.5-1.8,11.1c-3.2,10-10.7,13.5-20.3,12.1
	c-2.2-0.3-4.4-1.1-6.5-2.1c-2.7-1.2-4.6-3.4-5.9-6.1c-1.6-3.4-2.2-7-1.8-10.7c0.4-4,2.3-7.1,6-8.9c2.3-1.1,4.1-0.9,4.1,2
	c0,1.4,0.5,2.7,0.6,4.1c0,0.7-0.1,1.6-0.5,2.2c-2.4,4-0.2,9.3,4.4,10.2c0.5,0.1,1,0.1,1.5,0.2c6.2,0.5,8.9-1.5,9.9-7.6
	c0.5-2.8,0.8-5.7,0.8-8.5C39,38.9,39,31.5,39,24.1C39,23.5,38.9,22.9,38.8,22.1z M62.8,30.4c0-5.2,0-10.3,0-15.5
	c0-2.6-0.3-2.8-2.9-2.9c-2,0-4-0.1-5.9,0c-2.1,0.1-2.5,0.4-2.5,2.4c-0.1,1.5-0.1,3,0,4.5c0,0.6,0.2,1.6,0.6,1.9
	c1.4,0.8,1.2,2.1,1.2,3.4c0,7.3,0,14.7,0,22c0.1,6.9,3.8,12.4,9.6,14.2c3.5,1.1,7,0.9,10.5,0c3.1-0.8,5.7-2.4,7.2-5.3
	c2.9-5.5,2.6-11-0.3-16.4c-1.1-2-2.9-3.1-5.1-3.8c-1-0.3-2-0.1-2.2,0.8c-0.4,2.8-1.9,5.6-0.5,8.6c0.6,1.4,0.4,3.3,0.3,4.9
	c0,0.6-0.5,1.3-1,1.7c-3.5,2.6-8.5,0.5-9-3.9c-0.1-0.7-0.1-1.4-0.1-2.1C62.8,40.1,62.8,35.2,62.8,30.4
	C62.8,30.4,62.8,30.4,62.8,30.4z M76.8,64.3c-1,1-1,2.3-0.4,3.6c0.6,1.3,1.2,2.5,1.7,3.8c0.7,1.9,0.8,4-0.7,5.6
	c-1.5,1.5-3.7,2.1-5.5,1.3c-2.8-1.2-5.5-0.3-8.1,0.1c-2.1,0.3-2.5,1.1-1.7,3.1c0.9,2.4,2.7,4.1,5,5.2c2.8,1.3,5.8,1.3,8.7,0.9
	c6.2-0.7,10.9-5,11.9-11.1c1.1-6.4-1.7-11.9-5.4-17.6C80.4,60.9,78.6,62.6,76.8,64.3z M59.1,65.6c-2.3-2.5-5.6-2.6-7.9-0.4
	c-2.3,2.2-2.4,5.5-0.3,7.7c2.3,2.4,5.9,2.3,8.2-0.1c0.5-0.5,0.9-1.2,1.4-1.8c3.1,4.1,6.4,4.8,9.3,2.2c2.3-2.1,2.4-5.7,0.1-7.9
	c-2.8-2.7-6-2-9.4,2.2C59.9,66.7,59.5,66.1,59.1,65.6z"/>
<path id="lira" class="st0" d="M27,47.5c0-1.7,0-3,0-4.4c0-3.1,0-3.1,3.2-4c-0.1-0.8-0.2-1.7-0.3-2.5C26.5,19.8,43,9.5,54.8,13
	c4,1.2,7.8,2.7,11.2,5.3c2,1.6,2.1,1.9,0.6,3.8c-1.4,1.7-2.9,3.2-4.4,5c-1-0.6-1.7-1-2.4-1.5c-2.5-1.6-5.1-2.9-8.1-3.4
	c-7.5-1.3-14,5.4-12.2,12.9c0.3,1.4,0.8,2.8,1.3,4.5c1.2,0,2.2,0,3.3,0c6.5,0,13.1,0,19.6,0c3.1,0,3.2,0.1,3.2,3.1
	c0,5.3,0.6,5.1-4.9,5c-4.7,0-9.3,0-14,0c-1,0-1.9,0-3.4,0c0.9,2.3,1.7,4.1,2.6,6.3c6.5,0,12.9,0,19.7,0c0,2.4,0.1,4.5,0,6.5
	c-0.1,1.5-1.2,1.6-2.4,1.6c-3.8,0-7.5,0-11.3,0c-1.1,0-2.1,0-3,0c-0.5,3.1-0.6,5.9-1.4,8.4c-0.8,2.6-2.3,5-3.6,7.8
	c4.9,0,9.5,0,14.1,0c4.5,0,9.1-0.1,13.9,0.1c0,2.4,0,4.4,0,6.3c0,0.9-0.1,1.7-0.2,2.8c-15.1,0-30,0-45,0c-0.3-2.4-0.5-4.7-0.7-6.9
	c-0.1-1.3,0.3-2,1.6-2.4c5.2-1.6,8.4-5.4,10.6-10.1c0.4-0.8,0.7-1.7,0.8-2.5c0.3-2.9-0.3-3.5-3.1-3.5c-2.6,0-5.2,0-7.7,0
	c-1.5,0-2.2-0.6-2.2-2.1c0-1.8,0-3.5,0-5.2c1.5-1.2,3-0.7,4.4-0.8c1.4-0.1,2.9,0,4.5,0c-0.1-2.4-1.2-4-2.1-5.5
	c-0.3-0.5-1.4-0.6-2.1-0.7C30.3,47.6,28.8,47.6,27,47.5z"/>
<path id="rupee" class="st0" d="M51.1,39.3c-4.1,0-8,0-12,0c-3.7,0-7.3,0-11,0c-2.1,0-2.4-0.4-2.5-2.4c0-1.3,0-2.6,0-3.9
	c0.1-2.4,0.3-2.7,2.8-2.7c6.7,0,13.5,0,20.2,0c1,0,1.9-0.1,3.1-0.1c-0.2-0.7-0.2-1.2-0.5-1.6c-2.8-4.2-6.2-7.5-11.7-7.4
	c-3.7,0.1-7.3,0-11,0c-2.5,0-2.9-0.4-2.9-3c0-1.3-0.1-2.6,0-3.9c0.1-1.9,0.4-2.2,2.3-2.4c0.5,0,1,0,1.5,0c13.7,0,27.4,0,41,0
	c0.7,0,1.4,0,2.1,0.1c1,0.1,1.6,0.7,1.7,1.8c0.1,1.8,0.1,3.6,0,5.3c-0.1,1.5-1.1,2-2.5,2c-2.3,0-4.6,0-6.8,0c-1,0-2,0-3.3,0
	c0.7,1.7,1.4,3.1,1.8,4.5c0.5,1.4,0.8,2.8,1.3,4.5c2.3,0,4.6,0,6.8,0c2.2,0,2.6,0.4,2.7,2.5c0.1,1.4,0.1,2.8,0,4.2
	c-0.1,1.8-0.5,2.2-2.4,2.3c-2.6,0.1-5.1,0-7.8,0c-1.8,7.6-6.8,12.2-13.7,15.5c4,3.4,5.9,7.9,8.6,11.9c3.7,5.6,7.2,11.4,10.8,17.1
	c0.3,0.5,0.7,1,0.9,1.5C71.5,87,70.9,88,69,88c-2.9,0.1-5.8,0-8.6,0c-1.6,0.1-2.2-1.1-2.9-2.1c-3.3-5.1-6.5-10.2-9.8-15.3
	c-2.5-3.9-5.1-7.8-7.5-11.8c-0.9-1.4-1.8-2.6-3.7-2.4c-0.1,0-0.2,0-0.3,0c-3.7-1-3.4-0.4-3.4-4.2c0-1,0-2,0-3
	c0.1-2.1,0.5-2.6,2.6-2.7c2-0.1,4,0,5.9-0.3c3.9-0.5,7.2-2.1,9.5-5.4c0.1-0.2,0.2-0.3,0.3-0.5C51.1,40.1,51.1,39.9,51.1,39.3z"/>
<path class="st0" d="M43.6,70.2c0,4.8,0,9,0,13.3c0,0.9,0,1.8,0,2.7c0,1.1-0.6,1.7-1.7,1.7c-2.7,0-5.3,0.1-8,0
	c-1.6,0-1.9-1.2-1.9-2.5c0-3.5,0-6.9,0-10.4c0-1.5,0-2.9,0-4.8c-1.5,0-2.6,0-3.8,0c-2.3-0.1-2.6-0.4-2.7-2.6c-0.1-1.5-0.1-3,0-4.5
	c0.1-1.8,0.5-2.2,2.4-2.3c1.3-0.1,2.5,0,4.2,0c0-1.5,0-2.7,0-3.8c0-13.6,0-27.2,0-40.7c0-0.5,0-1,0-1.5c0.1-2.4,0.4-2.7,2.8-2.8
	c2,0,4,0,5.9,0c10,0,20,0,30,0c1.2,0,2.3,0.1,3.9,0.2c0,3.1,0.1,5.9-0.1,8.7c0,0.5-0.8,1.3-1.4,1.5c-0.7,0.3-1.6,0.1-2.4,0.1
	c-7.9,0-15.9,0-23.8,0c-1,0-1.9,0-2.8,0c-0.6,2.3-0.8,18.1-0.2,21.8c1,0,2,0.1,3.1,0.1c7.2,0,14.5,0,21.7,0c0.7,0,1.4,0,2.1,0
	c1.2,0.1,1.8,0.7,1.8,1.9c0,2.3,0,4.6,0,6.8c0,1.2-0.8,1.8-1.9,1.8c-0.6,0-1.2,0-1.8,0c-7.3,0-14.7,0-22,0c-1,0-1.9,0.1-3.1,0.2
	c0,1.8,0,3.4,0,5.3c1,0.1,2,0.2,2.9,0.2c4.3,0,8.5,0,12.8,0c2.8,0,3.1,0.4,3.2,3.1c0,1.2,0,2.4,0,3.6c-0.1,2.1-0.6,2.6-2.7,2.7
	c-3.6,0.1-7.1,0-10.7,0C47.5,70.2,45.8,70.2,43.6,70.2z"/>
<path id="shekel" class="st0" d="M23,23.9c0,1.2,0,2.2,0,3.2c0,18.8,0,37.6,0,56.5c0,0.7,0,1.4,0,2.1c-0.2,1.9-0.4,2.2-2.4,2.2
	c-2.4,0.1-4.8,0-7.1,0c-1.5,0-2.2-0.7-2.2-2.2c0-0.6,0-1.2,0-1.8c0-22.4,0-44.8,0-67.2c0-0.5,0-1,0-1.5c0.1-3,0.3-3.3,3.2-3.3
	c10.7,0,21.4-0.1,32.1,0c11.1,0.1,19.1,8.3,19.2,19.5c0,7.7,0,15.5,0,23.2c0,3.2-0.2,3.4-3.3,3.4c-1.8,0-3.6,0-5.4,0
	c-2.9,0-3-0.1-3-3c0-7.6,0-15.3,0-22.9c0-1.4-0.2-2.8-0.7-4c-1.1-2.8-3.1-4.4-6.3-4.4c-7.2,0.1-14.5,0-21.7,0
	C24.7,23.8,24.1,23.9,23,23.9z M75.7,76.2c-7.6,0-15.3,0.1-22.9,0c-3.4,0-6.1-2.8-6.5-6.2c-0.1-1-0.1-2-0.1-3c0-7.2,0-14.5,0-21.7
	c0-3.3-0.2-3.5-3.6-3.5c-1.6,0-3.2,0-4.8,0c-3.3,0-3.3,0.1-3.4,3.4c0,8.1,0,16.3,0,24.4c0,0.9,0,1.8,0.2,2.7
	c1.9,9.4,9.1,16,19.1,15.8c10.4-0.2,20.8,0,31.2,0c0.7,0,1.5,0.2,2.1-0.1c0.6-0.3,1.2-0.8,1.5-1.4c0.3-0.6,0.1-1.4,0.1-2.1
	c0-22.9,0-45.8,0-68.7c0-1.1-0.1-2.1-0.2-3.6c-3.1,0-5.9-0.1-8.8-0.1c-2.2,0-2.5,0.4-2.6,2.7c0,0.7,0,1.4,0,2.1
	c0,18.5,0,37.1,0,55.6c0,1.1,0,2.2,0,3.5C76.4,76.1,76,76.2,75.7,76.2z"/>
<path id="cedi" class="st0" d="M57.1,74.8c3.6,0.3,6.8-0.3,9.9-1.5c0.7-0.3,1.5-0.6,2.2-1c1-0.5,1.8-0.1,2.2,0.8
	c0.4,0.9,0.6,1.9,0.9,2.8c1.3,4.1,1.2,4.6-3,6.1c-2.5,0.9-5.1,1.3-7.7,1.8c-1.4,0.3-2.9,0.3-4.3,0.4c-0.7,3.7-0.7,3.7-4.4,3.7
	c-0.4,0-0.8,0-1.2,0c-2.4-0.1-2.7-0.3-2.9-2.7c0-0.5-0.1-1-0.1-1.6c-0.4-0.2-0.8-0.5-1.2-0.6c-9.7-2.9-15.6-9.6-18.3-19
	c-3-10.2-3-20.5,1-30.6c3.1-8,8.7-13.6,16.9-16.3c0.5-0.2,0.9-0.4,1.6-0.7c0.1-0.7,0.1-1.5,0.2-2.2c0.2-1.9,0.6-2.3,2.6-2.4
	c0.5,0,1,0,1.5,0c3.7,0,3.7,0,4.5,3.7c1.5,0.1,3,0.1,4.6,0.4c2.8,0.4,5.7,0.9,8.4,1.6c2,0.5,2.1,1.1,1.6,3c-0.4,1.6-0.8,3.3-1.3,4.9
	c-0.5,1.6-1,1.7-2.7,1.3c-2.5-0.6-5-1.2-7.5-1.7c-1-0.2-2.1,0-3.3,0C57.1,41.8,57.1,58.2,57.1,74.8z M48.3,72.5
	c0.7-3.1,0.6-43-0.1-45.3c-0.7,0.4-1.4,0.7-2,1.1c-3.2,2.3-5.2,5.5-6.4,9.1c-2,5.7-2.2,11.6-1.6,17.6c0.5,4.9,2,9.5,5.2,13.4
	C44.7,70.1,46.3,71.5,48.3,72.5z"/>
<path id="pound_1_" class="st0" d="M45.9,77.7c1.4,0.2,2.6,0.4,3.7,0.4c6.5,0.1,13.1,0.1,19.6,0.2c0.7,0,1.4,0,2.1,0
	c1.2,0,1.8,0.6,1.8,1.8c0,2.4,0,4.7,0,7c-2.4,0.7-42.1,0.9-45.8,0.2c0-2.8,0-5.6,0-8.3c2.3-1.4,4.7-2.4,6.6-4
	c3.9-3.2,6.3-7.3,5.8-12.7c-0.1-0.6-0.2-1.2-0.4-1.7c-0.9-2.3-1-2.3-3.5-2.4c-2.2,0-4.4,0.1-6.5,0c-2-0.1-2.4-0.4-2.4-2.5
	c0-1.3,0-2.6,0-3.9c0-1.5,0.8-2.2,2.2-2.2c1.6,0,3.3,0,5.3,0c-0.5-1.3-0.9-2.2-1.2-3.1c-1.2-3.7-2.8-7.2-3.5-11
	c-1.5-7.1,1-13.1,6.2-17.9c5.7-5.3,12.5-6.6,19.9-4.7c4,1,7.6,2.8,10.8,5.4c1.7,1.3,1.7,1.8,0.5,3.4c-1.1,1.3-2.2,2.6-3.3,3.8
	c-1.5,1.6-1.7,1.6-3.5,0.4c-2.4-1.6-4.9-3-7.8-3.6c-4.7-1-8.4,0.6-11.3,4.2c-1.8,2.2-2.2,4.9-1.7,7.6c1,5,3.3,9.5,5.4,14.1
	c0.6,1.3,1.7,1.3,2.8,1.3c4.6,0,9.1,0,13.7,0c1.8,0,3.5,0,5.5,0c0.9,2.7,0.5,5.2,0.4,7.6c0,1.4-1.3,1.6-2.4,1.6c-4,0-7.9,0-11.9,0
	c-1,0-2.1,0.2-3.3,0.3C50.5,65.8,48.9,71.7,45.9,77.7z"/>
<path id="riel" class="st0" d="M43.4,62.6c0,2.6-0.2,5.1,0.1,7.5c0.3,3.3,2.9,4.6,6.1,6.2c0-8.6,0-16.6,0-24.9
	c-1.8-0.2-3.4-0.3-5.4-0.5c-0.1-1.4-0.1-2.8-0.2-4.1c0-1.4,0-2.8,0-4.5c1.8-0.2,3.4-0.3,5.4-0.5c0.1-1.2,0.1-2.4,0.2-4
	c-1.4,0-2.6,0.1-3.7,0c-7.6-0.4-11.6-7.2-8.1-13.9c2.3-4.4,5.7-7.9,9.9-10.4c4-2.4,7.8-2,11.5,1c1.3,1,2.4,2.4,4.4,1.7
	c0.4-0.1,1.6,0.9,1.7,1.5c0.4,1.8,0.6,3.7,0.8,5.6c0.1,1-0.2,1.7-1.3,2c-3.4,1-6.7,0.9-9.5-1.7c-0.9-0.8-1.8-1.5-2.6-2.3
	c-3,1.8-5.2,4.1-6.2,6.8c0.9,0,1.8,0,2.6,0c1.4,0.1,2.8,0,4.1,0.3c3.8,0.8,5.5,3.1,5.6,6.9c0,1.9,0.1,3.8,0.1,5.6
	c0,0.2,0.2,0.3,0.4,0.8c1.8,0.1,3.7,0.2,5.9,0.3c0.6,2.9,0.4,5.7,0.1,8.8c-2.1,0.1-4,0.2-6.3,0.3c-0.1,1.1-0.2,2.1-0.2,3.2
	c0,9.2,0,18.4,0,27.6c0,0.9,0,1.8,0,2.7c0,3.3-0.4,3.7-3.7,2.9c-3.2-0.8-6.4-1.5-9.4-2.7c-2.5-1.1-4.8-2.7-7-4.4
	c-3.4-2.8-4.9-6.6-5-11c-0.1-4.6,0-9.1,0-13.7c0-2.6,0.4-2.9,2.9-3c2.5,0,5-0.1,7.4,0c2,0.1,2.4,0.5,2.5,2.5c0.1,1.2,0,2.4,0,3.6
	C46.8,61.9,46.8,61.9,43.4,62.6z"/>
<path id="gilder" class="st0" d="M44.4,42c-1.7,0-3.4,0.1-5,0c-1.8-0.1-2.3-0.5-2.4-2.3c-0.1-1.7-0.1-3.4,0-5.1
	c0.1-1.9,0.4-2.2,2.3-2.2c1.7-0.1,3.3,0,5,0c0.3-2.9,0.5-5.5,0.8-8c0.9-7.4,4.9-11.2,12.3-12.1c4.3-0.5,8.5-0.1,12.6,1.3
	c2,0.7,2.3,1.1,1.7,3c-0.7,2.2-0.6,4.7-2.1,6.2c-3.4-0.4-6.4-0.9-9.4-1c-2.9-0.1-4.2,1-4.6,3.9c-0.3,2-0.2,4.1-0.4,6.5
	c1.3,0.1,2.3,0.2,3.4,0.2c2.5,0,5,0,7.4,0c1.9,0.1,2.2,0.3,2.2,2.3c0.1,1.4,0,2.8,0,4.2c0,2.8-0.3,3.1-3,3.1c-3.2,0-6.3,0-9.9,0
	c0,1.1-0.1,2.1-0.1,3c0,7.4,0.1,14.9-0.1,22.3c-0.1,3.4-0.5,6.9-1.1,10.3c-1,5.9-4.9,9.2-10.6,10.1c-4.5,0.7-9.1,0.4-13.5-1.1
	c-2.3-0.8-2.5-1.2-1.9-3.5c0.3-1.3,0.7-2.7,1.1-4c0.6-2.2,1-2.5,3.1-1.7c2.4,0.8,4.8,1.2,7.3,1.1c2.6-0.2,3.7-1,4.4-3.5
	c0.2-0.8,0.4-1.7,0.4-2.6c0.1-9.6,0.1-19.2,0.1-28.8C44.7,43,44.6,42.7,44.4,42z"/>
<path id="new_dollar" class="st0" d="M34.9,38c-3.3,0-6.1,0-9,0c-6.7,0.1-5.9,0.2-5.9-5.9c0-4.7,0-4.7,4.7-4.7c16.6,0,33.1,0,49.7,0
	c0.9,0,1.8-0.2,2.7,0.1c0.6,0.2,1.5,0.9,1.5,1.4c0.2,2.5,0.2,4.9,0.1,7.4c0,1.4-1.2,1.7-2.4,1.7c-3,0-5.9,0-8.9,0c-1,0-1.9,0-3.3,0
	c0,1.4-0.1,2.4,0,3.5c0.5,7.9,0.9,15.8,1.4,23.7c0.2,2.7,1,5.2,2.6,7.5c2.2,3,5.1,3.4,7.9,0.9c0.8-0.7,1.4-1.7,2.2-2.4
	c0.4-0.4,1.2-0.8,1.7-0.7c0.4,0,0.9,0.8,0.9,1.3c0.1,3.5,0.2,6.9-0.1,10.4c-0.1,0.8-1.3,1.7-2.2,2.1c-7,3.3-14.7,1-19.2-5.7
	c-2.4-3.5-3.8-7.4-4.1-11.6c-0.7-9-1.2-18-1.8-26.9c0-0.5-0.1-1-0.2-1.6c-2.6-0.6-5.1-0.4-8-0.2c0,1.2,0,2.2,0,3.3
	c0.1,7.4-0.4,14.8-1.9,22.1c-1,4.7-2.4,9.2-4.8,13.4c-3.6,6.5-9.4,9.7-16.5,11c-1.3,0.2-2.2-0.2-2.4-1.6c-0.3-2.2-0.4-4.3-0.6-6.5
	c-0.1-1.4,0.5-2.3,1.9-2.5c5.5-0.8,8.4-4.4,10.1-9.3c1.9-5.2,3-10.7,3.2-16.2c0.2-3.5,0.3-6.9,0.5-10.4C34.9,40.6,34.9,39.6,34.9,38
	z M43.7,11.9c-5,0-10.1,0-15.1,0c-1.4,0-2.6,0.2-2.7,2c-0.1,2.3-0.1,4.5,0,6.8c0,1.2,0.7,1.8,1.9,1.9c0.7,0,1.4,0,2.1,0
	c12.8,0,25.5,0,38.3,0c0.9,0,1.8,0,2.7,0c1.4-0.1,2.2-0.8,2.2-2.2c0-1.7,0-3.4,0-5c0-3.1-0.3-3.3-3.4-3.4c-6.6,0-13.3,0-19.9,0
	C47.6,11.9,45.7,11.9,43.7,11.9z"/>
<path id="dong" class="st1" d="M57.4,17.2c0.2-0.7,0.4-0.9,0.4-1.1c-0.1-4.3,0-4.1,4.4-4c1.2,0,2.4,0,3.6,0c2.1,0.1,2.3,0.3,2.5,2.4
	c0.1,0.8,0.1,1.6,0.2,2.7c1.5,0,2.8,0,4.2,0c1.2,0,1.9,0.5,1.9,1.8c0,2,0,3.9,0,6.1c-2.2,0.2-4,0.3-6.3,0.5
	c0.3,15.8-0.6,31.5,0.6,47.3c-2.3,0.7-4.6,0.3-7.1,0.3c-0.6-1.5-1.1-3-1.7-4.6c-0.5,0.3-0.9,0.5-1.2,0.8c-5.5,5.2-12,6.3-19,3.8
	c-7.1-2.6-12.2-7.2-13.7-15.1c-1.4-7.5-0.3-14.3,4.9-20.3c4.2-4.7,9.4-7.2,15.6-7.4c3-0.1,6.1,0.3,9.2,0.5c0.6,0,1.1,0,1.9,0
	c0-1.8,0-3.4,0-5.3c-1-0.1-2-0.2-2.9-0.2c-3.5,0-6.9,0-10.4,0c-2.4,0-2.8-0.4-2.8-2.8c0-5.7-0.6-5.4,5.2-5.3
	C50.3,17.2,53.9,17.2,57.4,17.2z M57.8,49.3C57.8,49.3,57.8,49.3,57.8,49.3c0-1.9,0-3.8,0-5.6c0-2.2-0.4-2.9-2.5-3.4
	c-2.4-0.5-4.9-0.7-7.3-0.6c-2.7,0-5.2,1-7.3,2.8c-5.5,4.5-5.3,12.9-2.6,17.3c3,4.9,7.1,6.2,12.5,4.9c4.3-1,7.1-5,7.2-10.1
	C57.9,52.8,57.8,51,57.8,49.3z M65.1,79.9c-10,0-20,0-29.9,0c-4.9,0-4.9,0-4.8,5c0.1,2.8,0.2,3,3.1,3c11,0,21.9,0,32.9,0
	c0.8,0,1.7-0.2,2.6-0.3c0-2.5,0-4.8,0-7.4C67.5,80.1,66.3,79.9,65.1,79.9z"/>
<path id="afghani" class="st0" d="M29.3,59.7c11.3,0,22.1,0,33.2,0c0.1-1.3,0.1-2.3,0.2-3.4c-2.4-0.2-4.6-0.3-6.7-0.7
	c-5.1-0.8-9.1-3.4-10.3-8.6c-2-8.8,1.8-16.7,11.6-18.2c2.5-0.4,4.9-0.5,7.3,0.1c4.1,1,6.5,4.5,6,8.6c-0.1,1.1-0.2,2.2-0.2,3.3
	c0,7.8,0,15.7,0,23.5c0,3.1-0.2,3.2-3.1,3.2c-11.6,0-23.2,0-34.8,0c-3,0-3.1-0.2-3.2-3.2C29.3,62.9,29.3,61.6,29.3,59.7z M62.5,36.6
	c-2.3-0.2-4.3-0.4-6.3,0.5c-2.6,1.2-3.3,3.5-3.3,6.1c0,2.1,0.8,3.8,2.8,4.4c2.1,0.7,4.3,1.3,6.8,0.4C62.5,44.3,62.5,40.6,62.5,36.6z
	 M54.3,78.7c0-1.9,0.1-3.8-0.1-5.6c0-0.5-0.9-1.4-1.1-1.4c-2,0.7-4,1.5-6,2.4c-0.3,0.1-0.4,0.9-0.4,1.3c0,3.7,0,7.3,0,11
	c0,1.3,0.6,1.9,1.9,1.4c1.2-0.4,2.4-1,3.6-1.3c1.6-0.5,2.2-1.4,2.1-3.1C54.3,81.9,54.3,80.3,54.3,78.7
	C54.3,78.7,54.3,78.7,54.3,78.7z M49.7,17c-0.5,0.8-0.5,1.7,0.5,2.3c2.7,1.7,5.3,3.4,8,5.1c0.8,0.5,1.6,0.4,2.1-0.4
	c1.1-1.6,2.1-3.3,3.3-5.3C60,16.5,56.7,14.4,53,12C51.7,13.9,50.6,15.4,49.7,17z"/>
<g class="st1">
</g>
<g id="manat" class="st1">
	<path class="st2" d="M90.6,88.5c-1.7-0.1-3.5-0.2-5.2-0.3c-0.2,0-0.5,0-0.7,0c-1.7,0-3.2-1.4-3.4-3.1l-0.1-1.2
		c-0.1-1.7-0.3-3.4-0.4-5.1c-1-10.3-0.9-22.4-6.3-33.4C70.9,38,67.9,32.9,62,29.9c-1.2-0.6-2.6-1.2-4.2-1.8l-0.1-0.1
		c-0.8-0.3-1.5-0.5-2-0.7l0.1,8.1c0.2,12.9,0.3,25.9,0.5,38.8c0,2.1-0.7,3.4-2.5,4.4c-1.9,1-3.8,2.1-5.8,3.3l-0.4,0.2
		c-0.5,0.3-1.1,0.5-1.7,0.5c-0.9,0-1.8-0.4-2.4-1c-0.6-0.7-1-1.5-0.9-2.4L44,27.7c-1.1,0.4-2.3,0.9-3.6,1.5
		c-6.1,3.1-9.6,7.9-13.9,14.5c-4.2,6.5-5.6,14.2-7.3,23.4c-1.1,5.9-0.7,12-0.7,18.1c0,0.3,0,0.5,0,0.7l-0.1,1.8l-1.9,0.1H8.4
		c-1.9,0-3.4-1.5-3.4-3.4v-1.8c0-0.3,0-0.5,0.1-0.8l0-0.1c0-0.1,0.1-0.2,0.1-0.3c0.5-6.3,0.5-12.7,2-18.7
		c2.5-10.2,4.5-18.6,9.4-25.8c6.2-9.2,12.2-15.2,21.7-18.4c1.7-0.6,3.4-1,5.2-1.4l1-0.2c0-0.9,0-1.9,0-2.8c-0.1-1.8,0.8-3,2.4-3.7
		c1.2-0.5,2.4-1,3.8-1.6L51,8.4h0.4c0.1,0,0.1,0,0.2,0c0.2,0,0.5-0.1,0.9-0.1c1.1,0,2.4,0.5,2.9,3.1l0,0.2v4.8
		c6.8,1.1,11.9,3.4,17.5,7.7c4.9,3.8,7.4,8.5,11.1,14.5c6.9,11.1,9.1,24,10.5,39.5c0.1,1.1,0.2,2.2,0.3,3.3l0.1,1.5
		c0,0.1,0,0.2,0,0.3l0,0.7c0,0.8,0,1.7,0,2.5c0,0.8-0.4,1.3-0.6,1.5l-0.6,0.9L90.6,88.5z"/>
</g>
<path id="tenge" class="st3" d="M17.1,9.2h62.6c0.9,0,1.6,0.7,1.6,1.6v7.1c0,0.9-0.7,1.6-1.6,1.6H17.1c-0.9,0-1.6-0.7-1.6-1.6v-7.1
	C15.5,9.9,16.2,9.2,17.1,9.2z M17.1,36.1h24.6c0.9,0,1.6,0.7,1.6,1.6v53.8c0,0.9,0.7,1.6,1.6,1.6H52c0.9,0,1.6-0.7,1.6-1.6V37.6
	c0-0.9,0.7-1.6,1.6-1.6h24.6c0.9,0,1.6-0.7,1.6-1.6v-7.1c0-0.9-0.7-1.6-1.6-1.6H17.1c-0.9,0-1.6,0.7-1.6,1.6v7.1
	C15.5,35.4,16.2,36.1,17.1,36.1z"/>
<path id="som" class="st1" d="M95,39.1c-0.2,0.8-0.4,1.7-0.7,2.5c-0.9,2.5-2.7,4.2-4.9,5.5c-0.8,0.5-1.5,0.8-2.4,1.3
	c0.6,0.3,1.1,0.6,1.6,0.8c3.2,1.5,5,4,5.8,7.3c0.6,2.9,0.7,5.8-0.1,8.6c-0.9,3-2.8,5.3-5.4,7c-3.7,2.5-8,3.5-12.3,3.7
	c-4.1,0.2-8.1,0.2-12.2,0.2c-2.3,0-4.6,0-6.8,0c-1.2,0-1.3-0.1-1.3-1.3c0-11.8,0-23.6,0-35.4c0-4.6,0-9.1,0-13.7
	c0-1.1,0.1-1.3,1.3-1.2c6.7,0,13.4,0,20.1,0.2c3.1,0.1,6.2,0.6,9.1,1.6c3.4,1.2,6.1,3.2,7.4,6.8c0.4,1.1,0.6,2.2,0.8,3.4
	C95,37.4,95,38.3,95,39.1z M65.9,68.1c0.1,0,0.2,0.1,0.3,0.1c3.9,0,7.9,0,11.8,0c1.6,0,3.1-0.5,4.3-1.5c2.3-1.9,2.5-4.4,2.1-7
	c-0.2-1.1-0.8-2.1-1.6-2.9c-1.3-1.3-3-2-4.8-2c-4-0.1-7.9-0.1-11.9-0.1c-0.1,0-0.1,0.1-0.2,0.1C65.9,59.2,65.9,63.6,65.9,68.1z
	 M65.9,44.9c0.2,0,0.4,0,0.5,0c3.5,0,6.9,0,10.4,0c1.1,0,2.2-0.2,3.2-0.4c1.3-0.3,2.4-1,3.2-2.1c1.3-1.7,1.4-3.6,1.2-5.6
	c-0.2-1.5-0.9-2.7-2-3.7c-1.6-1.3-3.6-1.8-5.6-1.8c-3.5,0-6.9,0-10.4,0c-0.2,0-0.4,0-0.6,0.1C65.9,35.9,65.9,40.4,65.9,44.9z
	 M4.1,69.5c0.1,0.2,0.2,0.5,0.2,0.7C4.6,72,4.8,73.8,5,75.5c0.1,0.7,0.4,1,1.1,0.9c1.4-0.1,2.7-0.2,4.1-0.4c3.7-0.7,6.6-2.9,9-5.7
	c1.5-1.8,2.4-4,3.1-6.3c1.2-4,1.6-8,1.7-12.1C24,45.9,24,40,24,34c0-0.3,0-0.6,0-0.9c0.3,0,0.4,0,0.6,0c4.6,0,9.3,0,13.9,0
	c1.1,0,1.1,0,1.1,1.1c0,13.6,0,27.3,0,40.9c0,1.3,0.1,1.3,1.3,1.3c2.5,0,5.1,0,7.6,0c1.2,0,1.3-0.1,1.3-1.4c0-16.4,0-32.7,0-49.1
	c0-1.2-0.1-1.3-1.3-1.3c-11,0-22.1,0-33.1,0c-1.2,0-1.3,0.1-1.3,1.3c0,7.6,0,15.2,0,22.8c0,3.8-0.2,7.7-1.2,11.4
	c-1.1,4.2-3.6,7-7.9,7.8c-0.3,0.1-0.6,0.3-0.9,0.4C4.1,68.8,4.1,69.1,4.1,69.5z"/>
<path id="dinar" class="st1" d="M6.5,56.9c3.9-0.8,4.5-3,5.2-5.8c1.2-4.5,2.1-9,2.7-13.6c0.4-3.9,0.1-7.8,0.1-11.7
	c0-1.3,0.3-1.9,1.8-1.9c6,0.1,11.9,0.1,17.9,0c1.8,0,1.9,0.9,1.9,2.3c0,9.2,0,18.4,0,27.5c0,0.8,0,1.7,0,2.6c1,0.1,1.9,0.2,2.7,0.3
	c0,4.3,0.1,8.6-0.2,12.8c0,0.3-2.3,0.7-3.6,0.7c-0.4,0-1.2-0.9-1.3-1.4c-0.1-2.3-0.1-4.7-0.1-7.2c-7.5,0-14.6,0-22,0
	c0,1.9,0,3.7,0,5.5c0,3.1,0,3.1-3.2,3.1c-0.5,0-1-0.1-1.7-0.1c-0.5-0.1-0.4-4.5-0.6-6.8C6.2,61.3,5.8,57.1,6.5,56.9z M15.6,56.4
	c4.4,0,8.3-0.1,12.1,0c1.7,0.1,2.2-0.5,2.2-2.2c-0.1-7.7,0-15.4,0-23.2c0-0.6-0.1-1.2-0.2-1.9c-3.1,0-6.2,0-9.5,0
	C20.4,38.5,20.1,47.6,15.6,56.4z M41.8,60.2c0,0.4,0.2,1,0.4,1.2c1.3,1,6.3-0.1,7.1-1.6c3.1-5.2,6.1-10.4,9.2-15.6
	c0.3-0.5,0.6-0.9,1.2-1.9c0,6.9,0,13,0,19.1c1.9,0,3.7,0,5.6,0c0-1,0-1.8,0-2.7c0-6.8,0-13.6,0-20.4c0-4.9,0.6-4.1-4.3-4.2
	c-1.2,0-2.3-0.1-3.1,1.3c-3,5.3-6.2,10.5-9.3,15.8c-0.2,0.4-0.5,0.7-1,1.4c0-5.8,0-11.1,0-16.5c0-0.7-0.5-1.8-1-1.9
	c-1.5-0.2-3.1-0.1-4.9-0.1C41.8,43.1,41.8,51.6,41.8,60.2z M92.4,61.5c0.1-0.4,0.3-0.8,0.3-1.2c0-8.2,0-16.4,0-24.5
	c0-1.1-0.4-1.7-1.6-1.6c-0.8,0.1-1.5,0.1-2.3,0c-1.8-0.2-2.2,0.6-2.2,2.2c0.1,2.7,0,5.3,0,8.1c-3.8,0-7.3,0-11.1,0
	c0-2.9,0.1-5.7-0.1-8.5c0-0.6-0.7-1.6-1.1-1.7c-1.5-0.2-3.1-0.1-4.9-0.1c0,9,0,17.5,0,26.1c0,0.5,0.7,1.2,1.1,1.3
	c1.6,0.2,3.1,0.1,5,0.1c0-4.1,0-7.9,0-11.7c3.7,0,7.2,0,11,0c0,3.9,0,7.7,0,11.6C88.9,61.5,90.6,61.5,92.4,61.5z"/>
<path id="denar" class="st1" d="M5.7,56.6c0.4-0.6,1-0.8,1.6-0.7c1.1,0.2,1.6-0.4,2.1-1.2c1.7-3.2,2.6-6.6,2.7-10.1
	c0.1-4,0.1-8,0.1-12c0-1.4,0.3-1.7,1.7-1.7c6.1,0,12.2,0,18.3,0c1.3,0,1.6,0.3,1.6,1.6c0,7.5,0,15,0,22.5c0,0.3,0,0.5,0,0.9
	c0.5,0,0.9,0,1.4,0.1c0.7,0,1.1,0.4,1.1,1.1c0,4.3,0,8.5-0.1,12.8c0,0.7-0.4,1.1-1.2,1.1c-1.2,0-2.5,0-3.7,0c-0.8,0-1.2-0.4-1.2-1.3
	c0-2.3,0-4.6,0-7c0-0.3,0-0.5,0-0.8c-5.9,0-11.8,0-17.8,0c0,0.4,0,0.7,0,1.1c0,2.2,0,4.4,0,6.5c0,1.1-0.3,1.5-1.5,1.5
	c-1.2,0-2.4,0-3.6,0c-0.7,0-1.2-0.2-1.6-0.7C5.7,65.7,5.7,61.2,5.7,56.6z M16.1,55.8c0.5,0,0.8,0,1,0c2.9,0,5.7,0,8.6,0
	c0.7,0,0.9-0.2,0.9-0.9c0-5.7,0-11.4,0-17.1c0-0.3,0-0.5,0-0.8c-2.6,0-5.1,0-7.7,0C18.7,43.4,19.4,49.8,16.1,55.8z M94.8,31.6
	c-0.3-0.5-0.9-0.7-1.5-0.7c-1.4,0-2.8,0-4.1,0c-1.3,0-1.6,0.3-1.6,1.6c0,3,0,6.1,0,9.1c0,0.3,0,0.6,0,0.9c-0.2,0-0.3,0.1-0.4,0.1
	c-3.6,0-7.1,0-10.7,0c-0.6,0-0.6-0.3-0.6-0.7c0-3.1,0-6.2,0-9.4c0-1.3-0.3-1.6-1.6-1.6c-1.3,0-2.7,0-4,0c-1.3,0-1.6,0.3-1.6,1.6
	c0,6.7,0,13.4,0,20c0,2.6,0,5.2,0,7.8c0,1.2,0.3,1.5,1.4,1.5c1.4,0,2.8,0,4.1,0c1.4,0,1.6-0.2,1.6-1.6c0-3.6,0-7.1,0-10.7
	c0-0.6,0.2-0.8,0.8-0.8c3.4,0,6.7,0,10.1,0c0.6,0,0.8,0.1,0.8,0.8c0,3.6,0,7.3,0,10.9c0,1.1,0.3,1.4,1.4,1.4c1.4,0,2.8,0,4.2,0
	c0.6,0,1.2-0.1,1.6-0.6C94.8,51.4,94.8,41.5,94.8,31.6z M44.6,48.3c-0.1,2.7,1.5,5.7,4.1,7c2.6,1.3,5.3,1.1,8,0.7
	c1.3-0.2,2.5-0.6,3.8-1c1.1-0.4,1.6-0.2,1.9,1c0.3,1,0.5,2.1,0.7,3.1c0.2,0.8,0,1.2-0.8,1.5c-2.1,0.9-4.3,1.3-6.5,1.6
	c-2.6,0.3-5.3,0.3-7.9-0.4c-3.2-0.8-5.8-2.5-7.7-5.2c-2.9-4.2-3.3-8.8-2.5-13.7c0.5-2.9,1.6-5.6,3.6-7.9c2-2.3,4.4-3.8,7.4-4.4
	c2.9-0.6,5.8-0.5,8.6,0.7c2.3,1,4.1,2.6,5.3,4.8c2,3.4,2.6,7.2,2.1,11.1c-0.1,0.9-0.4,1.1-1.4,1.1c-6,0-11.9,0-17.9,0
	C45.2,48.3,44.9,48.3,44.6,48.3z M57.8,42.5c-0.3-2.3-0.9-4.4-3-5.6c-2.9-1.8-7-0.7-8.8,2.4c-0.6,1-1.1,2-1.3,3.2
	C49.1,42.5,53.4,42.5,57.8,42.5z"/>
<path id="zloty" class="st1" d="M9.2,82.6c2.1-2.7,4.1-5.4,6.2-8.1c3.5-4.5,6.9-9,10.4-13.5c3.6-4.6,7.2-9.1,10.7-13.6
	c0.6-0.8,1.3-1.5,2-2.4c-0.4,0-0.6,0-0.8,0c-8.2,0-16.4,0-24.6,0c-1.4,0-1.8-0.4-1.8-1.8c0-2.2,0-4.4,0-6.6c0-1.3,0.4-1.7,1.6-1.7
	c13.1,0,26.1,0,39.2,0c1.2,0,1.6,0.4,1.6,1.6c0,1.7,0,3.5,0,5.2c0,0.5-0.2,1-0.5,1.4c-3.7,4.8-7.3,9.6-11,14.3
	c-4.1,5.4-8.3,10.8-12.4,16.2c-1.5,1.9-3,3.7-4.5,5.6c-0.1,0.1-0.2,0.2-0.4,0.5c0.4,0,0.6,0.1,0.9,0.1c8.8,0,17.6,0,26.5,0
	c0.2,0,0.5,0,0.7,0c0.7,0,1.2,0.4,1.2,1.2c0,2.5,0,5,0,7.6c0,0.8-0.5,1.2-1.3,1.2c-0.1,0-0.3,0-0.4,0c-13.9,0-27.8,0-41.6,0
	c-0.7,0-1.3-0.1-1.7-0.8C9.2,86.7,9.2,84.7,9.2,82.6z M90.8,34.1c-0.1-0.1-0.1-0.3-0.2-0.4c-0.9-2.1-3.3-2.8-5.1-1.4
	c-2,1.5-4,3-6,4.5c-0.6,0.5-1.3,0.9-2.1,1.5c0-0.4,0-0.6,0-0.9c0-8.3,0-16.6,0-25c0-0.3,0-0.5,0-0.8c-0.1-0.9-0.4-1.3-1.3-1.3
	c-0.8,0-1.7,0-2.5,0c-2.2,0-4.5,0-6.7,0c-1,0-1.3,0.4-1.4,1.3c0,0.3,0,0.5,0,0.8c0,11.3,0,22.7,0,34c0,0.5-0.1,0.8-0.5,1.1
	c-3.3,2.4-6.5,4.9-9.8,7.3c-1.1,0.9-2.3,1.7-3.4,2.7c-1.1,1-1.2,3-0.2,4.2c1.1,1.3,3,1.7,4.3,0.7c2.9-2.1,5.7-4.2,8.6-6.4
	c0.3-0.2,0.6-0.4,1-0.7c0,0.5,0,0.8,0,1.1c0,10.4,0,20.7,0,31.1c0,0.2,0,0.5,0,0.7c0,0.9,0.4,1.3,1.3,1.3c0.6,0,1.2,0,1.8,0
	c2.5,0,4.9,0,7.4,0c1,0,1.4-0.4,1.4-1.4c0-0.2,0-0.4,0-0.6c0-13.5,0-26.9,0-40.4c0-0.6,0.2-1,0.7-1.3c3.4-2.5,6.8-5.1,10.2-7.6
	c1.1-0.8,2.1-1.5,2.5-2.9C90.8,35,90.8,34.5,90.8,34.1z"/>
<g class="st1">
	<path class="st2" d="M30.9,80.4V19.6c0-1,0.8-1.9,1.9-1.9h15.3c6.4,0,10.6,0.3,12.5,0.9c3.1,1,5.7,3.1,7.8,6.4
		c2,3.3,3.1,7.5,3.1,12.6c0,4.7-0.9,8.6-2.6,11.7c-1.8,3.2-4,5.4-6.6,6.6c-2.6,1.3-7.2,1.9-13.7,1.9h-5.1c-1,0-1.9,0.8-1.9,1.9v20.6
		c0,1-0.8,1.9-1.9,1.9h-6.9C31.7,82.3,30.9,81.4,30.9,80.4z M41.5,30.5v14.6c0,1,0.8,1.9,1.9,1.9h4.1c4,0,6.7-0.3,8.1-0.8
		c1.4-0.6,2.6-1.6,3.5-3s1.4-3.2,1.4-5.4c0-2.1-0.5-4-1.4-5.4c-0.9-1.5-2.1-2.5-3.5-3c-1.4-0.5-4.3-0.8-8.8-0.8h-3.3
		C42.4,28.6,41.5,29.5,41.5,30.5z"/>
</g>
<path class="st3" d="M11.1,71.6V28c0-0.6,0.5-1.1,1.1-1.1h5.5c0.6,0,1.1,0.5,1.1,1.1v35.8c0,0.6,0.5,1.1,1.1,1.1h16.9
	c0.6,0,1.1,0.5,1.1,1.1v5.7c0,0.6-0.5,1.1-1.1,1.1H12.2C11.6,72.7,11.1,72.2,11.1,71.6z M57.4,62.3l5.1,1c0.6,0.1,1,0.8,0.8,1.4
	c-1,2.8-2.3,4.9-4.1,6.3c-2,1.6-4.5,2.4-7.4,2.4c-4.1,0-7.2-1.4-9.4-4.1c-2.6-3.2-3.9-7.6-3.9-13.3c0-5.6,1.3-10.1,3.9-13.4
	c2.2-2.8,5.1-4.3,8.6-4.3c3.9,0,7,1.5,9.2,4.4C62.7,46.1,64,51,64,57.5l0,1h-17c-0.6,0-1.1,0.6-1.1,1.2c0.2,2.1,0.8,3.7,1.7,5
	c1.1,1.5,2.5,2.2,4.2,2.2c2.1,0,3.6-1.3,4.4-3.9C56.3,62.5,56.9,62.2,57.4,62.3z M55.7,53.1c0.6,0,1.1-0.6,1.1-1.2
	c-0.2-2-0.7-3.6-1.6-4.7c-1.1-1.3-2.3-2-3.8-2c-1.5,0-2.8,0.7-3.9,2.1c-0.9,1.2-1.4,2.7-1.5,4.6c0,0.6,0.5,1.2,1.1,1.2H55.7z
	 M66.5,71.6v-44c0-0.6,0.5-1.1,1.1-1.1h5.1c0.6,0,1.1,0.5,1.1,1.1v20.1c0,1,1.3,1.5,2,0.6l6.2-8.6c0.2-0.3,0.5-0.4,0.9-0.4H89
	c0.9,0,1.4,1,0.9,1.7l-7.7,10c-0.2,0.3-0.3,0.8-0.1,1.1l9,19.1c0.3,0.7-0.2,1.5-1,1.5h-5.4c-0.4,0-0.8-0.2-1-0.6l-5.9-12.8
	c-0.3-0.7-1.3-0.8-1.8-0.2l-2,2.6c-0.1,0.2-0.2,0.4-0.2,0.7v9.3c0,0.6-0.5,1.1-1.1,1.1h-5.1C67,72.7,66.5,72.2,66.5,71.6z"/>
<path class="st3" d="M11.7,72V26.4c0-0.8,0.6-1.4,1.4-1.4h5.2c0.8,0,1.4,0.6,1.4,1.4v16c0,1.3,1.7,1.9,2.5,0.8l13.3-17.6
	c0.3-0.4,0.7-0.6,1.1-0.6h7.2c1.2,0,1.8,1.4,1.1,2.3L32.3,43.1c-0.3,0.4-0.4,1-0.1,1.5l14.2,26.7c0.5,0.9-0.2,2.1-1.2,2.1H38
	c-0.5,0-1-0.3-1.3-0.8l-9.6-19.9c-0.4-0.9-1.7-1.1-2.4-0.3l-4.8,6c-0.2,0.2-0.3,0.6-0.3,0.9V72c0,0.8-0.6,1.4-1.4,1.4h-5.2
	C12.4,73.4,11.7,72.7,11.7,72z M49.9,72V26.4c0-0.8,0.6-1.4,1.4-1.4h9.5c0.7,0,1.2,0.5,1.4,1.1l5.6,25.7c0.3,1.5,2.4,1.5,2.7,0
	L76,26.1c0.1-0.6,0.7-1.1,1.4-1.1h9.5c0.8,0,1.4,0.6,1.4,1.4V72c0,0.8-0.6,1.4-1.4,1.4h-4.7c-0.8,0-1.4-0.6-1.4-1.4V48.9
	c0-1.7-2.4-1.9-2.8-0.3l-4.9,23.7c-0.1,0.6-0.7,1.1-1.4,1.1h-5.4c-0.7,0-1.2-0.5-1.4-1.1l-4.9-23.6c-0.3-1.6-2.8-1.4-2.8,0.3v23
	c0,0.8-0.6,1.4-1.4,1.4h-4.7C50.5,73.4,49.9,72.7,49.9,72z"/>
<path id="koruna" class="st4" d="M8.3,77.9v-59c0-1,0.8-1.8,1.8-1.8h6.8c1,0,1.8,0.8,1.8,1.8v20.8c0,1.7,2.2,2.4,3.2,1.1L39,17.8
	c0.3-0.4,0.9-0.7,1.4-0.7h9.4c1.5,0,2.3,1.7,1.4,2.9L34.9,40.5c-0.4,0.6-0.5,1.3-0.2,1.9L53.2,77c0.6,1.2-0.2,2.6-1.6,2.6h-9.3
	c-0.7,0-1.3-0.4-1.6-1L28.2,52.8c-0.6-1.2-2.2-1.4-3-0.3L19,60.2c-0.3,0.3-0.4,0.7-0.4,1.1v16.5c0,1-0.8,1.8-1.8,1.8H10
	C9.1,79.6,8.3,78.9,8.3,77.9z M83,65.6l6.3,1.3c1,0.2,1.7,1.3,1.3,2.3c-1.3,3.6-3.1,6.3-5.5,8.2c-2.8,2.2-6.1,3.3-10.1,3.3
	c-5.5,0-9.7-1.8-12.7-5.5c-3.5-4.3-5.3-10.3-5.3-18c0-7.6,1.8-13.7,5.3-18.2c3-3.8,6.9-5.8,11.7-5.8c5.3,0,9.5,2,12.5,5.9
	c3.5,4.5,5.2,11.1,5.2,19.9l0,1.4H68.9c-1,0-1.9,0.9-1.8,1.9c0.3,2.7,1,4.9,2.3,6.5c1.6,2,3.4,3,5.6,3c2.8,0,4.7-1.7,5.9-5
	C81.3,65.9,82.1,65.4,83,65.6z M80.1,53.1c1,0,1.9-0.9,1.8-1.9c-0.3-2.6-1-4.6-2.1-6.1c-1.4-1.8-3.1-2.7-5.1-2.7
	c-2.1,0-3.8,0.9-5.3,2.8c-1.2,1.5-1.9,3.5-2.1,6c-0.1,1,0.8,1.8,1.8,1.8H80.1z"/>
<path id="krone_x5F_krona" class="st5" d="M11,84.1V12.6c0-1.2,1-2.2,2.2-2.2h7.6c1.2,0,2.2,1,2.2,2.2v31.2c0,2.1,2.7,3,4,1.3
	l9.3-12.9c0.4-0.6,1.1-0.9,1.8-0.9h9.1c1.8,0,2.9,2.1,1.7,3.5L37,50.4c-0.5,0.7-0.6,1.5-0.2,2.3l14.5,30.5c0.7,1.5-0.4,3.1-2,3.1h-8
	c-0.9,0-1.6-0.5-2-1.3l-9.3-20.2c-0.7-1.5-2.7-1.7-3.7-0.4l-2.8,3.7c-0.3,0.4-0.5,0.9-0.5,1.3v14.7c0,1.2-1,2.2-2.2,2.2h-7.6
	C12,86.3,11,85.3,11,84.1z M69,86.3h-7.6c-1.2,0-2.2-1-2.2-2.2V33.5c0-1.2,1-2.2,2.2-2.2h6.7c1.2,0,2.2,1,2.2,2.2v5.6
	c1.9-3.7,3.6-6.1,5.1-7.3c1.5-1.2,3.2-1.8,5.2-1.8c2.2,0,4.4,0.6,6.5,1.8c0.8,0.5,1.2,1.5,0.9,2.5l-2.4,8.3
	c-0.4,1.3-1.9,1.9-3.1,1.3c-1.1-0.6-2.2-0.9-3.3-0.9c-1.7,0-3.1,0.6-4.4,1.8c-1.3,1.2-2.2,3.4-2.7,6.7c-0.6,3.2-0.8,9.1-0.8,17.7
	v14.8C71.2,85.3,70.2,86.3,69,86.3z"/>
<path id="quetzal" class="st4" d="M73,85.6c-0.4,0.6-1.1,0.9-1.8,0.7c-1.2-0.3-2.7-1.2-3.4-1.7c-2.5-1.8-3.8-3-6-4.8
	c-0.6-0.5-1.3-0.5-2-0.2c-3.1,1.4-6.6,2.2-10.5,2.2c-7.4,0-13.4-2.8-18-8.3c-4.6-5.5-6.9-13.6-6.9-24.1c0-10.5,2.3-18.6,6.9-24.1
	c4.6-5.5,10.6-8.3,18.1-8.3c7.4,0,13.4,2.8,17.9,8.3c4.6,5.5,6.9,13.6,6.9,24.1c0,5.1-0.5,9.5-1.5,13.1c-0.9,3.1-2.2,6.1-3.9,8.8
	c-0.5,0.8-0.4,1.9,0.4,2.5c1.8,1.4,3.3,1.6,5.4,3.5c0.8,0.7,1.1,1,1.1,1.9C75.6,80.1,74.1,83.9,73,85.6z M57.8,64.2
	c0.9,0.8,2.3,0.5,2.9-0.6c1.9-3.6,2.8-8.3,2.8-14.2c0-7.3-1.3-12.8-4-16.3c-2.7-3.5-6.1-5.3-10.2-5.3s-7.6,1.8-10.2,5.3
	c-2.7,3.5-4,9-4,16.3c0,7.4,1.3,12.9,4,16.5c2.7,3.6,6,5.4,9.9,5.4c1.5,0,2.9-0.3,4.2-0.9c-1.6-1.3-3.3-2.4-4.9-3.2
	c-0.9-0.4-1.3-1.4-0.9-2.3l1.5-3.8c0.4-1,1.6-1.5,2.5-1C53.7,61.1,55.8,62.5,57.8,64.2z"/>
<path id="lempira" class="st4" d="M27.4,86.4V12.7c0-1.4,1.1-2.5,2.5-2.5H38c1.4,0,2.5,1.1,2.5,2.5V73c0,1.4,1.1,2.5,2.5,2.5h27.7
	c1.4,0,2.5,1.1,2.5,2.5v8.4c0,1.4-1.1,2.5-2.5,2.5H29.9C28.5,88.9,27.4,87.8,27.4,86.4z"/>
<path id="forint" class="st4" d="M14.2,83.6V11.8c0-1.1,0.9-2,2-2h38.5c1.1,0,2,0.9,2,2v8.7c0,1.1-0.9,2-2,2h-26c-1.1,0-2,0.9-2,2
	v13.9c0,1.1,0.9,2,2,2h22c1.1,0,2,0.9,2,2v8.7c0,1.1-0.9,2-2,2h-22c-1.1,0-2,0.9-2,2v28.1c0,1.1-0.9,2-2,2h-8.4
	C15.2,85.6,14.2,84.7,14.2,83.6z M87.7,32.7v7.5c0,1.1-0.9,2-2,2h-4c-1.1,0-2,0.9-2,2v20.1c0,4.8,0.1,7.6,0.4,8.3
	c0.5,1.4,1.5,2.1,2.9,2.1c1.1,0,2.7-0.5,4.8-1.4l0.9,9.8c0.1,0.9-0.4,1.7-1.2,2.1c-2.4,1-5.1,1.5-8,1.5c-3,0-5.5-0.7-7.3-2.2
	c-1.8-1.5-3.1-3.5-3.7-6.3c-0.5-2-0.7-6.1-0.7-12.2v-24h-5.5V30.7h5.5v-9.9c0-0.7,0.3-1.3,0.9-1.7l7.9-5.6c1.4-1,3.2,0,3.2,1.7v13.4
	c0,1.1,0.9,2,2,2h4C86.8,30.7,87.7,31.6,87.7,32.7z"/>
<path id="rupian" class="st4" d="M8.5,72.5V13.7c0-1,0.8-1.9,1.9-1.9h20c5.6,0,9.6,0.6,12,1.7c2.4,1.1,4.4,3.1,5.9,5.8
	c1.5,2.8,2.3,6.1,2.3,10c0,4.9-1.2,8.8-3.5,11.8c-1.7,2.2-3.9,3.7-6.7,4.7c-1.3,0.5-1.7,2.1-0.7,3.1c1.1,1,2,2,2.8,3.1
	c1.5,1.9,3.4,5.3,5.9,10.2l4.9,9.5c0.6,1.2-0.3,2.7-1.7,2.7h-8.2c-0.7,0-1.3-0.4-1.6-1l-7-12.7c-2.7-4.9-4.5-8-5.5-9.2
	c-1-1.2-2-2.1-3.1-2.6c-1.1-0.5-2.8-0.7-5.2-0.7h-2.1v24.3c0,1-0.8,1.9-1.9,1.9h-6.6C9.4,74.4,8.5,73.6,8.5,72.5z M18.9,36.4
	c0,1,0.8,1.9,1.9,1.9h5.8c4.7,0,7.7-0.2,9-0.6c1.3-0.4,2.3-1.2,3.1-2.5c0.8-1.3,1.2-2.9,1.2-5c0-2-0.4-3.6-1.2-4.8
	c-0.8-1.2-1.9-2-3.2-2.5c-1-0.3-3.8-0.5-8.4-0.5h-6.3c-1,0-1.9,0.8-1.9,1.9V36.4z M59.9,29.1h5.4c1,0,1.9,0.8,1.9,1.9v4.8
	c1.3-2.4,2.9-4.3,5-5.7c2.1-1.4,4.3-2.1,6.6-2.1c4.2,0,7.9,2,11,6.1c3.1,4,4.6,9.8,4.6,17.2c0,7.8-1.5,13.8-4.6,17.9
	c-3.1,4.1-6.7,6.2-11,6.2c-2,0-3.8-0.5-5.5-1.4c-1.7-1-3.5-2.7-5.4-5.2v20.9c0,1-0.8,1.9-1.9,1.9h-6.2c-1,0-1.9-0.8-1.9-1.9V30.9
	C58,29.9,58.8,29.1,59.9,29.1z M67.7,51c0,5.1,0.8,8.9,2.5,11.3c1.7,2.4,3.7,3.6,6,3.6c2.2,0,4.1-1.1,5.7-3.4
	c1.5-2.2,2.3-5.9,2.3-11c0-4.8-0.8-8.4-2.4-10.7c-1.6-2.3-3.5-3.4-5.8-3.4c-2.4,0-4.4,1.1-6,3.4C68.5,43.1,67.7,46.4,67.7,51z"/>
<path id="metical" class="st4" d="M6.1,80.9V25.2c0-0.8,0.6-1.4,1.4-1.4h11.9c0.7,0,1.2,0.5,1.4,1.1l7.1,32.5c0.3,1.5,2.4,1.5,2.7,0
	l7-32.5c0.1-0.6,0.7-1.1,1.4-1.1h12c0.8,0,1.4,0.6,1.4,1.4v55.7c0,0.8-0.6,1.4-1.4,1.4h-6.2c-0.8,0-1.4-0.6-1.4-1.4v-31
	c0-1.7-2.4-1.9-2.8-0.3l-6.5,31.6c-0.1,0.7-0.7,1.1-1.4,1.1h-7c-0.7,0-1.2-0.5-1.4-1.1l-6.5-31.5c-0.3-1.7-2.8-1.4-2.8,0.3v30.9
	c0,0.8-0.6,1.4-1.4,1.4H7.5C6.7,82.3,6.1,81.7,6.1,80.9z M70.1,80.9V35.1c0-0.8-0.6-1.4-1.4-1.4H57.2c-0.8,0-1.4-0.6-1.4-1.4v-7.1
	c0-0.8,0.6-1.4,1.4-1.4h35.3c0.8,0,1.4,0.6,1.4,1.4v7.1c0,0.8-0.6,1.4-1.4,1.4H81.1c-0.8,0-1.4,0.6-1.4,1.4v45.8
	c0,0.8-0.6,1.4-1.4,1.4h-6.8C70.7,82.3,70.1,81.7,70.1,80.9z"/>
<path id="ringgit" class="st4" d="M3.9,76.9V24.7c0-1,0.8-1.8,1.8-1.8h17.7c5,0,8.5,0.5,10.7,1.5c2.1,1,3.9,2.7,5.2,5.2
	c1.4,2.5,2.1,5.4,2.1,8.9c0,4.4-1,7.9-3.1,10.5c-1.5,1.9-3.4,3.3-5.7,4.2c-1.2,0.5-1.6,2-0.6,3c0.9,0.8,1.7,1.7,2.4,2.6
	c1.3,1.7,3.1,4.7,5.3,9.1l4.2,8.3c0.6,1.2-0.3,2.6-1.6,2.6h-7c-0.6,0-1.2-0.4-1.6-0.9l-6.2-11.2c-2.4-4.4-4-7.1-4.9-8.2
	c-0.9-1.1-1.8-1.9-2.7-2.3c-1-0.4-2.5-0.6-4.6-0.6h-1.9v21.5c0,1-0.8,1.8-1.8,1.8H5.7C4.7,78.7,3.9,77.9,3.9,76.9z M13.1,44.8
	c0,1,0.8,1.8,1.8,1.8H20c4.2,0,6.8-0.2,8-0.6c1.1-0.4,2.1-1.1,2.8-2.2c0.7-1.1,1.1-2.6,1.1-4.5c0-1.8-0.4-3.2-1.1-4.3
	c-0.7-1.1-1.7-1.8-2.9-2.2c-0.9-0.3-3.4-0.4-7.5-0.4h-5.4c-1,0-1.8,0.8-1.8,1.8V44.8z M49.1,38.3h4.5c1,0,1.8,0.8,1.8,1.8v3.7
	c1.4-2.2,3-3.8,4.8-4.8c1.7-1.1,3.6-1.6,5.6-1.6c2.1,0,4,0.5,5.5,1.6c1.6,1.1,2.8,2.7,3.8,4.8c1.5-2.2,3-3.8,4.7-4.8
	c1.7-1.1,3.5-1.6,5.4-1.6c2.3,0,4.2,0.5,5.8,1.6c1.6,1.1,2.9,2.6,3.7,4.6c0.9,2,1.3,5.1,1.3,9.3v24.1c0,1-0.8,1.8-1.8,1.8h-5.2
	c-1,0-1.8-0.8-1.8-1.8V55.6c0-4-0.4-6.7-1.1-8.1c-0.7-1.3-1.9-2-3.6-2c-2,0-3.5,0.9-4.7,2.8c-1.2,1.9-1.8,5.5-1.8,10.9v17.6
	c0,1-0.8,1.8-1.8,1.8h-5.2c-1,0-1.8-0.8-1.8-1.8V56.6c0-4.4-0.2-7.2-0.7-8.5c-0.6-1.7-1.9-2.5-3.8-2.5c-1.3,0-2.5,0.4-3.6,1.3
	c-1.1,0.9-1.9,2.1-2.4,3.8c-0.5,1.7-0.7,4.5-0.7,8.4v17.9c0,1-0.8,1.8-1.8,1.8h-5.2c-1,0-1.8-0.8-1.8-1.8V40.1
	C47.4,39.1,48.2,38.3,49.1,38.3z"/>
<path id="balboa" class="st4" d="M15.7,15.8c0-1.1,0.9-1.9,1.9-1.9h21.2c6.3,0,10.8,0.6,13.3,1.7s4.7,3.2,6.5,6.1
	c1.8,2.9,2.6,6.2,2.6,9.9c0,3.4-0.8,6.5-2.3,9.2c-0.9,1.7-2,3.1-3.3,4.2c-1,0.9-0.9,2.5,0.3,3.2c2.1,1.2,3.8,2.9,5.2,4.9
	c1.9,3,2.9,6.5,2.9,10.8c0,5.1-1.2,9.5-3.7,13c-2.5,3.5-5.4,5.7-8.8,6.6c-2.3,0.6-7.8,0.9-16.3,0.9H17.7c-1.1,0-1.9-0.9-1.9-1.9
	V15.8z M27.4,27.6V40c0,1.1,0.9,1.9,1.9,1.9h5.7c4.6,0,7.5-0.1,8.6-0.2c2-0.3,3.5-1.2,4.7-2.5c1.1-1.4,1.7-3.2,1.7-5.6
	c0-2.1-0.5-3.8-1.4-5.1c-0.9-1.3-2-2.1-3.3-2.4c-1.3-0.3-5-0.5-11.2-0.5h-4.8C28.3,25.6,27.4,26.5,27.4,27.6z M27.4,55.6v14.9
	c0,1.1,0.9,1.9,1.9,1.9h8.9c4.8,0,7.8-0.2,9.2-0.7c1.3-0.5,2.5-1.5,3.4-2.9c0.9-1.5,1.4-3.3,1.4-5.5c0-2.3-0.5-4.2-1.5-5.7
	c-1-1.5-2.3-2.5-3.9-3.1c-1.6-0.6-4.9-0.8-9.9-0.8h-7.5C28.3,53.7,27.4,54.5,27.4,55.6z M65.8,82.1l12.9-66.6c0.2-0.9,1-1.6,1.9-1.6
	H85c1.2,0,2.2,1.1,1.9,2.3L73.8,82.8c-0.2,0.9-1,1.6-1.9,1.6h-4.2C66.5,84.4,65.6,83.3,65.8,82.1z"/>
<path id="guarani_1_" class="st4" d="M34.2,56.5v-6.9c0-1,0.8-1.9,1.9-1.9h18.6c1,0,1.9,0.8,1.9,1.9V72c0,0.5-0.2,0.9-0.5,1.3
	c-2.2,2.4-5.2,4.5-9.1,6.3c-4.1,1.9-8.3,2.9-12.4,2.9c-5.1,0-9.5-1.2-13.4-3.7c-3.9-2.5-6.9-6.2-9.2-11.2c-2.3-5-3.4-10.8-3.4-17.5
	c0-6.9,1.1-12.8,3.4-17.7c2.3-4.9,5.3-8.6,8.9-11c3.7-2.4,8-3.6,13.1-3.6c6.1,0,11,1.6,14.7,4.7c3.3,2.8,5.6,6.8,6.7,11.9
	c0.2,1-0.4,2-1.4,2.2l-6.7,1.5c-1,0.2-1.9-0.4-2.2-1.3c-0.8-2.4-2.1-4.3-3.7-5.7c-2-1.7-4.5-2.6-7.3-2.6c-4.4,0-8,1.7-10.7,5.1
	c-2.7,3.4-4.1,8.7-4.1,15.7c0,7.5,1.5,13.3,4.4,17.2c2.5,3.4,6,5.1,10.3,5.1c2,0,4.1-0.5,6.3-1.4c1.9-0.8,3.7-1.9,5.2-3.3
	c0.4-0.4,0.6-0.9,0.6-1.4v-5.2c0-1-0.8-1.9-1.9-1.9h-8.1C35.1,58.4,34.2,57.5,34.2,56.5z M61.5,68.1l6.2-1.2
	c0.9-0.2,1.8,0.4,2.1,1.4c1.1,3.6,3.7,5.5,7.5,5.5c2.4,0,4.1-0.5,5.3-1.4c1.2-0.9,1.8-2.1,1.8-3.5c0-1-0.3-1.8-0.8-2.3
	c-0.5-0.6-1.6-1.1-3.2-1.5c-8.1-2.1-13.2-4.2-15.4-6.1c-2.7-2.4-4.1-5.7-4.1-10c0-4.2,1.3-7.6,4-10.1c2.7-2.5,6.6-3.8,11.7-3.8
	c4.9,0,8.6,0.9,11.1,2.8c2.1,1.6,3.7,4,4.8,7.3c0.3,1-0.3,2.1-1.4,2.3l-5.7,1.3c-0.9,0.2-1.8-0.2-2.1-1c-1.1-2.7-3.3-4.1-6.6-4.1
	c-2.4,0-4.1,0.4-5.2,1c-1,0.7-1.5,1.6-1.5,2.7c0,1,0.5,1.8,1.4,2.5c0.9,0.7,3.9,1.7,8.7,3.1c5.5,1.6,9.2,3.4,11.2,5.6
	c1.9,2.2,2.9,5.1,2.9,8.8c0,4.4-1.5,8-4.5,10.8c-3,2.8-7.2,4.3-12.4,4.3c-4.8,0-8.7-1.2-11.8-3.6c-2.6-2-4.4-4.8-5.5-8.4
	C59.7,69.4,60.4,68.3,61.5,68.1z"/>
<path id="sol" class="st4" d="M14.4,63.3l8.1-1c1.2-0.1,2.2,0.7,2.5,1.9c1.7,8.5,6.2,12.7,13.5,12.7c3.9,0,6.9-1,9.1-3
	s3.3-4.5,3.3-7.5c0-1.8-0.4-3.3-1.2-4.5c-0.8-1.2-2-2.2-3.5-3c-1.6-0.8-5.4-2.1-11.5-4c-5.5-1.7-9.5-3.4-12-5.4
	c-2.5-1.9-4.6-4.5-6-7.6c-1.5-3.1-2.2-6.5-2.2-10.2c0-4.2,1-8,2.9-11.4c1.9-3.4,4.6-5.9,8-7.7S32.8,10,37.8,10
	c7.5,0,13.3,2,17.5,6.1c3.8,3.6,5.9,8.7,6.5,15.1c0.1,1.3-0.9,2.4-2.2,2.4l-8.5,0.5c-1.1,0.1-2.1-0.8-2.3-1.9
	c-0.7-3.1-1.8-5.4-3.3-6.7c-1.9-1.7-4.5-2.5-8-2.5c-3.5,0-6.1,0.7-8,2.2c-1.9,1.4-2.8,3.2-2.8,5.4c0,2.1,0.8,3.9,2.5,5.3
	c1.7,1.4,5.6,3,11.7,4.8c6.4,1.9,11.1,3.8,14,5.9c2.9,2.1,5.1,4.7,6.6,8c1.5,3.3,2.3,7.2,2.3,11.9c0,6.7-2.1,12.4-6.2,17
	c-4.1,4.6-10.6,6.9-19.4,6.9c-14.9,0-23.5-8.1-25.7-24.3C12.2,64.6,13.1,63.4,14.4,63.3z M63.8,87.4l14.9-75.6
	c0.2-1.1,1.1-1.8,2.2-1.8h4.5c1.4,0,2.5,1.3,2.2,2.7l-15,75.6c-0.2,1.1-1.1,1.8-2.2,1.8H66C64.6,90.1,63.5,88.8,63.8,87.4z"/>
<path id="leu" class="st4" d="M12.2,82.2V12.5c0-1.1,0.9-2.1,2.1-2.1h7.5c1.1,0,2.1,0.9,2.1,2.1v69.7c0,1.1-0.9,2.1-2.1,2.1h-7.5
	C13.1,84.2,12.2,83.3,12.2,82.2z M59.4,67.6l7.4,1.5c1.2,0.2,2,1.5,1.6,2.7c-1.5,4.3-3.7,7.5-6.5,9.7c-3.3,2.6-7.2,3.9-11.9,3.9
	c-6.5,0-11.5-2.2-15-6.5c-4.2-5-6.3-12.1-6.3-21.2c0-9,2.1-16.1,6.3-21.5c3.6-4.5,8.2-6.8,13.8-6.8c6.3,0,11.2,2.3,14.8,7
	c4.1,5.3,6.1,13.2,6.1,23.5l-0.1,1.6H42.8c-1.2,0-2.2,1-2.1,2.2c0.3,3.2,1.2,5.8,2.7,7.7c1.8,2.3,4.1,3.5,6.6,3.5c3.3,0,5.6-2,7-5.9
	C57.4,68.1,58.4,67.4,59.4,67.6z M56,52.9c1.2,0,2.2-1,2.1-2.2c-0.3-3.1-1.2-5.5-2.5-7.2c-1.7-2.1-3.7-3.2-6-3.2
	c-2.5,0-4.5,1.1-6.2,3.3c-1.4,1.8-2.2,4.2-2.4,7.2c-0.1,1.2,0.9,2.1,2.1,2.1H56z M75.3,21.4v-9c0-1.1,0.9-2.1,2.1-2.1h7.5
	c1.1,0,2.1,0.9,2.1,2.1v9c0,1.1-0.9,2.1-2.1,2.1h-7.5C76.3,23.5,75.3,22.6,75.3,21.4z M75.3,82.2V32.8c0-1.1,0.9-2.1,2.1-2.1h7.5
	c1.1,0,2.1,0.9,2.1,2.1v49.4c0,1.1-0.9,2.1-2.1,2.1h-7.5C76.3,84.2,75.3,83.3,75.3,82.2z"/>
<path id="shilling" class="st4" d="M27.7,64.1l7.5-0.9c1.2-0.1,2.3,0.7,2.5,1.9c1.7,8.1,6,12.1,12.9,12.1c3.7,0,6.6-1,8.8-2.9
	s3.2-4.3,3.2-7.2c0-1.7-0.4-3.1-1.1-4.3c-0.7-1.2-1.9-2.2-3.4-2.9c-1.5-0.8-5.2-2-11-3.8c-5.2-1.6-9.1-3.3-11.5-5.2
	c-2.4-1.9-4.4-4.3-5.8-7.3c-1.4-3-2.2-6.3-2.2-9.7c0-4,0.9-7.7,2.8-10.9c1.8-3.2,4.4-5.7,7.6-7.3s7.2-2.5,12-2.5
	c7.2,0,12.7,1.9,16.8,5.8c3.6,3.4,5.6,8.2,6.2,14.3c0.1,1.3-0.9,2.4-2.2,2.5l-7.9,0.4c-1.2,0.1-2.1-0.8-2.4-1.9
	c-0.6-2.9-1.7-5-3.1-6.3c-1.8-1.6-4.3-2.4-7.6-2.4c-3.3,0-5.9,0.7-7.6,2.1c-1.8,1.4-2.7,3.1-2.7,5.1c0,2,0.8,3.7,2.4,5.1
	c1.6,1.4,5.4,2.9,11.2,4.5c6.2,1.8,10.6,3.7,13.4,5.6c2.7,2,4.8,4.5,6.3,7.6c1.5,3.1,2.2,6.9,2.2,11.4c0,6.4-2,11.9-6,16.3
	c-4,4.4-10.2,6.6-18.6,6.6c-14.2,0-22.4-7.7-24.6-23.1C25.5,65.5,26.5,64.3,27.7,64.1z"/>
<path id="bolivar" class="st4" d="M11.5,21.6c0-1.1,0.9-1.9,1.9-1.9h18.6c5.6,0,9.6,0.5,11.8,1.5c2.3,1,4.2,2.8,5.8,5.4
	c1.6,2.6,2.4,5.5,2.4,8.8c0,3-0.7,5.7-2,8.2c-0.8,1.5-1.8,2.7-2.9,3.7c-0.9,0.9-0.6,2.4,0.4,3c1.7,1.1,3.2,2.5,4.3,4.2
	c1.7,2.6,2.6,5.8,2.6,9.6c0,4.6-1.1,8.4-3.3,11.5c-2.2,3.1-4.8,5.1-7.8,5.8c-2.1,0.5-6.9,0.8-14.5,0.8H13.5c-1.1,0-1.9-0.9-1.9-1.9
	V21.6z M21.8,32v10.6c0,1.1,0.9,1.9,1.9,1.9h4.9c4.1,0,6.6-0.1,7.6-0.2c1.8-0.3,3.1-1,4.1-2.2c1-1.2,1.5-2.9,1.5-4.9
	c0-1.9-0.4-3.4-1.2-4.5c-0.8-1.2-1.8-1.9-2.9-2.2c-1.2-0.3-4.5-0.4-9.9-0.4h-4C22.7,30,21.8,30.9,21.8,32z M21.8,56.9v12.8
	c0,1.1,0.9,1.9,1.9,1.9h7.7c4.2,0,6.9-0.2,8.1-0.7c1.2-0.4,2.2-1.3,3-2.6c0.8-1.3,1.2-2.9,1.2-4.9c0-2-0.4-3.7-1.3-5
	c-0.9-1.3-2-2.2-3.5-2.7c-1.4-0.5-4.4-0.7-8.8-0.7h-6.4C22.7,54.9,21.8,55.8,21.8,56.9z M58.6,68.9l6.1-1.1c0.9-0.2,1.8,0.4,2.1,1.4
	c1.1,3.6,3.7,5.5,7.5,5.5c2.4,0,4.1-0.5,5.3-1.4c1.2-0.9,1.8-2.1,1.8-3.5c0-1-0.3-1.8-0.8-2.3c-0.5-0.6-1.6-1.1-3.2-1.5
	c-8.1-2.1-13.2-4.2-15.4-6.1c-2.7-2.4-4.1-5.7-4.1-10s1.3-7.6,4-10.1c2.7-2.5,6.6-3.8,11.7-3.8c4.9,0,8.6,0.9,11.1,2.8
	c2.1,1.6,3.7,4,4.8,7.2c0.4,1.1-0.4,2.2-1.4,2.4l-5.5,1.2c-0.9,0.2-1.8-0.2-2.2-1.1c-1.1-2.7-3.3-4-6.5-4c-2.4,0-4.1,0.3-5.2,1
	c-1,0.7-1.5,1.6-1.5,2.7c0,1,0.5,1.8,1.4,2.5c0.9,0.7,3.9,1.7,8.7,3.1c5.5,1.6,9.2,3.4,11.2,5.6c1.9,2.2,2.9,5.1,2.9,8.8
	c0,4.4-1.5,8-4.5,10.9c-3,2.8-7.2,4.3-12.4,4.3c-4.8,0-8.7-1.2-11.8-3.6c-2.6-2-4.4-4.8-5.5-8.4C56.8,70.3,57.5,69.1,58.6,68.9z"/>
</svg>
