<?xml version="1.0" encoding="utf-8"?>
<!-- Generator: Adobe Illustrator 20.0.0, SVG Export Plug-In . SVG Version: 6.00 Build 0)  -->
<!DOCTYPE svg PUBLIC "-//W3C//DTD SVG 1.1//EN" "http://www.w3.org/Graphics/SVG/1.1/DTD/svg11.dtd">
<svg version="1.1" id="Layer_1" xmlns="http://www.w3.org/2000/svg" xmlns:xlink="http://www.w3.org/1999/xlink" x="0px" y="0px"
	 viewBox="0 0 100 100" style="enable-background:new 0 0 100 100;" xml:space="preserve">
<style type="text/css">
	.st0 {
	    clip-path:url(#SVGID_2_);
	    fill:none;
	    stroke: rgba(60,160,20,1.0);
	    stroke-width:6.5;
	    stroke-miterlimit:10;
	    xtransition:all .4s linear;
	    xanimation: dash 4s linear forwards;
	    stroke-dasharray:620;
	    stroke-dashoffset:0;
	    transform: translate(5px, -12px);
	    }
	.st0.dashon {
	    xstroke-dashoffset: 620;
	    xstroke:rgba(255,255,180,1.0);
	    animation: dash .2s linear forwards;
        }
        .st0.dashoff {
	    xtransition:all 2s linear;
	    xstroke-dashoffset: 0;
	   // stroke:rgba(255,255,0,1.0);
	    animation: dash2 .2s linear forwards;
	    xopacity:.5;
        }
        @keyframes dash {
          from {
	    stroke-dashoffset: 620;
	    opacity:0;
	  }	  
	  to {
	    stroke-dashoffset: 0;
	    opacity:1;
	  }
        }
        @keyframes dash2 {
          from {
	    stroke-dashoffset: 0;
	  }	  
	  to {
	    stroke-dashoffset: 620;
	  }
        }
</style>
<script type="text/ecmascript"><![CDATA[
function toggle(evt)
{
    var target = evt.target;
    if (target.nodeName == "rect") {
        while(target.nodeName != "path") target = target.nextSibling;
    }
    var svgobj=target;
    if (!svgobj.classList.contains("dashoff")) {
	svgobj.classList.add('dashoff');
	svgobj.classList.remove('dashon');
    } else {
	svgobj.classList.remove('dashoff');
	svgobj.classList.add('dashon');
    }
}
]]>
</script>

<g>
	<defs>
		<path id="SVGID_1_" d="M4.5,55.7l18.9-21.4l16.2,33.6c0,0,8-39.4,25.8-60.6c5.9,2.2,26.8,14,26.8,14S48.4,59.2,44.6,94.1
			C27.4,70.7,22.4,65.4,4.5,55.7z"/>
	</defs>
	<clipPath id="SVGID_2_">
		<use xlink:href="#SVGID_1_"  style="overflow:visible;"/>
	</clipPath>
	<rect x="15" y="15" width="70" height="70" fill="rgba(0,0,0,0)" ionclick="toggle(evt)"  stroke="rgba(0,0,0,0)" stroke-width="5" stroke-linejoin="round" style="cursor:pointer" />
	<path id="pathy" class="st0 dashon" ionclick="toggle(evt)" d="M25.3,35c-2.3,2.8-8.6,8.8-11.3,12.8s-8.3,8-5.5,10.1s14-14,15.5-15.2s3.4,1.1,3.1,4.5
		c-0.3,3.4-10.7,7.9-12,10.1s-0.6,5.7,2.7,4.8S28,52.4,29.3,51.5s2.9,1.6,2,4.9s-7,5.7-8.2,7.5c-1.1,1.6-1.3,3.1,1.1,3.6
		s7.5-4.7,8.3-6.4c1.2-2.5,3.4,0.1,3.1,2.9s-4.6,2.9-6.1,4.6s-1.3,4.3,1.3,3.8s3.5-3.4,4.9-4.3c1.4-0.9,2.2-0.5,2.5,0.8
		s-4.5,3.6-4.9,5.9s1.6,5.1,2.8,4.6s2.1-7,3.6-8s2.8-0.4,1.8,2c-1.5,3.4-4,3.5-3.4,6.5s4.7,10.2,6,11s1.4-4.5,0.4-7
		s-3.4-2.6-3.5-5.3c-0.1-1.6,1.7-3.3,2.5-2.1c1.2,1.8,1.9,5.5,3.1,4.3s2.8-3.7,0-6.8s-5.5-6.2-5.1-9.8c0.4-3.3,1.8-2.5,2.9-1.6
		c1.7,1.5,2.4,5.8,3.8,7.7s3,2.1,3.6,1.2s-0.4-3.9-1.7-6.1s-4.8-5.3-6.3-7.6c-1-1.5-1.1-4.5,1-4.9s3.9,3.7,5.3,6.7
		c0.8,1.5,3,4.8,3.7,4.7c1.5-0.3,2-3.2,1.7-5.3s-4.8-5.1-6.1-6.8s-3.6-2.5-2.3-5.9s3.5,0.1,6,3.6s3.6,7.2,5.3,7.3s3.6-2.2,1.6-4.6
		s-8.1-8.2-9.1-10s-3.3-5.3-0.8-6.3s7.1,5.8,8.9,8.3s2.6,5.1,4.6,5.3s3.1-3.1,1.5-5s-9.3-7.5-10.8-9.9s-2.3-3.1-1-4.8s2-2.8,5.3,2.3
		s7.6,10.7,9.3,11s3-2,3-3.3s-2.5-4.4-6.5-7.5s-8.2-4.1-7.8-7.3s1.1-5,2.5-3.5s7.8,5.9,10.8,9.5s3.7,7,4.8,5.7S78,30.9,74,28
		s-9.6-5.1-11.8-7.1s-2.6-3.3-1.4-4.9s2.5-1.9,5.3,1.4s7.5,3.6,10.5,6.5s1.8,8.2,4,6.8c2.3-1.4,5.9-4,3-6s-8.8-4.8-11.9-7.3
		s-9-5.1-7.8-7.4s4.3-0.5,7.1,2s10.4,6.1,13.5,8c3.1,1.9,7.3,3.7,7.3,3.7" />
		
</g>
</svg>
