<?xml version="1.0" encoding="utf-8"?>
<!-- Generator: Adobe Illustrator 20.0.0, SVG Export Plug-In . SVG Version: 6.00 Build 0)  -->
<!DOCTYPE svg PUBLIC "-//W3C//DTD SVG 1.1//EN" "http://www.w3.org/Graphics/SVG/1.1/DTD/svg11.dtd">
<svg version="1.1" id="Layer_1" xmlns="http://www.w3.org/2000/svg" xmlns:xlink="http://www.w3.org/1999/xlink" x="0px" y="0px"
	 viewBox="0 0 800 480" style="enable-background:new 0 0 800 480;" xml:space="preserve">
<style type="text/css">
	.st0{fill:#D0103A;}
	.st1{fill:#FEDF00;}
	.st2{fill:#0018A8;}
	.st3{fill:none;stroke:#231F20;stroke-width:0.9869;stroke-linecap:round;stroke-miterlimit:3.8637;}
	.st4{fill:none;stroke:#C7B37F;stroke-width:0.9869;stroke-linecap:round;stroke-miterlimit:3.8637;}
	.st5{fill:#C7B37F;}
	.st6{fill:#FEDF00;stroke:#703D29;stroke-width:0.7975;stroke-miterlimit:3.8636;}
	.st7{fill:none;stroke:#703D29;stroke-width:0.9869;stroke-linecap:round;stroke-miterlimit:3.8637;}
	.st8{fill:none;stroke:#703D29;stroke-width:0.9869;stroke-miterlimit:3.8637;}
	.st9{fill:none;stroke:#703D29;stroke-width:1.0412;stroke-linejoin:round;stroke-miterlimit:3.8636;}
	.st10{fill:none;stroke:#703D29;stroke-width:0.9869;stroke-linecap:square;stroke-miterlimit:3.8636;}
	.st11{fill:none;stroke:#703D29;stroke-width:1.0367;stroke-linecap:round;stroke-miterlimit:3.8636;}
	.st12{fill:none;stroke:#703D29;stroke-width:1.2761;stroke-miterlimit:3.8636;}
	.st13{fill:none;stroke:#703D29;stroke-width:1.1214;stroke-miterlimit:3.8636;}
	.st14{fill:none;stroke:#703D29;stroke-width:1.0412;stroke-linecap:round;stroke-miterlimit:3.8636;}
	.st15{fill:#D52B1E;}
	.st16{fill:#C7B37F;stroke:#C7B37F;stroke-width:0.5127;stroke-miterlimit:3.8637;}
	.st17{fill:none;stroke:#703D29;stroke-width:1.0572;stroke-miterlimit:3.8637;}
	.st18{fill:none;stroke:#703D29;stroke-width:1.1965;stroke-miterlimit:3.8636;}
	.st19{fill:none;stroke:#231F20;stroke-width:0.9869;stroke-miterlimit:3.8637;}
	.st20{fill:none;stroke:#703D29;stroke-width:1.3561;stroke-miterlimit:3.8636;}
	.st21{fill:none;stroke:#703D29;stroke-width:0.9292;stroke-miterlimit:3.8636;}
	.st22{fill:#703D29;}
	.st23{fill:none;stroke:#703D29;stroke-width:0.8811;stroke-miterlimit:3.8637;}
	.st24{fill:none;stroke:#C7B37F;stroke-width:0.9869;stroke-miterlimit:3.8637;}
	.st25{fill:none;stroke:#703D29;stroke-width:1.1214;stroke-linecap:round;stroke-miterlimit:3.8636;}
	.st26{fill:#703D29;stroke:#703D29;stroke-width:0.2766;stroke-miterlimit:3.8636;}
	.st27{fill:#D52B1E;stroke:#703D29;stroke-width:0.7975;stroke-miterlimit:3.8636;}
	.st28{fill:#FFFFFF;}
	.st29{fill:#0065BD;}
	.st30{fill:none;stroke:#FEDF00;stroke-width:0.9869;stroke-linecap:round;stroke-miterlimit:3.8637;}
	.st31{fill:#FCD900;stroke:#FEDF00;stroke-width:0.5127;stroke-miterlimit:3.8636;}
	.st32{fill:none;stroke:#FEDF00;stroke-width:0.9869;stroke-miterlimit:3.8637;}
	.st33{fill:#FEDF00;stroke:#FCD900;stroke-width:0.5127;stroke-miterlimit:3.8636;}
	.st34{fill:#D52B1E;stroke:#D52B1E;stroke-width:0.5127;stroke-miterlimit:3.8636;}
	.st35{fill:none;stroke:#703D29;stroke-width:0.9967;stroke-miterlimit:3.8636;}
	.st36{fill:none;stroke:#703D29;stroke-width:1.0367;stroke-miterlimit:3.8636;}
</style>
<path class="st0" d="M0,0h800v480H0V0z"/>
<path class="st1" d="M0,0h544v480H0V0z"/>
<path class="st2" d="M0,0h256v480H0V0z"/>
<g>
	<path id="path2522" class="st3" d="M411.9,164.6c-0.4-0.2-0.9-0.5-1.3-0.7c-1.1-0.6-2.2-0.5-2.7,0.2c-0.6,0.7-0.8,2,0,2.8"/>
	<path id="path2524" class="st4" d="M335.4,261.3c-0.2,0.6-0.4,0.8-0.6,1.3c-0.3,0.5-0.4,0.8-0.7,1.3c-0.3,0.5-0.5,0.8-0.8,1.2
		c-0.4,0.6-0.7,1-1.2,1.6"/>
	<path id="path2526" class="st5" d="M380.7,138c7.8,0,10.9,6.7,18.7,6.7c4.8,0,7.6-1.6,11.8-3.9c2.9-1.6,4.8-2.5,8.1-2.5
		c3.4,0,5.5,1,7.3,4c1,1.7,1.8,4.9,1.4,6.8c-0.8,3.5-1.3,5.1-2.7,8.3c-0.7,1.6-1.3,2.5-1.3,4.2c0,4.1,5.6,5.5,9.4,5.6
		c0.8,0,7.8,0.1,12.1-4.2c-2.3-0.1-4.9-1.9-4.9-4.2c0-2.6,1.9-4.4,4.4-5.2c0.5-0.1,1.3,0.3,1.7,0.1c0.6-0.3,0.3-1,0.9-1.4
		c1.3-1,2.1-1.6,3.7-1.6c1,0,1.7,0.1,2.5,0.8c0.4,0.3,0.6,0.7,1.2,0.7c1.1,0,1.7-0.7,2.9-0.7c0.9,0,1.5,0.1,2.3,0.5
		c0.7,0.4,0.7,1.5,1.4,1.5c0.4,0,2.4-0.8,3.5-0.8c2.2,0,3.4,0.8,4.8,2.5c0.4,0.5,0.6,1.4,1,1.4c0.8,0,2.6,0.5,3.8,1.6
		c0.5,0.5,0.7,0.7,1.1,1.3c0.3,0.4,0.7,1.4,1.1,1.6c0.5,0.2,1,0.2,1.7,0.6c1.6,1,2.9,3,2.8,4.9c0,0.6-0.3,1.5-0.5,2.1
		c-1.9,6.6-6.4,8.7-11,14.4c-1.9,2.4-3.5,4.4-3.5,7.5c0,0.8,0.9,2.1,1.3,2.8c-0.3-1.5,0.4-3.3,2-3.3c2.1-0.1,3.7,1.5,4,3.6
		c0.1,0.5-0.1,1.3-0.3,1.8c1.1-0.8,2.6-1.3,4-1.4c0.7-0.1,1.2-0.1,1.9-0.1c3.4,0.1,7.1,2,9.4,3.9c6.9,5.9,7.8,14.5,7.4,16.9
		c-0.8,5.3-0.3,14.9-13.9,18.8c2.5,1.1,4.2,2.9,4.2,5.3c0,2.5-1.9,4.7-4.5,4.7c-1.4,0-2.4-0.4-3.5-1.4c-2.8,2.8-3.4,5.7-3.4,9.7
		c0,2.4,0.5,3.8,1.5,6c1.1,2.3,1.8,3.6,3.7,5.3c1-1.5,2.1-2.6,3.9-2.6c1.8,0,3.3,0.6,4,2.2c0.2,0.5,0,0.9,0.3,1.4
		c0.3,0.6,0.9,0.8,1.2,1.4c0.5,0.9,0,1.8,0.5,2.7c0.3,0.6,0.9,0.7,1.2,1.4c0.4,1,0.5,1.7,0.5,2.7c0,3-2.8,5.2-5.8,5.2
		c-0.9,0-1.4-0.4-2.3-0.3c1.7,1.7,3.1,2.5,4.4,4.6c1.9,3,2.4,5.1,2.8,8.6c0.1,0.7,0.1,1.1,0.1,1.7c0,4.5-0.7,7.2-2.7,11.3
		c-1.9,3.9-3.6,6-7.1,8.6c-5.5,3.9-9.5,5.1-16.1,6.4c-4.3,0.8-6.7,1.2-11,1.5c-5.5,0.4-8.7,0.4-14.2,0.7c-7.2,0.5-12.3,1.5-17.4,6.6
		c2.4,1.8,4.1,3.5,4.1,6.5c0,3.1-1.9,5.3-4.8,6.2c-0.7,0.2-1.2,0-1.8,0.4c-0.8,0.4-0.7,1.3-1.5,1.7c-1.3,0.8-2.3,1-3.8,1
		c-2.7,0-4.6-0.6-6.5-2.5c-2.2,1.8-3,3.5-5.5,4.9c-0.8,0.5-1.2,1.1-2.2,1.1c-1.5,0-2.2-0.9-3.4-1.8c-1.9-1.4-2.9-2.3-4.5-4.1
		c-2.3,1.4-3.7,2.5-6.3,2.5c-1.6,0-2.6-0.2-4-1.1c-0.7-0.4-0.8-1.1-1.5-1.5c-0.8-0.5-1.4-0.3-2.2-0.6c-3-1.3-5-3.6-5-6.9
		c0-2.9,1.8-4.7,4.5-6c-5-5-10-5.9-17.1-6.4c-5.5-0.4-8.6-0.4-14.1-0.7c-4.4-0.3-6.8-0.7-11.1-1.5c-3.3-0.5-5.2-0.7-8.2-2.1
		c-10.3-4.8-16.9-11.4-18.2-22.7c-0.1-1-0.1-1.5-0.1-2.5c0-5.9,2.3-9.5,6.5-13.6c-1.1-0.3-1.8,0.1-2.8-0.3c-2.6-0.9-4.5-2.7-4.5-5.5
		c0-1,0-1.7,0.5-2.6c0.4-0.6,1-0.8,1.2-1.5c0.2-0.9-0.1-1.6,0.4-2.5c0.3-0.6,0.8-0.7,1.1-1.3c0.9-1.9,2-3.4,4.1-3.4
		c1.8,0,2.9,0.9,3.8,2.5c1.7-0.8,2.2-2.1,3.2-3.7c1.6-2.7,2.4-4.6,2.4-7.8c0-2.2-0.2-3.5-0.9-5.6c-0.5-1.5-0.7-2.5-1.8-3.6
		c-1,1-2,1.4-3.5,1.4c-2.9,0-5.1-2.5-5.1-5.4c0-2.2,1.1-3.7,3-4.6c-1.6-1.3-2.9-1.5-4.6-2.5c-2.6-1.7-3.6-3.4-5.3-6
		c-1.1-1.7-1.4-2.9-2-4.8c-0.7-2.3-1.1-3.7-1.1-6.2c0-0.6,0-1,0.1-1.6c0.6-4.9,1.5-8,4.6-11.9c1.8-2.3,3.1-3.7,5.8-4.9
		c2.3-1,3.7-1.7,6.2-1.7c0.8,0,1.2,0,2,0.1c1.2,0.1,1.9,0.3,2.9,0.8c0.4,0.2,1.1,0.9,1.1,0.4c0-0.5-0.3-0.8-0.3-1.3
		c0-2.1,1.5-4,3.6-4c1.5,0,2.1,1.3,2.9,2.6c0.5-0.8,0.7-1.3,0.7-2.3c0-3.5-1.9-5.2-4-7.9c-4.7-5.9-10.6-8.6-10.6-16.1
		c0-2.2,1.1-3.8,3-4.9c0.6-0.3,1.3,0,1.9-0.3c0.5-0.3,0.4-0.9,0.7-1.4c0.5-0.7,0.9-1.1,1.5-1.6c1.1-0.9,2-0.7,3.2-1.5
		c0.6-0.4,0.7-0.9,1.2-1.5c1.3-1.6,2.5-2.4,4.6-2.4c1,0,1.6,0,2.6,0.4c0.3,0.1,0.9,0.6,1,0.5c0.2-0.3,0.8-0.8,1.4-1.2
		c0.9-0.4,1.2-0.6,2.2-0.6c1.1,0,1.8,0.6,3,0.6c0.4,0,0.5-0.4,0.8-0.6c1-0.7,1.6-1.1,2.8-1.1c1.2,0,1.8,0.4,2.8,1
		c0.9,0.6,1.1,1.4,2,1.9c0.5,0.3,1,0.2,1.5,0.4c2.6,0.9,4.6,2.6,4.6,5.3c0,1.5-0.4,2.5-1.5,3.5c-0.9,0.8-1.7,0.6-2.8,1
		c3.6,2.9,6.8,3.6,11.4,3.6c4.2,0,9.4-1.7,9.4-6c0-2-1.1-3-1.9-4.8c-1.4-3.2-2.1-5.1-2.1-8.6c0-2.8,0.3-4.5,1.9-6.7
		C375.8,138.5,377.8,138,380.7,138L380.7,138z"/>
	<path id="path3008" class="st6" d="M402.7,177.1h52.9v52.8h-52.9V177.1z"/>
	<path id="path2528" class="st7" d="M323.7,204.1c1.5,0.8,3.1-0.4,2.8-2.4c-0.2-0.9-1.2-2.1-2.5-2.2"/>
	<path id="path2604" class="st7" d="M323.7,204.1c1.5,1.1,3.3-0.7,2.6-2.6c-0.5-1.3-2.3-2.6-4.8-0.9c-2.8,1.9-2,7.8,3.3,7.9
		c4.7,0.1,7.6-6.8,3.4-11.7c-4-4.7-11.4-3.6-16.2,0.3c-2,1.6-5.9,5.9-7.1,11.7c-0.4,1.8-0.6,3.3-0.6,5.1c0,1.2,0.1,2.5,0.5,4.2
		c0.7,3.4,1.9,5.8,3.1,7.6c0.5,0.7,0.9,1.2,1.3,1.6c0.8,0.8,1.1,1.3,1.9,2c2.7,2.3,6.2,4,10.5,3.9c4.7-0.2,7.4-3.5,6.9-7.4
		c-0.5-3.8-4.3-5.7-6.8-3.9c-1.7,1.2-2.3,4.9,0.7,5.8c1.7,0.5,3.2-1.7,2-2.9"/>
	<path id="path2532" class="st8" d="M420.9,330.5c0.5,0.3,0.8,1,0.8,1c0.1,0.3,0.3,0.6,0.3,0.9c0.3,1.5-0.7,2.5-2,2.6
		c-1.7,0.2-3-0.8-3.5-2"/>
	<path id="path2534" class="st8" d="M330.1,288.9c0.3,0.3,0.4,0.7,0.9,0.8c0.7,0.1,1.2,0.4,1.9-0.5c0.8-1.1,0.4-2.8-0.5-3.9
		c-0.9-1.2-3.6-2.2-5.9-0.9c-0.8,0.4-1.7,1-2.6,2.1c-0.3,0.4-0.9,1.1-1.2,1.6c-0.7,1.2-1,2.1-1.1,2.5c-2.1,5.9,0.4,12,4.2,15.8"/>
	<path id="path2536" class="st7" d="M420.7,330.4c0.4,0.4,0.7,0.8,0.7,0.8c0.1,0.3,0.2,0.6,0.3,0.9c0.3,1.5-0.7,2.5-2,2.6
		c-1.7,0.2-2.8-0.8-3.4-2"/>
	<path id="path2538" class="st7" d="M387,165.2c0.8-0.5,1.6-0.9,2.3-1.3c1.1-0.6,2.3-0.5,2.9,0.2c0.6,0.7,0.7,2-0.1,2.8"/>
	<path id="path2540" class="st9" d="M352.5,160.5c0.3,1.1,1.1,2,2.5,2.5c0.8,0.3,2.7,0.2,3.9-1.4c1-1.3,0.9-2.8,0.5-4.1
		c-0.2-0.8-0.9-1.6-1.7-2.2L352.5,160.5L352.5,160.5L352.5,160.5z"/>
	<path id="path2542" class="st5" d="M356.9,154.7l0.7,0.5l0.8,0.8l0.5,1l0.3,0.9l0.1,1.1l-0.1,0.8l-0.3,0.9l-0.5,0.6l-0.6,0.7
		l-0.9,0.5l-1.1,0.3l-1,0.2l-1-0.5l-0.9-0.7l-0.6-0.8l-0.4-1v-0.4L356.9,154.7L356.9,154.7z"/>
	<path id="path2544" class="st8" d="M374.9,170.8c5.5-1.2,10-3.6,13.4-5.5"/>
	<path id="path2546" class="st8" d="M374.7,170.5c5.5-1.2,10-3.6,13.4-5.5"/>
	<path id="path2548" class="st8" d="M407.6,339.1c-1.3,2-4.4,5-7.7,6.2c-3.3-1.2-6.4-4.2-7.7-6.2"/>
	<path id="path2550" class="st7" d="M454.7,152.3c2.7-1.5,4.8-1.2,6.4,0.9c1.7,2.3,1.9,5.4,1.6,7.3c-0.6,2.7-1.3,3.8-3.5,5.8"/>
	<path id="path2552" class="st7" d="M461.3,153.5c3.1-2.1,6.5-1.2,8.3,1.6c1.4,2,1.7,3.7,1.6,6.2c-0.2,4.3-2.8,7.6-5.8,9.3"/>
	<path id="path2554" class="st8" d="M470.3,156.2c3.4,0.4,6.3,3.6,6.3,7.1c0,4.5-1.5,6.1-3.8,9.3c-2.5,3.4-10.7,9.7-10.7,16.8
		c0,4.3,1.2,7.1,4.3,8.5c2,0.9,4.3-0.1,5.4-1c2.6-2.4,1.6-6.5-1.2-7c-3.3-0.6-3.9,4.6-0.7,4.3"/>
	<path id="path2556" class="st8" d="M475.9,160.6c2.6,0.2,4.6,2.5,4.6,5.2c0,3.9-1.1,5.5-4.2,9.4c-2.7,3.3-10.6,9.1-10.4,14.7
		c0.1,2.1,1.8,4.1,3.4,4.2"/>
	<path id="path2558" class="st7" d="M476.2,204.1c-1.5,1.1-3.3-0.6-2.5-2.4c0.6-1.2,2.2-2.8,4.7-1.1c2.8,1.9,2,7.8-3.3,7.9
		c-4.7,0.1-7.9-6.6-3.4-11.7c4.1-4.6,11.8-3.7,16.6,0.1c2,1.6,6.2,6.1,7,12c1.1,7.1,0.9,15.8-6.4,21.2c-2.9,2.2-7,3.1-10.6,3
		c-4.7-0.2-7.4-3.5-6.9-7.4c0.5-3.8,4.1-5.4,6.8-3.9c2.8,1.5,2.3,5.5-0.7,5.8c-1.8,0.2-3.2-1.7-2-2.9"/>
	<path id="path2560" class="st8" d="M473.7,201.6c0.8-3.5,3.8-3.8,6.2-3.8c6.6,0.1,11.2,8,11.3,15.6c0.1,9.6-4.1,15.3-11.1,15.6
		c-1.8,0.1-4.9-0.8-5-3"/>
	<path id="path2562" class="st10" d="M477.8,200.1c7,1.6,9.4,7.9,9.4,13.9c0,4.9-0.5,11.6-10,14"/>
	<path id="path2564" class="st11" d="M481.9,238.1c-1.2-2.9-4.3-1.6-4.5,0c-0.4,3.7,2.8,4.8,5.1,4.2c1.1-0.3,2-1,2.5-2
		c0.6-1.1,0.8-2.4,0.4-3.8c-0.2-0.6-0.4-1.1-0.9-1.7c-0.4-0.6-0.9-1-1.3-1.2c-0.9-0.6-1.9-0.6-3.4-0.6c-5.6,0-10.5,6.6-12.2,13.5
		c-0.5,2.3-1.3,7.3-0.3,12.1c1.1,5.1,3.3,8.6,5.9,11.3c1.4,1.5,3.3,2.7,5.8,4.1c0.8,0.4,2.8,1.3,4.2,1.7c1.4,0.4,2.8,0.4,4,0.1
		c3.3-0.7,4.9-3.8,3.2-7c-1.4-2.6-5.4-4-7.3-0.7c-0.2,0.3-0.4,0.9-0.4,1.6c0,0.9,0.4,1.9,1,2.3c1.4,0.9,3.8,0.7,3.7-1.9"/>
	<path id="path2566" class="st8" d="M486.3,272.6c-1.1,0.4-1.6,0.4-2.9-0.2c-0.5-0.2-1.2-0.6-1.9-1c-2.6-1.5-5.6-3.8-8.5-9.1
		c-0.8-1.6-1.4-3.1-1.7-4.5c-0.3-1.1-0.5-2.2-0.5-3.4c-0.1-1.9,0.1-3.9,0.6-6.3c0.8-3.8,1.8-5.9,4.1-9.1c1.2-1.6,2.2-2.6,4.3-2.6"/>
	<path id="path2568" class="st8" d="M489.3,267.5c0-0.2,0.1-0.5,0.1-0.7c0-2.2-1.8-3.9-3.9-3.9c-2.2,0-3.9,1.8-3.9,3.9
		c0,1.2,0.6,2.4,1.5,3.1"/>
	<path id="path2570" class="st8" d="M487.8,263.6c-0.3-1.8-1.8-3.1-3.6-3.1c-2,0-3.7,1.7-3.7,3.8c0,1,0.4,2,1,2.6"/>
	<path id="path2572" class="st8" d="M480.6,263.4c-3.4-2.4-6.2-7-6.3-12.4c0-4.2,1.7-8.4,3.6-10.1"/>
	<path id="path2574" class="st7" d="M475.3,261.5c1.3,2,2.9,4.1,6.3,5.9"/>
	<path id="path2576" class="st12" d="M464.6,276.2c1.1-1.3,3.7-3.3,6.7-3.7c3-0.4,5.6,0.5,8.3,1.9c5.2,2.8,8.1,5.8,10,11.4
		c0.5,1.4,0.9,3.5,0.8,5.8c-0.1,3.6-1,7.6-2,9.5c-0.9,1.7-3.1,9-15.4,14.1c-7.2,3-18.2,3.6-25.8,3.9c-10.5,0.4-20.1,0.8-25.7,7.7"/>
	<path id="path2578" class="st7" d="M480.3,278.1c-3.3-2.2-9.6-5-15.2-2.2c-2.1,1-3.5,2.3-4.3,4.4c-1.4,3.8,0.2,7.9,1.8,9.6
		c0.9,0.9,2.7,2.6,5,2.7c3.8,0.1,4.7-2.6,4.8-3.2c0.5-2.8-1.2-3.9-2-4.2c-0.7-0.2-2.8-0.2-3.2,1.3c-0.2,0.5-0.2,1.4,0.2,2"/>
	<path id="path2580" class="st13" d="M467.2,288c-0.3-1.1,0-2.2,0.9-3.4c1.2-1.6,3.7-2.2,5.9-0.9c0.8,0.4,1.7,1,2.6,2.1
		c0.3,0.4,0.9,1.1,1.2,1.6c0.7,1.2,1,2.1,1.1,2.5c2.5,7-1.5,14.7-6.6,17.7c-4,2.4-8.8,3.4-14.5,4.1c-2.6,0.3-4,0.3-6.6,0.4
		c-2.1,0.1-3.9,0.1-5.6,0c-1.4,0-2.7,0-4.1,0c-2.2-0.1-4.5-0.1-7.3,0.1c-2.9,0.2-5.1,0.3-7.6,0.7c-1.6,0.3-3.5,0.5-5.5,1
		c-0.6,0.1-1.2,0.2-1.8,0.4c-0.4,0.1-0.8,0.2-1.2,0.4c-3.6,1.1-7.1,2.4-9.8,4.2c-0.9,0.5-1.8,1.1-2.5,1.7c-0.4,0.4-0.9,0.8-1.4,1.2
		c-1.9,1.9-3.9,3.9-4.4,6.7c-0.1,0.5-0.1,1-0.1,1.6c0,1.8,1.5,4.3,5.4,5.1"/>
	<path id="path2582" class="st7" d="M421,331c1.1,2.2-0.1,3.2-1.6,3.4c-2.2,0.3-3.3-1.5-3.5-3c-0.2-2.5,1.9-4.8,4.4-4.8
		c2.3,0,4.1,1.5,5,3.5c0.3,0.7,0.5,1.5,0.5,2.4c0.1,1.6-0.5,3.1-1.4,4.2c-1.3,1.5-3.3,2.4-5.4,2.5c-4.3,0.2-7.6-3.8-7.6-7.9
		c0-7.8,11.5-12,16.1-13.1c5.6-1.3,9-1.8,18-2.3c3.6-0.2,6.2-0.1,10.2-0.5c3.6-0.4,5.4-0.5,9.1-1.4c4.6-1.1,8.8-3,12.6-6.4
		c2.9-2.7,4.6-4.6,6-8.2c1.2-3.2,1.7-9.4-1.3-14c-2.6-4.1-6.3-6.2-10.4-6.8c-3.8-0.5-7,1.1-9,4.8c-1,1.8-0.7,4.8,0.1,6.2
		c0.7,1.2,2.5,3,4.8,3c3.8,0.1,4.7-2.6,4.8-3.2c0.5-2.8-1.2-3.9-2-4.2c-0.7-0.2-2.8-0.2-3.2,1.3c-0.2,0.5-0.2,1.4,0.2,2"/>
	<path id="path2584" class="st7" d="M417.7,318.7c-4.9,2.2-8.5,3.8-11.5,8.6c-1,1.5-1.2,3.7-1.2,4.9c0,2.7,1.1,5.8,3.4,7.7
		c2.1,1.8,4.2,2.3,6.7,2.1c1.9-0.2,3.8-1.6,4.1-2.6"/>
	<path id="path2586" class="st8" d="M464.7,196.8c-1.8,1.5-2.7,3.4-2.7,5.8c0,3.1,2.6,8.2,9,10c2.5,0.7,4.8,0.6,6.3-0.3"/>
	<path id="path2588" class="st8" d="M465.9,226c-2.3,0.8-3.9,4.2-3.9,7.6c0,3.8,1.9,6.2,4,7.5"/>
	<path id="path2590" class="st7" d="M468.4,238.4c-4.1,5.1-6.3,8.1-6.4,14.2c-0.1,5.7,1.7,9.6,5.1,13.7"/>
	<path id="path2592" class="st8" d="M446.5,153.5c0.1-0.2,0.2-0.3,0.4-0.5c1.7-2.5,4.7-3.2,6.9-1.5c2.7,2,3.3,5.4,2.6,9
		c-0.5,2.3-2,4.1-4.1,5.5"/>
	<path id="path2594" class="st14" d="M355.3,158.6c-0.3-1.7-2.3-2-3-1c-1.2,1.5-0.3,4,2,4.8c0.8,0.3,2.7,0.2,3.9-1.4
		c1-1.3,0.9-2.8,0.5-4.1c-0.2-0.8-0.9-1.5-1.7-2.2c-2.7-2.1-7.2-1.6-8.6,1.9c-1.9,4.5,2.2,7.9,6,10.5c4.7,3.2,10.1,3.8,14.2,3.8
		c9.2-0.1,16.2-4.5,20.8-7c1.1-0.6,2.2-0.5,2.7,0.2c0.6,0.7,0.6,2-0.3,2.8"/>
	<path id="path2596" class="st7" d="M345.1,152.3c-2.6-1.2-4.7-1-6.4,0.9c-1.9,2.2-1.9,5.4-1.6,7.3c0.6,2.7,1.3,3.8,3.5,5.8"/>
	<path id="path2598" class="st8" d="M338.6,153.5c-3.1-2.1-6.5-1.2-8.3,1.6c-1.4,2-1.7,3.7-1.6,6.2c0.2,4.3,2.8,7.6,5.8,9.3"/>
	<path id="path2600" class="st8" d="M329.6,156.2c-3.4,0.4-6.1,3.3-6.1,6.7c0,4.5,1.1,6.3,3.6,9.7c2.5,3.4,10.7,9.7,10.7,16.8
		c0,4.3-1.2,7.1-4.3,8.5c-2,0.9-4.3-0.1-5.4-1c-2.6-2.4-1.6-6.5,1.2-7c3.3-0.6,3.9,4.6,0.7,4.3"/>
	<path id="path2602" class="st8" d="M324,160.6c-2.6,0.2-5.1,2.4-5.1,5.1c0,3.9,1.5,5.6,4.6,9.5c2.7,3.3,10.2,9,10,14.6
		c-0.1,2.1-1.5,4.7-2.9,4.4"/>
	<path id="path2982" class="st8" d="M320.3,201.9c-1.5,0.5-3.4,1.5-4.9,3.5c-1.2,1.7-1.9,4-2.3,6.1c-0.2,0.9-0.4,3.8,0.2,6.7
		c0.4,2.2,1.3,4.2,2.3,5.7c0.4,0.5,0.7,0.9,1,1.2c0.3,0.3,0.8,0.6,1.1,0.9"/>
	<path id="path2606" class="st7" d="M317.9,238.1c1.2-2.9,4.3-1.6,4.5,0c0.4,3.7-2.8,4.8-5.1,4.2c-1.1-0.3-2-1-2.5-2
		c-0.6-1.1-0.8-2.4-0.4-3.8c0.2-0.6,0.4-1.1,0.9-1.7c0.4-0.6,0.9-1,1.3-1.2c0.9-0.6,1.9-0.6,3.4-0.6c5.6,0,10.5,6.6,12.2,13.5
		c0.5,2.3,1.3,7.3,0.3,12.1c-1.1,5.1-3.3,8.6-5.9,11.3c-1.4,1.5-3.3,2.7-5.8,4.1c-0.8,0.4-2.8,1.3-4.2,1.7c-1.4,0.4-2.8,0.4-4,0.1
		c-2.8-0.9-4.7-3.5-3.2-7c1.2-2.7,5.4-4,7.3-0.7c0.2,0.3,0.4,0.9,0.4,1.6c0,0.9-0.4,1.9-1,2.3c-1.4,0.9-3.8,0.7-3.7-1.9"/>
	<path id="path2608" class="st8" d="M313.6,272.6c1.1,0.4,1.6,0.4,2.9-0.2c0.5-0.2,1.2-0.6,1.9-1c2.6-1.5,5.6-3.8,8.5-9.1
		c0.8-1.6,1.4-3.1,1.7-4.5c0.3-1.1,0.5-2.2,0.5-3.4c0.1-1.9-0.1-3.9-0.6-6.3c-0.8-3.8-1.8-5.9-4.1-9.1c-1.2-1.6-2.2-2.6-4.3-2.6"/>
	<path id="path2610" class="st8" d="M310.5,267.5c0-0.2-0.1-0.5-0.1-0.7c0-2.2,1.8-3.9,3.9-3.9c2.2,0,3.9,1.8,3.9,3.9
		c0,1.2-0.6,2.4-1.5,3.1"/>
	<path id="path2612" class="st8" d="M312.1,263.6c0.3-1.8,1.8-3.1,3.6-3.1c2,0,3.7,1.7,3.7,3.8c0,1-0.4,2-1,2.6"/>
	<path id="path2614" class="st8" d="M319.3,263.4c3.4-2.4,6.2-7,6.3-12.4c0-4.2-1.7-8.4-3.6-10.1"/>
	<path id="path2616" class="st7" d="M324.6,261.5c-1.3,2-2.9,4.1-6.3,5.9"/>
	<path id="path2618" class="st8" d="M334.6,275.9c-0.9-2.2-2.8-3.2-5.8-3.5c-3-0.3-5.6,0.5-8.3,1.9c-5.2,2.8-8.1,5.8-10,11.4
		c-0.5,1.4-0.9,3.5-0.8,5.8c0.1,3.6,1,7.6,2,9.5c0.9,1.7,3.1,9,15.4,14.1c7.2,3,18.2,3.6,25.8,3.9c10.5,0.4,20.1,0.8,25.7,7.7"/>
	<path id="path2620" class="st7" d="M319.6,278.1c3.3-2.2,9.6-5,15.2-2.2c2.1,1,3.5,2.3,4.3,4.4c1.4,3.8-0.2,7.9-1.8,9.6
		c-0.9,0.9-2.7,2.6-5,2.7c-3.8,0.1-4.7-2.6-4.8-3.2c-0.5-2.8,1.2-3.9,2-4.2c0.7-0.2,2.8-0.2,3.2,1.3c0.2,0.5,0.2,1.4-0.2,2"/>
	<path id="path2622" class="st8" d="M332.7,288c0.3-1.1,0.1-2.3-0.9-3.4c-1-1.1-3.7-2.2-5.9-0.9c-0.8,0.4-1.7,1-2.6,2.1
		c-0.3,0.4-0.9,1.1-1.2,1.6c-0.7,1.2-1,2.1-1.1,2.5c-2.5,7,1.6,14.5,6.6,17.7c4.4,2.8,8.9,3.6,14.5,4.1c2.6,0.2,4,0.3,6.6,0.4
		c2.1,0.1,3.9,0.1,5.6,0c1.4,0,2.7,0,4.1,0c2.2-0.1,4.5-0.1,7.3,0.1c2.9,0.2,5.1,0.3,7.6,0.7c1.6,0.3,3.5,0.5,5.5,1
		c0.6,0.1,1.2,0.2,1.8,0.4c0.4,0.1,0.8,0.2,1.2,0.4c3.6,1.1,7.1,2.4,9.8,4.2c0.9,0.5,1.8,1.1,2.5,1.7c0.5,0.5,0.9,0.8,1.4,1.2
		c1.9,1.9,3.9,3.9,4.4,6.7c0.1,0.5,0.1,1,0.1,1.6c0,1.8-1.5,4.3-5.4,5.1"/>
	<path id="path2624" class="st8" d="M378.9,331c-1.1,2.2,0.1,3.2,1.6,3.4c2.2,0.3,3.3-1.5,3.5-3c0.2-2.5-1.9-4.8-4.4-4.8
		c-2.3,0-4.1,1.5-5,3.5c-0.3,0.7-0.5,1.5-0.5,2.4c-0.1,1.6,0.5,3.1,1.4,4.2c1.3,1.5,3.3,2.4,5.4,2.5c4.3,0.2,7.6-3.8,7.6-7.9
		c0-7.8-11.5-12-16.1-13.1c-5.6-1.3-9-1.8-18-2.3c-3.6-0.2-6.2-0.1-10.2-0.5c-3.6-0.4-5.4-0.5-9.1-1.4c-4.6-1.1-8.8-3-12.6-6.4
		c-2.9-2.7-4.6-4.6-6-8.2c-1.2-3.2-1.7-9.4,1.3-14c2.6-4.1,6.3-6.2,10.4-6.8c3.8-0.5,7,1.1,9,4.8c1,1.8,0.7,4.8-0.1,6.2
		c-0.7,1.2-2.5,3-4.8,3c-3.8,0.1-4.7-2.6-4.8-3.2c-0.5-2.8,1.2-3.9,2-4.2c0.7-0.2,2.8-0.2,3.2,1.3c0.2,0.5,0.2,1.4-0.2,2"/>
	<path id="path2626" class="st8" d="M382.2,318.7c4.9,2.2,8.5,3.8,11.5,8.6c1,1.5,1.2,3.7,1.2,4.9c0,2.7-1.1,5.8-3.4,7.7
		c-2.1,1.8-4.2,2.3-6.7,2.1c-1.9-0.2-3.8-1.6-4.1-2.6"/>
	<path id="path2628" class="st8" d="M335.2,196.8c1.8,1.5,2.7,3.4,2.7,5.8c0,3.1-2.6,8.2-9,10c-2.5,0.7-4.9,0.1-6.4-0.8"/>
	<path id="path2630" class="st8" d="M336.3,207.4c1.2,0.8,1.6,1.7,1.6,3.3c0,1.1-0.7,2.5-1.9,3.8c-1.9,2.2-5.2,4-8.8,4
		c-2,0-4-0.4-6.1-1.8c-2.2-1.5-3.4-3.5-3.9-5.4"/>
	<path id="path2632" class="st8" d="M336.2,214.1c1.3,1.2,1.7,2.7,1.7,4.6c0,2.8-1.1,4.9-3.7,7.2c-0.6,0.5-1.2,1-2,1.4"/>
	<path id="path2634" class="st8" d="M334,226c2.8,2.2,3.9,4.2,3.9,7.6c0,3.8-1.9,6.2-4,7.5"/>
	<path id="path2636" class="st7" d="M331.5,238.4c4.1,5.1,6.3,8.1,6.4,14.2c0.1,5.7-1.7,9.6-5.1,13.7"/>
	<path id="path2638" class="st7" d="M353.4,153.5c-0.1-0.2-0.2-0.3-0.4-0.5c-1.7-2.5-4.7-3.2-6.9-1.5c-2.7,2-3.3,5.4-2.6,9
		c0.5,2.3,2,4.1,4.1,5.5"/>
	<path id="path2640" class="st8" d="M447.4,161.1c-4.1,4.4-8.1,5.8-14.2,6c-1.9,0.1-5.5-0.6-7.6-2.1c-1.4-1-2.9-2.6-1.9-5.5
		c0.6-1.9,3.7-7.3,3.9-11c0.2-5.7-1.9-8.8-5.4-10c-6.3-2.2-13.1,4-17.1,5.4c-2.1,0.7-3.2,0.8-5.2,0.8c-1.9,0-3.1-0.1-5.2-0.8
		c-4.1-1.4-10.8-7.6-17.1-5.4c-3.4,1.2-5.6,4.3-5.4,10c0.2,3.7,3.2,9.1,3.9,11c1,2.9-0.6,4.5-1.9,5.5c-2.1,1.5-5.7,2.2-7.6,2.1
		c-6.1-0.2-10.1-1.6-14.2-6"/>
	<path id="path2642" class="st13" d="M410.9,164.1c0.8,1.5,1.3,2.4,0.8,4c-0.5,1.8-1.8,2.8-3.6,2.8c-4,0-6.4-4.7-4.6-7.8
		c3.2-5.4,9.4-2.3,15.1,0.3c-0.3-1.4-0.8-1.8-0.7-3.5c0.1-4.2,3.3-6.1,4.5-10.1c0.7-2.3,1-4.3-0.7-6c-1.5-1.4-3.2-1.4-5.1-0.7
		c-3.9,1.5-8.5,5.9-16.7,6c-8.2-0.1-12.9-4.5-16.8-6c-1.9-0.8-3.7-0.8-5.1,0.7c-1.7,1.7-1.4,3.7-0.7,6c1.3,3.9,4.4,5.8,4.5,10.1
		c0.1,1.7-0.4,2.1-0.7,3.5c5.7-2.7,12.1-5.9,15.1-0.3c1.7,3.1-0.6,7.8-4.6,7.8c-1.8,0-3-1.1-3.6-2.8c-0.5-1.5,0-2.8,0.8-4"/>
	<path id="path2646" class="st8" d="M382,163.1c0.2-0.8,0.5-1.3,0.5-2.6c-0.1-4.2-3.3-6.1-4.5-10.1c-0.7-2.3-1-4.3,0.7-6
		c1.5-1.4,3.2-1.4,5.1-0.7c3.9,1.5,8.6,5.9,16.8,6c-8.2-0.1-12.9-4.5-16.8-6c-1.9-0.8-3.8-1-5.3,0.5c-1.7,1.7-1.2,3.9-0.5,6.2
		c1.3,3.9,4.2,5.8,4.4,10.1c0,1.3-0.3,1.8-0.5,2.6"/>
	<path id="path2648" class="st8" d="M400.5,149.5c8.1-0.4,15-5.8,17.2-6.3c2-0.4,3.1-0.2,4.6,1.1c-1.5-1.3-3.1-1.3-5-0.5
		c-3.9,1.5-8.5,5.9-16.7,6"/>
	<path id="path2650" class="st8" d="M410.2,170.9c0.7-0.5,1.3-1.3,1.6-2.2c0.5-1.5,0.5-2.8-0.3-3.9c1,1.3,1.1,2.4,0.8,4
		c-0.2,1-0.8,1.5-1.6,2.2"/>
	<path id="path2654" class="st8" d="M462.5,257.6v16.3h0c0,0,0,1.5-0.1,2.5c-0.1,0.6-0.2,1.2-0.3,1.7"/>
	<path id="path2656" class="st8" d="M462.2,256.1v17.5l0,0c0,0,0,1.5-0.1,2.5c-0.1,1-0.3,1.9-0.5,2.7"/>
	<path id="path2658" class="st8" d="M462.2,235.5v14.6"/>
	<path id="path2660" class="st8" d="M462.5,236.7v11.9"/>
	<path id="path2662" class="st8" d="M462.5,221.6v8.9"/>
	<path id="path2664" class="st8" d="M462.2,220.5v11"/>
	<path id="path2666" class="st8" d="M462.5,212.4v3.5"/>
	<path id="path2668" class="st8" d="M462.2,211.7v5"/>
	<path id="path2670" class="st8" d="M462.5,205.1v3.6"/>
	<path id="path2672" class="st8" d="M462.2,204.2v5"/>
	<path id="path2674" class="st8" d="M462.5,193.3v6.6"/>
	<path id="path2676" class="st8" d="M462.2,191.9v9"/>
	<path id="path2678" class="st8" d="M460.3,283.3c-1.2,2.5-2.2,3.8-4.2,5.7c-2,2-3.4,2.9-5.9,4.1c-2.4,1.2-4,1.6-6.6,2.2
		c-2.6,0.6-4.2,0.7-6.9,0.9c-2.5,0.1-3.9,0-6.4-0.2c-2.7-0.2-4.1-0.6-6.8-0.8c-2.2-0.2-3.4-0.4-5.6-0.4c-2.3,0-3.6,0-5.8,0.4
		c-2.1,0.4-3.3,0.7-5.2,1.5c-2.7,1.1-5.8,3-6.4,3.9c-0.7-0.9-3.7-2.8-6.4-3.9c-2-0.8-3.1-1.1-5.2-1.5c-2.2-0.4-3.5-0.4-5.8-0.4
		c-2.2,0-3.4,0.2-5.6,0.4c-2.7,0.2-4.1,0.6-6.8,0.8c-2.5,0.2-3.9,0.3-6.4,0.2c-2.7-0.1-4.3-0.3-6.9-0.9c-2.7-0.6-4.2-1-6.6-2.2
		c-2.5-1.2-3.9-2.1-5.9-4.1c-0.2-0.2-0.4-0.4-0.6-0.6"/>
	<path id="path2680" class="st8" d="M460.3,282.4c-0.1,0.2-0.2,0.5-0.3,0.7c-1.2,2.5-2.2,3.8-4.2,5.7c-2,2-3.4,2.9-5.9,4.1
		c-2.4,1.2-4,1.6-6.6,2.2c-2.6,0.6-4.2,0.7-6.9,0.9c-2.5,0.1-3.9,0-6.4-0.2c-2.7-0.2-4.1-0.6-6.8-0.8c-2.2-0.2-3.4-0.4-5.6-0.4
		c-2.3,0-3.6,0-5.8,0.4c-2.1,0.4-3.3,0.7-5.2,1.5c-2.7,1.1-5.8,3-6.4,3.9c-0.7-0.9-3.7-2.8-6.4-3.9c-2-0.8-3.1-1.1-5.2-1.5
		c-2.2-0.4-3.5-0.4-5.8-0.4c-2.2,0-3.4,0.2-5.6,0.4c-2.7,0.2-4.1,0.6-6.8,0.8c-2.5,0.2-3.9,0.3-6.4,0.2c-2.7-0.1-4.3-0.3-6.9-0.9
		c-2.7-0.6-4.2-1-6.6-2.2c-2.5-1.2-3.9-2.1-5.9-4.1c-1-1-1.8-1.9-2.5-2.8"/>
	<path id="path3010" class="st6" d="M455.4,275.7c-0.2,1-0.5,2.6-1.4,4.3c-1,1.5-0.6,1.5-2.8,3.9c-1.1,1.2-2.7,2.2-4,2.9
		c-1.3,0.7-2.3,1-4.4,1.6c-4.2,1.1-7.1,1.2-10.7,1c-2.8-0.1-4.9-0.4-6.6-0.7c-2.5-0.3-4.3-0.5-7.2-0.7c-1.4-0.1-2.7-0.1-4,0
		c-1.5,0.1-3.1,0.3-4.7,0.7c-3.5,0.7-7.1,2.1-7.1,2.1l0-55.2l52.9,0v37.7C455.6,273.3,455.5,275.1,455.4,275.7L455.4,275.7z"/>
	<g id="use4034" transform="translate(0,36.5949)">
		<path id="path3018" class="st15" d="M416.2,263.6c0,0-0.2,0.1-0.4,0.2c-0.2,0.2-0.3,0.3-0.5,0.5c-0.3,0.3-0.5,0.3-0.8,0.5
			c-0.1,0.1-0.3,0.1-0.4,0.3c-0.2,0.2-0.1,0.4-0.2,0.6c-0.1,0.3-0.2,0.4-0.4,0.6c-0.2,0.3-0.4,0.4-0.7,0.6c-0.3,0.3-0.4,0.5-0.7,0.6
			c-0.1,0-0.1,0.1-0.2,0.1c-0.1,0-0.2,0-0.4,0c-0.2,0.1-0.3,0.4-0.5,0.5c0.1,0.1,0.1,0.2,0.1,0.4c0.1,0.2,0.5,0.8,0.5,0.9
			c0.1,0.2,0.2,0.5,0.3,0.5c0.3,0.1,0.6,0.1,0.8,0.1c0.5,0.1,0.8,0.1,1.3,0.3c0.4,0.2,0.6,0.4,0.9,0.5c0.3,0.1,0.5,0.2,0.8,0.3
			c0.2,0,0.4,0.1,0.6,0.1c0.2,0,0.2-0.1,0.4-0.1c0,0,0.1,0,0.1,0l0,0.2c0,0,0,0,0,0v0h0l1.3,0.6c0,0.1-0.1,0.2-0.1,0.2
			c-0.1,0.2-0.1,0.4,0,0.5c0.4,1.2,0.7,2,0.9,2.1c0.4,0.2,0.5,0.6,0.7,1c-0.1,0.1-0.1,0.1-0.2,0.2c-0.4,0.4-0.7,0.7-1.1,1.2
			c-0.5,0.8-0.8,0.8-0.2,1.8c0.4,0.6,0.5,0.7,1,1.5c0.2,0.4,0.4,0.8,0.5,1.3c0.1,0.5,0.2,0.8,0.2,1.3l0.6,0.2l0.4-0.4l0.4-0.8l0-0.6
			c-0.2-0.1-0.2-0.3-0.2-0.5c0-0.2,0.3-0.2,0.5-0.4c0.2-0.3-0.2-0.5-0.4-0.7c-0.4-0.4-0.9-0.5-1-1.2c0-0.2,0-0.3,0.2-0.5
			c0.6-0.5,0.7-0.6,1.3-1.2c0.2,0.1,0.4,0.1,0.6,0.1c0.2,0,0.3,0.1,0.9,0.2c0.4,0.1,0.6,0.1,0.8,0l0.2-0.1c0,0.1,0.1,0.3,0.1,0.4
			c0,0.7-0.1,1.9,0.1,2.3c0.1,0.1,0.1,0.2,0.2,0.4c0.1,0.2,0.1,0.3,0.1,0.4c0,0.4,0,0.7,0,1.2c0,0.4-0.1,0.7-0.1,1.1
			c0,0.3-0.1,0.5-0.3,0.7c-0.2,0.2-0.4,0.3-0.6,0.4l-0.1,0.6l0.7,0.3l0.8,0.2l0.4-0.2c0-0.2,0-0.3,0.1-0.4c0.1-0.2,0.1-0.3,0.3-0.3
			c0.2-0.1,0.5,0.1,0.6-0.1c0.1-0.2,0-0.2,0-0.5c0-0.4-0.1-0.6-0.2-1.1c-0.1-0.7-0.1-1.1-0.1-1.8c0-0.4,0-0.6,0.1-1
			c0.1-0.6,0.3-0.8,0.4-1.4c0.1-0.6,0.2-1,0.2-1.6c2,0.3,3.7,0.3,6-0.2c0.1,0,0.5-0.2,0.5-0.2c0.5,0.4,1.1,0.8,1.8,1
			c0,0.1,0,0.5,0,0.6c0,0.2,0,0.3,0.1,0.5c0.1,0.1,0.1,0.2,0.2,0.2c0.2,0,0.3,0,0.4-0.1c0.1-0.1,0.1-0.3,0.2-0.5c0-0.1,0-0.4,0-0.4
			c0.2,0,0.3,0,0.6,0c0.2,0,0.3,0,0.6,0c0,0.1,0,0.2,0,0.3c0,0.2,0,0.3,0,0.4c0.1,0.1,0.2,0.2,0.3,0.3c0.1,0,0.2,0,0.3-0.1
			c0.2-0.1,0.2-0.3,0.2-0.5c0-0.1,0-0.4,0-0.5c0.1,0,0.5-0.2,0.7-0.2c0,0.2,0,0.3-0.1,0.5c0,0.2-0.1,0.4-0.2,0.6
			c-0.1,0.4-0.3,0.6-0.5,0.9c-0.2,0.4-0.4,0.6-0.7,1c-0.1,0.2-0.2,0.2-0.4,0.4c-0.2,0.2-0.2,0.4-0.4,0.6c-0.2,0.3-0.3,0.5-0.6,0.7
			c-0.4,0.4-0.7,0.1-1.3,0.5l-0.1,0.7l0.9,0.3l0.8,0.2l0.3-0.2c0-0.2,0-0.3,0.1-0.5c0.1-0.2,0.3-0.2,0.5-0.3c0.2,0,0.5,0,0.7-0.1
			c0.2-0.2,0.2-0.6,0.4-0.9c0.6-1.1,1-1.7,1.9-2.5c0.4-0.4,0.7-0.5,1.1-0.9c0.2-0.2,0.3-0.3,0.3-0.6c0-0.2-0.1-0.3-0.1-0.4
			c-0.1-0.2-0.1-0.6-0.1-0.6c1,0.5,0.6,0.4,0.8,0.9c0.1,0.4,0,0.7,0,1.1c0.1,0.5,0.3,0.7,0.3,1.2c0.1,0.6-0.1,0.9-0.2,1.5
			c-0.1,0.5-0.1,0.8-0.3,1.3c-0.2,0.4-0.4,0.7-0.7,1c-0.1,0.1-0.2,0.2-0.4,0.3l-0.1,0.7l0.7,0.2l1,0.3l0.2-0.2c0.1-0.4,0-1,0.3-1.1
			c0.3,0,0.4,0,0.5-0.2c0-0.1,0-0.2,0.1-0.4c0.1-1.2,0.3-2.3,0.4-2.9c0.1-0.6,0.1-0.8,0.3-1.2c0.1-0.4-0.1-0.2,0.3-1.1
			c0.5-1.4-0.1-1.5-0.7-2.4c-0.3-0.4-0.4-0.6-0.4-1c-0.1-0.5,0.1-1,0.1-1.8c0-0.9,0-1.4,0-1.9c0.1,0,0.1-0.1,0.2-0.1
			c0.8-0.4,1.1-0.5,1.5-1.6c0.1-0.3,0.2-0.6,0.2-0.9c0-0.2,0-0.4-0.1-0.7c0-0.3-0.1-0.4-0.2-0.6c-0.1-0.2-0.2-0.4-0.4-0.5
			c-0.5-0.6-1.1-0.7-1.8-0.9c-1-0.3-1.6-0.3-2.7-0.4c-1.1-0.1-1.7-0.1-2.8,0c-1.3,0.1-2,0.3-3.3,0.5c-1.2,0.1-1.9,0.2-3.2,0.3
			c-1.5,0-2.8-0.3-3.7-0.2c-1.6,0.1-1.6,0.5-4,0.7c-1.2,0.1-2.5,0.1-2.5,0.1l-1.4-0.4c0.6-0.2,0.7-0.3,0.9-0.7
			c0.2-0.2,0.2-0.4,0.4-0.7c0.2-0.2,0.3-0.4,0.5-0.6c-0.2-0.2-0.4-0.2-0.6-0.3c-0.2,0-0.4,0-0.6,0c-0.3,0-0.5,0.1-0.8,0.2
			c-0.2,0.1-0.4,0.2-0.5,0.4c0,0-0.8-0.5-1.4-0.8C417.5,263.9,417.1,263.7,416.2,263.6L416.2,263.6z M417.5,271.2
			C417.5,271.2,417.5,271.2,417.5,271.2C417.5,271.3,417.5,271.3,417.5,271.2L417.5,271.2L417.5,271.2z"/>
	</g>
	<path id="path2682" class="st16" d="M327.9,287.9c0-1.4,1.1-2.5,2.5-2.5c1.4,0,2.5,1.1,2.5,2.5c0,1.4-1.1,2.5-2.5,2.5
		C329,290.5,327.9,289.3,327.9,287.9z"/>
	<path id="path2684" class="st17" d="M328,283.4l-2.1,0.8l-2.1,1.6l-0.9,1.3l-1.2,2l-0.5,1.5l-0.4,1.9l-0.2,1.4"/>
	<path id="path2686" class="st8" d="M340.1,282.7c0.4,3.2-0.9,6.3-2.3,7.8c-0.9,0.9-2.7,2.6-5,2.7c-3.8,0.1-4.9-2.6-5.2-3.2"/>
	<path id="path2688" class="st17" d="M339.8,283.6l-0.2,1.8l-0.3,1.3l-0.9,2.2l-1.4,1.9l-1.5,1.2l-1.1,0.6l-1.6,0.4"/>
	<path id="path2690" class="st8" d="M335.6,281.1c0.7,0.7,1.3,1.5,1.9,2.6c1,1.8,0.7,4.8-0.1,6.2c-0.1,0.2-0.2,0.3-0.3,0.5"/>
	<path id="path2692" class="st8" d="M316.7,308.5c2.3,2.4,5.7,5,10.9,7.1c7.2,3,18.2,3.6,25.8,3.9c10.1,0.4,19.4,0.8,25.1,7.1"/>
	<path id="path2694" class="st8" d="M396.1,322.5c1.7,1.6,3.4,3.4,4.1,5.7"/>
	<path id="path2696" class="st18" d="M400.1,331.7c-0.4,1.7-1.9,3.6-5.3,4.3c0,0-0.4,0.1-0.7,0.1"/>
	<path id="path2698" class="st7" d="M394.8,335.2c-0.4,1.5-1.1,3-2.2,4.2"/>
	<path id="path2700" class="st7" d="M377.6,316.9c0.8,0.3,0.2-0.2,5.3,2.1c4.9,2.2,8.3,4.1,11.4,8.8c1,1.5,1.2,3.7,1.2,4.9
		c0,0.8-0.1,1.6-0.3,2.5"/>
	<path id="path2702" class="st8" d="M392.8,339.7c-0.2,0.2-0.5,0.5-0.7,0.7c-2.1,1.8-4.2,2.3-6.7,2.1c-1.9-0.2-3.8-1.6-4.3-2.6"/>
	<path id="path2704" class="st8" d="M395.1,333.1l-0.5,2.2"/>
	<path id="path2706" class="st8" d="M392.3,339.5l-1,1l-1.7,1l-2,0.6"/>
	<path id="path2708" class="st8" d="M407.9,339.4c-1.3,2-4.4,5-7.7,6.2c-3.3-1.2-6.4-4.2-7.7-6.2"/>
	<path id="path2710" class="st19" d="M408.1,339.7c-1.3,2-4.4,5-7.7,6.2c-3.3-1.2-6.4-4.2-7.7-6.2c-0.1-0.2-0.2-0.3-0.3-0.5"/>
	<path id="path2712" class="st8" d="M386.7,342.1l1.8-0.2"/>
	<path id="path2714" class="st8" d="M375.7,336.9c0.1,0.1,0.2,0.3,0.3,0.4c1.2,1.4,3.1,2.3,5.1,2.5"/>
	<path id="path2716" class="st8" d="M377.9,338.7c1,0.5,2.1,0.8,3.3,0.8c4.3,0.2,7.6-3.8,7.6-7.9c0-2.8-1.5-5.2-3.7-7.1"/>
	<path id="path2718" class="st7" d="M378.8,331c-1,2.3,0.4,3.5,1.9,3.7c2.2,0.3,3.4-1.5,3.5-3c0.2-1.7-0.7-3.3-2.1-4.2"/>
	<path id="path2722" class="st8" d="M408.1,339.7c-1.3,2-4.4,5-7.7,6.2c-3.3-1.2-6.4-4.2-7.7-6.2c-0.1-0.2-0.2-0.3-0.3-0.5"/>
	<path id="path2730" class="st8" d="M408.2,339.7c0.2,0.3,0.5,0.5,0.7,0.7c2.1,1.8,4.2,2.3,6.7,2.1c1.9-0.2,3.5-1.5,4.1-2.6
		c0,0,0.3-0.4,0.4-0.7"/>
	<path id="path2732" class="st8" d="M419.5,339.2l-0.7,1.2l-1.1,0.9l-1.7,0.7l-1.6,0.1"/>
	<path id="path2734" class="st8" d="M423.6,327.8c0.9,0.7,1.8,1.8,2.3,2.9c0.3,0.7,0.5,1.5,0.5,2.4c0.1,1.6-0.5,3.1-1.4,4.2
		c-1.3,1.5-3.3,2.4-5.4,2.5c-0.2,0-0.3,0-0.5,0"/>
	<path id="path2736" class="st8" d="M419.3,339.5L419.3,339.5c-2,0.1-3.9-0.8-5.2-2.2"/>
	<path id="path2738" class="st8" d="M419,339.5l1.8-0.2l1.7-0.7l1.2-0.7l1.6-1.9l0.3-0.7l0.3-1.7l0.1-0.8"/>
	<path id="path2742" class="st20" d="M485.1,278.4c2.2,2,3.7,4.4,4.8,7.8c0.5,1.4,0.9,3.5,0.8,5.8c-0.1,3.6-1,7.6-2,9.5
		c-0.9,1.7-3.1,9-15.4,14.1c-7.2,3-18.2,3.6-25.8,3.9c-10.3,0.4-19.9,0.8-25.5,7.4"/>
	<path id="path2744" class="st8" d="M421.7,326.7l1.8-1.7l1.3-1l2.4-1.5l2.2-1.1l1.6-0.4l3.1-0.7l3.6-0.6"/>
	<path id="path2746" class="st21" d="M468.3,285.1c0.8-1,3.6-2.4,5.8-1.1c0.7,0.4,1.6,0.9,2.4,2.1"/>
	<path id="path2748" class="st22" d="M344.4,296.4c0.5-0.6,0.9-0.4,1-0.6c0.1-0.2-0.1-0.2-0.3-0.3c-0.3-0.1-0.6-0.2-0.9-0.3
		c-0.3-0.1-0.6-0.3-0.9-0.4c-0.1,0-0.4-0.2-0.5,0c-0.1,0.4,1,0.4,0.6,1.4c-0.1,0.2-0.2,0.6-0.8,1.2l-2.7,2.9
		c-0.1,0.1-0.2,0.2-0.2,0.2c-0.1,0-0.1-0.2-0.1-0.3l0-4.1c0-0.8,0.1-1.4,0.2-1.7c0.2-0.5,0.7-0.1,0.8-0.4c0.1-0.2,0-0.2-0.3-0.3
		c-0.2-0.1-0.5-0.1-1.1-0.4c-0.3-0.1-0.7-0.3-1-0.4c-0.2-0.1-0.4-0.3-0.5,0c0,0.1,0.1,0.2,0.1,0.2c0.4,0.3,0.5,0.4,0.5,0.9l0.1,7.5
		c0,0.5,0.1,0.7,0.2,0.7c0.1,0,0.2,0,0.4-0.3L344.4,296.4L344.4,296.4z"/>
	<path id="path2750" class="st22" d="M347.5,297.5c0.3-1.1,1-0.4,1.1-0.8c0-0.1,0-0.2-0.3-0.3c-0.6-0.2-1-0.3-1.3-0.4
		c-0.4-0.1-0.7-0.3-1.2-0.4c-0.1,0-0.3-0.1-0.4,0c-0.1,0.4,1.1,0.4,0.8,1.5l-1.7,5.5c-0.3,1.1-1,0.6-1.1,1c0,0.1,0,0.1,0.1,0.2
		c0.3,0.1,0.7,0.2,1.2,0.3c0.8,0.3,1.2,0.4,1.6,0.5c0.2,0.1,0.3,0.1,0.4-0.1c0.1-0.4-1.2-0.2-0.8-1.6L347.5,297.5L347.5,297.5z"/>
	<path id="path2752" class="st22" d="M351.3,298.6c0.2-0.7,0.5-0.6,0.9-0.5c1,0.3,1.4,1.3,1,2.5c-0.2,0.7-0.5,1.3-2,0.8
		c-0.3-0.1-0.7-0.2-0.6-0.5L351.3,298.6L351.3,298.6z M348.4,303.6c-0.4,1.5-1.2,0.8-1.3,1.2c-0.1,0.2,0.2,0.3,0.3,0.3
		c0.5,0.2,1.1,0.3,1.6,0.4c0.4,0.1,0.7,0.3,0.9,0.3c0.2,0.1,0.3,0,0.4-0.1c0.1-0.4-1-0.2-0.7-1.5l0.6-2c0.1-0.4,0.1-0.5,0.6-0.3
		c0.5,0.2,0.7,0.3,0.8,0.9l0.3,2.1c0.1,0.8,0.2,1.6,1.1,1.8c0.4,0.1,1.2,0.1,1.3-0.3c0-0.1,0-0.2-0.1-0.2c-0.1,0-0.2,0-0.3,0
		c-0.1,0-0.3-0.1-0.3-0.3c-0.3-1.7-0.7-3.6-0.7-3.7c0-0.1,0.4-0.1,0.7-0.3c0.4-0.2,0.8-0.5,1-1.3c0.2-0.5,0.4-2.2-1.8-2.9
		c-0.7-0.2-1.4-0.4-2.1-0.6c-0.7-0.2-0.7-0.3-1.2-0.4c-0.1,0-0.2,0-0.3,0.1c-0.1,0.4,1.1,0.3,0.8,1.6L348.4,303.6L348.4,303.6z"/>
	<path id="path2754" class="st22" d="M356.9,306.1c-0.3,1.4-1.4,0.5-1.5,1c-0.1,0.3,0.1,0.3,0.3,0.3c0.4,0.1,0.8,0.1,1.5,0.3
		c0.7,0.2,1,0.3,1.5,0.4c0.3,0.1,0.5,0.2,0.6-0.1c0.1-0.3-1.3-0.3-1-1.7l1.3-5.3c0.1-0.6,0.3-0.6,0.7-0.5l0.9,0.2
		c1.2,0.2,0.6,1.5,1,1.6c0.3,0.1,0.3-0.4,0.3-0.6l0.1-1.1c0-0.1,0.1-0.3-0.1-0.3c-1-0.2-1.7-0.4-3.2-0.7c-1.5-0.4-2.2-0.6-3.2-0.8
		c-0.2,0-0.2,0.1-0.2,0.2l-0.5,1.5c-0.1,0.1-0.2,0.4,0,0.4c0.5,0.1,0.5-1.5,1.7-1.2l0.9,0.2c0.4,0.1,0.5,0.2,0.4,0.7L356.9,306.1
		L356.9,306.1z"/>
	<path id="path2756" class="st22" d="M369.7,302.8c0.4-0.6,0.8-0.5,0.9-0.8c0-0.2-0.1-0.2-0.3-0.2c-0.3-0.1-0.6-0.1-0.9-0.1
		c-0.3-0.1-0.6-0.2-0.9-0.2c-0.1,0-0.4-0.1-0.5,0.1c-0.1,0.4,1.1,0.2,0.9,1.3c0,0.2-0.1,0.6-0.6,1.3l-2.1,3.3c0,0.1-0.1,0.2-0.2,0.2
		c-0.1,0-0.1-0.2-0.1-0.3l-0.7-4.1c-0.1-0.8-0.2-1.4-0.1-1.7c0.1-0.5,0.7-0.2,0.8-0.5c0-0.2,0-0.2-0.4-0.3c-0.2,0-0.5,0-1.2-0.2
		c-0.4-0.1-0.7-0.2-1.1-0.2c-0.2,0-0.5-0.2-0.5,0.1c0,0.1,0.1,0.2,0.1,0.2c0.4,0.2,0.5,0.4,0.6,0.9l1.4,7.4c0.1,0.5,0.2,0.7,0.3,0.7
		c0.1,0,0.2,0,0.4-0.3L369.7,302.8L369.7,302.8z"/>
	<path id="path2758" class="st22" d="M370.3,309.6c0,0.3,0,0.4,0.2,0.5c0.6,0.3,1.1,0.6,1.7,0.7c1.4,0.2,2.6-0.7,2.8-2.2
		c0.3-1.5-0.4-2.1-1.4-2.9c-1.3-0.9-1.9-1.2-1.7-2c0.1-0.8,0.7-1.2,1.4-1c1.8,0.3,1.6,2.5,1.9,2.6c0.2,0,0.3-0.1,0.3-0.4l0.1-1.6
		c0-0.3,0.1-0.4-0.1-0.5c-0.1,0-0.4,0.1-0.6,0.1c-0.3-0.1-0.7-0.6-1.6-0.7c-1.2-0.2-2.3,0.6-2.5,2c-0.2,1.2,0.3,1.8,1.2,2.4
		c1.6,1.1,2.2,1.4,2.1,2.4c-0.2,0.9-0.9,1.4-1.7,1.3c-1.2-0.2-1.7-1.4-1.8-2.6c0-0.2,0-0.3-0.2-0.3c-0.3,0-0.2,0.3-0.2,0.5
		L370.3,309.6L370.3,309.6z"/>
	<path id="path2760" class="st22" d="M386.2,305.1c0.3-0.7,0.8-0.6,0.8-0.9c0-0.2-0.1-0.2-0.4-0.2c-0.3,0-0.6,0-0.9,0
		c-0.3,0-0.6-0.1-0.9-0.1c-0.1,0-0.4-0.1-0.5,0.2c0,0.4,1.1,0.1,1,1.2c0,0.2-0.1,0.6-0.5,1.4l-1.8,3.5c0,0.1-0.1,0.2-0.2,0.2
		c-0.1,0-0.1-0.2-0.1-0.3l-1.1-4c-0.2-0.8-0.3-1.3-0.3-1.7c0-0.5,0.7-0.3,0.7-0.6c0-0.2,0-0.2-0.4-0.2c-0.2,0-0.5,0-1.2,0
		c-0.4,0-0.7-0.1-1.1-0.1c-0.2,0-0.5-0.1-0.5,0.2c0,0.1,0.1,0.2,0.2,0.2c0.4,0.2,0.6,0.3,0.7,0.8l2.1,7.2c0.2,0.5,0.3,0.6,0.4,0.7
		c0.1,0,0.2-0.1,0.3-0.4L386.2,305.1L386.2,305.1z"/>
	<path id="path2762" class="st22" d="M387.9,310.9c0,1.2-1,1-1.1,1.5c0,0.2,0.2,0.1,0.3,0.1c0.3,0,0.6,0,0.9,0
		c0.4,0,0.7,0.1,1.3,0.1c0.1,0,0.4,0,0.4-0.2c0-0.6-1.4,0.2-1.4-2.1l0-4.1c0-0.1,0-0.2,0.1-0.2c0.1,0,0.1,0.1,0.2,0.2l5.1,6.3
		c0.1,0.1,0.1,0.2,0.3,0.2c0.1,0,0.1-0.1,0.1-0.4l0.1-6.7c0-1.3,0.9-1,0.9-1.3c0,0,0-0.2-0.2-0.2c-0.1,0-0.5,0-1.2,0
		c-0.7,0-1.1-0.1-1.2-0.1c-0.1,0-0.2,0.1-0.2,0.2c0,0.4,1.3,0.2,1.3,1.3l0,4c0,0.3,0,0.4-0.1,0.4c-0.1,0-0.2-0.1-0.3-0.3l-4.3-5.3
		c-0.2-0.2-0.1-0.3-0.4-0.3c-0.6,0-0.9,0-1.1,0c-0.2,0-0.4-0.1-0.6-0.1c-0.1,0-0.2,0.1-0.2,0.2c0,0.6,1.2-0.2,1.2,2.1L387.9,310.9
		L387.9,310.9z"/>
	<path id="path2764" class="st22" d="M398.4,305.5c0-1.1,0.8-0.7,0.8-1.1c0-0.1-0.1-0.2-0.4-0.2c-0.6,0-1,0-1.4,0
		c-0.4,0-0.8-0.1-1.2-0.1c-0.1,0-0.4,0-0.4,0.2c0,0.4,1.2,0.1,1.2,1.2l0,5.8c0,1.1-0.8,0.8-0.8,1.2c0,0.1,0,0.1,0.1,0.1
		c0.3,0,0.7,0,1.2,0c0.8,0,1.2,0.1,1.6,0.1c0.2,0,0.3,0,0.3-0.2c0-0.4-1.2,0.2-1.2-1.3L398.4,305.5L398.4,305.5z"/>
	<path id="path2766" class="st22" d="M402.9,311.1c0,1.4-1.2,0.9-1.2,1.3c0,0.3,0.2,0.3,0.4,0.2c0.4,0,0.8-0.1,1.5-0.1
		c0.7,0,1.1,0,1.5,0c0.3,0,0.5,0,0.5-0.3c0-0.3-1.4,0-1.4-1.5l0-5.4c0-0.6,0.1-0.6,0.5-0.6l0.9,0c1.2-0.1,0.9,1.3,1.3,1.3
		c0.3,0,0.2-0.5,0.1-0.6l-0.1-1.1c0-0.1,0-0.3-0.2-0.3c-1,0-1.7,0.1-3.3,0.1c-1.6,0-2.3,0-3.3,0c-0.2,0-0.2,0.2-0.2,0.3l-0.2,1.6
		c0,0.2-0.1,0.4,0.1,0.4c0.5,0,0.1-1.6,1.4-1.6l0.9,0c0.4,0,0.6,0.1,0.6,0.6L402.9,311.1L402.9,311.1z"/>
	<path id="path2768" class="st22" d="M409.2,308.8c-0.2,0-0.3,0-0.4-0.1c0-0.2,0-0.3,0.1-0.5l0.7-2.2c0-0.1,0.1-0.2,0.1-0.2
		c0.1,0,0,0,0.1,0.1l1.1,2.1c0.1,0.1,0.1,0.3,0.2,0.4c0,0.1-0.1,0.1-0.3,0.1L409.2,308.8L409.2,308.8z M411,309.3
		c0.3,0,0.3,0.1,0.8,1c0.1,0.3,0.2,0.5,0.3,0.8c0.1,0.7-0.7,0.7-0.7,1c0,0.2,0.2,0.1,0.3,0.1c0.3,0,0.7-0.1,1.2-0.1
		c0.7-0.1,1,0,1.4-0.1c0.3,0,0.4,0,0.4-0.2c0-0.4-0.6,0.1-1-0.7l-3.5-7.1c-0.2-0.3-0.2-0.4-0.3-0.4c-0.1,0-0.2,0.2-0.2,0.4l-2.4,7.5
		c-0.2,0.7-0.8,0.7-0.8,0.9c0,0.2,0.2,0.1,0.3,0.1c0.3,0,0.6-0.1,0.9-0.1c0.3,0,0.7,0,1,0c0.2,0,0.6,0,0.5-0.2c0-0.3-1.2,0-1.2-0.9
		c0-0.3,0.1-0.7,0.2-1c0.2-0.8,0.4-0.9,0.6-0.9L411,309.3L411,309.3z"/>
	<path id="path2770" class="st22" d="M419.4,304.3c-0.1-0.8-0.1-0.8,1.2-1c2.1-0.3,1.4,1.2,1.9,1.2c0.2,0,0.1-0.4,0.1-0.6l-0.2-1.2
		c0-0.1-0.1-0.2-0.2-0.2c-0.9,0.1-1.7,0.3-2.4,0.4c-1.6,0.2-2.4,0.3-2.9,0.3c-0.2,0-0.2,0.1-0.2,0.2c0.1,0.5,1.2-0.1,1.4,1l0.7,5.6
		c0.2,1.5-0.7,0.9-0.6,1.5c0,0.1,0.1,0.1,0.2,0.1c0.6-0.1,1-0.2,1.4-0.2c0.5-0.1,0.9-0.1,1.3-0.1c0.3,0,0.5,0,0.5-0.3
		c0-0.3-1.2,0.1-1.4-1.2l-0.2-1.8c-0.1-0.7-0.2-0.8,0.3-0.9l0.8-0.1c1.1-0.1,1,1.2,1.3,1.1c0.3,0,0.1-0.5,0.1-0.6l-0.4-2.1
		c-0.1-0.3-0.2-0.3-0.2-0.3c-0.2,0-0.1,1.1-1,1.2l-0.7,0.1c-0.5,0.1-0.5,0-0.5-0.5L419.4,304.3L419.4,304.3z"/>
	<path id="path2772" class="st22" d="M423.4,307.1c0.4,2.4,2.2,3.7,4.3,3.3c3.4-0.6,3.5-3.6,3.2-5.3c-0.5-2.5-2.3-3.7-4.4-3.3
		C423.9,302.3,422.9,304.5,423.4,307.1L423.4,307.1z M424.5,306.2c-0.3-1.7-0.1-3.4,1.7-3.8c1.4-0.3,2.9,0.9,3.4,3.5
		c0.4,2,0.1,3.7-1.8,4C426,310.2,424.9,307.9,424.5,306.2L424.5,306.2z"/>
	<path id="path2774" class="st22" d="M432.9,302c-0.2-0.7,0.2-0.8,0.5-0.9c1.1-0.3,1.9,0.5,2.1,1.6c0.2,0.7,0.3,1.4-1.3,1.7
		c-0.3,0.1-0.7,0.2-0.8-0.1L432.9,302L432.9,302z M432.9,307.7c0.4,1.5-0.6,1.3-0.5,1.7c0.1,0.2,0.3,0.1,0.4,0.1
		c0.5-0.1,1-0.3,1.6-0.4c0.4-0.1,0.7-0.1,0.9-0.2c0.2-0.1,0.3-0.1,0.3-0.3c-0.1-0.4-1,0.3-1.3-0.9l-0.5-2c-0.1-0.4-0.2-0.5,0.4-0.6
		c0.5-0.1,0.7-0.1,1.1,0.4l1.3,1.6c0.5,0.6,1,1.3,1.8,1.1c0.4-0.1,1.1-0.5,1-0.9c0-0.1-0.1-0.1-0.2-0.1c-0.1,0-0.2,0.1-0.3,0.1
		c-0.1,0-0.3,0.1-0.4-0.1c-1.1-1.3-2.4-2.8-2.4-2.8c0-0.1,0.3-0.3,0.5-0.6c0.2-0.4,0.4-0.9,0.3-1.6c-0.1-0.5-0.7-2.1-3-1.6
		c-0.7,0.2-1.4,0.4-2.1,0.6c-0.7,0.2-0.8,0.1-1.2,0.2c-0.1,0-0.2,0.1-0.2,0.2c0.1,0.4,1.1-0.3,1.5,1L432.9,307.7L432.9,307.7z"/>
	<path id="path2776" class="st22" d="M441.6,305.8c0.4,1.4-1,1.1-0.9,1.6c0.1,0.3,0.2,0.2,0.4,0.1c0.4-0.1,0.8-0.2,1.5-0.4
		c0.7-0.2,1.1-0.2,1.5-0.3c0.3-0.1,0.5-0.1,0.4-0.4c-0.1-0.3-1.3,0.4-1.7-1.1l-1.4-5.3c-0.1-0.6-0.1-0.6,0.4-0.8l0.9-0.2
		c1.2-0.4,1.2,1,1.6,0.9c0.3-0.1,0-0.5,0-0.6l-0.4-1c0-0.1-0.1-0.3-0.2-0.2c-1,0.3-1.7,0.5-3.2,0.9c-1.5,0.4-2.2,0.5-3.2,0.8
		c-0.2,0-0.1,0.2-0.1,0.3l0.2,1.6c0,0.2,0,0.4,0.2,0.4c0.5-0.1-0.2-1.6,0.9-1.9l0.9-0.2c0.4-0.1,0.5-0.1,0.7,0.5L441.6,305.8
		L441.6,305.8z"/>
	<path id="path2778" class="st22" d="M447.1,298.4c-0.3-1.1,0.6-0.9,0.5-1.3c0-0.1-0.1-0.1-0.4-0.1c-0.6,0.2-1,0.3-1.3,0.4
		c-0.4,0.1-0.8,0.2-1.2,0.3c-0.1,0-0.4,0.1-0.3,0.3c0.1,0.4,1.2-0.2,1.5,0.8l1.5,5.6c0.3,1.1-0.5,1-0.4,1.4c0,0.1,0.1,0.1,0.2,0.1
		c0.3-0.1,0.7-0.2,1.2-0.4c0.8-0.2,1.2-0.3,1.6-0.4c0.2-0.1,0.3-0.1,0.3-0.3c-0.1-0.4-1.1,0.5-1.5-0.9L447.1,298.4L447.1,298.4z"/>
	<path id="path2780" class="st22" d="M449.5,301.1c0.8,2.3,2.7,3.4,4.7,2.7c3.3-1.1,3-4.1,2.4-5.7c-0.8-2.4-2.8-3.4-4.8-2.7
		C449.4,296.2,448.6,298.6,449.5,301.1z M450.5,300c-0.6-1.7-0.6-3.4,1.2-4c1.3-0.5,3,0.4,3.9,3c0.6,1.9,0.6,3.6-1.2,4.2
		C452.5,303.8,451.1,301.7,450.5,300L450.5,300z"/>
	<path id="path2782" class="st22" d="M458.2,294.5c-0.3-0.7,0-0.8,0.4-0.9c1-0.4,1.9,0.2,2.3,1.3c0.3,0.7,0.4,1.3-1.1,1.9
		c-0.3,0.1-0.7,0.3-0.8,0L458.2,294.5L458.2,294.5z M459,300.2c0.6,1.4-0.4,1.4-0.3,1.7c0.1,0.2,0.3,0.1,0.4,0.1
		c0.5-0.2,1-0.4,1.5-0.7c0.4-0.2,0.7-0.2,0.9-0.3c0.2-0.1,0.3-0.2,0.2-0.3c-0.2-0.4-1,0.4-1.4-0.7l-0.8-1.9
		c-0.2-0.4-0.2-0.4,0.3-0.7c0.5-0.2,0.7-0.2,1.1,0.2l1.5,1.4c0.6,0.5,1.2,1.1,2,0.8c0.4-0.2,1-0.7,0.8-1c0-0.1-0.1-0.1-0.2-0.1
		c-0.1,0-0.2,0.1-0.3,0.2c-0.1,0-0.3,0.1-0.4,0c-1.3-1.1-2.8-2.4-2.8-2.5c0-0.1,0.2-0.3,0.4-0.7c0.2-0.4,0.3-0.9,0-1.6
		c-0.2-0.5-1-2-3.2-1.1c-0.7,0.3-1.3,0.6-2,0.8c-0.6,0.2-0.7,0.2-1.2,0.4c-0.1,0-0.2,0.1-0.2,0.3c0.2,0.4,1.1-0.4,1.6,0.8L459,300.2
		L459,300.2z"/>
	<path id="path2784" class="st8" d="M478.1,269c-1.6-1.5-3.2-3.5-4.8-6.5c-0.8-1.6-1.4-3.1-1.7-4.5c-0.3-1.1-0.5-2.2-0.5-3.4
		c-0.1-1.9,0.1-3.9,0.6-6.3c0.8-3.8,2.2-6.8,4.1-9.1c0.6-0.8,1.4-1.8,2.1-2.2"/>
	<path id="path2786" class="st8" d="M480.6,263.4c-0.4-0.4-0.9-0.7-1.3-1.1c-2.5-2.6-4.3-6.4-4.3-10.7c0-4.2,1.7-8.4,3.6-10.1"/>
	<path id="path2788" class="st23" d="M474.7,250.5l0.1-1.6l0.5-2.6l0.8-2l0.9-1.6l1.1-1.3"/>
	<path id="path2790" class="st20" d="M482.5,276c0.5,0.2,1,0.4,1.4,0.5c1.4,0.4,2.8,0.4,4,0.1c2.8-0.9,4.7-3.5,3.2-7
		c-0.3-0.8-1-1.6-1.7-2.1"/>
	<path id="path2792" class="st8" d="M489.9,268.1c0-0.2,0.1-0.5,0.1-0.7c0-1.2-0.5-2.2-1.3-3c-0.3-0.2-0.5-0.6-0.9-0.8"/>
	<path id="path2794" class="st8" d="M488.3,264.1c0-1.9-1.6-3.2-3.5-3.6"/>
	<path id="path2796" class="st8" d="M478.7,241.6c1,1.3,2.9,1.7,4.4,1.3c1.1-0.3,2-1,2.5-2c0.6-1.1,0.8-2.4,0.4-3.8
		c-0.2-0.6-0.4-1.1-0.9-1.7c-0.4-0.6-1-1.2-1.4-1.4c-0.1-0.1-0.2-0.2-0.3-0.2"/>
	<path id="path2798" class="st23" d="M485.9,237.9l-0.1,1.6l-0.5,1.1l-0.7,1l-0.8,0.6l-1.2,0.5l-1.1,0.1l-0.8-0.1"/>
	<path id="path2802" class="st7" d="M483.6,272.4c0.1,0.1,0.4,0.1,0.5,0.2c1.4,0.9,4.2-0.2,3.4-2.4"/>
	<path id="path2810" class="st8" d="M476.5,160.7c2.6,0.2,4.9,2.9,4.9,5.6c0,3.9-1.4,5.5-4.4,9.4c-2.7,3.3-10.6,9.1-10.4,14.7
		c0,1,0.6,2,1.2,2.8"/>
	<path id="path2814" class="st23" d="M466.3,189.5l0.4-1.7l0.8-1.6l1-1.6l1.7-2.2l1.3-1.5l2.2-2.2l1.9-1.9l1.2-1.4l1.6-1.9l1.4-2.1
		l0.8-1.7l0.5-2.2l0.1-2.7l-0.3-0.8"/>
	<path id="path2816" class="st8" d="M473.3,195.2c0.8-2.7-0.2-5.5-2.7-5.4"/>
	<path id="path2818" class="st8" d="M464.5,196.7c0.6,0.6,1.2,1,2.1,1.4c1.5,0.7,3.1,0.3,4.3-0.3"/>
	<path id="path2820" class="st8" d="M470.9,156.3c3.2,0,6.1,3.6,6.1,7.3c0,4.3-2.3,6.9-3.9,8.8c-1.3,1.6-2.8,3-4.5,4.7"/>
	<path id="path2822" class="st7" d="M467.1,152.9c1.1,0.5,2.1,1.4,2.8,2.5c1.4,2,1.7,3.7,1.6,6.2c-0.2,4.3-3.2,7.2-6,9"/>
	<path id="path2826" class="st7" d="M460.7,152.9c0.2,0.2,0.4,0.4,0.6,0.7c1.9,2.2,2,5.5,1.6,7.3c-0.7,2.7-1.6,3.9-3.8,5.5"/>
	<path id="path2830" class="st7" d="M454.1,151.7c2.7,2,3.4,5.5,2.6,9c-0.6,2.5-2.2,4.1-4.2,5.3"/>
	<path id="path2834" class="st8" d="M449.6,154.4c0.9,0.6,1.7,1.5,2.2,2.6c1.9,4.5-2.2,7.9-6,10.5c-2.7,1.8-5.6,2.8-8.4,3.3"/>
	<path id="path2836" class="st8" d="M445.3,163.1c-0.9,0-2-0.3-3.2-1.5c-0.3-0.3-0.6-0.7-0.7-1"/>
	<path id="path2838" class="st8" d="M426.4,165.5c-0.5-0.2-1-0.6-1.3-1c-0.9-1-1.5-2.4-0.8-4.4c0.6-1.9,3.7-7.3,3.9-11
		c0.2-5.7-1.9-9-5.4-10.3"/>
	<path id="path2840" class="st7" d="M427.9,147.9l-0.1,2.1l-0.6,2.2l-1.1,3l-0.8,1.9l-0.9,1.9l-0.4,1.3l-0.2,1l0.1,0.9"/>
	<path id="path2842" class="st7" d="M463.6,207.4c0.3,0.9,0.8,1.3,1.5,1.9c1.4,1.5,3.5,2.8,6.2,3.5c2.5,0.7,4.7,0.2,6.4-0.9"/>
	<path id="path2862" class="st7" d="M462.1,289.3c0.2,0.4,0.6,0.8,0.6,0.8c0.7,1.1,3.2,3,5.5,3c3.8,0.1,4.7-2.6,4.8-3.2
		c0.5-2.9-0.5-3.7-2-4.5c0,0-0.9-0.5-1.9-0.3"/>
	<path id="path2864" class="st23" d="M468.3,293.2l1.6-0.3l1.2-0.7l0.7-0.7l0.5-0.8l0.3-1.3l0-0.9"/>
	<path id="path2866" class="st8" d="M316.8,276.6c-1.3,0.3-2.6,0.4-3.7,0c-2.8-0.9-5.2-3.6-4-7"/>
	<path id="path2868" class="st23" d="M313.4,276.4l1.2,0.1l1.6-0.1l1.6-0.6"/>
	<path id="path2870" class="st7" d="M313.6,266.4c1.2,0,2.5,0.8,3.3,2.2c0.2,0.3,0.4,0.9,0.4,1.6c0,0.9-0.4,1.8-1,2.2
		c-1.4,0.9-4,0.5-3.9-2"/>
	<path id="path2872" class="st16" d="M312.4,270.2c0-1.2,0.8-2.3,1.8-2.3c1,0,1.8,1,1.8,2.3c0,1.2-0.8,2.3-1.8,2.3
		C313.2,272.4,312.4,271.4,312.4,270.2z"/>
	<path id="path2874" class="st8" d="M321.4,233.2c5,0.9,9.7,6.9,11.3,13.4c0.5,2.3,1.3,7.3,0.3,12.1c-1.1,5.1-3.3,8.6-5.9,11.3
		c-0.6,0.6-1.3,1.2-2.1,1.8l-1.1,0.7"/>
	<path id="path2876" class="st8" d="M322.6,237.6c0.3,0.3,0.4,0.7,0.4,1.1c0.4,3.7-2.8,4.8-5.1,4.2c-1.1-0.3-2.5-1.4-3-2.3
		c-0.4-0.7-0.6-1.5-0.6-2.3"/>
	<path id="path2878" class="st23" d="M322.7,239l-0.2,1.4l-0.3,0.6l-0.5,0.6l-0.7,0.5l-0.7,0.3l-1,0.2l-0.7,0.1"/>
	<path id="path2880" class="st4" d="M319.2,235.9c-0.4,0.2-0.6,0.3-0.9,0.6c-0.3,0.3-0.3,0.4-0.5,0.8c-0.2,0.3-0.2,0.7-0.2,1.2"/>
	<path id="path2882" class="st8" d="M315.9,260.5c2,0,3.8,2,3.8,4c0,1-0.4,2-1,2.6"/>
	<path id="path2884" class="st8" d="M314.5,262.8c2.1,0,4.1,2,4.1,4.2c0,1.2-0.6,2.4-1.5,3.1"/>
	<path id="path2886" class="st4" d="M322.3,265.4c0.3-0.4,0.6-0.7,0.9-1.1c0.3-0.4,0.4-0.6,0.7-0.9c0.2-0.3,0.3-0.6,0.5-0.9
		c0.3-0.5,0.4-0.8,0.7-1.3"/>
	<path id="path2888" class="st4" d="M323.8,275.2c-0.6,0.3-0.9,0.4-1.5,0.7c-0.4,0.2-0.7,0.4-1.1,0.6c-0.5,0.3-0.8,0.5-1.3,0.8
		c-0.5,0.4-0.7,0.6-1.2,1"/>
	<path id="path2890" class="st4" d="M333.8,240.2c-0.3-0.3-0.5-0.5-0.8-0.9c-0.3-0.3-0.5-0.5-0.9-0.9c-0.4-0.3-0.6-0.4-1-0.7"/>
	<path id="path2892" class="st7" d="M333.9,241.5c1.9,2.6,3.2,4.9,3.8,7.8"/>
	<path id="path2894" class="st7" d="M337.7,257.8c-0.3,1.4-0.8,2.8-1.5,4.1c-0.8,1.6-2.2,3.4-3.6,4.7"/>
	<path id="path2896" class="st8" d="M337.8,236.7c-0.7,2.2-2.1,3.7-3.6,4.7"/>
	<path id="path2898" class="st8" d="M334.3,226.2c1.9,1.5,3,3,3.5,4.8"/>
	<path id="path2900" class="st8" d="M336.5,214.4c0.6,0.5,1,1.1,1.2,1.8"/>
	<path id="path2902" class="st7" d="M334.3,226c-0.7,0.7-1.4,1.1-2.1,1.3"/>
	<path id="path2904" class="st24" d="M334.2,226.8c-0.5,0.2-0.7,0.4-1.2,0.5c-0.6,0.2-1,0.3-1.5,0.3"/>
	<path id="path2906" class="st7" d="M337.8,221.3c-0.5,1.7-1.6,3-3.4,4.6"/>
	<path id="path2908" class="st8" d="M336.6,207.6c0.5,0.4,0.9,0.8,1.2,1.3"/>
	<path id="path2910" class="st7" d="M337.9,212.3c-0.3,0.8-0.8,1.6-1.6,2.4c-1.9,2.2-5.2,4-8.8,4c-2,0-4-0.4-6.1-1.8
		c-2.2-1.5-3.6-3.6-4.1-5.6"/>
	<path id="path2912" class="st4" d="M317.3,210.2c0.2,0.6,0.2,0.9,0.4,1.5c0.3,0.7,0.5,1.1,0.9,1.7c0.4,0.7,0.7,1,1.3,1.6
		c0.5,0.5,0.8,0.7,1.4,1.1c0.6,0.4,0.9,0.5,1.5,0.8"/>
	<path id="path2914" class="st8" d="M335.4,197c1.1,0.9,2,2.2,2.4,3.4"/>
	<path id="path2916" class="st7" d="M337.8,205c-0.9,2.9-3.5,6.6-8.7,7.9c-2.4,0.6-5.6-0.2-6.7-1.1"/>
	<path id="path2918" class="st4" d="M321.8,211.1c0.5,0.3,0.7,0.5,1.3,0.7c0.5,0.2,0.7,0.3,1.2,0.4c0.7,0.2,1,0.2,1.7,0.2
		c0.7,0,1,0,1.9-0.2"/>
	<path id="path2920" class="st8" d="M319.9,204.3c0.3,2.7,2,4.6,5.4,4.7c4.7,0.1,7.6-6.8,3.4-11.7"/>
	<path id="path2922" class="st7" d="M325.2,208.7l2.2-0.6l1.3-1l0.8-1.2l0.7-1.8l0.3-1.5"/>
	<path id="path2984" class="st8" d="M320.9,201c-0.7,0.2-1.6,0.4-2.5,0.9c-1.2,0.6-2.5,1.5-3.5,2.9c-1.2,1.7-1.9,4-2.3,6.1
		c-0.2,0.9-0.4,3.8,0.2,6.7c0.4,2.2,1.3,4.2,2.3,5.7c0.4,0.5,0.7,1,1,1.3c1.3,1.3,2.5,2.1,4.5,1.7"/>
	<path id="path2986" class="st14" d="M320.2,201.5c-1.9,1.2-3.3,1.5-4.8,3.2c-1.5,2.9-2.1,4.5-2.6,6.9"/>
	<path id="path2930" class="st5" d="M321.2,225.5c0-1,0.8-1.9,1.7-1.9c0.9,0,1.7,0.8,1.7,1.9c0,1-0.8,1.9-1.7,1.9
		C322,227.3,321.2,226.5,321.2,225.5z"/>
	<path id="path2932" class="st7" d="M309.3,227.4c0.7,0.9,1.5,1.6,2.3,2.3c1.7,1.4,3.7,2.6,6,3.3"/>
	<path id="path2934" class="st7" d="M322.9,233.6c4.2-0.5,6.6-3.7,6.1-7.3c-0.4-2.8-2.9-5-4.7-5.1"/>
	<path id="path2936" class="st23" d="M328.7,227l-0.4,2.2l-0.4,1l-0.9,1.2l-1.2,0.9l-1.2,0.6l-2.3,0.6"/>
	<path id="path2938" class="st8" d="M337.8,194.4c-0.6,1.9-1.8,3.2-3.7,4c-1.9,0.8-4,0.1-5.2-0.8"/>
	<path id="path2940" class="st23" d="M337.8,193.4l-0.5,1.3l-0.6,1l-0.8,1.1l-1.1,1l-1.3,0.6l-1.1,0.3l-0.7-0.1"/>
	<path id="path2942" class="st8" d="M329.8,189.8c1.8-0.1,2.9,1.6,2.9,3"/>
	<path id="path2944" class="st7" d="M333,191.5c-0.4,1.3-1,2.9-3.1,2.7"/>
	<path id="path2948" class="st23" d="M332.4,192.2l0,1"/>
	<path id="path2950" class="st7" d="M329.4,164.6c1,2.6,3,4.7,5.1,5.9"/>
	<path id="path2952" class="st4" d="M335.1,171.3c-0.8-0.5-1.3-0.7-2.1-1.2c-0.8-0.5-1.2-0.9-1.9-1.5c-0.5-0.5-0.8-0.8-1.2-1.3
		c-0.4-0.5-0.5-0.8-0.8-1.3"/>
	<path id="path2954" class="st4" d="M336.8,161.3c0.3,0.7,0.3,1.1,0.6,1.7c0.4,0.9,0.8,1.3,1.4,2.1c0.9,1,1.7,1.3,2.8,2.1"/>
	<path id="path2956" class="st4" d="M343.1,161.2c0.2,0.6,0.3,1,0.6,1.6c0.3,0.5,0.5,0.8,0.8,1.2c0.5,0.6,0.8,0.9,1.4,1.3
		c0.7,0.5,1.2,0.7,1.9,1.1"/>
	<path id="path2958" class="st5" d="M352,159.4c-0.1-1,0.5-1.9,1.4-2c0.9-0.1,1.7,0.7,1.8,1.7c0.1,1-0.5,1.9-1.4,2
		C352.9,161.2,352.1,160.5,352,159.4L352,159.4z"/>
	<path id="path2960" class="st7" d="M479.5,201.6c1.7,2.4,0.6,7-4.1,7.1c-1.8,0-3.5-1-4.5-2.5"/>
	<path id="path2962" class="st8" d="M325.6,200.3c-1.9-1.9-6.1-2.4-10.2,0.2c-0.5,0.3-1.1,0.8-1.6,1.2c-0.6,0.5-1,1-1.4,1.6
		c-0.5,0.6-1.1,1.7-1.4,2.4c-0.5,1-0.7,1.6-0.9,2.7c-0.7,2.9-0.7,5.5-0.7,6.3c0.1,1,0.2,1.9,0.4,2.7c0.5,2.8,1.4,4.8,2.2,6.2
		c0.9,1.5,3.2,5,7.8,5.4c1.8,0.2,4.9-0.7,5-3"/>
	<path id="path2964" class="st7" d="M444.4,158.5c0.3-1.7,2.3-2,3.1-1c1.2,1.5,0.4,4.1-2,4.8c-0.8,0.3-2.7,0.2-3.9-1.4
		c-1-1.3-0.9-2.8-0.5-4.1c0.2-0.8,0.9-1.5,1.7-2.2c2.7-2.1,7.2-1.6,8.6,1.9c1.9,4.5-2.2,7.9-6,10.5c-4.7,3.2-10.1,3.8-14.2,3.8
		c-9.2-0.1-16.2-4.5-20.8-7c-1.1-0.6-2.2-0.5-2.7,0.2c-0.6,0.7-0.6,2,0.3,2.8"/>
	<path id="path2966" class="st7" d="M446.3,157c1,0,1.2,0.4,1.5,0.8c1.2,1.5,0.3,4.1-2,4.8"/>
	<path id="path2972" class="st25" d="M394.9,161.4c1.5,1.2,2.6,2.6,2.5,5c-0.2,2.6-0.8,3.2-2.8,4.6"/>
	<path id="path2974" class="st8" d="M462.5,170.7v15.9"/>
	<path id="path2976" class="st25" d="M397,167.1c-0.1,1.5-0.7,2.5-2.3,3.2"/>
	<path id="path2978" class="st26" d="M413.8,153.1c-0.1-1.7-1.7-1.9-2.4-1.9c-1.9,0-2.4,1.2-4.7,2.4c-2.9,1.6-4.2,1.9-6.7,1.9
		c-2.6,0-3.9-0.4-6.8-1.9c-2.3-1.2-2.7-2.4-4.6-2.4c-1,0-2.3,0.9-2.3,2.5c0,0,0,0.5,0.1,0.9c0,0.1,0.2,0.1,0.2,0.2
		c0-0.8,0.1-1.2,0.5-1.7c0.5-0.7,1.3-0.8,1.6-0.8c1.9,0,2.5,1.2,4.9,2.4c2.9,1.6,4.2,1.9,6.7,1.9c2.6,0,3.9-0.4,6.8-1.9
		c2.3-1.2,3-2.5,4.8-2.5c0.6,0,1.1,0.4,1.3,1.1c0.1,0.4,0.1,0.7,0.1,0.8c0,0.1,0.1,0.1,0.1,0.2C413.6,153.9,413.8,153.8,413.8,153.1
		z"/>
	<path id="path2980" class="st14" d="M359.1,159.5c0,1.7-1.3,2.8-3,3.2"/>
	<path id="path2988" class="st7" d="M463.7,214.5c-3.5,3.8-0.3,10.4,2.3,11.9c0.9,0.7,1.3,0.3,2,0.8"/>
	<path id="path2990" class="st8" d="M463.9,207.2c-1.2,0.8-1.6,1.7-1.6,3.3c0,1.3,0.2,2.8,1.4,4c1.9,2,5.7,3.7,9.3,3.8
		c2,0,4-0.4,6.1-1.8c2.2-1.5,3.4-3.5,3.9-5.4"/>
	<path id="path2992" class="st8" d="M461.9,273.3c0,0,0,1.5-0.1,2.5c-0.4,2.8-0.8,4.4-2.1,7c-1.2,2.5-2.2,3.8-4.2,5.7
		c-2,2-3.4,2.9-5.9,4.1c-2.4,1.2-4,1.6-6.6,2.2c-2.6,0.6-4.2,0.7-6.9,0.9c-2.5,0.1-3.9,0-6.4-0.2c-2.7-0.2-4.1-0.6-6.8-0.8
		c-2.2-0.2-3.4-0.4-5.6-0.4c-2.3,0-3.6,0-5.8,0.4c-2.1,0.4-3.3,0.7-5.2,1.5c-2.7,1.1-5.8,3-6.4,3.9c-0.7-0.9-3.7-2.8-6.4-3.9
		c-2-0.8-3.1-1.1-5.2-1.5c-2.2-0.4-3.5-0.4-5.8-0.4c-2.2,0-3.4,0.2-5.6,0.4c-2.7,0.2-4.1,0.6-6.8,0.8c-2.5,0.2-3.9,0.3-6.4,0.2
		c-2.7-0.1-4.3-0.3-6.9-0.9c-2.7-0.6-4.2-1-6.6-2.2c-2.5-1.3-3.9-2.1-5.9-4.1c-2-1.9-3-3.2-4.2-5.7c-1.3-2.5-1.7-4.1-2.1-7
		c-0.1-1-0.1-2.5-0.1-2.5v0V170.9h124L461.9,273.3L461.9,273.3L461.9,273.3z"/>
	<path id="path4023" class="st15" d="M410.1,177.4h7.9v52.3h-7.9V177.4L410.1,177.4z"/>
	<path id="path2994" class="st27" d="M344.1,177.1h52.9v52.8h-52.9L344.1,177.1L344.1,177.1z"/>
	<g id="use3302" transform="matrix(-1,0,0,1,907.5206,0)">
		<path id="path2998" class="st28" d="M372.3,218.7c0,0,0,1.9,0.6,3.4c0.6,1.8,0.6,1.8,1.2,2.6c0.7,1.1,1.6,2,2.5,2.5
			c1.3,0.8,2.5,1.2,3.8,1.1c3.5-0.3,5.2-4.1,6-7.3c0.9-3.3,3.3-5.1,4.8-3.9c0.9,0.7,1,1.9,0.2,3c-0.8,1.2-2.6,1.8-2.6,1.8l1.9,2.4
			c0,0,4.1-0.5,4.9-4.8c0.3-1.6-0.5-4.6-3.2-5.5c-3.4-1.1-5.6,1.3-6.6,3.3c-1.4,2.8-2.1,8-6.1,7.2c-2.2-0.4-3.2-3.6-3.2-5.1
			l-1.6-1.7L372.3,218.7L372.3,218.7L372.3,218.7z"/>
	</g>
	<path id="path2998_1_" class="st28" d="M369,218.7c0,0,0,1.9-0.6,3.4c-0.6,1.8-0.6,1.8-1.2,2.6c-0.7,1.1-1.6,2-2.5,2.5
		c-1.3,0.8-2.5,1.2-3.8,1.1c-3.5-0.3-5.2-4.1-6-7.3c-0.9-3.3-3.3-5.1-4.8-3.9c-0.9,0.7-1,1.9-0.2,3c0.8,1.2,2.6,1.8,2.6,1.8
		l-1.9,2.4c0,0-4.1-0.5-4.9-4.8c-0.3-1.6,0.5-4.6,3.2-5.5c3.4-1.1,5.6,1.3,6.6,3.3c1.4,2.8,2.1,8,6.1,7.2c2.2-0.4,3.2-3.6,3.2-5.1
		l1.6-1.7L369,218.7L369,218.7L369,218.7z"/>
	<path id="path3000" class="st1" d="M375.3,196.2l6.9-7.5c0,0,1-0.8,1-2.2l-1.4,0.2l-0.3-0.7l-0.1-0.7l1.9-0.4c0-0.3,0-0.5,0.1-0.9
		c0.1-0.3,0.1-0.5,0.2-0.8l-2.1,0.1c0.1-0.4,0.1-0.6,0.2-0.9c0.1-0.3,0.1-0.4,0.3-0.7c0.4-0.1,0.7-0.1,1.2-0.2c0.5,0,0.7,0,1.2-0.1
		c1.1-2.1,5.9-4.1,9.3-0.6c2.5,2.5,1.9,7.2-1.3,8.5c-1.8,0.7-3.3,0.3-4.4-0.7l1.3-2.5c1.8,1,3.2-0.3,3.1-1.6
		c-0.1-1.7-1.2-2.8-2.8-2.9c-1.5-0.1-2.5,0.7-3.2,2c-0.4,0.8-0.2,1.4-0.4,2.3c-0.1,1-0.1,1.5-0.3,2.5c-0.2,0.7-0.7,1.6-1.5,2.3
		l-7.1,7.7l-27.7,29.9l-2.1-1.9L375.3,196.2L375.3,196.2z"/>
	<path id="path3002" class="st28" d="M355,198.9c0,0,1.7,8.6,7.6,21.5c3-1.1,4.8-1.8,8-1.8c3.2,0,5,0.6,8,1.8
		c5.9-12.9,7.6-21.5,7.6-21.5l-15.6-20.1L355,198.9L355,198.9z"/>
	<g id="use3300" transform="matrix(-1,0,0,1,907.5003,0)">
		<path id="path3006" class="st1" d="M372.1,185.6l10.8,13.9c0,0-1.4,6.8-5.8,17c-1.7-0.4-3.2-0.7-5-0.8L372.1,185.6L372.1,185.6z"
			/>
	</g>
	<path id="path3006_1_" class="st1" d="M369.1,185.6l-10.8,13.9c0,0,1.4,6.8,5.8,17c1.7-0.4,3.2-0.7,5-0.8L369.1,185.6L369.1,185.6z
		"/>
	<path id="path3012" class="st29" d="M416.6,251.1c-0.5-0.2-1.3-0.5-1.3-0.5c0.2-0.2,0.4-0.2,0.6-0.4c0.3-0.3,0.2-0.5,0.4-0.8
		c0.1-0.3,0.1-0.6,0.4-0.9c0.2-0.1,0.5-0.2,0.7-0.1c0.2,0.1,0.5,0.3,0.5,0.5c0.1,0.4-0.1,0.6-0.2,0.9c-0.1,0.4-0.2,0.6-0.1,0.9
		c0,0.2,0.1,0.3,0.2,0.6C417.9,251.4,417.1,251.3,416.6,251.1L416.6,251.1z"/>
	<path id="path3014" class="st29" d="M415.9,251.7c0-0.2,0.2-0.4,0.4-0.4c0.2,0,0.4,0.2,0.4,0.4c0,0.2-0.2,0.4-0.4,0.4
		C416.1,252.2,415.9,252,415.9,251.7z"/>
	<path id="path3016" class="st29" d="M414.8,241.1C414.8,241.1,414.7,241.1,414.8,241.1c-0.3-0.3-0.4-0.5-0.5-0.8
		c-0.1-0.3-0.2-0.4-0.2-0.7c0-0.3,0-0.4,0-0.7c0-0.2,0-0.4,0-0.6c0-0.2,0-0.4-0.1-0.6c-0.1-0.1-0.3-0.2-0.2-0.3c0.1-0.1,0.2,0,0.3,0
		c0.3,0,0.4,0.1,0.6,0.3c0.2,0.2,0.3,0.4,0.4,0.7c0.1,0.4,0.2,0.6,0.3,0.9c0.1,0.2,0.1,0.3,0.2,0.5c0.1,0.2,0.2,0.2,0.3,0.4l0,0
		c-0.2,0.2-0.3,0.3-0.5,0.5C415.2,240.9,415,241,414.8,241.1L414.8,241.1L414.8,241.1z"/>
	<path id="path3018_1_" class="st15" d="M416.2,240c0,0-0.2,0.1-0.4,0.2c-0.2,0.2-0.3,0.3-0.5,0.5c-0.3,0.3-0.5,0.3-0.8,0.5
		c-0.1,0.1-0.3,0.1-0.4,0.3c-0.2,0.2-0.1,0.4-0.2,0.6c-0.1,0.3-0.2,0.4-0.4,0.6c-0.2,0.3-0.4,0.4-0.7,0.6c-0.3,0.3-0.4,0.5-0.7,0.6
		c-0.1,0-0.1,0.1-0.2,0.1c-0.1,0-0.2,0-0.4,0c-0.2,0.1-0.3,0.4-0.5,0.5c0.1,0.1,0.1,0.2,0.1,0.4c0.1,0.2,0.5,0.8,0.5,0.9
		c0.1,0.2,0.2,0.5,0.3,0.5c0.3,0.1,0.6,0.1,0.8,0.1c0.5,0.1,0.8,0.1,1.3,0.3c0.4,0.2,0.6,0.4,0.9,0.5c0.3,0.1,0.5,0.2,0.8,0.3
		c0.2,0,0.4,0.1,0.6,0.1c0.2,0,0.2-0.1,0.4-0.1c0,0,0.1,0,0.1,0l0,0.2c0,0,0,0,0,0v0h0l1.3,0.6c0,0.1-0.1,0.2-0.1,0.2
		c-0.1,0.2-0.1,0.4,0,0.5c0.4,1.2,0.7,2,0.9,2.1c0.4,0.2,0.5,0.6,0.7,1c-0.1,0.1-0.1,0.1-0.2,0.2c-0.4,0.4-0.7,0.7-1.1,1.2
		c-0.5,0.8-0.8,0.8-0.2,1.8c0.4,0.6,0.5,0.7,1,1.5c0.2,0.4,0.4,0.8,0.5,1.3c0.1,0.5,0.2,0.8,0.2,1.3l0.6,0.2l0.4-0.4l0.4-0.8l0-0.6
		c-0.2-0.1-0.2-0.3-0.2-0.5c0-0.2,0.3-0.2,0.5-0.4c0.2-0.3-0.2-0.5-0.4-0.7c-0.4-0.4-0.9-0.5-1-1.2c0-0.2,0-0.3,0.2-0.5
		c0.6-0.5,0.7-0.6,1.3-1.2c0.2,0.1,0.4,0.1,0.6,0.1c0.2,0,0.3,0.1,0.9,0.2c0.4,0.1,0.6,0.1,0.8,0l0.2-0.1c0,0.1,0.1,0.3,0.1,0.4
		c0,0.7-0.1,1.9,0.1,2.3c0.1,0.1,0.1,0.2,0.2,0.4c0.1,0.2,0.1,0.3,0.1,0.4c0,0.4,0,0.7,0,1.2c0,0.4-0.1,0.7-0.1,1.1
		c0,0.3-0.1,0.5-0.3,0.7c-0.2,0.2-0.4,0.3-0.6,0.4l-0.1,0.6l0.7,0.3l0.8,0.2l0.4-0.2c0-0.2,0-0.3,0.1-0.4c0.1-0.2,0.1-0.3,0.3-0.3
		c0.2-0.1,0.5,0.1,0.6-0.1c0.1-0.2,0-0.2,0-0.5c0-0.4-0.1-0.6-0.2-1.1c-0.1-0.7-0.1-1.1-0.1-1.8c0-0.4,0-0.6,0.1-1
		c0.1-0.6,0.3-0.8,0.4-1.4c0.1-0.6,0.2-1,0.2-1.6c2,0.3,3.7,0.3,6-0.2c0.1,0,0.5-0.2,0.5-0.2c0.5,0.4,1.1,0.8,1.8,1
		c0,0.1,0,0.5,0,0.6c0,0.2,0,0.3,0.1,0.5c0.1,0.1,0.1,0.2,0.2,0.2c0.2,0,0.3,0,0.4-0.1c0.1-0.1,0.1-0.3,0.2-0.5c0-0.1,0-0.4,0-0.4
		c0.2,0,0.3,0,0.6,0c0.2,0,0.3,0,0.6,0c0,0.1,0,0.2,0,0.3c0,0.2,0,0.3,0,0.4c0.1,0.1,0.2,0.2,0.3,0.3c0.1,0,0.2,0,0.3-0.1
		c0.2-0.1,0.2-0.3,0.2-0.5c0-0.1,0-0.4,0-0.5c0.1,0,0.5-0.2,0.7-0.2c0,0.2,0,0.3-0.1,0.5c0,0.2-0.1,0.4-0.2,0.6
		c-0.1,0.4-0.3,0.6-0.5,0.9c-0.2,0.4-0.4,0.6-0.7,1c-0.1,0.2-0.2,0.2-0.4,0.4c-0.2,0.2-0.2,0.4-0.4,0.6c-0.2,0.3-0.3,0.5-0.6,0.7
		c-0.4,0.4-0.7,0.1-1.3,0.5l-0.1,0.7l0.9,0.3l0.8,0.2l0.3-0.2c0-0.2,0-0.3,0.1-0.5c0.1-0.2,0.3-0.2,0.5-0.3c0.2,0,0.5,0,0.7-0.1
		c0.2-0.2,0.2-0.6,0.4-0.9c0.6-1.1,1-1.7,1.9-2.5c0.4-0.4,0.7-0.5,1.1-0.9c0.2-0.2,0.3-0.3,0.3-0.6c0-0.2-0.1-0.3-0.1-0.4
		c-0.1-0.2-0.1-0.6-0.1-0.6c1,0.5,0.6,0.4,0.8,0.9c0.1,0.4,0,0.7,0,1.1c0.1,0.5,0.3,0.7,0.3,1.2c0.1,0.6-0.1,0.9-0.2,1.5
		c-0.1,0.5-0.1,0.8-0.3,1.3c-0.2,0.4-0.4,0.7-0.7,1c-0.1,0.1-0.2,0.2-0.4,0.3l-0.1,0.7l0.7,0.2l1,0.3l0.2-0.2c0.1-0.4,0-1,0.3-1.1
		c0.3,0,0.4,0,0.5-0.2c0-0.1,0-0.2,0.1-0.4c0.1-1.2,0.3-2.3,0.4-2.9c0.1-0.6,0.1-0.8,0.3-1.2c0.1-0.4-0.1-0.2,0.3-1.1
		c0.5-1.4-0.1-1.5-0.7-2.4c-0.3-0.4-0.4-0.6-0.4-1c-0.1-0.5,0.1-1,0.1-1.8c0-0.9,0-1.4,0-1.9c0.1,0,0.1-0.1,0.2-0.1
		c0.8-0.4,1.1-0.5,1.5-1.6c0.1-0.3,0.2-0.6,0.2-0.9c0-0.2,0-0.4-0.1-0.7c0-0.3-0.1-0.4-0.2-0.6c-0.1-0.2-0.2-0.4-0.4-0.5
		c-0.5-0.6-1.1-0.7-1.8-0.9c-1-0.3-1.6-0.3-2.7-0.4c-1.1-0.1-1.7-0.1-2.8,0c-1.3,0.1-2,0.3-3.3,0.5c-1.2,0.1-1.9,0.2-3.2,0.3
		c-1.5,0-2.8-0.3-3.7-0.2c-1.6,0.1-1.6,0.5-4,0.7c-1.2,0.1-2.5,0.1-2.5,0.1l-1.4-0.4c0.6-0.2,0.7-0.3,0.9-0.7
		c0.2-0.2,0.2-0.4,0.4-0.7c0.2-0.2,0.3-0.4,0.5-0.6c-0.2-0.2-0.4-0.2-0.6-0.3c-0.2,0-0.4,0-0.6,0c-0.3,0-0.5,0.1-0.8,0.2
		c-0.2,0.1-0.4,0.2-0.5,0.4c0,0-0.8-0.5-1.4-0.8C417.5,240.3,417.1,240.1,416.2,240L416.2,240z M417.5,247.7
		C417.5,247.7,417.5,247.7,417.5,247.7C417.5,247.7,417.5,247.7,417.5,247.7L417.5,247.7L417.5,247.7z"/>
	<path id="path3020" class="st30" d="M444.7,248.1l-0.5,0.2c-0.6,0.3-1,0.3-1.7,0.3c-1.7,0.1-2.8-0.7-4.5-0.5
		c-0.9,0.1-1.3,0.8-2.2,1c-0.4,0.1-0.7,0.1-1.1,0.2l0.3-0.7c0,0-0.8,0.2-1.4,0.2c-0.4,0-0.6,0-1-0.1l0.7-0.6c0,0-0.5-0.1-0.8-0.2
		c-0.3-0.1-0.4-0.2-0.7-0.4c0.4-0.1,0.7-0.1,1.1-0.2c1-0.2,1.3-0.7,2.5-0.9c0.7-0.1,2,0,4.9,0.5c2,0.3,2.8,0.2,3.6-0.2
		c0.5-0.2,0.7-0.7,0.7-1.2c0.1-0.5-0.3-0.9-0.6-1.2c-0.1-0.1-0.3-0.2-0.7-0.2"/>
	<path id="path3022" class="st31" d="M416.4,242.4c-0.3,0-0.6,0-0.9,0.2c-0.3,0.2-0.3,0.4-0.6,0.7c0.3,0.1,0.4,0.2,0.7,0.2
		c0.2-0.1,0.3-0.2,0.5-0.3C416.4,242.9,416.4,242.7,416.4,242.4L416.4,242.4L416.4,242.4z"/>
	<path id="path3024" class="st30" d="M423.6,250.9c0,0,0.2,0.3,0.3,0.5c0.2,0.4,0.2,0.6,0.3,0.9c0.1,0.5,0.1,0.8,0.2,1.4
		c0,0.1,0,0.2,0,0.2l0,0.7"/>
	<path id="path3026" class="st30" d="M428.7,250.2c0,0-0.1,0.5-0.2,0.9c-0.2,0.9-0.4,1.3-0.6,2.2c0,0.1-0.1,0.3-0.1,0.4"/>
	<path id="path3028" class="st29" d="M417.1,248l1.4,0.7c0.7-0.4,1.6-1.2,2.3-2.5c0.6-1.1,0.7-1.7,0.9-2.8l-1.2-0.4l-0.2,0
		c-0.4,1.1-0.4,1.7-1,2.7c-0.5,0.8-1.1,1.5-1.7,2L417.1,248L417.1,248z"/>
	<path id="path3032" class="st29" d="M420.3,259.6c0.2-0.3,0.3-0.5,0.6-0.8c0.3-0.3,0.5-0.5,0.8-0.7c0.1,0,0.2,0,0.3,0
		c0,0.4,0,0.6-0.1,1c-0.1,0.3-0.1,0.5-0.2,0.8c-0.1,0.2-0.1,0.4-0.3,0.6c-0.1,0.1-0.2,0.2-0.3,0.3
		C420.8,260.4,420.3,260,420.3,259.6L420.3,259.6z"/>
	<path id="path3034" class="st29" d="M441.6,260.8c0.4,0.1,0.6,0.2,0.9,0.3c0.4,0.2,0.6,0.4,0.9,0.6c0,0.1,0.1,0.2,0,0.3
		c-0.3,0.1-0.6,0.1-1,0.2c-0.3,0-0.5,0-0.8,0c-0.3,0-0.4,0-0.7-0.1c-0.2-0.1-0.2-0.1-0.4-0.2C441,261.5,441.2,260.9,441.6,260.8
		L441.6,260.8z"/>
	<path id="path3036" class="st29" d="M435.3,259.5c0.4,0.1,0.6,0.2,0.9,0.3c0.4,0.2,0.6,0.4,0.9,0.6c0,0.1,0.1,0.2,0,0.3
		c-0.3,0.1-0.6,0.1-1,0.2c-0.3,0-0.5,0-0.8,0c-0.3,0-0.4,0-0.7-0.1c-0.2-0.1-0.2-0.1-0.4-0.2C434.7,260.2,434.9,259.6,435.3,259.5
		L435.3,259.5z"/>
	<path id="path3038" class="st29" d="M424.1,260.9c0.4,0.1,0.6,0.2,0.9,0.3c0.4,0.2,0.6,0.4,0.9,0.6c0,0.1,0.1,0.2,0,0.3
		c-0.3,0.1-0.6,0.1-1,0.2c-0.3,0-0.5,0-0.8,0c-0.3,0-0.4,0-0.7-0.1c-0.2-0.1-0.2-0.1-0.4-0.2C423.5,261.6,423.7,261,424.1,260.9
		L424.1,260.9z"/>
	<path id="path3040" class="st29" d="M418.3,241.7c-0.4-0.2-0.7-0.7-0.4-1c0.1-0.1,0.3-0.1,0.4-0.3c0.1-0.2,0.1-0.3,0.1-0.5
		c0-0.2-0.1-0.4-0.1-0.6c0-0.3-0.1-0.4-0.1-0.7c0-0.4,0-0.7,0.2-1c0.2-0.2,0.4-0.4,0.5-0.4c0.1,0.1,0,0.3,0,0.5
		c0,0.3,0.1,0.5,0.2,0.7c0.1,0.4,0.3,0.5,0.5,0.9c0.1,0.3,0.3,0.5,0.3,0.9c0,0.3,0,0.5-0.1,0.7c-0.1,0.2-0.2,0.4-0.4,0.5
		c-0.2,0.1-0.3,0.2-0.5,0.3C418.6,241.8,418.5,241.8,418.3,241.7L418.3,241.7z"/>
	<path id="path3046" class="st30" d="M420.9,251.1c0.5,0.1,0.4,2.2,1.2,2.6"/>
	<path id="path3048" class="st32" d="M439.1,254.7l0.2-0.2c0.7-0.3,1.2-0.7,1.7-1.2"/>
	<path id="path3050" class="st30" d="M434.1,253.6C434.1,253.6,434.1,253.6,434.1,253.6c2.3-0.6,3.8-1.7,4.9-1.8"/>
	<path id="path3052" class="st30" d="M436.4,250.8c0.2,0,0.4,0,0.5,0c0.9-0.1,1.1,0.4,1.8,0.8c1.2,0.7,1.4,1.5,2.8,2.2
		c0.1,0,0.1,0.1,0.2,0.1l0.5,0.3"/>
	<path id="path3064" class="st31" d="M411.8,244.9c0.2,0,0.3,0.1,0.5,0c0.2,0,0.3-0.2,0.5-0.2c0.2,0,0.3,0,0.4,0.1
		c0.1,0.1,0.1,0.1,0.2,0.2c0.1,0.1,0.1,0.2,0.1,0.3c0,0.2-0.2,0.3-0.4,0.3c-0.2,0-0.3,0-0.4-0.2c0-0.1-0.1-0.2,0-0.3
		c-0.2,0.1-0.3,0.1-0.5,0C412,245.2,411.9,245.1,411.8,244.9L411.8,244.9z"/>
	<g id="use4038" transform="translate(0,36.590437)">
		<path id="path3012_1_" class="st29" d="M416.6,274.7c-0.5-0.2-1.3-0.5-1.3-0.5c0.2-0.2,0.4-0.2,0.6-0.4c0.3-0.3,0.2-0.5,0.4-0.8
			c0.1-0.3,0.1-0.6,0.4-0.9c0.2-0.1,0.5-0.2,0.7-0.1c0.2,0.1,0.5,0.3,0.5,0.5c0.1,0.4-0.1,0.6-0.2,0.9c-0.1,0.4-0.2,0.6-0.1,0.9
			c0,0.2,0.1,0.3,0.2,0.6C417.9,274.9,417.1,274.8,416.6,274.7L416.6,274.7z"/>
	</g>
	<g id="use4040" transform="translate(0,36.59055)">
		<path id="path3014_1_" class="st29" d="M415.9,275.3c0-0.2,0.2-0.4,0.4-0.4c0.2,0,0.4,0.2,0.4,0.4c0,0.2-0.2,0.4-0.4,0.4
			C416.1,275.7,415.9,275.5,415.9,275.3z"/>
	</g>
	<g id="use4030" transform="translate(0,36.59045)">
		<path id="path3016_1_" class="st29" d="M414.8,264.7C414.8,264.7,414.7,264.6,414.8,264.7c-0.3-0.3-0.4-0.5-0.5-0.8
			c-0.1-0.3-0.2-0.4-0.2-0.7c0-0.3,0-0.4,0-0.7c0-0.2,0-0.4,0-0.6c0-0.2,0-0.4-0.1-0.6c-0.1-0.1-0.3-0.2-0.2-0.3
			c0.1-0.1,0.2,0,0.3,0c0.3,0,0.4,0.1,0.6,0.3c0.2,0.2,0.3,0.4,0.4,0.7c0.1,0.4,0.2,0.6,0.3,0.9c0.1,0.2,0.1,0.3,0.2,0.5
			c0.1,0.2,0.2,0.2,0.3,0.4l0,0c-0.2,0.2-0.3,0.3-0.5,0.5C415.2,264.5,415,264.6,414.8,264.7L414.8,264.7L414.8,264.7z"/>
	</g>
	<path id="path3074" class="st30" d="M444.7,271.7l-0.5,0.2c-0.6,0.3-1,0.3-1.7,0.3c-1.7,0.1-2.8-0.7-4.5-0.5
		c-0.9,0.1-1.3,0.8-2.2,1c-0.4,0.1-0.7,0.1-1.1,0.2l0.3-0.7c0,0-0.8,0.2-1.4,0.2c-0.4,0-0.6,0-1-0.1l0.7-0.6c0,0-0.5-0.1-0.8-0.2
		c-0.3-0.1-0.4-0.2-0.7-0.4c0.4-0.1,0.7-0.1,1.1-0.2c1-0.2,1.3-0.7,2.5-0.9c0.7-0.1,2,0,4.9,0.5c2,0.3,2.8,0.2,3.6-0.2
		c0.5-0.2,0.7-0.7,0.7-1.2c0.1-0.5-0.3-0.9-0.6-1.2c-0.1-0.1-0.3-0.2-0.7-0.2"/>
	<path id="path3076" class="st33" d="M416.4,266c-0.3,0-0.6,0-0.9,0.2c-0.3,0.2-0.3,0.4-0.6,0.7c0.3,0.1,0.4,0.2,0.7,0.2
		c0.2-0.1,0.3-0.2,0.5-0.3C416.4,266.5,416.4,266.3,416.4,266L416.4,266L416.4,266z"/>
	<path id="path3078" class="st30" d="M423.6,273.4c0,0,0.2,0.3,0.3,0.5c0.2,0.4,0.2,0.6,0.3,0.9c0.1,0.5,0.1,0.8,0.2,1.4
		c0,0.1,0,0.2,0,0.2l0,0.7"/>
	<path id="path3080" class="st30" d="M428.7,273.8c0,0-0.1,0.5-0.2,0.9c-0.2,0.9-0.4,1.3-0.6,2.2c0,0.1-0.1,0.3-0.1,0.4"/>
	<g id="use4036" transform="translate(0,36.5905)">
		<path id="path3028_1_" class="st29" d="M417.1,271.5l1.4,0.7c0.7-0.4,1.6-1.2,2.3-2.5c0.6-1.1,0.7-1.7,0.9-2.8l-1.2-0.4l-0.2,0
			c-0.4,1.1-0.4,1.7-1,2.7c-0.5,0.8-1.1,1.5-1.7,2L417.1,271.5L417.1,271.5z"/>
	</g>
	<g id="use4042" transform="translate(0,36.5906)">
		<path id="path3032_1_" class="st29" d="M420.3,283.2c0.2-0.3,0.3-0.5,0.6-0.8c0.3-0.3,0.5-0.5,0.8-0.7c0.1,0,0.2,0,0.3,0
			c0,0.4,0,0.6-0.1,1c-0.1,0.3-0.1,0.5-0.2,0.8c-0.1,0.2-0.1,0.4-0.3,0.6c-0.1,0.1-0.2,0.2-0.3,0.3
			C420.8,283.9,420.3,283.6,420.3,283.2L420.3,283.2z"/>
	</g>
	<g id="use4048" transform="translate(0,36.59055)">
		<path id="path3034_1_" class="st29" d="M441.6,284.4c0.4,0.1,0.6,0.2,0.9,0.3c0.4,0.2,0.6,0.4,0.9,0.6c0,0.1,0.1,0.2,0,0.3
			c-0.3,0.1-0.6,0.1-1,0.2c-0.3,0-0.5,0-0.8,0c-0.3,0-0.4,0-0.7-0.1c-0.2-0.1-0.2-0.1-0.4-0.2C441,285.1,441.2,284.5,441.6,284.4
			L441.6,284.4z"/>
	</g>
	<g id="use4046" transform="translate(0,36.5904)">
		<path id="path3036_1_" class="st29" d="M435.3,283.1c0.4,0.1,0.6,0.2,0.9,0.3c0.4,0.2,0.6,0.4,0.9,0.6c0,0.1,0.1,0.2,0,0.3
			c-0.3,0.1-0.6,0.1-1,0.2c-0.3,0-0.5,0-0.8,0c-0.3,0-0.4,0-0.7-0.1c-0.2-0.1-0.2-0.1-0.4-0.2C434.7,283.8,434.9,283.2,435.3,283.1
			L435.3,283.1z"/>
	</g>
	<g id="use4044" transform="translate(0,36.5904)">
		<path id="path3038_1_" class="st29" d="M424.1,284.4c0.4,0.1,0.6,0.2,0.9,0.3c0.4,0.2,0.6,0.4,0.9,0.6c0,0.1,0.1,0.2,0,0.3
			c-0.3,0.1-0.6,0.1-1,0.2c-0.3,0-0.5,0-0.8,0c-0.3,0-0.4,0-0.7-0.1c-0.2-0.1-0.2-0.1-0.4-0.2C423.5,285.2,423.7,284.6,424.1,284.4
			L424.1,284.4z"/>
	</g>
	<g id="use4032" transform="translate(0,36.590549)">
		<path id="path3040_1_" class="st29" d="M418.3,265.3c-0.4-0.2-0.7-0.7-0.4-1c0.1-0.1,0.3-0.1,0.4-0.3c0.1-0.2,0.1-0.3,0.1-0.5
			c0-0.2-0.1-0.4-0.1-0.6c0-0.3-0.1-0.4-0.1-0.7c0-0.4,0-0.7,0.2-1c0.2-0.2,0.4-0.4,0.5-0.4c0.1,0.1,0,0.3,0,0.5
			c0,0.3,0.1,0.5,0.2,0.7c0.1,0.4,0.3,0.5,0.5,0.9c0.1,0.3,0.3,0.5,0.3,0.9c0,0.3,0,0.5-0.1,0.7c-0.1,0.2-0.2,0.4-0.4,0.5
			c-0.2,0.1-0.3,0.2-0.5,0.3C418.6,265.3,418.5,265.3,418.3,265.3L418.3,265.3z"/>
	</g>
	<path id="path3098" class="st30" d="M420.9,274.7c0.5,0.1,0.4,2.2,1.2,2.6"/>
	<path id="path3100" class="st32" d="M439.1,278.3l0.2-0.2c0.7-0.3,1.2-0.7,1.7-1.2"/>
	<path id="path3102" class="st30" d="M434.1,277.2C434.1,277.2,434.1,277.2,434.1,277.2c2.3-0.6,3.8-1.7,4.9-1.8"/>
	<path id="path3104" class="st30" d="M436.4,274.3c0.2,0,0.4,0,0.5,0c0.9-0.1,1.1,0.4,1.8,0.8c1.2,0.7,1.4,1.5,2.8,2.2
		c0.1,0,0.1,0.1,0.2,0.1l0.5,0.3"/>
	<path id="path3114" class="st33" d="M411.8,268.5c0.2,0,0.3,0.1,0.5,0c0.2,0,0.3-0.2,0.5-0.2c0.2,0,0.3,0,0.4,0.1
		c0.1,0.1,0.1,0.1,0.2,0.2c0.1,0.1,0.1,0.2,0.1,0.3c0,0.2-0.2,0.3-0.4,0.3c-0.2,0-0.3,0-0.4-0.2c0-0.1-0.1-0.2,0-0.3
		c-0.2,0.1-0.3,0.1-0.5,0C412,268.8,411.9,268.7,411.8,268.5L411.8,268.5z"/>
	<path id="path3116" class="st6" d="M344.3,275.8c0.2,1,0.5,2.6,1.4,4.3c1,1.5,0.6,1.5,2.8,3.9c1.1,1.2,2.7,2.2,4,2.9
		c1.3,0.7,2.3,1,4.4,1.6c4.2,1.1,7.1,1.2,10.7,1c2.8-0.1,4.9-0.4,6.6-0.7c2.5-0.3,4.3-0.5,7.2-0.7c1.4-0.1,2.7-0.1,4,0
		c1.5,0.1,3.1,0.3,4.7,0.7c3.5,0.7,7.1,2.1,7.1,2.1l0-55.2l-52.9,0v37.7C344.1,273.3,344.2,275.1,344.3,275.8L344.3,275.8z"/>
	<path id="path3118" class="st34" d="M350.5,285.1c0.8,0.5,1.7,0.9,2.5,1.3c1.3,0.7,1.9,0.8,3.4,1.4l0-51.8h-5.9v49l0,0L350.5,285.1
		L350.5,285.1z"/>
	<path id="path3120" class="st34" d="M379.9,287.8l0-51.9H374v52.4C374,288.3,378,287.9,379.9,287.8L379.9,287.8z"/>
	<path id="path3122" class="st34" d="M391.6,235.9h-5.9v51.7c1.9,0.2,3.9,0.5,5.9,1L391.6,235.9L391.6,235.9z"/>
	<path id="path3124" class="st35" d="M478,193.7c4.8-0.1,18.6,3.6,18.7,19.9c0.1,16.1-9.9,18.7-13.9,19.7"/>
	<path id="path3126" class="st36" d="M479.2,193.7c8.2-0.4,16.7,5.7,17,20.8c0.3,11.8-8.1,17.1-12.1,18.2"/>
	<g id="use4025" transform="translate(23.48041,0)">
		<path id="path4023_1_" class="st15" d="M425.2,177.4h7.9v52.3h-7.9V177.4L425.2,177.4z"/>
	</g>
	<g id="use4027" transform="translate(46.96097,0)">
		<path id="path4023_2_" class="st15" d="M440.4,177.4h7.9v52.3h-7.9V177.4L440.4,177.4z"/>
	</g>
	<path id="path3134" class="st34" d="M368.1,235.9V289c-0.1,0-3.9,0.1-5.9-0.1l0-53L368.1,235.9L368.1,235.9z"/>
</g>
</svg>
