<?xml version="1.0" encoding="utf-8"?>
<!-- Generator: Adobe Illustrator 20.0.0, SVG Export Plug-In . SVG Version: 6.00 Build 0)  -->
<!DOCTYPE svg PUBLIC "-//W3C//DTD SVG 1.1//EN" "http://www.w3.org/Graphics/SVG/1.1/DTD/svg11.dtd">
<svg version="1.1" id="Layer_1" xmlns="http://www.w3.org/2000/svg" xmlns:xlink="http://www.w3.org/1999/xlink" x="0px" y="0px"
	 viewBox="0 0 800 480" style="enable-background:new 0 0 800 480;" xml:space="preserve">
<style type="text/css">
	.st0{fill:#009900;}
	.st1{fill:#BF0000;}
	.st2{fill:#FFFFFF;stroke:#BD6B00;stroke-width:0.5;}
	.st3{fill:#FFFFFF;}
	.st4{fill:none;stroke:#BD6B00;stroke-width:0.5;}
	.st5{fill:#BF0000;stroke:#BD6B00;stroke-width:0.5;}
	.st6{fill:#BD6B00;}
</style>
<g>
	<path d="M0,0h800v480H0V0z"/>
	<path class="st0" d="M533.3,0H800v480H533.3V0z"/>
	<path class="st1" d="M266.7,0h266.7v480H266.7V0z"/>
</g>
<g>
	<g>
		<path class="st2" d="M424.4,270.7l10.8,0c0,4.1,2.4,8.4,5.8,11h-20.6C423.6,278.8,424.5,275.3,424.4,270.7L424.4,270.7z"/>
		<path class="st3" d="M356.4,209.7l5.9,6.5l73.4,0.1l6-6.5l-18.8-0.2l-9.1-6.4l-29.5-0.1l-8.5,6.6L356.4,209.7L356.4,209.7z"/>
		<path class="st2" d="M386.4,202.3l25.4,0c3.4-1.8,4.5-7.6,4.5-10.9c0-9.6-6.7-14.2-13.5-14.4c-1-0.1-2.2-0.8-2.4-1.8
			c-0.7-2.1-0.5-3.4-1.2-3.3c-0.6,0-0.5,1.2-1,3.2c-0.3,1-1.4,1.9-2.5,2c-8.4,0.4-13.8,6.5-13.6,14.4
			C382.2,196.6,382.8,199.6,386.4,202.3L386.4,202.3z"/>
		<path class="st3" d="M344.7,292.6h108.9l-9.8-7.9h-89.4L344.7,292.6L344.7,292.6z"/>
		<path class="st2" d="M394.6,262.8l2,6h4.5l-3.6-6L394.6,262.8L394.6,262.8z M392.1,268.8l1.1,5.9l5.3,0.1l-1.9-6L392.1,268.8
			L392.1,268.8z M401.1,268.8l3.7,5.8h7.5l-5.9-5.9L401.1,268.8L401.1,268.8z M356.7,282.2c4-3.7,6.5-6.9,6.6-11.4h9.7
			c0,2.5,0.9,4.1,2.3,4l9.9-0.1l-0.1-5.8H378l0-31.8c-0.3-11.3,13.7-17.8,19.4-17.8l-33.9-0.1v-1h71.3l0.1,1l-34.4,0.1
			c10.2,0,20,9.7,20.1,17.8v9h-1.3l-0.1-8.9c0-8.9-11.2-17.2-20.2-17c-7.8,0.2-19.9,7.6-19.7,16.9v2.8l18.5,0.1l-0.2,3.2l2.9,1.9
			l5.8,1.8l-0.1,4.8l4.1,1.2l0,4.8l5,2.1v4.9l3.2,1.9l-0.1,5l4.3,3h-10.1l6.3,7h-9.3l-4.6-7h-6.1l2.8,7l-6.6-0.1l-1.6-6.9h-8
			l0.1,7.5L356.7,282.2L356.7,282.2z M385.2,262.9v5.9h6.9l-1.4-5.9H385.2z"/>
		<rect x="385.6" y="252.4" class="st4" width="4.3" height="9.8"/>
		<path class="st4" d="M379.6,262.9h4.2l0-7.2c-0.1-3.1,2.8-6.3,4.1-6.4c1.5-0.1,3.7,3,3.8,6.2l0.1,7.5l4.4,0v-18.6l-16.5,0.1
			L379.6,262.9L379.6,262.9z"/>
		<rect x="412.6" y="267.3" class="st4" width="5.2" height="4"/>
		<rect x="409.5" y="260.3" class="st4" width="5.2" height="4"/>
		<rect x="404.5" y="253.4" class="st4" width="5.2" height="4"/>
		<rect x="400.2" y="247.6" class="st4" width="5.2" height="4"/>
		<path class="st4" d="M396.8,263l5.3,0.2l9.4,8.4v-4.9l-3.2-2.3v-3.9l-4.6-2.6v-4.2l-4.5-1.5v-5.7l-2.3-1.9L396.8,263L396.8,263z"
			/>
		<rect x="419.2" y="250.8" class="st2" width="1.3" height="9.1"/>
		<g id="c_2_">
			<path class="st2" d="M454.3,220c1.6-2.6,3.5,3.5,10,8.1c3,2.1,5.2,7.6,5.2,11.2c0.1,2.5-0.3,5,0,7.4c0.2,1.5,1.8,4.9,0.7,5.8
				c-2.9,2.1-6.6,7-8.3,8.7c-1.5,1.3-2.8-6.8-3.9-10.4c-1.2-3.9-0.7-8.5-4-12.1c-2.4-2.4-8.3-4.8-7.7-5.9L454.3,220L454.3,220z"/>
			<path class="st5" d="M454.7,239.8c0.5-1.1,1.2-2.3,2.1-3.3c0.9-1,2-1.9,3.1-2.3c1.1-0.4,2.3-1,3.1-2c0.4-0.5,0.8-1.1,0.9-1.9
				c0.2-0.7,0.2-1.6,0-2.5c0.1,0.1,0.2,0.2,0.4,0.3c3,2.1,5.2,7.6,5.2,11.2c0,1,0,2,0,3c-0.2,0.6-0.4,1.2-0.8,1.6
				c-0.4,0.5-0.9,0.8-1.5,1c-1.1,0.5-2.3,0.5-3.4,1c-1.2,0.4-2.4,1.4-3.4,2.5c-1,1.1-1.8,2.3-2.3,3.4c-0.1-0.3-0.2-0.8-0.3-1
				C456.9,247.3,457.1,243.2,454.7,239.8L454.7,239.8z"/>
			<path class="st4" d="M464,227.6c0.6,4.3-1.8,5.8-4.1,6.6c-2.4,0.8-4.3,3.4-5.3,5.6"/>
			<path class="st4" d="M469.8,241.8c-1,3.7-3.6,3.3-5.9,4.1c-2.4,0.8-4.8,3.8-5.8,6.1"/>
			<path class="st2" d="M456.5,217.4l-1.2-0.8l-22.9,38.6l1.2,0.8L456.5,217.4L456.5,217.4z"/>
			<path class="st2" d="M454.1,215.9c0,1.5,1.2,2.6,2.6,2.6c1.5,0,2.6-1.2,2.6-2.6l0,0c0-1.5-1.2-2.6-2.6-2.6
				C455.3,213.2,454.1,214.4,454.1,215.9z"/>
			<rect x="425.2" y="184.9" class="st2" width="9.3" height="2.1"/>
			<rect x="425.2" y="188.9" class="st2" width="9.3" height="17.8"/>
			<path class="st2" d="M435.1,182.5l-10.3,0.1c-0.4-3.5,3.1-7.3,5.1-7.2C431.9,175.4,435.1,179.1,435.1,182.5L435.1,182.5z"/>
			<path class="st6" d="M408.8,180.4c2,0.8,3.5,3.1,4.4,5.6c0.9,2.6,1.3,5.5,0.8,7.9v0c-0.2,0.8-0.4,1.4-0.6,1.8
				c-0.3,0.4-0.5,0.7-0.9,0.7s-0.7-0.1-0.8-0.4c-0.2-0.3-0.3-0.7-0.2-1.1c0.2-2.4,0.2-4.8-0.4-7c-0.6-2.2-1.7-4.1-3.8-5.6
				c-0.4-0.3-0.6-0.6-0.6-0.9c0-0.3,0.1-0.6,0.4-0.8C407.4,180.2,408.1,180.1,408.8,180.4L408.8,180.4z M408.6,180.9
				c-0.5-0.2-1.1-0.1-1.3,0.1c-0.1,0.1-0.1,0.2-0.1,0.3c0,0.1,0.1,0.3,0.4,0.5c2.2,1.6,3.4,3.7,4,6c0.6,2.3,0.6,4.7,0.4,7.2
				c0,0.3,0.1,0.6,0.2,0.7c0.1,0.1,0.1,0.2,0.2,0.2c0.1,0,0.3-0.2,0.5-0.5s0.4-0.8,0.6-1.6c0.4-2.2,0-5.1-0.8-7.6
				C411.7,183.7,410.3,181.6,408.6,180.9L408.6,180.9z"/>
			<path class="st6" d="M405.5,182.9c2,0.8,3.2,3,3.9,5.4c0.7,2.4,0.8,5.2,0.4,7.6c-0.3,1.7-1.2,2.5-2.1,2.7
				c-0.4,0.1-0.8-0.1-1.1-0.4c-0.3-0.3-0.3-0.8-0.2-1.4c0.5-1.9,0.7-4.3,0.3-6.5s-1.2-4.1-2.9-5.3c-0.4-0.3-0.6-0.6-0.6-0.9
				c0-0.3,0.1-0.7,0.4-0.8C404.1,182.7,404.8,182.6,405.5,182.9L405.5,182.9z M405.3,183.5c-0.5-0.2-1-0.1-1.3,0.1
				c-0.1,0.1-0.2,0.2-0.2,0.3c0,0.1,0.1,0.3,0.4,0.5c1.8,1.3,2.7,3.4,3.1,5.7c0.4,2.3,0.1,4.7-0.4,6.7c-0.1,0.5,0,0.8,0.1,0.9
				c0.1,0.2,0.3,0.2,0.5,0.2c0.5-0.1,1.3-0.7,1.6-2.2c0.4-2.2,0.3-5-0.4-7.3C408.2,186.1,407,184.2,405.3,183.5L405.3,183.5z"/>
			<rect x="424.7" y="221.1" class="st2" width="10.4" height="14.3"/>
			<rect x="424.4" y="243.7" class="st2" width="10" height="3"/>
			<rect x="424.4" y="249" class="st2" width="10.2" height="11.2"/>
			<rect x="424.2" y="262.4" class="st2" width="11.2" height="6.3"/>
			<path class="st2" d="M434,241h-9l-1.8-3h12.4L434,241L434,241z"/>
			<path class="st2" d="M421.8,230l-0.1-7.8h-6.2C418,224.2,420.2,226.6,421.8,230z"/>
			<path class="st4" d="M433.4,233.2c-0.1,1.7-2,0.9-2,0.1c0-2.6,0-5.4,0.1-7.2c0-1.3-3.2-1-3.2-0.2c0,2.2,0,5.2,0,7.7
				c0,1.2-2.1,1.1-2.1,0c0-2.9,0-7,0-9.1c0-2.7,7.1-2.6,7.2-0.1C433.4,226.6,433.4,230.4,433.4,233.2L433.4,233.2z"/>
			<rect x="426" y="250.3" class="st4" width="7.3" height="9.1"/>
			<rect x="426.1" y="254.1" class="st2" width="2.6" height="1.5"/>
			<rect x="430.7" y="254.1" class="st2" width="2.5" height="1.5"/>
			<rect x="428.7" y="250.4" class="st2" width="2" height="3.7"/>
			<rect x="428.7" y="255.5" class="st2" width="2" height="4"/>
			<path class="st2" d="M471.5,158.7c-0.5,7.2,1.8,11.1,5.6,10.5C478.1,165.2,475.8,162.6,471.5,158.7z"/>
			<path class="st2" d="M479.9,174.6c3.4-1.7,0.9-14.8-0.4-20.4C478.6,161.4,477,171.4,479.9,174.6z"/>
			<path class="st2" d="M478.7,175.2c-5.7,2-10.2-4.1-11.7-11.2C471.7,170.5,479.3,170.5,478.7,175.2z"/>
			<path class="st2" d="M483,181.9c4.4-1.2,1.8-15.1,1-20.7C483,166.9,479.9,180,483,181.9z"/>
			<path class="st2" d="M481.5,181.4c-0.2-4.8-5-3.4-8.3-6C473.7,177.8,475.7,182.1,481.5,181.4z"/>
			<path class="st2" d="M486.9,187.9c4.4-1.2,1.8-16.2,2-22.3C487.6,170.8,483.5,186.4,486.9,187.9z"/>
			<path class="st2" d="M484.9,187.2c-3.6,1.2-8.4-1.2-8.8-5.5C479.2,183.9,484.2,182.2,484.9,187.2z"/>
			<path class="st2" d="M490.2,194.5c4.2,0.3,2.3-12.4,2.3-24.3C491,181.3,486.8,191.4,490.2,194.5z"/>
			<path class="st2" d="M488.7,193.9c-2.8,1.4-7.9-0.9-9.4-5.7C484.5,190.5,487.9,188.3,488.7,193.9z"/>
			<path class="st2" d="M455.7,165.4c0.7,6.2,3.3,9.9,7.1,9.3C463.8,170.6,460.7,168.1,455.7,165.4z"/>
			<path class="st2" d="M465.7,181.3c-6.3,0.9-8.6-4-12.8-10.2C458.9,175.5,466,176.4,465.7,181.3L465.7,181.3z"/>
			<path class="st2" d="M467.5,180.6c3.4-4.1,0.1-9.3-2.5-13.7C465.6,173.5,463.3,177.1,467.5,180.6z"/>
			<path class="st2" d="M469.1,187.4c0.4-4-6.5-4.9-9.6-7.2C460.5,182.6,462.1,188.9,469.1,187.4L469.1,187.4z"/>
			<path class="st2" d="M470.5,187.5c4.8-0.5,2.8-8.6-0.6-13.1C471.3,180.6,467.4,184.9,470.5,187.5z"/>
			<path class="st2" d="M474.1,194.3c5.4-2.4,1.9-9.2-0.1-13.2C474.9,186.3,470.5,190.3,474.1,194.3z"/>
			<path class="st2" d="M473,193.6c-2.8,3.7-8.4-1.1-9.5-6.7C468.3,190.9,471.9,190.3,473,193.6z"/>
			<path class="st2" d="M485.4,219.8c0.6-5.5-3.6-15.6-0.7-20.9c0.4-0.7-0.9-2.7-1.7-1.5c-1.3,1.9-2.6,7.3-3.2,5.3
				c-0.6-2.2-0.7-6-2.6-6.7c-1.2-0.4-3-0.7-2.5,1.2c0.5,1.9,1.5,4.4,0.4,4.6c-0.7,0.1-2.6-2.5-4.3-3.7c-1.3-1.1-3.3,0.6-1.4,2.2
				C475.8,205.4,481.8,207.7,485.4,219.8L485.4,219.8z"/>
			<path class="st2" d="M496.7,303c0.7-0.1,1.7-0.4,0.8,0.8c-7.3,9-9.4,11.5-20.1,10.2c-10.8-1.4-13.4-4.3-20.9-8.6
				c-4-2.4-9.9-2.9-14.4-1.4c-2.1,0.7-3.3,0.7-1.8-0.8c1.5-1.5,3.3-3.5,5.1-4.9c4-3.1,10.8-4.4,16.4-3.4c7.9,1.2,14.4,6.2,22.2,8.1
				C487.9,303.9,492.4,303.8,496.7,303L496.7,303z"/>
			<path class="st2" d="M435,319.1c-1.4,0.2-2.2,2.8-2.9,1c-1.1-2.9-0.3-5.2,0.9-4.9C434.6,315.6,437.1,319,435,319.1L435,319.1z"/>
			<path class="st3" d="M501.7,215.4c1.6-1.6,1.1-2.3-1.2-2.3c-1.8-0.1-5.5,1.1-6.9,0.1c-1.3-0.9-0.8-4.8-1.3-6.6
				c-0.2-1-0.9-2.6-2.5-0.1c-4.7,7.5-10.5,16.5-13,25.3c-1.4,4.9-0.1,12.6,4.5,17.8c-0.2-4.4,1.5-7.4,3.5-11.1
				C487.2,233.6,496.4,220.5,501.7,215.4L501.7,215.4z"/>
			<path class="st2" d="M482.4,254.7c-5.1,0-6-6.9-6-8.8C478.9,246.4,483.4,250.7,482.4,254.7z"/>
			<path class="st2" d="M438,321.6c-3.7,0.8-3.6-8,0.1-11.7C436.5,315.5,440.9,320.7,438,321.6z"/>
			<path class="st2" d="M439.5,321.5c-0.2,4.2,10.3-0.5,13-3.8C446.2,320.3,439.8,318.2,439.5,321.5z"/>
			<path class="st2" d="M444.1,315.5c-0.4,4.1,9.1,0.5,11.9-2.7C449.8,314.9,444.5,312.2,444.1,315.5z"/>
			<path class="st2" d="M442.3,316.1c-3.7,0.8-3.1-8.3,0.5-11.4C441.1,310.8,445.2,315.2,442.3,316.1z"/>
			<path class="st2" d="M446.2,310.6c-3.7,0.8-1.6-7,1.2-10.1C446.9,306.1,448.7,310.1,446.2,310.6z"/>
			<path class="st2" d="M448.1,310.5c-0.4,4.2,7,1,9.9-3C451.8,309.6,448.5,307.2,448.1,310.5z"/>
			<path class="st2" d="M450.1,307.4c-2.4-1.7,0.1-6.3,4.7-6C454.4,304.1,452.8,309,450.1,307.4z"/>
			<path class="st2" d="M432.1,326.2c-0.2,4.2,10.3,2.1,13.6-2.4C439.1,325.1,432.4,322.9,432.1,326.2z"/>
			<path class="st2" d="M473.9,318.8c-0.4,4.2,11.1-0.4,14-4.4C481.7,316.4,474.3,315.4,473.9,318.8z"/>
			<path class="st2" d="M466.8,320.5c-2.4-1.7,2.5-6.2,6.4-7.2C472.8,316.1,469.5,322.1,466.8,320.5z"/>
			<path class="st2" d="M466.1,323.4c-0.3,3.8,12.3,1.7,15.6-1.8C470.9,323.6,466.5,320.2,466.1,323.4z"/>
			<path class="st2" d="M460.2,325.9c-1.4,3.5,10.7,2.6,14.9,0.6C468.3,326.5,461.2,323.5,460.2,325.9z"/>
			<path class="st2" d="M454.6,328.5c-1.3,3.1,9.8,3.1,15.2,1.3C462.6,329.7,455.9,325.4,454.6,328.5z"/>
			<path class="st2" d="M446.5,330.1c-2,3.7,9.8,4.1,13.6,2.2C453.3,331.4,448.2,327.2,446.5,330.1z"/>
			<path class="st2" d="M460.2,323.8c3.7,2.4,3.5-4.6,6.5-9.4C462.1,318.7,457.7,321.6,460.2,323.8L460.2,323.8z"/>
			<path class="st2" d="M453.6,326.3c3.1,2.8,5.6-6.8,8.5-12.1C457.5,319.3,450.7,324,453.6,326.3z"/>
			<path class="st2" d="M444.8,329c2.7,3.1,10.3-9.1,13.1-15.4C453.7,318.5,442.7,326.4,444.8,329z"/>
			<path class="st2" d="M452.3,338.2c1.3,4.7,20.9-4.4,23.1-9.1C464.2,335,452.1,333.8,452.3,338.2z"/>
			<path class="st2" d="M515.2,243.1c0.5-0.6,1.8,0,1.4,1.4c-0.3,1.9-3.2,11.9-8.1,15.3c-3.5,2.5-21.9,6.6-30.2,8.3
				c-4.6,0.9-8.4,3.2-11.4,6.9c1.2-4.8,2.2-8.3,3.9-12.6c1.6-3.8,5.7-8,10-8.2c8-0.3,18.3-1,25.8-4.2
				C510.4,248.3,512.7,246.1,515.2,243.1L515.2,243.1z"/>
			<path class="st2" d="M469.5,282.4c-2.5,1.8-5.3-4.8-2.1-11.1C467.5,277.4,472.4,279.4,469.5,282.4z"/>
			<path class="st2" d="M467.1,288.5c-3.5,1.1-4.6-5.1-2.3-10C464.5,283.7,470.3,286.9,467.1,288.5z"/>
			<path class="st2" d="M464.5,293.3c-3.4,1.7-4.6-4.5-2.2-9.1C462,290.1,467.1,291.8,464.5,293.3z"/>
			<path class="st2" d="M465.9,293.7c1.3,4,9-3.4,10.3-7.4C471.4,291,464.9,290.5,465.9,293.7z"/>
			<path class="st2" d="M469.4,287.6c1.5,4,11.2-6.3,13.3-11.2C477.9,281.2,468.3,284.8,469.4,287.6z"/>
			<path class="st2" d="M471.3,281.7c1.5,4.5,12-7.5,15-11.8C481.3,274.6,470.1,278.4,471.3,281.7z"/>
			<path class="st2" d="M471.6,277.2c-3.7-0.7,0.2-3.8,4.8-8.8C476.6,273.7,475.7,277.4,471.6,277.2z"/>
			<path class="st2" d="M477.9,274.2c-1.6-1.7,1.5-2.5,5.4-6.8C483.9,270.3,479.7,275.7,477.9,274.2z"/>
			<path class="st2" d="M459.9,293.8c-2,1.2-3.4-3-0.9-6.7C459.6,291.1,461.8,292.3,459.9,293.8z"/>
			<path class="st2" d="M504,267.6c4.3,2.6,11.2-7.7,13-12C513.2,260.5,503.2,264.9,504,267.6z"/>
			<path class="st2" d="M500.3,273.6c2.4,2.6,9.9-4.5,12.5-8.2C508.8,268.9,499.3,269.3,500.3,273.6z"/>
			<path class="st2" d="M496.3,279c0.8,3.6,11.7-4.5,14.3-8.4C505.8,275.1,495.5,274.7,496.3,279z"/>
			<path class="st2" d="M497.9,282.9c1.7,3.3,10.6-4.8,12.7-9C505.2,278.6,496.6,279.7,497.9,282.9z"/>
			<path class="st2" d="M502.5,267c-2.8-3-1.6-4.4,0.4-9C504.1,262.8,505.8,264.7,502.5,267z"/>
			<path class="st2" d="M498.8,272.6c-5.1,0.2,0-6,1.2-11.2C499.5,267.4,501.2,272.1,498.8,272.6z"/>
			<path class="st2" d="M495.5,277.6c-3.5-0.8-2.5-5.8,0.2-11.9C495.2,272.2,498.7,276,495.5,277.6z"/>
			<path class="st2" d="M496.7,287.5c1.3,4,11.4-5.2,13-8.7C504.6,283,495.8,284.5,496.7,287.5z"/>
			<path class="st2" d="M490.7,293.7c1.5,4,12-4.1,15.3-8.5C499.6,290.2,489.9,289.7,490.7,293.7z"/>
			<path class="st2" d="M484.6,299.9c1.7,5.5,12.7-3.3,16-7.6C493.5,297.6,483.7,296,484.6,299.9z"/>
			<path class="st2" d="M494.9,285.7c-3,1.5-4.2-6.9-2.5-12.9C492.4,279.3,498.4,284.2,494.9,285.7z"/>
			<path class="st2" d="M489.8,292.4c-3.6,1.1-2.5-8.1,0.6-14C490.8,284.3,493.5,289.9,489.8,292.4z"/>
			<path class="st2" d="M483.4,298.7c-4,0.2-1.3-7.8,2.1-12.4C484.9,292.3,486.8,298.1,483.4,298.7z"/>
			<path class="st2" d="M490.5,302.2c1.2,2,4.2-1.7,9-4.5C495.1,298.8,489.9,300.3,490.5,302.2z"/>
			<path class="st2" d="M492.8,234.2c-3.7-2.8-0.9-8,0-12.9C494,226,497.2,232.1,492.8,234.2z"/>
			<path class="st2" d="M492.9,241.1c5.6-0.7,4.8-8,5-12.6C496.2,234.8,491.5,235.8,492.9,241.1z"/>
			<path class="st2" d="M492,240.1c-4.8-0.3-4.5-5.7-4.8-11.2C489.7,234,492.5,234.8,492,240.1z"/>
			<path class="st2" d="M492.2,246.9c3.7,0.3,5.6-3.3,6.5-9C495.2,243.1,492,241.5,492.2,246.9z"/>
			<path class="st2" d="M490.9,246.4c-4.8,0.6-4-4.9-3.8-9C488.5,241.3,492.4,242.5,490.9,246.4z"/>
			<path class="st2" d="M498.3,244.1c-0.4,3.6-2.7,9.8-6.4,8.4C490.4,248.1,495.2,247.2,498.3,244.1z"/>
			<path class="st2" d="M490.8,252.9c1.7-3.2-3.7-4.8-4.9-8.9C485.3,249.9,485.8,253.8,490.8,252.9z"/>
			<path class="st2" d="M506.2,215.3c-3-3.2-0.3-8.3,0.5-13.2C507.9,206.8,510,213,506.2,215.3z"/>
			<path class="st2" d="M506.3,221.2c5.2,0.5,6.5-10.1,7-14.6C511.6,212.9,505.6,215.7,506.3,221.2z"/>
			<path class="st2" d="M505.2,221.1c-3.7-1.9-2.8-6-4-9.1C503.7,215.8,505.9,216.4,505.2,221.1z"/>
			<path class="st2" d="M506.2,228.1c5.4,0.5,8.7-11.3,8.9-15.9C513.4,218.4,505.6,221.8,506.2,228.1z"/>
			<path class="st2" d="M505.2,227.9c-5.1-1.2-4.5-4.5-3.7-9.9C503.1,223.4,505.9,222.3,505.2,227.9z"/>
			<path class="st2" d="M506.3,234.8c6,1,5.6-8.5,10.3-15.3C512.5,224.6,505.1,231,506.3,234.8z"/>
			<path class="st2" d="M504.9,234.5c-4.5,0.1-5-6.7-4.7-9.4C501.3,227.8,506.6,230.4,504.9,234.5z"/>
			<path class="st2" d="M515.7,227.5c-2.2,7.3-5.4,14.6-9.4,14C504.4,237.4,510,236.9,515.7,227.5z"/>
			<path class="st2" d="M504.9,240.5c1.7-3.2-3.7-4.8-4.9-8.9C499.3,237.5,499.9,241.4,504.9,240.5z"/>
			<path class="st2" d="M514.1,235.9c-3.2,6.6-4.7,14.1-9.1,13C503.4,243.8,509.9,242.7,514.1,235.9z"/>
			<path class="st2" d="M504.1,247.6c1.9-3.5-3.5-4.7-4.8-9.5C498.6,244.4,499.3,248.9,504.1,247.6z"/>
			<path class="st2" d="M494.9,203.2c-3.2,0.9-6.5-2.7-5.3-8C493.2,196.1,494.8,199.3,494.9,203.2z"/>
			<path class="st2" d="M505,200.5c-0.3,1.5-2.1,1.6-1.6-0.5c0.4-1.7,0.5-3,0-4.4c-0.7-1.7-0.5-4.7,0.1-6c0.5-1.3,2.3-0.5,1.6,0.5
				c-0.8,1.2-0.9,3.7-0.3,4.8C505.5,196.7,505.3,198.9,505,200.5L505,200.5z"/>
			<path class="st2" d="M475.5,221c1.2,1.8,3.7,0.7,1.8-1.8c-1.6-2-3.8-3.6-3.9-5.7c-0.1-2.6-1.7-6.6-3.1-7.9
				c-1.4-1.4-3.1,0.6-1.6,1.5c1.7,1.1,2.9,5.7,2.8,7.5C471.6,217.3,474.2,219.2,475.5,221L475.5,221z"/>
			<path class="st2" d="M479.4,218.2c1.2,1.8,3.2,0.8,2.1-2.1c-0.9-2-1-4.5-2.1-5.9c-1.5-2.2-3.9-4.1-5.3-5.4
				c-1.4-1.4-2.6-0.1-1.3,1.2c1.6,1.6,3.3,3.6,4.3,5.1C478.9,213.9,478.1,216.3,479.4,218.2L479.4,218.2z"/>
			<path class="st2" d="M499.7,208.9c0.1,2.5-1.9,3.2-1.8-0.5c0.1-3.8,2.8-7.4,1.1-13.2c-0.9-2.9-0.9-8.1-0.4-10.9
				c0.5-2.8,2.4-1,1.7,1.2c-0.8,2.5,0.2,7.3,0.8,9.7C503,202.1,499.5,205.5,499.7,208.9L499.7,208.9z"/>
			<path class="st2" d="M494.1,194.8c0.3,2.3,2.3,2.5,1.7-0.8c-0.5-2.7-0.6-4.7,0-6.9c0.8-2.7,0.5-7.4-0.1-9.3
				c-0.6-2-2.5-0.8-1.7,0.8c0.9,1.9,0.9,5.7,0.3,7.5C493.5,188.8,493.8,192.4,494.1,194.8L494.1,194.8z"/>
			<path class="st2" d="M514.2,242.6c-1,1.2-2.6,0.4-1.1-1.2c1.2-1.3,0.8-1.7,1.6-3.2c0.7-1.7,0.7-2.7,1.6-3.9c0.8-1.2,2,0,1.2,1
				c-1,1.2-0.7,2-1.3,3.2C514.9,240.3,515.2,241.4,514.2,242.6L514.2,242.6z"/>
			<path class="st2" d="M487.8,274.3c-3.1,1.5-5.5,5.4-5.7,8.6c-0.3,3.6-0.8,6.7-2.4,9.3c2.6-0.7,3.8-4.8,4.2-8.8
				C484.3,279.2,486.5,277.5,487.8,274.3L487.8,274.3z"/>
			<path class="st2" d="M481.3,281.9c-2.2,4-5.2,5.6-5.4,8.5c-0.3,3.4-0.5,3.6-1.5,7c2.6-0.7,3.2-0.9,3.9-6
				C478.8,287.8,481.7,285.2,481.3,281.9L481.3,281.9z"/>
			<path class="st3" d="M413.5,319.1c-1.2,2.3-2.6,5.8-5.2,5.2C408.3,322.5,411.1,321.3,413.5,319.1z M409.7,319.9
				c-4.9,2-9.2,1.5-9.7,4.6C404.6,325,406.3,323.1,409.7,319.9z M430.4,303.5c-3.3,2.7-5.5,5.8-6.5,9.9c-1.1,3.8-2.5,6.7-4.7,10.1
				c3.5-2.4,5.8-5.7,6.9-9.6C427.1,310,428.2,307.1,430.4,303.5L430.4,303.5z M426.3,303.5c-3.6,2.9-6.9,6.1-7.9,10.1
				c-1.1,3.8-1.7,6.6-4.1,10.4c3.8-2.4,5.3-6,6.4-10C421.7,310.1,423.9,307.2,426.3,303.5L426.3,303.5z M414.6,312.8
				c0.1-0.7-0.4-1.3-1-1.5c-1.1-0.4-2.3-0.8-3.4-1.1c-1.3-0.3-2,0.6-2,1.2c0,1-0.1,1.8,0,2.6c0.1,0.9,0.2,1,0.8,1.1
				c1,0.2,2.2,0.3,3.1,1c0.8,0.5,1.5,0.1,1.9-0.7C414.3,314.8,414.4,313.6,414.6,312.8L414.6,312.8z M400.8,312.8
				c-0.1-0.7,0.3-1.4,0.8-1.6c1-0.4,2-0.5,3.1-0.5c1.2,0,1.5,0.2,1.5,0.8c0,1,0,2,0,2.7c-0.1,0.9,0,1-0.6,1.1
				c-0.9,0.2-2.3,0.2-3.2,0.8c-0.7,0.5-1.4,0.1-1.5-0.8C401,314.9,400.9,313.6,400.8,312.8L400.8,312.8z"/>
		</g>
		<g id="c_3_">
			<path class="st2" d="M344.2,220c-1.6-2.6-3.5,3.5-10,8.1c-3,2.1-5.2,7.6-5.2,11.2c-0.1,2.5,0.3,5,0,7.4c-0.2,1.5-1.8,4.9-0.7,5.8
				c2.9,2.1,6.6,7,8.3,8.7c1.5,1.3,2.8-6.8,3.9-10.4c1.2-3.9,0.7-8.5,4-12.1c2.4-2.4,8.3-4.8,7.7-5.9L344.2,220L344.2,220z"/>
			<path class="st5" d="M343.9,239.8c-0.5-1.1-1.2-2.3-2.1-3.3c-0.9-1-2-1.9-3.1-2.3c-1.1-0.4-2.3-1-3.1-2c-0.4-0.5-0.8-1.1-0.9-1.9
				c-0.2-0.7-0.2-1.6,0-2.5c-0.1,0.1-0.2,0.2-0.4,0.3c-3,2.1-5.2,7.6-5.2,11.2c0,1,0,2,0,3c0.2,0.6,0.4,1.2,0.8,1.6
				c0.4,0.5,0.9,0.8,1.5,1c1.1,0.5,2.3,0.5,3.4,1c1.2,0.4,2.4,1.4,3.4,2.5c1,1.1,1.8,2.3,2.3,3.4c0.1-0.3,0.2-0.8,0.3-1
				C341.7,247.3,341.5,243.2,343.9,239.8L343.9,239.8z"/>
			<path class="st4" d="M334.6,227.6c-0.6,4.3,1.8,5.8,4.1,6.6c2.4,0.8,4.3,3.4,5.3,5.6"/>
			<path class="st4" d="M328.7,241.8c1,3.7,3.6,3.3,5.9,4.1c2.4,0.8,4.8,3.8,5.8,6.1"/>
			<path class="st2" d="M342,217.4l1.2-0.8l22.9,38.6l-1.2,0.8L342,217.4L342,217.4z"/>
			<path class="st2" d="M344.5,215.9c0,1.5-1.2,2.6-2.6,2.6c-1.5,0-2.6-1.2-2.6-2.6l0,0c0-1.5,1.2-2.6,2.6-2.6
				C343.3,213.2,344.5,214.4,344.5,215.9z"/>
			<rect x="364.1" y="184.9" class="st2" width="9.3" height="2.1"/>
			<rect x="364.1" y="188.9" class="st2" width="9.3" height="17.8"/>
			<path class="st2" d="M363.5,182.5l10.3,0.1c0.4-3.5-3.1-7.3-5.1-7.2C366.7,175.4,363.4,179.1,363.5,182.5L363.5,182.5z"/>
			<path class="st6" d="M389.8,180.4c-2,0.8-3.5,3.1-4.4,5.6c-0.9,2.6-1.3,5.5-0.8,7.9v0c0.2,0.8,0.4,1.4,0.6,1.8
				c0.3,0.4,0.5,0.7,0.9,0.7c0.3,0.1,0.7-0.1,0.8-0.4c0.2-0.3,0.3-0.7,0.2-1.1c-0.2-2.4-0.2-4.8,0.4-7c0.6-2.2,1.7-4.1,3.8-5.6
				c0.4-0.3,0.6-0.6,0.6-0.9c0-0.3-0.1-0.6-0.4-0.8C391.2,180.2,390.5,180.1,389.8,180.4L389.8,180.4z M390,180.9
				c0.5-0.2,1.1-0.1,1.3,0.1c0.1,0.1,0.1,0.2,0.1,0.3c0,0.1-0.1,0.3-0.4,0.5c-2.2,1.6-3.4,3.7-4,6c-0.6,2.3-0.6,4.7-0.4,7.2
				c0,0.3-0.1,0.6-0.2,0.7c-0.1,0.1-0.1,0.2-0.2,0.2c-0.1,0-0.3-0.2-0.5-0.5s-0.4-0.8-0.6-1.6c-0.4-2.2,0-5.1,0.8-7.6
				C386.8,183.7,388.3,181.6,390,180.9L390,180.9z"/>
			<path class="st6" d="M393.1,182.9c-2,0.8-3.2,3-3.9,5.4c-0.7,2.4-0.8,5.2-0.4,7.6c0.3,1.7,1.2,2.5,2.1,2.7
				c0.4,0.1,0.8-0.1,1.1-0.4c0.3-0.3,0.3-0.8,0.2-1.4c-0.5-1.9-0.7-4.3-0.3-6.5c0.3-2.2,1.2-4.1,2.9-5.3c0.4-0.3,0.6-0.6,0.6-0.9
				c0-0.3-0.1-0.7-0.4-0.8C394.5,182.7,393.8,182.6,393.1,182.9L393.1,182.9z M393.3,183.5c0.5-0.2,1-0.1,1.3,0.1
				c0.1,0.1,0.2,0.2,0.2,0.3c0,0.1-0.1,0.3-0.4,0.5c-1.8,1.3-2.7,3.4-3.1,5.7c-0.4,2.3-0.1,4.7,0.4,6.7c0.1,0.5,0,0.8-0.1,0.9
				c-0.1,0.2-0.3,0.2-0.5,0.2c-0.5-0.1-1.3-0.7-1.6-2.2c-0.4-2.2-0.3-5,0.4-7.3C390.4,186.1,391.6,184.2,393.3,183.5L393.3,183.5z"
				/>
			<rect x="363.6" y="221.1" class="st2" width="10.4" height="14.3"/>
			<rect x="364.2" y="243.7" class="st2" width="10" height="3"/>
			<rect x="363.9" y="249" class="st2" width="10.2" height="11.2"/>
			<rect x="363.2" y="262.4" class="st2" width="11.2" height="6.3"/>
			<path class="st2" d="M364.6,241h9l1.8-3H363L364.6,241L364.6,241z"/>
			<path class="st2" d="M376.8,230l0.1-7.8h6.2C380.6,224.2,378.4,226.6,376.8,230z"/>
			<path class="st4" d="M365.2,233.2c0.1,1.7,2,0.9,2,0.1c0-2.6,0-5.4-0.1-7.2c0-1.3,3.2-1,3.2-0.2c0,2.2,0,5.2,0,7.7
				c0,1.2,2.1,1.1,2.1,0c0-2.9,0-7,0-9.1c0-2.7-7.1-2.6-7.2-0.1C365.2,226.6,365.2,230.4,365.2,233.2L365.2,233.2z"/>
			<rect x="365.2" y="250.3" class="st4" width="7.3" height="9.1"/>
			<rect x="369.9" y="254.1" class="st2" width="2.6" height="1.5"/>
			<rect x="365.4" y="254.1" class="st2" width="2.5" height="1.5"/>
			<rect x="367.9" y="250.4" class="st2" width="2" height="3.7"/>
			<rect x="367.9" y="255.5" class="st2" width="2" height="4"/>
			<path class="st2" d="M327.1,158.7c0.5,7.2-1.8,11.1-5.6,10.5C320.4,165.2,322.8,162.6,327.1,158.7z"/>
			<path class="st2" d="M318.7,174.6c-3.4-1.7-0.9-14.8,0.4-20.4C320,161.4,321.6,171.4,318.7,174.6z"/>
			<path class="st2" d="M319.9,175.2c5.7,2,10.2-4.1,11.7-11.2C326.9,170.5,319.3,170.5,319.9,175.2z"/>
			<path class="st2" d="M315.6,181.9c-4.4-1.2-1.8-15.1-1-20.7C315.6,166.9,318.7,180,315.6,181.9z"/>
			<path class="st2" d="M317.1,181.4c0.2-4.8,5-3.4,8.3-6C324.9,177.8,322.9,182.1,317.1,181.4z"/>
			<path class="st2" d="M311.7,187.9c-4.4-1.2-1.8-16.2-2-22.3C311,170.8,315.1,186.4,311.7,187.9z"/>
			<path class="st2" d="M313.7,187.2c3.6,1.2,8.4-1.2,8.8-5.5C319.4,183.9,314.4,182.2,313.7,187.2z"/>
			<path class="st2" d="M308.4,194.5c-4.2,0.3-2.3-12.4-2.3-24.3C307.6,181.3,311.8,191.4,308.4,194.5z"/>
			<path class="st2" d="M309.9,193.9c2.8,1.4,7.9-0.9,9.4-5.7C314.1,190.5,310.7,188.3,309.9,193.9z"/>
			<path class="st2" d="M342.9,165.4c-0.7,6.2-3.3,9.9-7.1,9.3C334.8,170.6,337.8,168.1,342.9,165.4z"/>
			<path class="st2" d="M332.8,181.3c6.3,0.9,8.6-4,12.8-10.2C339.7,175.5,332.6,176.4,332.8,181.3L332.8,181.3z"/>
			<path class="st2" d="M331.1,180.6c-3.4-4.1-0.1-9.3,2.5-13.7C333,173.5,335.2,177.1,331.1,180.6z"/>
			<path class="st2" d="M329.5,187.4c-0.4-4,6.5-4.9,9.6-7.2C338.1,182.6,336.5,188.9,329.5,187.4L329.5,187.4z"/>
			<path class="st2" d="M328.1,187.5c-4.8-0.5-2.8-8.6,0.6-13.1C327.3,180.6,331.2,184.9,328.1,187.5z"/>
			<path class="st2" d="M324.5,194.3c-5.4-2.4-1.9-9.2,0.1-13.2C323.7,186.3,328.1,190.3,324.5,194.3z"/>
			<path class="st2" d="M325.6,193.6c2.8,3.7,8.4-1.1,9.5-6.7C330.3,190.9,326.7,190.3,325.6,193.6z"/>
			<path class="st2" d="M313.2,219.8c-0.6-5.5,3.6-15.6,0.7-20.9c-0.4-0.7,0.9-2.7,1.7-1.5c1.3,1.9,2.6,7.3,3.2,5.3
				c0.6-2.2,0.7-6,2.6-6.7c1.2-0.4,3-0.7,2.5,1.2c-0.5,1.9-1.5,4.4-0.4,4.6c0.7,0.1,2.6-2.5,4.3-3.7c1.3-1.1,3.3,0.6,1.4,2.2
				C322.8,205.4,316.7,207.7,313.2,219.8L313.2,219.8z"/>
			<path class="st2" d="M301.9,303c-0.7-0.1-1.7-0.4-0.8,0.8c7.3,9,9.4,11.5,20.1,10.2c10.8-1.4,13.4-4.3,20.9-8.6
				c4-2.4,9.9-2.9,14.4-1.4c2.1,0.7,3.3,0.7,1.8-0.8c-1.5-1.5-3.3-3.5-5.1-4.9c-4-3.1-10.8-4.4-16.4-3.4c-7.9,1.2-14.4,6.2-22.2,8.1
				C310.7,303.9,306.2,303.8,301.9,303L301.9,303z"/>
			<path class="st2" d="M363.6,319.1c1.4,0.2,2.2,2.8,2.9,1c1.1-2.9,0.3-5.2-0.9-4.9C364,315.6,361.5,319,363.6,319.1L363.6,319.1z"
				/>
			<path class="st3" d="M296.9,215.4c-1.6-1.6-1.1-2.3,1.2-2.3c1.8-0.1,5.5,1.1,6.9,0.1c1.3-0.9,0.8-4.8,1.3-6.6
				c0.2-1,0.9-2.6,2.5-0.1c4.7,7.5,10.5,16.5,13,25.3c1.4,4.9,0.1,12.6-4.5,17.8c0.2-4.4-1.5-7.4-3.5-11.1
				C311.4,233.6,302.2,220.5,296.9,215.4L296.9,215.4z"/>
			<path class="st2" d="M316.1,254.7c5.1,0,6-6.9,6-8.8C319.6,246.4,315.2,250.7,316.1,254.7z"/>
			<path class="st2" d="M360.5,321.6c3.7,0.8,3.6-8-0.1-11.7C362.1,315.5,357.7,320.7,360.5,321.6z"/>
			<path class="st2" d="M359.1,321.5c0.2,4.2-10.3-0.5-13-3.8C352.4,320.3,358.8,318.2,359.1,321.5z"/>
			<path class="st2" d="M354.5,315.5c0.4,4.1-9.1,0.5-11.9-2.7C348.8,314.9,354.1,312.2,354.5,315.5z"/>
			<path class="st2" d="M356.3,316.1c3.7,0.8,3.1-8.3-0.5-11.4C357.5,310.8,353.4,315.2,356.3,316.1z"/>
			<path class="st2" d="M352.4,310.6c3.7,0.8,1.6-7-1.2-10.1C351.7,306.1,349.9,310.1,352.4,310.6z"/>
			<path class="st2" d="M350.5,310.5c0.4,4.2-7,1-9.9-3C346.8,309.6,350.1,307.2,350.5,310.5z"/>
			<path class="st2" d="M348.5,307.4c2.4-1.7-0.1-6.3-4.7-6C344.2,304.1,345.8,309,348.5,307.4z"/>
			<path class="st2" d="M366.5,326.2c0.2,4.2-10.3,2.1-13.6-2.4C359.5,325.1,366.2,322.9,366.5,326.2z"/>
			<path class="st2" d="M324.7,318.8c0.4,4.2-11.1-0.4-14-4.4C316.9,316.4,324.3,315.4,324.7,318.8z"/>
			<path class="st2" d="M331.8,320.5c2.4-1.7-2.5-6.2-6.4-7.2C325.8,316.1,329.1,322.1,331.8,320.5z"/>
			<path class="st2" d="M332.5,323.4c0.3,3.8-12.3,1.7-15.6-1.8C327.7,323.6,332.1,320.2,332.5,323.4z"/>
			<path class="st2" d="M338.4,325.9c1.4,3.5-10.7,2.6-14.9,0.6C330.3,326.5,337.4,323.5,338.4,325.9z"/>
			<path class="st2" d="M344,328.5c1.3,3.1-9.8,3.1-15.2,1.3C336,329.7,342.7,325.4,344,328.5z"/>
			<path class="st2" d="M352.1,330.1c2,3.7-9.8,4.1-13.6,2.2C345.3,331.4,350.4,327.2,352.1,330.1z"/>
			<path class="st2" d="M338.3,323.8c-3.7,2.4-3.5-4.6-6.5-9.4C336.5,318.7,340.9,321.6,338.3,323.8L338.3,323.8z"/>
			<path class="st2" d="M345,326.3c-3.1,2.8-5.6-6.8-8.5-12.1C341.1,319.3,347.9,324,345,326.3z"/>
			<path class="st2" d="M353.7,329c-2.7,3.1-10.3-9.1-13.1-15.4C344.9,318.5,355.9,326.4,353.7,329z"/>
			<path class="st2" d="M346.3,338.2c-1.3,4.7-20.9-4.4-23.1-9.1C334.4,335,346.5,333.8,346.3,338.2z"/>
			<path class="st2" d="M283.4,243.1c-0.5-0.6-1.8,0-1.4,1.4c0.3,1.9,3.2,11.9,8.1,15.3c3.5,2.5,21.9,6.6,30.2,8.3
				c4.6,0.9,8.4,3.2,11.4,6.9c-1.2-4.8-2.2-8.3-3.9-12.6c-1.6-3.8-5.7-8-10-8.2c-8-0.3-18.3-1-25.8-4.2
				C288.2,248.3,285.9,246.1,283.4,243.1L283.4,243.1z"/>
			<path class="st2" d="M329.1,282.4c2.5,1.8,5.3-4.8,2.1-11.1C331,277.4,326.2,279.4,329.1,282.4z"/>
			<path class="st2" d="M331.5,288.5c3.5,1.1,4.6-5.1,2.3-10C334.1,283.7,328.3,286.9,331.5,288.5z"/>
			<path class="st2" d="M334.1,293.3c3.4,1.7,4.6-4.5,2.2-9.1C336.6,290.1,331.5,291.8,334.1,293.3z"/>
			<path class="st2" d="M332.7,293.7c-1.3,4-9-3.4-10.3-7.4C327.2,291,333.7,290.5,332.7,293.7z"/>
			<path class="st2" d="M329.2,287.6c-1.5,4-11.2-6.3-13.3-11.2C320.7,281.2,330.3,284.8,329.2,287.6z"/>
			<path class="st2" d="M327.3,281.7c-1.5,4.5-12-7.5-15-11.8C317.3,274.6,328.5,278.4,327.3,281.7z"/>
			<path class="st2" d="M327,277.2c3.7-0.7-0.2-3.8-4.8-8.8C322,273.7,322.9,277.4,327,277.2z"/>
			<path class="st2" d="M320.7,274.2c1.6-1.7-1.5-2.5-5.4-6.8C314.7,270.3,318.9,275.7,320.7,274.2z"/>
			<path class="st2" d="M338.7,293.8c2,1.2,3.4-3,0.9-6.7C339,291.1,336.8,292.3,338.7,293.8z"/>
			<path class="st2" d="M294.6,267.6c-4.3,2.6-11.2-7.7-13-12C285.4,260.5,295.4,264.9,294.6,267.6z"/>
			<path class="st2" d="M298.2,273.6c-2.4,2.6-9.9-4.5-12.5-8.2C289.8,268.9,299.3,269.3,298.2,273.6z"/>
			<path class="st2" d="M302.3,279c-0.8,3.6-11.7-4.5-14.3-8.4C292.8,275.1,303.1,274.7,302.3,279z"/>
			<path class="st2" d="M300.7,282.9c-1.7,3.3-10.6-4.8-12.7-9C293.4,278.6,302,279.7,300.7,282.9z"/>
			<path class="st2" d="M296.1,267c2.8-3,1.6-4.4-0.4-9C294.5,262.8,292.8,264.7,296.1,267z"/>
			<path class="st2" d="M299.8,272.6c5.1,0.2,0-6-1.2-11.2C299.1,267.4,297.3,272.1,299.8,272.6z"/>
			<path class="st2" d="M303.1,277.6c3.5-0.8,2.5-5.8-0.2-11.9C303.4,272.2,299.9,276,303.1,277.6z"/>
			<path class="st2" d="M301.9,287.5c-1.3,4-11.4-5.2-13-8.7C294,283,302.8,284.5,301.9,287.5z"/>
			<path class="st2" d="M307.9,293.7c-1.5,4-12-4.1-15.3-8.5C299,290.2,308.7,289.7,307.9,293.7z"/>
			<path class="st2" d="M314,299.9c-1.7,5.5-12.7-3.3-16-7.6C305,297.6,314.9,296,314,299.9z"/>
			<path class="st2" d="M303.7,285.7c3,1.5,4.2-6.9,2.5-12.9C306.2,279.3,300.2,284.2,303.7,285.7z"/>
			<path class="st2" d="M308.8,292.4c3.6,1.1,2.5-8.1-0.6-14C307.8,284.3,305.1,289.9,308.8,292.4z"/>
			<path class="st2" d="M315.2,298.7c4,0.2,1.3-7.8-2.1-12.4C313.7,292.3,311.8,298.1,315.2,298.7z"/>
			<path class="st2" d="M308.1,302.2c-1.2,2-4.2-1.7-9-4.5C303.5,298.8,308.6,300.3,308.1,302.2z"/>
			<path class="st2" d="M305.8,234.2c3.7-2.8,0.9-8,0-12.9C304.6,226,301.4,232.1,305.8,234.2z"/>
			<path class="st2" d="M305.7,241.1c-5.6-0.7-4.8-8-5-12.6C302.4,234.8,307,235.8,305.7,241.1z"/>
			<path class="st2" d="M306.6,240.1c4.8-0.3,4.5-5.7,4.8-11.2C308.9,234,306.1,234.8,306.6,240.1z"/>
			<path class="st2" d="M306.4,246.9c-3.7,0.3-5.6-3.3-6.5-9C303.4,243.1,306.6,241.5,306.4,246.9z"/>
			<path class="st2" d="M307.7,246.4c4.8,0.6,4-4.9,3.8-9C310.1,241.3,306.2,242.5,307.7,246.4z"/>
			<path class="st2" d="M300.3,244.1c0.4,3.6,2.7,9.8,6.4,8.4C308.2,248.1,303.4,247.2,300.3,244.1z"/>
			<path class="st2" d="M307.8,252.9c-1.7-3.2,3.7-4.8,4.9-8.9C313.3,249.9,312.8,253.8,307.8,252.9z"/>
			<path class="st2" d="M292.4,215.3c3-3.2,0.3-8.3-0.5-13.2C290.7,206.8,288.6,213,292.4,215.3z"/>
			<path class="st2" d="M292.3,221.2c-5.2,0.5-6.5-10.1-7-14.6C287,212.9,293,215.7,292.3,221.2z"/>
			<path class="st2" d="M293.4,221.1c3.7-1.9,2.8-6,4-9.1C294.9,215.8,292.6,216.4,293.4,221.1z"/>
			<path class="st2" d="M292.4,228.1c-5.4,0.5-8.7-11.3-8.9-15.9C285.2,218.4,293,221.8,292.4,228.1z"/>
			<path class="st2" d="M293.4,227.9c5.1-1.2,4.5-4.5,3.7-9.9C295.5,223.4,292.7,222.3,293.4,227.9z"/>
			<path class="st2" d="M292.3,234.8c-6,1-5.6-8.5-10.3-15.3C286.1,224.6,293.5,231,292.3,234.8z"/>
			<path class="st2" d="M293.7,234.5c4.5,0.1,5-6.7,4.7-9.4C297.3,227.8,292,230.4,293.7,234.5z"/>
			<path class="st2" d="M282.9,227.5c2.2,7.3,5.4,14.6,9.4,14C294.2,237.4,288.6,236.9,282.9,227.5z"/>
			<path class="st2" d="M293.7,240.5c-1.7-3.2,3.7-4.8,4.9-8.9C299.3,237.5,298.7,241.4,293.7,240.5z"/>
			<path class="st2" d="M284.5,235.9c3.2,6.6,4.7,14.1,9.1,13C295.2,243.8,288.7,242.7,284.5,235.9z"/>
			<path class="st2" d="M294.5,247.6c-1.9-3.5,3.5-4.7,4.8-9.5C300,244.4,299.3,248.9,294.5,247.6z"/>
			<path class="st2" d="M303.7,203.2c3.2,0.9,6.5-2.7,5.3-8C305.4,196.1,303.7,199.3,303.7,203.2z"/>
			<path class="st2" d="M293.6,200.5c0.3,1.5,2.1,1.6,1.6-0.5c-0.4-1.7-0.5-3,0-4.4c0.7-1.7,0.5-4.7-0.1-6c-0.5-1.3-2.3-0.5-1.6,0.5
				c0.8,1.2,0.9,3.7,0.3,4.8C293.1,196.7,293.3,198.9,293.6,200.5L293.6,200.5z"/>
			<path class="st2" d="M323.1,221c-1.2,1.8-3.7,0.7-1.8-1.8c1.6-2,3.8-3.6,3.9-5.7c0.1-2.6,1.7-6.6,3.1-7.9
				c1.4-1.4,3.1,0.6,1.6,1.5c-1.7,1.1-2.9,5.7-2.8,7.5C326.9,217.3,324.4,219.2,323.1,221L323.1,221z"/>
			<path class="st2" d="M319.2,218.2c-1.2,1.8-3.2,0.8-2.1-2.1c0.9-2,1-4.5,2.1-5.9c1.5-2.2,3.9-4.1,5.3-5.4
				c1.4-1.4,2.6-0.1,1.3,1.2c-1.6,1.6-3.3,3.6-4.3,5.1C319.7,213.9,320.5,216.3,319.2,218.2L319.2,218.2z"/>
			<path class="st2" d="M298.9,208.9c-0.1,2.5,1.9,3.2,1.8-0.5c-0.1-3.8-2.8-7.4-1.1-13.2c0.9-2.9,0.9-8.1,0.4-10.9
				c-0.5-2.8-2.4-1-1.7,1.2c0.8,2.5-0.2,7.3-0.8,9.7C295.6,202.1,299,205.5,298.9,208.9L298.9,208.9z"/>
			<path class="st2" d="M304.5,194.8c-0.3,2.3-2.3,2.5-1.7-0.8c0.5-2.7,0.6-4.7,0-6.9c-0.8-2.7-0.5-7.4,0.1-9.3
				c0.6-2,2.5-0.8,1.7,0.8c-0.9,1.9-0.9,5.7-0.3,7.5C305,188.8,304.8,192.4,304.5,194.8L304.5,194.8z"/>
			<path class="st2" d="M284.4,242.6c1,1.2,2.6,0.4,1.1-1.2c-1.2-1.3-0.8-1.7-1.6-3.2c-0.7-1.7-0.7-2.7-1.6-3.9c-0.8-1.2-2,0-1.2,1
				c1,1.2,0.7,2,1.3,3.2C283.7,240.3,283.4,241.4,284.4,242.6L284.4,242.6z"/>
			<path class="st2" d="M310.7,274.3c3.1,1.5,5.5,5.4,5.7,8.6c0.3,3.6,0.8,6.7,2.4,9.3c-2.6-0.7-3.8-4.8-4.2-8.8
				C314.3,279.2,312.1,277.5,310.7,274.3L310.7,274.3z"/>
			<path class="st2" d="M317.3,281.9c2.2,4,5.2,5.6,5.4,8.5c0.3,3.4,0.5,3.6,1.5,7c-2.6-0.7-3.2-0.9-3.9-6
				C319.8,287.8,316.9,285.2,317.3,281.9L317.3,281.9z"/>
			<path class="st3" d="M385.1,319.1c1.2,2.3,2.6,5.8,5.2,5.2C390.3,322.5,387.5,321.3,385.1,319.1z"/>
			<path class="st3" d="M388.9,319.9c4.9,2,9.2,1.5,9.7,4.6C394,325,392.3,323.1,388.9,319.9z"/>
			<path class="st3" d="M368.1,303.5c3.3,2.7,5.5,5.8,6.5,9.9c1.1,3.8,2.5,6.7,4.7,10.1c-3.5-2.4-5.8-5.7-6.9-9.6
				C371.5,310,370.4,307.1,368.1,303.5L368.1,303.5z"/>
			<path class="st3" d="M372.2,303.5c3.6,2.9,6.9,6.1,7.9,10.1c1.1,3.8,1.7,6.6,4.1,10.4c-3.8-2.4-5.3-6-6.4-10
				C376.9,310.1,374.7,307.2,372.2,303.5L372.2,303.5z"/>
			<path class="st3" d="M384,312.8c-0.1-0.7,0.4-1.3,1-1.5c1.1-0.4,2.3-0.8,3.4-1.1c1.3-0.3,2,0.6,2,1.2c0,1,0.1,1.8,0,2.6
				c-0.1,0.9-0.2,1-0.8,1.1c-1,0.2-2.2,0.3-3.1,1c-0.8,0.5-1.5,0.1-1.9-0.7C384.3,314.8,384.1,313.6,384,312.8L384,312.8z"/>
			<path class="st3" d="M397.7,312.8c0.1-0.7-0.3-1.4-0.8-1.6c-1-0.4-2-0.5-3.1-0.5c-1.2,0-1.5,0.2-1.5,0.8c0,1,0,2,0,2.7
				c0.1,0.9,0,1,0.6,1.1c0.9,0.2,2.3,0.2,3.2,0.8c0.7,0.5,1.4,0.1,1.5-0.8C397.6,314.9,397.7,313.6,397.7,312.8L397.7,312.8z"/>
		</g>
		<g>
			<path class="st3" d="M436.1,349.2c0.1,1.5,0.2,2.7,1.1,4c-5.3-2.1-12.7-1-17.8,1.4c-2.3,1.1-5-1.2-2.3-3.4
				C420.9,348,429.7,349.8,436.1,349.2L436.1,349.2z M361.9,349.1c0.1,1.4-0.1,2.8-0.6,4c5.7-2.4,11.8-0.4,17.6,1.9
				c4,1.6,4.3-1.2,3.6-2.2c-1.2-1.7-3.5-3.7-6.5-3.7C374.1,349.1,366.5,349,361.9,349.1L361.9,349.1z M366.8,321.2
				c-1.6-0.7-3.4,0-5.1,1.7c-5.6,5.5-12.1,10.8-17.4,14.9c-2,1.7-4,4.8,4.4,7.9c0.3,0.1,6.4,2.4,10.3,2.5c1.6,0,1.6,2.3,1.3,3
				c-0.7,1.3-0.2,1.7-1.5,3c-1.4,1.2,0.2,2.7,1.3,1.7c4.7-4.1,12.4-1.5,19.8,0.9c1.7,0.5,4.9,0.3,4.9-2.1c0-2.6,1.9-4.5,3.1-4.6
				c3,0.5,18,0.7,22.6,0.1c2.7-0.3,2.8,3.7,4.3,5.3c1,1.1,4.8,1.3,7.4,0.2c5.2-2.4,13-2.4,16.2-0.1c1.3,1,2.4,0.2,1.6-0.8
				c-1-1.4-0.9-2-1.4-3.1c-1.2-2.4-0.2-3,1-3.2c14.3-1.8,18.8-6.7,14.4-10.7c-5.6-4.9-11.9-9.9-17.3-15.7c-1.5-1.5-2.4-2.2-5.5-0.9
				c-9.3,4.2-21.1,7.3-32.7,7.6C387.7,328.8,372.9,323.8,366.8,321.2L366.8,321.2z"/>
			<path class="st6" d="M433.6,321.9c-0.7,0.1-1.5,0.3-2.1,0.5c-11.5,4-22.1,6.9-33.1,6.9c-10.7,0-22-3-32.1-7.1
				c-0.6-0.2-1.2-0.2-1.9,0c-0.7,0.2-1.3,0.5-1.7,0.9c-4.7,4.7-9.8,9.2-15.2,13.3c-0.8,0.6-0.7,2.2,0.6,2.8h0
				c10.7,3.8,21.2,11,51.1,10.7c30.2-0.3,40.9-7.3,50.5-10.5c0.7-0.3,1.4-0.6,1.7-1.2c0.2-0.3,0.2-0.7,0.1-1
				c-0.1-0.4-0.4-0.7-0.8-1.1h0c-5.4-4.5-11.3-8-15.1-13.4C435.1,322,434.4,321.9,433.6,321.9L433.6,321.9z M433.7,322.5
				c0.7-0.1,1.2,0,1.4,0.4c3.9,5.5,9.8,9.1,15.2,13.5c0.4,0.3,0.6,0.6,0.6,0.8c0.1,0.2,0.1,0.4,0,0.6c-0.2,0.4-0.8,0.7-1.4,1
				c-9.7,3.2-20.2,10.2-50.3,10.5c-29.8,0.3-40.1-6.8-50.9-10.7c-1-0.4-0.9-1.5-0.5-1.8c5.5-4.1,10.6-8.7,15.3-13.4
				c0.3-0.3,0.8-0.6,1.4-0.7c0.6-0.1,1.2-0.2,1.6,0c10.2,4.2,21.4,7.2,32.3,7.2c11.1,0,21.8-2.8,33.3-6.9
				C432.3,322.8,433,322.6,433.7,322.5L433.7,322.5z"/>
			<path class="st3" d="M360.2,127.2c-0.1-1.8,2.7-1.9,2.4,0.5c-0.4,3,5.7,10.8,6.3,15.5c0.3,3.2-1.9,6-4.1,7.7
				c-2.7,2.1-6.8,1.8-8.8,0.6c-1.2-0.9-2.2-4.2-1.4-5.4c0.3-0.4,1.7,4.7,4.8,4.7c4.2,0,7.6-3.2,7.7-6
				C367.4,140,360.3,132.2,360.2,127.2L360.2,127.2z"/>
			<path class="st3" d="M372.5,139.3c0.7-0.5,1.8,1.7,1,2.2C372.9,142,371.6,139.9,372.5,139.3z"/>
			<path class="st3" d="M374.4,134.9c-0.4,0.2-1-0.1-0.8-0.4c1-1.4,3.1-3.5,4.6-4.3c0.5-0.2,1.3,0.6,1,1
				C378.2,132.6,376,134.1,374.4,134.9L374.4,134.9z"/>
			<path class="st3" d="M390.6,122c0.4-0.8,2.7-1.7,3.3-2.3c0.6-0.6,0.8,0.5,0.6,1c-0.4,0.8-2.4,2.2-3.3,2.2
				C390.8,123,390.4,122.5,390.6,122L390.6,122z"/>
			<path class="st3" d="M396.2,122.3c0.5-1.4,2.1-3.6,3.3-4.3c0.6-0.4,1.6-0.1,1.4,0.5c-0.4,1.2-2.4,3.3-3.8,4.3
				C396.7,123.2,396.1,122.6,396.2,122.3z"/>
			<path class="st3" d="M391.4,125.9c-0.3,0.2-0.2,0.9,0.2,1c0.7,0.2,2,0.3,2.5,0c0.8-0.5,0.5-3.7-0.7-2
				C392.7,125.9,392.2,125.6,391.4,125.9L391.4,125.9z"/>
			<path class="st3" d="M382,133.1c-1.7-1.3,0.5-3.2,2.2-1.9c3.5,2.6-5.2,12.6-9.9,17.3c-0.9,0.9-1.6-1.4-0.5-2.4
				c3.4-2.9,6.5-6.3,8.7-9.8C383,135.7,383.4,134.2,382,133.1L382,133.1z"/>
			<path class="st3" d="M401.7,124.5c0.2-1.3-2,0-2.1-1.7c0-0.9,2.5-1.5,3.5-0.5c1.8,1.8,0.4,4.8-2.5,5c-2.4,0.1-6.5,3.5-5.9,4.2
				c0.7,0.9,7,1.4,10.7,0.9c2.3-0.3,1.8,1.7-0.5,2c-2.3,0.3-4.1,0-6.2,0.7c-2.5,0.7-3.6,4-4.9,5.3c-0.3,0.2-1.1-1.1-0.8-1.6
				c1-1.6,2.6-3.9,4.3-4.6c1.1-0.4-3-0.6-4.3-1c-1-0.3-0.7-1.6-0.3-2.4c0.5-1.2,4.4-5.1,6-5C400.1,125.9,401.6,125.5,401.7,124.5
				L401.7,124.5z"/>
			<path class="st3" d="M408.3,124.9c0.7-0.6,1.1-1.7,1.9-2.4c0.4-0.4,1.1,0.1,1,1.1c-0.1,0.8-1.2,1.5-1.9,2.1
				C408.6,126.1,408,125.2,408.3,124.9z"/>
			<path class="st3" d="M416.6,121.9c1.1-0.1,1.4,2,0.2,2.3C416.1,124.5,415.4,122,416.6,121.9z"/>
			<path class="st3" d="M413.9,128.4c0,1.8,0.9,1.6,2.6,1.6c1.7-0.1,3.1,0,3.1-1.6c0-1.7-0.9-3.2-1.2-2c-0.2,1.1-0.4,2.9-1.1,2.1
				c-0.6-0.7-0.4-0.8-1.4,0.3c-0.6,0.6-0.6-0.3-1-0.9C414.7,127.5,413.9,128.1,413.9,128.4L413.9,128.4z"/>
			<path class="st3" d="M402,137.6c-0.4,2.4,0,5.8,1.2,5.8c1.5,0,4.7-5.2,6.1-8c0.9-1.5,2.4-1.8,1.8-0.2c-1,2.5-0.9,7.7,0,9.3
				c0.5,0.8,3.8-0.8,4.4-2c1-2.2,0.2-6.1,0.5-8.6c0.2-1.6,1.6-1.9,1.6-0.5c-0.1,2.6-0.4,7.5-0.2,9.7c0.1,1.3,3.7,3.1,4.3-0.7
				c0.3-2.4,1.5-4.8-0.1-7.5c-1-1.7,1.5-1.5,2.8,0.8c0.9,1.6-0.8,4.1-0.7,6.1c0.2,3.1-2.2,4.8-4,4.8c-1.5,0-2.5-1.9-3.8-1.9
				c-1.4-0.1-2.8,2.2-4,2.1c-4.5-0.3-2.1-6.9-3.5-7c-1.5-0.1-3.3,6.4-5.2,6.2c-1.9-0.2-3.8-5.3-3-7.5
				C400.9,136.8,402.2,136.3,402,137.6L402,137.6z"/>
			<path class="st3" d="M423.7,127.3c-2.2-1.3,0.1-4.8,1.2-3.6c2.1,2.5,4.2,8.4,5.6,8.9c0.9,0.3,0.9-4.4,1.5-6.5
				c0.4-1.6,2.3-1.1,2,1c-0.1,0.7-2.5,8.3-2.3,8.6c1.6,3.3,3.2,6.6,4.3,10c0.4,1.5-1.4,0.5-1.6,0.2c-1.2-1.7-3.2-8.3-3.2-8
				c-0.9,4.6-1.1,6-2.1,10c-0.3,1.3-2.2,1-1.7-1.2c0.4-1.8,3.1-10.8,2.9-11.1C428.2,131.8,426.3,128.9,423.7,127.3L423.7,127.3z"/>
			<path class="st3" d="M427.7,148.7c-0.6-0.1-1.6,1.4,1.5,1.9c4.1,0.7,8.5-0.6,9.9-4.6c1.6-4.8,2.6-9.3,3.4-11c1-2,2.3-1.8,1.4-4.7
				c-0.7-2.1-1.9-1.5-2.2-0.3c-0.7,3-3.4,12.8-4.3,14.6C435.8,147.9,432.6,149.2,427.7,148.7L427.7,148.7z"/>
			<path class="st3" d="M435.9,133c-0.4-0.9-1.5-0.2-1.3,0.8c0.1,0.9,0.9,1.4,1.6,1.4c0.9,0,2.8,0,2.8-1.5c0-1-0.8-1.9-1.4-0.8
				C437,134.1,436.2,134,435.9,133L435.9,133z"/>
			<path class="st3" d="M436.9,129.1c-0.3,0.2,0,1.4,0.3,1.4c1.3,0,3.2-0.5,4.2-1.2c0.3-0.2,0.2-0.9-0.2-0.9
				C439.9,128.5,437.9,128.4,436.9,129.1L436.9,129.1z"/>
			<path class="st3" d="M448.2,132c1-1.5,3.6-1.7,2.7,0.5c-0.7,1.5-7.3,14.3-8.2,15.9c-1,1.8-1.8,0.9-1.1-0.5
				C442.5,146.1,447.9,132.5,448.2,132z"/>
			<path class="st3" d="M438.2,151.1c-0.3-1-1.9-2.5-1.7,0.2c0.3,4.9,7.1,3.4,9.2,1.6c1.9-1.7,0.2,5.6,2.7,6.3
				c1.4,0.4,3.9-1.4,5.2-3.1c3.5-4.5,5.7-11.1,9.1-15.6c1.3-1.8-0.7-3-1.5-1.6c-2.9,4.9-6.6,14.9-10.5,17.5
				c-3.2,2.1-2.3-2.7-2.4-4.1c-0.1-1-1.4-2.6-3.1-1.2c-1.2,0.9-3,1.7-4.7,1.5C439.5,152.7,438.7,152.8,438.2,151.1L438.2,151.1z"/>
			<path class="st3" d="M450.3,141.9c0-0.3-1.4-0.4-1.4,1c0.1,1.1,1.3,1.3,1.5,1.2C452.5,142.6,450.1,143.4,450.3,141.9L450.3,141.9
				z"/>
			<path class="st3" d="M447.4,147.7c-0.4,0.1-0.8,1.3,0.2,1.4c0.8,0.1,4.1-0.3,5.1-0.2c0.6,0,0.8-1.2-0.4-1.1
				C450.7,147.8,448.7,147.4,447.4,147.7L447.4,147.7z"/>
			<path class="st3" d="M367.5,126.2c0.5,0,2,1.9,1.9,2.5c-0.1,0.3-1.5,0-2-0.4C367.1,128,367.2,126.2,367.5,126.2z M360.6,139.7
				c-1.3,0.7,0.2,2.1,1.2,1.5c3.7-2.4,9.2-4.9,10.4-9.6c0.4-1.6,1.9-4.1,3.3-4.6c1.4-0.5,3.4,2.5,4.6,0.1c0.8-1.4,3.4,0.9,4.1-0.6
				c0.8-1.7,0.4-2.7,0.4-4.4c-0.1-1.1-0.9-1.4-1.5,0.4c-0.3,0.8,0.1,1.6-0.2,2c-0.2,0.3-0.8,0.6-1.2,0.4c-0.3-0.2-0.1-0.9-0.9-1.2
				c-0.3-0.2-0.8-0.3-1,0.1c-0.9,1.7-1.4,3.2-2.7,1.4c-1.2-1.5-1.7-4.1-2.6-0.6c-0.3,1.3-2.2,3.1-3.4,3.1c-1.4,0-1.1-3.7-4.2-3.2
				c-1.6,0.3-1.5,3.4-1.3,4.5c0.4,1.6,5.1,0.4,4.8,1.5C369.8,134.2,364.8,137.6,360.6,139.7L360.6,139.7z"/>
			<path class="st3" d="M331.3,156.7c-0.2,0.6,0.6,2.2,1.4,2.3c0.8,0.1,1.2-1.8,1-2.3C333.5,156.3,331.5,156.3,331.3,156.7
				L331.3,156.7z"/>
			<path class="st3" d="M335.6,163c-0.5-0.6-2,0.9-0.8,2c0.7,0.6,3.2,1.4,3.9,0.2c0.9-1.5-0.9-7.1-0.1-7.8c0.6-0.6,3.6,3.7,5.1,4
				c3.5,0.5,2.6-6,6.4-5.5c2.6,0.3,2.8-2.9,2.5-4.8c-0.3-1.9-3.4-4.7-4.8-5.9c-1.9-1.6-2.7,1.1-1.5,2c1.5,1.2,4.2,3.7,4.6,5.3
				c0.2,0.8-1.8,2.3-2.6,1.9c-1.7-1-3.4-5-4.9-6c-0.5-0.3-1.8,0.4-1.2,1.7c0.7,1.4,3.7,3.5,3.9,4.9c0.2,1.3-1.4,4.2-2.4,4.2
				c-1.1,0-3.9-3.5-4.8-5.1c-0.4-0.8-2-0.7-2.1,0.4c-0.3,1.6,0.2,5,0.6,7.2C337.8,163.6,336.4,163.7,335.6,163L335.6,163z"/>
			<path class="st3" d="M330.4,151.9c-0.4,0.5,1,1.5,1.3,1.2c0.6-0.5,2.7-3,2.3-3.8c-0.4-0.8-3.4-2.5-3.9-1.6
				c-0.9,1.5,2.8,2.1,2.2,2.5C332.1,150.4,331.1,151.1,330.4,151.9z"/>
			<path class="st3" d="M335.7,141c0,0,0.9,3.2,1.7,1.9C338.1,142,335.7,141,335.7,141z"/>
			<path class="st3" d="M337.3,146.1c-0.3,0.2-1.3,1-0.7,1.4c1,0.6,3.7,1.1,3.1-0.9c-0.4-1.1,4.1,0,3-3c-0.3-0.9-1.6-2.1-2.3-2.3
				c-0.4-0.1-1.8,0.7-1,1.1c0.7,0.3,2.6,1.5,1.9,2.2c-0.8,0.8-1.4-0.4-2.4-0.2c-0.5,0.1-0.2,1.6-0.5,2
				C338.3,146.7,337.6,146,337.3,146.1L337.3,146.1z"/>
			<path class="st3" d="M344.4,133.9c-0.6,0.3-1.6,1.8-1.6,2.5c0,0.4,0.4,0.9,0.7,0.7c0.6-0.3,1.5-1.7,1.5-2.4
				C345,134.4,344.7,133.8,344.4,133.9L344.4,133.9z"/>
			<path class="st3" d="M348,133.5c-1.1-1.3,1.1-3.3,2.2-0.6c0.6,1.7,7.1,10.2,8.4,13.1c0.9,2,0,2.8-1.2,1.4
				C354.1,143.1,351.4,137.9,348,133.5L348,133.5z"/>
			<path class="st3" d="M354.7,133.7c1.2-1.3,3.5-3.8,2.9-5.2c-0.5-1.2-1.9-1.1-2.2-0.8c-1.4,1.7,1,1.3,0.7,1.8
				c-0.7,1.3-1.4,2.1-1.8,3.4C354.1,133.2,354.4,133.9,354.7,133.7L354.7,133.7z"/>
			<path class="st3" d="M455,137.9c-0.8-0.7,0.8-3.9,1.9-2.6c3.1,3.5,4.5,15,5.4,23.6c0,0-1.4,1.1-1.4,1
				C460.9,155.2,459,141.2,455,137.9L455,137.9z"/>
			<path class="st3" d="M386.5,126.7c-1-2.3,1.5-3.1,1.9-1.5c1.7,7.5,5.8,13.1,9,18.2c0.9,1.6,0.2,2.5-2.1,1.1
				c-1.6-1.1-3.2-5.1-4-5.2c-1.4-0.3-4.8,6.4-11.7,4.5c-1.8-0.5-1.7-5.8-1.7-8.2c-0.1-1.1,1.1-1.4,1.2,0.1c0.1,2.2,0,6.7,2.8,6.8
				c2.3,0.1,7.3-3.1,8.3-5.6C391,134.4,387.6,129.3,386.5,126.7L386.5,126.7z"/>
			<path class="st3" d="M456.8,157.9c0.6-1.5,7.9-13.8,8.8-16.6c0.5-1.3,2.6,2.2,0.5,4.2c-1.8,1.6-7.1,10.4-8.1,13.4
				C457.6,160.3,456.2,159.7,456.8,157.9L456.8,157.9z"/>
			<path class="st3" d="M469.3,146.2c1.4-5.1,4.6,0.8,1.7,3.7c-4.5,4.4-5.8,12.7-12.9,14c-1.9,0.4-5.3-0.9-6.3-1.6
				c-0.4-0.3,0.3-2.1,1.4-1.2c1.7,1.3,5.3,1.7,7.2,0.1C464.5,157.2,467.8,152,469.3,146.2L469.3,146.2z"/>
			<path class="st3" d="M395.8,162.6c-0.3,0.4-1.3,0.3-1.4,0.8c-0.4,1.9,0,2.9-0.4,4.7c-0.4,1.8-1.6,1.8-1.5,0.4
				c0.1-1.9,1.6-4.5,0.6-4.7c-0.7-0.2-1.3-1.1-0.5-1.6c1.4-1,2.2-0.8,3.1-0.5C395.9,161.9,396,162.4,395.8,162.6L395.8,162.6z"/>
			<path class="st3" d="M394.8,160.1c-1.9,1.6-3.6,2.3-5.3,4.4c-0.7,0.8-0.7,2-1.1,3.1c-0.4,1.1-1.8,1.4-2.2,1.1
				c-0.7-0.5-0.6-2.6-1.4-1.4c-0.7,1.1-1.1,2.5-2.1,2.5c-0.9,0-2.6-1.8-1.7-1.9c2.9-0.3,2.9-2.6,4-2.8c1.2-0.2,1.3,1.9,2.1,1.5
				c0.6-0.3,0.9-2.7,1.5-3.4c2-2,3.5-3.1,5.5-4.6C395.1,157.8,395.8,159.3,394.8,160.1L394.8,160.1z"/>
			<path class="st3" d="M401.6,166.4c-1.5,0.3-1.2,2.2-0.8,2.5c0.7,0.3,1.8,0.5,2.3-1.7c0.2-0.9,0.4,4.5,2.4,2.4
				c1.1-1.3,4,0.2,5.2-1.4c0.9-1.1,1.1-1.8,0.4-3.4c-0.2-0.5-1.4-0.2-1.3,0.9c0.1,1-0.7,2.2-1.7,2c-0.5-0.1,0.3-2.4-0.2-3
				c-0.3-0.3-0.7-0.3-0.9,0c-0.4,0.5,0.4,2.7-0.8,3c-1.5,0.3-0.7-1.5-1.4-1.8C402.7,164.9,402.5,166.2,401.6,166.4L401.6,166.4z"/>
			<path class="st3" d="M413.3,162.7c1.1-0.3,0.8-0.3,2.5-1.7c0.7-0.5,0.8,1,0.7,1.6c-0.1,1-1.3,0.3-1.7,1.2
				c-0.5,1.1-0.3,3.8-0.5,4.9c-0.1,0.6-1,0.5-1.1,0.1c-0.3-1.3,0.2-2.6,0.1-4.3C413.3,163.9,412.5,163,413.3,162.7L413.3,162.7z"/>
			<path class="st3" d="M406.8,159.3c-0.3,1.2-0.2,2.2-0.2,3c0.1,0.7,1.3,0.2,1.3,0.2c-0.1-1,0.2-2.5-0.1-2.9
				C407.5,159.4,406.9,159.1,406.8,159.3L406.8,159.3z"/>
			<path class="st3" d="M398.7,147.4l-1.9,7.2l-2.6-4.8v5l-5.6-6.7l2,7.2l-5.1-4.3l2.7,4.9l-9-5.8l5.7,6.7l-7.2-3.5l5.2,4.4
				l-11.8-4.4l11.4,5.6c4.2-2,9.9-3.3,16.2-3.3c6.3,0,12,1.3,16.2,3.3c0,0,0.1,0,0.1,0l11.3-5.6l-11.6,4.5l5.1-4.4l-7.1,3.5l5.6-6.6
				l-9,5.8l2.7-4.9l-5.1,4.3l2-7.2l-5.6,6.7l0.1-5l-2.6,4.8L398.7,147.4L398.7,147.4z"/>
		</g>
	</g>
	<path class="st3" d="M388.7,304c0,0.8-0.1,1.9-0.3,3.3h-0.5c0-1,0-1.7-0.1-2.3c-0.1-0.5-0.3-1.2-0.5-1.9c-0.2-0.6-0.4-1.1-0.7-1.6
		c-0.3-0.4-0.7-1-1.2-1.7l1.1-2.6c0.5,0.6,0.8,1.1,1.1,1.5c0.2,0.4,0.5,0.9,0.7,1.5c0.2,0.6,0.4,1.2,0.5,1.9
		C388.7,302.6,388.7,303.3,388.7,304"/>
	<path class="st3" d="M397.1,298.9c0,0.8-0.2,1.4-0.5,1.8c-0.3,0.4-0.8,0.7-1.6,0.9c0.2,0.7,0.4,1.3,0.4,1.8
		c0.1,0.4,0.1,0.9,0.1,1.4c0,0.3,0,0.7-0.1,1.1c0,0.4-0.1,0.9-0.2,1.5h-0.5c0-0.6,0-1.1-0.1-1.5c-0.1-0.4-0.1-0.8-0.3-1.2
		c0-0.1-0.2-0.5-0.5-1.2c-0.3-0.7-0.5-1.3-0.8-1.8c-0.3-0.5-0.7-1.1-1.3-2l0.8-2.5c0.4,0.6,0.8,1.1,1.1,1.3c0.3,0.2,0.7,0.4,1.2,0.4
		c1,0,1.5-0.5,1.5-1.6h0.5c0,0.3,0,0.6,0,0.9C397.1,298.3,397.1,298.6,397.1,298.9"/>
	<path class="st3" d="M404.8,304.7l-0.6,2.6c-0.4-0.1-0.7-0.4-1-0.9c-0.2-0.4-0.4-1-0.4-1.6c-0.1-0.6-0.1-1.3-0.1-2
		c-0.5,0.1-0.9,0.2-1.2,0.2c-0.6,0-1.1-0.2-1.5-0.5c-0.4-0.3-0.6-0.7-0.6-1.2c0-1.1,0.3-2,0.8-2.8c0.5-0.8,1.2-1.3,1.8-1.3
		c0.5,0,0.9,0.1,1.1,0.4c0.2,0.3,0.4,0.7,0.4,1.1c0.1,0.4,0.1,1.2,0.1,2.4c0,1.1,0.1,1.8,0.3,2.3C404,303.8,404.3,304.2,404.8,304.7
		 M402.5,300.4c-0.1-0.7-0.4-1-1-1c-0.3,0-0.5,0.1-0.7,0.2c-0.2,0.1-0.3,0.3-0.3,0.4c0,0.3,0.4,0.5,1.2,0.5
		C402,300.5,402.2,300.5,402.5,300.4"/>
	<path class="st3" d="M413,304.1l-0.3,3.1c-0.6-0.4-1.2-1.2-1.7-2.3c-0.5-1.2-1.1-2.8-1.7-5c-0.5,2.1-0.9,3.6-1.2,4.6
		c-0.3,1-0.6,1.7-0.9,2.1c-0.2,0.3-0.5,0.5-1,0.8l0.1-3c0.6-0.8,1-1.4,1.2-1.8c0.3-0.6,0.6-1.3,0.8-2.1c0.2-0.8,0.4-1.9,0.6-3.3h0.6
		c0.4,1.4,0.7,2.4,1,3.3c0.3,0.8,0.7,1.4,1.1,2C411.9,302.8,412.4,303.4,413,304.1"/>
	<path class="st1" d="M436.7,333.7c0.4,0.5,0.7,1,0.9,1.4c0.2,0.5,0.3,1.1,0.4,2l-0.9,0.1c-0.4-0.8-0.8-1.4-1.2-1.8
		c-0.3-0.3-0.8-0.8-1.4-1.4c-0.6-0.6-1.3-1.2-2-1.8c-0.7-0.6-1.5-1.3-2.6-2.1c-0.4-0.3-0.6-0.5-0.7-0.6c-0.1-0.2-0.3-0.5-0.3-1
		c-0.1-0.5-0.1-1.1-0.2-1.9l3.3,2.7c1.2,1,2.3,1.9,3.1,2.7C435.6,332.5,436.2,333.1,436.7,333.7 M425.1,326.7l-0.2,2.4L421,329
		l0.3-2.5L425.1,326.7 M435.2,337.5l-9.2,2.8l-1.7-2.3l7.9-2.4c-0.4-0.5-0.6-0.8-0.8-1c-0.3-0.3-0.7-0.5-1-0.7
		c0,0.4-0.2,0.8-0.5,1.2c-0.3,0.3-0.8,0.6-1.3,0.7c-0.7,0.2-1.4,0.2-2.1,0.1c-0.7-0.2-1.2-0.5-1.6-0.9c-0.5-0.7-0.7-1.6-0.8-2.7
		c0-1.2,0.3-2,1-2.2c0.9-0.3,2.2,0,3.7,0.8c1.6,0.8,2.8,1.8,3.6,2.9L435.2,337.5 M428.2,332.6c-0.4-0.2-0.8-0.3-1-0.4
		c-0.3-0.1-0.5-0.1-0.7,0c-0.3,0.1-0.4,0.2-0.5,0.4c-0.1,0.2-0.1,0.4,0.1,0.6c0.1,0.1,0.3,0.2,0.5,0.3c0.2,0,0.5,0,0.7-0.1
		c0.2-0.1,0.4-0.2,0.5-0.3C427.8,333.1,428,332.8,428.2,332.6 M418.3,330.7l-0.6,2.4l-3.8-0.4l0.6-2.4L418.3,330.7 M427.4,340
		l-2,0.5c-0.7,0.2-1.4,0.2-2.1,0.2c-0.7-0.1-1.3-0.3-1.8-0.6c-0.3,0.6-0.9,1.1-1.8,1.5c-0.6,0.3-1.2,0.5-2,0.7l-1.4,0.3l-1.3-2.4
		l1.4-0.3c0.8-0.2,1.3-0.3,1.6-0.4c0.3-0.1,0.6-0.3,1.1-0.6c-0.5-0.3-0.8-0.5-1.1-0.6c-0.3-0.1-0.7-0.2-0.9-0.1
		c-0.1,0-0.2,0.1-0.2,0.1c-0.1,0.1-0.1,0.2-0.2,0.3l-0.6,0.1c-0.6-1.1-0.7-1.9-0.4-2.5c0.3-0.6,1.1-1,2.3-1.3
		c1.3-0.3,2.4-0.4,3.3-0.2c0.9,0.2,1.5,0.5,1.8,1.1c0.2,0.3,0.2,0.6,0.2,0.9c0,0.3-0.2,0.8-0.5,1.4c0.2,0.1,0.4,0.1,0.7,0.1
		s0.5,0,0.7,0l2-0.5L427.4,340 M417.7,342.2l-2,0.3c-1.1,0.2-2,0-2.7-0.5c-0.8-0.6-1.5-1.6-2-3.2l-1-2.6c-0.2-0.6-0.5-1-0.9-1.3
		c-0.2-0.1-0.6-0.3-1.1-0.6l0.7-2.5c0.7,0.4,1.3,0.8,1.7,1.3c0.5,0.5,0.9,1.2,1.2,2.1l0.7,1.8c0.5,1.3,0.9,2.2,1.4,2.6
		c0.4,0.4,0.8,0.5,1.2,0.4l2-0.3L417.7,342.2 M409.2,333.1l-1.3,2.3l-3.6-0.8l1.3-2.3L409.2,333.1 M411.3,343.3l-9,0.8l-0.5-2.5
		l7.6-0.7c-0.2-0.4-0.5-0.8-0.8-1c-0.2-0.1-0.6-0.4-1.2-0.8l0.7-2.3c0.8,0.5,1.4,1,1.8,1.5c0.4,0.6,0.7,1.4,1,2.6L411.3,343.3
		 M404,344.5c-1.1,0-2-0.1-2.7-0.2c-0.7-0.1-1.4-0.3-2.1-0.6c-0.6,0.2-1.1,0.4-1.6,0.5c-0.4,0.1-1.1,0.1-2,0.1l-2.4-0.1
		c-0.7,0-1.2-0.1-1.5-0.4s-0.7-0.6-0.9-1.1c-0.6,0.5-1.2,0.9-1.9,1.1c-0.6,0.2-1.3,0.3-2,0.2l-2.1-0.1l0.2-2.6l2.1,0.1
		c1,0,1.9-0.1,2.6-0.5c0.9-0.5,1.4-1.2,1.5-2.2l1,0.1c0,0.2-0.1,0.4-0.1,0.7c0,0.3-0.1,0.5-0.1,0.9c0,0.3,0.1,0.6,0.4,0.8
		c0.3,0.2,0.7,0.3,1.1,0.4l1.8,0.1c1.2,0,2,0,2.6-0.2c0.6-0.2,1-0.7,1-1.4c0-0.2,0.1-0.3,0.3-0.4c0.1-0.1,0.3-0.2,0.6-0.3l0.6-0.3
		c0,0.1,0,0.3,0,0.5c0,0.2,0,0.3,0,0.4c0,0.3-0.1,0.8-0.3,1.4c0.4,0.1,0.7,0.2,1.2,0.3c0.4,0.1,0.9,0.2,1.4,0.2
		c0-0.2-0.1-0.5-0.3-0.8c-0.2-0.3-0.3-0.6-0.3-0.7c0-0.2,0.1-0.3,0.1-0.4c0,0,0.1-0.1,0.3-0.3l1.3-1c0.2,0.4,0.4,0.8,0.5,1.1
		c0.1,0.3,0.1,0.7,0.1,1.2L404,344.5 M390.3,333.9l-2.3,1.6l-1.7-1.1l-1.7,1.3l-2.3-1.4l2.2-1.5l1.8,1l1.8-1.3L390.3,333.9
		 M386.7,343.8l-8.9-1.5l1-2.5l7.4,1.2c0.1-0.4,0-0.8-0.2-1.1c-0.1-0.2-0.3-0.5-0.7-1l2-2c0.5,0.6,0.8,1.3,0.8,1.9
		c0,0.6-0.2,1.5-0.6,2.6L386.7,343.8 M379.2,342.6l-1.9-0.5c-1.1-0.3-1.7-0.7-1.8-1.4c-0.2-0.8,0.2-1.9,1-3.4l1.4-2.5
		c0.3-0.6,0.5-1.1,0.4-1.4c0-0.2-0.2-0.5-0.4-0.9l2.7-1.9c0.3,0.6,0.4,1.2,0.3,1.7c-0.1,0.6-0.3,1.3-0.8,2.1l-1,1.7
		c-0.7,1.2-1.1,2.1-1.1,2.7c0,0.4,0.2,0.7,0.6,0.8l1.9,0.5L379.2,342.6 M374.7,333l-3.1,1.3l-2.1-2.1l3.1-1.3L374.7,333
		 M373.4,341.1c-0.6,0.8-1.3,1.3-1.9,1.7c-0.6,0.4-1.3,0.6-2.1,0.7c-0.8,0.1-1.7,0.1-2.9-0.1c-1.2-0.2-2.3-0.5-3.4-0.8
		c-2.1-0.7-3.5-1.6-4.2-2.4c-0.7-0.9-0.7-1.8,0.1-2.7c0.7-0.8,1.4-1.4,2.3-1.9c1-0.6,2.5-1.2,4.6-1.9l0.5,0.6
		c-1.6,0.6-2.8,1.1-3.4,1.4c-0.6,0.3-1.1,0.7-1.5,1.2c-0.5,0.6-0.4,1.2,0.2,1.9c0.7,0.7,1.8,1.3,3.3,1.9c1.5,0.5,3,0.8,4.4,0.8
		c1.4,0,2.3-0.3,2.8-0.8c0.3-0.3,0.5-0.7,0.6-1.1c0.1-0.4,0.2-1.1,0.2-2l3-1.8c0,0.9,0,1.5-0.1,1.8c-0.2,0.6-0.5,1.2-1.2,2
		L373.4,341.1"/>
</g>
</svg>
