<?xml version="1.0" encoding="utf-8"?>
<!-- Generator: Adobe Illustrator 20.0.0, SVG Export Plug-In . SVG Version: 6.00 Build 0)  -->
<!DOCTYPE svg PUBLIC "-//W3C//DTD SVG 1.1//EN" "http://www.w3.org/Graphics/SVG/1.1/DTD/svg11.dtd">
<svg version="1.1" id="Layer_1" xmlns="http://www.w3.org/2000/svg" xmlns:xlink="http://www.w3.org/1999/xlink" x="0px" y="0px"
	 viewBox="0 0 800 480" style="enable-background:new 0 0 800 480;" xml:space="preserve">
<style type="text/css">
	.st0{clip-path:url(#SVGID_2_);}
	.st1{fill:#FFFFFF;}
	.st2{fill:#CC0000;}
	.st3{fill:#000066;}
	.st4{fill:#49497D;}
	.st5{fill:#0E0E6E;}
	.st6{fill:#262678;}
	.st7{fill:#808067;}
	.st8{fill:#58587B;}
	.st9{fill:#1B1B74;}
	.st10{fill:#6E6C70;}
	.st11{fill:#CCCC33;}
	.st12{fill:#99994E;}
	.st13{fill:#A4A43D;}
	.st14{fill:#3A3A7C;}
	.st15{fill:#D0D045;}
	.st16{fill:#8D8D5B;}
	.st17{fill:#53527C;}
	.st18{fill:#737370;}
	.st19{fill:#E5E59D;}
	.st20{fill:#F2F1D7;}
	.st21{fill:#D9D868;}
	.st22{fill:#666677;}
	.st23{fill:#FBFAF2;}
	.st24{fill:#F2F1D2;}
	.st25{fill:#32327B;}
	.st26{fill:#DDDC7A;}
	.st27{fill:#E0DEA1;}
	.st28{fill:#E5E3AF;}
	.st29{fill:#F6F6E4;}
	.st30{fill:#E1E18C;}
	.st31{fill:#D4D456;}
	.st32{fill:#EEEDC1;}
	.st33{fill:#FEF8F1;}
	.st34{fill:#FBBE66;}
	.st35{fill:#FBC477;}
	.st36{fill:#FCB144;}
	.st37{fill:#FE9F11;}
	.st38{fill:#FEA522;}
	.st39{fill:#FAE3C9;}
	.st40{fill:#FBEAD6;}
	.st41{fill:#F9D6AA;}
	.st42{fill:#F9D099;}
	.st43{fill:#FDAB33;}
	.st44{fill:#FCF1E4;}
	.st45{fill:#FCB755;}
	.st46{fill:#FACA88;}
	.st47{fill:#F8DCBB;}
	.st48{fill:#FF9900;}
	.st49{fill:#D3D079;}
	.st50{fill:#8CBF84;}
	.st51{fill:#00CCFF;}
	.st52{fill:#ADB333;}
	.st53{fill:#1AC5B5;}
	.st54{fill:#68B070;}
	.st55{fill:#7FB15C;}
	.st56{fill:#27C2AA;}
	.st57{fill:#34BE9E;}
	.st58{fill:#96B247;}
	.st59{fill:#A2B23D;}
	.st60{fill:#0DC9C1;}
	.st61{fill:#5BB47C;}
	.st62{fill:#74B166;}
	.st63{fill:#42BB92;}
	.st64{fill:#8BB252;}
</style>
<g>
	<defs>
		<rect id="SVGID_1_" x="-0.4" width="640" height="480"/>
	</defs>
	<clipPath id="SVGID_2_">
		<use xlink:href="#SVGID_1_"  style="display:none;overflow:visible;"/>
	</clipPath>
	<g class="st0">
		<path class="st1" d="M0,0.4h402.7v240.1H0L0,0.4z"/>
		<path class="st2" d="M0,0.4l0,18l96.1,59.3l36.2,1.3L0,0.4L0,0.4z"/>
		<path class="st3" d="M41.1,0.4l116.5,73v-73H41.1z"/>
		<path class="st2" d="M173.2,0.4v93.3H0V147h173.2v93.3h53.3V147h173.2V93.7H226.5V0.4L173.2,0.4L173.2,0.4z"/>
		<path class="st3" d="M242,0.4v68.8L356,1L242,0.4z"/>
		<path class="st2" d="M245.6,76.8l32.1-0.3L402.2,1l-33,0.6L245.6,76.8L245.6,76.8z"/>
		<path class="st3" d="M400.9,21.1l-95.1,56.6l93.9,0.4v84.4h-79.9l79.2,51.5l1.2,26.2l-42.3-0.6L242,171.4v68.8h-84.4v-68.8L49,240
			l-49,0.2V480h799.3V0.4L401.8,0 M0,27.1l-0.4,49.8l84.1,1.3L0,27.1z M0,162.5v51.1L79.9,163L0,162.5L0,162.5z"/>
		<path class="st2" d="M307.8,164.6l-33.3-0.3l125.6,75.1l-0.8-17.2L307.8,164.6L307.8,164.6z M31.2,240.6L149,166.4l-30.9,0.2
			L0,240.5"/>
		<path class="st4" d="M524.9,247.8l2,2L524.9,247.8z"/>
		<path class="st5" d="M527,247.8l2,2L527,247.8z"/>
		<path class="st6" d="M520.9,249.8l2,2L520.9,249.8L520.9,249.8z"/>
		<path class="st7" d="M522.9,249.8l2,2L522.9,249.8L522.9,249.8z"/>
		<path class="st8" d="M529,249.8l2,2L529,249.8L529,249.8z"/>
		<path class="st5" d="M453.9,251.9l2,2L453.9,251.9z"/>
		<path class="st9" d="M516.8,251.9l2,2L516.8,251.9z"/>
		<path class="st10" d="M518.9,251.9l2,2L518.9,251.9z"/>
		<path class="st11" d="M457.5,255.5c0,52.5-6,111.6,33.1,152.6c8,8.5,23.3,27.7,36.5,27c13.7-0.8,31.4-21.1,39.2-31
			c34-44.8,28.6-98.2,29.8-150.1c-15.4,6.9-23,9.2-36.5,9.1c-10,1-25.3-5.7-34.5-10c-6,4-14.7,8.8-30.4,9.3
			C476.6,263.2,470.9,260.1,457.5,255.5L457.5,255.5z"/>
		<path class="st12" d="M531,251.9l2,2L531,251.9z"/>
		<path class="st4" d="M533.1,251.9l2,2L533.1,251.9z"/>
		<path class="st5" d="M596,251.9l2,2L596,251.9z"/>
		<path class="st13" d="M455.9,253.9l2,2L455.9,253.9z"/>
		<path class="st10" d="M457.9,253.9l2,2L457.9,253.9z"/>
		<path class="st14" d="M460,253.9l2,2L460,253.9z"/>
		<path class="st9" d="M512.8,253.9l2,2L512.8,253.9z"/>
		<path class="st10" d="M514.8,253.9l2,2L514.8,253.9z"/>
		<path class="st13" d="M516.8,253.9l2,2L516.8,253.9z"/>
		<path class="st15" d="M524.9,253.9l2,2L524.9,253.9z"/>
		<path class="st13" d="M533.1,253.9l2,2L533.1,253.9z"/>
		<path class="st16" d="M535.1,253.9l2,2L535.1,253.9z"/>
		<path class="st14" d="M537.1,253.9l2,2L537.1,253.9z"/>
		<path class="st6" d="M589.9,253.9l2,2L589.9,253.9z"/>
		<path class="st17" d="M591.9,253.9l2,2L591.9,253.9z"/>
		<path class="st16" d="M594,253.9l2,2L594,253.9z"/>
		<path class="st18" d="M464,255.9l2,2L464,255.9z"/>
		<path class="st17" d="M466.1,255.9l2,2L466.1,255.9z"/>
		<path class="st9" d="M468.1,255.9l2,2L468.1,255.9z"/>
		<path class="st6" d="M508.7,255.9l2,2L508.7,255.9z"/>
		<path class="st10" d="M510.7,255.9l2,2L510.7,255.9L510.7,255.9z"/>
		<path class="st13" d="M512.8,255.9l2,2L512.8,255.9z"/>
		<path class="st19" d="M522.9,255.9l2,2L522.9,255.9z"/>
		<path class="st1" d="M461.6,261.2c-1.1,27.6-0.3,58.6,4.1,88.1c4.8,15.4,4.1,23.9,11.2,33.1l99.1-0.8c6-9.7,10.4-24.4,11-30.3
			c5.5-29.8,5.7-62.6,5.8-92c-10,5.3-23,9-35.7,7.4c-10.2-0.8-19.5-3.1-30.5-9.3c-9.5,5.7-12.8,8.3-28.4,8.9
			C486,267,476.1,268,461.6,261.2L461.6,261.2z"/>
		<path class="st20" d="M527,255.9l2,2L527,255.9z"/>
		<path class="st21" d="M529,255.9l2,2L529,255.9z"/>
		<path class="st13" d="M537.1,255.9l2,2L537.1,255.9z"/>
		<path class="st12" d="M539.2,255.9l2,2L539.2,255.9z"/>
		<path class="st4" d="M541.2,255.9l2,2L541.2,255.9z"/>
		<path class="st5" d="M543.2,255.9l2,2L543.2,255.9z"/>
		<path class="st14" d="M583.8,255.9l2,2L583.8,255.9z"/>
		<path class="st22" d="M585.9,255.9l2,2L585.9,255.9z"/>
		<path class="st12" d="M587.9,255.9l2,2L587.9,255.9z"/>
		<path class="st13" d="M589.9,255.9l2,2L589.9,255.9 M468.1,258l2,2L468.1,258z"/>
		<path class="st12" d="M470.1,258l2,2L470.1,258z"/>
		<path class="st10" d="M472.2,258l2,2L472.2,258z"/>
		<path class="st4" d="M474.2,258l2,2L474.2,258z"/>
		<path class="st9" d="M476.2,258l2,2L476.2,258 M502.6,258l2,2L502.6,258z"/>
		<path class="st17" d="M504.6,258l2,2L504.6,258z"/>
		<path class="st16" d="M506.7,258l2,2L506.7,258z"/>
		<path class="st13" d="M508.7,258l2,2L508.7,258z"/>
		<path class="st19" d="M518.9,258l2,2L518.9,258z"/>
		<path class="st23" d="M520.9,258l2,2L520.9,258z"/>
		<path class="st24" d="M531,258l2,2L531,258z"/>
		<path class="st21" d="M533.1,258l2,2L533.1,258z"/>
		<path class="st13" d="M543.2,258l2,2L543.2,258z"/>
		<path class="st10" d="M545.2,258l2,2L545.2,258z"/>
		<path class="st14" d="M547.3,258l2,2L547.3,258z"/>
		<path class="st5" d="M573.7,258l2,2L573.7,258z"/>
		<path class="st25" d="M575.7,258l2,2L575.7,258z"/>
		<path class="st8" d="M577.7,258l2,2L577.7,258z"/>
		<path class="st7" d="M579.8,258l2,2L579.8,258z"/>
		<path class="st13" d="M583.2,258.6l1.4,0.7L583.2,258.6L583.2,258.6z"/>
		<path class="st26" d="M460,260l2,2L460,260z"/>
		<path class="st15" d="M462,260l2,2L462,260z"/>
		<path class="st13" d="M477.6,260.7l1.4,0.7L477.6,260.7L477.6,260.7z"/>
		<path class="st7" d="M480.3,260l2,2L480.3,260L480.3,260z"/>
		<path class="st22" d="M482.3,260l2,2L482.3,260z"/>
		<path class="st8" d="M484.3,260l2,2L484.3,260z"/>
		<path class="st4" d="M486.4,260l2,2L486.4,260z"/>
		<path class="st18" d="M498.6,260l2,2L498.6,260z"/>
		<path class="st12" d="M500.6,260l2,2L500.6,260z"/>
		<path class="st13" d="M502.6,260l2,2L502.6,260z"/>
		<path class="st19" d="M514.8,260l2,2L514.8,260z"/>
		<path class="st23" d="M516.8,260l2,2L516.8,260z"/>
		<path class="st24" d="M535.1,260l2,2L535.1,260z"/>
		<path class="st21" d="M537.1,260l2,2L537.1,260z"/>
		<path class="st13" d="M548.6,260.7l1.4,0.7L548.6,260.7L548.6,260.7z"/>
		<path class="st7" d="M551.3,260l2,2L551.3,260z"/>
		<path class="st22" d="M553.4,260l2,2L553.4,260z"/>
		<path class="st8" d="M555.4,260l2,2L555.4,260z"/>
		<path class="st14" d="M557.4,260l2,2L557.4,260z"/>
		<path class="st8" d="M566.9,260.7l1.4,0.7L566.9,260.7L566.9,260.7z"/>
		<path class="st18" d="M569.6,260l2,2L569.6,260z"/>
		<path class="st12" d="M571.6,260l2,2L571.6,260z"/>
		<path class="st13" d="M573.7,260l2,2L573.7,260z"/>
		<path class="st26" d="M589.9,260l2,2L589.9,260z"/>
		<path class="st15" d="M591.9,260l2,2L591.9,260z"/>
		<path class="st20" d="M464,262l2,2L464,262z"/>
		<path class="st27" d="M466.1,262l2,2L466.1,262z"/>
		<path class="st26" d="M468.1,262l2,2L468.1,262z"/>
		<path class="st21" d="M508.7,262l2,2L508.7,262z"/>
		<path class="st28" d="M510.7,262l2,2L510.7,262L510.7,262z"/>
		<path class="st29" d="M539.2,262l2,2L539.2,262z"/>
		<path class="st30" d="M541.2,262l2,2L541.2,262z"/>
		<path class="st31" d="M581.8,262l2,2L581.8,262L581.8,262z"/>
		<path class="st30" d="M583.8,262l2,2L583.8,262z"/>
		<path class="st32" d="M585.9,262l2,2L585.9,262z"/>
		<path class="st24" d="M472.2,264l2,2L472.2,264z"/>
		<path class="st27" d="M474.2,264l2,2L474.2,264z"/>
		<path class="st26" d="M476.2,264l2,2L476.2,264z"/>
		<path class="st15" d="M478.2,264l2,2L478.2,264z"/>
		<path class="st26" d="M502.6,264l2,2L502.6,264z"/>
		<path class="st28" d="M504.6,264l2,2L504.6,264z"/>
		<path class="st29" d="M506.7,264l2,2L506.7,264z"/>
		<path class="st32" d="M545.2,264l2,2L545.2,264z"/>
		<path class="st30" d="M547.3,264l2,2L547.3,264z"/>
		<path class="st31" d="M549.3,264l2,2L549.3,264z"/>
		<path class="st21" d="M573.7,264l2,2L573.7,264z"/>
		<path class="st30" d="M575.7,264l2,2L575.7,264z"/>
		<path class="st32" d="M577.7,264l2,2L577.7,264z"/>
		<path class="st29" d="M579.8,264l2,2L579.8,264z"/>
		<path class="st20" d="M482.3,266.1l2,2L482.3,266.1z"/>
		<path class="st24" d="M484.3,266.1l2,2L484.3,266.1z"/>
		<path class="st32" d="M486.4,266.1l2,2L486.4,266.1z"/>
		<path class="st24" d="M495.9,266.7l1.4,0.7L495.9,266.7z"/>
		<path class="st23" d="M498.6,266.1l2,2L498.6,266.1z"/>
		<path class="st33" d="M508.7,266.1l4.1,4.1v-4.1H508.7L508.7,266.1z"/>
		<path class="st20" d="M553.4,266.1l2,2L553.4,266.1z"/>
		<path class="st24" d="M555.4,266.1l2,2L555.4,266.1z"/>
		<path class="st28" d="M557.4,266.1l2,2L557.4,266.1z"/>
		<path class="st19" d="M560.8,266.7l1.4,0.7L560.8,266.7L560.8,266.7z"/>
		<path class="st27" d="M563.5,266.1l2,2L563.5,266.1z"/>
		<path class="st24" d="M566.9,266.7l1.4,0.7L566.9,266.7z"/>
		<path class="st23" d="M569.6,266.1l2,2L569.6,266.1z"/>
		<path class="st33" d="M504.6,268.1l2,2L504.6,268.1z"/>
		<path class="st34" d="M506.7,268.1l2,2L506.7,268.1z"/>
		<path class="st35" d="M504.6,270.1l2,2L504.6,270.1z"/>
		<path class="st36" d="M508.7,270.1l2,2L508.7,270.1z"/>
		<path class="st37" d="M504.6,272.2l2,2L504.6,272.2z"/>
		<path class="st38" d="M508.7,272.2l2,2L508.7,272.2z"/>
		<path class="st39" d="M502.6,274.2l2,2L502.6,274.2 M510.7,274.2l2,2L510.7,274.2L510.7,274.2z"/>
		<path class="st40" d="M520.9,274.2l2,2L520.9,274.2z"/>
		<path class="st41" d="M522.9,274.2l2,2L522.9,274.2z"/>
		<path class="st39" d="M531,274.2l2,2L531,274.2z"/>
		<path class="st33" d="M533.1,274.2l2,2L533.1,274.2z"/>
		<path class="st42" d="M502.6,276.2l2,2L502.6,276.2z"/>
		<path class="st43" d="M510.7,276.2l2,2L510.7,276.2L510.7,276.2z"/>
		<path class="st44" d="M514.8,276.2l2,2L514.8,276.2z"/>
		<path class="st35" d="M516.8,276.2l2,2L516.8,276.2z"/>
		<path class="st38" d="M518.9,276.2l2,2L518.9,276.2z"/>
		<path class="st45" d="M535.1,276.2l2,2L535.1,276.2z"/>
		<path class="st41" d="M537.1,276.2l2,2L537.1,276.2z"/>
		<path class="st46" d="M502.6,278.3l2,2L502.6,278.3z"/>
		<path class="st38" d="M512.8,278.3l2,2L512.8,278.3 M539.2,278.3l2,2L539.2,278.3z"/>
		<path class="st47" d="M541.2,278.3l2,2L541.2,278.3z"/>
		<path class="st29" d="M460,280.3l2,2L460,280.3z"/>
		<path class="st35" d="M502.6,280.3l2,2L502.6,280.3z"/>
		<path class="st34" d="M543.2,280.3l2,2L543.2,280.3z"/>
		<path class="st47" d="M545.2,280.3l2,2L545.2,280.3z"/>
		<path class="st46" d="M502.6,282.3l2,2L502.6,282.3z"/>
		<path class="st45" d="M549.3,282.3l2,2L549.3,282.3z"/>
		<path class="st47" d="M551.3,282.3l2,2L551.3,282.3z"/>
		<path class="st33" d="M500.6,284.3l2,2L500.6,284.3z"/>
		<path class="st37" d="M502.6,284.3l2,2L502.6,284.3z"/>
		<path class="st43" d="M559.5,284.3l2,2L559.5,284.3z"/>
		<path class="st36" d="M561.5,284.3l2,2L561.5,284.3z"/>
		<path class="st35" d="M563.5,284.3l2,2L563.5,284.3z"/>
		<path class="st41" d="M565.5,284.3l4.1,4.1L565.5,284.3z"/>
		<path class="st33" d="M567.6,284.3l2,2L567.6,284.3z"/>
		<path class="st36" d="M500.6,286.4l2,2L500.6,286.4z"/>
		<path class="st43" d="M529,286.4l2,2L529,286.4z"/>
		<path class="st35" d="M531,286.4l2,2L531,286.4z M539.2,286.4l2,2L539.2,286.4z"/>
		<path class="st38" d="M541.2,286.4l2,2L541.2,286.4z"/>
		<path class="st39" d="M498.6,288.4l2,2L498.6,288.4z"/>
		<path class="st36" d="M524.9,288.4l2,2L524.9,288.4z"/>
		<path class="st39" d="M527,288.4l2,2L527,288.4z"/>
		<path class="st47" d="M543.2,288.4l2,2L543.2,288.4z"/>
		<path class="st43" d="M545.2,288.4l2,2L545.2,288.4z"/>
		<path class="st37" d="M557.4,288.4l2,2L557.4,288.4z"/>
		<path class="st45" d="M559.5,288.4l2,2L559.5,288.4z"/>
		<path class="st42" d="M561.5,288.4l2,2L561.5,288.4z"/>
		<path class="st40" d="M563.5,288.4l2,2L563.5,288.4z"/>
		<path class="st36" d="M498.6,290.4l2,2L498.6,290.4z"/>
		<path class="st34" d="M522.9,290.4l2,2L522.9,290.4z"/>
		<path class="st42" d="M547.3,290.4l2,2L547.3,290.4z"/>
		<path class="st40" d="M555.4,290.4l2,2L555.4,290.4z"/>
		<path class="st44" d="M496.5,292.5l2,2L496.5,292.5z"/>
		<path class="st34" d="M520.9,292.5l2,2L520.9,292.5z"/>
		<path class="st42" d="M549.3,292.5l2,2L549.3,292.5z"/>
		<path class="st39" d="M555.4,292.5l2,2L555.4,292.5z"/>
		<path class="st35" d="M496.5,294.5l2,2L496.5,294.5z"/>
		<path class="st36" d="M518.9,294.5l2,2L518.9,294.5 M551.3,294.5l2,2L551.3,294.5z"/>
		<path class="st34" d="M555.4,294.5l2,2L555.4,294.5z"/>
		<path class="st29" d="M460,296.5l2,2L460,296.5z"/>
		<path class="st38" d="M496.5,296.5l2,2L496.5,296.5z"/>
		<path class="st40" d="M518.9,296.5l2,2L518.9,296.5z"/>
		<path class="st44" d="M551.3,296.5l2,2L551.3,296.5z"/>
		<path class="st33" d="M557.4,296.5l2,2L557.4,296.5z"/>
		<path class="st44" d="M494.5,298.6l2,2L494.5,298.6z"/>
		<path class="st34" d="M516.8,298.6l2,2L516.8,298.6z"/>
		<path class="st46" d="M553.4,298.6l2,2L553.4,298.6z"/>
		<path class="st42" d="M557.4,298.6l2,2L557.4,298.6z"/>
		<path class="st41" d="M494.5,300.6l2,2L494.5,300.6z"/>
		<path class="st44" d="M516.8,300.6l2,2L516.8,300.6z"/>
		<path class="st39" d="M527,300.6l2,2L527,300.6z"/>
		<path class="st38" d="M529,300.6l2,2L529,300.6z"/>
		<path class="st36" d="M531,300.6l2,2L531,300.6z"/>
		<path class="st41" d="M533.1,300.6l2,2L533.1,300.6z"/>
		<path class="st33" d="M553.4,300.6l2,2L553.4,300.6z"/>
		<path class="st38" d="M555.4,300.6l2,2L555.4,300.6z"/>
		<path class="st43" d="M557.4,300.6l2,2L557.4,300.6z"/>
		<path class="st46" d="M494.5,302.6l-2,6.1L494.5,302.6z"/>
		<path class="st38" d="M514.8,302.6l2,2L514.8,302.6z"/>
		<path class="st33" d="M516.8,302.6l2,2L516.8,302.6z"/>
		<path class="st42" d="M527,302.6l2,2L527,302.6z"/>
		<path class="st43" d="M535.1,302.6l2,2L535.1,302.6z"/>
		<path class="st39" d="M537.1,302.6l2,2L537.1,302.6z"/>
		<path class="st47" d="M555.4,302.6l2,2L555.4,302.6z"/>
		<path class="st48" d="M557.4,302.6l2,2L557.4,302.6z"/>
		<path class="st40" d="M560.1,304l0.7,1.4L560.1,304L560.1,304z"/>
		<path class="st38" d="M518.9,304.6l2,2L518.9,304.6z"/>
		<path class="st34" d="M520.9,304.6l2,2L520.9,304.6z"/>
		<path class="st46" d="M522.9,304.6l2,2L522.9,304.6z"/>
		<path class="st36" d="M524.9,304.6l2,2L524.9,304.6z"/>
		<path class="st39" d="M527,304.6l2,2L527,304.6z"/>
		<path class="st37" d="M529,304.6l2,2L529,304.6z"/>
		<path class="st43" d="M539.2,304.6l2,2L539.2,304.6z"/>
		<path class="st35" d="M541.2,304.6l2,2L541.2,304.6z"/>
		<path class="st46" d="M543.2,304.6l2,2L543.2,304.6z"/>
		<path class="st41" d="M545.2,304.6l2,2L545.2,304.6z"/>
		<path class="st39" d="M548.6,305.3l1.4,0.7L548.6,305.3z"/>
		<path class="st33" d="M551.3,304.6l2,2L551.3,304.6z"/>
		<path class="st35" d="M557.4,304.6l2,2L557.4,304.6z"/>
		<path class="st33" d="M470.1,306.7l2,2L470.1,306.7z"/>
		<path class="st44" d="M472.2,306.7l2,2L472.2,306.7z"/>
		<path class="st45" d="M524.9,306.7l2,2L524.9,306.7z"/>
		<path class="st40" d="M529,306.7l2,2L529,306.7z"/>
		<path class="st38" d="M531,306.7l2,2L531,306.7z"/>
		<path class="st37" d="M547.3,306.7l2,2L547.3,306.7z"/>
		<path class="st36" d="M549.3,306.7l-2,4.1L549.3,306.7z"/>
		<path class="st37" d="M553.4,306.7l2,2L553.4,306.7z"/>
		<path class="st34" d="M555.4,306.7l2,2L555.4,306.7z"/>
		<path class="st44" d="M557.4,306.7l2,2L557.4,306.7z"/>
		<path class="st39" d="M470.1,308.7l2,2L470.1,308.7z"/>
		<path class="st37" d="M472.2,308.7l4.1,4.1L472.2,308.7z"/>
		<path class="st40" d="M474.2,308.7l2,2L474.2,308.7z M492.5,308.7l2,2L492.5,308.7z"/>
		<path class="st39" d="M494.5,308.7l2,2L494.5,308.7z"/>
		<path class="st37" d="M512.8,308.7l2,2L512.8,308.7z"/>
		<path class="st35" d="M514.8,308.7l2,2L514.8,308.7z"/>
		<path class="st38" d="M516.8,308.7l2,2L516.8,308.7z"/>
		<path class="st35" d="M522.9,308.7l2,2L522.9,308.7z"/>
		<path class="st33" d="M524.9,308.7l2,2L524.9,308.7z"/>
		<path class="st35" d="M533.1,308.7l2,2L533.1,308.7z"/>
		<path class="st1" d="M549.3,308.7l2,2L549.3,308.7z"/>
		<path class="st43" d="M551.3,308.7l2,2L551.3,308.7z"/>
		<path class="st35" d="M559.5,308.7l2,2L559.5,308.7z"/>
		<path class="st33" d="M470.1,310.7l2,2L470.1,310.7z"/>
		<path class="st40" d="M476.2,310.7l2,2L476.2,310.7z"/>
		<path class="st41" d="M486.4,310.7l2,2L486.4,310.7z"/>
		<path class="st37" d="M496.5,310.7l2,2L496.5,310.7z"/>
		<path class="st41" d="M499.9,311.4l1.4,0.7L499.9,311.4z"/>
		<path class="st47" d="M512.8,310.7l2,2L512.8,310.7z"/>
		<path class="st44" d="M518.9,310.7l2,2L518.9,310.7z"/>
		<path class="st41" d="M535.1,310.7l2,2L535.1,310.7z"/>
		<path class="st43" d="M549.3,310.7l2,2L549.3,310.7z"/>
		<path class="st45" d="M561.5,310.7l2,2L561.5,310.7z"/>
		<path class="st33" d="M563.5,310.7l2,2L563.5,310.7z"/>
		<path class="st17" d="M453.9,312.8l2,2L453.9,312.8z"/>
		<path class="st45" d="M472.2,312.8l2,2L472.2,312.8z"/>
		<path class="st38" d="M476.2,312.8l2,2L476.2,312.8z"/>
		<path class="st40" d="M484.3,312.8l2,2L484.3,312.8z"/>
		<path class="st37" d="M488.4,312.8l2,2L488.4,312.8z"/>
		<path class="st44" d="M490.4,312.8l2,2L490.4,312.8z"/>
		<path class="st34" d="M496.5,312.8l2,2L496.5,312.8z"/>
		<path class="st35" d="M498.6,312.8l2,2L498.6,312.8z"/>
		<path class="st34" d="M500.6,312.8l2,2L500.6,312.8z"/>
		<path class="st38" d="M510.7,312.8l2,2L510.7,312.8L510.7,312.8z"/>
		<path class="st41" d="M537.1,312.8l2,2L537.1,312.8z"/>
		<path class="st36" d="M563.5,312.8l2,2L563.5,312.8z"/>
		<path class="st16" d="M596,312.8l2,2L596,312.8z"/>
		<path class="st28" d="M460,314.8l2,2L460,314.8z"/>
		<path class="st47" d="M472.2,314.8l2,2L472.2,314.8z"/>
		<path class="st43" d="M478.2,314.8l2,2L478.2,314.8z"/>
		<path class="st37" d="M484.3,314.8l2,2L484.3,314.8z"/>
		<path class="st46" d="M488.4,314.8l2,2L488.4,314.8z"/>
		<path class="st44" d="M496.5,314.8l2,2L496.5,314.8z"/>
		<path class="st42" d="M510.7,314.8l2,2L510.7,314.8 M539.2,314.8l2,2L539.2,314.8z"/>
		<path class="st34" d="M565.5,314.8l2,2L565.5,314.8z"/>
		<path class="st38" d="M474.2,316.8l2,2L474.2,316.8z"/>
		<path class="st43" d="M480.3,316.8l2,2L480.3,316.8L480.3,316.8z"/>
		<path class="st38" d="M482.3,316.8l2,2L482.3,316.8z"/>
		<path class="st37" d="M486.4,316.8l2,2L486.4,316.8z"/>
		<path class="st33" d="M488.4,316.8l2,2L488.4,316.8z"/>
		<path class="st34" d="M498.6,316.8l2,2L498.6,316.8z"/>
		<path class="st33" d="M510.7,316.8l2,2L510.7,316.8L510.7,316.8z"/>
		<path class="st34" d="M541.2,316.8l2,2L541.2,316.8z"/>
		<path class="st42" d="M567.6,316.8l2,2L567.6,316.8z"/>
		<path class="st41" d="M474.2,318.9l2,2L474.2,318.9z"/>
		<path class="st42" d="M486.4,318.9l2,2L486.4,318.9z"/>
		<path class="st44" d="M498.6,318.9l2,2L498.6,318.9z"/>
		<path class="st43" d="M508.7,318.9l2,2L508.7,318.9 M543.2,318.9l2,2L543.2,318.9z"/>
		<path class="st40" d="M569.6,318.9l2,2L569.6,318.9z"/>
		<path class="st38" d="M476.2,320.9l2,2L476.2,320.9z"/>
		<path class="st37" d="M484.3,320.9l2,2L484.3,320.9z"/>
		<path class="st36" d="M500.6,320.9l2,2L500.6,320.9z"/>
		<path class="st46" d="M508.7,320.9l2,2L508.7,320.9z"/>
		<path class="st47" d="M543.2,320.9l2,2L543.2,320.9z"/>
		<path class="st36" d="M569.6,320.9l2,2L569.6,320.9z"/>
		<path class="st49" d="M460,322.9l2,2L460,322.9z"/>
		<path class="st46" d="M476.2,322.9l2,2L476.2,322.9z M500.6,322.9l2,2L500.6,322.9z"/>
		<path class="st39" d="M508.7,322.9l2,2L508.7,322.9 M543.2,322.9l2,2L543.2,322.9z"/>
		<path class="st47" d="M571.6,322.9l2,2L571.6,322.9z"/>
		<path class="st20" d="M589.9,322.9l2,2L589.9,322.9z"/>
		<path class="st8" d="M596.7,324.3l0.7,1.4L596.7,324.3L596.7,324.3z"/>
		<path class="st21" d="M460.6,326.3l0.7,1.4L460.6,326.3L460.6,326.3z"/>
		<path class="st47" d="M476.2,325l2,2L476.2,325z"/>
		<path class="st41" d="M541.2,325l2,2L541.2,325z"/>
		<path class="st37" d="M543.2,325l2,2L543.2,325z"/>
		<path class="st36" d="M571.6,325l2,2L571.6,325z"/>
		<path class="st24" d="M590.6,326.3l0.7,1.4L590.6,326.3L590.6,326.3z"/>
		<path class="st44" d="M476.2,327l2,2L476.2,327z"/>
		<path class="st33" d="M539.2,327l2,2L539.2,327z"/>
		<path class="st37" d="M541.2,327l2,2L541.2,327z"/>
		<path class="st43" d="M547.3,327l-2,4.1L547.3,327z"/>
		<path class="st45" d="M549.3,327l2,2L549.3,327z"/>
		<path class="st38" d="M573.7,327l2,2L573.7,327z"/>
		<path class="st42" d="M575.7,327l2,2L575.7,327z"/>
		<path class="st17" d="M596,327l2,2L596,327z"/>
		<path class="st7" d="M456.6,330.4l0.7,1.4L456.6,330.4L456.6,330.4z"/>
		<path class="st38" d="M478.2,329l2,2L478.2,329 M484.3,329l2,2L484.3,329z"/>
		<path class="st37" d="M506.7,329l2,2L506.7,329z"/>
		<path class="st39" d="M539.2,329l2,2L539.2,329z"/>
		<path class="st33" d="M547.3,329l2,2L547.3,329z"/>
		<path class="st36" d="M551.3,329l2,2L551.3,329z"/>
		<path class="st45" d="M577.7,329l2,2L577.7,329z"/>
		<path class="st33" d="M579.8,329l4.1,4.1L579.8,329L579.8,329z"/>
		<path class="st19" d="M590.6,330.4l0.7,1.4L590.6,330.4L590.6,330.4z"/>
		<path class="st25" d="M596.7,330.4l0.7,1.4L596.7,330.4L596.7,330.4z"/>
		<path class="st45" d="M478.9,332.4l0.7,1.4L478.9,332.4z"/>
		<path class="st33" d="M486.4,331l2,2L486.4,331z"/>
		<path class="st34" d="M506.7,331l2,2L506.7,331z"/>
		<path class="st40" d="M539.2,331l2,2L539.2,331z"/>
		<path class="st37" d="M543.2,331l2,2L543.2,331z"/>
		<path class="st44" d="M545.2,331l2,2L545.2,331z"/>
		<path class="st40" d="M551.3,331l2,2L551.3,331z"/>
		<path class="st43" d="M579.8,331l2,2L579.8,331z"/>
		<path class="st22" d="M455.9,333.1l2,2L455.9,333.1z"/>
		<path class="st29" d="M462,333.1l2,2L462,333.1z"/>
		<path class="st41" d="M486.4,333.1l2,2L486.4,333.1z"/>
		<path class="st43" d="M502.6,333.1l2,2L502.6,333.1z"/>
		<path class="st37" d="M504.6,333.1l2,2L504.6,333.1z"/>
		<path class="st44" d="M506.7,333.1l2,2L506.7,333.1z"/>
		<path class="st38" d="M541.2,333.1l2,2L541.2,333.1z"/>
		<path class="st46" d="M543.2,333.1l2,2L543.2,333.1 M553.4,333.1l2,2L553.4,333.1z"/>
		<path class="st36" d="M581.8,333.1l2,2L581.8,333.1L581.8,333.1z"/>
		<path class="st26" d="M589.9,333.1l2,2L589.9,333.1z"/>
		<path class="st8" d="M455.9,335.1l2,2L455.9,335.1z"/>
		<path class="st24" d="M462,335.1l2,2L462,335.1z"/>
		<path class="st36" d="M478.9,336.5l0.7,1.4L478.9,336.5z"/>
		<path class="st38" d="M486.4,335.1l2,2L486.4,335.1z"/>
		<path class="st33" d="M506.7,335.1l2,2L506.7,335.1z"/>
		<path class="st38" d="M508.7,335.1l2,2L508.7,335.1z"/>
		<path class="st36" d="M512.8,335.1l2,2L512.8,335.1z"/>
		<path class="st40" d="M514.8,335.1l2,2L514.8,335.1z"/>
		<path class="st47" d="M541.2,335.1l2,2L541.2,335.1z"/>
		<path class="st44" d="M543.2,335.1l2,2L543.2,335.1z"/>
		<path class="st33" d="M553.4,335.1l2,2L553.4,335.1z"/>
		<path class="st37" d="M555.4,335.1l2,2L555.4,335.1z"/>
		<path class="st40" d="M583.8,335.1l2,2L583.8,335.1z"/>
		<path class="st21" d="M589.9,335.1l2,2L589.9,335.1z"/>
		<path class="st14" d="M455.9,337.1l2,2L455.9,337.1z"/>
		<path class="st28" d="M462,337.1l2,2L462,337.1z"/>
		<path class="st46" d="M488.4,337.1l2,2L488.4,337.1z"/>
		<path class="st40" d="M508.7,337.1l2,2L508.7,337.1z"/>
		<path class="st37" d="M514.8,337.1l2,2L514.8,337.1z"/>
		<path class="st44" d="M516.8,337.1l2,2L516.8,337.1z"/>
		<path class="st40" d="M539.2,337.1l2,2L539.2,337.1z"/>
		<path class="st39" d="M541.2,337.1l2,2L541.2,337.1z"/>
		<path class="st40" d="M543.2,337.1l2,2L543.2,337.1z"/>
		<path class="st34" d="M555.4,337.1l2,2L555.4,337.1 M571.6,337.1l2,2L571.6,337.1z"/>
		<path class="st44" d="M573.7,337.1l2,2L573.7,337.1z"/>
		<path class="st33" d="M575.7,337.1l2,2L575.7,337.1z"/>
		<path class="st47" d="M577.7,337.1l2,2L577.7,337.1z"/>
		<path class="st45" d="M579.8,337.1l2,2L579.8,337.1z"/>
		<path class="st39" d="M583.8,337.1l2,2L583.8,337.1z"/>
		<path class="st7" d="M594,337.1l2,2L594,337.1z"/>
		<path class="st25" d="M455.9,339.2l2,2L455.9,339.2z"/>
		<path class="st13" d="M458.6,340.5l0.7,1.4L458.6,340.5L458.6,340.5z"/>
		<path class="st19" d="M462,339.2l2,2L462,339.2z"/>
		<path class="st35" d="M478.2,339.2l2,2L478.2,339.2z"/>
		<path class="st41" d="M490.4,339.2l2,2L490.4,339.2z"/>
		<path class="st34" d="M510.7,339.2l2,2L510.7,339.2L510.7,339.2z"/>
		<path class="st42" d="M516.8,339.2l2,2L516.8,339.2z"/>
		<path class="st39" d="M535.1,339.2l2,2L535.1,339.2z"/>
		<path class="st36" d="M537.1,339.2l2,2L537.1,339.2z"/>
		<path class="st39" d="M545.2,339.2l2,2L545.2,339.2z"/>
		<path class="st47" d="M555.4,339.2l2,2L555.4,339.2z"/>
		<path class="st42" d="M571.6,339.2l2,2L571.6,339.2z"/>
		<path class="st35" d="M581.8,339.2l2,2L581.8,339.2L581.8,339.2z"/>
		<path class="st40" d="M583.8,339.2l2,2L583.8,339.2z"/>
		<path class="st18" d="M594,339.2l2,2L594,339.2z"/>
		<path class="st21" d="M462,341.2l2,2L462,341.2z"/>
		<path class="st42" d="M478.2,341.2l2,2L478.2,341.2z"/>
		<path class="st41" d="M492.5,341.2l2,2L492.5,341.2 M510.7,341.2l2,2L510.7,341.2L510.7,341.2z"/>
		<path class="st35" d="M516.8,341.2l2,2L516.8,341.2z"/>
		<path class="st33" d="M527,341.2l2,2L527,341.2z"/>
		<path class="st47" d="M529,341.2l2,2L529,341.2z"/>
		<path class="st35" d="M531,341.2l2,2L531,341.2z"/>
		<path class="st38" d="M533.1,341.2l2,2L533.1,341.2z"/>
		<path class="st40" d="M545.2,341.2l2,2L545.2,341.2z"/>
		<path class="st24" d="M587.9,341.2l2,2L587.9,341.2z"/>
		<path class="st8" d="M594,341.2l2,2L594,341.2z"/>
		<path class="st12" d="M457.9,343.2l2,2L457.9,343.2z"/>
		<path class="st15" d="M462,343.2l2,2L462,343.2z"/>
		<path class="st36" d="M494.5,343.2l2,2L494.5,343.2z"/>
		<path class="st39" d="M496.5,343.2l2,2L496.5,343.2z"/>
		<path class="st33" d="M510.7,343.2l2,2L510.7,343.2L510.7,343.2z"/>
		<path class="st45" d="M518.9,343.2l2,2L518.9,343.2z"/>
		<path class="st35" d="M520.9,343.2l2,2L520.9,343.2z"/>
		<path class="st36" d="M522.9,343.2l2,2L522.9,343.2z"/>
		<path class="st38" d="M524.9,343.2l2,2L524.9,343.2z"/>
		<path class="st37" d="M541.2,343.2l2,2L541.2,343.2z"/>
		<path class="st41" d="M543.2,343.2l2,2L543.2,343.2z"/>
		<path class="st33" d="M571.6,343.2l2,2L571.6,343.2z"/>
		<path class="st27" d="M587.9,343.2l2,2L587.9,343.2z"/>
		<path class="st14" d="M594,343.2l2,2L594,343.2z"/>
		<path class="st18" d="M457.9,345.3l2,2L457.9,345.3z"/>
		<path class="st23" d="M464,345.3l2,2L464,345.3z"/>
		<path class="st38" d="M480.3,345.3l2,2L480.3,345.3L480.3,345.3z"/>
		<path class="st37" d="M498.6,345.3l2,2L498.6,345.3z"/>
		<path class="st36" d="M500.6,345.3l2,2L500.6,345.3z"/>
		<path class="st35" d="M502.6,345.3l2,2L502.6,345.3z"/>
		<path class="st46" d="M504.6,345.3l2,2L504.6,345.3z"/>
		<path class="st35" d="M506.7,345.3l2,2L506.7,345.3z"/>
		<path class="st36" d="M508.7,345.3l2,2L508.7,345.3z"/>
		<path class="st43" d="M510.7,345.3l2,2L510.7,345.3L510.7,345.3z"/>
		<path class="st35" d="M539.2,345.3l2,2L539.2,345.3z"/>
		<path class="st33" d="M541.2,345.3l2,2L541.2,345.3z"/>
		<path class="st43" d="M569.6,345.3l2,2L569.6,345.3z"/>
		<path class="st30" d="M587.9,345.3l2,2L587.9,345.3z"/>
		<path class="st13" d="M592.6,346.6l0.7,1.4L592.6,346.6L592.6,346.6z"/>
		<path class="st6" d="M594,345.3l2,2L594,345.3z"/>
		<path class="st8" d="M457.9,347.3l2,2L457.9,347.3z"/>
		<path class="st24" d="M464,347.3l2,2L464,347.3z"/>
		<path class="st46" d="M480.3,347.3l2,2L480.3,347.3L480.3,347.3z"/>
		<path class="st37" d="M535.1,347.3l2,2L535.1,347.3z"/>
		<path class="st40" d="M537.1,347.3l2,2L537.1,347.3z"/>
		<path class="st35" d="M555.4,347.3l2,2L555.4,347.3z"/>
		<path class="st46" d="M569.6,347.3l2,2L569.6,347.3z"/>
		<path class="st31" d="M587.9,347.3l2,2L587.9,347.3z"/>
		<path class="st25" d="M457.9,349.3l2,2L457.9,349.3z"/>
		<path class="st19" d="M464,349.3l2,2L464,349.3z"/>
		<path class="st33" d="M480.3,349.3l2,2L480.3,349.3L480.3,349.3z"/>
		<path class="st37" d="M482.3,349.3l2,2L482.3,349.3z"/>
		<path class="st40" d="M535.1,349.3l2,2L535.1,349.3z"/>
		<path class="st38" d="M555.4,349.3l2,2L555.4,349.3z"/>
		<path class="st44" d="M569.6,349.3l2,2L569.6,349.3z"/>
		<path class="st7" d="M591.9,349.3l2,2L591.9,349.3z"/>
		<path class="st5" d="M457.9,351.3l2,2L457.9,351.3L457.9,351.3z"/>
		<path class="st13" d="M460,351.3l2,2L460,351.3L460,351.3z"/>
		<path class="st21" d="M464,351.3l2,2L464,351.3L464,351.3z"/>
		<path class="st47" d="M482.3,351.3l2,2L482.3,351.3L482.3,351.3z"/>
		<path class="st41" d="M553.4,351.3l2,2L553.4,351.3L553.4,351.3z"/>
		<path class="st46" d="M567.6,351.3l2,2L567.6,351.3L567.6,351.3z"/>
		<path class="st24" d="M585.9,351.3l2,2L585.9,351.3L585.9,351.3z"/>
		<path class="st8" d="M591.9,351.3l2,2L591.9,351.3L591.9,351.3z"/>
		<path class="st16" d="M460,353.4l2,2L460,353.4z"/>
		<path class="st41" d="M484.3,353.4l2,2L484.3,353.4z"/>
		<path class="st43" d="M524.9,353.4l2,2L524.9,353.4z"/>
		<path class="st1" d="M527,353.4l2,2L527,353.4z"/>
		<path class="st36" d="M530.4,354l1.4,0.7L530.4,354L530.4,354z"/>
		<path class="st33" d="M551.3,353.4l-2,4.1L551.3,353.4z"/>
		<path class="st37" d="M553.4,353.4l2,2L553.4,353.4z"/>
		<path class="st43" d="M565.5,353.4l-2,4.1L565.5,353.4z"/>
		<path class="st19" d="M585.9,353.4l2,2L585.9,353.4z"/>
		<path class="st14" d="M591.9,353.4l2,2L591.9,353.4z"/>
		<path class="st22" d="M460,355.4l2,2L460,355.4z"/>
		<path class="st24" d="M466.1,355.4l2,2L466.1,355.4z"/>
		<path class="st41" d="M486.4,355.4l2,2L486.4,355.4z"/>
		<path class="st37" d="M524.9,355.4l2,2L524.9,355.4z"/>
		<path class="st46" d="M527,355.4l2,2L527,355.4z"/>
		<path class="st38" d="M529,355.4l2,2L529,355.4z"/>
		<path class="st44" d="M531,355.4l2,2L531,355.4z"/>
		<path class="st43" d="M551.3,355.4l2,2L551.3,355.4z"/>
		<path class="st33" d="M565.5,355.4l2,2L565.5,355.4z"/>
		<path class="st21" d="M585.9,355.4l2,2L585.9,355.4z"/>
		<path class="st13" d="M589.9,355.4l2,2L589.9,355.4z"/>
		<path class="st5" d="M591.9,355.4l2,2L591.9,355.4z"/>
		<path class="st14" d="M460,357.4l2,2L460,357.4z"/>
		<path class="st19" d="M466.1,357.4l2,2L466.1,357.4z"/>
		<path class="st39" d="M488.4,357.4l4.1,4.1L488.4,357.4z"/>
		<path class="st37" d="M490.4,357.4l2,2L490.4,357.4z"/>
		<path class="st47" d="M529,357.4l2,2L529,357.4z"/>
		<path class="st44" d="M547.3,357.4l2,2L547.3,357.4z"/>
		<path class="st43" d="M549.3,357.4l2,2L549.3,357.4z"/>
		<path class="st36" d="M561.5,357.4l2,2L561.5,357.4z"/>
		<path class="st33" d="M563.5,357.4l2,2L563.5,357.4z"/>
		<path class="st23" d="M583.8,357.4l2,2L583.8,357.4z"/>
		<path class="st16" d="M589.9,357.4l2,2L589.9,357.4z"/>
		<path class="st5" d="M460,359.5l2,2L460,359.5z"/>
		<path class="st13" d="M462,359.5l2,2L462,359.5z"/>
		<path class="st31" d="M466.1,359.5l2,2L466.1,359.5z"/>
		<path class="st41" d="M527,359.5l2,2L527,359.5z"/>
		<path class="st42" d="M545.2,359.5l2,2L545.2,359.5z"/>
		<path class="st37" d="M547.3,359.5l2,2L547.3,359.5z"/>
		<path class="st46" d="M559.5,359.5l2,2L559.5,359.5z"/>
		<path class="st32" d="M583.8,359.5l2,2L583.8,359.5z"/>
		<path class="st8" d="M589.9,359.5l2,2L589.9,359.5z"/>
		<path class="st18" d="M462,361.5l2,2L462,361.5z"/>
		<path class="st29" d="M468.1,361.5l2,2L468.1,361.5z"/>
		<path class="st34" d="M490.4,361.5l2,2L490.4,361.5z"/>
		<path class="st36" d="M522.9,361.5l2,2L522.9,361.5z"/>
		<path class="st47" d="M525.6,362.9l0.7,1.4L525.6,362.9z"/>
		<path class="st34" d="M541.2,361.5l2,2L541.2,361.5z"/>
		<path class="st37" d="M543.2,361.5l2,2L543.2,361.5z"/>
		<path class="st35" d="M555.4,361.5l2,2L555.4,361.5z"/>
		<path class="st44" d="M557.4,361.5l2,2L557.4,361.5z"/>
		<path class="st49" d="M583.8,361.5l2,2L583.8,361.5z"/>
		<path class="st13" d="M587.9,361.5l2,2L587.9,361.5z"/>
		<path class="st6" d="M589.9,361.5l2,2L589.9,361.5z"/>
		<path class="st4" d="M462,363.5l2,2L462,363.5z"/>
		<path class="st27" d="M468.1,363.5l2,2L468.1,363.5z"/>
		<path class="st39" d="M488.4,363.5l2,2L488.4,363.5z"/>
		<path class="st43" d="M516.8,363.5l2,2L516.8,363.5z"/>
		<path class="st35" d="M518.9,363.5l2,2L518.9,363.5z"/>
		<path class="st40" d="M520.9,363.5l2,2L520.9,363.5z"/>
		<path class="st36" d="M527,363.5l2,2L527,363.5z"/>
		<path class="st41" d="M553.4,363.5l2,2L553.4,363.5z"/>
		<path class="st12" d="M587.9,363.5l2,2L587.9,363.5z"/>
		<path class="st5" d="M462,365.6l2,2L462,365.6z"/>
		<path class="st13" d="M464,365.6l2,2L464,365.6z"/>
		<path class="st31" d="M468.1,365.6l2,2L468.1,365.6z"/>
		<path class="st42" d="M486.4,365.6l2,2L486.4,365.6z"/>
		<path class="st37" d="M488.4,365.6l2,2L488.4,365.6 M498.6,365.6l2,2L498.6,365.6z"/>
		<path class="st41" d="M500.6,365.6l2,2L500.6,365.6z"/>
		<path class="st42" d="M502.6,365.6l2,2L502.6,365.6z"/>
		<path class="st41" d="M510.7,365.6l2,2L510.7,365.6L510.7,365.6z"/>
		<path class="st39" d="M512.8,365.6l2,2L512.8,365.6z"/>
		<path class="st33" d="M514.8,365.6l2,2L514.8,365.6z"/>
		<path class="st40" d="M531,365.6l2,2L531,365.6z"/>
		<path class="st39" d="M533.1,365.6l2,2L533.1,365.6z"/>
		<path class="st46" d="M535.1,365.6l2,2L535.1,365.6z"/>
		<path class="st35" d="M537.1,365.6l2,2L537.1,365.6z"/>
		<path class="st43" d="M539.2,365.6l2,2L539.2,365.6z"/>
		<path class="st37" d="M549.3,365.6l2,2L549.3,365.6z"/>
		<path class="st41" d="M551.3,365.6l2,2L551.3,365.6z"/>
		<path class="st28" d="M581.8,365.6l2,2L581.8,365.6L581.8,365.6z"/>
		<path class="st22" d="M587.9,365.6l2,2L587.9,365.6z"/>
		<path class="st18" d="M464,367.6l2,2L464,367.6z"/>
		<path class="st20" d="M470.1,367.6l2,2L470.1,367.6z"/>
		<path class="st38" d="M484.3,367.6l2,2L484.3,367.6z"/>
		<path class="st37" d="M494.5,367.6l2,2L494.5,367.6z"/>
		<path class="st34" d="M496.5,367.6l2,2L496.5,367.6z"/>
		<path class="st44" d="M498.6,367.6l2,2L498.6,367.6z"/>
		<path class="st38" d="M547.3,367.6l2,2L547.3,367.6z"/>
		<path class="st40" d="M549.3,367.6l2,2L549.3,367.6z"/>
		<path class="st26" d="M581.8,367.6l2,2L581.8,367.6L581.8,367.6z"/>
		<path class="st13" d="M585.9,367.6l2,2L585.9,367.6z"/>
		<path class="st6" d="M587.9,367.6l2,2L587.9,367.6z"/>
		<path class="st4" d="M464,369.6l2,2L464,369.6z"/>
		<path class="st13" d="M466.7,371l0.7,1.4L466.7,371z"/>
		<path class="st49" d="M470.1,369.6l2,2L470.1,369.6z"/>
		<path class="st42" d="M486.4,369.6l2,2L486.4,369.6z"/>
		<path class="st36" d="M488.4,369.6l2,2L488.4,369.6z"/>
		<path class="st46" d="M490.4,369.6l2,2L490.4,369.6z"/>
		<path class="st47" d="M492.5,369.6l2,2L492.5,369.6z"/>
		<path class="st33" d="M494.5,369.6l2,2L494.5,369.6z"/>
		<path class="st47" d="M539.2,369.6l2,2L539.2,369.6z"/>
		<path class="st44" d="M547.3,369.6l2,2L547.3,369.6z"/>
		<path class="st29" d="M579.8,369.6l2,2L579.8,369.6z"/>
		<path class="st16" d="M585.9,369.6l2,2L585.9,369.6z"/>
		<path class="st23" d="M472.2,371.6l2,2L472.2,371.6z"/>
		<path class="st34" d="M539.2,371.6l2,2L539.2,371.6z"/>
		<path class="st46" d="M545.2,371.6l2,2L545.2,371.6z"/>
		<path class="st30" d="M579.8,371.6l2,2L579.8,371.6z"/>
		<path class="st4" d="M585.9,371.6l2,2L585.9,371.6z"/>
		<path class="st8" d="M466.1,373.7l2,2L466.1,373.7z"/>
		<path class="st19" d="M472.2,373.7l2,2L472.2,373.7z"/>
		<path class="st37" d="M539.2,373.7l2,2L539.2,373.7z"/>
		<path class="st43" d="M543.2,373.7l2,2L543.2,373.7z"/>
		<path class="st23" d="M577.7,373.7l2,2L577.7,373.7z"/>
		<path class="st13" d="M583.8,373.7l2,2L583.8,373.7z"/>
		<path class="st5" d="M585.9,373.7l2,2L585.9,373.7z"/>
		<path class="st9" d="M466.1,375.7l2,2L466.1,375.7z"/>
		<path class="st13" d="M468.1,375.7l2,2L468.1,375.7z"/>
		<path class="st15" d="M472.2,375.7l2,2L472.2,375.7z"/>
		<path class="st40" d="M537.1,375.7l2,2L537.1,375.7z"/>
		<path class="st37" d="M541.2,375.7l2,2L541.2,375.7z"/>
		<path class="st40" d="M543.2,375.7l2,2L543.2,375.7z"/>
		<path class="st19" d="M577.7,375.7l2,2L577.7,375.7z"/>
		<path class="st22" d="M583.8,375.7l2,2L583.8,375.7z"/>
		<path class="st10" d="M468.1,377.7l2,2L468.1,377.7z"/>
		<path class="st28" d="M474.2,377.7l2,2L474.2,377.7z"/>
		<path class="st46" d="M537.8,379.1l0.7,1.4L537.8,379.1z"/>
		<path class="st39" d="M541.2,377.7l2,2L541.2,377.7z"/>
		<path class="st23" d="M575.7,377.7l2,2L575.7,377.7z"/>
		<path class="st13" d="M581.8,377.7l2,2L581.8,377.7L581.8,377.7z"/>
		<path class="st9" d="M583.8,377.7l2,2L583.8,377.7 M468.1,379.8l2,2L468.1,379.8z"/>
		<path class="st13" d="M470.1,379.8l2,2L470.1,379.8z"/>
		<path class="st15" d="M474.2,379.8l2,2L474.2,379.8z"/>
		<path class="st23" d="M476.2,379.8l2,2L476.2,379.8z"/>
		<path class="st41" d="M539.2,379.8l2,2L539.2,379.8z"/>
		<path class="st19" d="M575.7,379.8l2,2L575.7,379.8z"/>
		<path class="st10" d="M581.8,379.8l2,2L581.8,379.8 M470.1,381.8l2,2L470.1,381.8z"/>
		<path class="st50" d="M476.2,381.8l2,2L476.2,381.8z"/>
		<path class="st51" d="M477.1,381.8c7,14.8,32,49.8,51,49.2c18.5-0.7,39.4-34.8,47.6-49.2H477.1L477.1,381.8z"/>
		<path class="st13" d="M579.8,381.8l2,2L579.8,381.8z"/>
		<path class="st9" d="M581.8,381.8l2,2L581.8,381.8 M470.1,383.8l2,2L470.1,383.8z"/>
		<path class="st13" d="M472.2,383.8l2,2L472.2,383.8z"/>
		<path class="st52" d="M476.2,383.8l2,2L476.2,383.8z"/>
		<path class="st53" d="M478.2,383.8l2,2L478.2,383.8z"/>
		<path class="st54" d="M573.7,383.8l2,2L573.7,383.8z"/>
		<path class="st22" d="M579.8,383.8l2,2L579.8,383.8z"/>
		<path class="st8" d="M472.2,385.9l2,2L472.2,385.9z"/>
		<path class="st55" d="M478.2,385.9l2,2L478.2,385.9z"/>
		<path class="st56" d="M571.6,385.9l2,2L571.6,385.9z"/>
		<path class="st13" d="M577.7,385.9l-2,4.1L577.7,385.9z"/>
		<path class="st5" d="M579.8,385.9l2,2L579.8,385.9 M472.2,387.9l2,2L472.2,387.9z"/>
		<path class="st13" d="M474.2,387.9l4.1,4.1L474.2,387.9z"/>
		<path class="st57" d="M480.3,387.9l2,2L480.3,387.9L480.3,387.9z"/>
		<path class="st58" d="M571.6,387.9l2,2L571.6,387.9z"/>
		<path class="st17" d="M577.7,387.9l2,2L577.7,387.9z"/>
		<path class="st14" d="M474.2,389.9l2,2L474.2,389.9z"/>
		<path class="st59" d="M480.3,389.9l2,2L480.3,389.9L480.3,389.9z"/>
		<path class="st60" d="M482.3,389.9l2,2L482.3,389.9z"/>
		<path class="st61" d="M569.6,389.9l2,2L569.6,389.9z"/>
		<path class="st16" d="M575.7,389.9l2,2L575.7,389.9z"/>
		<path class="st18" d="M476.2,391.9l2,2L476.2,391.9z"/>
		<path class="st62" d="M482.3,391.9l2,2L482.3,391.9z"/>
		<path class="st56" d="M567.6,391.9l2,2L567.6,391.9z"/>
		<path class="st13" d="M573.7,391.9l-2,4.1L573.7,391.9z"/>
		<path class="st6" d="M575.7,391.9l2,2L575.7,391.9z"/>
		<path class="st5" d="M476.2,394l2,2L476.2,394z"/>
		<path class="st13" d="M478.2,394l4.1,4.1L478.2,394L478.2,394z"/>
		<path class="st63" d="M484.3,394l2,2L484.3,394z"/>
		<path class="st60" d="M565.5,394l2,2L565.5,394z"/>
		<path class="st58" d="M567.6,394l2,2L567.6,394z"/>
		<path class="st8" d="M573.7,394l2,2L573.7,394z"/>
		<path class="st14" d="M478.2,396l2,2L478.2,396z"/>
		<path class="st52" d="M484.3,396l2,2L484.3,396z"/>
		<path class="st56" d="M486.4,396l2,2L486.4,396z"/>
		<path class="st62" d="M565.5,396l2,2L565.5,396z"/>
		<path class="st16" d="M571.6,396l2,2L571.6,396z"/>
		<path class="st10" d="M480.3,398l2,2L480.3,398L480.3,398z"/>
		<path class="st58" d="M486.4,398l2,2L486.4,398z"/>
		<path class="st60" d="M488.4,398l2,2L488.4,398z"/>
		<path class="st63" d="M563.5,398l2,2L563.5,398z"/>
		<path class="st13" d="M569.6,398l-4.1,6.1L569.6,398z"/>
		<path class="st9" d="M571.6,398l2,2L571.6,398z"/>
		<path class="st5" d="M480.3,400.1l2,2L480.3,400.1L480.3,400.1z"/>
		<path class="st16" d="M482.3,400.1l2,2L482.3,400.1z"/>
		<path class="st55" d="M488.4,400.1l2,2L488.4,400.1z"/>
		<path class="st57" d="M561.5,400.1l2,2L561.5,400.1z"/>
		<path class="st14" d="M569.6,400.1l2,2L569.6,400.1z"/>
		<path class="st9" d="M482.3,402.1l2,2L482.3,402.1z"/>
		<path class="st13" d="M484.3,402.1l22.3,22.3L484.3,402.1L484.3,402.1z"/>
		<path class="st62" d="M490.4,402.1l2,2L490.4,402.1z"/>
		<path class="st56" d="M559.5,402.1l2,2L559.5,402.1z"/>
		<path class="st52" d="M561.5,402.1l2,2L561.5,402.1z"/>
		<path class="st22" d="M567.6,402.1l2,2L567.6,402.1z"/>
		<path class="st25" d="M484.3,404.1l2,2L484.3,404.1z"/>
		<path class="st63" d="M492.5,404.1l2,2L492.5,404.1z"/>
		<path class="st60" d="M557.4,404.1l-8.1,10.1L557.4,404.1L557.4,404.1z"/>
		<path class="st52" d="M559.5,404.1l2,2L559.5,404.1z"/>
		<path class="st18" d="M565.5,404.1l2,2L565.5,404.1z"/>
		<path class="st4" d="M486.4,406.2l2,2L486.4,406.2z"/>
		<path class="st63" d="M494.5,406.2l2,2L494.5,406.2z"/>
		<path class="st58" d="M557.4,406.2l2,2L557.4,406.2z"/>
		<path class="st16" d="M563.5,406.2l-2,4.1L563.5,406.2z"/>
		<path class="st5" d="M565.5,406.2l2,2L565.5,406.2z"/>
		<path class="st17" d="M488.4,408.2l2,2L488.4,408.2z"/>
		<path class="st63" d="M496.5,408.2l2,2L496.5,408.2z"/>
		<path class="st58" d="M555.4,408.2l2,2L555.4,408.2z"/>
		<path class="st5" d="M563.5,408.2l2,2L563.5,408.2z"/>
		<path class="st10" d="M490.4,410.2l2,2L490.4,410.2z"/>
		<path class="st63" d="M498.6,410.2l2,2L498.6,410.2z"/>
		<path class="st58" d="M553.4,410.2l2,2L553.4,410.2z"/>
		<path class="st13" d="M559.5,410.2l-4.1,6.1L559.5,410.2z"/>
		<path class="st6" d="M561.5,410.2l2,2L561.5,410.2z"/>
		<path class="st10" d="M492.5,412.2l2,2L492.5,412.2z"/>
		<path class="st63" d="M500.6,412.2l2,2L500.6,412.2z"/>
		<path class="st58" d="M551.3,412.2l2,2L551.3,412.2z"/>
		<path class="st6" d="M559.5,412.2l2,2L559.5,412.2z"/>
		<path class="st10" d="M494.5,414.3l2,2L494.5,414.3z"/>
		<path class="st54" d="M502.6,414.3l2,2L502.6,414.3z"/>
		<path class="st56" d="M547.3,414.3l2,2L547.3,414.3z"/>
		<path class="st52" d="M549.3,414.3l2,2L549.3,414.3z"/>
		<path class="st6" d="M557.4,414.3l2,2L557.4,414.3z"/>
		<path class="st22" d="M496.5,416.3l2,2L496.5,416.3z"/>
		<path class="st62" d="M504.6,416.3l2,2L504.6,416.3z"/>
		<path class="st57" d="M545.2,416.3l2,2L545.2,416.3z"/>
		<path class="st52" d="M547.3,416.3l2,2L547.3,416.3z"/>
		<path class="st16" d="M553.4,416.3l-2,4.1L553.4,416.3L553.4,416.3z"/>
		<path class="st6" d="M555.4,416.3l2,2L555.4,416.3z"/>
		<path class="st4" d="M498.6,418.3l2,2L498.6,418.3z"/>
		<path class="st58" d="M506.7,418.3l2,2L506.7,418.3z"/>
		<path class="st60" d="M508.7,418.3l2,2L508.7,418.3z"/>
		<path class="st63" d="M543.2,418.3l2,2L543.2,418.3z"/>
		<path class="st5" d="M553.4,418.3l2,2L553.4,418.3z"/>
		<path class="st4" d="M500.6,420.4l2,2L500.6,420.4z"/>
		<path class="st59" d="M508.7,420.4l2,2L508.7,420.4z"/>
		<path class="st56" d="M510.7,420.4l2,2L510.7,420.4L510.7,420.4z"/>
		<path class="st62" d="M541.2,420.4l2,2L541.2,420.4z"/>
		<path class="st13" d="M547.3,420.4l-6.1,8.1L547.3,420.4z"/>
		<path class="st7" d="M549.3,420.4l2,2L549.3,420.4z"/>
		<path class="st5" d="M551.3,420.4l2,2L551.3,420.4z"/>
		<path class="st6" d="M502.6,422.4l2,2L502.6,422.4z"/>
		<path class="st52" d="M510.7,422.4l2,2L510.7,422.4L510.7,422.4z"/>
		<path class="st63" d="M512.8,422.4l2,2L512.8,422.4z"/>
		<path class="st60" d="M537.1,422.4l2,2L537.1,422.4z"/>
		<path class="st58" d="M539.2,422.4l2,2L539.2,422.4z"/>
		<path class="st10" d="M547.3,422.4l2,2L547.3,422.4z"/>
		<path class="st9" d="M504.6,424.4l2,2L504.6,424.4z"/>
		<path class="st16" d="M506.7,424.4l2,2L506.7,424.4z"/>
		<path class="st62" d="M514.8,424.4l2,2L514.8,424.4z"/>
		<path class="st60" d="M516.8,424.4l2,2L516.8,424.4z"/>
		<path class="st57" d="M535.1,424.4l2,2L535.1,424.4z"/>
		<path class="st52" d="M537.1,424.4l2,2L537.1,424.4z"/>
		<path class="st4" d="M545.2,424.4l2,2L545.2,424.4z"/>
		<path class="st5" d="M506.7,426.5l2,2L506.7,426.5z"/>
		<path class="st10" d="M508.7,426.5l2,2L508.7,426.5z"/>
		<path class="st13" d="M510.7,426.5l4.1,4.1L510.7,426.5z"/>
		<path class="st58" d="M516.8,426.5l2,2L516.8,426.5z"/>
		<path class="st56" d="M518.9,426.5l2,2L518.9,426.5z"/>
		<path class="st54" d="M533.1,426.5l2,2L533.1,426.5z"/>
		<path class="st25" d="M543.2,426.5l2,2L543.2,426.5z"/>
		<path class="st4" d="M510.7,428.5l2,2L510.7,428.5L510.7,428.5z"/>
		<path class="st61" d="M520.9,428.5l2,2L520.9,428.5z"/>
		<path class="st56" d="M529,428.5l2,2L529,428.5z"/>
		<path class="st58" d="M531,428.5l2,2L531,428.5z"/>
		<path class="st13" d="M537.1,428.5l-2,4.1L537.1,428.5z"/>
		<path class="st7" d="M539.2,428.5l2,2L539.2,428.5z"/>
		<path class="st5" d="M541.2,428.5l2,2L541.2,428.5z"/>
		<path class="st6" d="M512.8,430.5l2,2L512.8,430.5z"/>
		<path class="st16" d="M514.8,430.5l2,2L514.8,430.5z"/>
		<path class="st64" d="M522.9,430.5l2,2L522.9,430.5z"/>
		<path class="st53" d="M524.9,430.5l2,2L524.9,430.5z"/>
		<path class="st61" d="M527,430.5l2,2L527,430.5z"/>
		<path class="st8" d="M537.1,430.5l2,2L537.1,430.5z"/>
		<path class="st5" d="M514.8,432.5l2,2L514.8,432.5z"/>
		<path class="st22" d="M516.8,432.5l2,2L516.8,432.5z"/>
		<path class="st13" d="M518.9,432.5l2,2L518.9,432.5z"/>
		<path class="st12" d="M533.1,432.5l2,2L533.1,432.5z"/>
		<path class="st25" d="M535.1,432.5l2,2L535.1,432.5 M518.9,434.6l2,2L518.9,434.6z"/>
		<path class="st12" d="M520.9,434.6l2,2L520.9,434.6z"/>
		<path class="st13" d="M529,434.6l2,2L529,434.6z"/>
		<path class="st22" d="M531,434.6l2,2L531,434.6z"/>
		<path class="st5" d="M533.1,434.6l2,2L533.1,434.6 M520.9,436.6l2,2L520.9,436.6z"/>
		<path class="st22" d="M522.9,436.6l2,2L522.9,436.6z"/>
		<path class="st13" d="M524.9,436.6l2,2L524.9,436.6z"/>
		<path class="st12" d="M527,436.6l2,2L527,436.6z"/>
		<path class="st25" d="M529,436.6l2,2L529,436.6z"/>
		<path class="st6" d="M524.9,438.6l2,2L524.9,438.6z"/>
		<path class="st5" d="M527,438.6l2,2L527,438.6z"/>
		<path class="st48" d="M529,302.6c3.1,7.4,13.2,15.5,15.9,19.5c-3.5,4-4.2,3.6-3.8,11c6.1-6.4,6.2-7.1,10.2-6.1
			c8.6,8.6,1.5,27-5.6,31.1c-7.1,4.3-5.8-0.1-16.5,5.2c4.9,4.2,10.6-0.6,15.2,0.7c2.5,3-1.2,8.4,0.8,13.5c4.1-0.4,3.6-8.7,4.5-11.6
			c3-11,21-18.6,21.9-28.7c3.8-1.8,7.6-0.6,12.2,2c-2.3-9.4-9.9-9.3-11.9-12.3c-4.8-7.4-9.1-15.8-19.5-18c-7.9-1.7-7.3,0.5-12.3-2.9
			C537,303.5,527.5,298.9,529,302.6L529,302.6z"/>
		<path class="st1" d="M551.6,311c0,0.9-0.7,1.6-1.6,1.6c-0.9,0-1.6-0.7-1.6-1.6c0,0,0,0,0,0c0-0.9,0.7-1.6,1.6-1.6
			C550.8,309.4,551.6,310.1,551.6,311L551.6,311z"/>
		<path class="st48" d="M503.9,333.9c5-6.2,7.6-18.9,9.8-23.2c5.2,1.2,5.1,2.1,11.4-1.8c-8.5-2.4-9.2-2.2-10.1-6.1
			c3.6-11.6,23.2-14,30.1-9.6c7.1,4.3,2.6,5.2,12.3,12.1c1.4-6.3-5.5-9-6.5-13.7c1.5-3.6,8-2.9,11.6-7c-2.3-3.4-9.3,0.9-12.4,1.4
			c-11.1,2.5-26.3-9.8-35.6-5.9c-3.3-2.5-4-6.4-3.9-11.7c-7.3,6.4-3.6,13.1-5.3,16.3c-4.3,7.7-9.7,15.5-6.8,25.6
			c2.2,7.7,3.8,6.2,3.1,12.2C500.9,326.4,501.3,337,503.9,333.9L503.9,333.9z"/>
		<path class="st1" d="M500.8,310c0.8-0.4,1.8-0.1,2.2,0.7c0.4,0.8,0.1,1.8-0.7,2.2c-0.8,0.4-1.8,0.1-2.2-0.7
			C499.7,311.4,500,310.4,500.8,310z"/>
		<path class="st48" d="M544.9,338.2c-7.9-1.1-20.1,3.3-24.9,3.6c-1.6-5.1-0.9-5.4-7.5-8.9c2.3,8.5,2.8,9,0,11.8
			c-11.8,3-24-12.6-23.7-20.8c0-8.3,3.1-4.9,4-16.8c-6.1,2-4.9,9.4-8.4,12.7c-3.9,0.6-6.6-5.4-12-6.3c-1.8,3.7,5.6,7.5,7.6,9.9
			c7.9,8.2,5.2,27.6,13.3,33.5c-0.4,4.2-3.4,6.8-8,9.4c9.3,2.9,13.1-3.7,16.7-3.9c8.8-0.3,18.3,0.3,25.5-7.4c5.5-5.9,3.3-6.5,8.8-9
			C540.1,344.6,548.9,338.9,544.9,338.2L544.9,338.2z"/>
		<path class="st1" d="M526.1,353.3c-0.8-0.5-1-1.5-0.6-2.2s1.5-1,2.2-0.6c0.8,0.5,1,1.5,0.5,2.3
			C527.9,353.5,526.9,353.7,526.1,353.3L526.1,353.3z"/>
	</g>
</g>
</svg>
