<?xml version="1.0" encoding="utf-8"?>
<!-- Generator: Adobe Illustrator 20.0.0, SVG Export Plug-In . SVG Version: 6.00 Build 0)  -->
<!DOCTYPE svg PUBLIC "-//W3C//DTD SVG 1.1//EN" "http://www.w3.org/Graphics/SVG/1.1/DTD/svg11.dtd">
<svg version="1.1" id="Layer_1" xmlns="http://www.w3.org/2000/svg" xmlns:xlink="http://www.w3.org/1999/xlink" x="0px" y="0px"
	 viewBox="0 0 800 480" style="enable-background:new 0 0 800 480;" xml:space="preserve">
<style type="text/css">
	.st0{fill:#E41E20;}
</style>
<path class="st0" d="M0,0h800v480H0V0z"/>
<path d="M509.2,139.5c9.4,1.1,19.2-2.1,27.1-5.6c7.6-3.4,14.3-8.7,16.9-16.6c1.8-7.1-4.6-15.3-9.5-8.1
	c-7.3,10.6-22.1,19.8-37.8,20.4c-0.7-1.4-2.5-4.9-5-4.3c-9.5,2.7-22.6,7.3-33.5,12.2c-2.4,1-0.2,7.3,0.1,9.6c0,5.9-2.1,9.5-4.2,11.6
	c-2.1,2-7.3,3.1-10.1,2c-5.6-2-8.3-7.3-6.5-16c0.4-1,1.1-5.1,6.2-10.3c2.5-2.6,6.2-5.9,11.7-8.2s13.4-3.2,23.2-4.5
	c5.9-0.7,9-2.6,9.6-4.9c-2.8,0.4-7.6,2.3-10.6,1.5c-2.9-0.8-4.3-2.4-5.5-3.3c2.2-0.2,6.2,0.6,9.8,1c3.6,0.3,6.8-0.2,9-0.3
	c4.5-0.4,8.1-1.9,10.5-5.7c1.3-4.2-1.5-5.3-4.5-2.7c-2.6,2.2-3.1,3.1-4.7,4c-1.5,0.9-4.1,1.6-5.9,1.8c-3.6,0.3-7.2,0.7-11.7-0.8
	c1-1,3.2-2.7,5.1-3.7c2-0.9,3.8-1.4,5.5-0.9c1.2,0.3,2.6,1.4,3.6,3.4c1.2-4.7,0.3-10.1-12.9-9.1c0.5-3.6-7-5.8-11.7-6.2
	c-2.6-0.1-8.2,0.9-12.2,2.3c-6.3,1.3-12.5,2.2-19.8,2.1c3.8,3.8,4.6,4.1,8.5,7.5c-6.5,1.7-11.8,6.1-14.2,9c5.5,0.8,7.3,0.4,9.1,1.4
	c-7.9,1.5-11.5,2.5-15.9,6.2c1.4,0.4,3.5,1,4.4,1.4c0.9,0.4,0.4,0.8-0.2,1.5c-1.8,0.9-9.3,8.3-11.4,9.9L400,169l-21.6-31.7
	c-2.2-1.6-9.6-9-11.4-9.9c-0.7-0.6-1.1-1.1-0.2-1.5c0.9-0.4,3-1,4.4-1.4c-4.4-3.7-8-4.7-15.9-6.2c1.8-1,3.7-0.6,9.1-1.4
	c-2.5-2.9-7.8-7.2-14.2-9c3.9-3.4,4.7-3.6,8.5-7.5c-7.2,0.1-13.4-0.7-19.8-2.1c-3.9-1.5-9.6-2.5-12.2-2.3
	c-4.7,0.3-12.2,2.6-11.7,6.2c-13.1-1-14.1,4.4-12.9,9.1c1-2,2.4-3.1,3.6-3.4c1.7-0.4,3.5,0,5.5,0.9c2,0.9,4.1,2.6,5.1,3.7
	c-4.5,1.5-8,1.1-11.7,0.8c-1.8-0.1-4.4-0.9-5.9-1.8c-1.6-0.9-2.1-1.8-4.7-4c-2.9-2.6-5.8-1.5-4.5,2.7c2.4,3.8,6.1,5.3,10.5,5.7
	c2.1,0.1,5.4,0.6,9,0.3c3.6-0.3,7.5-1.2,9.8-1c-1.2,0.9-2.6,2.5-5.5,3.3c-2.9,0.9-7.7-1.1-10.6-1.5c0.6,2.3,3.7,4.2,9.6,4.9
	c9.7,1.2,17.8,2.1,23.2,4.5c5.4,2.3,9.1,5.6,11.7,8.2c5.2,5.2,5.8,9.3,6.2,10.3c1.8,8.8-0.9,14-6.5,16c-2.8,1.1-8,0-10.1-2
	c-2.1-2-4.2-5.7-4.2-11.6c0.3-2.3,2.4-8.6,0.1-9.6c-10.9-4.9-24-9.5-33.5-12.2c-2.6-0.7-4.4,2.9-5,4.3c-15.7-0.5-30.6-9.8-37.8-20.4
	c-5-7.2-11.4,1-9.5,8.1c2.6,7.9,9.3,13.1,16.9,16.6c7.9,3.5,17.7,6.8,27.1,5.6c5.2,0.5,5.7,7.1-0.3,9c-12,1.2-21.6,1.7-31.5-6.3
	c-7.4-5.7-10.7,2.1-8.3,6.3c4.5,12.8,23.5,14.8,41.9,8.8c7.2-1.8,3.5,6.3,1.5,6.6c-7.4,6.4-21,13.1-34.4,2.9
	c-6.1-3.9-9.6,0.1-6.9,6.2c6.9,15.9,27.7,10.6,41.5,1.3c3.5-2.4,7.3,2.2,3.2,6.1c-16.9,14.1-25.9,15.1-34.5,11
	c-10.5-3.1-10.4,8.2-4,11.4c7,3.5,23.9-1.1,35.7-10.1c5-4.5,5.8,1.8,2.6,4.5c-13.7,14.2-19.3,18.1-35,17.3
	c-7.7,0.1-6.8,9.5-0.4,12.7c8.7,4.4,24.1-5.5,35.6-17c5-3.3,6.3,1.2,4.1,7c-6.8,10.3-13.5,16.6-20.1,19.8
	c-6.6,3.2-13.4,3.4-18.2,2.2c-6-1.5-6.1,4.6-2.5,9.7c2.2,3.1,10.2,3.4,18.5-0.3c8.3-3.7,16.8-11.7,22.4-20.5c5.1-5.3,4.9,1.3,2.8,6
	c-10.9,21-21.8,29.5-37,29.6c-6.9-0.5-7.9,4.8-3.2,9.3c8.1,5.6,17.5,4.6,25.2-2.3c6.7-7.7,19.3-24.2,26-33c4.8-4.5,6.9-0.7,6,7.9
	c-1,4.9-4,10.3-13,14.8c-6.1,4.3-0.8,8.9,4,8.6c2.7-0.2,7.8-3.8,11.5-8.7c4.9-6.6,4.9-10.8,7-20.5c2.4-4.9,7.6-3.2,8.1,1.7
	c-1.5,9.8-3.5,11.7-8.1,16c-4.3,4.8,3.8,5.6,6.3,3.6c7.3-6,9.5-12.9,11.5-19.3c1.5-4.6,7.1-2.9,5.2,4.6
	c-4.4,17.9-13.8,25.5-30.7,30.5c-1.8,0.5-2.7,1.6-1.9,3.6c2.5,2.2,5.1,4.2,7.6,6.4c-10.4,4-18.9,6.6-29.4,10.6
	c-5.6-3-10-5.5-15.6-8.5c-1.7-3.1-2.7-8-10.2-3.8c-5.5-1.9-7.8-0.8-10.5,1.8c4.2-0.2,6.2,0.8,8,2.5c2.7,5.5,7.6,5.6,12.6,3.5
	c3.5,2.5,5.5,4.4,9,6.9c-6.2,0.3-10.5,0.6-16.7,1c-6.4-5.8-11.1-5-14.8,0.3c-3.1,0.8-4.5,1-6.4,5.1c3.4-1.7,5.4-2.3,7-0.9
	c6.6,3,10.6,1.9,13.4-1.2c6-0.1,11.5-0.3,17.5-0.4c-2,2.1-5,3.4-7,5.4c-9.3-1.8-13.7,2.1-14.6,9.6c-0.9,3.1-1.3,6.2-0.5,9.4
	c0.6-3,1.8-5.6,4.3-7.4c8.3,1.4,11-2.2,11-7.1c3.6-3.5,9.4-4.7,13-8.3c4.7,1.1,7,1.8,11.6,2.8c2,4.8,5.9,6.4,11.7,4.6
	c7.1-0.4,6.1,2.6,7,4.9c1.6-3.6,1.2-6.7-3.3-9.3c-2-4.1-5.6-5.8-10.1-2.9c-4.5-0.8-5.7-2.5-10.2-3.4c10.6-4.5,18.3-5.9,29-10.4
	c3,2.3,5.3,4.1,8.3,6.1c1.6,0.8,3,0.8,3.7-0.3c6-10.6,8.3-19.6,14.1-26.7c2.2-2.9,4.9-6.9,8.3-8.1c1.7-0.5,3.8-0.5,5.3,0.8
	c1.4,1.4,2.8,4,2.7,8c-0.1,5.8-1.3,7.7-2.7,11.4c-1.3,3.6-3.1,5.9-4.8,8.8c-3.6,5.6-8.6,9.2-11.6,11.6c-6,4.6-8.9,3.1-13.8,3.3
	c-6.3,1.3-7.7,4.5-2.2,8.3c5.1,2.1,9.5,2,12.9,1.1c3-0.9,6.2-5.1,8.6-7.4c2.6-3.5,7.6-0.1,4.8,4.1c-5.3,7.5-10.7,12.6-17.9,13.1
	c-7.5,1.7-5.7,5.8-0.4,7.5c9.4,3,17-4.8,20.7-9.8c2.9-3.8,5.2-4.2,5.1,1.4c-2.3,10.1-6.4,14.3-13.4,15.4c-5.8,0-5.5,4.4-1,7.1
	c10.3,5.8,16.2-6.1,18.8-13.3c1.7-6.4,5.6-3.8,6.4,1.3c0.6,6.8-1.9,12.6-9.6,20.3c7.2,9.5,15.4,19,22.6,28.6l0.1-49.4l0.1,49.4
	c7.2-9.6,15.4-19.1,22.6-28.6c-7.7-7.7-10.1-13.5-9.6-20.3c0.9-5.1,4.7-7.7,6.4-1.3c2.6,7.2,8.6,19.1,18.8,13.3
	c4.6-2.7,4.8-7.1-1-7.1c-7-1.1-11.1-5.3-13.4-15.4c0-5.5,2.3-5.1,5.1-1.4c3.7,4.9,11.3,12.7,20.7,9.8c5.3-1.6,7-5.8-0.4-7.5
	c-7.2-0.5-12.7-5.6-17.9-13.1c-2.8-4.2,2.2-7.6,4.8-4.1c2.4,2.3,5.5,6.5,8.6,7.4c3.4,0.9,7.8,1,12.9-1.1c5.6-3.8,4.1-7.1-2.2-8.3
	c-4.9-0.2-7.7,1.3-13.8-3.3c-3-2.4-8-5.9-11.6-11.6c-1.8-2.9-3.6-5.1-4.8-8.8c-1.4-3.6-2.6-5.6-2.7-11.4c0-4,1.3-6.6,2.7-8
	c1.5-1.4,3.6-1.4,5.3-0.8c3.4,1.2,6.2,5.2,8.3,8.1c5.8,7.1,8.1,16.2,14.1,26.7c0.7,1.2,2.1,1.1,3.7,0.3c3-2,5.3-3.8,8.3-6.1
	c10.6,4.5,18.3,5.9,29,10.4c-4.5,0.9-5.8,2.6-10.2,3.4c-4.5-2.9-8.1-1.2-10.1,2.9c-4.5,2.6-4.9,5.8-3.3,9.3c0.8-2.3-0.1-5.3,7-4.9
	c5.9,1.8,9.7,0.3,11.7-4.6c4.6-1,6.9-1.7,11.6-2.8c3.6,3.5,9.4,4.7,13,8.3c0.1,4.9,2.8,8.5,11,7.1c2.4,1.8,3.6,4.4,4.3,7.4
	c0.8-3.1,0.5-6.3-0.5-9.4c-0.9-7.5-5.3-11.4-14.6-9.6c-2-2.1-5-3.4-7-5.4c6,0.1,11.5,0.3,17.5,0.4c2.8,3.1,6.9,4.2,13.4,1.2
	c1.6-1.4,3.7-0.8,7,0.9c-1.8-4.1-3.2-4.3-6.4-5.1c-3.7-5.3-8.4-6.1-14.8-0.3c-6.2-0.3-10.5-0.6-16.7-1c3.5-2.5,5.5-4.4,9-6.9
	c4.9,2,9.9,2,12.6-3.5c1.8-1.8,3.8-2.7,8-2.5c-2.7-2.6-5-3.8-10.5-1.8c-7.5-4.2-8.5,0.8-10.2,3.8c-5.6,2.9-10,5.4-15.6,8.5
	c-10.5-4-19-6.6-29.4-10.6c2.5-2.2,5.1-4.2,7.6-6.4c0.8-1.9-0.1-3.1-1.9-3.6c-16.9-5-26.3-12.7-30.7-30.5c-1.8-7.5,3.7-9.2,5.2-4.6
	c2,6.4,4.2,13.3,11.5,19.3c2.5,2,10.6,1.2,6.3-3.6c-4.6-4.3-6.6-6.2-8.1-16c0.4-4.9,5.7-6.6,8.1-1.7c2.2,9.7,2.1,13.9,7,20.5
	c3.7,4.9,8.8,8.5,11.5,8.7c4.8,0.3,10.1-4.3,4-8.6c-9-4.5-12.1-9.9-13-14.8c-0.8-8.6,1.2-12.4,6-7.9c6.7,8.8,19.3,25.3,26,33
	c7.7,6.9,17.1,7.9,25.2,2.3c4.7-4.5,3.7-9.8-3.2-9.3c-15.3,0-26.2-8.5-37-29.6c-2.1-4.7-2.2-11.2,2.8-6c5.5,8.8,14.1,16.8,22.4,20.5
	c8.3,3.7,16.4,3.5,18.5,0.3c3.7-5.1,3.5-11.1-2.5-9.7c-4.8,1.2-11.5,1-18.2-2.2c-6.6-3.2-13.3-9.5-20.1-19.8
	c-2.2-5.7-0.9-10.2,4.1-7c11.5,11.5,26.9,21.3,35.6,17c6.4-3.1,7.3-12.6-0.4-12.7c-15.7,0.7-21.3-3.2-35-17.3
	c-3.2-2.7-2.4-8.9,2.6-4.5c11.8,9,28.6,13.6,35.7,10.1c6.4-3.1,6.5-14.5-4-11.4c-8.6,4.2-17.5,3.2-34.5-11c-4.2-4-0.3-8.6,3.2-6.1
	c13.7,9.3,34.6,14.6,41.5-1.3c2.7-6.1-0.8-10.1-6.9-6.2c-13.3,10.2-27,3.4-34.4-2.9c-2-0.3-5.7-8.4,1.5-6.6
	c18.4,5.9,37.4,3.9,41.9-8.8c2.4-4.1-0.9-11.9-8.3-6.3c-9.8,8-19.4,7.4-31.5,6.3C503.4,146.7,504,140.1,509.2,139.5z M471.8,104.2
	c3.8,0.3,6.1,1.7,5.9,3.3c-0.1,1.6-2.7,2.8-6.4,2.4c-3.7-0.3-6-1.8-5.8-3.4S468.1,103.9,471.8,104.2z M328.7,110
	c-3.8,0.3-6.3-0.8-6.4-2.4c-0.1-1.6,2.1-3,5.9-3.3c3.8-0.3,6.2,0.8,6.3,2.4C334.6,108.2,332.3,109.7,328.7,110z"/>
</svg>
