<?xml version="1.0" encoding="utf-8"?>
<!-- Generator: Adobe Illustrator 20.0.0, SVG Export Plug-In . SVG Version: 6.00 Build 0)  -->
<!DOCTYPE svg PUBLIC "-//W3C//DTD SVG 1.1//EN" "http://www.w3.org/Graphics/SVG/1.1/DTD/svg11.dtd">
<svg version="1.1" id="Layer_1" xmlns="http://www.w3.org/2000/svg" xmlns:xlink="http://www.w3.org/1999/xlink" x="0px" y="0px"
	 viewBox="0 0 800 480" style="enable-background:new 0 0 800 480;" xml:space="preserve">
<style type="text/css">
	.st0{fill:#FFFFFF;}
	.st1{fill:#FE0101;}
	.st2{fill:#01017E;}
</style>
<g>
	<path class="st0" d="M0,0h800v480H0V0z"/>
	<path class="st1" d="M321,480V1h160v479H321z"/>
	<path class="st2" d="M0,160h800v160H0V160z"/>
</g>
<path class="st0" d="M366.3,309.4l-11.9-8.9l-11.9,9l4.4-14.6l-11.9-9l14.7-0.1l4.6-14.6l4.6,14.6l14.7,0l-11.8,9.1L366.3,309.4
	L366.3,309.4z"/>
<path class="st0" d="M460,309.4l-11.9-8.9l-11.9,9l4.4-14.6l-11.9-9l14.7-0.1l4.6-14.6l4.6,14.6l14.7,0l-11.8,9.1L460,309.4
	L460,309.4z"/>
<path class="st0" d="M313.7,248.2l-11.9-8.9l-11.9,9l4.4-14.6l-11.9-9l14.7-0.1l4.6-14.6l4.6,14.6l14.7,0l-11.8,9.1L313.7,248.2
	L313.7,248.2z"/>
<path class="st0" d="M512.3,248.2l-11.9-8.9l-11.9,9l4.4-14.6l-11.9-9l14.7-0.1l4.6-14.6l4.6,14.6l14.7,0l-11.8,9.1L512.3,248.2
	L512.3,248.2z"/>
<path class="st0" d="M412.5,209.9l-11.9-8.9l-11.9,9l4.4-14.6l-11.9-9l14.7-0.1l4.6-14.6l4.6,14.6l14.7,0l-11.8,9.1L412.5,209.9
	L412.5,209.9z"/>
</svg>
