<?xml version="1.0" encoding="utf-8"?>
<!-- Generator: Adobe Illustrator 20.0.0, SVG Export Plug-In . SVG Version: 6.00 Build 0)  -->
<!DOCTYPE svg PUBLIC "-//W3C//DTD SVG 1.1//EN" "http://www.w3.org/Graphics/SVG/1.1/DTD/svg11.dtd">
<svg version="1.1" id="Layer_1" xmlns="http://www.w3.org/2000/svg" xmlns:xlink="http://www.w3.org/1999/xlink" x="0px" y="0px"
	 viewBox="0 0 800 480" style="enable-background:new 0 0 800 480;" xml:space="preserve">
<style type="text/css">
	.st0{fill:#FF0000;}
	.st1{fill:#FFEC00;}
</style>
<g>
	<path class="st0" d="M0,0h800v243.6H0V0z"/>
	<path d="M0,237.5l800-1.1V480L0,481.1V237.5z"/>
</g>
<path class="st1" d="M465.1,363.7C465.1,363.7,465.1,363.7,465.1,363.7L465.1,363.7C465.1,363.7,465.1,363.7,465.1,363.7z
	 M348,226.4l20.2-14.5l20.3,15l-7-23.4l19.6-15.2l-24.7,0.2l-7.8-22.7l-8.6,22.5l-24.4,0.2l20.3,15L348,226.4z M415.7,338.7
	L398,328.5c-27.5,12.9-62.8,12.2-100-13.1l-8.8,13.5c5.7,4.1,11.5,7.6,17.2,10.7l-6,12.9l21.7,10.1l6.4-13.7
	c6.3,2,12.6,3.3,18.7,4.1v13.8h24v-13.3c6.8-0.7,13.3-1.9,19.6-3.8l5.3,12.4l22.1-9.4l-5.3-12.4
	C413.9,339.8,414.8,339.3,415.7,338.7z M474.6,345.6c-3.4,5.8-6.1,12.3-9.5,18.1c-10.4-5.9-21-12-31.6-18.2l0,0l-42.8-24.8l0,0.1
	c-18.7-10.8-37.3-21.5-55.5-31.9c-18.8-11.6-19.7-33.4-7.2-49.9c1.3-2.3,2.8-1.8,3.5-0.5c1.5,8,6,16.3,11.4,21.5
	c23.9,15.2,47.4,30.1,70.8,45.3l-0.1,0.1l35.7,23.1l-0.1,0.1C457.7,334.2,466.1,339.8,474.6,345.6z M471.3,350.1l1.6-2.6L348,272
	l-1.6,2.6L471.3,350.1z M425.1,309.2l26.3,17l4.2-4.7l-9.8-8.8c4.3-5.3,8-10.9,11.2-16.7l13,5.2l8.9-22.2l-12.9-5.2
	c1.7-6,2.9-12.2,3.5-18.5h13.9v-23.9h-13.8c-0.7-6.8-1.9-13.6-3.8-20.2l13-5l-8.7-22.3l-13,5.1c-3-5.7-6.5-11.1-10.5-16.3l9.2-9.1
	l-16.9-17l-9.3,9.2c-5-4-10.5-7.6-16.5-10.7l4.9-12.9l-22.4-8.5l-4.8,12.8c-6.4-1.7-13.1-3-20.2-3.7l-1.4,15.6l0,0
	C469.8,174.5,469.8,263.5,425.1,309.2z M388.6,226.9L388.6,226.9L388.6,226.9L388.6,226.9z M513.4,378.8c-3.6,3.9-6.4,5-6.4,5
	c-3.2,2.2-7.3,2.1-10.2-0.7c-5.8-8.3-12.5-12.7-26.2-17.5c-1.1-0.4-1.8-0.5-3.6-1c3.4-5.9,8.5-17.8,9.7-18.2v0
	c12.5,7.4,24.4,13.3,35.4,21.3C515.6,370.7,516.4,374.3,513.4,378.8z M484.5,359.2L484.5,359.2c0-2.4-1.9-4.3-4.3-4.3
	c-2.4,0-4.3,1.9-4.3,4.3s1.9,4.3,4.3,4.3C482.5,363.5,484.5,361.6,484.5,359.2z M495.4,366.1L495.4,366.1c0-2.4-1.9-4.3-4.3-4.3
	c-2.4,0-4.3,1.9-4.3,4.3c0,2.4,1.9,4.3,4.3,4.3C493.4,370.5,495.4,368.5,495.4,366.1z M505.8,372.8L505.8,372.8
	c0-2.4-1.9-4.3-4.3-4.3c-2.4,0-4.3,1.9-4.3,4.3s1.9,4.3,4.3,4.3C503.9,377.2,505.8,375.2,505.8,372.8z"/>
</svg>
