<?xml version="1.0" encoding="utf-8"?>
<!-- Generator: Adobe Illustrator 20.0.0, SVG Export Plug-In . SVG Version: 6.00 Build 0)  -->
<!DOCTYPE svg PUBLIC "-//W3C//DTD SVG 1.1//EN" "http://www.w3.org/Graphics/SVG/1.1/DTD/svg11.dtd">
<svg version="1.1" id="Layer_1" xmlns="http://www.w3.org/2000/svg" xmlns:xlink="http://www.w3.org/1999/xlink" x="0px" y="0px"
	 viewBox="0 0 800 480" style="enable-background:new 0 0 800 480;" xml:space="preserve">
<style type="text/css">
	.st0{fill:#3A7DCE;}
	.st1{fill:#FFFFFF;}
</style>
<path class="st0" d="M0,0h800v480H0L0,0z"/>
<path class="st1" d="M274.3,225.3c-2.9-5.9-2.9-5.9-2.9-11.8c-1.4,0-1.7,0.3-2.6,0c-0.8-0.2-1.1,5.4-3.9,4.3
	c-0.5-0.6,1.9-4.7-0.7-6.4c-0.8-0.6,0.2-3.9-0.2-5.4c0,0-3.3,1.8-5.8-4.4c-1.2-1.6-2.9,1.5-2.9,1.5s0.7,1.9-0.6,2.4
	c-1.8-1.4-3.2-0.7-5.6-2.6c-2.3-1.9,0.5-4.1-4-5.7c2.9-7.4,2.9-5.9,10.1-8.9c-4.3-3-4.3-3-7.2-7.4c-4.3-1.5-5.8-3-10.1-5.9
	c-5.8-7.4-8.7-22.1-8.7-32.5c3.7-3.5,8.7,11.8,15.9,16.2l10.1,4.4c5.8,3,7.2,5.9,11.6,8.9l13,4.4c5.8,4.4,8.7,10.3,13,11.8
	c4.7,0,5.6-2.8,7.1-2.9c8.5-0.4,12.8-1.6,14.5-4.2c1.7-2.1,5.8,1.2,17.4-3.2l-1.4-5.9c0,0,3.1-2.6,7.2-1.5
	c-0.1-2.7-0.4-9.9,3.7-13.1c-2.5-2.7-0.8-4.6-0.8-4.6s2.3-2.3,2.6-3.5c-1.2-6.5,1.1-6.6,1.6-8.5c0.5-1.9-2-1.3-1.3-3.9
	c0.7-2.6,4.9-3.3,5.4-5.4c0.6-2.2-1.2-3.3-1.1-3.8c0.9-2.1,0.1-7,0-8.9c7.8-2.1,10.3-8.6,13-5.9c1.4-8.9,2.9-11.8,11.5-11.8
	c1.2-2.7-3.2-5-1.4-5.9c2.9-0.4,5.1-0.2,8.5,4.3c1.1,1.4,1.3-2.1,2.3-2.4c1.1-0.4,3.7-0.4,4.1-2.1c0.4-1.8,1-4.2,2.4-7.1
	c1.2-2.4,2.2,0.9,3.2,5.6c6.1,0.2,19.9,1.6,25.6,3.2c4.3,1.2,7.2-1.2,11.4-1.6c3.1,3.1,6,0.8,7.6,7.5c2.3,3.6,6,0.3,6.9,1.4
	c4.8,13.6,21.4,4.4,22.7,4.7c2.1,0,4.7,6.1,6.4,5.9c2.7-0.5,1.9-2.4,4.3-1.6c-0.6,5.1,4.6,11,4.6,14.9c0,0,1.3,0.6,2.5-0.5
	c1.2-1.1,2.3-4.1,3.3-4c2.5,0.4,3.6,0.7,6.5,1.2c7.8,2.7,11.8,3.4,14.9,4.8c1.4,2.6,2.8,4,5.7,3.5c2.4,1.6,0.6,3.8,2,3.9
	c2.9-1.5,3.8-3.1,6.7-1.6c2.9,1.5,5.8,4.4,7.2,7.4c0,1.5-1.4,7.4,0,16.2c0.7,3,1.1,5.3,4.2,10.4c-0.8,5.2,3.9,14,3.9,16.2
	c0,3-2.3,4.5-3.7,7.4c5.8,4.4,0,11.8-2.9,16.2c21.7,4.4,11.5,13.3,28.9,8.9c-4.3,10.3-2.8,9.5,1.5,19.8c-8.7,5.9-0.2,7.7-6,15.1
	c-0.4,0.5,3.4,6.4,8.8,6.4c-1.4,11.8-5.8,7.4-4.3,25.1c-11.4-0.2-6.8,13.2-14.4,11.8c0.5,8.4,4.4,9.2,2.9,17.7
	c-5.8,1.5-5.8,1.5-8.7,5.9l-4.3-1.5c-1.4,7.4-4.3,8.9,0,16.2c0,0-5.6,0.2-7.2,0c-0.1,2.5,2.5,3.2,2.9,5.9c-0.2,1.1-8.2,5.7-14.4,5.9
	c-1.6,3.6,4.3,7.5,4,9.4c-6.8,1.3-9.7,9.8-9.7,9.8s3.5,1.4,2.9,3c-1.8-1.4-2.9-1.5-5.8-1.5c-1.4,0.4-5-0.1-8.3,5.7
	c-3.7,1.2-5.5,0.8-8.3,4.6c-1.2-3.6-3,0-5.2,1.4c-2.2,1.4-5.1,4.9-5.5,4.8c0.1-1,1.4-4.7,1.4-4.7l-7.2,1.5l-0.9,0.1
	c-0.6,0.1-0.4-4.3-1.8-4.2c-1.4,0.2-5.3,5.5-6.6,5.7c-1.3,0.2-1.8-1.7-2.9-1.5c-1.1,0.2-3.4,5.6-4.2,5.8c-0.8,0.1-4-3.3-6.8-2.8
	c-14.2,5.1-16.5-10.1-18.7-1.5c-3-1.6-2.5-0.7-5.5,0.1c-1.9,0.5-2.1-2.6-3.8-2.6c-3.4,0.1-3.3,3.4-5.1,2.4
	c-1.5-6.9-10.8-5.7-11.7-8.6c-0.7-3.1,4-3.1,5.5-5.2c1.2-3-1.2-4.2,3.5-7.1c6.2-4.3,2.6-5.9,3.7-9.1c1.9-4.7,2-5.8,0.3-9.9
	c0,0-4.8-13.3-5.8-13.3c-2.9-0.8-2.9,4.9-7.1,6.5c-8.7,3-24-7.5-26.6-7.5c-2.4,0-13.7,2.7-13.3-3c-1.7,5.6-7.9,1.3-8.3,1.3
	c-5.8,0-3.6,4.6-7.4,4.4c-1.8-0.6-19.5-1.7-19.5-1.7v3l-11.6-5.9l-10.1-3c-8.7-3-4.3-10.3-18.8-5.9V308h-7.2
	c2.9-17.7,0-8.9-1.4-25.1l-5.8,1.5c-5.8-8,8-6.5-4.3-11.8c0,0,0.2-8.8-2.9-5.9c-0.6,0.4,1.4,4.4,1.4,4.4
	c-11.5-1.5-14.4-4.4-14.4-16.2c0,0,9.5,1.4,8.7,0c-1.4-2.2-3.1-16.6-2.8-17.6c-0.1-1.9,8.8-6.8,7.1-11.5
	C271,225.4,274.3,225.3,274.3,225.3 M664,284.3c-0.5,1-0.4,2.1,0.1,2.8C665,285.8,664.2,285.2,664,284.3z M292.7,167.8
	c0,0-2.4-0.3-1.9,1.8C291.6,168,292.7,167.9,292.7,167.8z M293.3,162.8c-1.3,0-3-0.2-2.4,1.9C291.6,163.1,293.2,162.9,293.3,162.8z
	 M302.4,191.1c0,0,2.1-0.1,1.5,2C303.1,191.5,302.4,191.2,302.4,191.1z"/>
</svg>
