<?xml version="1.0" encoding="utf-8"?>
<!-- Generator: Adobe Illustrator 20.0.0, SVG Export Plug-In . SVG Version: 6.00 Build 0)  -->
<!DOCTYPE svg PUBLIC "-//W3C//DTD SVG 1.1//EN" "http://www.w3.org/Graphics/SVG/1.1/DTD/svg11.dtd">
<svg version="1.1" id="Layer_1" xmlns="http://www.w3.org/2000/svg" xmlns:xlink="http://www.w3.org/1999/xlink" x="0px" y="0px"
	 viewBox="0 0 800 480" style="enable-background:new 0 0 800 480;" xml:space="preserve">
<style type="text/css">
	.st0{fill:#00C4FF;}
	.st1{fill:#FFFFFF;}
	.st2{display:none;}
	.st3{display:inline;fill:#F6B40E;stroke:#85340A;stroke-width:1.1116;}
	.st4{display:inline;}
	.st5{fill:#F6B40E;stroke:#85340A;stroke-width:1.1116;}
	.st6{display:inline;fill:#85340A;}
	.st7{fill:#85340A;}
	.st8{fill:#F6B40E;stroke:#85340A;stroke-width:1.5;}
	.st9{fill:#843511;}
</style>
<g>
	<path class="st0" d="M0,0h800v160.4H0V0z"/>
	<path class="st1" d="M0,159.8h800v160.4H0V159.8z"/>
	<path class="st0" d="M0,319.5h800V480H0V319.5z"/>
</g>
<g>
	<g id="rays" class="st2">
		<path id="ray1" class="st3" d="M395.7,240.9l30.6,66.7c0,0,0.5,1.3,1.4,0.9s0.3-1.6,0.3-1.6l-25.5-68.8 M401.7,264
			c-0.4,10.1,5.9,15.7,5.1,24.8c-0.8,9.1,4.2,14.2,5.3,17.7c1.2,3.5-1.2,5.6-0.2,6.1s3.3-2.3,2.6-7.3c-0.7-5-4.5-6.5-3.6-17.6
			s-4.5-13.6-3.2-23.7"/>
		<g transform="rotate(22.5 400,250)" class="st4">
			<path id="ray1_1_" class="st5" d="M395.4,239.5l2.8,73.4c0,0,0,1.4,0.9,1.4s0.9-1.4,0.9-1.4l2.8-73.4 M392.1,263.2
				c-4.2,9.2-0.6,16.8-4.8,24.8c-4.2,8.1-1.6,14.7-1.9,18.4c-0.3,3.7-3.3,4.7-2.5,5.6s3.9-0.8,5.2-5.8c1.2-4.9-1.7-7.7,3.4-17.6
				c5.1-9.9,1-14.3,6.1-23.2"/>
		</g>
		<g transform="rotate(45 400,250)" class="st4">
			<path id="ray1_2_" class="st5" d="M395.7,238.1l-25.5,68.8c0,0-0.5,1.3,0.3,1.6c0.9,0.4,1.4-0.9,1.4-0.9l30.6-66.7 M383.6,258.7
				c-7.4,6.9-7,15.3-14,21.1c-7,5.8-7.1,13-8.8,16.3c-1.7,3.3-4.9,3.1-4.5,4.2s4,0.7,7-3.3c3-4.1,1.4-7.8,9.8-15
				c8.5-7.2,6.4-12.9,14.5-19.1"/>
		</g>
		<g transform="rotate(67.5 400,250)" class="st4">
			<path id="ray1_3_" class="st5" d="M396.5,236.9l-49.9,53.8c0,0-1,1-0.3,1.6c0.7,0.7,1.6-0.3,1.6-0.3l53.8-49.9 M377.4,251.3
				c-9.5,3.5-12.3,11.4-21,14.2c-8.7,2.7-11.5,9.3-14.3,11.7c-2.8,2.4-5.7,1-5.7,2.2c-0.1,1.1,3.4,2.2,7.7-0.4s4.3-6.7,14.8-10.1
				c10.6-3.4,10.9-9.4,20.7-12"/>
		</g>
		<path id="ray2" class="st6" d="M403.7,265.7c0.5,9.7,6,14.1,4.9,22.9c2.4-7-3.4-12.5-3-22.8 M397.4,240.3l21,45.8l-17.6-47.2"/>
		<g transform="rotate(22.5 400,250)" class="st4">
			<path id="ray2_1_" class="st7" d="M393.3,265.5c-3.3,9.2,0.2,15.3-4.2,23.1c4.9-5.6,1.7-12.8,5.9-22.3 M397.2,239.6L399,290
				l1.8-50.4"/>
		</g>
		<g transform="rotate(45 400,250)" class="st4">
			<path id="ray2_2_" class="st7" d="M383.8,261.3c-6.5,7.2-5.7,14.2-12.7,19.7c6.7-3.3,6.4-11.2,14-18.3 M397.3,238.8L379.7,286
				l21-45.8"/>
		</g>
		<g transform="rotate(67.5 400,250)" class="st4">
			<path id="ray2_3_" class="st7" d="M376.6,253.8c-8.8,4.2-10.7,10.9-19.3,13.3c7.4-0.5,10.2-7.9,19.9-11.5 M397.7,238.2
				l-34.3,36.9l36.9-34.3"/>
		</g>
	</g>
	<g id="rays_1_" class="st2">
		<path id="ray1_4_" class="st3" d="M397.7,236.1L331,266.7c0,0-1.3,0.5-0.9,1.4s1.6,0.3,1.6,0.3l68.8-25.5 M374.5,242.1
			c-10.1-0.4-15.7,5.9-24.8,5.1c-9.1-0.8-14.2,4.2-17.7,5.3c-3.5,1.2-5.6-1.2-6.1-0.2s2.3,3.3,7.3,2.6s6.5-4.5,17.6-3.6
			s13.6-4.5,23.7-3.2"/>
		<g transform="rotate(22.5 400,250)" class="st4">
			<path id="ray1_5_" class="st5" d="M399.1,235.8l-73.4,2.8c0,0-1.4,0-1.4,0.9s1.4,0.9,1.4,0.9l73.4,2.8 M375.4,232.5
				c-9.2-4.2-16.8-0.6-24.8-4.8c-8.1-4.2-14.7-1.6-18.4-1.9c-3.7-0.3-4.7-3.3-5.6-2.5s0.8,3.9,5.8,5.2c4.9,1.2,7.7-1.7,17.6,3.4
				c9.9,5.1,14.3,1,23.2,6.1"/>
		</g>
		<g transform="rotate(45 400,250)" class="st4">
			<path id="ray1_6_" class="st5" d="M400.5,236.1l-68.8-25.5c0,0-1.3-0.5-1.6,0.3c-0.4,0.9,0.9,1.4,0.9,1.4l66.7,30.6 M379.8,224
				c-6.9-7.4-15.3-7-21.1-14c-5.8-7-13-7.1-16.3-8.8s-3.1-4.9-4.2-4.5s-0.7,4,3.3,7c4.1,3,7.8,1.4,15,9.8
				c7.2,8.5,12.9,6.4,19.1,14.5"/>
		</g>
		<g transform="rotate(67.5 400,250)" class="st4">
			<path id="ray1_7_" class="st5" d="M401.7,236.9L347.9,187c0,0-1-1-1.6-0.3c-0.7,0.7,0.3,1.6,0.3,1.6l49.9,53.8 M387.2,217.8
				c-3.5-9.5-11.4-12.3-14.2-21c-2.7-8.7-9.3-11.5-11.7-14.3c-2.4-2.8-1-5.7-2.2-5.7c-1.1-0.1-2.2,3.4,0.4,7.7s6.7,4.3,10.1,14.8
				c3.4,10.6,9.4,10.9,12,20.7"/>
		</g>
		<path id="ray2_4_" class="st6" d="M372.8,244.1c-9.7,0.5-14.1,6-22.9,4.9c7,2.4,12.5-3.4,22.8-3 M398.3,237.8l-45.8,21l47.2-17.6"
			/>
		<g transform="rotate(22.5 400,250)" class="st4">
			<path id="ray2_5_" class="st7" d="M373,233.7c-9.2-3.3-15.3,0.2-23.1-4.2c5.6,4.9,12.8,1.7,22.3,5.9 M399,237.6l-50.4,1.8
				l50.4,1.8"/>
		</g>
		<g transform="rotate(45 400,250)" class="st4">
			<path id="ray2_6_" class="st7" d="M377.2,224.2c-7.2-6.5-14.2-5.7-19.7-12.7c3.3,6.7,11.2,6.4,18.3,14 M399.7,237.7l-47.2-17.6
				l45.8,21"/>
		</g>
		<g transform="rotate(90 400,250)" class="st4">
			<path id="ray2_7_" class="st7" d="M384.7,217c-4.2-8.8-10.9-10.7-13.3-19.3c0.5,7.4,7.9,10.2,11.5,19.9 M400.3,238.1l-36.9-34.3
				l34.3,36.9"/>
		</g>
	</g>
	<g id="rays_3_" class="st2">
		<path id="ray1_12_" class="st3" d="M400.5,242.9l66.7-30.6c0,0,1.3-0.5,0.9-1.4s-1.6-0.3-1.6-0.3l-68.8,25.5 M423.6,236.8
			c10.1,0.4,15.7-5.9,24.8-5.1c9.1,0.8,14.2-4.2,17.7-5.3c3.5-1.2,5.6,1.2,6.1,0.2s-2.3-3.3-7.3-2.6s-6.5,4.5-17.6,3.6
			s-13.6,4.5-23.7,3.2"/>
		<g transform="rotate(22.5 400,250)" class="st4">
			<path id="ray1_13_" class="st5" d="M399.1,243.2l73.4-2.8c0,0,1.4,0,1.4-0.9s-1.4-0.9-1.4-0.9l-73.4-2.8 M422.8,246.4
				c9.2,4.2,16.8,0.6,24.8,4.8c8.1,4.2,14.7,1.6,18.4,1.9c3.7,0.3,4.7,3.3,5.6,2.5c0.9-0.8-0.8-3.9-5.8-5.2
				c-4.9-1.2-7.7,1.7-17.6-3.4s-14.3-1-23.2-6.1"/>
		</g>
		<g transform="rotate(45 400,250)" class="st4">
			<path id="ray1_14_" class="st5" d="M397.7,242.9l68.8,25.5c0,0,1.3,0.5,1.6-0.3c0.4-0.9-0.9-1.4-0.9-1.4l-66.7-30.6 M418.3,254.9
				c6.9,7.4,15.3,7,21.1,14c5.8,7,13,7.1,16.3,8.8c3.3,1.7,3.1,4.9,4.2,4.5s0.7-4-3.3-7c-4.1-3-7.8-1.4-15-9.8
				c-7.2-8.5-12.9-6.4-19.1-14.5"/>
		</g>
		<g transform="rotate(67.5 400,250)" class="st4">
			<path id="ray1_15_" class="st5" d="M396.5,242.1l53.8,49.9c0,0,1,1,1.6,0.3c0.7-0.7-0.3-1.6-0.3-1.6l-49.9-53.8 M410.9,261.1
				c3.5,9.5,11.4,12.3,14.2,21c2.7,8.7,9.3,11.5,11.7,14.3c2.4,2.8,1,5.7,2.2,5.7c1.1,0.1,2.2-3.4-0.4-7.7s-6.7-4.3-10.1-14.8
				c-3.4-10.6-9.4-10.9-12-20.7"/>
		</g>
		<path id="ray2_12_" class="st6" d="M425.4,234.8c9.7-0.5,14.1-6,22.9-4.9c-7-2.4-12.5,3.4-22.8,3 M399.9,241.2l45.8-21l-47.2,17.6
			"/>
		<g transform="rotate(22.5 400,250)" class="st4">
			<path id="ray2_13_" class="st7" d="M425.1,245.2c9.2,3.3,15.3-0.2,23.1,4.2c-5.6-4.9-12.8-1.7-22.3-5.9 M399.2,241.4l50.4-1.8
				l-50.4-1.8"/>
		</g>
		<g transform="rotate(45 400,250)" class="st4">
			<path id="ray2_14_" class="st7" d="M420.9,254.8c7.2,6.5,14.2,5.7,19.7,12.7c-3.3-6.7-11.2-6.4-18.3-14 M398.4,241.2l47.2,17.6
				l-45.8-21"/>
		</g>
		<g transform="rotate(270 400,250)" class="st4">
			<path id="ray2_15_" class="st7" d="M413.4,262c4.2,8.8,10.9,10.7,13.3,19.3c-0.5-7.4-7.9-10.2-11.5-19.9 M397.8,240.9l36.9,34.3
				l-34.3-36.9"/>
		</g>
	</g>
	<g id="rays_2_" class="st2">
		<path id="ray1_8_" class="st3" d="M402.5,238.1l-30.6-66.7c0,0-0.5-1.3-1.4-0.9c-0.9,0.4-0.3,1.6-0.3,1.6l25.5,68.8 M396.4,214.9
			c0.4-10.1-5.9-15.7-5.1-24.8s-4.2-14.2-5.3-17.7c-1.2-3.5,1.2-5.6,0.2-6.1s-3.3,2.3-2.6,7.3c0.7,5,4.5,6.5,3.6,17.6
			s4.5,13.6,3.2,23.7"/>
		<g transform="rotate(22.5 400,250)" class="st4">
			<path id="ray1_9_" class="st5" d="M402.8,239.5l-2.8-73.4c0,0,0-1.4-0.9-1.4s-0.9,1.4-0.9,1.4l-2.8,73.4 M406,215.8
				c4.2-9.2,0.6-16.8,4.8-24.8c4.2-8.1,1.6-14.7,1.9-18.4c0.3-3.7,3.3-4.7,2.5-5.6c-0.8-0.9-3.9,0.8-5.2,5.8
				c-1.2,4.9,1.7,7.7-3.4,17.6c-5.1,9.9-1,14.3-6.1,23.2"/>
		</g>
		<g transform="rotate(45 400,250)" class="st4">
			<path id="ray1_10_" class="st5" d="M402.5,240.9L428,172c0,0,0.5-1.3-0.3-1.6c-0.9-0.4-1.4,0.9-1.4,0.9L395.7,238 M414.6,220.2
				c7.4-6.9,7-15.3,14-21.1s7.1-13,8.8-16.3c1.7-3.3,4.9-3.1,4.5-4.2c-0.4-1.1-4-0.7-7,3.3c-3,4.1-1.4,7.8-9.8,15
				c-8.5,7.2-6.4,12.9-14.5,19.1"/>
		</g>
		<g transform="rotate(67.5 400,250)" class="st4">
			<path id="ray1_11_" class="st5" d="M401.7,242.1l49.9-53.8c0,0,1-1,0.3-1.6c-0.7-0.7-1.6,0.3-1.6,0.3l-53.8,49.9 M420.7,227.6
				c9.5-3.5,12.3-11.4,21-14.2c8.7-2.7,11.5-9.3,14.3-11.7c2.8-2.4,5.7-1,5.7-2.2c0.1-1.1-3.4-2.2-7.7,0.4
				c-4.3,2.6-4.3,6.7-14.8,10.1c-10.6,3.4-10.9,9.4-20.7,12"/>
		</g>
		<path id="ray2_8_" class="st6" d="M394.4,213.2c-0.5-9.7-6-14.1-4.9-22.9c-2.4,7,3.4,12.5,3,22.8 M400.8,238.7l-21-45.8l17.6,47.2
			"/>
		<g transform="rotate(22.5 400,250)" class="st4">
			<path id="ray2_9_" class="st7" d="M404.8,213.4c3.3-9.2-0.2-15.3,4.2-23.1c-4.9,5.6-1.7,12.8-5.9,22.3 M401,239.4l-1.8-50.4
				l-1.8,50.4"/>
		</g>
		<g transform="rotate(45 400,250)" class="st4">
			<path id="ray2_10_" class="st7" d="M414.4,217.6c6.5-7.2,5.7-14.2,12.7-19.7c-6.7,3.3-6.4,11.2-14,18.3 M400.9,240.1l17.6-47.2
				l-21,45.8"/>
		</g>
		<g transform="rotate(180 400,250)" class="st4">
			<path id="ray2_11_" class="st7" d="M421.6,225.1c8.8-4.2,10.7-10.9,19.3-13.3c-7.4,0.5-10.2,7.9-19.9,11.5 M400.5,240.7
				l34.3-36.9l-36.9,34.3"/>
		</g>
	</g>
	<g id="rays_4_">
		<path id="ray1_19_" class="st5" d="M402.5,238.1l-30.6-66.7c0,0-0.5-1.3-1.4-0.9c-0.9,0.4-0.3,1.6-0.3,1.6l25.5,68.8 M396.4,214.9
			c0.4-10.1-5.9-15.7-5.1-24.8s-4.2-14.2-5.3-17.7c-1.2-3.5,1.2-5.6,0.2-6.1s-3.3,2.3-2.6,7.3c0.7,5,4.5,6.5,3.6,17.6
			s4.5,13.6,3.2,23.7"/>
		<path id="ray2_19_" class="st7" d="M394.4,213.2c-0.5-9.7-6-14.1-4.9-22.9c-2.4,7,3.4,12.5,3,22.8 M400.8,238.7l-21-45.8
			l17.6,47.2"/>
	</g>
	<g id="rays_5_">
		<path id="ray1_16_" class="st5" d="M401.7,236.9L347.9,187c0,0-1-1-1.6-0.3c-0.7,0.7,0.3,1.6,0.3,1.6l49.9,53.8 M387.2,217.8
			c-3.5-9.5-11.5-12.2-14.2-21c-2.7-8.7-9.3-11.5-11.7-14.3c-2.4-2.8-1-5.6-2.1-5.7c-1.1-0.1-2.2,3.4,0.4,7.7
			c2.6,4.4,6.6,4.3,10.1,14.9c3.4,10.6,9.4,10.8,12,20.7"/>
		<path id="ray2_16_" class="st7" d="M384.7,217c-4.2-8.8-10.9-10.7-13.3-19.3c0.5,7.4,7.9,10.2,11.5,19.9 M400.4,238.1l-36.9-34.3
			l34.3,36.9"/>
	</g>
	<g id="rays_6_">
		<path id="ray1_17_" class="st5" d="M400.5,236.1l-68.8-25.5c0,0-1.3-0.6-1.6,0.4c-0.4,0.9,0.9,1.3,0.9,1.3l66.7,30.6 M379.8,224
			c-6.9-7.4-15.3-6.9-21.1-13.9c-5.9-7-13-7.1-16.3-8.8c-3.3-1.6-3.1-4.8-4.2-4.5c-1.1,0.4-0.7,4,3.3,7c4,3,7.8,1.4,15,9.9
			c7.2,8.5,12.8,6.4,19,14.5"/>
		<path id="ray2_17_" class="st7" d="M377.2,224.2c-7.2-6.5-14.2-5.7-19.7-12.7c3.3,6.6,11.2,6.4,18.2,14 M399.7,237.7l-47.2-17.5
			l45.8,20.9"/>
	</g>
	<g id="rays_7_">
		<path id="ray1_18_" class="st5" d="M399.1,235.8l-73.3,2.7c0,0-1.4,0-1.4,0.9c0,1,1.4,0.9,1.4,0.9l73.3,2.8 M375.3,232.6
			c-9.2-4.2-16.8-0.6-24.9-4.8s-14.7-1.6-18.4-1.9c-3.7-0.2-4.7-3.3-5.6-2.5s0.9,3.9,5.7,5.2c4.9,1.3,7.7-1.7,17.6,3.4
			c9.9,5.1,14.3,1,23.1,6.1"/>
		<path id="ray2_18_" class="st7" d="M373,233.8c-9.2-3.3-15.3,0.1-23-4.2c5.5,4.9,12.8,1.6,22.2,6 M399,237.6l-50.4,1.9l50.3,1.8"
			/>
	</g>
	<g id="rays_8_">
		<path id="ray1_20_" class="st5" d="M397.7,236.1L331,266.7c0,0-1.3,0.5-0.9,1.4s1.6,0.3,1.6,0.3l68.8-25.5 M374.5,242.2
			c-10.1-0.4-15.7,5.9-24.8,5.1s-14.2,4.2-17.7,5.3c-3.5,1.2-5.6-1.2-6.1-0.2s2.3,3.3,7.3,2.6c5-0.7,6.5-4.5,17.6-3.6
			s13.6-4.5,23.7-3.2"/>
		<path id="ray2_20_" class="st7" d="M372.8,244.2c-9.7,0.5-14.1,6-22.9,4.9c7,2.4,12.5-3.4,22.8-3 M398.3,237.8l-45.8,21l47.2-17.6
			"/>
	</g>
	<g id="rays_9_">
		<path id="ray1_21_" class="st5" d="M396.5,236.9l-49.9,53.8c0,0-1,1-0.3,1.6c0.7,0.7,1.6-0.3,1.6-0.3l53.8-49.9 M377.4,251.4
			c-9.5,3.5-12.2,11.5-21,14.2c-8.7,2.7-11.5,9.3-14.3,11.7c-2.8,2.4-5.6,1-5.7,2.1c-0.1,1.1,3.4,2.2,7.7-0.4
			c4.4-2.6,4.3-6.6,14.9-10.1c10.6-3.4,10.8-9.4,20.7-12"/>
		<path id="ray2_21_" class="st7" d="M376.6,253.9c-8.8,4.2-10.7,10.9-19.3,13.3c7.4-0.5,10.2-7.9,19.9-11.5 M397.7,238.2
			l-34.3,36.9l36.9-34.3"/>
	</g>
	<g id="rays_10_">
		<path id="ray1_22_" class="st5" d="M395.7,238.1l-25.5,68.8c0,0-0.6,1.3,0.4,1.6c0.9,0.4,1.3-0.9,1.3-0.9l30.6-66.7 M383.6,258.8
			c-7.4,6.9-6.9,15.3-13.9,21.1c-7,5.9-7.1,13-8.8,16.3c-1.6,3.3-4.8,3.1-4.5,4.2s4,0.7,7-3.3c3-4,1.4-7.8,9.9-15
			c8.5-7.2,6.4-12.8,14.5-19"/>
		<path id="ray2_22_" class="st7" d="M383.8,261.4c-6.5,7.2-5.7,14.2-12.7,19.7c6.6-3.3,6.4-11.2,14-18.2 M397.3,238.9l-17.5,47.2
			l20.9-45.8"/>
	</g>
	<g id="rays_11_">
		<path id="ray1_23_" class="st5" d="M395.4,239.5l2.7,73.3c0,0,0,1.4,0.9,1.4c1,0,0.9-1.4,0.9-1.4l2.8-73.3 M392.2,263.3
			c-4.2,9.2-0.6,16.8-4.8,24.9c-4.2,8.1-1.6,14.7-1.9,18.4c-0.2,3.7-3.3,4.7-2.5,5.6s3.9-0.9,5.2-5.7c1.3-4.9-1.7-7.7,3.4-17.6
			c5.1-9.9,1-14.3,6.1-23.1"/>
		<path id="ray2_23_" class="st7" d="M393.4,265.6c-3.3,9.2,0.1,15.3-4.2,23c4.9-5.5,1.6-12.8,6-22.2 M397.2,239.6l1.9,50.4
			l1.8-50.3"/>
	</g>
	<g id="rays_12_">
		<path id="ray1_24_" class="st5" d="M395.7,240.9l30.6,66.7c0,0,0.5,1.3,1.4,0.9s0.3-1.6,0.3-1.6l-25.5-68.8 M401.8,264.1
			c-0.4,10.1,5.9,15.7,5.1,24.8s4.2,14.2,5.3,17.7c1.2,3.5-1.2,5.6-0.2,6.1s3.3-2.3,2.6-7.3c-0.7-5-4.5-6.5-3.6-17.6
			s-4.5-13.6-3.2-23.7"/>
		<path id="ray2_24_" class="st7" d="M403.8,265.8c0.5,9.7,6,14.1,4.9,22.9c2.4-7-3.4-12.5-3-22.8 M397.4,240.3l21,45.8l-17.6-47.2"
			/>
	</g>
	<g id="rays_13_">
		<path id="ray1_25_" class="st5" d="M396.5,242.1l53.8,49.9c0,0,1,1,1.6,0.3c0.7-0.7-0.3-1.6-0.3-1.6l-49.9-53.8 M411,261.2
			c3.5,9.5,11.5,12.2,14.2,21c2.7,8.7,9.3,11.5,11.7,14.3c2.4,2.8,1,5.6,2.1,5.7c1.1,0.1,2.2-3.4-0.4-7.7
			c-2.6-4.4-6.6-4.3-10.1-14.9c-3.4-10.6-9.4-10.8-12-20.7"/>
		<path id="ray2_25_" class="st7" d="M413.5,262c4.2,8.8,10.9,10.7,13.3,19.3c-0.5-7.4-7.9-10.2-11.5-19.9 M397.8,240.9l36.9,34.3
			l-34.3-36.9"/>
	</g>
	<g id="rays_14_">
		<path id="ray1_26_" class="st5" d="M397.7,242.9l68.8,25.5c0,0,1.3,0.6,1.6-0.4c0.4-0.9-0.9-1.3-0.9-1.3l-66.7-30.6 M418.4,255
			c6.9,7.4,15.3,6.9,21.1,13.9c5.9,7,13,7.1,16.3,8.8c3.3,1.6,3.1,4.8,4.2,4.5s0.7-4-3.3-7c-4-3-7.8-1.4-15-9.9
			c-7.2-8.5-12.8-6.4-19-14.5"/>
		<path id="ray2_26_" class="st7" d="M421,254.8c7.2,6.5,14.2,5.7,19.7,12.7c-3.3-6.6-11.2-6.4-18.2-14 M398.5,241.3l47.2,17.5
			l-45.8-20.9"/>
	</g>
	<g id="rays_15_">
		<path id="ray1_27_" class="st5" d="M399.1,243.2l73.3-2.7c0,0,1.4,0,1.4-0.9c0-1-1.4-0.9-1.4-0.9l-73.3-2.8 M422.9,246.4
			c9.2,4.2,16.8,0.6,24.9,4.8s14.7,1.6,18.4,1.9c3.7,0.2,4.7,3.3,5.6,2.5s-0.9-3.9-5.7-5.2c-4.9-1.3-7.7,1.7-17.6-3.4
			c-9.9-5.1-14.3-1-23.1-6.1"/>
		<path id="ray2_27_" class="st7" d="M425.2,245.2c9.2,3.3,15.3-0.1,23,4.2c-5.5-4.9-12.8-1.6-22.2-6 M399.2,241.4l50.4-1.9
			l-50.3-1.8"/>
	</g>
	<g id="rays_16_">
		<path id="ray1_28_" class="st5" d="M400.5,242.9l66.7-30.6c0,0,1.3-0.5,0.9-1.4s-1.6-0.3-1.6-0.3l-68.8,25.5 M423.7,236.8
			c10.1,0.4,15.7-5.9,24.8-5.1s14.2-4.2,17.7-5.3c3.5-1.2,5.6,1.2,6.1,0.2s-2.3-3.3-7.3-2.6c-5,0.7-6.5,4.5-17.6,3.6
			s-13.6,4.5-23.7,3.2"/>
		<path id="ray2_28_" class="st7" d="M425.4,234.8c9.7-0.5,14.1-6,22.9-4.9c-7-2.4-12.5,3.4-22.8,3 M399.9,241.2l45.8-21l-47.2,17.6
			"/>
	</g>
	<g id="rays_17_">
		<path id="ray1_29_" class="st5" d="M401.7,242.1l49.9-53.8c0,0,1-1,0.3-1.6c-0.7-0.7-1.6,0.3-1.6,0.3l-53.8,49.9 M420.8,227.6
			c9.5-3.5,12.2-11.5,21-14.2c8.7-2.7,11.5-9.3,14.3-11.7c2.8-2.4,5.6-1,5.7-2.1c0.1-1.1-3.4-2.2-7.7,0.4
			c-4.4,2.6-4.3,6.6-14.9,10.1s-10.8,9.4-20.7,12"/>
		<path id="ray2_29_" class="st7" d="M421.6,225.1c8.8-4.2,10.7-10.9,19.3-13.3c-7.4,0.5-10.2,7.9-19.9,11.5 M400.5,240.8l34.3-36.9
			l-36.9,34.3"/>
	</g>
	<g id="rays_18_">
		<path id="ray1_30_" class="st5" d="M402.5,240.9l25.5-68.8c0,0,0.6-1.3-0.4-1.6c-0.9-0.4-1.3,0.9-1.3,0.9l-30.6,66.7 M414.6,220.2
			c7.4-6.9,6.9-15.3,13.9-21.1c7-5.9,7.1-13,8.8-16.3c1.6-3.3,4.8-3.1,4.5-4.2c-0.4-1.1-4-0.7-7,3.3c-3,4-1.4,7.8-9.9,15
			c-8.5,7.2-6.4,12.8-14.5,19"/>
		<path id="ray2_30_" class="st7" d="M414.4,217.6c6.5-7.2,5.7-14.2,12.7-19.7c-6.6,3.3-6.4,11.2-14,18.2 M400.9,240.1l17.5-47.2
			l-20.9,45.8"/>
	</g>
	<g id="rays_19_">
		<path id="ray1_31_" class="st5" d="M402.8,239.5l-2.7-73.3c0,0,0-1.4-0.9-1.4c-1,0-0.9,1.4-0.9,1.4l-2.8,73.3 M406,215.7
			c4.2-9.2,0.6-16.8,4.8-24.9c4.2-8.1,1.6-14.7,1.9-18.4c0.2-3.7,3.3-4.7,2.5-5.6s-3.9,0.9-5.2,5.7c-1.3,4.9,1.7,7.7-3.4,17.6
			c-5.1,9.9-1,14.3-6.1,23.1"/>
		<path id="ray2_31_" class="st7" d="M404.8,213.4c3.3-9.2-0.1-15.3,4.2-23c-4.9,5.5-1.6,12.8-6,22.2 M401,239.4l-1.9-50.4
			l-1.8,50.3"/>
	</g>
	<g>
		<circle class="st8" cx="399.1" cy="239.5" r="29.9"/>
		<path id="loweyecontour" class="st9" d="M409.3,233.1c-2,0-4,0.9-5.1,2.7c2.3,2.1,7.4,2.3,10.8-0.2
			C413.5,234,411.3,233.1,409.3,233.1L409.3,233.1z M409.2,233.5c2,0,3.8,0.9,4.1,1.8c-2.3,2.5-6,2.3-8.3,0.5
			C406.1,234.2,407.7,233.6,409.2,233.5L409.2,233.5z"/>
		<g transform="matrix(-1 0 0 1 800.25 0)">
			<path id="uppalpebra" class="st7" d="M390.3,231.7c-4.6,0-7.3,3.6-6.9,3.9c0.5,0.2,2.8-3.2,6.9-3.2c1.3,0,2.7-0.1,4.1,1.1
				c1.4,1.1,2.3,1.6,2.8,1.8s0.7-0.5,0.5-0.7c-0.2-0.2-0.9,0-2.3-1.1S393.3,231.7,390.3,231.7L390.3,231.7z"/>
		</g>
		<g transform="matrix(-1 0 0 1 800.25 0)">
			<path id="eyebrow_nose" class="st7" d="M382.1,233c5-6.9,11.9-6.4,17-2.3c0.3,0.8,0.5,1.7,0.7,2.6c0.6,3.4-0.1,7-1.9,10.5
				c-0.2-0.3-0.7-0.5-0.9-0.5c2-2.9,2.9-5.7,2.4-8.3c-0.2-1.3-0.8-2.6-1.7-3.8C394.1,227.7,387.4,228.4,382.1,233L382.1,233z"/>
		</g>
		<g transform="translate(18.862)">
			<circle id="pupil" class="st7" cx="390.8" cy="235.3" r="2.1"/>
		</g>
		<g transform="matrix(-1 0 0 1 800.25 0)">
			<path id="lowpalpebra" class="st7" d="M384.8,236.7c4.6,1.9,7.4,1.9,9.1,1c1.9-0.9,2.3-1.4,2.8-1.4s0.5,0.4-1.8,1.8
				C392.6,239.5,388.7,239.7,384.8,236.7L384.8,236.7z"/>
		</g>
		<path class="st7" d="M394.5,243.6c-1,0.2-1.7,1.1-1.7,2.1c0,1.1,0.9,2.1,2.1,2.1c0.7,0,1.3-0.3,1.7-0.9c0.8,0.6,1.9,0.7,2.5,0.7
			c0.1,0,0.2,0,0.3,0c0.6,0,1.7-0.1,2.5-0.7c0.4,0.6,1,0.9,1.7,0.9c1.1,0,2.1-0.9,2.1-2.1c0-1-0.7-1.9-1.7-2.1
			c0.6,0.2,0.9,0.7,0.9,1.3c0,0.8-0.6,1.4-1.4,1.4c-0.7,0-1.3-0.6-1.4-1.3c-0.2,0.4-1.1,1.8-2.9,1.8c-1.7-0.1-2.6-1.4-2.9-1.8
			c0,0.7-0.6,1.3-1.4,1.3s-1.4-0.6-1.4-1.4C393.6,244.3,394,243.8,394.5,243.6L394.5,243.6z"/>
		<path class="st7" d="M396.8,249.7c-2.3,0-3.2,2.1-5.3,3.5c1.2-0.5,2.1-1.4,3.7-2.3c1.6-0.9,3,0.2,3.9,0.2l0,0
			c0.9,0,2.3-1.1,3.9-0.2c1.6,0.9,2.5,1.8,3.7,2.3c-2.1-1.4-3-3.5-5.3-3.5c-0.5,0-1.4,0.2-2.3,0.7l0,0
			C398.1,250,397.2,249.7,396.8,249.7z"/>
		<path class="st7" d="M396,252.5c-0.9,0-2.1,0.2-3.8,0.7c4.1-0.9,5.1,0.5,6.9,0.5l0,0c1.8,0,2.8-1.4,6.9-0.5
			c-4.6-1.4-5.5-0.5-6.9-0.5l0,0C398.2,252.7,397.5,252.4,396,252.5L396,252.5z"/>
		<path class="st7" d="M392.4,253.2c-0.3,0-0.6,0-0.9,0c4.8,0.5,2.5,3.2,7.6,3.2l0,0c5.1,0,2.8-2.8,7.6-3.2
			c-5.1-0.5-3.5,2.5-7.6,2.5l0,0C395.2,255.7,396.4,253.1,392.4,253.2L392.4,253.2z"/>
		<path class="st7" d="M403.2,260.6c0-2.3-1.9-4.1-4.1-4.1c-2.3,0-4.1,1.9-4.1,4.1c0.5-1.9,2.2-3.3,4.1-3.3
			C401.1,257.4,402.8,258.7,403.2,260.6L403.2,260.6L403.2,260.6z"/>
		<path id="eyebrow_nose_1_" class="st7" d="M380.5,233c5.3-4.6,12-5.3,15.6-1.8c0.9,1.2,1.5,2.5,1.7,3.8c0.5,2.6-0.4,5.4-2.4,8.3
			c0.2,0,0.7,0.2,0.9,0.5c1.8-3.5,2.5-7.1,1.9-10.5c-0.2-0.9-0.4-1.8-0.7-2.6C392.5,226.6,385.6,226.1,380.5,233L380.5,233z"/>
		<path id="uppalpebra_1_" class="st7" d="M388.8,231.7c3,0,3.7,0.7,5.1,1.8s2.1,0.9,2.3,1.1c0.2,0.2,0,0.9-0.5,0.7
			s-1.4-0.7-2.8-1.8c-1.4-1.2-2.8-1.1-4.1-1.1c-4.1,0-6.4,3.4-6.9,3.2C381.4,235.3,384.2,231.7,388.8,231.7L388.8,231.7z"/>
		<g transform="translate(-19.181)">
			<path id="loweyecontour_2_" class="st9" d="M408.3,233.1c-2.1,0-4.2,0.9-5.7,2.5c3.4,2.5,8.5,2.3,10.8,0.2
				C412.3,234,410.3,233.1,408.3,233.1L408.3,233.1z M408.3,233.5c1.6,0.1,3.2,0.7,4.2,2.3c-2.3,1.8-6,2-8.3-0.5
				C404.5,234.4,406.3,233.5,408.3,233.5L408.3,233.5z"/>
		</g>
		<circle id="pupil_1_" class="st7" cx="388.9" cy="235.3" r="2.1"/>
		<path id="lowpalpebra_1_" class="st7" d="M383.2,236.7c3.9,3,7.8,2.8,10.1,1.4c2.3-1.4,2.3-1.8,1.8-1.8s-0.9,0.5-2.8,1.4
			C390.6,238.6,387.8,238.6,383.2,236.7L383.2,236.7z"/>
	</g>
</g>
</svg>
