<?xml version="1.0" encoding="utf-8"?>
<!-- Generator: Adobe Illustrator 20.0.0, SVG Export Plug-In . SVG Version: 6.00 Build 0)  -->
<!DOCTYPE svg PUBLIC "-//W3C//DTD SVG 1.1//EN" "http://www.w3.org/Graphics/SVG/1.1/DTD/svg11.dtd">
<svg version="1.1" id="Layer_1" xmlns="http://www.w3.org/2000/svg" xmlns:xlink="http://www.w3.org/1999/xlink" x="0px" y="0px"
	 viewBox="0 0 800 480" style="enable-background:new 0 0 800 480;" xml:space="preserve">
<style type="text/css">
	.st0{clip-path:url(#SVGID_2_);}
	.st1{fill:#000066;}
	.st2{fill:#BD1021;}
	.st3{fill:#FFFFFF;}
	.st4{fill:#9C3900;stroke:#000000;stroke-width:1.761;stroke-linejoin:round;}
	.st5{fill:#FFC221;stroke:#000000;stroke-width:1.878;}
	.st6{fill:none;stroke:#000000;stroke-width:1.878;}
	.st7{fill:#FFFFFF;stroke:#000000;stroke-width:1.878;stroke-linejoin:round;}
	.st8{fill:none;stroke:#000000;stroke-width:1.631;}
	.st9{fill:#FFFFFF;stroke:#000000;stroke-width:1.878;}
</style>
<g>
	<defs>
		<rect id="SVGID_1_" width="800" height="480"/>
	</defs>
	<clipPath id="SVGID_2_">
		<use xlink:href="#SVGID_1_"  style="overflow:visible;"/>
	</clipPath>
	<g class="st0">
		<path class="st1" d="M-224-16H800v512H-224V-16z"/>
		<path class="st2" d="M0,240l800,240V0L0,240z"/>
		<path class="st3" d="M800,21.4v437.1L74.1,240L800,21.4z"/>
		<g>
			<path class="st4" d="M628,297.4c0,0-6.4-5.2,1.2-13.7c-4.1-3.5-0.3-10.2-0.3-10.2s-7-2.6,0.3-13.4c-5.2-3.5-2.9-11.3-2.9-11.3
				s-17.1-6.4-0.9-12.5c-13.4,5.8-25.9-7.8-25.9-7.8l-19.5,0.6c-3.3-16.2-29-2.1-9.9-48.5c-4.9-0.9-10.5-2.3-16,1.7
				c-5.5,4.1-21.2,12.8-30.5,4.1c-9.3-8.7,6.1-21.2,6.4-21.5c0.3-0.3,20.6-10.8,23.5-17.7c-0.3-5.2-6.7-9.3-0.9-20.6
				c6.7-10.8,47.6-20.9,66.3-24.4c9-4.1,13.1-11.9,13.1-11.9l2,7.6c0,0,41.3-12.2,43.3-18s0.9,5.2,0.9,5.2
				c16.3-1.5,36.9-15.4,39.8-9c13.7-2.6,39.8-14.2,39.8-14.2s9-0.3,2.6,9.6c4.1,6.4-1.2,11.9-1.5,11.9c-0.3,0,1.7,6.4-3.5,9.9
				c1.7,5.5-3.2,9.9-3.2,9.9s2.3,6.7-7,10.2c0.9,5.8-5.2,7-5.2,7s0.9,6.1-3.2,8.7c0,4.6-4.7,7-4.7,7s2.9,1.7-1.2,4.6
				c-4.1,2.9-46.2,28.8-46.2,28.5c0-0.3,30.8,5.5,32.8,6.7s25.3,16.6,25.3,16.6l-23.5,29.1c0,0-26.2-2.9-27.3-1.5s5.5,2,7,4.4
				c1.5,2.3,3.8,7.8,8.4,7.3c4.7-0.6-8.7,8.4-17.4,9.3c0,3.2,11,3.5,13.9,0.9c2.9-2.6-7,7.6-8.1,9s13.1-2,13.1-2s-2.3,9.6-14.8,12.5
				c4.9,8.1,2.9,13.4,2.6,13.4s-8.1-8.1-15.7-6.7c2,7.8,8.1,15.1,9.9,16.3c1.7,1.2-13.7,0.9-15.7-3.5s-3.8,10.5,1.7,15.1
				c-6.4,0.3-11.9-3.5-11.9-3.5s-3.8,8.7-1.2,13.1c2.6,4.4-9-8.7-9-8.7l-22.1,9.3L628,297.4L628,297.4z"/>
			<path class="st5" d="M457.3,280.1c0.5,0,32.1-0.5,46.6-8.8c7.2,11.4,17.1,19.1,17.1,19.1l4.7-16.6c0,0,11.4,0.5,12.4,3.1
				c-1.6,3.1-2.1,7.2-2.1,7.2s7.8,0.5,8.3,1.6c0.5,1-2.1,9.8-2.1,9.8l33.1,7.8c0,0,2.6-12.9,5.2-11.4c2.6,1.6,14,17.6,30,18.6
				c16,1,17.1-13.5,17.1-13.5l3.6,2.1c0,0,6.7-14.5,7.8-14.5c1,0,2.6,2.1,11.4,2.1c2.6,3.1,3.6,10.3,3.6,10.3s-9.8,9.8-6.7,17.6
				c3.1,7.8,3.6,5.7,3.6,5.7l71.4,17.1c0,0,3.6,5.7-2.6,8.8c0,0.5-71.9-16.6-71.9-16.6s-6.7,7.8-11.9,6.2c-5.2-1.6-1.6,3.1-1.6,3.1
				l77.6,6.2c0,0,5.7,7.2,1.6,9.3c-5.2,0.5-83.8-5.2-83.8-5.2s-4.7,9.8-9.8,1.6c-3.6,5.7-7.8-1.6-7.8-1.6s-6.7,5.2-7.8-0.5
				c-5.7,4.1-9.3-2.6-9.3-2.6l-33.1-2.1l-2.1,3.1c0,0,5.7,1.5-3.1,5.2c-8.8,3.6,52.8,2.1,54.3,2.6c1.6,0.5-4.1,5.2-4.1,5.2
				s31.6,2.1,37.3-4.7c5.7-6.7-2.1,8.8-2.1,8.8s24.8-1,24.8-2.1s-0.5,7.8-17.6,6.7c10.3,6.7,23.3,10.9,23.3,10.9s-12.9,3.1-27.9-0.5
				c2.6,6.7,14,12.9,14,12.9s-8.3,7.2-26.9-10.4c5.2,9.3,1,12.9,0.5,11.9c-0.5-1-9.3-14-30-18.6c12.9,8.3,7.2,11.9,7.2,11.9
				s-6.7-11.9-17.6,0c-4.1-10.9-20.2-17.1-39.8-18.1c-6.2-7.2-9.8-5.2-24.3-9.3c-8.3-9.3-20.2-19.7-20.2-19.7s0.5-14,14.5-12.4
				c1.6,4.7,1.6,3.1,1.6,3.1s15.5-5.7,20.2,2.1c6.7-11.9,16-1.8,17.6,2.4c4.5,0.7,26.9,1.3,26.9,1.3s-2.6-4.7-1-4.1
				c1.6,0.5,14-4.7,13.5-6.2c-0.5-1.6-1-6.7,1-6.2c2.1,0.5-17.6-2.6-28.5,5.7c-3.6-3.6-1-13.5-1-13.5l-32.1-6.7l-1.6,8.3
				c0,0-9.3,1.5-8.8-0.5c0.5-2.1-2.1,7.2-2.1,7.2s-12.4-3.1-12.4-3.6s3.6-18.6,3.6-18.1s-10.4,1-24.8,11.9
				C489.9,297.7,457.3,280.6,457.3,280.1L457.3,280.1z"/>
			<path class="st6" d="M536,284.8l-6.7,30 M542.2,296.1l-2.1,9.8 M575.3,303.9l-3.1,9.3 M632.7,367c-0.5,0-16.6,2.1-18.6,1.6
				c-2.1-0.5,25.4,8.3,25.4,11.9 M603.8,370.7c0,0-16-10.3-18.6-9.3c-2.6,1,16-0.5,17.6-2.1 M570.6,358.8c0,0-16.6,0.5-18.1-1
				s16,11.4,19.1,10.4 M538.6,351.5c-0.5,0-11.4-4.1-16-5.2c4.1,4.1,7.2,9.8,17.6,11.9 M542.7,344.8c-0.5-1-20.7-7.2-20.7-10.4
				c4.7,1.6,11.4,3.6,17.6,2.1 M649.8,321l-2.1,9.3"/>
			<path class="st5" d="M497.7,237.7c0,0-21.7,18.6,0,29.5c1-7.2,2.6-8.3,2.6-8.3s18.1,6.7,29-9.3c-4.7-6.7-12.9-4.1-12.9-4.1
				S499.2,245.4,497.7,237.7L497.7,237.7z"/>
			<path class="st6" d="M515.8,246l-15,12.9 M562,335.8c0,0,3.5,3.8,0.4,8.5 M634.8,339.6l-5.7,0.5 M588.2,336.5l10.4,1.6
				 M616.1,309.9c0,0,0.3,10.5-8.4,10.2c-8.7-0.3-5.8,0.3-5.8,0.3"/>
			<path class="st6" d="M622.8,308.1c0,0,3.5,1.2,2.6,3.8c-0.9,2.6,0.9,10.2-9.3,17.4c-10.8,2.3-9.6-9-9.6-9"/>
			<path class="st6" d="M626.5,311.3c0,0,6.4-3.8,7.3,2.3c0.9,6.1-5.2,17.4-9.6,19.2c-4.4,1.7-9.3-0.3-8.7-3.2 M634.4,314
				c0,0,5.8-4.6,7.6,1.5c1.7,6.1-4.6,19.8-7.3,20 M642.5,315.4c0,0,2.9-1.5,4.9,0.3 M633.2,336.3c-1.2,0.3-6.1,0.6-7.8-3.2
				 M607.1,326.2c-0.3,0-6.1,0.3-6.1,0.3 M629.5,349.1l-0.6-9.6l-2.3-3.2l-4.1,4.1c0,0-0.6,9.6-2.3,10.5 M622.5,340.1
				c-0.3-0.6-3.2-6.1-3.2-6.1l-4.9,6.1c0,0-0.6,8.7-2.3,9.6 M614.3,339.8c0-0.3-2-5.8-2-5.8s-5.8,3.2-6.4,5.5
				c-0.6,2.3-0.9,8.7-2.3,9.3 M605.9,338.4c0,0,0.6-5.2-1.2-5.2c-1.7,0-9.6,7.3-9.9,13.7"/>
			<path class="st7" d="M498.4,237.8c0,0,2.9-2.9,3.8-6.4c0.9-3.5-1.2-7.3,2.3-10.5c3.5-3.2,49.4-22.7,53.2-26.4
				c3.8-3.8,10.8-11.9,11.6-13.7c0.9-1.7,3.5,8.7-4.4,13.4c8.4-2.3,14-4.9,17.4-3.8c-3.5,4.9-12.8,13.1-17.1,13.1
				c10.2-3.8,19.5-7,22.1-4.9c2.6,2-12.5,12.2-18.6,12.8c10.2-2.6,23.8-6.7,25.6-2.3c-5.5,1.7-3.8,3.2-15.1,9.6
				c-1.5,1.2-8.7,1.5-8.7,1.5c8.7-0.9,20.6-4.4,21.8,2c-7,2.6-9.6,6.1-15.4,7.6c-5.8,1.5-19.2,4.1-27.3,7.3
				c-8.1,3.2-20,12.5-20,12.5s-25.9,0.9-25.9,0.6S498.7,238.1,498.4,237.8L498.4,237.8z"/>
			<path class="st6" d="M510.6,235.8c0,0,0.3-5.8,2.9-7.8c2.6-2,15.7-7,18.6-11.3c2.9-4.4-4.4,7.6-3.2,10.8 M515.8,227.1
				c0,0,6.4,2.3,4.9,7.3"/>
			<path class="st8" d="M523.4,230.4c0,2.6-2.1,4.8-4.8,4.8s-4.8-2.1-4.8-4.8l0,0c0-2.6,2.1-4.8,4.8-4.8S523.4,227.8,523.4,230.4
				L523.4,230.4L523.4,230.4z"/>
			<path class="st9" d="M720.1,220.1l50.3,9.6c0,0,5.5-6.4,2.6-9.9c7.6-1.7,5.5-11.6,5.5-11.6s8.7-3.8,1.5-12.5
				c4.9-4.9-1.2-8.7-1.2-8.7s2-8.7-4.4-9.6c1.7-7-11-9.3-11-9.3s-26.4,7.3-45,7.8c6.1,6.1-2.3,9.9-2.3,9.9s4.9,3.5,3.5,6.4
				c-1.5,2.9,0.9,6.1-5.5,8.1c8.4,3.8-0.9,10.2-0.9,10.2S722.4,216.9,720.1,220.1L720.1,220.1z"/>
			<path class="st6" d="M715.2,209.4c0,0,44.5,5.2,46.5,5.2s9.9,2.6,11.3,5.2 M717.5,206.7l61.9,1.5 M717.8,205.3
				c0,0,58.7-3.5,62.8-9.6 M719.5,192.5c0,0,59-6.4,59.6-5.5 M717.5,185.2c0,0,57.2-9,57.8-7.6 M554.2,148.3c0,0,18,19.8,16.3,33.1"
				/>
			<path class="st6" d="M569.3,171c0,0,5.8,8.4,8.1,9.3c2.3,0.9,22.7,2,23.8,10.8c1.2,5.5-4.4,3.8-3.5,7.8
				c1.5,5.2,15.1,11.9,29.9,4.1 M614.1,207c0,0,12.2,18,30.2-1.4 M635,213.4c0,0,14.8,7.8,27-12.5 M646.3,215.2c0,0,7.3,6.1,22.4-2
				 M689.6,205c0,0,22.4,4.6,23.8,6.1 M698,200.1c0.3,0,15.7,0.6,15.7,0.6 M688.4,191.3c0,0,26.7-1.7,30.2,3.8 M676.8,182.9
				c0,0,37.5,1.5,39.2,3.5 M685.2,221.3c0,0,6.4-1.7,7.3-0.9 M670.7,237c0,0,8.4,7.3,19.2,4.1 M675.4,249.2c0,0,9.6,4.4,20.9,1.7
				 M678.6,256.4c0,0,9.6,6.4,16,5.2 M674.2,260.2c0,0,6.7,4.9,7,7.6 M664.9,266c0,0,2,10.5,9.3,14.2 M660,270.7
				c0,0-3.2,13.7,4.9,22.1 M651.5,281.4c0,0.3-0.6,6.4-0.3,7 M599.2,228.5l15.7-0.9c0,0,5.8-2.3,1.7-6.1 M618.7,225.1
				c0.3,0,14.8,1.2,18.6,5.5c3.8,4.4,8.4,13.1,11,14.5c2.6,1.4,3.2-0.6,3.2-0.6 M645.1,242.2c0,0-7.8,13.4-1.7,17.4 M640.8,257
				c0,0-7,9.3-1.5,13.9 M637.9,269.8c0,0-5.5,9,1.2,15.1 M635.4,245.9c-0.4,0.4-6.8,4.9-9,3.8 M628.7,260.1c0,0,2.6,2.6,4.9,2.3
				 M629,273.8l4.2,2.9 M629.6,284.2l3.6,2.2 M563.9,141.7c0,0,7.6,4,13.8,0c6.1-4,35.4-18.9,43.1-21.4c7.6-2.4,11.9-16.5,13.4-22.6
				 M628.4,114.2l42.8-12.5c0,0,7-5.8,7.3-16.5 M675.5,96.8c0,0,42.8-4.3,42.8-20.2 M711.5,87.6c0,0,44.9-12.2,49.2-16.8"/>
			<path class="st6" d="M586.2,151.5c0,0,27.2-14.1,31.5-15.6c4.3-1.5,14.1-13.8-0.6-13.8"/>
			<path class="st6" d="M599.4,157c0.3,0,22.3-14.4,29.6-16.2c4-5.5,1.8-11.3-4.9-10.1"/>
			<path class="st6" d="M630.8,137.1c0.6-0.3,11.9-0.6,7.9,8.3c-5.8,4.3-30.9,16.8-30.9,16.8 M625,127.6l47.7-15.9
				c0,0,4-8.3-1.8-9.5 M710.6,87.9c0,0.3,6.1,3.7,2.4,9.2c-6.7,4-38.5,11.6-38.5,11.6 M758.9,83L714,95.6 M755.5,93.1L716.4,105
				 M752.2,102.9l-34.5,10.4 M745.7,112.7c-0.9,0-25.7,7.6-25.7,7.6 M740.2,120.3l-15.9,6.4 M736.3,128.9c-0.6,0-13.8,5.8-13.8,5.8
				 M732.3,135.9l-12.2,5.8 M711.2,149c0,0,1.5,0.6,1.2,2.4 M680.3,165.8c0,0,5.2,1.8,0.3,6.7c-2.4,3.4-9.5,2.4-13.8,8.6
				 M713.7,97.4c0,0,6.4,1.5,1.5,9.8c-12.8,4.9-38.8,12.8-38.8,12.8s-1.2,2.1-4.6,4c-3.4,1.8-40.3,12.2-40.3,12.2 M715.8,106.9
				c0,0,7,3.1,0,8.3c-7.9,4.6-35.8,13.1-35.8,13.1s-0.3,2.4-1.5,3.4c-1.2,0.9-37.9,13.1-37.9,13.1"/>
			<path class="st6" d="M717.6,115.1c0,0,7.3,2.1,0.9,8.3c-7.6,4.6-32.1,12.8-32.1,12.8s-2.4,3.1-6.4,4.3
				c-4,1.2-29.3,11.6-29.3,11.6 M719.5,123.4c2.1,0.9,7.9,1.8,0.9,7.3c-8.3,3.7-28.4,11.6-28.4,11.6l-1.8,3.4l-32.1,13.8
				 M721.3,131.6c0,0,3.1,3.7-3.7,7.9c-7.3,4-23.2,10.1-23.2,10.1 M717.6,140.2c0,0,3.4,2.1-0.9,5.2c-4.9,2.4-24.1,12.5-24.1,12.5
				l-12.5,8.3"/>
			<path class="st6" d="M673.6,112.1c0,0.3,5.2,4.6,3.4,9.5c4.6,3.4,3.7,7,3.7,7s6.4,3.7,5.5,8.9c6.4,1.5,6.1,5.2,6.1,5.2l-2.1,3.4
				c0,0,6.4-0.3,0.9,7.9c3.4,1.8,1.8,4,1.8,4 M691,154.2c-0.9,0-22.3,7.9-27.8,12.8"/>
			<path class="st6" d="M639.4,144.8c0,0,6.4-0.3,5.5,6.7c7.3-2.4,5.8,4.6,5.8,4.6s8.6-3.4,7,7.3c5.5-1.2,4.6,4.3,4.6,4.3
				s4.9-0.3,4.9,2.4c3.4-3.1,7-1.5,7-1.5s2.4-3.4,5.8-2.4 M645.2,151.2c0,0.6-28.7,16.5-28.7,16.5 M650.7,156.4L629,169.8
				 M658,163.1c0,0.3-18.9,11.3-18.9,11.3 M662.3,167.4c0,0-13.4,11-16.5,10.4 M666.9,170.7c0,0-7.6,5.8-14.1,8.6 M674.9,168.3
				c0,0,2.4,3.1-12.8,11"/>
		</g>
	</g>
</g>
</svg>
