<?xml version="1.0" encoding="utf-8"?>
<!-- Generator: Adobe Illustrator 20.0.0, SVG Export Plug-In . SVG Version: 6.00 Build 0)  -->
<!DOCTYPE svg PUBLIC "-//W3C//DTD SVG 1.1//EN" "http://www.w3.org/Graphics/SVG/1.1/DTD/svg11.dtd">
<svg version="1.1" id="Layer_1" xmlns="http://www.w3.org/2000/svg" xmlns:xlink="http://www.w3.org/1999/xlink" x="0px" y="0px"
	 viewBox="0 0 800 480" style="enable-background:new 0 0 800 480;" xml:space="preserve">
<style type="text/css">
	.st0{fill:#000066;}
	.st1{fill:#FFFFFF;}
	.st2{fill:#CC0000;}
</style>
<g>
	<path class="st0" d="M0,0h800v480H0V0z"/>
	<path class="st1" d="M0,0v28L351.4,250h44.2v-27.9L44.2,0H0z M395.7,0v28L44.2,250H0v-27.9L351.4,0H395.7z"/>
	<path class="st1" d="M164.9,0v250h65.9V0H164.9L164.9,0z M0,83.3v83.3h395.7V83.3H0z"/>
	<path class="st2" d="M0,100v50h395.7v-50H0z M178.1,0v250h39.6V0H178.1L178.1,0z M0,250l131.9-83.3h29.5L29.5,250H0z M0,0
		l131.9,83.3h-29.5L0,18.6V0z M234.3,83.3L366.2,0h29.5L263.8,83.3H234.3z M395.7,250l-131.9-83.3h29.5l102.4,64.7L395.7,250
		L395.7,250z"/>
	<path class="st1" d="M265.7,386.2L222,390l6,43.4l-30.2-31.8l-30.2,31.8l6-43.4l-43.7-3.8l37.7-22.4l-24.2-36.5l41,15.5l13.4-41.7
		l13.4,41.7l41-15.5L228,363.9 M588.5,402.6l-11.9-17.9l20.1,7.6l6.6-20.5l6.6,20.5l20.1-7.6l-11.9,17.9l18.5,11l-21.5,1.9l3,21.3
		l-14.8-15.6l-14.8,15.6l3-21.3l-21.5-1.9 M588.5,83.6l-11.9-17.9l20.1,7.6l6.6-20.5l6.6,20.5l20.1-7.6l-11.9,17.9l18.5,11
		l-21.5,1.9l3,21.3l-14.8-15.6l-14.8,15.6l3-21.3L570,94.5 M468.8,213.2l-11.9-17.9l20.1,7.6l6.6-20.5l6.6,20.5l20.1-7.6l-11.9,17.9
		l18.5,11l-21.5,1.9l3,21.3l-14.8-15.6l-14.8,15.6l3-21.3l-21.5-1.9 M694.9,181.3l-11.9-17.9l20.2,7.6l6.5-20.5l6.6,20.5l20.1-7.6
		l-11.9,17.9l18.5,11l-21.5,1.9l2.9,21.3l-14.8-15.6l-14.8,15.6l3-21.3l-21.4-1.9 M651.2,275.3l-11.7,7.3l3.3-13.4l-10.5-8.9l13.8-1
		l5.2-12.8l5.2,12.8l13.8,1l-10.5,8.9l3.3,13.4"/>
</g>
</svg>
