<?xml version="1.0" encoding="utf-8"?>
<!-- Generator: Adobe Illustrator 20.0.0, SVG Export Plug-In . SVG Version: 6.00 Build 0)  -->
<!DOCTYPE svg PUBLIC "-//W3C//DTD SVG 1.1//EN" "http://www.w3.org/Graphics/SVG/1.1/DTD/svg11.dtd">
<svg version="1.1" id="Layer_1" xmlns="http://www.w3.org/2000/svg" xmlns:xlink="http://www.w3.org/1999/xlink" x="0px" y="0px"
	 viewBox="0 0 800 480" style="enable-background:new 0 0 800 480;" xml:space="preserve">
<style type="text/css">
	.st0{fill:#000099;}
	.st1{fill:#FFCC00;}
	.st2{fill:#FFFFFF;}
</style>
<g>
	<g>
		<path class="st0" d="M0,0h800v480H0L0,0z"/>
		<path class="st1" d="M155,0l466,480V0C621,0,155,0,155,0z"/>
	</g>
</g>
<g>
	<polyline class="st2" points="106.9,27.8 84,10.7 61.1,27.8 69.9,0.2 98.2,0.2 	"/>
	<polyline class="st2" points="158.9,81.1 136,64 113.1,81.1 121.9,53.5 99,36.5 127.3,36.5 136,8.9 144.8,36.5 173,36.5 
		150.2,53.5 	"/>
	<polyline class="st2" points="210.9,134.4 188,117.3 165.1,134.4 173.9,106.8 151,89.8 179.3,89.8 188,62.2 196.8,89.8 225,89.8 
		202.2,106.8 	"/>
	<polyline class="st2" points="262.9,187.7 240,170.7 217.1,187.7 225.9,160.1 203,143.1 231.3,143.1 240,115.5 248.8,143.1 
		277,143.1 254.2,160.1 	"/>
	<polyline class="st2" points="314.9,241 292,224 269.1,241 277.9,213.4 255,196.4 283.3,196.4 292,168.8 300.8,196.4 329,196.4 
		306.2,213.4 	"/>
	<polyline class="st2" points="366.9,294.3 344,277.3 321.1,294.3 329.9,266.8 307,249.7 335.3,249.7 344,222.1 352.8,249.7 
		381,249.7 358.2,266.8 	"/>
	<polyline class="st2" points="418.9,347.6 396,330.6 373.1,347.6 381.9,320.1 359,303 387.3,303 396,275.5 404.8,303 433,303 
		410.2,320.1 	"/>
	<polyline class="st2" points="470.9,400.9 448,383.9 425.1,400.9 433.9,373.4 411,356.3 439.3,356.3 448,328.8 456.8,356.3 
		485,356.3 462.2,373.4 	"/>
	<polyline class="st2" points="522.9,454.3 500,437.2 477.1,454.3 485.9,426.7 463,409.7 491.3,409.7 500,382.1 508.8,409.6 
		537,409.6 514.2,426.7 	"/>
	<polygon class="st2" points="537.9,480 515,463 543.3,463 552,435.4 560.8,463 589,463 566.2,480 	"/>
</g>
</svg>
