<?xml version="1.0" encoding="utf-8"?>
<!-- Generator: Adobe Illustrator 20.0.0, SVG Export Plug-In . SVG Version: 6.00 Build 0)  -->
<!DOCTYPE svg PUBLIC "-//W3C//DTD SVG 1.1//EN" "http://www.w3.org/Graphics/SVG/1.1/DTD/svg11.dtd">
<svg version="1.1" id="Layer_1" xmlns="http://www.w3.org/2000/svg" xmlns:xlink="http://www.w3.org/1999/xlink" x="0px" y="0px"
	 viewBox="0 0 800 480" style="enable-background:new 0 0 800 480;" xml:space="preserve">
<style type="text/css">
	.st0{fill:#00267F;}
	.st1{fill:#FFC726;}
</style>
<path class="st0" d="M0,0h800v480H0V0z"/>
<path class="st1" d="M266.7,0h266.7v480H266.7V0z"/>
<path d="M489.8,165.2c-17,2.6-34.4,11.5-46.4,23.9c-1.4,1.7,7.4-1.9,8.2-2c6.6-2-1.9,9.2-2.4,12.2c-6.7,21.5-12.6,42.2-14.7,66.9
	c0,1.7-0.3,3-1.1,3l-22.5-3.3v-79.5c5.3-0.1,13.5,1.3,18.2,2.8c-15.1-15.1-22.2-34.7-29.1-53.7c-6.9,18.9-14,38.6-29.1,53.7
	c4.7-1.5,12.9-2.9,18.2-2.8v79.5l-22.5,3.3c-0.8-0.1-1.1-1.3-1.1-3c-2.2-24.7-8-45.4-14.7-66.9c-0.5-2.9-9-14.1-2.4-12.2
	c0.8,0.1,9.6,3.7,8.2,2c-11.9-12.4-29.4-21.3-46.4-23.9c-1.5-0.4-2.4,0.4-1,2.1c22.5,34.6,41.3,75.5,41.2,124
	c8.7,0,29.9-5.2,38.7-5.2v56.1h10.8h0.3h10.8v-56.1c8.8,0,30,5.2,38.7,5.2c-0.2-48.5,18.7-89.4,41.2-124
	C492.2,165.6,491.3,164.8,489.8,165.2z"/>
</svg>
