<?xml version="1.0" encoding="utf-8"?>
<!-- Generator: Adobe Illustrator 20.0.0, SVG Export Plug-In . SVG Version: 6.00 Build 0)  -->
<!DOCTYPE svg PUBLIC "-//W3C//DTD SVG 1.1//EN" "http://www.w3.org/Graphics/SVG/1.1/DTD/svg11.dtd">
<svg version="1.1" id="Layer_1" xmlns="http://www.w3.org/2000/svg" xmlns:xlink="http://www.w3.org/1999/xlink" x="0px" y="0px"
	 viewBox="0 0 800 480" style="enable-background:new 0 0 800 480;" xml:space="preserve">
<style type="text/css">
	.st0{fill:none;}
	.st1{fill:#00CF00;}
	.st2{fill:#FF0000;}
	.st3{fill:#FFFFFF;}
	.st4{fill:#FF0000;stroke:#00DE00;stroke-width:3.901;}
</style>
<g transform="translate(84.875) scale(.9375)">
	<rect x="-61.9" y="16" class="st0" width="796" height="480"/>
	<path class="st1" d="M-90.5,0l426.7,256L-90.5,512V0z M762.8,0L336.1,256l426.7,256V0z"/>
	<path class="st2" d="M-90.5,0l426.7,256L762.8,0H-90.5z M-90.5,512l426.7-256l426.7,256H-90.5z"/>
	<path class="st3" d="M762.8,0h-79.5L-90.5,464.3V512H-11L762.8,47.7L762.8,0z"/>
	<path class="st3" d="M483.5,256c0,81.8-66,148-147.3,148s-147.3-66.3-147.3-148s66-148.1,147.3-148.1S483.5,174.2,483.5,256z"/>
	<path class="st3" d="M-90.5,0v47.7L683.3,512h79.5v-47.7L-11,0H-90.5z"/>
	<path class="st4" d="M365.1,200.2l-19.2,0.3l-9.9,16.4l-9.9-16.5l-19.1-0.4l9.3-16.8l-9.2-16.9l19.1-0.3l9.9-16.5l9.9,16.5
		l19.1,0.4l-9.3,16.8L365.1,200.2z M301,311.8l-19.2,0.3l-9.9,16.4l-9.9-16.5l-19.1-0.4l9.3-16.8L243,278l19.1-0.3l9.9-16.5
		l9.9,16.5l19.1,0.4l-9.3,16.8L301,311.8z M430.9,311.8l-19.2,0.3l-9.9,16.4l-9.9-16.5l-19.1-0.4l9.3-16.8l-9.2-16.9l19.1-0.3
		l9.9-16.5l9.9,16.5l19.1,0.4l-9.3,16.8L430.9,311.8z"/>
</g>
</svg>
