<?xml version="1.0" encoding="utf-8"?>
<!-- Generator: Adobe Illustrator 20.0.0, SVG Export Plug-In . SVG Version: 6.00 Build 0)  -->
<!DOCTYPE svg PUBLIC "-//W3C//DTD SVG 1.1//EN" "http://www.w3.org/Graphics/SVG/1.1/DTD/svg11.dtd">
<svg version="1.1" id="Layer_1" xmlns="http://www.w3.org/2000/svg" xmlns:xlink="http://www.w3.org/1999/xlink" x="0px" y="0px"
	 viewBox="0 0 800 480" style="enable-background:new 0 0 800 480;" xml:space="preserve">
<style type="text/css">
	.st0{fill:#CF142B;}
	.st1{fill:#00247D;}
	.st2{fill:#FFFFFF;}
	.st3{fill:#2F8F22;}
	.st4{fill:#D40000;stroke:#000000;stroke-width:0.532;stroke-linejoin:round;}
	.st5{fill:#FFFFFF;stroke:#00247D;stroke-width:0.532;stroke-miterlimit:10;}
	.st6{fill:none;stroke:#000000;stroke-width:0.532;stroke-miterlimit:10;}
	.st7{fill:#784421;stroke:#000000;stroke-width:0.399;}
	.st8{fill:#64B4D1;stroke:#00247D;stroke-width:0.399;stroke-miterlimit:2.613;}
	.st9{fill:#F5CE00;stroke:#000000;stroke-width:0.532;stroke-miterlimit:2.613;}
	.st10{fill:#E4CB5E;stroke:#000000;stroke-width:0.399;stroke-miterlimit:2.613;}
	.st11{fill:none;stroke:#000000;stroke-width:0.399;stroke-miterlimit:10;}
	.st12{fill:#784421;stroke:#000000;stroke-width:0.243;}
	.st13{fill:#64B4D1;stroke:#00247D;stroke-width:0.532;stroke-miterlimit:10;}
	.st14{fill:none;stroke:#000000;stroke-width:0.532;stroke-miterlimit:2.613;}
	.st15{fill:none;stroke:#000000;stroke-width:0.399;stroke-miterlimit:2.613;}
	.st16{fill:none;stroke:#00247D;stroke-width:0.532;stroke-miterlimit:10;}
	.st17{fill:#784421;}
	.st18{fill:none;stroke:#000000;stroke-width:1.28;}
</style>
<path class="st0" d="M0,0h800v480H0V0z"/>
<g>
	<path class="st1" d="M0,0h400v233.6H0V0z"/>
	<path class="st2" d="M0,0v26.1l355.3,207.5H400v-26.1L44.7,0H0z M400,0v26.1L44.7,233.6H0v-26.1L355.3,0H400z"/>
	<path class="st2" d="M166.7,0v233.6h66.7V0H166.7z M0,77.9v77.9h400V77.9H0z"/>
	<path class="st0" d="M0,93.4v46.7h400V93.4H0z M180,0v233.6h40V0H180z M0,233.6l133.3-77.9h29.8L29.8,233.6H0z M0,0l133.3,77.9
		h-29.8L0,17.4V0z M236.9,77.9L370.2,0H400L266.7,77.9H236.9L236.9,77.9z M400,233.6l-133.3-77.9h29.8L400,216.2V233.6z"/>
</g>
<g>
	<path class="st2" d="M715,93.9v210.2c0,56.2-112.3,74.4-112.3,74.4s-112.3-18.2-112.3-74.4V93.9H715L715,93.9z"/>
	<path class="st3" d="M715,304.2c0,56.2-112.3,74.4-112.3,74.4s-112.3-18.2-112.3-74.4c0,0,0-4.5,2.3-7.1c0,0-1.2,9.3,5.9,16.4
		c0,0-5.6-10-0.1-19.8c0,0-2,12.6,5.8,19.8c0,0-4.3-10.3,0.6-21.8c0,0-2.4,18.8,6.1,22.5c0,0,2.3-10.8-1.1-17.7c0,0,5.9,2.4,5.6,18
		c0,0,1.9-2.3,2.4-13.6c0,0,0.2,12.9,4.7,15.9c0,0,1.4-1.3-0.5-7.2s0.8-7.9,1.2-7.8c0,0-1,6.5,4.5,11.4c0,0-2.4-10.2,0.9-11.5
		c0,0-0.7,8.6,6.1,10.5c0,0,0.5-2.5-1-5.3c0,0-1.3-3.3-0.3-5.9c0,0,2.2,7.8,5.1,9.1c0,0-1.8-4.6-0.1-9.1c0,0,0.4,6.5,6.2,9.2
		c0,0-3.8-5-2.3-10.6l37.4,1.8l19.4,0.9l58.1-4.1l10-8.6c0,0,4,5.5-2.3,14.2c0,0,6.2-1.1,8.2-10.8c0,0,2.5,5.4-0.9,11.3
		c0,0,6.9-6.9,7.9-14.7c0,0,2.7,7.5-3.8,15.7c0,0,5.8-1.9,8.3-10.5c0,0,2,5.2-3.6,12.5c0,0,10.5-5.6,10.2-17.1c0,0,4.4,6.4-0.6,15.1
		c0,0,5.4-4.8,5.9-12c0,0,3,3.2-0.2,12.2c0,0,6.6-6.2,7.5-12.8c0,0,1.4,6.2-4.2,14c0,0,3.8-0.9,7.5-8.5c0,0,1,3-2.4,8.5
		c0,0,3.6-0.6,6-7.5c0,0,0.4,4.1-0.6,7.8c0,0,2.8-1.8,3.4-9.6c0,0,1.6,2.6,1.6,5.7C715.1,306.3,715,304.2,715,304.2L715,304.2z"/>
	<path class="st4" d="M657.2,182.6c0,0-3.9,0.7-8.9-0.9c-5-1.5-7-0.9-8.6,0c0,0,2-4-2.9-7.2c0,0,1.6,4.1-0.6,6c0,0-1,0.9-2.2-0.5
		c0,0-1.7-1.8-3.6-3.1c0,0,4.2-1.5,3.4-5.7c-0.8-4.3-3.1-4.8-4.3-5.4c0,0,0.4,1.9,0,3.2c0,0-4.6-2.6,1.6-6.2c6.2-3.6,5.1-5.7,4-7.6
		c-1.1-1.8-3.5-3.9-4.7-4.6c0,0,1.2,1.9,1,3.6c-0.2,1.7-3,2.7-2.5-0.2c0.6-2.9,0-2.4-0.1-5.5c0,0,5.5,1.9,7.7-3.5
		c0,0,2.1-5.6-4.9-8.4c0,0,1.7,2.3,0.9,4c0,0-1.5,2.8-3.2,0.5c-1.8-2.3-2.9-2.7-2.7-5.4c0,0,6.3,0.9,4.6-6c0,0-1,4.6-9.2-1.6
		c0,0,5.3-5.5,3.3-9.9c0,0-0.7-2-6.5-0.8c0,0,5-3.2,2.9-5.9c0,0-1.1-1.8-5.8,0.6c0,0,1.8-3.1-2.8-6.5c0,0-3.1,1.6-4.7,3.1
		c0,0-3.2-4-5.2-5.6c0,0-3.6,1.4-4.6,5.6c0,0-1.7-2-5.6-3c0,0-1.9,3.4,0.6,6.4c0,0-1.8-0.1-5.1-1.5c0,0-3.7-1.8-3.2,1.4
		c0.6,3.2,0.8,3.9,1.6,5.4c0,0-8.4-2-8,2.6c0.2,3.1,1.4,5.9,4,8.1c0,0-4.7,6.1-8.7,1.5c0,0-1.4,1.5,1.6,5.4c0,0,3,3.3,0.5,5.4
		c0,0-3.3,2.6-4.9-2.5c0,0-5.4,5.3,1,9.4c0,0,4.1,2.3,8.2-1.2c0,0-1.3,10.2-5.2,8.3c0,0-2.4-1.7,1.9-3.8c0,0-6.2-0.8-7.1,5.2
		c0,0-0.8,4.7,4.6,6.5c0,0,4.1,1.5-0.2,4.7c0,0-3,2.3-1.1,5.7c0,0,2.4,3.8-3.7,4.1c0,0-3.3,0-4.5-0.5c0,0-1.3,2.5-0.4,5.3
		c0,0-3-2.2-9.8,0.2c-6.8,2.5-6.3,0.7-6.9,1.5c-0.6,0.7-1.9,3.3-1.9,3.3s3.6,4.4,3.6,4.3c0.1-0.1-0.7,5-0.7,5l1.8,0.8l14.1-6.3
		l14.3-7.4l11.5,0.7l7.3,1.7l9.6,0.7l6.9-3.7h9.9l10.9,5.4l12.5,7.4l6.5,1.1l5-0.3v-10.1L657.2,182.6L657.2,182.6z"/>
	<path class="st4" d="M543.9,194.4c0,0,5.4,2.8,7.7-0.6c0,0,3-5.7-3.5-7.6c0,0,3.5-4.3-0.3-8.2c0,0-2-2.1-5.5-0.6c0,0-1.4-3-4.8-2.9
		c0,0-3,0-4,3.2c0,0-4.1-1.7-6.4,0.8c0,0-3.8,4.2,1.5,7.5l3.8,0.3l3.7-1.7l4.1,1.2C540.3,185.9,539.2,190.1,543.9,194.4L543.9,194.4
		z"/>
	<path class="st1" d="M665.4,184.5c6.6-0.6,8.9,4.9,8.9,4.9c3.4,8.1-3.9,12.4-3.9,12.4c0.6,1.8,0.6,4.2,0.6,4.2
		c10.3,1.2,8.5,12.8,8.5,12.8l-3.4-2.8c-5.9-2.3-12.1,2.7-16.5,11.2c-4.4,8.5-2.3,12.5-1.5,22.5c0.7,10,17.1,16,17.1,16
		s-7.7,19.9-12.7,32.7s-15.5,7.5-18.5,4.8c-3-2.7-3.8-1.2-5.3,0c-1.5,1.2,6.9,7.7-8.4,13.9c-15.3,6.2-17.9,10.9-20.5,12.5
		c-2.5,1.6-13.1,0.5-14.2-0.8c-1.1-1.3-0.4-1.3-4.4-3.7c-4-2.4-10.6-4.6-17.9-8.1c-7.3-3.6-7.1-8.1-7.1-9c0.1-0.9,2.5-8.5-6-2.5
		c-8.5,6.1-15.8-2.9-15.8-2.9c-1.7-2.2-8.8-21.3-8.8-21.3c-1.9-7.1-5.7-15.4-5.7-15.4c0.2-0.1-0.4,0.9,5.9-2.7
		c6.3-3.6,9.1-9.6,11.3-15.6c2.2-6,0.1-16.2-0.7-18.2c-0.8-2.1-5.5-11.5-11.3-13.5c-5.8-2-9.7,2.9-9.7,2.9s-1.8-11.5,8.5-12.8
		c0,0,0.1-2.4,0.6-4.2c0,0-7.3-4.3-3.9-12.4c0,0,2.3-5.5,8.9-4.9l-1.6,3c0,0-1.7,16.5,22.5,5.4c24.1-11,23.4-13.1,37.1-6.2l10-0.2
		c0,0,14.5-6.7,19.1-3.8c4.6,2.9,21.3,12.2,21.3,12.2s16.1,6.1,19.3-5.1L665.4,184.5L665.4,184.5z"/>
	<path class="st5" d="M592.9,255.9c0,0-0.8-5.1-1.7-8.3c0,0-1.8-5.1,1.3-8.7l3.8-4.4c0,0,2.4-3.2,5.3-3.6c0,0,2.9-0.1,3.2-0.7
		c0.3-0.6,3.5-5.8,11,0c0,0,2.4-3.9,6.1-4.5c0,0,4-1.2,5.9,1.8c0,0,4.5-3.4,8.4,2.1c0,0,5.4-3,9.2,3c0,0,5.3-2.6,8.5,2.9
		c3.2,5.5,2.6,7.7,2.6,7.7l2.4,8.7l8.5,10.5l-19.9,7.5h-8.9l-17.8,4.8l-31.6,2.4l-8.8-10.4L592.9,255.9L592.9,255.9z"/>
	<path class="st4" d="M566.1,308.5c0,0-4.7,0.3-7.1,1.5c-2.4,1.2-4.3,2.5-7.1,4.3c0,0-1.3,1.7-6.8,0.7c0,0-9.5-2.3-9.5,5.1
		c0,0-11.3,0.9-6.7,10.9c0,0,3.2,7.8,9.6,2.2c0,0-4.2,6,3.9,8.3c0,0,5.8,1.4,7.4-4.5c0,0,0.9-2.3-1.3-5.2c0,0,2.8-0.6,4.7-3.6
		c0,0-5.9,7.5,0.6,10.2c0,0,8.2,2,8.6-6.5c0,0-0.7-3.9,2.5-5.3c0,0,6.5-1.5,9.5-8.7C574.6,317.9,565.2,312.9,566.1,308.5
		L566.1,308.5z M547,233.8c0,0-7.3-3.4-10.8,0c0,0-4.8-3-9.9,0c0,0-4.8,3.2-8.2,6.6c0,0-2.4,2-1.5,8.4c0,0,1.2,4.5,0.5,6.7
		c0,0-1.6-0.3-4.8,3.5c0,0-4.1,4.7-7.7,0.6c0,0,1.1,5.8,7.9,4.9c0,0-3.3,2.6-0.4,9.2c0,0,2.1,4.7-1.2,10.5c0,0,5.9-2.4,5.6-9.3
		c0,0-0.5-4.7,1.2-8c0,0-1.7,3,2.3,9.4c0,0,3.1,4.6,0.6,9.4c0,0,5.8-2.1,5.3-9.2c-0.6-7-4.1-4.1-1.8-10.6c0,0,0.6,3.3,2.3,5
		c1.7,1.7,4,4.5,3,9.2c0,0,3.5-4.3,2.7-8.7c-0.8-4.4-1.7-5.8-1.7-5.8l10.9-6.2l5.4-9.9L547,233.8L547,233.8z"/>
	<path class="st6" d="M530.4,261.6c0,0-4.5-0.3-5.3-3.8 M517.2,255.5c0,0,1.6-0.1,3,1.4c0,0,1.1,1.6,2.6,1.4"/>
	<path d="M537,248.4c0,0-2.3,0-3.6-1.1c0,0-1.4-0.9-2.2,0.6c0,0-1.2,2.1,1.1,3.1c0,0,2.8,1.4-1.7,4.3c0,0,5.4-1.9,3.2-4.6
		c0,0-2.4-1.7-1.5-2.3c0,0,0.2-0.5,1.2,0.1C534.5,249,536.3,248.8,537,248.4L537,248.4z"/>
	<path class="st7" d="M608.1,261.2l2.8-0.9l-18.1-62.5l-0.7,0.2L608.1,261.2z"/>
	<path d="M547.8,330.4c0,0-4.3-2.4-7.8,0.4c0,0,0.4-1.6,3.1-2.2c0,0,1.5-4.1,5.5-3.7c0,0-1.7,2-3.9,3.7
		C544.7,328.5,547.1,328.7,547.8,330.4L547.8,330.4z"/>
	<path class="st8" d="M532.8,340.3c0,0-6.8-4.3-3.1-11.4c0,0,1.1-2.1,3.1-1.6c0,0,4.2,1.3,0.9,7.2
		C533.7,334.4,532.1,338.2,532.8,340.3L532.8,340.3z M546.5,347c0,0-9.6-4.4-6.7-11.9c0,0,0.9-2.5,3.1-2.3c0,0,3.7,0.2,3,5.1
		C545.9,337.9,544.8,342.8,546.5,347L546.5,347z"/>
	<path d="M544.5,319.1c0,0-2.9,2.1-4.1,3.6c0,0-1.2-1.5-2.7-2.4c0,0,1.8-0.2,2.7,0.6C540.4,320.9,541.9,319.4,544.5,319.1
		L544.5,319.1z"/>
	<path class="st8" d="M553.1,345.1c0,0,7.6-1.9,6.2-9.7c0,0-0.7-3.4-3.9-2.9c0,0-3.9,1-1.3,6C554,338.4,555.4,342,553.1,345.1
		L553.1,345.1z"/>
	<path class="st9" d="M587.2,179.9c0,0,4.9,1.5,7.5,2.6c0,0,7.1,3.2,16,0c0,0,6.1-2.4,6.9-2.6l-4.6,7.1l-0.2,3.6l2.9,4.3
		c0,0-1.7,0.7-6.9-2.5c0,0-5.8-4.4-12.6,0c0,0-3.8,2.5-6.9,2.5l4.5-5l-1.7-4.5L587.2,179.9L587.2,179.9z"/>
	<path class="st2" d="M556,335.8c0,0,0.3-0.4,0-0.5c0,0-0.3-0.1-0.6,0.3c0,0-0.8,1.3-0.1,3c0,0,0.6,1.2,0.3,2.4c0,0,0,0.4,0.2,0.4
		c0,0,0.3-0.1,0.3-0.3c0,0,0.4-1.2-0.3-2.4C555.9,338.6,555.1,336.8,556,335.8L556,335.8z"/>
	<path class="st4" d="M660.8,194.4c0,0-5.4,2.8-7.7-0.6c0,0-3-5.7,3.5-7.6c0,0-3.5-4.3,0.3-8.2c0,0,2-2.1,5.5-0.6c0,0,1.4-3,4.8-2.9
		c0,0,3,0,4,3.2c0,0,4.1-1.7,6.4,0.8c0,0,3.8,4.2-1.5,7.5l-3.8,0.3l-3.7-1.7l-4.1,1.2C664.4,185.9,665.4,190.1,660.8,194.4
		L660.8,194.4z"/>
	<path class="st9" d="M617.6,190c0,0-0.1,1.1-1.3,1.2c0,0-1.2,0.4-1.8-1.1c0,0-0.1-0.3-0.1-0.5c-0.1-0.7-0.3-2.6,1.8-4.2
		c0,0,3.4-2.8,10,0.6c0,0,5.2,2.5,8.8,4.6c0,0,9.3,5,10.4,5.4c0,0,4.1,2.1,10.3,2.3c0,0,8.5,0.6,12.2-5.4c0,0,2.8-4.6,0-7.5
		c0,0-1.1-1.3-2.9-1.1c-0.8,0.1-1.6,0.5-2.4,1.4c0,0-1.3,1.9,0.2,3.4c0,0,2,1.2,2.7-1.4c0,0,0-0.2,0.1,0c0,0.2,0.5,2.1-0.6,3.8
		c0,0-5.2,7.8-19.3-0.3L627,181c0,0-9.4-4.8-15,2.7c0,0-4.5,6.2,1.3,10.3c0,0,4.3,2.6,7.1-1.5c0,0,2.3-4.1-1.3-5.8
		c0,0-3.1-1.5-4.4,1.7c-1.2,3.1,2.4,3.9,2.8,1.7C617.5,190.1,617.5,189.5,617.6,190L617.6,190z"/>
	<path class="st10" d="M543.6,222.2v-11.7c0-0.9,0-1.7,1.4-2.8c1.4-1.1,2.9-2.9,5,2.2c0,0,4.2-4.4,5.6-5.1c0,0,2.4-2.1,4.1,0.9
		c0,0,2.2-3.4,4-4.2c0,0,4.2-2.7,4.4,5.4l3.3-3c0,0,2.5-2.1,5.3,0.7c0,0,4.7,4.6,5.4,5.9c0,0,1,1.4,1.1,3.7c0,0,0,2.5,1.3,3.9
		c0,0,1.5,1.3,2.9,1.6c0,0,3.4,0.1,4.6,3.3c0,0,0.6-0.6,2.2,14.7v27.8l-18.7,22.4l-30.1-8.6l-12-5l-2.7-8.8l11.6-7.5l6.3-17l-2-12
		L543.6,222.2L543.6,222.2z"/>
	<path class="st7" d="M626.4,236.9l1.4-2.1l3.4-2.6c0,0,5.2,13.6,5.4,16.6v4.2c0,0,7.8,2,9.2,14l-6.4,11.9l-10.1-5.6l-2.9-2.1
		L626.4,236.9L626.4,236.9z"/>
	<path class="st2" d="M530.9,330.6c0,0,0.4-0.5,0.1-0.7c0,0-0.2-0.2-0.6,0.3c0,0-2,2.3-0.4,5.8c0,0,0.2,0.5,0.5,0.3
		c0,0,0.3-0.1,0-0.6C530.6,335.8,529.1,332.9,530.9,330.6L530.9,330.6z"/>
	<path class="st6" d="M561.3,328.3c0,0,0.3-1.1-0.4-2.2c0,0-0.5-0.8-0.3-1.9"/>
	<path class="st11" d="M568,206.9c0,0,0,2.9,0.9,5.1c0.8,2.2,3.7,5.9,3.8,7.9"/>
	<path class="st4" d="M638.7,308.5c0,0,4.7,0.3,7.1,1.5c2.4,1.2,4.3,2.5,7.1,4.3c0,0,1.3,1.7,6.8,0.7c0,0,9.5-2.3,9.5,5.1
		c0,0,11.3,0.9,6.7,10.9c0,0-3.2,7.8-9.6,2.2c0,0,4.2,6-3.9,8.3c0,0-5.8,1.4-7.4-4.5c0,0-0.9-2.3,1.3-5.2c0,0-2.8-0.6-4.7-3.6
		c0,0,5.9,7.5-0.6,10.2c0,0-8.2,2-8.6-6.5c0,0,0.7-3.9-2.5-5.3c0,0-6.5-1.5-9.5-8.7C630.3,317.9,639.6,312.9,638.7,308.5
		L638.7,308.5z"/>
	<path class="st11" d="M564.3,219.9l7.7,62.3 M566,219.8l8.7,58.1 M567.7,219.5l10,57.6"/>
	<path class="st7" d="M583.4,272.2l2.8-0.9l-18.1-62.5l-0.7,0.2L583.4,272.2z"/>
	<path class="st11" d="M573.2,217.2l18.3,46.2 M572,218l17.6,48.2"/>
	<path class="st2" d="M543,342.6c0,0-2.1-2-1.8-5.7c0,0,0.1-0.8-0.3-0.9c0,0-0.4-0.2-0.5,0.7c0,0-0.6,3.8,2,6c0,0,0.2,0.2,0.5,0.2
		C542.9,342.9,543.2,342.8,543,342.6L543,342.6z"/>
	<path class="st11" d="M574,216.6l18.8,42.1 M568.9,219.2l11.6,56.7"/>
	<path class="st9" d="M663.4,261.2c-8.3-4.7-10.1-15.1-10.1-15.1c-2-10.3,2-18.5,2-18.5c5.3-11.3,14.5-13.4,14.5-13.4
		s-9,6.2-11.5,14.6c0,0-1.9,7.1-0.8,14c1.1,7,0.7,5.2,2.4,10.6L663.4,261.2L663.4,261.2z"/>
	<path class="st12" d="M627.8,234.8l-34.7,10.9l-1.9,15.4c-8.2,11.9-24.9,14-24.9,14l13,13.8l25,5.2l13.1-10.1l11.9-11
		c-1.2-5.9-0.6-14.6-0.6-14.6c0-1.5,0.6-4.9,0.6-4.9S627.3,239.7,627.8,234.8L627.8,234.8z"/>
	<path class="st11" d="M591.8,257.3c0,0,22.8-7.1,36.4-12.9 M580.8,270.4c0,0,28.5-5.2,48.5-16.6l7.4-5"/>
	<path class="st11" d="M636.7,253l-7.9,5.6c0,0-31.9,14.7-56.1,15.1 M628.8,269.1c0,0-24.5,12.6-38.5,12.8"/>
	<path class="st4" d="M658,233.8c0,0,7.3-3.4,10.8,0c0,0,4.8-3,9.9,0c0,0,4.8,3.2,8.2,6.6c0,0,2.4,2,1.5,8.4c0,0-1.2,4.5-0.5,6.7
		c0,0,1.6-0.3,4.8,3.5c0,0,4.1,4.7,7.7,0.6c0,0-1.1,5.8-7.9,4.9c0,0,3.3,2.6,0.4,9.2c0,0-2.1,4.7,1.2,10.5c0,0-5.9-2.4-5.6-9.3
		c0,0,0.5-4.7-1.2-8c0,0,1.7,3-2.3,9.4c0,0-3.1,4.6-0.6,9.4c0,0-5.8-2.1-5.3-9.2c0.6-7,4.1-4.1,1.8-10.6c0,0-0.6,3.3-2.3,5
		c-1.7,1.7-4,4.5-3,9.2c0,0-3.5-4.3-2.7-8.7c0.8-4.4,1.7-5.8,1.7-5.8l-10.9-6.2l-5.4-9.9L658,233.8L658,233.8z"/>
	<path class="st13" d="M533.9,273.3c0,0,1-4.8,5.7-2.9c0,0,1.6-7.9,10-8.2c8.4-0.3,8.9,8.2,8.9,8.8c0,0,2.5-3.7,6.6-3.2
		c0,0,7.1-0.4,4.5,11l1.3,1.4c0,0,5.5-12.8,16.7-9.4c0,0,10.9,3.3,3.8,13.9c0,0,5.4,7,10,6.4c4.6-0.7,8.7-2.1,13.2-10.1
		c4.5-8,15.1-9.3,17.8-8.8c2.7,0.5,4.8,2.2,5.3,4.1c0,0,5.6-18.7,25.7-15.8l8.1,4.1l3.1,1.4l-4.6,12.9L658.9,304l-8.4,2.6l-8.8-5.1
		l-3.1,1.6l-0.2,7.5l-11.6,8.4l-8.1,3.3l-8.9,6.1l-2.1,5.4c0,0-4.9-2.1-10.5,0l-1.8-4.5l-5.2-5l-20.2-9.5l-3.6-11.8l-3.7-1.6
		l-4.1,4.7l-6,0.7l-9-6.1L533.9,273.3L533.9,273.3z"/>
	<path class="st14" d="M621.8,181.8c0,0-7.7-0.3-7.4,7.6"/>
	<path class="st9" d="M672.5,266.6c-13.4-4.1-17.1-18.5-17.1-18.5c-2.7-10.8,1.7-20.3,1.7-20.3c6.1-14.4,16.5-14.4,16.5-14.4
		c5.2-0.1,5.8,4.3,5.8,4.3c0.5,3.1-1.7,4.3-1.7,4.3c-3.6,1.9-5.8-0.7-5.8-0.7c-1.5-1.9-0.3-3.6-0.3-3.6c0.9-1.3,2.7-0.7,2.7-0.7
		c1.4,0.4,1.2,2.2,1.2,2.2c0,0,0,0,0,0c0.1,0,0,0,0,0s0.3-2.1-1.8-2.3c0,0-4-0.9-8.8,5c0,0-6.2,8-6.2,18.2c0,0-0.8,19.3,19.3,24.3
		c0,0-2.2,3.1-6,14.5c0,0-4.4,14.6-8.5,22.4c0,0-5.5,11.2-17.9,6.6c0,0-7.3-3.2-7.3-8.6c0,0-0.5-4.9,3.9-5.2c0,0,4.3-0.3,4.3,3.4
		c0,0,0.1,4-4.6,3.1c0,0-1.6-0.4-1.3-2c0,0,0.3-1.5,2.2-0.8c0,0,0.1,0,0.1,0c0,0,0,0,0-0.1c0,0-0.8-0.3-1.6-0.1c0,0-0.7,0.2-0.8,1.4
		c0,0,0,0.9,0.9,1.4c0,0,1.2,0.4,2.1,0.3c0,0,1.2,2.5,4.1,3.4c3.9,1.2,7.2,0,9.1-1.5c2.2-1.7,3.5-4.7,4-5.5c0.4-0.7,4-8.8,6.8-17.6
		c0,0,2.4-7.5,4.3-11.4L672.5,266.6L672.5,266.6z"/>
	<path class="st9" d="M634.7,303.2c0,0,2.5-0.3,2.5,1.9c0,0-0.2,3.3-4.1,2.6c0,0-3.9-0.9-2.5-5.2c0,0,0.9-3.1,4.6-2.6
		c0,0,3.6,0.2,5.2,5.1c0,0,1.2,4.1-0.9,7.7c-2.3,4-8.1,6.6-10.9,7.7c0,0-11.3,4.4-14.6,7c0,0-5.2,3.8-2.9,7.4c0,0,0.9,1.4,2.2,1.4
		c0,0,1.5,0.1,1.8-1.5c0,0,0,0,0-0.1c0,0,0,0,0,0c0,0-0.1,0.9-0.9,1.3c0,0-1.1,0.6-2.2-0.4c0,0-1.2-1.2-0.2-3c0,0,1.3-2.2,4.5-0.9
		c0,0,2.7,1.4,1.6,4.3c0,0-1,2.7-4.3,2.7c0,0-2.5-0.1-4.1-1.8c-2.5-2.6-2.6-7.7-0.4-10.3c0,0,2.1-2.8,6.2-4.5c2.4-1,7-3,11.7-4.8
		c3.3-1.3,6.4-2.9,8.4-5.2c0,0,1.8-2,2.3-5.3c0,0,0.5-2.5-1.1-3.1C636.3,303.4,635.5,303.1,634.7,303.2
		C634.7,303.2,634.6,303.2,634.7,303.2C634.6,303.2,634.6,303.2,634.7,303.2L634.7,303.2z"/>
	<path class="st14" d="M634.9,303.2c0,0,2.8-0.5,4.5,2.8c0,0,1,2.1,1.2,3.3 M641.5,297.6c0,0-2.8,0.5-1.3,4.4
		c1.3,3.7,3.8,4.9,4.6,5.4"/>
	<path class="st9" d="M587.2,190c0,0,0.1,1.1,1.3,1.2c0,0,1.2,0.4,1.8-1.1c0,0,0.1-0.3,0.1-0.5c0.1-0.7,0.3-2.6-1.8-4.2
		c0,0-3.4-2.8-10,0.6c0,0-5.2,2.5-8.8,4.6c0,0-9.3,5-10.4,5.4c0,0-4.1,2.1-10.3,2.3c0,0-8.5,0.6-12.2-5.4c0,0-2.8-4.6,0-7.5
		c0,0,1.1-1.3,2.9-1.1c0.8,0.1,1.6,0.5,2.4,1.4c0,0,1.3,1.9-0.2,3.4c0,0-2,1.2-2.7-1.4c0,0,0-0.2-0.1,0c0,0.2-0.5,2.1,0.6,3.8
		c0,0,5.1,7.8,19.3-0.3l18.7-10.5c0,0,9.4-4.8,15,2.7c0,0,4.5,6.2-1.3,10.3c0,0-4.3,2.6-7.1-1.5c0,0-2.3-4.1,1.3-5.8
		c0,0,3.1-1.5,4.4,1.7c1.2,3.1-2.4,3.9-2.8,1.7C587.4,190.1,587.3,189.5,587.2,190L587.2,190z M541.5,261.2
		c8.3-4.7,10.1-15.1,10.1-15.1c2-10.3-2-18.5-2-18.5c-5.3-11.3-14.5-13.4-14.5-13.4s9,6.2,11.5,14.6c0,0,1.9,7.1,0.8,14
		c-1.1,7-0.7,5.2-2.4,10.6L541.5,261.2L541.5,261.2z"/>
	<path class="st14" d="M583,181.8c0,0,7.7-0.3,7.4,7.6"/>
	<path class="st9" d="M532.4,266.6c13.4-4.1,17.1-18.5,17.1-18.5c2.7-10.8-1.7-20.3-1.7-20.3c-6.1-14.4-16.5-14.4-16.5-14.4
		c-5.2-0.1-5.8,4.3-5.8,4.3c-0.5,3.1,1.7,4.3,1.7,4.3c3.6,1.9,5.8-0.7,5.8-0.7c1.5-1.9,0.3-3.6,0.3-3.6c-0.9-1.3-2.7-0.7-2.7-0.7
		c-1.4,0.4-1.2,2.2-1.2,2.2c0,0,0,0,0,0c-0.1,0,0,0,0,0s-0.3-2.1,1.8-2.3c0,0,4-0.9,8.8,5c0,0,6.2,8,6.2,18.2
		c0,0,0.8,19.3-19.3,24.3c0,0,2.2,3.1,6,14.5c0,0,4.4,14.6,8.5,22.4c0,0,5.5,11.2,17.9,6.6c0,0,7.3-3.2,7.3-8.6c0,0,0.5-4.9-3.9-5.2
		c0,0-4.3-0.3-4.3,3.4c0,0-0.1,4,4.6,3.1c0,0,1.6-0.4,1.3-2c0,0-0.3-1.5-2.2-0.8c0,0-0.1,0-0.1,0c0,0,0,0,0-0.1c0,0,0.8-0.3,1.6-0.1
		c0,0,0.7,0.2,0.8,1.4c0,0,0,0.9-0.9,1.4c0,0-1.2,0.4-2.1,0.3c0,0-1.2,2.5-4.1,3.4c-3.9,1.2-7.2,0-9.1-1.5c-2.2-1.7-3.5-4.7-4-5.5
		c-0.4-0.7-4-8.8-6.8-17.6c0,0-2.4-7.5-4.3-11.4L532.4,266.6L532.4,266.6z"/>
	<path class="st9" d="M570.2,303.2c0,0-2.5-0.3-2.5,1.9c0,0,0.2,3.3,4.1,2.6c0,0,3.9-0.9,2.5-5.2c0,0-0.9-3.1-4.6-2.6
		c0,0-3.6,0.2-5.2,5.1c0,0-1.2,4.1,0.9,7.7c2.3,4,8.1,6.6,10.9,7.7c0,0,11.3,4.4,14.6,7c0,0,5.2,3.8,2.9,7.4c0,0-0.9,1.4-2.2,1.4
		c0,0-1.5,0.1-1.8-1.5c0,0,0,0,0-0.1c0,0,0,0,0,0c0,0,0.1,0.9,0.9,1.3c0,0,1.1,0.6,2.2-0.4c0,0,1.2-1.2,0.2-3c0,0-1.3-2.2-4.5-0.9
		c0,0-2.7,1.4-1.6,4.3c0,0,1,2.7,4.3,2.7c0,0,2.5-0.1,4.1-1.8c2.5-2.6,2.6-7.7,0.4-10.3c0,0-2.1-2.8-6.2-4.5c-2.4-1-7-3-11.7-4.8
		c-3.3-1.3-6.4-2.9-8.4-5.2c0,0-1.8-2-2.3-5.3c0,0-0.5-2.5,1.1-3.1C568.6,303.4,569.4,303.1,570.2,303.2
		C570.2,303.2,570.2,303.2,570.2,303.2C570.2,303.2,570.3,303.2,570.2,303.2L570.2,303.2z"/>
	<path class="st14" d="M570,303.2c0,0-2.8-0.5-4.5,2.8c0,0-1,2.1-1.2,3.3 M563.4,297.6c0,0,2.8,0.5,1.3,4.4
		c-1.3,3.7-3.8,4.9-4.6,5.4 M595.7,189c0,0,6.7-4.2,13.5,0.4"/>
	<path class="st15" d="M557.6,230c0,0,0.9-3.7-3.3-10.3c0,0-2.8-6-4.3-9.8 M559.6,205.7c0,0,2.4,5.9,3.2,8.5c0,0,3,7.4,3.6,8.9"/>
	<path class="st11" d="M560.9,234.1c0,0,2.5,2.7,2.2,7.3 M552.5,231.2c0,0,2.8,1.3,2.6,8.7c0,0-0.3,5.4,3.9,8.1 M552.1,249.9
		c0,0,8.7-1,9.2,4.4c0,0,0.2,5.1,3.2,5.7c0,0,4.4,0.4,5.3,4.5 M554.9,255.9c0,0,1.5,2.3,3,3.3 M566,250.2c0,0,2.2,3.4,2.6,5.3
		 M575.6,209.8c0,0,2,2.8,4,4.1 M583.8,226.3c0,0,4.3,2.1,3.6,13c0,0-0.6,6.4,1.2,9.9"/>
	<path class="st7" d="M563.4,218.9l0.3,1c0,0,7.8,0.3,12-5l-0.4-1C575.2,213.9,568.4,213.6,563.4,218.9L563.4,218.9z"/>
	<path class="st11" d="M591.4,260.5c0,0,26.8-8,37.2-12.7"/>
	<path class="st12" d="M588.5,211l-0.3-0.9l13.3-5.1l0.3,0.9L588.5,211z"/>
	<path class="st11" d="M589.6,210.6l8.8,43.2 M591.1,210l10.1,43 M592.9,209.3l11,42.7 M597.2,207.7l15.1,32.1 M599.2,206.9
		l16.1,31.9 M600.7,206.4l17.4,31.5 M597.8,254.1l6.8-2.2 M592.7,249.9c0,0,20-5.8,35.1-11.9 M592.4,252c0,0,25.3-6.7,35.4-11.6
		 M600.1,272.6l1.3,4.1l3.6-1.2l-1.2-4 M610.4,269.7l1.3,4.1l3.6-1.2l-1.2-4 M593.2,245.8l-0.3-5.5l33.2-10.1l1.8,4.6 M606.9,236
		l1.8,4.8 M618.5,232.5l2.1,4.6 M621.3,231.7l2,4.4 M623.9,230.9l2.1,4.6"/>
	<path class="st11" d="M626,230.2l3.7-2.1l1.5,4.1 M627.8,229.2l1.9,4.2"/>
	<path class="st16" d="M545.5,292.4c0,0-6.5-6.6,0-13c0,0-7.1-3.4-5.9-9 M557.1,297.6c0,0-6.7,0.9-4.7-12.2c0,0-2.8,5.2-3.7,7.9
		c-0.7,2-0.2,5.2,2.6,7c1.1,0.7,7.2,2.3,9.1-1.7 M549.6,277.5c0,0-2.7,2.5-0.8,7.2 M552.5,278.1c0,0,0.3,4.5,2.6,7 M554.4,276.4
		c0,0,0,5.3,3.8,8.6 M556.3,274.5c0,0,0,5.9,4.4,9.6 M578.2,283.2c0,0,2.2-4.9,6.9-4.6c0,0-2.3,1-2.2,3.3c0,0-0.3,3.8,3.8,4.1
		c0,0,3.3,0.4,4.9-1.4"/>
	<path class="st16" d="M589.2,305.5c0,0-11.6-5.4-10.3-13.2c0,0,0.5-4.8,5.1-7 M581.6,290.2c0,0-1,3.4,1.3,5.7 M584.2,287.9
		c0,0-1.4,3.7,0.9,6.5 M587,286.1c0,0-1.7,3.1,0.3,5.8 M576.4,306.3c0,0,6.3,5.5,11.2,5.5 M574.4,308c0,0,5.9,4.8,9.6,5.5
		 M572.2,309.3c0,0,7.3,6.4,11.8,6.9 M601.9,322.1c0,0-7.2,3.9-1.6,7.9 M597.3,317.9c0,0,8.1-4.3,11.6-5.8 M600.2,320.1
		c0,0,11.7-7.2,15.2-8.7 M606.3,320.5c0,0,10-6.7,15.4-9.6 M612.9,320.3c0,0,6.9-5.4,13.6-9.4 M628.9,304.2c0,0-3.4-5-14.5,0
		c0,0,4.1-3.7,12.2-6.6 M637.7,276.3c0,0,0.9,4-0.1,6.5"/>
	<path class="st16" d="M619.7,295.8c0,0,2.3-3.4,8.2-5.1c0,0,1.6,4,6.2,3.1c0,0,6.9-1.4,4.8-8.9c0,0-1.4-5.7-9.3-6.2 M653,269.1
		c0,0,8,1.4,7.9,8c0,0,0.6,9.8-9.7,11.7 M659.8,273.2c0,0,2.2-4.8,7.1-6.8 M660.9,263.6c0,0,2.2,3.5,3.7,4 M659.8,266.4
		c0,0,2.1,2.5,2.8,2.9 M659.1,268.8c0,0,1.1,1.6,2.1,2.1 M617.8,230.9c0,0,1.6-2.5,5.4-1.5 M639.1,249.9c0,0,2.5-10.3,11-6.5
		 M646.7,242.5c0,0,0.9-4.7-1.3-7.1 M640.8,242.2c0,0,1.1,2,0.2,3.6"/>
	<path class="st8" d="M658.3,347c0,0,9.6-4.4,6.7-11.9c0,0-0.9-2.5-3.1-2.3c0,0-3.7,0.2-3,5.1C658.9,337.9,660,342.8,658.3,347
		L658.3,347z"/>
	<path class="st2" d="M661.8,342.6c0,0,2.1-2,1.8-5.7c0,0-0.1-0.8,0.3-0.9c0,0,0.4-0.2,0.5,0.7c0,0,0.6,3.8-2,6c0,0-0.2,0.2-0.5,0.2
		C661.9,342.9,661.6,342.8,661.8,342.6L661.8,342.6z"/>
	<path class="st8" d="M672,340.3c0,0,6.8-4.3,3.1-11.4c0,0-1.1-2.1-3.1-1.6c0,0-4.2,1.3-0.9,7.2C671.1,334.4,672.8,338.2,672,340.3
		L672,340.3z"/>
	<path class="st2" d="M673.7,330.6c0,0-0.4-0.5-0.1-0.7c0,0,0.2-0.2,0.6,0.3c0,0,2.1,2.3,0.4,5.8c0,0-0.2,0.5-0.5,0.3
		c0,0-0.3-0.1,0-0.6C674.1,335.8,675.5,332.9,673.7,330.6L673.7,330.6z"/>
	<path class="st8" d="M651.7,345.1c0,0-7.6-1.9-6.2-9.7c0,0,0.7-3.4,3.9-2.9c0,0,3.9,1,1.3,6C650.9,338.4,649.4,342,651.7,345.1
		L651.7,345.1z"/>
	<path class="st2" d="M648.8,335.8c0,0-0.3-0.4,0-0.5c0,0,0.3-0.1,0.6,0.3c0,0,0.8,1.3,0.1,3c0,0-0.6,1.2-0.3,2.4c0,0,0,0.4-0.2,0.4
		c0,0-0.3-0.1-0.3-0.3c0,0-0.4-1.2,0.3-2.4C648.9,338.6,649.7,336.8,648.8,335.8L648.8,335.8z"/>
	<path d="M657.2,330.4c0,0,4.3-2.4,7.8,0.4c0,0-0.4-1.6-3.1-2.2c0,0-1.5-4.1-5.5-3.7c0,0,1.7,2,3.9,3.7
		C660.3,328.5,657.9,328.7,657.2,330.4L657.2,330.4z M660.3,319.1c0,0,2.9,2.1,4.1,3.6c0,0,1.2-1.5,2.7-2.4c0,0-1.8-0.2-2.7,0.6
		C664.4,320.9,662.9,319.4,660.3,319.1L660.3,319.1z"/>
	<path class="st6" d="M643.5,328.3c0,0-0.3-1.1,0.4-2.2c0,0,0.5-0.8,0.3-1.9 M674.6,261.6c0,0,4.5-0.3,5.3-3.8 M687.8,255.5
		c0,0-1.6-0.1-3,1.4c0,0-1.1,1.6-2.6,1.4"/>
	<path d="M667.9,248.4c0,0,2.4,0,3.7-1.1c0,0,1.4-0.9,2.2,0.6c0,0,1.2,2.1-1.1,3.1c0,0-2.8,1.4,1.7,4.3c0,0-5.4-1.9-3.2-4.6
		c0,0,2.3-1.7,1.5-2.3c0,0-0.2-0.5-1.2,0.1C670.5,249,668.7,248.8,667.9,248.4L667.9,248.4z"/>
	<path class="st8" d="M671.1,191.6c0,0,1.1-1.4,0.6-5.8c-0.4-4.3,3.3-4.8,4.8-3.6c0,0,1.5,1.3,0.1,4
		C675.9,187.8,674.6,189.9,671.1,191.6L671.1,191.6z"/>
	<path class="st2" d="M672.5,188.3c0,0,1.4-1.5,0.7-4.8c0,0,0-0.3,0.2-0.3c0,0,0.3-0.1,0.4,0.2c0,0,0.8,3.5-0.8,5.4
		c0,0-0.3,0.3-0.5,0C672.5,188.8,672.3,188.6,672.5,188.3L672.5,188.3z"/>
	<path class="st8" d="M669.9,190c0,0-0.1-1.7-3.1-4.7c-3-3-0.5-5.7,1.3-5.7c0,0,1.9,0,2.6,2.9C671.1,184.2,671.4,186.5,669.9,190
		L669.9,190z"/>
	<path class="st2" d="M669.5,186.2c0,0,0.1-2.1-2.7-4.4c0,0-0.2-0.3-0.1-0.4c0,0,0.2-0.3,0.5-0.1c0,0,2.9,2.4,3,4.9
		c0,0,0,0.4-0.4,0.3C669.8,186.6,669.5,186.6,669.5,186.2L669.5,186.2z"/>
	<path class="st8" d="M665.8,188.7c0,0-0.8-1.4-4.5-2.7c-3.7-1.3-2.7-4.6-1.2-5.3c0,0,1.6-0.7,3.4,1.5
		C664.5,183.4,665.7,185.2,665.8,188.7L665.8,188.7z"/>
	<path class="st2" d="M664.2,186c0,0-0.8-2-4.3-2.8c0,0-0.3-0.1-0.3-0.3c0,0,0.1-0.4,0.4-0.3c0,0,3.7,0.9,4.8,3.2
		c0,0,0.1,0.4-0.2,0.4C664.7,186.3,664.4,186.4,664.2,186L664.2,186z"/>
	<path class="st8" d="M668.2,190.1c0,0-1.7,0.5-5.7-1.4c-4-1.9-5.7,1.4-5,3.2c0,0,0.7,1.9,3.8,1.5
		C663,193.2,665.4,192.7,668.2,190.1L668.2,190.1z"/>
	<path class="st2" d="M658.9,191.4c0,0,1.8,1.1,5.1-0.2c0,0,0.3-0.1,0.4,0.1c0,0,0.2,0.3-0.2,0.4c0,0-3.5,1.4-5.7,0.2
		c0,0-0.3-0.2-0.1-0.5C658.4,191.5,658.5,191.2,658.9,191.4L658.9,191.4z"/>
	<path class="st14" d="M662.3,177.5c0,0,2,1,1.5,3.3"/>
	<path class="st6" d="M671.1,177.8c0,0,0.8,2.5-0.1,3.8"/>
	<path class="st8" d="M533.5,191.6c0,0-1.1-1.4-0.6-5.8c0.4-4.3-3.3-4.8-4.8-3.6c0,0-1.5,1.3-0.1,4
		C528.8,187.8,530,189.9,533.5,191.6L533.5,191.6z"/>
	<path class="st2" d="M532.1,188.3c0,0-1.4-1.5-0.7-4.8c0,0,0-0.3-0.2-0.3c0,0-0.3-0.1-0.4,0.2c0,0-0.8,3.5,0.8,5.4
		c0,0,0.3,0.3,0.5,0C532.1,188.8,532.3,188.6,532.1,188.3L532.1,188.3z"/>
	<path class="st8" d="M534.7,190c0,0,0.1-1.7,3.1-4.7c3-3,0.5-5.7-1.3-5.7c0,0-1.9,0-2.6,2.9C533.5,184.2,533.2,186.5,534.7,190z"/>
	<path class="st2" d="M535.2,186.2c0,0-0.1-2.1,2.7-4.4c0,0,0.2-0.3,0.1-0.4c0,0-0.2-0.3-0.5-0.1c0,0-2.9,2.4-3,4.9
		c0,0,0,0.4,0.4,0.3C534.8,186.6,535.1,186.6,535.2,186.2L535.2,186.2z"/>
	<path class="st8" d="M538.8,188.7c0,0,0.8-1.4,4.5-2.7c3.7-1.3,2.7-4.6,1.2-5.3c0,0-1.6-0.7-3.4,1.5
		C540.1,183.4,538.9,185.2,538.8,188.7L538.8,188.7z"/>
	<path class="st2" d="M540.4,186c0,0,0.8-2,4.3-2.8c0,0,0.3-0.1,0.3-0.3c0,0-0.1-0.4-0.4-0.3c0,0-3.7,0.9-4.8,3.2
		c0,0-0.1,0.4,0.2,0.4C540,186.3,540.3,186.4,540.4,186L540.4,186z"/>
	<path class="st8" d="M536.5,190.1c0,0,1.7,0.5,5.7-1.4c4-1.9,5.7,1.4,5,3.2c0,0-0.7,1.9-3.8,1.5
		C541.6,193.2,539.3,192.7,536.5,190.1L536.5,190.1z"/>
	<path class="st2" d="M545.8,191.4c0,0-1.8,1.1-5.1-0.2c0,0-0.3-0.1-0.4,0.1c0,0-0.1,0.3,0.2,0.4c0,0,3.5,1.4,5.7,0.2
		c0,0,0.3-0.2,0.1-0.5C546.3,191.5,546.1,191.2,545.8,191.4L545.8,191.4z"/>
	<path class="st14" d="M542.3,177.5c0,0-2,1-1.5,3.3"/>
	<path class="st6" d="M533.5,177.8c0,0-0.8,2.5,0.1,3.8"/>
	<path d="M620.1,155.1c0,0,1.3,3.6,0.7,6.9c-0.5,2.9,0.2,3.7,1.2,4.3c0.9,0.5,3-0.4,3.3-2.7c0,0,2.5,4.9-2.4,8.2
		c0,0-3.5,2.2-6.5-0.7c-1-1-1.5-3.8-1-6.4c0,0,0.8-3.5-0.5-7.1c0,0,2,2.1,1.5,6.4c0,0-1,7.6,4.6,7.2c0,0,3.9,0,4-4.8
		c0,0-1.5,1.7-3.3,1.1c-1.3-0.4-2.5-1.6-2.2-3.6C619.8,161.8,620.4,158.2,620.1,155.1L620.1,155.1z M613.7,167.6c0,0-0.3,6-5.8,7.5
		c0,0,0.8-1.1-0.5-4.1c0,0-1.2-1.7-1.1-4.5c0,0-1.8,1.4,0.2,5c1.2,2.2,0.2,4.8-0.2,4.9C606,176.5,615.4,175.2,613.7,167.6z
		 M606.6,161.6c0,0-1.3-1.5-1.4-5c-0.1-3.5-0.7-4.3-1.2-4.7c0,0,0.7,3,0.5,4.8c-0.2,1.8,0.1,2.9,0.4,3.8c0,0-3,0.5-4.9-3.9
		c-1.8-4.2-3.6-3.8-4.5-3.8c0,0,1,0.1,3.2,3.9C600.7,160.6,601.2,161.4,606.6,161.6L606.6,161.6z M592.5,152.6c0,0,1.7,4.1,1.8,6.3
		c0,0-4-1.3-5.1-4.8c0,0-4.3,1.5-2.7,6.4c0,0-3.7-1.3-5.4-4.3c0,0,2.1,1.6,4,2.2c0,0-0.2-4,4.8-5.5c0,0,0.7,3.6,3.2,4.4
		C593.1,157.3,593,155.1,592.5,152.6L592.5,152.6z M599.1,145.5c0,0,1.4,2,4.2,2.1c1.4,0,2.8-0.3,4.2-2.1c0,0-0.2,3.5-4.2,3.6
		C603.4,149,599.1,149.2,599.1,145.5L599.1,145.5z M581.6,169.6c0,0,2.1,1.9,2.6,2.5c0,0,1.5,1.5,2.8-0.4c0,0,1.6-3,3.6-2.9
		c0,0-1.4,1-3,3.8c0,0-0.4,1-1.6,1.2c-0.6,0.1-1.3,0.2-2.3-0.9C583.6,172.9,582.7,171.8,581.6,169.6L581.6,169.6z M603.4,131.3
		c-4.2,0-0.7,3.3-0.7,3.3c0.1,5.2-4.1,6.8-6.9,5.3c-2.8-1.5-0.6-5.3-0.6-5.3s-3.2,2.1-1.2,5.1c2,3,7.4,1.7,9.4-1.1
		c2,2.8,7.3,4.2,9.4,1.1c2-3-1.2-5.1-1.2-5.1s2.2,3.8-0.6,5.3c-2.8,1.5-7-0.1-6.9-5.3C604,134.6,607.6,131.3,603.4,131.3
		L603.4,131.3z M605.9,125.7c0,0,1.5,2.5,1.2,6.4C607.1,132.1,608.4,128.2,605.9,125.7L605.9,125.7z M593,131.7c0,0-0.3-2.8-3-3
		C589.9,128.7,592.2,130.3,593,131.7L593,131.7z M613.8,131.7c0,0,0.3-2.8,3-3C616.8,128.7,614.6,130.3,613.8,131.7z M588.7,135.9
		c0,0,2.1,0.7,3.4-0.9C592.1,134.9,589.7,135.6,588.7,135.9z M581.8,118.9c0,0,2.5-0.3,5,3.4c0,0-2.5,1.3-3.1,2.1c0,0,0-1.2,1.2-2.3
		C584.9,122.2,584.4,120.3,581.8,118.9L581.8,118.9z M623.3,118.9c0,0-2.5-0.3-5,3.4c0,0,2.5,1.3,3.1,2.1c0,0,0-1.2-1.2-2.3
		C620.2,122.2,620.7,120.3,623.3,118.9L623.3,118.9z M604.2,121.7c0,0,2.2,0.6,5-0.9c0,0,3.4-1.8,5.6,0c0,0-1.9-0.8-5.6,0.9
		C609.2,121.7,605.6,123.7,604.2,121.7L604.2,121.7z"/>
	<path class="st2" d="M606.5,123.9c0,0,1.9-3.3,7.7-2.7C614.2,121.3,612.6,125.9,606.5,123.9L606.5,123.9z"/>
	<ellipse class="st17" cx="610.5" cy="122.9" rx="1.1" ry="1.5"/>
	<ellipse cx="610.5" cy="122.9" rx="0.7" ry="0.9"/>
	<path d="M594.1,116.8c0,0,3.7,0.2,5.9,1.6c0,0,2.4,1.4,5.1-0.6c0,0,2.9-1.7,4.8-4c0,0-4.5,3.1-6.1,3.6c0,0-1.5-1.2-2.1-2.9
		c0,0,0.2-1.3,2.6-3.6c0,0-3.2,1-3.9,3.7c0,0,0.6,1.7,1.9,3c0,0-0.6,0.3-2.2-0.7C600,117,596.5,115.8,594.1,116.8L594.1,116.8z
		 M603.4,138.8c-3.2,2.7,0,2.5,0,2.5S606.5,141.6,603.4,138.8L603.4,138.8z M601.5,121.7c0,0-2.2,0.6-5-0.9c0,0-3.4-1.8-5.6,0
		c0,0,1.9-0.8,5.6,0.9C596.5,121.7,600.2,123.7,601.5,121.7z"/>
	<path class="st2" d="M599.2,123.9c0,0-1.9-3.3-7.7-2.7C591.5,121.3,593.1,125.9,599.2,123.9z"/>
	<ellipse class="st17" cx="595.2" cy="122.9" rx="1.1" ry="1.5"/>
	<ellipse cx="595.2" cy="122.9" rx="0.7" ry="0.9"/>
	<path class="st18" d="M715.4,93.9v210.2c0,56.2-112.3,74.4-112.3,74.4s-112.3-18.2-112.3-74.4V93.9H715.4z"/>
</g>
</svg>
