<?xml version="1.0" encoding="utf-8"?>
<!-- Generator: Adobe Illustrator 20.0.0, SVG Export Plug-In . SVG Version: 6.00 Build 0)  -->
<!DOCTYPE svg PUBLIC "-//W3C//DTD SVG 1.1//EN" "http://www.w3.org/Graphics/SVG/1.1/DTD/svg11.dtd">
<svg version="1.1" id="Layer_1" xmlns="http://www.w3.org/2000/svg" xmlns:xlink="http://www.w3.org/1999/xlink" x="0px" y="0px"
	 viewBox="0 0 800 480" style="enable-background:new 0 0 800 480;" xml:space="preserve">
<style type="text/css">
	.st0{fill:#F7E017;}
	.st1{fill:#FFFFFF;}
	.st2{fill:#CF1126;}
</style>
<path class="st0" d="M0,0h800v480H0V0z"/>
<path class="st1" d="M0,33.3v213.3l800,100V233.3L0,33.3z"/>
<path d="M0,146.7v100l800,200v-100L0,146.7z"/>
<g>
	<g transform="translate(-160) scale(.66667)">
		<path class="st2" d="M819.2,569.7c-19.4-2.6-37.1-8.7-49.4-17.2c-2.4-1.6-4.6-3-5-3s-0.7,1.8-0.7,4.1c0,6.4-2.6,9.6-9,11.3
			c-6.2,1.6-15.6-1.6-23.2-8c-7.9-6.5-17-11.5-24.7-13.5c-6.3-1.7-14.8-1.4-20.9,0.7c-2.8,1-6,2.3-7.2,3c-1.1,0.7-2.4,1.3-2.8,1.3
			c-1.1,0-0.9-6.8,0.2-9c1.5-2.9,5.2-5.7,9.4-7.3c2.2-0.8,3.9-1.8,3.9-2.3s-0.7-2.1-1.6-3.7c-2.9-5.1-1.7-10,3.3-13.9
			c5.2-4,14-4.6,21.7-1.7c2,0.7,3.8,1.4,4,1.4c1,0,0.4-1.4-2.4-5.5c-3.2-4.7-3.9-7.1-3.5-12.7c0.5-7.1,6.3-13,13.5-13.5
			c5.8-0.4,9.4,1.5,18,9.7c25.7,24.5,53.5,37.9,86.1,41.6c8.2,0.9,24.7,0.4,34.4-1c29.3-4.4,58.8-19.1,81.8-40.8
			c6.4-6,9.5-7.6,14.7-7.6c4.5,0,7.7,1.5,11,5c3,3.3,4,6.4,3.7,11.4c-0.2,3.2-0.7,4.8-2.6,7.9c-2.8,4.6-2.3,5,3.2,2.9
			c7.5-2.9,16.8-1.6,21.8,3.2c4.4,4.2,4.8,8.4,1.4,14.1c-1.3,2.1-2.3,4-2.3,4.3c0,0.6,1,0.8,5.5,1.6c6,1,9.4,5.4,9.4,12.2
			c0,2-0.3,3.7-0.6,3.7s-2.6-0.8-5-1.8c-7-2.9-11-3.6-19.1-3.6c-6.2,0-8.3,0.3-12.7,1.7c-6.6,2.2-13.7,6.3-19.5,11.5
			c-6.4,5.7-10.4,7.5-16.6,7.4c-5.8-0.1-9.7-1.7-11.8-5c-1.1-1.8-1.3-2.8-1-6.8c0.2-2.6,0.1-4.7-0.1-4.7c-0.2,0-2.5,1.4-5,3.2
			c-6.6,4.6-10.9,6.8-18.5,9.8C878.3,569.1,844.8,573.1,819.2,569.7L819.2,569.7z"/>
		<path class="st2" d="M829.8,525.2c-38.6-3.7-75.5-23.8-97.9-55.7c-24.4-33.2-32.1-77.1-24.6-117.2c4-18.3,11.9-36.5,25.5-49.6
			c-10.8,23-14.5,49.4-8.7,74.3c9,49.8,51,91.9,101.3,99.2c19.9,5.8,40.5-0.3,59.5-6.5c41.9-14.8,73.9-54.6,77.8-99.1
			c3.3-24.1-0.4-49.1-11.2-70.9c6.2,3.3,14,16.1,18.6,24.7c16,31,16.7,68.2,7.3,101.2c-12.8,42.1-45,79-87.5,92.4
			C870.6,524.3,850,526.2,829.8,525.2L829.8,525.2z"/>
		<g id="a">
			<path class="st2" d="M635.5,469.9c-2.5-0.4-5.3,2.1-4.4,4.7c1.8,2.6,5,3.9,7.8,5.2c6.8,2.7,14.2,3.8,21.5,3.6c-2.5,0,0.9,0,1.8,0
				c5.8,0,11.5-1,16.9-3c3-1.1,6.9-2,8.1-5.4c1.2-2.2-1-4.3-3.2-3.9c-3.1,0.7-5.9,2.1-9,2.9c-6.6,1.9-13.5,2.6-20.3,2
				c-5-0.6-9.8-2.2-14.4-4.1C638.7,471.1,637.3,470.1,635.5,469.9L635.5,469.9z"/>
			<path class="st2" d="M638.3,459.5c-2.6-0.4-4.8,2.6-3.7,4.9c2,2.8,5.3,4.4,8.4,5.7c5.4,2.1,11.2,3,17,2.9c-2.2,0,0.8,0,1.6,0
				c4.9,0,9.8-1,14.3-2.8c2.8-1.1,6.2-2.1,7.3-5.2c0.9-1.7,0.2-4.1-1.9-4.2c-1.9-0.1-3.6,1.1-5.4,1.7c-6.5,2.7-13.6,3.8-20.6,3.2
				c-4.4-0.6-8.5-2.2-12.5-4C641.3,460.9,640,459.8,638.3,459.5L638.3,459.5z"/>
			<path class="st2" d="M641.7,449.6c-2.2-0.3-3.7,2.2-3.3,4.2c0.3,1.7,1.9,2.9,3.2,4c5.3,3.9,12.1,5.6,18.6,5.3c-2.5,0,3.4,0,1.6,0
				c4.1,0,8.2-1,12-2.8c2.5-1.1,5.4-2.3,6.3-5.2c0.4-1.3,0.7-3.2-0.8-4c-1.6-0.9-3.1,0.5-4.5,1c-4.8,2.4-10.1,3.8-15.5,3.8
				c-4.7,0.2-9-1.8-13.1-3.9C644.6,451.2,643.4,449.9,641.7,449.6L641.7,449.6z"/>
			<path class="st2" d="M605,302.7c-3.3,3.3-0.8,9.3-0.9,13.5c1.7,13.2,3.8,26.5,8.7,38.9c6,12.1,18.8,18.6,26.5,29.3
				c2.8,5.2,1.8,11.4,2.4,17c0.5,15.4,0.3,30.7,0,46.1c6.9,3.5,14.5,7,22.5,5.6c4.7-1.1,13.5-1.8,14.5-6.5c-0.4-26.5-0.6-53-1-79.5
				c-2.7-8.1-11-12.3-17.1-17.5c-5.1-5-9.8-10.4-14.2-16.1c-2.6-4.4-12.9-6-9.2,1.7c2.2,6.7,7.7,11.6,9.1,18.6
				c0.3,3.8,4.9,10.9,1,13.1c-2.5-4.2-6.1-7.8-10.7-10c-4.4-3.3-11.8-4.7-13.4-10.5c-1.2-8.3-5.4-15.8-10.9-22
				c1.4-7.4,0-16.7-6.4-21.5L605,302.7L605,302.7z"/>
			<path class="st2" d="M614.9,304.2c-3,0.5-2.9,4.3-1.5,6.2c1.5,4.3,1.9,8.9,1.1,13.4c5.3,6.2,9.3,13.5,10.6,21.6
				c0,3,3.2,4.1,5.3,5.6c4.9,3.1,10.3,5.4,14.7,9.2c0.9,1,1.6,2,1,0c-0.7-2.5-1-5.4-3-7.3c-2.7-2.9-6.2-5.6-10.1-6.5
				c-0.3-4.1-2.3-7.9-4.1-11.5c-2-3.5-4.1-7.2-7.5-9.5c0.1-6.1,0-12.5-2.6-18.1C617.9,306,616.7,304.3,614.9,304.2L614.9,304.2z"/>
			<path class="st2" d="M623.2,306.6c-2.1,0.6-1.7,3.2-1,4.7c1,4.3,1.1,8.8,1.1,13.2c3.8,3,6.2,7.4,8.3,11.6
				c1.4,2.8,2.6,5.8,3.2,8.9c3.1,1,5.8,2.9,8.2,5.1c-1-2.9-3.1-5.1-4.5-7.7c-1.6-2.7-3-5.6-3.7-8.7c-3-3.2-4.6-7.6-3.9-12
				c0.1-4.8-1.4-9.7-4.6-13.3C625.3,307.6,624.4,306.7,623.2,306.6L623.2,306.6z"/>
			<path class="st2" d="M632.6,308c-1.1,0.2-1.8,1.3-2.4,2.1c-0.2,0.9,0.8,1.8,1,2.8c1.3,3.3,1.8,6.9,1.4,10.4
				c-0.1,2.5,0.8,4.9,2.1,7.1c0.4-1.6,1.8-2.7,3.4-2.8c0.6-0.1,1.4,0.2,1.1-0.7c-0.4-4.8-1.1-9.6-2.8-14.1c-0.6-1.6-1.4-3.3-2.8-4.4
				C633.3,308.1,633,307.9,632.6,308L632.6,308z"/>
		</g>
		<g transform="matrix(-1 0 0 1 1440 0)">
			<g id="a_1_">
				<path class="st2" d="M385.6,469.9c1.7,0.2,3.2,1.2,4.8,2c4.6,1.9,9.4,3.5,14.4,4.1c6.8,0.6,13.7-0.1,20.3-2
					c3.1-0.8,5.9-2.2,9-2.9c2.2-0.4,4.4,1.7,3.2,3.9c-1.2,3.4-5.1,4.3-8.1,5.4c-5.4,2-11.1,3-16.9,3c-0.9,0-4.3,0-1.8,0
					c-7.3,0.2-14.7-0.9-21.5-3.6c-2.8-1.3-6-2.6-7.8-5.2C380.3,472,383.1,469.5,385.6,469.9L385.6,469.9z"/>
				<path class="st2" d="M388.4,459.5c1.6,0.3,3,1.4,4.5,2.2c4,1.8,8.1,3.4,12.5,4c7,0.6,14.1-0.5,20.6-3.2c1.8-0.6,3.5-1.8,5.4-1.7
					c2.1,0.1,2.8,2.5,1.9,4.2c-1.1,3.1-4.5,4.1-7.3,5.2c-4.5,1.8-9.4,2.8-14.3,2.8c-0.8,0-3.8,0-1.6,0c-5.8,0.1-11.6-0.8-17-2.9
					c-3.1-1.3-6.4-2.9-8.4-5.7C383.6,462.1,385.8,459.1,388.4,459.5L388.4,459.5z"/>
				<path class="st2" d="M391.8,449.6c1.7,0.3,2.9,1.6,4.5,2.4c4.1,2.1,8.4,4.1,13.1,3.9c5.4,0,10.7-1.4,15.5-3.8
					c1.4-0.5,2.9-1.9,4.5-1c1.5,0.8,1.2,2.7,0.8,4c-0.9,2.9-3.8,4.1-6.3,5.2c-3.8,1.8-7.9,2.8-12,2.8c1.8,0-4.1,0-1.6,0
					c-6.5,0.3-13.3-1.4-18.6-5.3c-1.3-1.1-2.9-2.3-3.2-4C388.1,451.8,389.6,449.3,391.8,449.6L391.8,449.6z"/>
				<path class="st2" d="M355.1,302.7l0.9,0.2c6.4,4.8,7.8,14.1,6.4,21.5c5.5,6.2,9.7,13.7,10.9,22c1.6,5.8,9,7.2,13.4,10.5
					c4.6,2.2,8.2,5.8,10.7,10c3.9-2.2-0.7-9.3-1-13.1c-1.4-7-6.9-11.9-9.1-18.6c-3.7-7.7,6.6-6.1,9.2-1.7
					c4.4,5.7,9.1,11.1,14.2,16.1c6.1,5.2,14.4,9.4,17.1,17.5c0.4,26.5,0.6,53,1,79.5c-1,4.7-9.8,5.4-14.5,6.5
					c-8,1.4-15.6-2.1-22.5-5.6c0.3-15.4,0.5-30.7,0-46.1c-0.6-5.6,0.4-11.8-2.4-17c-7.7-10.7-20.5-17.2-26.5-29.3
					c-4.9-12.4-7-25.7-8.7-38.9C354.3,312,351.8,306,355.1,302.7L355.1,302.7z"/>
				<path class="st2" d="M365,304.2c1.8,0.1,2.9,1.8,3.9,3.1c2.6,5.6,2.7,12,2.6,18.1c3.4,2.3,5.5,6,7.5,9.5
					c1.8,3.6,3.8,7.4,4.1,11.5c3.9,0.9,7.4,3.6,10.1,6.5c2,1.9,2.3,4.8,3,7.3c0.6,2-0.1,1-1,0c-4.4-3.8-9.8-6.1-14.7-9.2
					c-2.1-1.5-5.3-2.6-5.3-5.6c-1.3-8.1-5.3-15.4-10.6-21.6c0.8-4.5,0.4-9.1-1.1-13.4C362.1,308.5,362,304.7,365,304.2L365,304.2z"
					/>
				<path class="st2" d="M373.3,306.6c1.2,0.1,2.1,1,3.1,1.8c3.2,3.6,4.7,8.5,4.6,13.3c-0.7,4.4,0.9,8.8,3.9,12
					c0.7,3.1,2.1,6,3.7,8.7c1.4,2.6,3.5,4.8,4.5,7.7c-2.4-2.2-5.1-4.1-8.2-5.1c-0.6-3.1-1.8-6.1-3.2-8.9c-2.1-4.2-4.5-8.6-8.3-11.6
					c0-4.4-0.1-8.9-1.1-13.2C371.6,309.8,371.2,307.2,373.3,306.6L373.3,306.6z"/>
				<path class="st2" d="M382.7,308c0.4-0.1,0.7,0.1,1,0.4c1.4,1.1,2.2,2.8,2.8,4.4c1.7,4.5,2.4,9.3,2.8,14.1
					c0.3,0.9-0.5,0.6-1.1,0.7c-1.6,0.1-3,1.2-3.4,2.8c-1.3-2.2-2.2-4.6-2.1-7.1c0.4-3.5-0.1-7.1-1.4-10.4c-0.2-1-1.2-1.9-1-2.8
					C380.9,309.3,381.6,308.2,382.7,308L382.7,308z"/>
			</g>
		</g>
		<path class="st2" d="M839.1,476c-13.5-1.3-25.7-11.1-29.8-24c0.2-2.2,3,1.2,4.3,1.5c2.5,1.4,5.1,2.5,7.9,2.7
			c3.6,1.5,5.8,5,9.2,6.9c1.6,1.2,7.2,3.6,6.1-0.3c-1.3-2-2.2-4.6-1.1-7c1.9-4.1,4.8-7.8,7.7-11.2c2.2-0.7,3.6,3.5,5.1,5
			c2.1,3.3,4.7,7.3,3.4,11.4c-1.2,1.5-2,6,1.2,4.5c4-1.8,7.3-4.7,10.7-7.5c2.9-2,6.7-2.2,9.7-4c1.4-0.4,4.4-3.2,5-1.6
			c-1.7,4.5-4.5,8.5-7.5,12.2c-4.9,5.5-11.4,9.7-18.8,10.9C848,476.1,843.5,476.3,839.1,476L839.1,476z"/>
		<path class="st2" d="M855,460.2c0.3-2.7-0.3-5.5-1.7-7.9c-2.1-4.3-5.1-8.2-8-12c-2.8-1.6-4.3,3.7-6.1,5.2c-2.9,4.3-6.4,8.7-6.6,14
			c-1.6,2.5-4.6-2-5.9-3.5c-2.5-3.5-4.3-7.6-4-12c-0.3-7,1.1-14,3.6-20.6c1.9-5.6,5.1-11,4.8-17.1c0.2-4.6-0.7-9.7-4.4-12.7
			c-3.5-2.8,2.3-3.4,4.1-1.9c3.2,0.2,4.9,5.4,7.8,4.2c1.2-2.7,1.4-6,3.8-8.1c2.3-3.2,4.8,1.4,5.6,3.5c1.6,1.9-0.1,6.5,2.6,6.6
			c3.2-2.2,5.5-6,9.6-6.8c1.7-0.9,4.5-0.1,2.3,1.8c-3,2.8-5.6,6.4-6.2,10.6c-0.9,5.3,0.4,10.7,2.7,15.5c4.4,9.4,7.9,20,5.6,30.4
			c-1,4.6-4.2,8.6-8,11.3C855.9,460.9,855.2,460.9,855,460.2L855,460.2z"/>
		<path class="st2" d="M850.2,389.6c-1.5-2.6-3.2-5.2-5.7-7c-2.4,0-3.8,3-5.5,4.6c-1.1,2.1-2.5,5.6-5.3,2.9c-4.4-2.6-5.2-8.3-5.2-13
			c-0.3-7.6,2.8-14.7,5.5-21.6c1.7-4.3,1.3-9.2,0.2-13.6c-1.3-5.1-5.4-8.6-8.6-12.6c0.2-1.5,4.2-0.7,5.7-0.4
			c3.4,0.9,5.4,3.8,7.9,5.9c1.8-0.5,1.1-4.1,1.9-5.8c0.1-2.4,3.2-5.5,4.5-2.1c2,2.2-0.1,6.5,2.5,7.8c2.4-0.9,3.6-3.5,5.9-4.7
			c2.2-1.5,5.4-1.7,7.8-0.5c0.8,2.2-2.6,4.1-3.7,6c-4.1,5-5.5,11.9-3.7,18.1c1.4,4.9,3.8,9.4,4.7,14.4c1,5.7,1,11.6-0.5,17.2
			c-0.9,3.4-3.8,5.6-6.8,7C851.1,391.5,850.7,390.5,850.2,389.6L850.2,389.6z"/>
		<path class="st2" d="M835.1,326.9c-3.4-2.5-4.5-4.8-4.5-9.5c0-2.4,0.4-3.7,2-5.8c2.3-3.2,1.9-4.2-1.4-3.3c-5.3,1.5-7.8,0.1-8-4.4
			c-0.1-2.2,0.4-3.1,3.3-6.7c2.4-2.8,3.2-4.3,2.8-4.8c-0.5-0.5-3.3,2-9,7.8c-4.6,4.6-9.7,9.4-11.4,10.6c-9.8,6.6-19.2,7.7-23.5,2.6
			c-2.2-2.6-2.1-4.1,0.5-5.7c1.2-0.7,3.1-2.4,4.4-3.7c3-3.1,11.7-9.4,16.1-11.6c3.5-1.8,4.4-3,2.1-3c-3,0-12.5,6.2-19.8,12.9
			c-2.1,2-5.2,4.2-6.8,4.9c-3.6,1.6-10.7,2.2-13.9,1.1c-2.2-0.7-6.3-4.6-6.3-6c0-0.4,0.9-1.2,2.1-1.8c1.1-0.6,3.2-2.1,4.5-3.2
			c5.8-5.1,16.8-10.3,25.5-12.2c2.8-0.6,1.8-2-1.3-1.8c-6,0.3-17.9,5.8-25,11.7c-8.3,6.9-20.9,6.2-24.9-1.3
			c-0.7-1.3-1.1-2.5-0.9-2.7c0.2-0.2,2.7-0.9,5.5-1.6c3.1-0.8,9.1-3.3,14.9-6.2c9.1-4.5,11.8-5.5,18.1-6.5c2.8-0.5,3-1.8,0.2-2.1
			c-3.5-0.4-8.9,1.4-18.5,6c-12.3,6-15.7,7.1-22.2,6.7c-5.9-0.4-9.2-1.9-14-6.4c-3.1-3-7.6-10.5-6.7-11.4c0.2-0.2,1.7,0,3.2,0.5
			c1.7,0.5,6.7,0.9,12.6,0.9c8.3,0,10.5-0.2,15-1.5c7.4-2.1,17.3-7.1,24-12.2c12.9-9.6,23.4-13.5,36.8-13.6
			c12.4-0.1,20.2,2.8,27.2,9.9c2.4,2.4,4.4,3.9,4.7,3.6s0.7-4.5,0.8-9.3c0,0,3.6-0.4,4.4,0.7c0,7.8,0.1,8.4,1.2,8.4
			c0.7,0,1.5-0.8,2-1.9c1.1-2.6,5-6,9.2-8.2c9-4.6,24.7-4.7,37.3-0.3c5.3,1.9,11.2,5.2,16.8,9.5c5.6,4.3,17.1,10.1,23.9,12
			c6.9,2,19,2.4,25.2,1c2.6-0.6,5-1.1,5.3-1.1c2.3,0-1.6,7.6-6.2,12.1c-8.4,8.2-19.3,8.1-34.6-0.1c-9.5-5.1-21-8-21-5.1
			c0,0.6,0.6,1,1.5,1c3.3,0,9.7,2.2,18.7,6.5c9.7,4.6,15.1,6.5,18.3,6.5c2.3,0,2.4,1.5,0.2,4.6c-2.3,3.4-6.2,5.1-11.8,5.1
			c-5.3,0-8.2-1.2-13-5.1c-7.9-6.6-27.6-13.9-26.9-10c0.2,0.8,1.1,1.3,3.1,1.6c6.9,1,14.9,4.9,23.2,11.1c2.5,1.9,5.2,3.8,5.8,4.2
			c1.1,0.7,1.2,0.9,0.3,2.5c-1.5,2.8-5.2,4.9-9.3,5.3c-5.2,0.5-9.8-1-14.5-5c-9.9-8.3-19.3-14.3-22.3-14.3c-2.5,0-1.3,1.4,3,3.6
			c5.7,3,11.5,7.1,15.8,11c2,1.9,4.3,3.7,5.1,4.1c1.8,1,1.7,2.4-0.3,5s-5.4,3.8-9.7,3.3c-8.6-0.9-15.4-5.1-26-16.1
			c-4.1-4.3-7.8-7.8-8.2-7.8c-1.4,0-0.6,1.9,2.2,5c3.4,3.8,4,5.9,2.8,9c-1.1,2.7-3,3.4-6.9,2.3c-4-1.1-4.6-0.1-2,3.1
			c3.9,4.8,3.3,10.7-1.4,14.8c-1.5,1.3-3,2.3-3.4,2.3s-1.5-1.1-2.3-2.4c-3-4.6-5.7-4.6-8.7,0.1c-1,1.6-1.9,3-1.9,2.9
			C838.1,329.1,836.7,328.1,835.1,326.9L835.1,326.9z"/>
		<path class="st2" d="M850.1,233l-5.1,4.1l-4.6-3.5v27.7l9.7,0.1L850.1,233L850.1,233z"/>
		<path class="st2" d="M818.4,204.3c-1,13.1-4.3,22.3-9,32.4l11.1-10.3l7.7,9.2l8.4-9.3l8.5,7.9l8.2-8.2l8.5,10l7.4-8.2l12.5,9
			c-4.5-10.1-10.7-18.6-9.9-32.8C859.7,212.8,830.8,214.4,818.4,204.3L818.4,204.3z"/>
		<path class="st2" d="M840.4,197.6c-4.5,0.1-9.2,0.1-13.4,1c-2.9,0.6-5.6,1.5-7.8,3.1c0.4,8.5,41,12.1,51.9,0.2
			c-2.3-1.7-5.1-2.7-8.2-3.3c-4.1-0.8-8.6-0.9-12.8-0.9c0,2.3,0,4.7,0,7h-9.7V197.6L840.4,197.6z"/>
		<path class="st2" d="M848.4,154l-6.3,0.1v49.4h6.4L848.4,154z"/>
		<path class="st2" d="M848.4,155.2l-2.4,23.6l24.3,11.9L858,174.3l16.8-5.4L848.4,155.2z M845.6,149.1c-3.7,0-6.4,1.4-6.4,3
			s2.7,3,6.4,3s6.4-1.4,6.4-3S849.3,149.1,845.6,149.1z"/>
	</g>
	<g>
		<path class="st0" d="M396.3,375.9c2.7-0.9,4.2-2.5,5.3-5.6c0.5-1.5,0.9-3.2,0.8-3.6c-0.2-1-1.4-0.9-2.6,0.1
			c-0.9,0.7-1,1.1-0.7,2.6c0.6,3.7-0.7,4.7-7.8,5.4c-0.7,0.1-2.7,0-4.5-0.3c-3.4-0.4-4.6-0.1-3.3,0.9c0.4,0.3,1.3,0.7,2.1,0.9
			C387.4,376.9,394.3,376.5,396.3,375.9L396.3,375.9z M411,375.3c0.4-0.4,1.8-1,3.1-1.4c1.7-0.5,2.6-1.1,3.3-2.2
			c2.1-3.1,1.7-5.7-1.4-9.3c-1.7-1.9-2.4-1.9-3.7,0.3c-1.1,1.9-1.1,2,0.5,2.4c0.9,0.2,1.7,0.9,2.1,1.6c1.8,3.1,1.3,5-1.4,5
			c-2.4,0-3.1,0.4-3.7,1.9c-0.3,0.8-0.6,1.7-0.6,1.9C409.2,376.1,410.1,376,411,375.3L411,375.3z M406.2,371.8
			c0.5-1.2,0.6-3.4,0.6-7.9c0-3.4-0.2-6.3-0.3-6.5c-0.4-0.4-2.4,0.9-2.6,1.7c-0.1,0.4,0.1,1.4,0.5,2.2c0.6,1.2,0.7,2.3,0.5,7
			C404.6,374.1,404.9,375.1,406.2,371.8L406.2,371.8z"/>
		<path class="st0" d="M394.9,369c0.2-1.1,0.5-3.4,0.7-5c0.1-1.6,0.5-3.7,0.7-4.6c0.7-2.3,0-2.9-1.8-1.6l-1.4,1l0.3,3.3
			c0.3,3-0.2,8.6-0.9,10.7c-0.2,0.6,0.1,0.4,0.8-0.5C394,371.5,394.7,370.1,394.9,369L394.9,369z M384.9,370.6
			c2.4-2,2.2-5.5,2.7-8.3c-0.1-1.9,1.2-4.1,0.4-5.8c-2.3,0.4-3.7,2.6-2.5,4.7c0.1,2.5,0,5.2-1.3,7.4c-1,1.4-4.4,1.1-4.2-1
			c0.8-3.1-2.8-1.6-4.3-0.8c-1.1,0.8-3.5,0.8-2.6-1.1c-0.5-2.6-3.9-1-5.7-1c-1.7,0-0.1-3.4-2.6-2.8c-4.5-0.4-9.5,0-13.5-2.7
			c-2.3-1.1-2-3.9-0.8-5.7c1.4-2.4,1.8-5.5,4.1-7.4c2.2-2.2-2.1-1.2-3.1-0.5c-2.2,1.2-0.2,4.3-1.9,6c-1,1.8-2.4,4.2-4.8,3.9
			c-3.5-0.7-5.5-3.9-8-6.1c-2.1-0.4-0.9,3.5,0.2,4.3c2.2,1.6,4.8,2.8,7.4,3.5c2.6-0.4,2.7,3,5,3.6c4.1,1.9,8.7,2.5,13.2,2.7
			c1.8,0.1,0.8,3.3,3.1,2.7c1.3,0.3,4.2-0.5,4.4,1c-2,2.3,1.9,2.3,3.3,1.9c1.8-0.3,4.2-1,4.6,1.5c1.5,1.6,4.3,1.4,6.2,0.5
			C384.4,370.9,384.7,370.8,384.9,370.6L384.9,370.6z"/>
		<path class="st0" d="M345.1,350.4c0.7-0.9,1.8-2.8,2.5-4.2c0.6-1.4,1.5-3,2-3.5c1.2-1.3,0.5-2-1.4-1.6c-1,0.2-1.4,0.6-1.6,1.5
			c-0.6,2.8-1.6,5.7-2.5,7.1c-1.7,2.4-1.7,2.5-1,2.5C343.4,352.1,344.3,351.3,345.1,350.4L345.1,350.4z M320.1,334.7
			c-1.9,0-1.9,1.2-0.1,1.8c0.9,0.3,1.6,1,2.2,2.3c1.8,3.5,2.8,4.2,7.5,4.6l3,0.3l0.1,1.8c0.1,1,0.3,1.9,0.5,1.9s1.4-0.5,2.6-1.1
			c2.2-1.1,4.3-3.7,4.3-5.4c0-1.1-1.8-2.2-3.4-2.2c-0.7,0-2.1,0.6-3.1,1.4c-3.4,2.4-7,1.9-8.9-1.2
			C323.3,336.2,321.6,334.7,320.1,334.7L320.1,334.7z M336.4,341.2c0.9,0,1.1,0.7,0.6,1.9c-0.3,0.9-1.4,0.9-1.7,0
			C334.9,342.2,335.4,341.2,336.4,341.2L336.4,341.2z M462.9,337.1c-1.2,0-1.6,0.3-2.4,1.5c-1.3,1.9-1.4,6-0.2,7.4
			c0.7,0.9,0.8,0.9,2.4,0.3c2.1-0.9,2.5-0.9,2.5,0.3c0,2.9-4.2,8.6-8.7,11.6c-1.2,0.8-2.3,1.7-2.4,2c-0.3,0.8,1.3,0.7,3.3-0.4
			c2.7-1.4,6.4-5.1,7.8-8c1.2-2.3,1.3-3.1,1.5-7.1c0.1-3.7,0-4.8-0.6-6.1c-0.7-1.4-0.9-1.5-2.7-1.5
			C463.2,337.1,463,337.1,462.9,337.1L462.9,337.1z M463,339.7c0.9,0,1.1,0.2,1.2,1.5c0.1,1.1-0.1,1.8-0.7,2.3
			c-0.8,0.7-0.9,0.7-1.6-0.4C460.8,341.6,461.5,339.7,463,339.7L463,339.7z M442.8,368.2c3.9-1.9,6.2-4.1,7.7-7.2
			c0.7-1.5,1.3-2.9,1.3-3.1c0-0.5-1.9-1.4-3.1-1.4c-1.1,0-1.4-0.8-0.9-3c0.5-2.1-0.1-4.8-1-4.8c-0.3,0-0.9,0.5-1.3,1.1
			c-0.6,0.9-0.6,1.3-0.2,2.7c0.7,2,0.1,3.5-1.7,4.8c-0.9,0.6-1.3,1.3-1.3,2c0,0.6,0.1,1.1,0.2,1.1s1-0.5,2.1-1.1l1.9-1.1l1.1,0.9
			c0.6,0.5,1.1,1.3,1.1,1.8c0,2.4-6.8,6.4-11.4,6.7c-2.5,0.2-2.9,0.1-3.8-0.7c-0.7-0.7-0.9-1.3-0.7-2.1c0.1-0.6,0.4-1.8,0.5-2.6
			c0.4-2.1-0.5-1.8-2,0.6c-1.3,2-1.6,4.1-0.9,5.2c0.6,0.9,4.4,1.8,7.2,1.6C439.3,369.5,441,369.1,442.8,368.2L442.8,368.2z
			 M468.8,353.7c2.5-2.4,3.5-5.4,3.5-10v-3.5l2-1c2.6-1.3,5.1-3.7,5.1-5.1s-0.6-1.4-1.8,0.2c-0.8,1.1-1.9,1.8-6,3.7
			c-1,0.5-1.1,0.7-1.3,5c-0.3,5-0.9,6.8-3.7,10.2c-1.7,2.1-1.8,2.3-0.6,2.3C466.5,355.5,467.8,354.7,468.8,353.7L468.8,353.7z
			 M442.1,350.9c0.2-0.7-1.1-1.2-1.7-0.6c-0.2,0.2-0.3,0.7-0.1,0.9C440.6,351.8,441.8,351.6,442.1,350.9z M478.9,341.3
			c0.2-0.7-1.1-1.2-1.7-0.6c-0.3,0.3-0.3,0.7-0.2,1C477.5,342.3,478.7,342.1,478.9,341.3L478.9,341.3z M434.6,315.5
			c-1,0.5-1.4,1.5-2.1,2.3c-0.5,0.3-0.1,0.6,0.2,0.9c1.7,1.8,2.4,4.3,3.2,6.5c0.8,2.7,1.8,5.6,1,8.4c-0.3,1.1-1.2,2.2-2.4,1.8
			c-2-0.1-4-0.7-6-0.6c-1.8,0.1-3.2,1.7-5,1.6c-1.2,0.1-1.1-2.4-2.2-1.7c-0.5,1.3-0.3,2.7-0.3,4.1c0.2,0.2,0.8,0,1.1,0.1h3.6
			c0.3,1.3,0.2,2.7,1.1,3.7c1.3,0.4,2.7,0.1,3.9-0.4c1.3-0.6,1.5-2.1,1.8-3.3c0.4-1.3,2.1-1,3.1-1.5c2.4-0.7,4-3.3,3.9-5.8
			c-0.2-3.8-1.6-7.4-2.7-11c-0.6-1.6-0.9-3.3-1.6-4.8C434.9,315.6,434.7,315.5,434.6,315.5L434.6,315.5z M428.5,337.3
			c1.4-0.1,1.9,1.6,1.7,2.7c-0.5,1.5-2.4,0.5-2.7-0.5C426.8,338.5,427.2,337.2,428.5,337.3z"/>
		<path class="st0" d="M378.3,324.8c-0.6,0-1.3,0.2-2,0.7c-3.5,2.5-4.4,5.4-2,6.6c1.8,0.8,1.3,1.8-1.5,3.2c-4,2-7.5,1.7-14.2-1
			c-1.6-0.7-2.1-0.4-1.7,1.1s1.7,2.3,5.1,3c3.6,0.8,8,0.6,10.8-0.6c1.4-0.6,3-1.8,4.4-3.3l2.2-2.4l2.5,0.3c3.1,0.4,3.2,0.4,3.2,1.9
			c0,1.2,0.1,1.2,2.9,1.5c1.6,0.2,3.7,0.3,4.7,0.3c1.3,0,2,0.2,2.4,0.8c0.6,0.8,0.9,0.8,5.6,0.4c4.4-0.4,5.2-0.4,7.2,0.3
			c1.4,0.5,3,0.7,4.1,0.5c3.4-0.4,8-3.1,8.7-5.1c0.1-0.2,1.3-0.7,2.7-1c3.4-0.7,3.5-1.4,0.4-1.8c-1.4-0.2-3.4-0.7-4.6-1.1
			c-1.2-0.5-2.7-0.8-3.5-0.8c-1.7,0-3.3,1.1-3.3,2.2c0,0.7,0.3,0.8,2.3,0.6c1.9-0.2,2.5-0.1,3.5,0.7c0.7,0.5,1.1,1.1,1,1.4
			c-0.4,0.7-4.4,2.5-6.2,2.8c-1.2,0.2-2.1,0.1-3-0.4c-1.5-0.8-3.8-0.9-4.2-0.2c-0.2,0.3-0.7,0.1-1.3-0.5l-1-1l-2.4,1
			c-2.4,1-3.3,1-3.3-0.2c0-0.5-0.7-0.6-4.2-0.4c-3.9,0.3-4.3,0.2-5-0.6c-0.7-0.7-0.7-1-0.2-1.8c0.4-0.7,0.4-1,0-1.4s-1-0.4-2.5,0
			c-3.9,1-5,0.5-5-2.6C380.6,325.9,379.6,324.8,378.3,324.8L378.3,324.8z M377.3,327.6c0.2,0,0.4,0.1,0.6,0.4
			c0.3,0.3,0.5,0.9,0.4,1.3c-0.3,0.9-2,0.9-2.3,0c-0.2-0.4,0-0.9,0.5-1.3C376.9,327.7,377.1,327.6,377.3,327.6z"/>
		<path class="st0" d="M370.4,330.4c2.4-1.5,2.3-1.4,2.6-5.5c0.2-2.9,0.2-3.1-0.6-3.1c-1.2,0-1.8,1.3-1.8,3.7c0,1.5-0.2,2.2-1.1,3.1
			c-2,2-6.8,1.1-7.4-1.4c-0.2-0.8,0.1-1.6,1.1-3c2.1-3,1.6-3.8-1-1.5c-1.8,1.6-2.1,1.6-1.8,0.3c0.3-1.2-0.3-1.7-1.8-1.4
			c-0.7,0.2-1.2,0.7-1.3,1.6c-0.2,0.9-0.6,1.4-1.3,1.6c-1.2,0.3-3.2-0.8-3.2-1.8c0-0.7,3-4.4,6.9-8.4c1.5-1.5,2.7-2.9,2.7-3.1
			s-0.8-0.4-1.7-0.4c-1.4,0-1.7,0.2-1.7,0.8c0,0.4-1.9,3-4.3,5.7c-5,5.6-5.4,6.8-2.9,8.3c2,1.2,4.5,1.1,6.5-0.2l1.6-1.1v2
			c0,2.5,0.5,3.5,2.5,4.5C364.8,332.1,367.9,332,370.4,330.4L370.4,330.4z M474.7,295.8c-1.8,1.1-0.4,3.4-0.1,5
			c-0.8,2.1-3.4,2.7-5.4,3.1c-2.8,0.5-4.8,2.8-5.8,5.3c-0.6,1.6-2,4.1-3.5,1.7c-1.3-1.3-3.7-2.4-5.3-0.8c-1.2,1.1-1.5,2.8-1.9,4.3
			c-0.7-1.2-1-2.9-2.5-3.2c-2.4,0.3-1.5,3.3-0.4,4.5c1,1.4,2,3.3,1,5c-0.9,2-3.9,3.4-5.6,1.7c-1.6-0.9-0.5-4-2.2-4.1
			c-0.8,0.6-0.9,3.8-2.2,2.1c-0.9-1.5-0.4-3.6-1.6-4.9c-1.3,0.2-2.4,2.5-2,3.7c1.8,2.4,2.5,5.4,3.2,8.3c0.4,1.2-0.1,3.5,1,3.9
			c0.7-1.9,0.1-4,0.6-5.8c1.7-0.2,3.7,0.6,5.5,0.2c2.6-0.3,4.6-2.5,5.6-4.9c0.3-1.8-0.1-3.6-0.1-5.3c2.1,0.3,4.2,0.3,6.2,1
			c1,1.5-0.3,3.6-0.6,5.3c-1,3.4-3.7,5.8-6.2,8.1c-1.1,0.6-1.2,2.3,0.4,1.4c3.4-1.5,6-4.6,7.5-8c1.1-2.6,0.2-5.5,0.9-8.2
			c1-2,3.5-1.6,5.4-1.6c1.9-0.1,3.6-2.3,2.9-4.2c-0.6-2.2,1.7-3.2,3.2-4c2.1-1,3.7-3.2,3.5-5.6C476.4,298.2,476.4,295.9,474.7,295.8
			L474.7,295.8z M467.4,308.3c2.2,0.6-0.4,4.8-1.6,2.1C465.4,309.4,466.3,308.3,467.4,308.3z M457.1,311.3c2.9-0.2,1.9,4.1-0.6,2.1
			C455.2,312.8,455.6,311.3,457.1,311.3z M352.4,327.7c0.1-0.4-0.1-0.7-0.5-0.7c-0.8,0-1.3,0.7-0.9,1.3
			C351.3,328.9,352.2,328.5,352.4,327.7z M386.3,323.9c0-0.6-0.2-0.9-0.8-0.8c-1.1,0.2-1.3,1.7-0.1,1.7
			C386,324.8,386.3,324.5,386.3,323.9z M344.3,303.5c-1.4-0.3-2.2,0.9-2.7,2c-1,1.7-2.2,3.4-4.1,4.3c-1.3,0.4-2.7-0.1-3.9-0.8
			c-1.3-0.7-1-2.3-1.6-3.4c-1-0.8-2.7,0.3-2.7,1.5c-0.1,1.6,1.4,2.5,2.6,3.1c1.1,0.6,2.6,1,3,2.3c0,1.1,0.4,2.4,1.8,1.9
			c1.5,0,1.9,1.8,1.3,2.9c-0.6,1.2-1,2.7-0.7,4.1c0.7,0.6,1.5-1,2-1.5l1.1-1.4c2.7,0.1,5.3,0.5,8,0.4c1.9,0,3.5-1.2,4.7-2.6
			c1.7-1.8,3.1-3.9,5.1-5.4c1.4-0.3,0.6-3-0.8-2.2c-1.3,0.5-1.7,2-2.6,2.9c-1.5,1.9-3.1,3.8-5.1,5.2c-1.4,0.6-3,0.3-4.5,0
			c-0.6-0.5,1.2-1,1.5-1.6c0.8-0.8,1.8-1.6,2.3-2.7c-0.5-1-1.9-1.1-2.9-1.1c-2.5,0.3-4.3,2.4-6.8,2.6c-1.9,0.1-0.9-2-0.1-2.7
			c1.7-2,3.5-3.8,5.2-5.7c0.5-0.6,2.3-1.2,1.1-2C345.2,303.5,344.7,303.5,344.3,303.5L344.3,303.5z M345.5,313.5
			c1.2,0.7-0.8,1.8-1.6,1.7c-1.1,0.3-1.1-0.8-0.1-1C344.3,313.9,344.9,313.6,345.5,313.5L345.5,313.5z M341.7,316.1
			c0.7,0,2.2,0.7,0.8,1.1C341.6,318,340.5,316.4,341.7,316.1z"/>
		<path class="st0" d="M371.7,317.8c0-0.9-1.7-0.8-1.9,0.1c-0.1,0.6,0.1,0.8,0.9,0.6C371.3,318.5,371.7,318.2,371.7,317.8z
			 M446.4,311.2c0.2-0.9-1.1-1.5-1.7-0.8s-0.1,1.9,0.8,1.7C446,312,446.4,311.6,446.4,311.2z M330.2,302.1c1.2-1,1.2-1.1,0.7-3.3
			c-0.7-3.1-0.7-3.4,0.5-3.7c1.5-0.4,5.3,1.7,6.1,3.3c0.7,1.3,0.6,1.3-0.5,2.4c-1.2,1.1-1.2,2.4,0,2.4c1,0,3.7-2.6,3.7-3.5
			c0-1.3-3-4.3-5.4-5.4c-1.5-0.7-3-1-4.7-1c-3.1,0-3.5,0.7-2.7,4.2c1,4.2-0.3,4.7-3.7,1.6c-2.5-2.3-3.5-4.8-3.5-8.6
			c0-4.1,1.6-6.1,5.1-6.6c2.4-0.3,2.3-0.9-0.1-1.2c-3.5-0.5-6.5,1.8-7.7,6c-1.3,4.7,1.6,10.4,6.7,13.3
			C327.6,303.4,328.6,303.4,330.2,302.1L330.2,302.1z M469.4,296.9c0.3-0.3,0.5-0.9,0.5-1.4s0.5-1.6,1.1-2.4s1.1-1.6,1.1-1.8
			c0-0.8-1.4-0.8-2.4,0.1c-1.1,0.9-1.9,0.9-1.9,0c0-0.2,0.5-0.6,1.2-0.9c1.6-0.8,1.7-1.5,0.4-2.2c-1.7-0.8-3.4,0.6-3.6,3
			c-0.1,1.6,0,1.8,1.2,2.6c1.1,0.7,1.3,1,1.1,1.9C467.7,297.4,468.4,298,469.4,296.9L469.4,296.9z M482.5,295.5
			c1-0.9,1.7-1.8,1.7-2.2c0-0.3,0.8-1.2,1.8-1.9c2.9-2.1,3.5-4.2,2.2-7.4c-0.5-1.3-2.1-3-5.5-6.1c-2.6-2.4-5-4.3-5.4-4.3
			c-0.9,0-0.8,3.4,0.2,3.7c1.7,0.5,2.7,1.2,5.4,3.7c3.1,2.8,4.6,5.5,3.8,6.9c-0.8,1.4-1.8,1-4.5-2c-1.4-1.6-2.9-2.8-3.2-2.8
			c-0.3,0-0.5,0.6-0.5,1.4c0,1,0.5,1.9,2,3.5c2.3,2.6,2.6,4.1,0.8,5.5c-0.6,0.5-1.3,0.9-1.4,0.9c-0.2,0-0.7-0.8-1.1-1.7
			c-1-2-6.9-8.3-7.8-8.3c-0.4,0-0.6,0.5-0.6,1.5c0,1.2,0.2,1.6,1.2,2.1c1.2,0.6,4.1,3.6,7,7.1c0.8,1,1.7,1.8,1.8,1.8
			C480.6,297,481.5,296.3,482.5,295.5L482.5,295.5z M488.3,278.7c-0.4-1.2-8.4-9.5-9.2-9.5c-0.4,0-0.6,0.5-0.5,1.8
			c0.1,1.6,0.3,1.9,1.4,2.1c0.7,0.2,2.8,1.8,4.7,3.7c1.9,1.8,3.5,3.2,3.7,3.1C488.5,279.9,488.5,279.3,488.3,278.7L488.3,278.7z
			 M440.6,371.3c0,0.6-0.5,1.1-1.2,1.1s-1.2-0.5-1.2-1.1l0,0c0-0.6,0.5-1.1,1.2-1.1C440.1,370.2,440.6,370.7,440.6,371.3
			L440.6,371.3z M444.8,369.9c0,0.6-0.5,1.1-1.2,1.1s-1.2-0.5-1.2-1.1l0,0c0-0.6,0.5-1.1,1.2-1.1S444.8,369.3,444.8,369.9
			L444.8,369.9z"/>
	</g>
</g>
</svg>
