<?xml version="1.0" encoding="utf-8"?>
<!-- Generator: Adobe Illustrator 20.0.0, SVG Export Plug-In . SVG Version: 6.00 Build 0)  -->
<!DOCTYPE svg PUBLIC "-//W3C//DTD SVG 1.1//EN" "http://www.w3.org/Graphics/SVG/1.1/DTD/svg11.dtd">
<svg version="1.1" id="Layer_1" xmlns="http://www.w3.org/2000/svg" xmlns:xlink="http://www.w3.org/1999/xlink" x="0px" y="0px"
	 viewBox="0 0 800 480" style="enable-background:new 0 0 800 480;" xml:space="preserve">
<style type="text/css">
	.st0{fill:#FFD520;}
	.st1{fill:#FF4E12;}
	.st2{fill:#FFFFFF;stroke:#000000;stroke-width:0.75;}
	.st3{fill:none;stroke:#000000;stroke-width:0.75;}
	.st4{fill:none;stroke:#000000;stroke-width:0.75;stroke-linecap:round;}
	.st5{fill:none;stroke:#000000;stroke-width:0.75;stroke-linecap:round;stroke-linejoin:round;}
	.st6{fill:#FFFFFF;stroke:#000000;stroke-width:0.4168;}
</style>
<path class="st0" d="M0.1,0H800v480H0.1V0z"/>
<path class="st1" d="M0.1,480H800V0L0.1,480z"/>
<g>
	<g>
		<path class="st2" d="M433.4,142c-3.9-1.6-6.6,0.4-6.6,5.6c-0.1,5.2,2.5,8.2,6.6,6.4L433.4,142z"/>
		<path class="st2" d="M437.3,132.5c-3.2-2.7-6.4-1.7-8.1,3.1c-1.7,4.9-0.2,8.6,4.2,8.2L437.3,132.5L437.3,132.5z"/>
		<path class="st2" d="M443.1,123.4c-2.7-3.2-6-2.7-8.5,1.8c-2.5,4.5-1.6,8.4,2.8,8.8L443.1,123.4L443.1,123.4z M437.9,168.6
			c-5,1.6-5.7,8.3-2.8,12.5c2.9,4.2,8.6,5.2,11.8,0.4L437.9,168.6L437.9,168.6z"/>
		<path class="st2" d="M432.7,154.2c-4.6-1.7-9,4.4-9.9,10c-1.2,7-11.3,9-6.1,19.9c1.4-6.8,6-10.4,9.7-10.5c3.6-0.1,9-0.7,11.5-5
			L432.7,154.2z M446.4,182.3c-5.5,1.1-6.5,8.3-2.8,13.6c3.1,4.5,13.5,3.8,13.4-0.6L446.4,182.3L446.4,182.3z M460.2,226.2
			c0.4-4.6-7-6.7-10.6-5.9c-3.6,0.8-10.5-0.5-12-4.4c-1.4,3,0.3,6.5,5.5,8.3c3.9,1.4,3.7,4.3,2.5,5.5
			C448.6,230.3,457.3,230.6,460.2,226.2L460.2,226.2z"/>
		<path class="st2" d="M457,196.5c-5.2-2.5-8.4,0.9-10.6,4.3c-3.1,4.9-12-1.8-15.4,4.7c4.2-1.7,8.4,2.3,10.3,3.7
			c5.5,3.9,16.5,3.2,18.4-5.5L457,196.5L457,196.5z"/>
		<path class="st2" d="M459.9,202.8c-5.4,3.8-7.6,8.5-7.6,11.7c0,3.2,4.3,10.5,9.1,11C464.4,219.8,466.3,207.6,459.9,202.8z
			 M437.1,226.8c0.1-1.9,2.9-2.6,4.8-1.9c1.9,0.7,4.8,2.7,3.7,4.8L437.1,226.8z M408.4,215.2c-0.4-2.3,3.4-6.2,8.4-3.8
			c4.9,2.4,5.4,6.6,3.3,8.2L408.4,215.2z"/>
		<path class="st2" d="M420.5,219.9c-0.3-1.3,3.4-3.7,9.5-2c6.1,1.8,7.5,5.8,7.2,8.9L420.5,219.9L420.5,219.9z M407.8,215.2
			c3.3-2.3,2.3-7-0.6-8.5c-5.2-2.8-3-9.4-6.3-10.8c-3.3-1.4-6.4-3.8-6.5-6.2c-1.8,3.2-0.9,6.2,1.4,8.3c2.2,2.1-2.2,10.4,0.7,12.7
			L407.8,215.2L407.8,215.2z M338.8,210.9c-2.6-4.3-9-3.8-11.8-0.9c-2.8,2.9-2.6,7.3-0.1,9.3L338.8,210.9L338.8,210.9z M354.5,205.2
			c-0.8-5.7-7.6-6.6-11.4-5.3c-3.8,1.3-6.6,6.9-4.3,11.1L354.5,205.2L354.5,205.2z"/>
		<path class="st2" d="M364.8,204.8c2.6-4.7-1.9-11.9-7.3-13.1c-4.5-1-9.8-1.2-11.4-5.7c-1.2,3.8,1.6,6.4,4.8,8.7
			c3.3,2.3-0.9,7.8,4.4,11.2L364.8,204.8L364.8,204.8z"/>
		<path class="st2" d="M364.3,204.9c-1-3.5,1.4-7.9,6.1-7.4c4.6,0.5,7.1,3.9,4.9,8.1L364.3,204.9z"/>
		<path class="st2" d="M374.6,205.5c-0.5-3.6,2.5-7.6,7-6.5c4.5,1.1,6.5,4.9,3.8,8.7L374.6,205.5L374.6,205.5z"/>
		<path class="st2" d="M384.8,207.5c-0.3-3.6,2.9-7.5,7.4-6.1c4.4,1.3,6.3,5.2,3.3,8.9L384.8,207.5z M305,263.7
			c-8.6-0.3-10.8,1.7-12.4,10.5C290.7,285.2,305.7,287.1,305,263.7z"/>
		<path class="st2" d="M309.3,252.3c-13.1-5.5-21,15.2-34,11c4.4,7.6,16.1,0.6,20.3,1.5C302.7,266.3,318.4,264.2,309.3,252.3
			L309.3,252.3z M299.6,280.7c-6.5-3.2-13.9,6.6-12.8,11C288.3,297.3,303.4,293.3,299.6,280.7z M267.4,322.8
			c3.6,1.2,7.9,3.4,6.8,10.3c-1,6.9-14.7,20.6-26.5,21c-11.9,0.3-16.6,14.5-26.7,10.1c9.6-1.5,10-12.3,17.6-15.3
			c-5.3-2.1-8.6,10-15.6,9.8c-6.9-0.2-10.7,10.7-19.2,9.6c-8.5-1.1-9.9,13.1-26.9,12.7c-13-0.3-29.6,14.3-35.2,7.5
			c12.7-1.4,18-8.2,25.8-15.6c12.5-11.9,26-5.9,31-16.7c-5.5,3.4-12,5.1-18.5,4.8c-7.9-0.4-17.1,12-25.7,6c5.2-0.5,8.6-2.5,14.2-8
			c5.7-5.6,13.7-1.6,20.4-7.3c10.4-8.9,18.7-0.9,28.8-12.1c-2.7-1.4-8.5-0.7-14,1.9c-5.5,2.6-12.3-2.4-18.6,0.8
			c1-7.6,15.3-2.7,24.5-7.6c10.4-5.6,18.7-3.5,26.8-2.5c-11.2-0.5-15.2-11.2-30.7-8.7c-6.8,1.1-11.8-9.7-18.7-4.5
			c0.3-4,7.5-6.9,14.5-2.8c7.1,4.1,10.2-3,24.3,6.5c5.8,3.9,16.2-1.7,22.5,2.5c-0.7-2.5-4.4-4.2-8.7-4
			C242.6,315.7,260,317,267.4,322.8L267.4,322.8z"/>
		<path class="st2" d="M279.2,314.8c-5.5-4.6-13.5,0.4-18.9-1.8c-0.1,3.6,1.5,9.1,7.3,11.3C269.5,323.1,277.8,316.3,279.2,314.8
			L279.2,314.8z"/>
		<path class="st2" d="M288.5,302.7c-8.7-4.8-10.7,6.3-17.5,3.8c0.1,3.2,2.6,7.3,8.2,8.4L288.5,302.7L288.5,302.7z"/>
		<path class="st2" d="M294.2,292.7c-12.9-5.6-15.1,6.9-22.7,4.2c1.6,4.4,12.6,7.2,18.3,5.8L294.2,292.7z M314.1,238.1
			c-3.3-5-10.8-1.3-12.1,4.5c-1.4,5.7,1.2,14,6.1,12.3L314.1,238.1L314.1,238.1z"/>
		<path class="st2" d="M323.6,223c-6-1.6-13-1.2-12.4,4.7c-2.4,0.9-3.3,8.5,3,10.4L323.6,223L323.6,223z"/>
		<path class="st2" d="M327.7,219.2c-5.7-7.2-12.3-7.2-16.1-4.4c-7,5.2-13.5,1.8-13.9,7.2c4.2-3,7.7,0.9,11.1-0.1
			c3.4-1,5.6,5.5,15,3.1L327.7,219.2L327.7,219.2z M309.7,322.5c0.8,1.7,6.3,2.7,9.2-0.1c3.7-3.6,0.1-14.2-5.5-15.1
			C307.7,306.3,306.7,318.8,309.7,322.5L309.7,322.5z"/>
		<path class="st2" d="M303.3,322.5c8,3.2,11.7-3.3,7.5-7.7C309.5,316.2,305.1,321.2,303.3,322.5z"/>
		<path class="st2" d="M272.5,332.5c-1.7,4.6-9.7,5.1-19.2,19.2c-9.5,14.1-17.9,7.7-20.5,17.6c11.1-8.4,19.4-2.2,26.2-10.7
			c10.3-12.8,18.2-10.6,22.3-19.3c5.9-12.4,29.5-11.3,31.5-31.1C304.9,306.4,278.9,326.8,272.5,332.5L272.5,332.5z M482.6,145.2
			c10.2,3.7,10,17.1,21.6,21.9c11.7,4.8,12.5,15.4,22.2,13.2c-8.9-2.8-7.9-13.2-17.2-16.1c-10.9-3.4-14.5-20.4-23.1-23.3
			 M527.3,216.8c1.7,4.2,1.1,11.5-5.4,13.2c3.4,2.3,8.6,0.4,11.6-4.2c-4.6,9.2-2.1,17.8,4.6,19.8c-3-6.7,4.3-9.5,2.2-13.8
			c4.2,2,7.7,7.9,7.4,11.5c5.8-6-3.6-14.6-1.6-20.3L527.3,216.8L527.3,216.8z M458.2,280.5c-6.1-5.8-9,1.1-12.1-1.4
			c-2.8-2.4-6.7-2.8-8.2-0.6c5.4,0.4,2.6,4.5,13.1,5.9c-10.5,0.3-9,12.1-16,11.3c7.2,7.3,11.6-5.9,17.5-3.5
			c-1.8,0.4,2.7,4.9-0.8,10.4c5.2,0.1,7.6-7.1,8.4-10.8L458.2,280.5L458.2,280.5z M317.2,335.7c-2.2-2-8.9-3.2-11.5-1.7
			c-2.6,1.5-1.7,1.9,1.3,2.2c3.1,0.4,6.9,5.5,0.2,5.5c-3.1,0-2.3,7.5-8.8,7.8c2.5,3.3,10.1,1.5,13-2c-0.6,2.9,3.1,5.7,1.5,9.1
			c4.7,0.7,2.3-9.6,9.9-8.8c-3.1,0.3-2.1,7.3,3.4,5.7c-3.3,1.4-1.7,5.2,1.9,4.5c-2.3,0.7-3.2,3.6-0.1,5.4
			C331.2,359.2,328.3,343.9,317.2,335.7L317.2,335.7z M602.6,203.7c9.9,0.4,18.1-7.3,18.5-17.2c0.4-9.8-7.3-18.1-17.2-18.5
			c-9.9-0.4-18.1,7.3-18.5,17.2C585.1,195.1,592.8,203.3,602.6,203.7z"/>
		<path class="st2" d="M508.7,221.9c5.6-5,13.9-7.2,19.4-3.2c5.5,4.1,24.2,9.4,33.6,3.3c9.5-6.1,14-9.3,18.1-8.4
			c2.9,4.7,6.6,7.1,11.2,7.6c1.4,1.6,6.3,3.1,9.2,2.8c4.1,1.2,9.1,0.1,13.3-4.2c6.1,1.1,12.1-3.3,14.5-10.2
			c6.6-0.5,7.2-7.9,3.3-12.9c-3.8-0.9-0.4-13.8-14.5-11.7c5.8,3.8,1,10.9,5.8,14.4c-3.3-0.1-7.7,1.1-8.9,6.1c1.4-3.4,0-5.8-0.9-6.6
			c0.2-3-6.1-10.5-12.3-8c4.4,1.1,1.6,8.2,4.8,11c-2.3,0-4.8,1.1-6.3,3.1c-1.6-3-7.4-6.3-11-6.7c0-1-0.1-3.1-0.5-4.1
			c-1.5-3.1-2.7-6.9-1.9-11.5c-3.2,3.2-5.9,7.8-7.6,11.1c-4.8-3.5-17,0.9-22.8,2c-5.7,1.1-24.6-2.7-28.9-7.5
			c-4.2-4.8-12.6-7.9-20.5-10.5c-10.9-3.6-10.5-15.6-22.3-24.3C482.8,168.4,503.7,216.6,508.7,221.9L508.7,221.9z M378.5,331.2
			c9.5,0.3,17.5-7.1,17.9-16.6c0.3-9.5-7.1-17.5-16.6-17.9c-9.5-0.3-17.5,7.1-17.9,16.6C361.5,322.8,368.9,330.8,378.5,331.2z"/>
		<path class="st2" d="M337.8,316.4c3.3,4.6,9.2,4.6,11.7,4.3c1.9,5.5,8.4,5.6,11.2,8.6c2.7,3.1,12.4,3.2,15.3,1.6
			c-2.6-0.3-5.9-2-9-4.8c-3.8-3.4-1.7-9.9-4.7-12.3c2.4-2.5,2.9-6.7,2.5-8.4c2.5-1.3,4.4-3.6,4.7-4.7c4.3-0.1,8.1-2.2,9.7-3.8
			c2.1,2.1,7.7-0.4,10.6,3.2c0.9-8.5-7-13.3-12.5-10.6c-2.1-1.2-8-0.7-9,0.8c-1.8-0.8-6.9,1.6-9.3,3.1c2.6-1.3,3.2-5.6,2.2-7.1
			c2.2-0.8,4.8-3.7,5.1-5.9c3.1,0.6,7.8-1.3,9.8-0.7c-3.2-4.5-8.7-6.2-14.3-6.1c-5.9,0.1-8.5,4.1-9.5,8.6c-3.5,1.9-5,8.8-3.8,11.3
			c-2-0.1-3.9,1.7-4.7,2.8c-2.7-1.3-6.5-2.2-9.3-2.3 M335.8,287.1c-1-3.4,0.6-6.3,1.5-9c2.2-6.7,1.1-8.5-5-7.8
			C331.7,273.6,334.4,284.2,335.8,287.1z"/>
		<path class="st2" d="M332,270.7c1.5,1.6,6.9,2.5,7.7-2.4c0.9-5.6-1.3-7.8-6.3-5.8C332.9,263.8,332.3,269.1,332,270.7L332,270.7z"
			/>
		<path class="st2" d="M333.5,262.3c2,0.9,6.4,2.7,9-1.9c2.2-3.9-0.4-7.1-4.6-7C336.8,254.5,334.6,258.6,333.5,262.3z"/>
		<path class="st2" d="M337.6,253c0.5,1.6,5.6,6.9,9.5,3.3c4-3.6,4.2-9.1-1.5-11.4C344.1,245.1,339.2,250.4,337.6,253L337.6,253z"/>
		<path class="st2" d="M345.6,244.9c1,3.3,4.4,8.9,11.2,6.6c6.8-2.3,4.3-10.8,1.2-12.6C356.3,239,348.8,242.1,345.6,244.9
			L345.6,244.9z"/>
		<path class="st2" d="M358.1,238.9c-0.6,2.8-0.4,10.6,8.8,10.8c9.1,0.2,7-10.6,4.7-12.2C367.8,237.3,361.5,237.3,358.1,238.9z"/>
		<path class="st2" d="M371.9,237.9c-1.1,2.2-3.9,16.5,14.1,13.1C388.3,250.6,394.8,237.5,371.9,237.9L371.9,237.9z"/>
		<path class="st2" d="M381.6,239.5c-1.9,1.7,2.2,16.4,14.4,14.4C408.2,251.9,398.6,237.8,381.6,239.5z"/>
		<path class="st2" d="M391.8,242.1c-2.1,3.9,0.4,15.9,15.3,16.4C420.7,259,407,242.9,391.8,242.1z"/>
		<path class="st2" d="M403.4,246c-1,2.2-2.7,14.7,14.9,16.4C431,263.6,428.6,245.5,403.4,246L403.4,246z"/>
		<path class="st2" d="M422.2,251.9c-2.3,3.8-5,13.4,14.3,14.8C448.8,267.7,441.7,252.9,422.2,251.9z"/>
		<path class="st2" d="M438.1,255.5c-3,3.8-1.2,11.4,6,13.1c8.9,2.1,10.5-6.3,4.5-10.7C442.6,253.6,438.1,255.5,438.1,255.5
			L438.1,255.5z"/>
		<path class="st2" d="M446.8,257.6c-2.2,3.5-1.2,12.3,12.4,12.8C462.1,270.5,473.3,259.8,446.8,257.6z M335.2,421.6
			c11.1,0.4,20.3-8.2,20.7-19.3c0.4-11.1-8.2-20.3-19.3-20.7c-11.1-0.4-20.3,8.2-20.7,19.3C315.5,411.9,324.1,421.2,335.2,421.6z"/>
		<path class="st2" d="M492.4,135.8c-1.6,1.5-5,6-5.7,7.8c-7.4,19.8,9.9,35.5,19.6,57.4c7.6,17.3,5.6,44-7.8,60.5
			c-4.6,5.7-3.4,7.4-9.2,13.1c-2.3,2.2-4.8,5-4.3,13.2c3.7-1.2,8.7,2.4,9.6,5.2c2.6-1.2,6.2-0.6,7.4,1c4.4-1.9,8-0.7,11.7,3.5
			c3.4-0.4,7,0.2,10.2,4c1.9-3.5,5.6-4.7,8.1-3.8c-0.1-4.6,4.7-7.8,8.7-5.9c-1.1-6.2,4.8-10.7,10.1-8.7c4.8-3.4,14-3.4,18.5,2.2
			c-8.2-2.6-8.2,6.2-15.1,5.1c1.6,5.2-3.1,8-7.8,9.5c3-1.3,6.3-2.9,7.3-1c2.7-2.2,7.8-1.1,9,0.1c3.4-1,6.7,0,8.1,4.2
			c4.5,3,7.4,10.3,3.8,15.6c-0.8-5.7-4.7-5.6-6.2-8c-3.7,1.2-7.3,1-8.2-1.3c-2.1,2-9.1,3.5-12.1,0.3c-1.3,4.6-5.5,8.3-10.1,8.1
			c1.2,3.6-2.7,9.7-5.6,12.7c4.3,2.5,2.8,7.6,1.7,10.6c6.7,1.3,0.8,7,12.2,11.3c-5.7,1.6-16.7-0.6-18-7.6c-5.7-0.5-9.3-6.3-8.8-12.2
			c-4.2-4.3-4.7-10.2,1.5-14.1c-5.2,1.4-7.7-7-15.3-3.9c-3.8,1.5-13.5-1.6-13.2-5.1c-1.6,2.5-11,1.2-12.1-3.3
			c-3.1,1.6-10.3-1.5-10-5.8c-4.1,1.7-9.3-1.8-8.9-5.9c-3.7-0.6-4-4-3.6-6.8c-3.3-1.7-2.3-4.8-0.9-8.7c-2.2-2.7-1.1-6.2,0.9-9.5
			c-2.5-2.7-1.9-5.7-1-9.3c-12.3-1.5-27.7-5-62.8-17.2c-52.9-18.4-68.7,19.7-57.8,44.3c12.7,28.4-2.8,33.9,1.1,54.9
			c4.9,1.2,7.3,5.4,6.9,9.8c2.9,0.2,4.9,3,3.6,8.1c2.5-0.4,5.6,0.5,7.6,2.6c1.9-3.3,7.9-3.8,10.8,0.1c6.7-0.3,9.9,5.2,9.4,11.9
			c3.4,6.6,1.8,14.4-2.2,19.2c0.5-2.7,0.2-6.6,0.2-8.9c-0.1-4.3-6-5.4-5.2-8.8c-3.1,0.1-6-1.6-6.9-4c-1.9,1.5-4.4,1.9-6.6,1.1
			c3.4,1.7,5.9,7.9,4.7,12c1.7,3.2,1.1,8.8-1.2,11.2c-1.2,5-5.1,6.6-10.1,4.3c2.9-1.7,4-4.9,4-7.6c-1.7-1.6-2.5-4.6-2.6-6.4
			c-5,0.6-11.8-3.9-13.1-5.6c-11.1-0.4-20.3,8.2-20.7,19.3c-0.4-4.1-5.4-8.4-4.7-11.8c-2.7-9.6,1.9-18.4,14.6-19.7
			c-1.4-3.7,4.1-7.2,2.2-11.4c-2.4-5.4-7-12.4-14-20.6c4.6-7.3,3.7-17.4,1.4-23.7c-3.4-9-7-7-20.6,7c-22.2,22.7-50.5,15.2-76.3,29.7
			c-6.8,3.9-13.6,5.2-6.1-1.8c7.5-7,26.8-13.5,39.3-19.2c23.6-10.7,43.8-29.4,52.9-66.7c21.3-87.7,87.1-56.2,128.7-38.2
			c39.1,16.9,33.1-18.4,13.8-40.2c-23.2-26.2-17.7-46-5.8-61.5C461.8,120.7,500.5,129.2,492.4,135.8L492.4,135.8z"/>
		<path class="st2" d="M556.3,355.3c12.2,0.4,22.4-9.1,22.8-21.2c0.4-12.2-9.1-22.4-21.2-22.8c-12.2-0.4-22.4,9.1-22.8,21.2
			C534.7,344.6,544.2,354.8,556.3,355.3z"/>
	</g>
	<g>
		<path class="st3" d="M480,136.3c-5.7,21.4-1.9,31.4,5,41.2c14.2,20.2,24.5,65.6,6.4,94.3"/>
		<g>
			<path class="st4" d="M501.9,246.8c2.1-0.7,6-3,7.1-7.2 M503.7,237.4c0.8-3.7,6.6-5.1,6.9-9.1 M504.4,222.9
				c-0.2-3.9,6.1-7.1,5.3-11 M501.5,208.9c-0.4-2.2,5.4-6.1,4-9.7 M497.8,195.2c-1.1-2.5,2.9-5.2,1.3-7.8 M492,184.2
				c-0.3-1.7,2.2-5.3,1-7.5 M486.3,171.2c0.5-0.6,2.7-2.1,1.9-4.1 M482.3,161.7c0.9-0.4,3.4-1.1,3.1-3"/>
			<path class="st5" d="M344.8,399.8c-5.1-2-11.6,0.4-13.1,4.7 M335.5,408.6c0.8-4.4,7.6-6,9.5-3.9c-4.2-2.5-6.5,5.7-2.8,6.1
				 M380.6,308.3c-3.1,1.4-4.2,7.1-0.4,11.5 M385.2,309.7c-2.3,1.7-2.3,7.1,0.9,8.5c-2.6-2,0.2-5.3,2.1-5.3c1.9-0.1,3.1,2.3,0.7,4.5
				 M565.5,329c-7.1-2.2-13.2,6-6.9,13.7c0.1-7.2,5.4-11.8,11.7-10.3 M567.2,337.2c-1.8-0.1-2.8,1.3-2.9,2.6
				c-0.1,1.4,1.1,2.8,3.1,2.9c1.3,0,2.4-1.4,2.4-2.6 M598.3,180.1c1,4.4,7,6.4,11.8,5.6 M610.2,182.9c-3.7,0-6.7-3.6-6.3-6.5
				c-0.1,2.2,4.9,3.4,6.5,2"/>
			<path class="st4" d="M349.5,320.7c-0.9-2.6,3.3-5,3.5-7.5c0.2-2.4,4.8-4.2,9.3,0.6 M361,286.3c-0.9,0.4-1.7,0.8-2.5,1.1
				 M369.4,300.7c-1.1,0-3.3-0.2-4.5-1.1 M364.7,305.4c-0.9,0.4-2.9,1.1-4.1,1.3 M317.8,381.6c-0.2,2.3,2,5.7,3.2,6.8 M328,376.4
				c-1.4,1.9-2.2,5.2-1.6,7.5 M346.9,384.8c-2.3-1.6-0.6-5.6-0.7-8.1c-0.2-2.6,2.9-6.6,8.6-2.9 M325.8,369.4
				c2.3-0.3,4.8-0.1,6.3,0.6 M355.4,363.1c-1.1,1.4-1.4,2.9-1.6,3.9 M366.2,363.2c-1.8-0.1-3.4,1.2-4.2,2.4 M343.6,296.4
				c2,0.8,7.3,4.3,7.3,7.7 M366.1,280.5c-6.3-0.4-8.5-6.9-3.8-6.7 M377.1,289.5c-2.5,0.9-1.5,5.2,1.9,7.4 M360.6,329.4
				c-1.2-1.6,0.6-6,4.5-4.5 M368.3,376.7c0.4-3.9,5.4-6.1,7.3-1.5 M349.7,387.2c-0.2-4.3,2.1-5.7,4-5.8c1.9-0.2,4.6,1.5,5.8,4.4
				 M311.2,389.1c0.4-2.6,2.6-5.2,4.9-4.7 M550.8,283.2c-1.7,1.2-3,6.6,3.3,7.3 M540.7,291.9c0,0.6,0.8,1.6,1.3,2 M570.7,303.2
				c-1.6-1.3-6.1,3.7-2.3,7.6 M528.2,345c-0.8-3.7,2.6-4.5,5.8-3.7 M520.9,318.7c2-1.2,4-2.6,6.4-3.1 M519.4,332.8
				c0.1-3.1,1.7-5.6,3.2-6.3 M532,297.7c-0.4,3.7,1,7.4,2.1,9.4 M562.6,299.1c-1.9,0.5-3.6,1.2-4.3,2.7 M560.2,309.6
				c0.9-0.7,2-1.6,2.5-2.2 M612.8,199c-0.1,3.6-4.7,5.4-7.6,3 M622.6,199.4c1.9,1.6,8.9,0.4,7.4-3.7 M613.5,219.9
				c-1.4-0.3-3.8-1.9-4.8-3.3 M628.1,209.7c-2.3,0.4-3.9-0.1-5-0.7 M591,221.2c1.3,0,4.4-0.4,6.6-1.4 M588,198.3
				c-1.7-0.3-2.9,0-3.9,0.6 M613.7,205.6c-0.5,1.6-1.8,4.1-3.2,5.1"/>
			<path class="st5" d="M583.2,210.1c3.3-1.3,6.9,9.8,14.7,6.2 M599,205c-1.1,1.4-1.8,3.5-2,5.5"/>
		</g>
		<path class="st3" d="M445.6,182.8c1-0.1,2.8-0.4,3.3-1.7 M308.9,297.9c3.8,2.3,6.4,6.2,4.5,11.6 M490.6,172.5c1.1,0.8,5.5,1,8,0.2
			 M501.6,175.5c-0.2,1.8,0.1,8.6-3.4,9.9 M499.4,184.6c3.2,1.1,9.6,1,11.9-4.9 M506.7,184.6c1.6,2.6,1.9,7.7-3.2,10.2 M507.8,188.9
			c3.7,1.4,12.3,1.9,11.7-5.5 M516.3,189.2c2.4,3.7,13.6,8.3,12.1,0.8 M505.5,199.2c4.3,1.2,10.6-1.6,8.3-9.4 M526,194.2
			c0.5,3,14.8,6.6,13.2-0.2 M536.3,197.8c2.5,6.3,16.8,6.3,12.6-2.1 M546.4,202c2.7,3.6,15.4,2,10.7-6.6 M556.7,202.2
			c7.6,6.2,17.1-2,7.4-8.5 M568.3,200.7c6.8,5.8,15.6-4,9.7-7 M513.4,196.4c2.2,0.7,6.8,0.6,8-3.3 M519.6,195.7
			c-0.5,5.8,9.3,8.5,12,1.8 M528.2,201.1c1.7,3.9,10.2,5.8,11.8,0.3 M538.6,203.9c1.3,3.9,8.8,3.8,11-0.1 M546.7,206.3
			c2.1,5.1,11.7,5.4,14.1-1.8 M559.1,207.6c3.6,2.5,11.7,1.8,11.3-5.4 M568.6,207.3c5.4,4.7,13.4,0.6,9.8-7.1 M577.5,213.5
			c3-0.4,4.7-6.3,1.7-7.9 M508.9,212.1c6.3-3.1,7.7-8.7,3.6-14.4 M514.4,206.6c3.8,2.5,11.2,0.3,12.7-5.3 M519.6,207.5
			c2.1,2.9,2.3,6.4-0.6,9.5 M521.3,211.1c7-4,15.2,4.2,8.7,8.7 M529.2,211c1.6-0.3,4.4-3.1,4.7-6.3 M532.1,214.1
			c2.9-2.9,22,3.9,9.6,9.6 M541.4,206.3c3.7,1.5,5.4,6.9-0.3,8.5 M545.9,219.4c4.3-4.1,17-0.9,12.2,4.3 M555.2,218
			c2.6-7.8,16.2-2.4,11.6,0.7 M552.7,210.1c0.3,1.6,0.3,5.4-2.3,7.4 M564.3,208.9c0.5,1.3,0.3,3.7-1,5.2 M573,209.4
			c0.7,1.4,1.9,4.2-1,6.3 M465,146.2c-0.1,7.3,2.3,12.3,12.3,8 M467.8,155.1c-5.1,6.4,0.2,13.7,10.1,6.9 M452.6,157.8
			c6.4,7.4,18.6,2.6,11.3-8.6 M471.4,164.6c-1.5,7,4.2,8.7,9.1,5.6 M446.6,158.7c1,7.2,8,13,15.3,8.9 M455,168.8
			c-0.4,10.2,13.6,11.8,17.2,1.4 M467,176.5c4.2,9.4,14.1,6,17.5,0.5 M457.6,161.3c1.6,4.6,5.1,9.7,13.6,6.3 M432,158.2
			c1,3.8,7.6,8.5,15.5,3.6 M436.5,163.1c-4.3,5.9,3.7,11.9,13.9,3.2 M441.2,170.8c1.4,8.6,4.5,15.5,17,5 M451.9,179.9
			c4.2,5.6,10.8,9.1,17.4,0.2"/>
		<path class="st3" d="M473.9,182.3c-0.6,6.4,0.6,9.7,5.6,9.6c4-0.1,7.8-3.1,10.2-6.3 M478.6,191.8c-0.4,7.3,5.2,13.3,16.3,6.3
			 M482.8,200.6c-2.3,5.5,3.6,14.7,15.9,10.5 M457.7,185c-1,7.1,5.4,12,16.2,3.3 M462.5,193.1c0.2,5.8,6.5,13,16.5,3.3 M466.9,200.6
			c-1.1,9.9,7.9,13,15.9,5.7 M453.4,192.7c2.1,0.2,3.8-1.5,4.9-2.8 M457.5,200.1c1.8,0.5,4.9-1.1,6-3.1 M461.6,212c2,2.3,9,1,10-2
			 M469.3,212.1c3.5,9.1,13.8,9.1,18.5-0.9 M485.7,214.8c1.7,5.3,6.5,8.9,14.6,7.4 M489.4,220.3c-4.8,7.2,0.8,16,11.2,7.9
			 M491.5,231.3c-0.7,4.6,3.4,10,9.1,10.9 M472.9,217.1c-1.9,10.4,5.4,15.7,15,10.5 M461.8,221.8c2.4,2,6.7,2.4,10.9,1 M477.5,229
			c-2.6,8.7,6.2,15.3,14.2,5.8 M465.2,223.3c0,4.5,4.2,9.6,11.8,8.4 M497.9,241.5c-5.3,3.3-6.5,9.4,0.5,13.7 M485.4,239.2
			c0.1,5.3,2.4,8.3,8.2,9.1 M477.9,236.3c-8,6.8-0.7,15.3,8.7,8.7 M482.9,247c-2.9,8,6.6,13.3,12.1,5.2 M467.6,229.2
			c-3.1,7.9,0.3,13.3,6.9,13 M457.4,227.3c0.2,4.8,4.3,6.6,8.9,5.7 M460.2,232.4c-3.7,6.6,1.4,10.4,8.5,8 M489.3,256.1
			c-1.3,4.2-0.8,7.3,5.5,9 M489.4,262.2c-7.7,3.2-8.6,10.5-2.9,15.5 M483.6,253.8c-4.1,3.5-3.6,9.7,0.7,12.3 M450.7,229.1
			c-4.5,4.2-0.8,16.2,9.1,10.1 M475.2,245.1c-6.1,4.7-3.7,13.7,6.2,11.6 M465.6,241c-3.4,8.6-0.6,11.8,6.4,12.2"/>
		<path class="st3" d="M444.3,228.5c-5.4,3.8-4.2,9.5-2,12.2c2.2,2.7,6.6,1.7,8.2-1.6 M433.3,224.6c-6.2,7.4-0.6,16.6,7.9,14.2
			 M464.2,248.3c-6.1,2-10.9,7.3-7.4,12.2c2.1,2.9,11.6,3.6,14.7-7.2 M453.5,240.8c-3.7,4.9-2.7,9.7,3.7,12.4 M452.8,250.2
			c-3.8,1.9-6.3,4.3-5.6,8.8 M444.7,242c-1.6,6-0.1,9.8,3.6,11.7 M444.3,249.2c-5.8-0.6-8.8,1.7-7.1,7.5 M437.9,250.4
			c-5.6-2.3-6.3-7.2-3.7-12.2 M433.2,245.7c-6.2,0-9,3-9.2,7.3"/>
		<path class="st3" d="M425.7,221.4c-4.6,1.8-6.2,7.8-4.7,11.2c1.6,3.4,6.8,3.9,10.1,1.8 M413.3,216.2c-4.3,4.5,0.2,13.7,7.6,11.7
			 M402.8,212.2c-4.1,5.3-0.1,14.4,9.9,12.2 M412.3,249.5c-0.8-6.5,6-10.5,14-1.8 M422.8,234.6c-2.5,2.1-3.8,5.5-3.5,8.4
			 M392.4,208.7c-4.5,7.1,0.4,13.8,9.6,11.6 M415.6,227.5c-6.3,5.8-4.4,12,0,15.6 M411.4,234.4c-9.1-0.2-10,10.3-2.7,14
			 M404.9,223.6c-3.8,2.4-5.2,9.5,1.1,12.5 M404.1,239.4c-3.8-1.9-8.5,0.1-8.3,4.6 M398.3,239.3c-3.2-8.4-13.4-7.3-12.8,1.2
			 M401.4,229.3c-2.2,0.3-6.6,1.4-8.4,4.7 M394.2,219.7c-4.3,4.5-1.3,10.1,2,11.4 M382.4,206.3c-1,5.5,1.1,8.3,8.1,8 M384.6,213.5
			c-2.9,6.6,0.6,9.7,7.5,9.5 M385.9,221.8c-4.3,4.7-1.7,10.1,2.3,12.5 M383.7,227.9c-7.3-1.2-8.8,7.3-6.5,11.4"/>
		<path class="st3" d="M378.6,205.5c-4.6,1.8-7.3,7.3-5,10.9c2.3,3.6,7.3,2.6,10,0.9 M375,218c-3.9,5.5-0.7,9.9,3.2,11.7"/>
		<path class="st3" d="M361.1,204.2c-3.1,3-1.5,9.4,5.7,9.7c5.8,0.3,8.9-5.1,7.3-9 M365.8,213.9c-2.5,5.1-1.3,10.6,7.5,10.1
			 M376.7,232.3c-5.3-2.6-12.6-0.5-9.8,6.1 M366.8,222.7c-2.3,3-1.7,7.4,0.7,10.2 M366.1,231c-3.6,0.5-7.2,2.3-5.2,8.1 M360.5,234.4
			c-4.6-1.6-10.6,1.6-7.2,6.4 M352.7,236.3c-4-0.8-8.9,3.3-5.2,7.7 M346.2,240.4c-3.6,0.8-8,4.7-4.4,8.1 M365,220.9
			c-5.2,2.1-6,7.9-3.7,12.2 M360,210c-7.8,2.7-8.1,13,0.3,16.5 M356.8,224.1c-4.7,2.5-5.8,7.7-2.8,11.1 M349.3,205.8
			c-3.1,0.9-3.2,10.5,5,10.5 M340.7,208.7c-6.3,3.9,0.8,14.6,11.1,7.5 M346.2,218.5c-1.1,4.2-0.1,8.9,6.7,9.6 M346.3,224.2
			c-5,1.6-6.2,11.6,2.6,12.7 M331.1,214.5c-6.5,5.6,4.8,11,9.3,2.8 M322,223.9c-3.2,3.6,7.2,13.8,12.6-2.4 M335.8,221.3
			c0.1,3.9,2.4,6.3,7.1,6.7 M342.6,231.7c-7.6,0.9-10.4,10.3-2,12.7 M328.6,229.9c-0.4,3.6,3.2,6.7,7.5,6.2 M339.7,244.1
			c-7,1.3-8.2,10.3-2,10 M334.2,262.3c-5.7-1.9-5.6-8.8-0.4-11.2"/>
		<path class="st3" d="M329.6,256.1c-5,2.8-3.3,9.9-0.8,11.1c2.5,1.1,4.6-0.1,5-2.3 M333.1,274.8c0.4,3.4-12,1.6-5.2-8.6
			 M327.4,275.1c-4.4,6.4,2.2,12,6.7,6.6 M327.7,283.1c-1.9,5.2,4.4,9.2,8.6,5.3 M315.6,233.2c-2.5,4.7,9,6.9,10.2-2.9 M312.1,240.1
			c-2.6,9.2,14.9,7.9,10.8-4.3 M323.2,242.1c2.4,1.5,9.7,1.9,11.8-5.9 M329.5,242.5c0.4,2.5,2.5,5.5,4.5,6.5 M321,244.7
			c-1,5,3.9,9.3,9.7,9.1 M321.7,249.6c-3,3.8-4.1,11.2,4.7,12 M308.2,250.4c-1.6,3.9,6.7,8.4,11.8,2 M305.2,260.5
			c-0.8,3,6.6,7.3,11.3-5.4 M312.9,261.5c1.7,3.3,7.6,6.1,11.6-0.1 M318.3,265.1c-1.7,4.4,2.4,8.8,7.6,7.7 M308.7,263.7
			c-1.3,6.4,6.1,10.4,10.8,7.2 M303.7,266.4c-2.5,8.2,8,11.6,12.2,5.6 M313.1,274.3c0.2,4.6,7.3,8.9,13.1,5.2 M300.1,277.7
			c-0.6,2,8,4.4,9.5-2.8 M305.1,279.7c1.9,5.4,8.8,6.9,13,0.6 M315.6,282.8c0.7,4.9,6.9,7.9,12.6,4.7 M330.5,289.5
			c-1.7,6.5,5,12,9.4,8.6 M319.6,287.9c-2.3,7.1,6.5,11.6,11.7,7.8 M308.9,283.9c-0.8,6.7,4.4,10.9,10.5,8.1 M297.4,284.2
			c-2,4.3,7.4,8.3,12.1,4.7 M291.1,295.9c2.3,2.9,10.9,0.4,11.9-5.9 M300.5,294.6c3,3.7,10.2,5.9,13.5-1.7 M311.3,296.8
			c-0.3,5.5,9.4,9.9,13-0.2 M335.9,299c-1,2.7,1,7.1,5.4,7.7 M327.8,297.1c-0.8,3.1,3.6,7.5,8.4,6 M337,304.4
			c-1.4,3.3-0.5,8.2,4,8.3 M337.3,310.6c-3.4,2.7-2.2,7.8,2.6,8.1 M335.4,315.3c-4.9,3-3.5,10.2,2.9,10 M321.4,301.2
			c-0.2,6.9,8.3,8.3,10.2,1.9 M328.2,307.1c-1.4,4.1,1.8,8.2,7.1,7.2 M327.4,356.8c1.1,1.7,6-0.9,4.8-3.8c-1.2-2.9-6.3-1.5-5.9,1.5
			 M331.1,351.8c0.8-5.6-5.8-6.8-7.7-1.9 M326,347.1c1.8-2.8-3.7-6.8-6.2-2.8 M321.9,342.7c1.7-4.1-4.7-6.1-5.3-2.4 M315.3,334.8
			c0.8-2,8-0.5,4.8,3.6 M325.4,343.8c2.9-2.5-1.6-7.9-4.7-6.1 M344.2,352.4c-2.3,0.2-4.6,1.6-3.1,6.4c1,3.3,6,3.7,6.8,1.7"/>
		<path class="st3" d="M340.8,354.6c-2.1-1.5-7,0.7-5,5.4c1.5,3.5,5.7,2.3,6.4,0.5 M328.3,360.8c1,2,6.5,1.3,7.6-0.8 M332.3,354.6
			c1.2-0.7,3.3,0.3,3.7,1.3 M333,322.8c-3.8,2.3-1.8,9.9,4.1,8.1 M331.6,328.8c-3,2.2-0.6,9.5,5,7 M332.3,335.7
			c-2.1,2-0.3,7.8,5,6.9 M331.4,338.5c-1.1-0.6-4.2-0.3-5.5,1.6 M329,312.3c-2.9,2.6-1.8,8.2,3.5,8.8 M327.8,317.9
			c-4.1,1.9-4.4,9.9,3.7,10.5 M327.1,327c-2.3,1.7-1.5,8.7,4.4,8 M328.7,334.7c-0.9,0.8-1.1,2.9-0.4,3.9 M326.3,331.9
			c-2.1,0-4.8,1.4-5.6,3.5 M317.2,327.8c0.8-2,7.2-1.7,7.4,4.4 M325.5,325c-0.9,0.2-2.7,0.9-3.2,2.7 M323.4,306.1
			c-2.9,2.4-4.5,10.3,3.9,12.1 M317.3,322.2c0.1-2.1,5.9-3.7,7.7-0.5 M314,310.5c0.8,1.6,4.7,4,7.2,2.3 M293.7,297.2
			c-0.3,3.7,2.7,7.2,7,6.8c4.3-0.4,5.3-4.1,4.1-6.6 M301.3,304.2c-3,3.4,0.3,8.4,3.6,7.1 M304.7,301.8c1.7-0.6,7.3-1.2,8.8,1.5
			 M286.7,302.2c-1.4,1.9,6.6,4.1,9.4,0.5 M293.3,304.5c-0.4,2.6,0.8,7,7.4,5.4"/>
		<path class="st3" d="M301.6,314c1.1-2.2-3.7-5.9-7.5-2.1c-3.9,3.9,0.2,8.5,2.6,7 M284.8,304.7c-2.1,3.3,5.2,9.7,9.6,4.1"/>
		<path class="st3" d="M279.7,310.4c-2.8,2.7,0.4,7.9,4.5,6.5c4.1-1.4,3.9-5.7,2.9-6.8"/>
		<path class="st3" d="M274.3,315.3c-2.3,1.9-0.3,6.7,2.7,6.8c3,0.1,5-2.2,4.5-5.2 M286.6,315.4c-0.5,2.9,3.8,5.2,6.7,2.5
			 M293.6,312.5c0.4-0.6,0.1-1.7-0.5-2.3 M269.4,319.1c-2.6,1.9,2.6,7.6,6.2,2.7 M288.8,318.7c-1.7,1.5,0.8,5.6,3.4,4.5
			 M279.9,321.2c0.3,2.8,5.6,5,9.2,0.9 M282.8,324.1c-0.9,1.7,0.7,4.5,2.7,4.2 M333.4,341.9c-2.1,3.9,4.1,8.7,8.9,4.1 M337.9,347.9
			c-1,2.1,0,5.1,1.7,6.2 M331.7,352.1c0.5-1.9,3.4-3.6,5.8-2.6 M328.5,346.9c0.4-1.7,2.8-3.4,4.5-2.9 M482.9,272
			c-9.1-0.2-5.8,14.6,2.2,11.9 M479.6,282.7c-1.9,2.9,1.4,7.7,5.4,5.1 M483.9,288.3c-2.9,4.4,6.5,11.6,10.7,4.7 M491.3,295.6
			c0,4.3,12.2,7.4,10.7-1.2 M500.8,299.1c2.8,5.1,13.8,6,12.9-1.5 M511.1,302.7c2.2,3.4,12.9,5.9,12.8-1.1 M468.7,258.7
			c1.4,4,6.6,5.6,12.5,3.5 M465.2,261.5c3.5,2.4-2.1,12.8-7.5,8.4 M465,268c3.9,2.1,8.9,0.8,10.5-4.8 M472.9,267.5
			c0.3,3,4.4,5.4,10,4.5 M462.9,270.3c5,4.6-2.8,13.3-6,9.1 M464.7,273.7c2.4,1.9,8.7,1.1,9.5-3.7 M471.2,273.9
			c0.4,3.1,2.8,4.4,6.3,4.6 M463.1,277.9c2.4,3.7,8.8,5,11.8,0.3 M472,280.8c-0.4,3.5,3.4,6.4,7.4,5.8 M457.7,288
			c3.3,1.8,7.1-4.4,4.4-8.9 M461.3,294.8c4,0.4,4.7-5.6,1.1-9.1 M470.3,300.7c3.4-0.7,2.6-8-5.5-9 M480.3,306.5c3.3-0.8,1-9-7.9-8.8
			 M492.4,309.7c2.3-3.3-4.7-9.2-10.7-6.4 M498.3,314.6c3.9,1.3,7-9.2-5.6-7.9 M505.6,314.8c3.5-0.8,6.2-7-4.1-5.3 M513.3,315.6
			c3,1.7,4.8-7.3-4.7-5.2 M462.4,285.7c3.8,2.3,9.9,0,9.6-4.9 M470.3,285c1.2,2.4,0.5,6.8-2,7.9 M470.5,290.4c2.5,1.1,6,0.3,8.3-3.7
			 M475,290.5c0.7,1.8,0.8,5.4-0.9,7.2 M475.6,293.7c2.8,1.6,6.2-0.3,7.7-3.2 M481.4,293c2,1.4,3.6,7.5,0,9.8 M483.5,300
			c2.4,0.2,6,0.3,8.5-2.7 M490.2,298.9c2.2,0.7,4.6,4.4,3.6,7.6 M494,305.4c2.5-0.2,6.8-1.7,8-4.6 M500.8,302.7c2,1.2,3.3,3.7,3,6.6
			 M503.8,307.2c2.5,0,4.7-1.2,5.4-3.9 M508.5,305c1.8,0.7,3.9,2.8,3.9,5.3 M512.3,308.8c1.8-0.2,3.1-1.3,4.4-3.1 M521.5,305.6
			c2.2,2.4-1.1,10-5.8,8.4 M477.7,147.9c-4.9,2.7-18.3,1.3-11.3-9.7 M479.2,140.3c-9.5,3.4-20.9-4.2-8.5-11.6 M467.6,126
			c-7.9-0.3-13.6,12.1-3.2,16.9 M437,130.2c-2.2,3.9,5,8.6,10.1,4.7c4-3,4-11.3,1.8-14.6 M432.6,139.5c-2.9,8.4,16,9.6,13.5-4
			 M431.1,152.1c0.4,6.5,18,5,12.8-8.2 M446.1,140.4c1.3,2,5.1,5.5,11.7,5.1 M449.5,131.4c0.5,2.3,4.4,4.3,9.4,2.7 M266.9,320.9
			c-4.6,3,2.1,8.2,4.8,2.8 M263.4,323.2c-4.6,3,2.1,8.2,4.8,2.8 M259.6,325.5c-4.6,3,2.1,8.2,4.8,2.8 M255.7,327.5
			c-4.3,2.1,0.4,7.8,4.9,3.1 M251.4,329.5c-4.3,2.1,0.4,7.8,4.9,3.1 M273.2,323.6c-0.2,3.3,6,4.9,8.4,0 M277,326.8
			c-2,2.4,1.4,5.5,3.4,4.5 M268.7,326.1c-0.3,2.8,5.1,4.6,7.8,1.6 M271.6,329.1c-1.8,2.2,1.5,5.3,3.7,4.5 M265,328.4
			c0.1,2.2,3.1,4.8,6.5,3.5 M266.9,331.5c-1.3,1.1-0.8,3.8,1,4.7 M260.2,331c-0.6,2,2.7,5.6,6.3,3.4 M260.9,333.4
			c-2.1,1.5-1.9,4,0.7,4.4 M255.9,333c-0.3,1.3,1.4,3.6,3.6,3.4 M244.9,332.4c-2.1,1,3,6.8,6.4,1.7 M239.8,334.6
			c-2.6,1.1,3.5,7.5,6.6,1.3 M256.4,334.9c-2,0.4-3.4,3.2-1.8,4.4 M249.9,335.7c-0.3,1.2,2.1,3.2,4.1,2.5 M248.2,336.2
			c-2,1.2-1.1,4.6,1.2,4.2 M241.2,338.2c-1.9,1.3-0.7,4,1.8,3.5 M244.5,338.1c0,0.7,1.6,1.9,3,1.5 M235,336.6
			c-2.3,0.9-2.4,6.6,5.3,3.7 M229.9,338.7c-3.2,1.4-2.3,5.7,4.7,1.9 M235.1,340.9c-0.9,0.6-1.9,3.4,1.3,2.4 M229.3,342.1
			c-1.3,1.1-0.6,3.5,2.3,2.7 M222.7,342.2c-2.4,1.3,2.7,3.3,6.2-0.2 M224.1,343.9c-1.1,1-1.2,4,1.6,3 M217.5,344.9
			c-1.6,1.1,1,2.7,5.9,0.8 M219.4,346.7c-1.9,1.4-1.7,3.3,0.9,2.8 M214,347.3c-2.1,1.7,0.8,3.1,4.3,1.7 M214,349.3
			c-3.5,1.4-2.1,4.3,0.1,3.3 M327.6,363.2c-0.9,1.7,1.7,3.2,4.2,2.9c2.4-0.3,4.7-2.1,3-4.9 M334.7,364.5c2.3,1.9,6.4,0,6.5-2.7"/>
	</g>
	<g>
		<path class="st2" d="M486.5,96.9c-10.1-5.5-31.1-15.8-37.5-8.3c5.6-2.1,21.7,0.9,34.7,13.7C483.7,102.3,486.5,96.9,486.5,96.9z"/>
		<path class="st2" d="M492.7,96.6c-11.4-14.3-18.5-11.4-26.9-16.5c-7.9-4.8-20.7-6.2-23.4,0.9c12-5.3,22.4,3.9,29,5.2
			c9,1.8,13.9,9,16.5,12.3L492.7,96.6L492.7,96.6z M537.6,96.4C532,82,518.6,85.2,513,79c-8.2-9.1-29.4-17.9-38.5-12.2
			c19.6-0.3,27.4,14.5,37.7,19.9C519.6,90.6,527.3,98.6,537.6,96.4L537.6,96.4z"/>
		<path class="st2" d="M514.5,94c-10.1-13.5-25.9-25.7-33.5-21.6c9.8,0.9,12.6,7.8,19.4,12.4C507.2,89.5,503.9,95.7,514.5,94z
			 M463.5,115.4c-10.9-4.5-32.5-7.3-43,4.9C437.2,123.7,462.5,123.1,463.5,115.4z"/>
		<path class="st2" d="M461.3,120.2c-10.9-5.5-19.8,1.3-30.2,0c-19.7-2.6-33.9-2-36.1,7.5c11.7-9.8,30.4-0.7,38.2-2.5
			c7.8-1.8,36.3,1,45.2,5.2C474,124.5,466.9,122.7,461.3,120.2z M497.1,92c-2.3-8.6-1.8-17.6,10.9-16.5c-3.1-4.1-14.8-6.6-17.3,8.3
			C477,73,461.8,70.6,458.6,79.4c7.4-5.9,18.5-1,31.3,14.7C491.1,93.4,494.2,92.3,497.1,92L497.1,92z"/>
		<path class="st2" d="M477.4,103c-7.8-5.4-18.3-14.2,0.7-16.9c-8-4.7-19.9-3.2-19.1,11.8c-21.3-9.5-36.9-7.1-40.5,1.4
			c-3.9,9.4,9.3,15.2,11.8,9.2c-2.5,0.9-10.7-2.2-6.2-7.4c4.6-5.2,26.9-0.4,47.8,11.5C477.7,115.9,498,116.1,477.4,103L477.4,103z"
			/>
		<path class="st2" d="M471.2,117c-5.7-12.8-26.1-2.1-29.7-14.4C435.4,120.2,469.6,111.5,471.2,117z M597.7,135.1
			c4.1,2.2,7.9-0.9,1.5-3.7c4.1,2.2,7.9-0.8,1.6-3.6c4.1,2.2,7.9-0.8,1.6-3.6C600.6,125.8,598,132.1,597.7,135.1L597.7,135.1z
			 M600.8,111c9.6-9.4-0.3-13.2,11.4-22.8c9.6-7.9,2.3-13.6,11.3-19.7c2.9-2,9.2-5.9,9.9-10c3.4,9.4-12,10.1-11.5,25.1
			c0.3,9.5-6.1,8.5-9.1,24.4C612.1,111.4,609.5,118.8,600.8,111L600.8,111z"/>
		<path class="st2" d="M604.7,115.5c5.5-10.9,11.4-10.5,14.4-14.7c5.7-8,16.8,2,26.7-5c-2,10.4-14.9,6.2-20.8,12.7
			C619.2,115,614.5,118,604.7,115.5L604.7,115.5z"/>
		<path class="st2" d="M605.9,119.2c9.3-6.9,15.7-1.8,22.1-5.4c16-9,21.9,2.7,36.1-1.3c-4.1,8.9-24.5,0.4-33.7,6.8
			C621.1,125.7,589.2,131,605.9,119.2z M577.8,169.6c0-4.1-3.7-9.5-9-10.4c-5.4-0.8-7.5-6.6-11.6-7c-4.1-0.4-6.5-8.7-12.2-8.8
			c-5.7-0.1-8.2,7.2,4.8,14.3C562.8,164.9,577.2,173.2,577.8,169.6L577.8,169.6z M561,172.5c-5.7,0.1-6.7,8.3-12.2,8.3
			c7.3,4.3,12.9-1.3,17-6.4L561,172.5L561,172.5z"/>
		<path class="st2" d="M565.6,173.7c-5,3.9-6.8,12.5,0.2,15.2c-4-6,7.8-8.2,4.4-13.8L565.6,173.7L565.6,173.7z"/>
		<path class="st2" d="M570.4,174.1c-4.1,7.3,5.7,8.6,3,14.2c5.7-1.1,7-11.7,1.9-14.7L570.4,174.1L570.4,174.1z"/>
		<path class="st2" d="M533.2,156.8c9.3-0.2,17.6,5.1,23,13.5c3.4,5.3,15.4,7.8,19.7,3.8c4.3-4,2.3-12.8-8.1-10.3
			c-2.4-4.5-9.9-3.2-13.4-6.9C550.8,153,537.3,142.3,533.2,156.8L533.2,156.8z"/>
		<path class="st2" d="M567.7,163.7c-2.5,0.4-3.4,4.6-1.9,6.9 M572.9,166.5c0.7,1.3,0.1,3.1-0.3,4 M547.8,157.7
			c4.8,0.4,5.5,3.9,10.6,5.4"/>
		<path class="st2" d="M545.1,145.9c16.3,4.7,29.2,8.8,37.1,13.7c7.9,4.9,20.4,6.7,31.5,4c11.1-2.7,32.3-4.8,30.8,8.8
			c6-6.6-1.1-14.2-15.6-16c0.5-6.7-6.4-13-11.7-9.2c4.8-0.5,8.6,8.6-0.9,11.8c2.1-6.6-4.4-12.9-11.4-10.2c4.4,1.4,8.6,9-1.4,11.5
			c-6.3,1.6-15.4-1.1-22-5.4C574.7,150.6,537.2,134.3,545.1,145.9L545.1,145.9z"/>
		<path class="st2" d="M586.8,140.7c-5.2,2.1-2.1,7.7-10.2,10.5c-8.1,2.8-13.9,9.7-12.3,15.8c5.8-11.6,15.3-10.8,18.8-15.3
			C586.7,147.1,591.9,140.5,586.8,140.7z"/>
		<path class="st2" d="M588.2,141.5c-0.6,9.4-7.9,5.7-5.5,19c0.8,4.1,2.2,10.9-0.9,17.5c8.5-5.8,3.6-18.6,7.5-23.3
			c1.9-2.3,4.3-5.8,5.3-8.8c-2.1,5.3-2.4,15.4,2.8,18.1c-3.9-10.2,12.1-17.9,1.7-29.8C597.7,136.9,592.6,141.8,588.2,141.5
			L588.2,141.5z M562.3,131.2c1.2,2,2.3,6.9,1.1,9.6c2.6-1.5,6.5-5.3,7.8-8c5.2,1,7.1,7.6,2,10.3c3.1,0.1,8.4,0.3,11.4-3.1
			C581.1,135.8,570.1,129.3,562.3,131.2L562.3,131.2z"/>
		<path class="st2" d="M482.9,109.8c-0.8-0.8-2.2-1.6-4.7-2.2c-7.7-1.9-3.5-8.8,3.2-8.5c14.7-14.9,22.2-2.7,39.7-7
			c6.1-1.5,10.2-0.8,13.5,0.7c7.9-4.9,16.9-3.1,23.3,3.2c0.8-1.1,1.8-2,3.2-2.3c6.1-1.5,10.8,3.9,12.2,10.6c4.7-0.7,10,1.8,13.5,5.2
			c5-2.3,8.4-2.3,9.5,0.3c4.5-1.9,10.2-3,12.7,4.1c2.6,7.1-6.9,4.7-8.9,19.3c-1.3,9-11.5,12.2-19.3,6.5c-12.5-9.1-24.9-10.9-31.5,2
			c-6.6,12.9-11.8,20.4-26.6,15.5c-5.3-1.7-12.4,0.1-17,5.8c-4.6,5.8-11.1,0-19.1,0.3c10.1-1.2,6.3-3.8,15.1-4.1
			c8-0.2,6.2-7.8,11.4-8.6c-20.3,4.4-19.2-3-35.9,1.6c7.5-9,18.7-3.5,24.5-8.7c-14.9-0.8-21.2-10.8-28.1-6.9
			c-10.8,6.1-6.8,24.5-34.3,22c-13.4-1.3-21.9,0.2-30.2,7.9c14.9-28.3,33.3-11.8,42.7-20.6c5.6-5.2,9.9-9.2,12.9-14.2
			c1.1-1.8,2.4-2.8,4.1-3.1C446.2,120.5,460.5,109.8,482.9,109.8L482.9,109.8z"/>
		<path class="st2" d="M596.2,109.8c0.3,0.7,0.5,1.7,0.4,2.8c-0.2,5.7-8.7,5.6-9.5,14c-0.4,4.4-1,6.8-4,6.2
			c-2.9-0.6-5.3-5.3-2.3-10.6"/>
		<path class="st2" d="M487.5,101.6c-2.1-1.6-4.2-2.3-6.1-2.3 M534.5,92.8c6.7,3.2,9.8,10.4,19.7,11.1c9.5,0.7,14.9,14.7,31.2,6.3
			c0.4-0.2,0.9-0.4,1.3-0.6 M557.8,96.1c-1.5,2.2-1.9,5.4-1.6,8.1 M525.6,124.1c-12.1-0.4-15.4,5.6-15.6,11.6
			c-0.2,5.9,5.2,13.8,15.2,14.2c10,0.4,15.7-5.6,15.9-12.3C541.3,130.8,535.4,124.4,525.6,124.1L525.6,124.1z"/>
		<path class="st2" d="M526.8,149.6c-0.1-3.4-6.2-3.1-5.9-5.6c0.3-2.6,3.5-3.5,3.6-7.1s5.5-3.7,7.2-0.8c1.7,2.9,6.9,8.6,8.2,5.8
			 M531.8,136.1c-2.9,2.7-4.4,8.5-0.9,13.1 M535.6,140.6c-1,1.9-1.3,4.8-0.4,6.7"/>
		<path class="st3" d="M584,132.9c9.4,1.1,11.4-9.3,4.4-10.2 M573.3,104.4c-3.1-4.3-10.6-6-11.1,2.9"/>
		<path class="st2" d="M561,117.3c-2.9-8.1-11.1-9.5-15.6-5.7c-3.8,3.2-4.2,11.8,3.6,13.9C551.8,122.4,557.2,118.4,561,117.3
			L561,117.3z M557.6,112.2c-4.5-4.3-11.6,3.3-5.7,10.6 M468.8,128.5c3.1-0.6,7.6,1.1,14.4,4.6c4.3,2.2,17.3,7.1,25.7,3
			c-8.6,2.8-14.6-10.3-21.1-9c-6.5,1.3-18.4,3.3-23.1-1.6c12.1,1.2,18.9-8.1,32.4,0.6c3.8,2.5,8.6,4.2,13,4.1
			c-10.8-14-26.1-5.8-27.2-17c6.6,7.6,23.5-0.8,31.5,13.2 M485.3,115.4c-1.5-2-0.7-4-2.4-5.6"/>
	</g>
	<path d="M573.3,104.4c-2.7-3.1-9-1-7.5,5.2C567.3,106.8,570.3,104.5,573.3,104.4z M555.2,120.2c2-1.3,4.1-2.4,5.8-2.9
		c-0.8-2.3-2.1-4.1-3.6-5.4C555.9,110.9,551.5,116.4,555.2,120.2z"/>
	<g>
		<path class="st4" d="M548,109.5c-4.5-3.3-8.8-3.1-10.3-0.6c-3.3-0.2-6.2,2.1-6.5,7 M538.3,118.2c-5.4-4-13-2.9-12.8,5.7
			 M521.9,128.6c2.8-2.1,6.7-3.5,9.5,0.5 M563.6,121.7c-1.1,1.4-1.9,3.5-0.4,6.9c-2-2.8-7.1-3-12.9,4 M575.8,121.7
			c-6.7,0.5-6.7,4.9-1.4,7 M528.8,103.7c-5.6-1.4-9.9,1.8-2.1,5 M539.7,100.2c-7.9-2.2-11.2-0.3-7.7,1.7 M515.5,131.4
			c-0.4,2.8,1.1,6.6,5.8,2.5 M516.8,140c0,0.8-0.2,1.7-0.7,2.3 M499.6,101.6c-4.8-1.6-5.6-6.1,0.1-5.5 M497.5,112
			c-5.3-2-5.2-7.3-0.7-6.6 M507.7,109.6c-6.3-1.8-6.4-6.2-1.6-5.3 M508.9,96.3c-3.3-0.4-8.6,3.2-0.1,5.7 M518,104.1
			c-7.8-1.4-7.8,1.8-3.2,4 M524.2,96.8c-6-1.4-8.2,2.2-4.1,3.8 M504.4,118.4c-1.4-1.3-2.4-7.2,4.6-5.2 M519.1,117.1
			c-4.7-1.5-9.4,3-5.1,5.9 M525.6,111.8c-5-1.1-9.3,0.2-6.6,2.1"/>
	</g>
	<path class="st6" d="M573,104.4c-2.8,0.4-5.4,2-7.2,5.2"/>
</g>
</svg>
