<?xml version="1.0" encoding="utf-8"?>
<!-- Generator: Adobe Illustrator 20.0.0, SVG Export Plug-In . SVG Version: 6.00 Build 0)  -->
<!DOCTYPE svg PUBLIC "-//W3C//DTD SVG 1.1//EN" "http://www.w3.org/Graphics/SVG/1.1/DTD/svg11.dtd">
<svg version="1.1" id="Layer_1" xmlns="http://www.w3.org/2000/svg" xmlns:xlink="http://www.w3.org/1999/xlink" x="0px" y="0px"
	 viewBox="0 0 800 480" style="enable-background:new 0 0 800 480;" xml:space="preserve">
<style type="text/css">
	.st0{fill:#B20000;}
	.st1{fill:#429F00;}
	.st2{fill:#FFFFFF;}
</style>
<g>
	<g>
		<g transform="scale(.9376 .9375)">
			<path class="st0" d="M0,0h853.2v340.1H0V0z"/>
			<path class="st1" d="M0,340.1h853.2V512H0V340.1z"/>
			<path class="st2" d="M0,0h113.4v512H0V0z"/>
			<g>
				<path class="st0" d="M5.4,8.7h5.4v8.7H5.4V8.7z M21.6,8.7h16.2v8.7H21.6V8.7z M27,0h5.4v8.7H27V0z M54,0h5.4v8.7H54V0z
					 M75.6,8.7h16.2v8.7H75.6V8.7z M81,0h5.4v8.7H81V0z"/>
				<path class="st0" d="M16.2,17.4H27V26H16.2V17.4z M32.4,17.4h10.8V26H32.4V17.4z M70.2,17.4H81V26H70.2V17.4z M86.4,17.4h10.8
					V26H86.4V17.4z M10.8,26h10.8v8.7H10.8V26z M37.8,26h10.8v8.7H37.8V26z M64.8,26h10.8v8.7H64.8V26z M91.8,26h10.8v8.7H91.8V26z
					 M102.6,8.7h5.4v8.7h-5.4V8.7z M5.4,34.7h10.8v8.7H5.4V34.7z M43.2,34.7H54v8.7H43.2V34.7z M97.2,34.7H108v8.7H97.2V34.7z
					 M10.8,60.8h10.8v8.7H10.8V60.8z M16.2,69.4H27v8.7H16.2V69.4z M37.8,60.8h10.8v8.7H37.8V60.8z M32.4,69.4h10.8v8.7H32.4V69.4z
					 M21.6,78.1h16.2v8.7H21.6V78.1z"/>
				<path class="st0" d="M27,86.8h5.4v8.7H27V86.8z M64.8,60.8h10.8v8.7H64.8V60.8z M70.2,69.4H81v8.7H70.2V69.4z M91.8,60.8h10.8
					v8.7H91.8V60.8z M86.4,69.4h10.8v8.7H86.4V69.4z M75.6,78.1h16.2v8.7H75.6V78.1z"/>
				<path class="st0" d="M81,86.8h5.4v8.7H81V86.8z M54,78.1h5.4v8.7H54V78.1z M0,78.1h5.4v8.7H0V78.1z M108,78.1h5.4v8.7H108V78.1z
					 M27,121.5h5.4v8.7H27V121.5z"/>
				<path class="st0" d="M21.6,130.2h16.2v8.7H21.6V130.2z M16.2,138.9h27v8.7h-27V138.9z M81,121.5h5.4v8.7H81V121.5z"/>
				<path class="st0" d="M75.6,130.2h16.2v8.7H75.6V130.2z M70.2,138.9h27v8.7h-27V138.9z M75.6,182.2h27v8.7h-27V182.2z
					 M64.8,147.5h37.8v8.7H64.8V147.5z M10.8,147.5h37.8v8.7H10.8V147.5z M16.2,190.9h16.2v8.7H16.2V190.9z M10.8,182.2h27v8.7h-27
					L10.8,182.2z M86.4,164.9h27v8.7h-27V164.9z M81,190.9h16.2v8.7H81V190.9z"/>
				<path class="st0" d="M21.6,199.6H27v8.7h-5.4V199.6z M86.4,199.6h5.4v8.7h-5.4V199.6z M0,164.9h27v8.7H0V164.9z M48.6,182.2
					h16.2v8.7H48.6V182.2z M54,190.9h5.4v8.7H54V190.9z M37.8,164.9h37.8v8.7H37.8V164.9z M59.4,34.7h10.8v8.7H59.4V34.7z"/>
				<path class="st0" d="M48.6,43.4h16.2v8.7H48.6V43.4z"/>
				<path class="st0" d="M43.2,52.1H54v8.7H43.2V52.1z M59.4,52.1h10.8v8.7H59.4V52.1z M0,43.4h10.8v8.7H0V43.4z"/>
				<path class="st0" d="M5.4,52.1h10.8v8.7H5.4V52.1z M102.6,43.4h10.8v8.7h-10.8V43.4z M97.2,52.1H108v8.7H97.2V52.1z M0,130.2
					h5.4v8.7H0V130.2z M108,130.2h5.4v8.7H108V130.2z M48.6,199.6h16.2v8.7H48.6V199.6z"/>
				<path class="st0" d="M43.2,208.3H54v8.7H43.2V208.3z M59.4,208.3h10.8v8.7H59.4V208.3z M37.8,217h10.8v8.7H37.8V217z M64.8,217
					h10.8v8.7H64.8V217z"/>
				<path class="st0" d="M32.4,225.6h10.8v8.7H32.4V225.6z M70.2,225.6H81v8.7H70.2V225.6z M27,234.3h10.8v8.7H27V234.3z
					 M75.6,234.3h10.8v8.7H75.6V234.3z"/>
				<path class="st0" d="M16.2,243h16.2v8.7H16.2V243z M81,243h16.2v8.7H81V243z"/>
				<path class="st0" d="M91.8,234.3h10.8v8.7H91.8V234.3z M97.2,225.6H108v8.7H97.2V225.6z"/>
				<path class="st0" d="M102.6,217h10.8v8.7h-10.8V217z M10.8,234.3h10.8v8.7H10.8V234.3z M5.4,225.6h10.8v8.7H5.4V225.6z"/>
				<path class="st0" d="M0,217h10.8v8.7H0V217z M21.6,251.7H27v8.7h-5.4V251.7z M86.4,251.7h5.4v8.7h-5.4V251.7z M54,225.6h5.4v8.7
					H54V225.6z M37.8,251.7h5.4v8.7h-5.4V251.7z M70.2,251.7h5.4v8.7h-5.4V251.7z M54,251.7h5.4v8.7H54V251.7z M0,251.7h5.4v8.7H0
					V251.7z M108,251.7h5.4v8.7H108V251.7z M54,130.2h5.4v8.7H54V130.2z M27,43.4h5.4v8.7H27V43.4z M81,43.4h5.4v8.7H81V43.4z
					 M48.6,104.1h16.2v8.7H48.6V104.1z"/>
				<path class="st0" d="M37.8,112.8H54v8.7H37.8V112.8z"/>
				<path class="st0" d="M43.2,121.5h5.4v8.7h-5.4V121.5z M32.4,104.1h10.8v8.7H32.4V104.1z"/>
				<path class="st0" d="M37.8,95.5H54v8.7H37.8V95.5z"/>
				<path class="st0" d="M43.2,86.8h5.4v8.7h-5.4V86.8z M59.4,95.5h16.2v8.7H59.4V95.5z"/>
				<path class="st0" d="M64.8,86.8h5.4v8.7h-5.4V86.8z M70.2,104.1H81v8.7H70.2V104.1z"/>
				<path class="st0" d="M59.4,112.8h16.2v8.7H59.4V112.8z"/>
				<path class="st0" d="M64.8,121.5h5.4v8.7h-5.4V121.5z M86.4,104.1h10.8v8.7H86.4V104.1z"/>
				<path class="st0" d="M91.8,95.5H108v8.7H91.8V95.5z"/>
				<path class="st0" d="M102.6,104.1h10.8v8.7h-10.8V104.1z"/>
				<path class="st0" d="M91.8,112.8H108v8.7H91.8V112.8z"/>
				<path class="st0" d="M97.2,121.5h5.4v8.7h-5.4V121.5z M97.2,86.8h5.4v8.7h-5.4V86.8z M0,104.1h10.8v8.7H0V104.1z"/>
				<path class="st0" d="M5.4,95.5h16.2v8.7H5.4V95.5z"/>
				<path class="st0" d="M16.2,104.1H27v8.7H16.2V104.1z"/>
				<path class="st0" d="M5.4,112.8h16.2v8.7H5.4V112.8z"/>
				<path class="st0" d="M10.8,121.5h5.4v8.7h-5.4C10.8,130.2,10.8,121.5,10.8,121.5z M10.8,86.8h5.4v8.7h-5.4
					C10.8,95.5,10.8,86.8,10.8,86.8z M5.4,156.2H27v8.7H5.4V156.2z M32.4,156.2H54v8.7H32.4V156.2z M59.4,156.2H81v8.7H59.4V156.2z
					 M86.4,156.2H108v8.7H86.4V156.2z M43.2,173.6h27v8.7h-27C43.2,182.3,43.2,173.6,43.2,173.6z M5.4,173.6h27v8.7h-27L5.4,173.6z
					 M81,173.6h27v8.7H81V173.6z M108,208.3h5.4v8.7H108V208.3z M0,208.3h5.4v8.7H0V208.3z M5.4,503.3h5.4v-8.7H5.4V503.3z
					 M21.6,503.3h16.2v-8.7H21.6V503.3z"/>
				<path class="st0" d="M27,512h5.4v-8.7H27V512z M54,512h5.4v-8.7H54V512z M75.6,503.3h16.2v-8.7H75.6V503.3z"/>
				<path class="st0" d="M81,512h5.4v-8.7H81V512z M16.2,494.6H27V486H16.2V494.6z M32.4,494.6h10.8V486H32.4V494.6z M70.2,494.6H81
					V486H70.2V494.6z M86.4,494.6h10.8V486H86.4V494.6z M37.8,486h10.8v-8.7H37.8V486z M64.8,486h10.8v-8.7H64.8V486z M91.8,486
					h10.8v-8.7H91.8V486z M102.6,503.3h5.4v-8.7h-5.4V503.3z M5.4,477.3h10.8v-8.7H5.4V477.3z"/>
				<path class="st0" d="M43.2,477.3H54v-8.7H43.2V477.3z M97.2,477.3H108v-8.7H97.2V477.3z M10.8,451.3h10.8v-8.7H10.8V451.3z
					 M16.2,442.6H27v-8.7H16.2V442.6z M37.8,451.3h10.8v-8.7H37.8V451.3z M32.4,442.6h10.8v-8.7H32.4V442.6z M21.6,433.9h16.2v-8.7
					H21.6V433.9z"/>
				<path class="st0" d="M27,425.2h5.4v-8.7H27V425.2z M64.8,451.3h10.8v-8.7H64.8V451.3z M70.2,442.6H81v-8.7H70.2V442.6z
					 M91.8,451.3h10.8v-8.7H91.8V451.3z M86.4,442.6h10.8v-8.7H86.4V442.6z M75.6,433.9h16.2v-8.7H75.6V433.9z"/>
				<path class="st0" d="M81,425.2h5.4v-8.7H81V425.2z M54,433.9h5.4v-8.7H54V433.9z M0,433.9h5.4v-8.7H0V433.9z M108,433.9h5.4
					v-8.7H108V433.9z M27,390.5h5.4v-8.7H27V390.5z"/>
				<path class="st0" d="M21.6,381.8h16.2v-8.7H21.6V381.8z M16.2,373.2h27v-8.7h-27V373.2z M81,390.5h5.4v-8.7H81V390.5z"/>
				<path class="st0" d="M75.6,381.8h16.2v-8.7H75.6V381.8z M70.2,373.2h27v-8.7h-27V373.2z M75.6,329.8h27v-8.7h-27V329.8z
					 M64.8,364.5h37.8v-8.7H64.8V364.5z M10.8,364.5h37.8v-8.7H10.8V364.5z M16.2,321.1h16.2v-8.7H16.2V321.1z M10.8,329.8h27v-8.7
					h-27L10.8,329.8z M86.4,347.1h27v-8.7h-27V347.1z M81,321.1h16.2v-8.7H81V321.1z M0,347.1h27v-8.7H0V347.1z M48.6,329.8h16.2
					v-8.7H48.6V329.8z M54,321.1h5.4v-8.7H54V321.1z M37.8,347.1h37.8v-8.7H37.8V347.1z M59.4,477.3h10.8v-8.7H59.4V477.3z
					 M48.6,468.6h16.2v-8.7H48.6V468.6z M43.2,459.9H54v-8.7H43.2V459.9z M59.4,459.9h10.8v-8.7H59.4V459.9z M0,468.6h10.8v-8.7H0
					V468.6z M5.4,459.9h10.8v-8.7H5.4V459.9z M102.6,468.6h10.8v-8.7h-10.8V468.6z M97.2,459.9H108v-8.7H97.2V459.9z M0,381.8h5.4
					v-8.7H0V381.8z M108,381.8h5.4v-8.7H108V381.8z M43.2,303.7H54V295H43.2V303.7z M59.4,303.7h10.8V295H59.4V303.7z M37.8,295.1
					h10.8v-8.7H37.8V295.1z M64.8,295.1h10.8v-8.7H64.8V295.1z M32.4,286.4h10.8v-8.7H32.4V286.4z M70.2,286.4H81v-8.7H70.2V286.4z"
					/>
				<path class="st0" d="M27,277.7h10.8V269H27V277.7z M75.6,277.7h10.8V269H75.6V277.7z M16.2,269h16.2v-8.7H16.2V269z M81,269
					h16.2v-8.7H81V269z M91.8,277.7h10.8V269H91.8V277.7z"/>
				<path class="st0" d="M97.2,286.4H108v-8.7H97.2V286.4z M102.6,295.1h10.8v-8.7h-10.8V295.1z M10.8,277.7h10.8V269H10.8V277.7z"
					/>
				<path class="st0" d="M5.4,286.4h10.8v-8.7H5.4V286.4z M0,295.1h10.8v-8.7H0V295.1z M21.6,260.3H27v-8.7h-5.4V260.3z M54,286.4
					h5.4v-8.7H54V286.4z M54,381.8h5.4v-8.7H54V381.8z M27,468.6h5.4v-8.7H27V468.6z M81,468.6h5.4v-8.7H81V468.6z M48.6,407.9h16.2
					v-8.7H48.6V407.9z M37.8,399.2H54v-8.7H37.8V399.2z M43.2,390.5h5.4v-8.7h-5.4V390.5z M32.4,407.9h10.8v-8.7H32.4V407.9z"/>
				<path class="st0" d="M37.8,416.5H54v-8.7H37.8V416.5z M43.2,425.2h5.4v-8.7h-5.4V425.2z M59.4,416.5h16.2v-8.7H59.4V416.5z
					 M64.8,425.2h5.4v-8.7h-5.4V425.2z"/>
				<path class="st0" d="M70.2,407.9H81v-8.7H70.2V407.9z M59.4,399.2h16.2v-8.7H59.4V399.2z M64.8,390.5h5.4v-8.7h-5.4V390.5z
					 M86.4,407.9h10.8v-8.7H86.4V407.9z"/>
				<path class="st0" d="M91.8,416.5H108v-8.7H91.8V416.5z"/>
				<path class="st0" d="M102.6,407.9h10.8v-8.7h-10.8V407.9z M91.8,399.2H108v-8.7H91.8V399.2z M97.2,390.5h5.4v-8.7h-5.4V390.5z
					 M97.2,425.2h5.4v-8.7h-5.4V425.2z M0,407.9h10.8v-8.7H0V407.9z"/>
				<path class="st0" d="M5.4,416.5h16.2v-8.7H5.4V416.5z"/>
				<path class="st0" d="M16.2,407.9H27v-8.7H16.2V407.9z M5.4,399.2h16.2v-8.7H5.4V399.2z M10.8,390.5h5.4v-8.7h-5.4L10.8,390.5z
					 M10.8,425.2h5.4v-8.7h-5.4L10.8,425.2z M5.4,355.8H27v-8.7H5.4V355.8z M32.4,355.8H54v-8.7H32.4V355.8z M59.4,355.8H81v-8.7
					H59.4V355.8z M86.4,355.8H108v-8.7H86.4V355.8z M43.2,338.4h27v-8.7h-27C43.2,329.7,43.2,338.4,43.2,338.4z M5.4,338.4h27v-8.7
					h-27L5.4,338.4z M81,338.4h27v-8.7H81V338.4z M108,303.7h5.4V295H108V303.7z M0,303.7h5.4V295H0V303.7z M48.6,260.3H54v8.7h-5.4
					V260.3z M59.4,260.3h5.4v8.7h-5.4V260.3z M59.4,243h5.4v8.7h-5.4V243z M48.6,243H54v8.7h-5.4V243z M10.8,477.3h10.8v8.7H10.8
					V477.3z M86.4,312.4h5.4v-8.7h-5.4V312.4z M21.6,312.4H27v-8.7h-5.4V312.4z M48.6,303.7h16.2v8.7H48.6V303.7z"/>
			</g>
		</g>
	</g>
</g>
</svg>
