<?xml version="1.0" encoding="utf-8"?>
<!-- Generator: Adobe Illustrator 20.0.0, SVG Export Plug-In . SVG Version: 6.00 Build 0)  -->
<!DOCTYPE svg PUBLIC "-//W3C//DTD SVG 1.1//EN" "http://www.w3.org/Graphics/SVG/1.1/DTD/svg11.dtd">
<svg version="1.1" id="Layer_1" xmlns="http://www.w3.org/2000/svg" xmlns:xlink="http://www.w3.org/1999/xlink" x="0px" y="0px"
	 viewBox="0 0 800 480" style="enable-background:new 0 0 800 480;" xml:space="preserve">
<style type="text/css">
	.st0{fill:#FFFFFF;}
	.st1{fill:#BF0A30;}
</style>
<g>
	<g>
		<g transform="translate(74.118) scale(.9375)">
			<path class="st0" d="M81.1,0h362.3v512H81.1V0z"/>
			<rect x="-79.1" class="st1" width="206.7" height="512"/>
			<rect x="567.6" class="st1" width="206.7" height="512"/>
		</g>
	</g>
	<g>
		<path class="st1" d="M255.8,231.2l-16.6,5.7l77.1,67.7c5.8,17.4-2,22.5-7,31.6l83.7-10.6l-2.2,84.2l17.3-0.5l-3.8-83.5l83.8,9.9
			c-5.2-11-9.8-16.8-5-34.3l77.1-64.1l-13.5-4.9c-11-8.5,4.8-41,7.1-61.5c0,0-45,15.5-47.9,7.4l-11.5-22l-40.9,45
			c-4.5,1.1-6.4-0.7-7.4-4.5l18.9-94l-29.9,16.8c-2.5,1.1-5,0.1-6.7-2.8L399.6,59l-29.7,60c-2.2,2.2-4.5,2.4-6.3,0.9l-28.5-16
			l17.1,93.2c-1.4,3.7-4.6,4.7-8.5,2.7l-39.1-44.5c-5.1,8.2-8.6,21.6-15.4,24.6c-6.8,2.8-29.4-5.7-44.6-9
			C249.9,189.9,266.1,221,255.8,231.2L255.8,231.2z"/>
	</g>
</g>
</svg>
