<?xml version="1.0" encoding="utf-8"?>
<!-- Generator: Adobe Illustrator 20.0.0, SVG Export Plug-In . SVG Version: 6.00 Build 0)  -->
<!DOCTYPE svg PUBLIC "-//W3C//DTD SVG 1.1//EN" "http://www.w3.org/Graphics/SVG/1.1/DTD/svg11.dtd">
<svg version="1.1" id="Layer_1" xmlns="http://www.w3.org/2000/svg" xmlns:xlink="http://www.w3.org/1999/xlink" x="0px" y="0px"
	 viewBox="0 0 800 480" style="enable-background:new 0 0 800 480;" xml:space="preserve">
<style type="text/css">
	.st0{fill:#008000;}
	.st1{fill:#FFE000;}
	.st2{fill:#802000;stroke:#7B3100;stroke-width:1.481;}
</style>
<path class="st0" d="M0,0h800v480H0V0z"/>
<g>
	<circle class="st1" cx="156.7" cy="123.2" r="88.6"/>
	<path class="st2" d="M150.5,190h22.1c0,0,1-2-0.2-3c-1.2-1-6-1.2-4.7-4.8c2.6-7.4,3-5.1,4.7-22.6c1.7-17.5,2.5-45,2.5-45h-3.2
		c0,0,0.6,8.5-1.2,19.7c-1.8,11.1-2.4,12.1-4.4,20.6c-2,8.5-2.3,9.3-4.2,14.3c-1.8,5-2,5.2-4.9,9.8c-2.9,4.6-1.8,2.9-3.4,5.7
		c-0.8,1.4-1.8,1-2.3,2C150.6,187.6,150.5,190,150.5,190L150.5,190z"/>
	<path class="st0" d="M167.4,58.7c0.2,3.4-0.2,8-1.6,11.7c-1.4,4.1-3,8.2-2.9,12.5c-2.3,0.8-4.7-5-6.9-1.6c1.7,4.7,5.5,8.4,8.1,12.6
		c0.4,1.3,4.2,4.7,2,5.5c-5.5-1.9-6.9-8.9-10.3-13.1c-4-7.1-11.4-12.2-19.7-12.5c-3.1,0.1-13.2-0.8-10.6,4.5
		c3.9,2.6,8.6,4.3,12.4,7.3c2.8,0.3,8,5,7.7,6.8c-5-2-7.3-4.5-12.7-6.6c-7.3-2.8-17.4-1.1-21.4,6.1c-0.8,1.9-1.9,7.4,0.5,7.9
		c2.8-4.3,6.7-9.2,12.6-7.9c4.6,0.4-5.1,8.6-1.4,6.9c1.2-0.5,3.9-2.3,5.8-2.5c1.9-0.2,3,1.2,4.4,1.4c2.9,0.4,3.7,1.6,3.4,2.3
		c-0.3,0.8-1.2,0.1-4.1,1c-1.5,0.5-2.2,1.7-3.9,2.3c-1.7,0.6-5.2,0.6-6.6,0.1c-4.6-2-12.2-1.7-13.7,4.1c0,2.6-2.3-0.3-3.3,0.8
		c-0.8,2.8-1,5.6-5.1,5.4c-2.5,2.6-5.1,5.4-8.3,7.2c1.9,4.3,9.3-4.3,8.9-0.7c-3.2,4.4,1.7,5.3,3.8,1.9c3.6-3.8,8.1-8.5,13.5-4.6
		c2.6,2.4,4.1-1.3,5.9-1.1c1.2,3,2.7,0.1,4-0.7c2.2-0.3,1.6,2.7,4.2,0.9c5.2-3.4,11.5-0.5,16.6-3.9c5.4-2.5,0.8,2-0.7,3.7
		c-2.4,4.6-0.3,10.6-5.4,13.5c-2.1,5.5,2.4,12.7-2.2,16.7c-0.7,2.5,5.9,2.2,7.7,3.3c3.2,0.1-0.1-7.4,3.1-8.4c4.3,2.7,4.1-4.8,3.2-7
		c0.4-5.2,0.7-10.9,3.3-15.6c2.7-5.8,5.3,2.4,2.2,4.6c-1.7,5.3-4.3,11.9-0.3,16.9c1.1,0.3,2.1,3,3.6,3.9c1.5,0.9,3.5-0.2,3.9-2.7
		c1.9-7.6,0.9-15.8,3.7-23.2c1.9-2.3,4.6-0.4,5.7,1.7c3.8,4.4,6.5,9.9,11.1,13.6c4.2,2,7.9,4.9,9.8,9.2c0,3.3,9.5,3.8,6.6,0.1
		c-2.7-3.6-0.9-7.2,1.8-9.6c1.5,0.4,1-2.3-0.1-1.2c-1.9-0.4-2-3.8,0.6-2.2c4.3,1.4-0.3-3.1-1.9-3.3c-3.7-2.3-7.9-4.9-9.7-8.8
		c4.8,0.1,9.7,2.6,14.6,1c3.9-2,7.9,0.2,9.2,3.6c3-0.5,1.7-3.5,0-4.5c2.2-0.9,3.7-2.8,1.1-4.5c-1.4-1.8,1.9-5-2.2-4.9
		c0.1-3.1-1.1-6-4.5-7c-3.4-2.9-13.4,4.2-13.1-2.2c-1-3.5,4-0.5,5.5-2.2c1.5-3.7-7-3.4-4.2-6.2c1.8-1.2,10.3-2.8,3.6-4.1
		c-3.3,0.9-6.2,0.2-8.8-1.4c-2.4,4-9.2-2.2-8,4.9c-0.9,2.7-7,9.6-8.7,4.3c1.4-4.2,8.6-5.5,6.4-11.2c-0.3-3.5-3.3,0.6-4.6,0.4
		c-0.7-2.2,2.1-4.8,4.1-5.3c3.9,3,4-3.8,7.7-3.2c2.7-0.6-0.9-1.8-1.6-2.3c0.7-2,4.9-3,0.8-4.7c-3.6-2.6-6.2,2.6-9.2,2.9
		c-2.8-3.2,2.6-4.7,4.1-6.4c0.1-1.3-3.1-0.4-2.2-1.5c0.8-1.5,6.5-1.6,3.9-3.9c-4-1.4-9.2-1-13.1,0.8c-2.4,0.8-3.1,6.3-5.2,6.1
		C169.5,64.2,170.8,59.4,167.4,58.7L167.4,58.7z M186.5,112.4c3.1-0.5,0.1,4.7-1.4,4.6c0.1-1.9-4.4-1.7-1.6-3.3
		C184.4,113.1,185.4,112.6,186.5,112.4L186.5,112.4z"/>
</g>
<g transform="translate(0 80) scale(.0635)">
	<g>
		<path id="a" class="st1" d="M9666.8,4216.8l88.1,273.8l269-101.9l-159.2,239.6l247.4,146.8l-286.5,24.9L9865,5085l-198.1-208.5
			L9468.7,5085l39.5-284.9l-286.5-24.9l247.4-146.8l-159.2-239.6l269,101.9L9666.8,4216.8z"/>
	</g>
	<g>
		<path id="a_1_" class="st1" d="M8068.4,1686l88.1,273.8l269-101.9l-159.2,239.6l247.4,146.8l-286.5,24.9l39.5,284.9l-198.1-208.5
			l-198.1,208.5l39.5-284.9l-286.5-24.9l247.4-146.8L7711.4,1858l269,101.9L8068.4,1686z"/>
	</g>
	<g>
		<path id="a_2_" class="st1" d="M9666.8-45.6l88.1,273.8l269-101.9l-159.2,239.6l247.4,146.8l-286.5,24.9l39.5,284.9l-198.1-208.5
			l-198.1,208.5l39.5-284.9l-286.5-24.9l247.4-146.8l-159.2-239.6l269,101.9L9666.8-45.6z"/>
	</g>
	<g>
		<path id="a_3_" class="st1" d="M11087.6,1259.8l88.1,273.8l269-101.9l-159.2,239.6l247.4,146.8l-286.5,24.9l39.5,284.9
			l-198.1-208.5l-198.1,208.5l39.5-284.9l-286.5-24.9l247.4-146.8l-159.2-239.6l269,101.9L11087.6,1259.8z"/>
	</g>
	<g>
		<path id="b" class="st1" d="M10306.2,2542.3l69.6,170.6l183.8,13.5l-140.8,118.9l44,178.9l-156.6-97.1l-156.6,97.1l44-178.9
			l-140.8-118.9l183.8-13.5L10306.2,2542.3z"/>
	</g>
	<path class="st1" d="M6884.5,3637.8c-605.3,0-1095.9-490.7-1095.9-1095.9S6279.2,1446,6884.5,1446c172.8,0,336.3,40.1,481.7,111.4
		c-236.7-215.8-551.4-347.3-896.9-347.3c-735.6,0-1331.8,596.3-1331.8,1331.8s596.3,1331.8,1331.8,1331.8
		c345.5,0,660.2-131.6,896.9-347.3C7220.8,3597.7,7057.3,3637.8,6884.5,3637.8z"/>
</g>
</svg>
