<?xml version="1.0" encoding="utf-8"?>
<!-- Generator: Adobe Illustrator 20.0.0, SVG Export Plug-In . SVG Version: 6.00 Build 0)  -->
<!DOCTYPE svg PUBLIC "-//W3C//DTD SVG 1.1//EN" "http://www.w3.org/Graphics/SVG/1.1/DTD/svg11.dtd">
<svg version="1.1" id="Layer_1" xmlns="http://www.w3.org/2000/svg" xmlns:xlink="http://www.w3.org/1999/xlink" x="0px" y="0px"
	 viewBox="0 0 800 480" style="enable-background:new 0 0 800 480;" xml:space="preserve">
<style type="text/css">
	.st0{fill:#000066;}
	.st1{fill:#FFFFFF;}
	.st2{fill:#CC0000;}
</style>
<path class="st0" d="M0,0h800v480H0V0z"/>
<g>
	<path class="st1" d="M0,0v27.1L355.3,242H400v-27.1L44.7,0H0L0,0z M400,0v27.1L44.7,242H0v-27.1L355.3,0L400,0L400,0z"/>
	<path class="st1" d="M166.7,0v242h66.7V0H166.7z M0,80.7v80.7h400V80.7H0z"/>
	<path class="st2" d="M0,96.8v48.4h400V96.8H0z M180,0v242h40V0H180z M0,242l133.3-80.7h29.8L29.8,242L0,242L0,242z M0,0l133.3,80.7
		h-29.8L0,18L0,0L0,0z M236.9,80.7L370.2,0H400L266.7,80.7H236.9L236.9,80.7z M400,242l-133.3-80.7h29.8L400,224L400,242L400,242z"
		/>
</g>
<path class="st1" d="M590.8,126.1l6.3-20.1l-16.9-12.8l21.3-0.3l7.1-19.8l6.9,19.9l21.3,0.6l-17,12.6l6.1,20.2l-17.4-12.1
	 M640.9,130l12.5-16.8l-11.7-17.8l20.1,7l13.2-16.3l-0.1,21.1l19.9,7.8l-20.2,6.1l-1,21.1l-12.4-17.4 M542.8,142.8l-0.8-21.1
	l-20.2-6.2l19.9-7.6l0-21.1l13.1,16.4l20.2-6.8l-11.8,17.7l12.5,16.9l-20.4-5.4 M507.5,174.9l-8.8-19.1l-21,2.2l15.4-14.8l-8-19.4
	l18.4,9.9l16-14.2l-4.1,21l18,10.7l-20.9,3.1 M491.3,221.1l-16-13.4l-18,11.1l7.7-20.1l-15.5-14.1l20.8,0.9l8.5-19.8l5.2,20.7
	l20.7,1.8L487,200.1 M491,273l-20-5.8l-12.2,17.5l-0.8-21.6l-19.7-6.6l19.4-7.5l0-21.6l12.9,16.9l19.7-6.7l-11.5,18 M514.3,316.8
	l-20.6,2.9l-4.2,21l-9.4-19.4l-20.7,2l14.8-14.9l-8.6-19.7l18.5,10.2l15.4-14.2l-3.3,21.2 M550.5,351.6l-18.3,9.9l3.2,21.2
	L520,367.7l-18.7,9.1l8.8-19.1l-14.8-15.5l20.8,3.1l9.6-18.7l4.1,21 M594.7,358.4l-10,18.5l14.1,15.9l-20.9-3.9l-10.8,18l-2.9-20.9
	l-20.8-4.8l19.1-9l-2.1-21l14.7,15.4 M644.3,350.8l-0.6,21.1l19.7,7.7l-20.4,6.2l-1.5,21l-12-17.3l-20.6,5.3l13-16.8l-11.3-17.7
	l20,6.9 M696.2,122.2l14.4,15.2l19.2-8.9l-9.9,19.1l13.8,15.8l-20.5-3.4l-10.7,18.7l-2.7-21.2l-20.4-4.3l18.8-9.7 M739.4,168.9
	l6.5,20l21.1,0.4l-17.1,12.9l5.7,20.3l-17.1-12l-17.6,12.2l6.5-20.3l-16.6-12.7L732,189 M755.5,229l-2.4,20.9l19,9.4l-20.8,4.3
	l-3.3,20.8l-10.5-18.2l-21,3.5l14.4-15.6l-9.7-18.7l19.3,8.6 M744.1,292l-9.4,18.8l14.6,15.4l-21-3.2l-10.1,18.4l-3.6-20.8l-20.9-4
	l18.8-9.6l-2.8-20.9l15.3,14.8 M713,348l-17.7,11.1l4.5,20.9l-16.3-13.9l-18.1,10.3l7.6-19.6l-15.7-14.5l21,1.8l8.4-19.3l5.3,20.7"
	/>
</svg>
