<?xml version="1.0" encoding="utf-8"?>
<!-- Generator: Adobe Illustrator 20.0.0, SVG Export Plug-In . SVG Version: 6.00 Build 0)  -->
<!DOCTYPE svg PUBLIC "-//W3C//DTD SVG 1.1//EN" "http://www.w3.org/Graphics/SVG/1.1/DTD/svg11.dtd">
<svg version="1.1" id="Layer_1" xmlns="http://www.w3.org/2000/svg" xmlns:xlink="http://www.w3.org/1999/xlink" x="0px" y="0px"
	 viewBox="0 0 800 480" style="enable-background:new 0 0 800 480;" xml:space="preserve">
<style type="text/css">
	.st0{fill:#DE2910;}
	.st1{fill:#FFDE00;}
</style>
<title>Flag of the People&apos;s Republic of China</title>
<g>
	<g>
		<g transform="matrix(.48 0 0 .48 -2.6 2.39)">
			<path class="st0" d="M5.4-5h1666.7V995H5.4V-5z"/>
			<polygon class="st1" points="330.7,279 419.1,214.7 309.9,214.7 276.3,111.2 242.6,214.7 133.5,214.7 221.8,279 188.1,382.7 
				276.3,318.6 364.5,382.7 			"/>
			<polygon class="st1" points="541.3,123.8 576.7,115.6 543.3,101.4 546.5,65.2 522.6,92.6 489.1,78.4 507.8,109.6 484,136.9 
				519.3,128.8 538,160 			"/>
			<polygon class="st1" points="645.1,208.1 662.1,176 629.4,192 604.1,165.9 609.2,201.9 576.7,217.9 612.4,224.1 617.5,260.1 
				634.6,228 670.4,234.2 			"/>
			<polygon class="st1" points="644.6,366.5 673.2,344.1 636.8,345.4 624.4,311.2 614.4,346.2 578.1,347.5 608.2,367.8 598.2,402.8 
				626.9,380.3 657,400.7 			"/>
			<polygon class="st1" points="541,473.3 576.1,463.7 542.1,450.9 543.8,414.5 521,442.9 487.1,430.1 507,460.4 484.3,488.8 
				519.4,479.2 539.4,509.6 			"/>
		</g>
	</g>
</g>
</svg>
