<?xml version="1.0" encoding="utf-8"?>
<!-- Generator: Adobe Illustrator 20.0.0, SVG Export Plug-In . SVG Version: 6.00 Build 0)  -->
<!DOCTYPE svg PUBLIC "-//W3C//DTD SVG 1.1//EN" "http://www.w3.org/Graphics/SVG/1.1/DTD/svg11.dtd">
<svg version="1.1" id="Layer_1" xmlns="http://www.w3.org/2000/svg" xmlns:xlink="http://www.w3.org/1999/xlink" x="0px" y="0px"
	 viewBox="0 0 800 480" style="enable-background:new 0 0 800 480;" xml:space="preserve">
<style type="text/css">
	.st0{clip-path:url(#SVGID_2_);}
	.st1{fill:#FFFFFF;}
	.st2{fill:#081873;}
	.st3{fill:#DE3929;}
	.st4{fill:#FFCE08;}
</style>
<desc>The United States of America flag, produced by Daniel McRae</desc>
<g>
	<defs>
		<rect id="SVGID_1_" x="-0.3" width="800.3" height="481.3"/>
	</defs>
	<clipPath id="SVGID_2_">
		<use xlink:href="#SVGID_1_"  style="overflow:visible;"/>
	</clipPath>
	<g transform="translate(115.72) scale(.94)" class="st0">
		<path class="st1" d="M-123.4,233.1H728v206h-851.4L-123.4,233.1z"/>
		<path class="st2" d="M-122.8,0h851.4v256.6h-851.4L-122.8,0z M-122.5,385.9h852.1V512h-852.1L-122.5,385.9z"/>
		<path class="st3" d="M-122.5,302.5H728v39.6h-850.5L-122.5,302.5z"/>
		<path class="st4" d="M130.9,399.2l6.6,20.5h21.5l-17.4,12.6l6.6,20.5l-17.4-12.6l-17.4,12.6l6.7-20.5l-17.4-12.6h21.5
			 M316.9,250.5l6.6,20.5h21.5l-17.4,12.6l6.6,20.5l-17.4-12.6l-17.4,12.6l6.6-20.5L288.7,271h21.5 M88.3,335.4l6.7,20.5h21.5
			L99,368.6l6.7,20.5l-17.4-12.6L70.9,389l6.7-20.5l-17.4-12.6h21.5 M316.9,329.5l6.6,20.5h21.5l-17.4,12.6l6.6,20.5l-17.4-12.6
			L299.5,383l6.6-20.5l-17.4-12.6h21.5 M269.8,188.2l6.6,20.5H298l-17.4,12.6l6.6,20.5l-17.4-12.6l-17.4,12.6l6.6-20.5l-17.4-12.6
			h21.5 M198.7,163.4l6.6,20.5h21.5l-17.4,12.6l6.6,20.5l-17.4-12.6L181.3,217l6.6-20.5l-17.4-12.6h21.5 M127.6,186.8l6.6,20.5h21.5
			l-17.4,12.6l6.6,20.5l-17.4-12.6l-17.4,12.6l6.7-20.5l-17.4-12.6H121 M86.2,250.5l6.7,20.5h21.5l-17.4,12.6l6.7,20.5l-17.4-12.6
			l-17.4,12.6l6.7-20.5L58,271h21.5 M198.7,420.4l6.6,20.5h21.5l-17.4,12.6l6.6,20.5l-17.4-12.6L181.3,474l6.6-20.5l-17.4-12.6h21.5
			 M274.3,399.2l6.6,20.5h21.5L285,432.3l6.6,20.5l-17.4-12.6l-17.4,12.6l6.6-20.5l-17.4-12.6h21.5"/>
	</g>
</g>
</svg>
