<?xml version="1.0" encoding="utf-8"?>
<!-- Generator: Adobe Illustrator 20.0.0, SVG Export Plug-In . SVG Version: 6.00 Build 0)  -->
<!DOCTYPE svg PUBLIC "-//W3C//DTD SVG 1.1//EN" "http://www.w3.org/Graphics/SVG/1.1/DTD/svg11.dtd">
<svg version="1.1" id="Layer_1" xmlns="http://www.w3.org/2000/svg" xmlns:xlink="http://www.w3.org/1999/xlink" x="0px" y="0px"
	 viewBox="0 0 800 480" style="enable-background:new 0 0 800 480;" xml:space="preserve">
<style type="text/css">
	.st0{fill:#0021AD;}
	.st1{fill:#1C8A42;}
	.st2{fill:#FFC639;}
	.st3{fill:#FFFFFF;}
</style>
<path class="st0" d="M0,0h800v480H0V0z"/>
<path class="st1" d="M0,0h800v480L0,0z"/>
<circle class="st2" cx="400" cy="238.6" r="57.8"/>
<path class="st1" d="M364.7,212.6c4,5.4,9.9,14.5,14.8,12.1c3.8,0,5.7,0.3,6.2,2.8c8.9,1.5,23.8-2.2,33.1-14.3c0,0,0.8,0.1,0.5-4.5
	c0-2,2.7-1.6,2.8-0.9c0.4,1,0.3,1.7,0.8,1.8c1.1-0.4,2.7-2.9,4-4.6c0.4-0.7,0.2-1.5,0.2-2.4c0.7-1.7,2.4-1.3,2.8-0.4
	c0.3,0.6,0.3,1,0.7,1.6c1.8,1.2,4.9,0.1,5.1,0.1c0.3-1.4,1.2-1.3,1.2-1.3c1.2-0.3,0.7-0.2,1.5,0.2c-0.7,7.7,1.5,8,1.3,12
	c0.1,4.4-1.3,5.6-1.3,7.3c0.4,2.1,6.9,2.1,4.6,3.9c-2,1.1,0,3.1-3,3.9c-8.8,4.5-10.5,8.3-10.5,8.3s-2.2,4.2-2.5,4.2
	c-1.5,2.8-3.3,1.3-4.4,2.6c-0.5,1.7-1.1,5.5-0.1,7.4c0.5,2.7-0.1,4.2-0.7,6.9c-0.6,5.6-2.8,6.5-3.1,8.5c-1,2.1,0.2,12-0.8,12
	c-6.5,0.1-11.6-1.3-14.1-1.8c2.5-10.9,1.5-20.4,1.5-21.4c-0.6-7.8-11.6-5.9-13.3-6.9c-1.4-0.3-2.3-1.4-2.8-1.9
	c-1.6-0.2-2.1-0.5-3.7-0.7c-0.8,0.4-0.3,0.8-2,1.3c-4.4,0.5-6.3-3.8-6.3-3.8c0.2-1.5-9.9,0.3-15.3-1c-2.2,1.3-3.2,5-5.1,5.4
	c-0.1,1.1-3-0.9-3.6-2.1c-0.1-3.3,2.9-4.7,2.9-4.7c2.4-1.7,3.8-1.9,4.9-3.1c0.6-2.9,0.3-5,1.5-7.1c1-1.6,2.6-0.9,3.6-1.6
	c1.1-0.7,1.6-5.6,0.6-6.9c0,0-4.4-4-4.7-4.3C360.7,215,363.8,212.3,364.7,212.6L364.7,212.6z"/>
<path class="st2" d="M704.5,95c-3.6-14.3-35.9-45-60.1-64.6c-5.8-3.9-9.6-1.6-8.8,4c3,5,5.3,10.6,8.3,15.6c0.8,3.4,2.4,5.7,3.3,9.1
	c0,0,0.2,5.8,0.8,6.3c7.5,8.3,8.6,15.4,8.6,15.4c4.4,8.4,8.2,14.5,15.9,21.4c8.6,5.4,2.3,22.1,2.5,31c0,5.6-4,5-7.5,4.3
	c-27.8-25.5-55.3-25.6-79.6-33c-9.5-1-9.7,3.5-6.5,6c17,18.1,32.9,30.5,53.9,40.8l10.6,6.6c4,3.4,8.1,6.7,12.1,10.1
	c9.3,6,10.1,11.6,10.1,12.1c0.2,11.3-5.8,20.1-7.6,23.7c-3.2,12-9.6,14.1-9.6,14.1c-51.9,35-79.1,44.1-163.2,33.2
	c-1.3-0.7-9.3,0.7,0,4c21.4,7.1,74,18.6,124.8-5.5c12.2-8.6,20.4-5.8,29.2-10.9c14.5-9,35.3-20.1,39-21.4
	c11.3-6,43.1-12.8,50.4-18.9c8.4-0.7,17.1-1.8,17.7-9c2.8-1.8,6.8-0.5,9.8-6.4c6.7-1.2,5.5-3.5,5.5-3.5c-1.7-4.7-7.9-6.6-12.3-10.1
	c-6.6-2.2-11.1-2.9-15.9-0.5c-1.5,0.7-3,1.3-4.5,2c0,0-7-1-7-1.5C708.5,168.6,710,116.6,704.5,95L704.5,95z"/>
<path class="st1" d="M588.6,204.2c-0.3,0.9-1.7,1.3-3.2,0.9c-1.5-0.4-2.5-1.6-2.2-2.5c0,0,0-0.1,0-0.1c0.4-0.9,1.9-1.2,3.3-0.8
	C587.9,202.2,588.8,203.3,588.6,204.2L588.6,204.2z"/>
<g transform="matrix(.64 0 0 .64 0 80)">
	<path id="a" class="st3" d="M275.9,194.8l-16.7-15.6l-16.9,15.4l1.8-22.8l-22.6-3.6l19-12.8l-11.3-19.9l21.8,6.8l8.5-21.2l8.3,21.3
		l21.9-6.6l-11.5,19.8l18.8,13.1l-22.6,3.3L275.9,194.8L275.9,194.8z"/>
	<path class="st3" d="M335.1,384.3l-18-12l-17.5,12.7l6.2-20.4L288,352.2l21.8-0.6l6.5-20.3l7.3,20l21.8-0.2l-17.3,13L335.1,384.3
		L335.1,384.3z"/>
	<g>
		<path id="a_1_" class="st3" d="M279.2,547.3l-16.7-15.6l-16.9,15.4l1.8-22.8l-22.6-3.6l19-12.8L232.5,488l21.8,6.8l8.5-21.2
			l8.3,21.3l21.9-6.6l-11.5,19.8l18.8,13.1l-22.6,3.3L279.2,547.3L279.2,547.3z"/>
	</g>
	<g>
		<path id="a_2_" class="st3" d="M129,356.3l-16.7-15.6L95.4,356l1.8-22.8l-22.6-3.6l19-12.8l-11.3-19.9l21.8,6.8l8.5-21.2l8.3,21.3
			l21.9-6.6l-11.5,19.8l18.8,13.1l-22.6,3.3L129,356.3L129,356.3z"/>
	</g>
	<g>
		<path id="a_3_" class="st3" d="M417.9,306.2l-16.7-15.6L384.3,306l1.8-22.8l-22.6-3.6l19-12.8l-11.3-19.9l21.8,6.8l8.5-21.2
			l8.3,21.3l21.9-6.6L420.3,267l18.8,13.1l-22.6,3.3L417.9,306.2L417.9,306.2z"/>
	</g>
</g>
</svg>
