<?xml version="1.0" encoding="utf-8"?>
<!-- Generator: Adobe Illustrator 20.0.0, SVG Export Plug-In . SVG Version: 6.00 Build 0)  -->
<!DOCTYPE svg PUBLIC "-//W3C//DTD SVG 1.1//EN" "http://www.w3.org/Graphics/SVG/1.1/DTD/svg11.dtd">
<svg version="1.1" id="Layer_1" xmlns="http://www.w3.org/2000/svg" xmlns:xlink="http://www.w3.org/1999/xlink" x="0px" y="0px"
	 viewBox="0 0 640 480" style="enable-background:new 0 0 640 480;" xml:space="preserve">
<style type="text/css">
	.st0{fill:#FFFFFF;}
	.st1{fill:#435125;}
	.st2{fill:#D47600;}
</style>
<path class="st0" d="M0,0h800v480H0V0z"/>
<path id="a" class="st1" d="M385.3,401.1c-0.1,0-0.2-0.1-0.3-0.2l-0.1-0.1c-0.3-0.2-0.7-0.7-1.3-1.3c-1.1-1.2-2.5-3-3.8-4.5
	c-2.5-3.1-4.5-5.8-4.9-6.3l-0.6-0.8l-6.2-1.9l-4.5-2.1l2.4-2.7l8.3,3.6l6.2,1.3l11.5,8.5l0,0c0,0-1.7,1.4-3.3,2.9
	c-0.7,0.7-1.6,1.5-2.3,2.2c-0.3,0.3-0.6,0.6-0.7,0.9c-0.1,0.2-0.2,0.3-0.2,0.4l0.7-0.4l0.8,0.6L385.3,401.1L385.3,401.1L385.3,401.1
	z M342.7,388.3c-5.4,0-10.8-1.5-15.9-4.5l0,0l0,0c0,0,0.7-1.3,2.3-2.5c1.6-1.1,4.4-2.5,8.9-2.5h0.1c5.4,0,11.9,1.8,19.5,5.4
	C357.3,384.4,351.3,388.3,342.7,388.3L342.7,388.3L342.7,388.3z M319.2,383.1c-1,0-1.9-0.4-2.5-1.1c-0.5-0.6-0.9-1.3-1.1-2.3
	c-0.4-1.6-0.3-3.2-0.3-3.4c0.4-0.2,0.8-0.3,1.3-0.3l0.1,0c2,0,3.6,1.7,4.3,3.5c0.4,1,0.5,1.8,0.2,2.5
	C320.8,382.6,320,383.1,319.2,383.1L319.2,383.1z M360.5,378.3c-13.9-2-19.8-7-22.3-10.9c-2.7-4.1-2.1-7.9-2.1-8l0,0l0,0
	c0,0,0.9-0.2,2.1-0.2C342,359.2,351.4,361.1,360.5,378.3L360.5,378.3L360.5,378.3L360.5,378.3z M332,375.6c-5.9,0-10.5-1-13.4-3
	c-1.7-1.2-2.5-2.4-2.9-3.3c-0.2-0.5-0.4-1.1-0.5-1.6c0.2-0.1,2.6-1.1,6.2-1.3c0.3,0,0.6,0,0.9,0c4.6,0,11.6,1.5,18.9,8.6l0,0h0
	C337.9,375.3,334.8,375.6,332,375.6L332,375.6z M303.3,374.4c-6.3,0-14.9-1.9-20.2-7.3l0,0l0,0c0.1,0,5.9-1.5,12.4-1.6
	c0.4,0,0.8,0,1.2,0c5.9,0,10.4,1.1,13.3,3.4c1,0.8,1.6,1.5,1.7,2.2c0.1,0.6-0.2,1.2-0.8,1.7c-1.3,1-3.8,1.6-7.2,1.6L303.3,374.4
	L303.3,374.4z M283,364c-0.8,0-1.5-0.3-2-0.9c-0.4-0.5-0.7-1.1-0.9-2c-0.3-1.5-0.2-2.9-0.2-2.9v0c0.3-0.1,0.6-0.2,1-0.2h0
	c0.9,0,1.6,0.5,2.1,0.9c0.6,0.6,1.1,1.3,1.4,2.1c0.3,0.8,0.3,1.5,0.1,2.1C284.3,363.5,283.8,364,283,364L283,364z M329.9,363
	c-1,0-1.9-0.4-2.5-1.1c-0.5-0.6-0.9-1.3-1.1-2.3c-0.4-1.6-0.3-3.2-0.3-3.4c0.4-0.2,0.8-0.3,1.3-0.3l0.1,0c2,0,3.6,1.7,4.3,3.5
	c0.4,1,0.5,1.8,0.2,2.5C331.5,362.5,330.7,363,329.9,363L329.9,363z M307.1,362c-12.6-0.4-19.1-4-22.4-6.9c-1.8-1.6-2.9-3.3-3.4-4.4
	c-0.5-1-0.7-1.8-0.7-2l0,0c0,0,1.2-0.4,3.1-0.5l0.3,0C288.2,348.3,296.9,350.1,307.1,362L307.1,362L307.1,362z M320.7,360.8
	c-10.1-1.5-15.9-5.9-18.9-9.3c-3.2-3.5-4.1-6.8-4.2-7c0,0,1.3-0.3,3.1-0.4c0.3,0,0.6,0,0.9,0C306.7,344.3,316,346.6,320.7,360.8
	L320.7,360.8L320.7,360.8z M268.7,355.9c-3.3,0-6.5-0.4-9.6-1.1c-5.3-1.3-7.6-3.4-8.6-4.8c-0.6-0.8-0.8-1.6-0.8-2
	c0-0.3-0.1-0.6,0-0.9l0,0c0,0,3.5-1,8.4-1.1c2.5,0,5,0.2,7.4,0.7c8.4,1.7,12.8,8,12.8,8.1l0,0l0,0
	C278.4,354.8,274.4,355.9,268.7,355.9L268.7,355.9z M292.2,347.4c-1,0-1.9-0.4-2.5-1c-0.5-0.6-0.9-1.3-1.1-2.3
	c-0.4-1.6-0.3-3.2-0.3-3.3c0.4-0.2,0.8-0.3,1.3-0.3l0.1,0c2,0,3.6,1.7,4.3,3.5c0.4,1,0.4,1.8,0.2,2.4
	C293.8,346.9,293.1,347.4,292.2,347.4L292.2,347.4z M274.6,344.9c-0.1,0-4.8-1.2-9.6-4.2c-4.4-2.7-9.9-7.6-10.5-15.1v0l0,0
	c0,0,0.4-0.1,1-0.1c0.1,0,0.2,0,0.3,0c1.3,0,4,0.4,7.3,2.9C267.3,331.6,271.1,337.2,274.6,344.9L274.6,344.9z M286.1,344.5
	c0,0-3.4-1.4-7.6-4.9c-3.9-3.3-9.4-9.2-13.4-18.7c0,0,0.9-0.5,2.3-0.6c0.1,0,0.2,0,0.2,0c0.1,0,0.2,0,0.4,0c1.9,0.1,4.9,0.9,8.1,4.4
	C279.9,328.8,283.3,335.5,286.1,344.5L286.1,344.5L286.1,344.5L286.1,344.5z M256.2,343.6c-3.9,0-5.2-2.1-5.6-3
	c-0.6-1.5-0.4-3-0.4-3l0,0c0.6-0.2,1.3-0.2,1.9-0.3l0.1,0c3,0,5.4,1.5,6.5,3.1c0.2,0.3,0.8,1.4,0.3,2.2
	C258.6,343.3,257.7,343.6,256.2,343.6L256.2,343.6z M247.6,332.9c-2.2,0-5.5-0.1-8.9-0.8c-3.4-0.6-5.4-3.5-6.4-5.9
	c-1.1-2.5-1.4-5-1.4-5h0c10.6,0.3,15.6,3.4,18,6c2.4,2.6,2.6,5.4,2.6,5.5h0C251.4,332.7,249.9,332.9,247.6,332.9L247.6,332.9z
	 M258.7,321.8c-0.9-1.1-1.7-2.2-2.4-3.4c-1.3-2-2.4-4-2.4-5.7c0-1.6-0.4-5-0.6-6.9c-0.3-2.4-0.6-4.4-0.6-4.6l0,0
	c0.3,0.1,6.6,2.5,6.6,8.5C259.3,315.7,258.7,321.8,258.7,321.8L258.7,321.8L258.7,321.8L258.7,321.8z M250.4,321.2
	c-0.1,0-0.1,0-0.2,0c-1.9-0.3-5.2-1.8-8.9-3.9c-4.1-2.3-7.4-4.8-9.3-7c-1.8-2-2.8-5.2-3.1-9.4c-0.2-3,0-5.5,0.1-5.7
	c0.3-0.1,0.7-0.2,1.1-0.2c1.4,0,2.9,0.7,5,2.1c1.6,1.1,3.3,2.6,5.2,4.4c3.2,3.2,5.7,6.3,5.8,6.4l0,0c0.2,0.4,2,3.7,3.4,6.8
	c0.9,2,1.4,3.5,1.6,4.6c0.1,0.6,0.1,1,0,1.4c-0.1,0.2-0.2,0.3-0.3,0.4C250.7,321.2,250.6,321.2,250.4,321.2L250.4,321.2z"/>
<g transform="matrix(-1 0 0 1 593.742 0)">
	<path id="a_1_" class="st1" d="M363.4,401.1c0.1,0,0.2-0.1,0.3-0.2l0.1-0.1c0.3-0.2,0.7-0.7,1.3-1.3c1.1-1.2,2.5-3,3.8-4.5
		c2.5-3.1,4.5-5.8,4.9-6.3l0.6-0.8l6.2-1.9l4.5-2.1l-2.4-2.7l-8.3,3.6l-6.2,1.3l-11.5,8.5l0,0c0,0,1.7,1.4,3.3,2.9
		c0.7,0.7,1.6,1.5,2.3,2.2c0.3,0.3,0.6,0.6,0.7,0.9c0.1,0.2,0.2,0.3,0.2,0.4l-0.7-0.4l-0.8,0.6L363.4,401.1L363.4,401.1L363.4,401.1
		z M406.1,388.3c5.4,0,10.8-1.5,15.9-4.5l0,0l0,0c0,0-0.7-1.3-2.3-2.5c-1.6-1.1-4.4-2.5-8.9-2.5h-0.1c-5.4,0-11.9,1.8-19.5,5.4
		C391.5,384.4,397.4,388.3,406.1,388.3L406.1,388.3L406.1,388.3z M429.6,383.1c1,0,1.9-0.4,2.5-1.1c0.5-0.6,0.9-1.3,1.1-2.3
		c0.4-1.6,0.3-3.2,0.3-3.4c-0.4-0.2-0.8-0.3-1.3-0.3l-0.1,0c-2,0-3.6,1.7-4.3,3.5c-0.4,1-0.5,1.8-0.2,2.5
		C427.9,382.6,428.7,383.1,429.6,383.1L429.6,383.1z M388.2,378.3c13.9-2,19.8-7,22.3-10.9c2.7-4.1,2.1-7.9,2.1-8l0,0l0,0
		c0,0-0.9-0.2-2.1-0.2C406.7,359.2,397.3,361.1,388.2,378.3L388.2,378.3L388.2,378.3L388.2,378.3z M416.7,375.6c5.9,0,10.4-1,13.4-3
		c1.7-1.2,2.5-2.4,2.9-3.3c0.2-0.5,0.4-1.1,0.5-1.6c-0.2-0.1-2.6-1.1-6.2-1.3c-0.3,0-0.6,0-0.9,0c-4.6,0-11.6,1.5-18.9,8.6l0,0h0
		C410.8,375.3,413.9,375.6,416.7,375.6L416.7,375.6z M445.4,374.4c6.3,0,14.9-1.9,20.2-7.3l0,0l0,0c-0.1,0-5.9-1.5-12.4-1.6
		c-0.4,0-0.8,0-1.2,0c-5.9,0-10.4,1.1-13.3,3.4c-1,0.8-1.6,1.5-1.7,2.2c-0.1,0.6,0.2,1.2,0.8,1.7c1.3,1,3.8,1.6,7.2,1.6L445.4,374.4
		L445.4,374.4z M465.7,364c0.8,0,1.5-0.3,2-0.9c0.4-0.5,0.7-1.1,0.9-2c0.3-1.5,0.2-2.9,0.2-2.9v0c-0.3-0.1-0.6-0.2-1-0.2h0
		c-0.9,0-1.6,0.5-2.1,0.9c-0.6,0.6-1.1,1.3-1.4,2.1c-0.3,0.8-0.3,1.5-0.1,2.1C464.4,363.5,464.9,364,465.7,364L465.7,364z
		 M418.9,363c1,0,1.9-0.4,2.5-1.1c0.5-0.6,0.9-1.3,1.1-2.3c0.4-1.6,0.3-3.2,0.3-3.4c-0.4-0.2-0.8-0.3-1.3-0.3l-0.1,0
		c-2,0-3.6,1.7-4.3,3.5c-0.4,1-0.5,1.8-0.2,2.5C417.2,362.5,418,363,418.9,363L418.9,363z M441.7,362c12.6-0.4,19.1-4,22.4-6.9
		c1.8-1.6,2.9-3.3,3.4-4.4c0.5-1,0.7-1.8,0.7-2l0,0c0,0-1.2-0.4-3.1-0.5l-0.3,0C460.5,348.3,451.9,350.1,441.7,362L441.7,362
		L441.7,362z M428,360.8c10.1-1.5,15.9-5.9,18.9-9.3c3.2-3.5,4.1-6.8,4.2-7c0,0-1.3-0.3-3.1-0.4c-0.3,0-0.6,0-0.9,0
		C442,344.3,432.7,346.6,428,360.8L428,360.8L428,360.8z M480,355.9c3.3,0,6.5-0.4,9.6-1.1c5.3-1.3,7.6-3.4,8.6-4.8
		c0.6-0.8,0.8-1.6,0.8-2c0-0.3,0.1-0.6,0-0.9l0,0c0,0-3.5-1-8.4-1.1c-2.5,0-5,0.2-7.4,0.7c-8.4,1.7-12.8,8-12.8,8.1l0,0l0,0
		C470.3,354.8,474.4,355.9,480,355.9L480,355.9z M456.5,347.4c1,0,1.9-0.4,2.5-1c0.5-0.6,0.9-1.3,1.1-2.3c0.4-1.6,0.3-3.2,0.3-3.3
		c-0.4-0.2-0.8-0.3-1.3-0.3l-0.1,0c-2,0-3.6,1.7-4.3,3.5c-0.4,1-0.4,1.8-0.2,2.4C454.9,346.9,455.6,347.4,456.5,347.4L456.5,347.4z
		 M474.2,344.9c0.1,0,4.8-1.2,9.6-4.2c4.4-2.7,9.9-7.6,10.5-15.1v0l0,0c0,0-0.4-0.1-1-0.1c-0.1,0-0.2,0-0.3,0c-1.3,0-4,0.4-7.3,2.9
		C481.5,331.6,477.6,337.2,474.2,344.9L474.2,344.9z M462.6,344.5c0,0,3.4-1.4,7.6-4.9c3.9-3.3,9.4-9.2,13.4-18.7
		c0,0-0.9-0.5-2.3-0.6c-0.1,0-0.2,0-0.2,0c-0.1,0-0.2,0-0.4,0c-1.9,0.1-4.9,0.9-8.1,4.4C468.8,328.8,465.4,335.5,462.6,344.5
		L462.6,344.5L462.6,344.5L462.6,344.5z M492.5,343.6c3.9,0,5.2-2.1,5.6-3c0.6-1.5,0.4-3,0.4-3l0,0c-0.6-0.2-1.3-0.2-1.9-0.3l-0.1,0
		c-3,0-5.4,1.5-6.5,3.1c-0.2,0.3-0.8,1.4-0.3,2.2C490.1,343.3,491.1,343.6,492.5,343.6L492.5,343.6z M501.1,332.9
		c2.2,0,5.4-0.1,8.9-0.8c3.4-0.6,5.4-3.5,6.4-5.9c1.1-2.5,1.4-5,1.4-5h0c-10.6,0.3-15.6,3.4-18,6c-2.4,2.6-2.6,5.4-2.6,5.5h0
		C497.3,332.7,498.8,332.9,501.1,332.9L501.1,332.9z M490,321.8c0.9-1.1,1.7-2.2,2.4-3.4c1.3-2,2.4-4,2.4-5.7c0-1.6,0.4-5,0.6-6.9
		c0.3-2.4,0.6-4.4,0.6-4.6l0,0c-0.3,0.1-6.6,2.5-6.6,8.5C489.4,315.7,490,321.8,490,321.8L490,321.8L490,321.8L490,321.8z
		 M498.3,321.2c0.1,0,0.1,0,0.2,0c1.9-0.3,5.2-1.8,8.9-3.9c4.1-2.3,7.4-4.8,9.3-7c1.8-2,2.8-5.2,3.1-9.4c0.2-3,0-5.5-0.1-5.7
		c-0.3-0.1-0.7-0.2-1.1-0.2c-1.4,0-2.9,0.7-5,2.1c-1.6,1.1-3.3,2.6-5.2,4.4c-3.2,3.2-5.7,6.3-5.8,6.4l0,0c-0.2,0.4-2,3.7-3.4,6.8
		c-0.9,2-1.4,3.5-1.6,4.6c-0.1,0.6-0.1,1,0,1.4c0.1,0.2,0.2,0.3,0.3,0.4C498,321.2,498.2,321.2,498.3,321.2L498.3,321.2z"/>
</g>
<path class="st2" d="M596.5,78.9l-1.9,0.8l-0.7,0.3l-2.3-0.1l-2.1,1l-3.8,2.6l-0.2,0.1l-1.4,0.4l-1.3-0.6l-0.7,0.3l-0.3,1.5
	l-0.7,1.1l-0.9,0.6l-3,0.3l-2.6,1.3l-3.3-0.9l-1.5,0.6l-3.3,3l-1.7,0.8l-0.6,0l-2.2-0.1l-0.9,0.3l-1.4,1.4l-2.7,0.2l-0.8,0.6
	l-1.3,2.6l-1.4,1.4l-0.8,0.2l-0.9-0.3l-0.7,0.1l-0.3,1.7l-0.6,0.7l-1.8,0.6l-1.4,1.2l-1.2,0.6l-1.7,0h-0.4l-1.7,0.9l-3.1,0.3
	l-1.3,1.2l-0.3,0.3l-0.6,0.4l-1,0.6l-0.2,0.1l-1.2-0.2l-1.4,0.6l-0.6-0.9l-1,0.6l-1.3,0.1l-1.6-0.7l-1.2-0.5l-0.9,0.1l-0.3,1.6
	l0,0.2l-0.9,1.2l-1.7,1.1l-0.2,0.3l-2,2.6l-3.8,4l-3.2,1.6l-3.3,1l-2.3,1.9l-6.1,3l-9.6,4.8l-2,0.6l-2.8,0.4l-5,1.8l-4.4,1.3
	l-0.2,0.1l-0.9,0.3l-6.2,1.9l-2.9-0.3l-1.7,0.6l-4.5-0.5l-3.1,0.1l-2,0.4l-3.7,1.8l-6.3,3l-2.1,1.9l-3.2,1.7l-3.8,1.2l0-1.6l0-0.1
	l-1.3,0.4l-0.9,0.3l-3.1,0.5H431l-1.1-0.3l-0.2,0.1l-6.3,2.1l-7,0.7l-3.5,1.1l-2.6,0l-1.6,0.5l-3.2,0.4l-1.1-0.3l-0.3-0.1l-9.4,0.4
	l-4.3-0.5l-2,0.5l-3.4-1.2l-5-0.6l-1.2-0.4l-2.6-0.8l-1.2,0.7l-0.9,0.1l-2.1-0.8l-0.8,0l-1.8,0.6l-1-0.3l-0.9-0.8l-2.2-0.3l-1.3-1.1
	l-7.5,1l-2-0.6l-6.8-2l-1.1,0.1l-1.4,1l-2,0.7l-1.8,0.5l-2.4,0.1l-2.8-0.7l-2.9-1.4l-1.1-0.3l-2.4,0.2l-0.7,0.1l-4.4-2.3l-5.6-3.5
	l-3.8-1.8l-1.4-0.2l-0.2,0.7l0.7,2.2l0.2,2.2l-0.1,2.1l0,1.3l0.4,1.1l1.4,1.5l0.6,1.5l0.4,4.2l0,4.3l-0.7,6.8l-0.2,1l-0.8,3.5
	l-0.7,3.3l-2.8,8.7l-0.8,1.1l-1.9,1.3l-4.3,2.9l-3.2,1.8l-1,0.4l-2.6,0.2l-1.6-0.1l-2-1.1l-2-0.5l-2.6-1.9l-2.9-0.6l-3.2-1.8l-0.8-1
	l-1.7-0.2l-2.4-0.7v0l-0.9-0.3l-0.6-0.2l-3-0.1l-2.8-1.3l-1.5-0.4l-2-0.1l-2.1,1v0l-1.1,0.5l-1.4-0.5l-1,0.1l-1.1,1.7l-0.2,0.3
	l-0.8,0.4l-1,0l-0.8,0l-0.8,0.4l-1.1,0.5v0l-1,0.4l-0.5,0.2l0,0l-0.3,0.1l-0.5,0.1l-0.6,0.1l-1.1-0.7l-0.6-0.4l-1-0.2l-0.5,0.4
	l-0.1,1.8l-0.5,1.1l-1.6,1.4l-1.6,1.4l-1.1,1.6l-2.9,6.7l-1.8,2.7l-0.6,0.6l-1.9,2.1l-1.7,1.3l-3.9,3.1l-3.7,1.4l-3.2,0.7l-1.6,0
	l-3-0.4l-2.7-0.8l-2.9-1.8l-3.2-2.6l-4.6-4.6l-0.7-0.4l-0.1-0.1l-1.5-0.9l-1.1,0l-0.4,0.7l-0.2,1l-0.2,0.9l-0.5,5.1l0,0.3l0.3,2.1
	l3.5,4.9l1.1,2.6l0.2,0.3l0.7,1.2l0.6,0.9l0.1,0.1l1.2,3.6l-0.8,2l0.4,1.4l-1.1,0.8l-0.2,1.2l3.2,4l0.7,1.7l-0.8,2.4l-1.2,1.3
	l-0.3,0.4l0.2,1l1.5,1.3l2.5,2.2l1.3,3.3l1,0.9l1.2-0.2l0.6,0.5l1,0l1,1l0.6,0.3l1,0.5l0.8,1l0.2,3.1l1.5,3.9l0,2.1l0,0.3l0.9,1.6
	l0.3,1.2l-0.5,3.3l1.2,1l1.3-0.3l0.8,0.1l1.3,1.1l1.6,2.4l1.5-0.2l1,0.5l4.7,4.3l1.1,0.5l0.1,0l0.8,0.4l1,1l1.5-1l0.2,0l1.6-0.1
	l0.7,0.5l1.4,0.9l1.8,0l3.9,1.2l1.7,0.4l3.4,2.1l1.5,0.9l0.9,0.7l1.1,0.9l2.3,1l2,0.5l1.1,0.3l0.8,0.3l0,0l0,0l0,0l4.2,1.6l2.3,0.5
	l2.1,0.8l1.5,0.6l1.1,0l1.6-1.3l1.6-0.1l1.3,0.3l1.3-0.2l2-1.2l0.4-0.6l1.4-0.7l4.8-0.6l1.4,0.5l3.6-1.6l2.4,0.7l2.1-0.8l4.6,1
	l1.2,0.9l1.4,1.6l0.2,0l1.5,0l-0.6,1.1l2,2.1l1.8,2.8l0.1,0.4l1.3,3.9l1,1.4l0.7,1.9l0,1.3l-1.1,0.8l-0.2,0.5l-0.1,0.2l0.2,0.5
	l0.4-0.2l0.8-0.4l0.9-0.1l1.7,0.2l1.1,0.1l1.7-0.9l1.1-0.6l1.8,0.8l2,0l0.8,0.4l2.4,1.1l1.2,0.1l0.5-0.3l0.3-0.7l-0.1-0.8l-0.9-1.1
	l-2-2.4l-0.8-1.2l-0.6-1.8l-0.2-2.2l-0.1-1.5l0.3-2l0.5-0.7l0.4-1.6h0l0.1-0.4l1.1-1.5l3-1.9l3.2-2.9l2.5-1.7l2.6-1.1l0.1-0.3
	l0.3,0.1l6.6-2.3l0.1,0l3-0.5l19.9,1.4l0.7-0.2l0,0l0.7-1.9l0.4-0.3l0.2-0.2l2.2-1l1-0.1l2.8,0.7l1.2,0.3l1.9-1l1.3,0l2.7-1.5l1.7,0
	l0.6-0.3l3.3-2.4l3.2-0.9l0.8-0.4l0.3-0.2l3.2-1.7l2.1-1.6l1.8-0.9l2-0.5l5.1-0.4l1-1.7l2.2-0.3l1.3-1.5l1.5-0.6l1.1-1.6l0.9-1.3
	l1.3-0.7l4.1-0.3l4.8,0.6l0.6-0.4l1.1-3.9l1.1-0.7l3.1-4.5l0-1.6l0-1.4l0.5-1.9l-0.3-3.5l0.4-3.6l1.9-4.5l1.7-1.8l2.7-1.8l1.4-0.6
	l2-0.3v0l0.3-0.1l0.5-0.1l6.7-0.1c0.1-0.1,2.5,0,2.5,0l2.3,0l5.7,1l0.4,0.1l1.9,0.6l2.2,1.7l2.3,2.3l0.4,0.4l1.5,0.6l0.5,0.2
	l1.3-0.2l1.8-0.9l1.4-1.1l1.8-1l0-0.1l1-1.6l0,0l0,0l0,0l0,0l0.4-0.6l3.6-1.4l4.2-0.2l0.5-0.3l0.3-0.1l1.1-1.3l1,0l2.5,0.9l1.8-0.4
	l1.4,0.6l1.1-0.1l2.1-0.2l2.2,1.6l1.3,0.2l4.5,2.6l0.2,0l0.1,0l0.3,0l0.5-0.2l0.8-0.2l0.1,0l0.1,0.1l0.5,0.7l0.7,0.1l0.8-1.1
	l-0.3-0.5l-0.1-0.2l-1.6-0.3l-1.5-2.5l1.4-1.5l-2.2-2.7L508,215l-0.1-0.2l-0.8-1.1l-3.8-5.8l-4.9-3.9l0,0l-1.7-1.4l0,0L496,202
	l-2.6-2.7l-1.9-2.5l-0.2-0.5l-0.4-0.9l-1.1-2.5l-2-1.5l-1.6-1.8l-0.1-0.1l-3.3-4.5l-0.5-0.8l-0.8-0.5l-1.7,0l-0.2-0.2l-0.1-0.1
	l0.1-0.1l0.8-0.8l0.9-0.2l0.4-0.9l-1.7-4.9l0-0.2l-0.1-1.6l1.4-7.1l0.2-0.9l2.3-4.8l1.5-1.2l1.6-3.1l1.4-2l1.3-1.3l0.2-0.1l2.3-1.4
	l2-0.3l1.9-0.3l3.3,1l3.1-0.1l0.6-0.1l1.4-0.2l2.3-0.7l1.1-0.7l0.6-0.9l1.2-4l0.4-1.3l0.7-1.4l4.2-4.9l3.2-3l7.2-5.3l3.5-2.1
	l1.8-1.1l16.1-7.2l4.2-4.2l2.2-2.2l3.9-2.6l4.5-1.9l3.9-3.1l0.8-1.1l1.1-3.4l0.9-0.2l0.8-1.7l0.2-0.5l3.2-2.2l0.4-0.2l12.3-6.2
	l1.8,0.2l1-1.4l3.6-0.6l0.7-0.1l0.9-0.4l0.8-1.3v-0.3l0.1-3.4l0.8-0.9l0.4-2.3l0.4-0.5l0.4-0.5l1-0.7L596.5,78.9L596.5,78.9z"/>
</svg>
