<?xml version="1.0" encoding="utf-8"?>
<!-- Generator: Adobe Illustrator 20.0.0, SVG Export Plug-In . SVG Version: 6.00 Build 0)  -->
<!DOCTYPE svg PUBLIC "-//W3C//DTD SVG 1.1//EN" "http://www.w3.org/Graphics/SVG/1.1/DTD/svg11.dtd">
<svg version="1.1" id="Layer_1" xmlns="http://www.w3.org/2000/svg" xmlns:xlink="http://www.w3.org/1999/xlink" x="0px" y="0px"
	 viewBox="0 0 800 480" style="enable-background:new 0 0 800 480;" xml:space="preserve">
<style type="text/css">
	.st0{fill:#108C00;}
	.st1{fill:#FFD600;}
	.st2{fill:#FFFFFF;}
	.st3{fill:#E72910;}
	.st4{fill:#FFE700;}
	.st5{fill:#009200;stroke:#000000;}
	.st6{fill:#A95600;stroke:#000000;}
	.st7{fill:#FFFF00;stroke:#000000;}
	.st8{fill:#804BFF;stroke:#000000;}
	.st9{fill:#C90000;stroke:#000000;}
	.st10{fill:#FF0000;stroke:#000000;}
</style>
<g>
	<g>
		<g transform="translate(79.7) scale(.94)">
			<path class="st0" d="M-84.8,0h851.1v510.6H-84.8V0z"/>
			<path class="st1" d="M-84.8,176.5h851.1v50.2H-84.8V176.5z"/>
			<path class="st1" d="M272.6,0H321v510.4h-48.4V0z"/>
			<path d="M319.3,0h48.4v510.4h-48.4V0z"/>
			<path d="M-84.8,224.9h851.1v50.2H-84.8V224.9z"/>
			<path class="st2" d="M-84.8,275.1h851.1v50.2H-84.8V275.1z"/>
			<path class="st2" d="M367.7,0h48.4v510.4h-48.4V0z"/>
			<g>
				<path class="st3" d="M344.4,391.2L344.4,391.2c-75.6,0-136.9-61.6-136.9-137.5l0,0c0-75.9,61.3-137.5,136.9-137.5l0,0
					c75.6,0,136.9,61.6,136.9,137.5l0,0C481.3,329.6,420,391.2,344.4,391.2z"/>
				<g>
					<path d="M337.2,134.2c0-0.3,5.6-16,5.6-16l5.1,15.7c0,0,17.1,0.5,17.1,0.3s-13.5,10.3-13.5,10.3s6.4,18.1,6.1,17.5
						c-0.3-0.5-14.8-10.8-14.8-10.8s-14.8,10.3-14.5,10.3s5.6-17,5.6-17l-13.3-10.1L337.2,134.2L337.2,134.2z"/>
					<path class="st4" d="M338,135c0-0.2,4.9-13.9,4.9-13.9l4.4,13.6c0,0,14.8,0.4,14.8,0.2s-11.7,8.9-11.7,8.9s5.5,15.6,5.3,15.2
						c-0.2-0.4-12.8-9.4-12.8-9.4s-12.8,8.9-12.6,8.9c0.2,0,4.9-14.8,4.9-14.8l-11.5-8.7L338,135L338,135z"/>
					<path class="st0" d="M340,137.3c0-0.1,2.8-8,2.8-8l2.5,7.9c0,0,8.5,0.3,8.5,0.1s-6.7,5.2-6.7,5.2s3.2,9,3.1,8.8
						c-0.1-0.3-7.4-5.4-7.4-5.4s-7.4,5.2-7.3,5.2s2.8-8.5,2.8-8.5l-6.6-5L340,137.3L340,137.3z"/>
				</g>
				<g>
					<path d="M443.6,209.1c0-0.3,5.6-16,5.6-16l5.1,15.7c0,0,17.1,0.5,17.1,0.3s-13.5,10.3-13.5,10.3s6.4,18.1,6.1,17.5
						c-0.3-0.5-14.8-10.8-14.8-10.8s-14.8,10.3-14.5,10.3s5.6-17,5.6-17l-13.3-10L443.6,209.1L443.6,209.1z"/>
					<path class="st4" d="M444.3,209.9c0-0.2,4.9-13.9,4.9-13.9l4.4,13.6c0,0,14.8,0.4,14.8,0.2s-11.7,8.9-11.7,8.9
						s5.5,15.6,5.3,15.2c-0.2-0.4-12.8-9.4-12.8-9.4s-12.8,8.9-12.6,8.9s4.9-14.8,4.9-14.8l-11.5-8.7H444.3L444.3,209.9z"/>
					<path class="st0" d="M446.4,212.2c0-0.1,2.8-8,2.8-8l2.5,7.9c0,0,8.5,0.3,8.5,0.1s-6.7,5.2-6.7,5.2s3.2,9,3.1,8.8
						c-0.1-0.3-7.4-5.4-7.4-5.4s-7.4,5.2-7.3,5.2s2.8-8.5,2.8-8.5l-6.6-5L446.4,212.2L446.4,212.2z"/>
				</g>
				<g>
					<path d="M412.6,328c0-0.3,5.6-16,5.6-16l5.1,15.7c0,0,17.1,0.5,17.1,0.3s-13.5,10.3-13.5,10.3s6.4,18.1,6.1,17.5
						c-0.3-0.5-14.8-10.8-14.8-10.8s-14.8,10.3-14.5,10.3s5.6-17,5.6-17L396,328.2L412.6,328L412.6,328z"/>
					<path class="st4" d="M413.3,328.8c0-0.2,4.9-13.9,4.9-13.9l4.4,13.6c0,0,14.8,0.4,14.8,0.2s-11.7,8.9-11.7,8.9
						s5.5,15.6,5.3,15.2s-12.8-9.4-12.8-9.4s-12.8,8.9-12.6,8.9s4.9-14.8,4.9-14.8L399,329L413.3,328.8L413.3,328.8z"/>
					<path class="st0" d="M415.4,331c0-0.1,2.8-8,2.8-8l2.5,7.9c0,0,8.5,0.3,8.5,0.1s-6.7,5.2-6.7,5.2s3.2,9,3.1,8.8
						c-0.1-0.3-7.4-5.4-7.4-5.4s-7.4,5.2-7.3,5.2s2.8-8.5,2.8-8.5l-6.6-5L415.4,331L415.4,331z"/>
				</g>
				<g>
					<path d="M263.9,328c0-0.3,5.6-16,5.6-16l5.1,15.7c0,0,17.1,0.5,17.1,0.3s-13.5,10.3-13.5,10.3s6.4,18.1,6.1,17.5
						c-0.3-0.5-14.8-10.8-14.8-10.8s-14.8,10.3-14.5,10.3s5.6-17,5.6-17l-13.3-10.1L263.9,328L263.9,328z"/>
					<path class="st4" d="M264.6,328.8c0-0.2,4.9-13.9,4.9-13.9l4.4,13.6c0,0,14.8,0.4,14.8,0.2s-11.7,8.9-11.7,8.9
						s5.5,15.6,5.3,15.2s-12.8-9.4-12.8-9.4s-12.8,8.9-12.6,8.9c0.2,0,4.9-14.8,4.9-14.8l-11.5-8.7L264.6,328.8L264.6,328.8z"/>
					<path class="st0" d="M266.7,331c0-0.1,2.8-8,2.8-8l2.5,7.9c0,0,8.5,0.3,8.5,0.1s-6.7,5.2-6.7,5.2s3.2,9,3.1,8.8
						c-0.1-0.3-7.4-5.4-7.4-5.4s-7.4,5.2-7.3,5.2s2.8-8.5,2.8-8.5l-6.6-5L266.7,331L266.7,331z"/>
				</g>
				<g>
					<path d="M236.7,206.1c0-0.3,5.6-16,5.6-16l5.1,15.7c0,0,17.1,0.5,17.1,0.3S251,216.4,251,216.4s6.4,18.1,6.1,17.5
						c-0.3-0.5-14.8-10.8-14.8-10.8s-14.8,10.3-14.5,10.3s5.6-17,5.6-17l-13.3-10.1L236.7,206.1L236.7,206.1z"/>
					<path class="st4" d="M237.5,206.9c0-0.2,4.9-13.9,4.9-13.9l4.4,13.6c0,0,14.8,0.4,14.8,0.2s-11.7,8.9-11.7,8.9
						s5.5,15.6,5.3,15.2c-0.2-0.4-12.8-9.4-12.8-9.4s-12.8,8.9-12.6,8.9s4.9-14.8,4.9-14.8l-11.5-8.7H237.5L237.5,206.9z"/>
					<path class="st0" d="M239.5,209.1c0-0.1,2.8-8,2.8-8l2.5,7.9c0,0,8.5,0.3,8.5,0.1s-6.7,5.2-6.7,5.2s3.2,9,3.1,8.8
						c-0.1-0.3-7.4-5.4-7.4-5.4s-7.4,5.2-7.3,5.2s2.8-8.5,2.8-8.5l-6.6-5L239.5,209.1z"/>
				</g>
				<g>
					<path d="M411.3,171.5c0,0.3-5.6,16-5.6,16l-5.1-15.7c0,0-17.1-0.5-17.1-0.3s13.5-10.3,13.5-10.3s-6.4-18.1-6.1-17.5
						c0.3,0.5,14.8,10.8,14.8,10.8s14.8-10.3,14.5-10.3s-5.6,17-5.6,17l13.3,10.1L411.3,171.5L411.3,171.5z"/>
					<path class="st4" d="M410.5,170.7c0,0.2-4.9,13.9-4.9,13.9l-4.4-13.6c0,0-14.8-0.4-14.8-0.2s11.7-8.9,11.7-8.9
						s-5.5-15.6-5.3-15.2c0.2,0.4,12.8,9.4,12.8,9.4s12.8-8.9,12.6-8.9s-4.9,14.8-4.9,14.8l11.5,8.7H410.5L410.5,170.7z"/>
					<path class="st0" d="M408.5,168.4c0,0.1-2.8,8-2.8,8l-2.5-7.9c0,0-8.5-0.3-8.5-0.1s6.7-5.2,6.7-5.2s-3.2-9-3.1-8.8
						c0.1,0.3,7.4,5.4,7.4,5.4s7.4-5.2,7.3-5.2s-2.8,8.5-2.8,8.5l6.6,5L408.5,168.4L408.5,168.4z"/>
				</g>
				<g>
					<path d="M454,287.6c0,0.3-5.6,16-5.6,16l-5.1-15.7c0,0-17.1-0.5-17.1-0.3s13.5-10.3,13.5-10.3s-6.4-18.1-6.1-17.5
						c0.3,0.5,14.8,10.8,14.8,10.8s14.8-10.3,14.5-10.3s-5.6,17-5.6,17l13.3,10.1L454,287.6L454,287.6z"/>
					<path class="st4" d="M453.2,286.8c0,0.2-4.9,13.9-4.9,13.9L444,287c0,0-14.8-0.4-14.8-0.2s11.7-8.9,11.7-8.9
						s-5.5-15.6-5.3-15.2s12.8,9.4,12.8,9.4s12.8-8.9,12.6-8.9s-4.9,14.8-4.9,14.8l11.5,8.7L453.2,286.8L453.2,286.8z"/>
					<path class="st0" d="M451.2,284.5c0,0.1-2.8,8-2.8,8l-2.5-7.9c0,0-8.5-0.3-8.5-0.1s6.7-5.2,6.7-5.2s-3.2-9-3.1-8.8
						c0.1,0.3,7.4,5.4,7.4,5.4s7.4-5.2,7.3-5.2s-2.8,8.5-2.8,8.5l6.6,5L451.2,284.5L451.2,284.5z"/>
				</g>
				<g>
					<path d="M348.1,372.6c0,0.3-5.6,16-5.6,16l-5.1-15.7c0,0-17.1-0.5-17.1-0.3s13.5-10.3,13.5-10.3s-6.4-18.1-6.1-17.5
						c0.3,0.5,14.8,10.8,14.8,10.8s14.8-10.3,14.5-10.3s-5.6,17-5.6,17l13.3,10.1L348.1,372.6L348.1,372.6z"/>
					<path class="st4" d="M347.4,371.8c0,0.2-4.9,13.9-4.9,13.9l-4.4-13.6c0,0-14.8-0.4-14.8-0.2S335,363,335,363
						s-5.5-15.6-5.3-15.2s12.8,9.4,12.8,9.4s12.8-8.9,12.6-8.9s-4.9,14.8-4.9,14.8l11.5,8.7L347.4,371.8L347.4,371.8z"/>
					<path class="st0" d="M345.3,369.5c0,0.1-2.8,8-2.8,8l-2.5-7.9c0,0-8.5-0.3-8.5-0.1s6.7-5.2,6.7-5.2s-3.2-9-3.1-8.8
						c0.1,0.3,7.4,5.4,7.4,5.4s7.4-5.2,7.3-5.2s-2.8,8.5-2.8,8.5l6.6,5L345.3,369.5L345.3,369.5z"/>
				</g>
				<g>
					<path d="M248.6,287.6c0,0.3-5.6,16-5.6,16l-5.1-15.7c0,0-17.1-0.5-17.1-0.3s13.5-10.3,13.5-10.3s-6.4-18.1-6.1-17.5
						c0.3,0.5,14.8,10.8,14.8,10.8s14.8-10.3,14.5-10.3s-5.6,17-5.6,17l13.3,10.1L248.6,287.6L248.6,287.6z"/>
					<path class="st4" d="M247.9,286.8c0,0.2-4.9,13.9-4.9,13.9l-4.4-13.6c0,0-14.8-0.4-14.8-0.2s11.7-8.9,11.7-8.9
						s-5.5-15.6-5.3-15.2s12.8,9.4,12.8,9.4s12.8-8.9,12.6-8.9s-4.9,14.8-4.9,14.8l11.5,8.7L247.9,286.8L247.9,286.8z"/>
					<path class="st0" d="M245.8,284.5c0,0.1-2.8,8-2.8,8l-2.5-7.9c0,0-8.5-0.3-8.5-0.1s6.7-5.2,6.7-5.2s-3.2-9-3.1-8.8
						c0.1,0.3,7.4,5.4,7.4,5.4s7.4-5.2,7.3-5.2s-2.8,8.5-2.8,8.5l6.6,5L245.8,284.5L245.8,284.5z"/>
				</g>
				<g>
					<path d="M285.3,173.2c0,0.3-5.6,16-5.6,16l-5.1-15.7c0,0-17.1-0.5-17.1-0.3s13.5-10.3,13.5-10.3s-6.4-18.1-6.1-17.5
						c0.3,0.5,14.8,10.8,14.8,10.8s14.8-10.3,14.5-10.3s-5.6,17-5.6,17l13.3,10.1L285.3,173.2L285.3,173.2z"/>
					<path class="st4" d="M284.6,172.4c0,0.2-4.9,13.9-4.9,13.9l-4.4-13.6c0,0-14.8-0.4-14.8-0.2s11.7-8.9,11.7-8.9
						s-5.5-15.6-5.3-15.2c0.2,0.4,12.8,9.4,12.8,9.4s12.8-8.9,12.6-8.9c-0.2,0-4.9,14.8-4.9,14.8l11.5,8.7H284.6L284.6,172.4z"/>
					<path class="st0" d="M282.5,170.1c0,0.1-2.8,8-2.8,8l-2.5-7.9c0,0-8.5-0.3-8.5-0.1s6.7-5.2,6.7-5.2s-3.2-9-3.1-8.8
						c0.1,0.3,7.4,5.4,7.4,5.4s7.4-5.2,7.3-5.2s-2.8,8.5-2.8,8.5l6.6,5L282.5,170.1L282.5,170.1z"/>
				</g>
				<g transform="matrix(1.04 0 0 1.04 -250.6 359.43)">
					<g transform="matrix(.16 -.02 0 .18 429.84 -215.63)">
						<path class="st5" d="M939,703.6c23.8,0,43.1,85,43.1,189.8s-19.3,189.8-43.1,189.8s-43.1-85-43.1-189.8S915.2,703.6,939,703.6
							z"/>
						<path class="st5" d="M994.1,707c25.5,0,46.2,85,46.2,189.8s-20.7,189.8-46.2,189.8s-46.2-85-46.2-189.8S968.6,707,994.1,707z"
							/>
						<path class="st5" d="M972.3,693.6c20.4,0,37,93.5,37,208.8s-16.6,208.8-37,208.8s-37-93.5-37-208.8S951.9,693.6,972.3,693.6z"
							/>
					</g>
					<g transform="translate(72.86 -9.8)">
						<path class="st6" d="M471.9-55.5c6-0.3,3.3-3.3,6.3-5s7.3-0.7,8.7,1.3s0.3,4,2,4s46.9-2.5,48.6-0.9c1.7,1.7,2,5,0.3,6.3
							s-58.9,2.9-60.9,1.5C474.9-49.5,471.9-55.2,471.9-55.5L471.9-55.5z"/>
						<path class="st7" d="M503.2-43.7c0,4,6.8,2.8,7,6.1c-0.1,3.5-11.5,0.3-11.8-6.1c0.3-6.5,11.3-9.8,11.5-6.1
							C510.1-46.7,503.2-47.7,503.2-43.7z"/>
						<path class="st7" d="M507.2-43.7c0,4,6.8,2.8,7,6.1c-0.1,3.5-11.5,0.3-11.8-6.1c0.3-6.5,11.3-9.8,11.5-6.1
							C514.1-46.7,507.2-47.7,507.2-43.7z"/>
						<path class="st7" d="M511.5-43.8c0,4,6.8,2.8,7,6.1c-0.1,3.5-11.5,0.3-11.8-6.1c0.3-6.5,11.3-9.8,11.5-6.1
							C518.4-46.9,511.5-47.8,511.5-43.8z"/>
						<path class="st7" d="M515.5-43.8c0,4,6.8,2.8,7,6.1c-0.1,3.5-11.5,0.3-11.8-6.1c0.3-6.5,11.3-9.8,11.5-6.1
							C522.4-46.8,515.5-47.8,515.5-43.8z"/>
						
							<ellipse transform="matrix(1.738953e-02 -0.9998 0.9998 1.738953e-02 561.0187 499.8229)" class="st6" cx="534.8" cy="-35.5" rx="3.9" ry="3.9"/>
					</g>
					<g transform="rotate(-5.8 688.37 -625.22)">
						
							<ellipse transform="matrix(-1 5.720880e-06 -5.720880e-06 -1 1051.2064 -132.3471)" class="st5" cx="525.6" cy="-66.2" rx="3.5" ry="7.7"/>
						
							<ellipse transform="matrix(-1 5.720880e-06 -5.720880e-06 -1 1039.7664 -134.5471)" class="st5" cx="519.9" cy="-67.3" rx="3.5" ry="7.7"/>
						
							<ellipse transform="matrix(-1 5.720880e-06 -5.720880e-06 -1 1032.9662 -150.1469)" class="st5" cx="516.5" cy="-75.1" rx="3.5" ry="7.7"/>
						
							<ellipse transform="matrix(-1 5.720880e-06 -5.720880e-06 -1 1041.7219 -153.5471)" class="st5" cx="520.9" cy="-76.8" rx="3.3" ry="8.5"/>
						
							<ellipse transform="matrix(-1 5.720880e-06 -5.720880e-06 -1 1057.9618 -149.0271)" class="st5" cx="529" cy="-74.5" rx="3.3" ry="8"/>
						
							<ellipse transform="matrix(-1 5.720880e-06 -5.720880e-06 -1 1049.4019 -155.3869)" class="st5" cx="524.7" cy="-77.7" rx="3.3" ry="8"/>
						
							<ellipse transform="matrix(-1 5.720882e-06 -5.720882e-06 -1 1039.0819 -164.3869)" class="st5" cx="519.5" cy="-82.2" rx="3.3" ry="8"/>
						
							<ellipse transform="matrix(-1 5.720880e-06 -5.720880e-06 -1 1029.1617 -170.1069)" class="st5" cx="514.6" cy="-85.1" rx="3.3" ry="8"/>
					</g>
					<path class="st8" d="M565.9-143.6c0,0-11.7,10.1-10.1,36.9c1.8,27,26.5,39.5,26.5,39.5s6.2-7.7,5.2-29.5
						c-2.1-31.8-13.9-45.7-13.9-45.7L565.9-143.6L565.9-143.6z"/>
					<g transform="rotate(4.47 180.98 769.89)">
						
							<ellipse transform="matrix(4.918102e-06 1 -1 4.918102e-06 444.1735 -606.4291)" class="st5" cx="525.3" cy="-81.1" rx="7.7" ry="3.5"/>
						
							<ellipse transform="matrix(4.918102e-06 1 -1 4.918102e-06 437.4735 -601.7091)" class="st5" cx="519.6" cy="-82.1" rx="7.7" ry="3.5"/>
						
							<ellipse transform="matrix(4.918102e-06 1 -1 4.918102e-06 426.1737 -606.1091)" class="st5" cx="516.1" cy="-90" rx="7.7" ry="3.5"/>
						
							<ellipse transform="matrix(4.918102e-06 1 -1 4.918102e-06 428.8736 -612.2869)" class="st5" cx="520.6" cy="-91.7" rx="8.5" ry="3.3"/>
						
							<ellipse transform="matrix(4.918102e-06 1 -1 4.918102e-06 439.2336 -618.1068)" class="st5" cx="528.7" cy="-89.4" rx="8" ry="3.3"/>
						
							<ellipse transform="matrix(4.918102e-06 1 -1 4.918102e-06 431.8536 -617.0268)" class="st5" cx="524.4" cy="-92.6" rx="8" ry="3.3"/>
						
							<ellipse transform="matrix(4.918102e-06 1 -1 4.918102e-06 422.1535 -616.3669)" class="st5" cx="519.3" cy="-97.1" rx="8" ry="3.3"/>
						
							<ellipse transform="matrix(4.918102e-06 1 -1 4.918102e-06 414.3937 -614.2068)" class="st5" cx="514.3" cy="-99.9" rx="8" ry="3.3"/>
					</g>
					<path class="st9" d="M578.1-122.1c5.1-1.9,14.3,9,20.5,24.5c6.2,15.4,7,29.5,1.9,31.5c-5.1,1.9-14.3-9-20.5-24.5
						S572.9-120.2,578.1-122.1z"/>
					<g transform="rotate(1.02 242.4 -1957.8)">
						
							<ellipse transform="matrix(4.221141e-06 1 -1 4.221141e-06 488.075 -743.2444)" class="st5" cx="615.7" cy="-127.6" rx="3.9" ry="4.3"/>
						
							<ellipse transform="matrix(4.221140e-06 1 -1 4.221140e-06 483.8951 -749.8315)" class="st5" cx="616.9" cy="-133" rx="3.9" ry="3.8"/>
						
							<ellipse transform="matrix(4.221141e-06 1 -1 4.221141e-06 478.6951 -744.6915)" class="st5" cx="611.7" cy="-133" rx="3.9" ry="3.8"/>
						
							<ellipse transform="matrix(4.221142e-06 1 -1 4.221142e-06 472.3101 -754.6767)" class="st5" cx="613.5" cy="-141.2" rx="3.5" ry="4"/>
						
							<ellipse transform="matrix(4.221141e-06 1 -1 4.221141e-06 467.3702 -758.6165)" class="st5" cx="613" cy="-145.6" rx="3.5" ry="4"/>
						
							<ellipse transform="matrix(4.221141e-06 1 -1 4.221141e-06 470.8352 -742.5114)" class="st5" cx="606.7" cy="-135.8" rx="3.9" ry="3.8"/>
						
							<ellipse transform="matrix(4.221141e-06 1 -1 4.221141e-06 469.0752 -746.3513)" class="st5" cx="607.7" cy="-138.6" rx="3.9" ry="3.8"/>
						
							<ellipse transform="matrix(4.221141e-06 1 -1 4.221141e-06 462.7752 -743.8444)" class="st5" cx="603.3" cy="-140.5" rx="3.9" ry="4.3"/>
						
							<ellipse transform="matrix(4.221142e-06 1 -1 4.221142e-06 458.6702 -761.1565)" class="st5" cx="609.9" cy="-151.2" rx="3.5" ry="4"/>
						
							<ellipse transform="matrix(4.221140e-06 1 -1 4.221140e-06 459.7952 -747.8114)" class="st5" cx="603.8" cy="-144" rx="3.9" ry="3.8"/>
						
							<ellipse transform="matrix(4.221141e-06 1 -1 4.221141e-06 455.5952 -735.9714)" class="st5" cx="595.8" cy="-140.2" rx="3.9" ry="3.8"/>
						
							<ellipse transform="matrix(4.221141e-06 1 -1 4.221141e-06 456.1751 -737.9315)" class="st5" cx="597.1" cy="-140.9" rx="3.9" ry="3.8"/>
						
							<ellipse transform="matrix(4.221141e-06 1 -1 4.221141e-06 454.5952 -742.7713)" class="st5" cx="598.7" cy="-144.1" rx="3.9" ry="3.8"/>
					</g>
					<g transform="matrix(.18 0 0 .2 420.99 -216.8)">
						<path class="st5" d="M864.6,465.1c36.5-11.2,99.2,59.9,140.1,158.7s44.4,188,7.9,199.1c-36.5,11.2-99.2-59.9-140.1-158.7
							S828.1,476.3,864.6,465.1z"/>
						<path class="st5" d="M978.1,637.4c6.8-2.9,19.5,11.5,28.4,32.2s10.7,39.8,4,42.7c-6.8,2.9-19.5-11.5-28.4-32.2
							C973.1,659.4,971.3,640.3,978.1,637.4z"/>
						<path class="st5" d="M985.6,672.7c54.8,68.1,46.6,110.3,39.8,146.1c-16.7-41.8-25.7-68-80.5-136.1s-25.5-114.3-21-138.9
							C931.9,565.3,930.8,604.6,985.6,672.7L985.6,672.7z"/>
						<path class="st5" d="M989.4,726.8c54.8,68.1,46.6,110.3,39.8,146.1c-16.7-41.8-25.7-68-80.5-136.1s-25.5-114.3-21-138.9
							C935.7,619.4,934.7,658.7,989.4,726.8L989.4,726.8z"/>
						<path class="st5" d="M993.9,770c56.5,66.9,49.4,109.3,43.5,145.2c-17.8-41.4-27.5-67.5-84-134.4S925.1,667,929,642.3
							C937.4,663.8,937.3,703.1,993.9,770L993.9,770z"/>
						<path class="st5" d="M922.8,547.3c13.2-2.9,36.8,24.6,52.5,61.6c15.8,37,17.8,69.3,4.6,72.2s-36.8-24.6-52.5-61.6
							C911.6,582.6,909.6,550.2,922.8,547.3z"/>
						<path class="st5" d="M912.2,590.9c12-1.7,31.6,21.6,43.7,52s12.3,56.4,0.3,58.1c-12,1.7-31.6-21.6-43.7-52
							C900.4,618.6,900.2,592.6,912.2,590.9z"/>
						<path class="st5" d="M876.9,612.7c12-1.5,30.8,22.2,42.1,52.8s10.7,56.7-1.3,58.1c-12,1.5-30.8-22.2-42.1-52.8
							C864.3,640.2,864.9,614.2,876.9,612.7z"/>
						<path class="st5" d="M903.8,534.2c9.6-1.5,25.9,15.6,36.5,38.1s11.4,42,1.9,43.5c-9.6,1.5-25.9-15.6-36.5-38.1
							C895.1,555.2,894.2,535.7,903.8,534.2z"/>
						<path class="st5" d="M890.5,554c9.8-1,25,17.1,34,40.3s8.4,42.8-1.4,43.8c-9.8,1-25-17.1-34-40.3S880.7,555,890.5,554z"/>
						<path class="st5" d="M887.9,571.7c15.6,40.1,21.4,76.1,12.9,80.2c-8.5,4.1-28.1-25.1-43.8-65.2"/>
						<path class="st5" d="M888.8,507.4c9.8-1,25,17.1,34,40.3s8.4,42.8-1.4,43.8c-9.8,1-25-17.1-34-40.3
							C878.4,528,879,508.4,888.8,507.4z"/>
						<path class="st5" d="M862.3,523.6c9.8-0.7,24.7,17.7,33.2,41.1s7.6,43-2.2,43.8s-24.7-17.7-33.2-41.1
							C851.5,544,852.5,524.4,862.3,523.6z"/>
						<path class="st5" d="M862.2,517.5c15.6,27.2,23.8,52.4,18.3,56.3c-5.5,3.9-22.7-15-38.4-42.2"/>
						<path class="st5" d="M873.8,500c15.6,27.2,23.8,52.4,18.3,56.3c-5.5,3.9-22.7-15-38.4-42.2"/>
						<path class="st5" d="M924.3,509.6c21.8,37.4,33.1,72.1,25.3,77.4s-31.8-20.8-53.5-58.2"/>
						<path class="st5" d="M891.3,483.7c15.6,29.9,23.8,57.7,18.3,62s-22.7-16.5-38.4-46.4"/>
					</g>
					<g>
						<path class="st8" d="M585.5-140.9c-2,2,0.1,5.5,1.9,6.7c2.1,1.7,13.9,12.8,21.8,2.6C602.7-131.3,590.3-145.4,585.5-140.9
							L585.5-140.9z"/>
						<path class="st8" d="M584.1-146.7c-2,2,0.1,5.5,1.9,6.7c2.1,1.7,13.9,12.8,21.8,2.6C601.3-137.2,588.9-151.2,584.1-146.7
							L584.1-146.7z"/>
						<path class="st8" d="M582.3-152.4c-2,2,0.1,5.5,1.9,6.7c2.1,1.7,13.9,12.8,21.8,2.6C599.5-142.8,587.1-156.9,582.3-152.4
							L582.3-152.4z"/>
						<path class="st8" d="M578.5-158.8c-2,2,0.1,5.5,1.9,6.7c2.1,1.7,13.9,12.8,21.8,2.6C595.7-149.2,583.2-163.3,578.5-158.8
							L578.5-158.8z"/>
					</g>
					<g transform="rotate(1.02 -589.59 681.63)">
						<path class="st8" d="M545.7-181.6c3.8-3,10.8-4,16.5-1.2c4.7,2.3,12.8,11.7,18.7,13.9c-4,0.8-6.5,0.2-9.2-1
							c-5,3.9-6.8,4.5-12,5.4c-7.2,1.2-13.4-0.7-15.7-4.6C541.7-172.8,542.4-178.8,545.7-181.6L545.7-181.6z"/>
						
							<ellipse transform="matrix(4.221140e-06 1 -1 4.221140e-06 379.6158 -734.1553)" class="st10" cx="556.9" cy="-177.3" rx="1.9" ry="3.5"/>
						<path class="st7" d="M546.1-172c2.6-1,5.1-0.7,5.8,0.8s-1,3.5-3.5,4.6c-2.6,1-5.1,0.7-5.8-0.8S543.6-171,546.1-172z"/>
						<ellipse transform="matrix(4.221140e-06 1 -1 4.221140e-06 380.3493 -722.3404)" cx="551.3" cy="-171" rx="1.2" ry="1.2"/>
						<path class="st7" d="M552.8-174.7c0.4,1.4-0.7,3.4-3.3,4.2c-2.7,1.1-4.6,3.3-5.6,7c-4.7-8.3-2.3-11.9,2.1-12.8
							C549.8-177.4,552.1-177.4,552.8-174.7L552.8-174.7z"/>
						<ellipse transform="matrix(4.221141e-06 1 -1 4.221141e-06 375.2814 -708.3723)" cx="541.8" cy="-166.5" rx="0.9" ry="0.9"/>
					</g>
				</g>
			</g>
		</g>
	</g>
</g>
</svg>
