<?xml version="1.0" encoding="utf-8"?>
<!-- Generator: Adobe Illustrator 20.0.0, SVG Export Plug-In . SVG Version: 6.00 Build 0)  -->
<!DOCTYPE svg PUBLIC "-//W3C//DTD SVG 1.1//EN" "http://www.w3.org/Graphics/SVG/1.1/DTD/svg11.dtd">
<svg version="1.1" id="Layer_1" xmlns="http://www.w3.org/2000/svg" xmlns:xlink="http://www.w3.org/1999/xlink" x="0px" y="0px"
	 viewBox="0 0 800 480" style="enable-background:new 0 0 800 480;" xml:space="preserve">
<style type="text/css">
	.st0{fill:#FFFFFF;}
	.st1{fill:#006233;}
	.st2{fill:#D21034;}
</style>
<path class="st0" d="M400,0h400v480H400V0z"/>
<path class="st1" d="M0,0h400v480H0V0z"/>
<path class="st2" d="M502,180c-33.1-57.4-106.5-77.1-163.9-43.9S261,242.6,294.2,300s106.5,77.1,163.9,43.9
	c18.2-10.5,33.4-25.7,43.9-43.9c-33.1,41.4-93.6,48.1-134.9,14.9S319,221.4,352.1,180s93.6-48.1,134.9-14.9
	C492.6,169.5,497.6,174.5,502,180 M506,240l-108-35.2l67.2,92V183.2l-67.2,92L506,240z"/>
</svg>
