<?xml version="1.0" encoding="utf-8"?>
<!-- Generator: Adobe Illustrator 20.0.0, SVG Export Plug-In . SVG Version: 6.00 Build 0)  -->
<!DOCTYPE svg PUBLIC "-//W3C//DTD SVG 1.1//EN" "http://www.w3.org/Graphics/SVG/1.1/DTD/svg11.dtd">
<svg version="1.1" id="Layer_1" xmlns="http://www.w3.org/2000/svg" xmlns:xlink="http://www.w3.org/1999/xlink" x="0px" y="0px"
	 viewBox="0 0 800 480" style="enable-background:new 0 0 800 480;" xml:space="preserve">
<style type="text/css">
	.st0{fill:#FFFFFF;}
	.st1{fill:#CE1126;}
	.st2{fill:#FFFFFF;stroke:#C09300;stroke-width:1.27;stroke-linejoin:round;}
	.st3{fill:#C09300;}
	.st4{fill:#C09300;stroke:#C09300;stroke-width:1.074;}
	.st5{fill:#FFFFFF;stroke:#C09300;stroke-width:1.189;stroke-linejoin:round;}
	.st6{fill:none;stroke:#C09300;stroke-width:1.27;stroke-linejoin:round;}
	.st7{fill:#FFFFFF;stroke:#C09300;stroke-width:2.378;stroke-linecap:round;stroke-linejoin:round;}
	.st8{fill:#FFFFFF;stroke:#C09300;stroke-width:1.27;stroke-linecap:round;stroke-linejoin:round;}
	.st9{fill:#FFFFFF;stroke:#C09300;stroke-width:0.891;stroke-linecap:round;stroke-linejoin:round;}
	.st10{fill:#FFFFFF;stroke:#C09300;stroke-width:1.15;}
	.st11{fill:#FFFFFF;stroke:#C09300;stroke-width:0.916;}
	.st12{fill:#FFFFFF;stroke:#C09300;stroke-width:1.218;}
	.st13{fill:none;stroke:#C09300;stroke-width:1.27;}
	.st14{fill:#C09300;stroke:#C09300;stroke-width:0.354;}
</style>
<path d="M0,320h800v160H0V320z"/>
<path class="st0" d="M0,160h800v160H0V160z"/>
<path class="st1" d="M0,0h800v160H0V0z"/>
<g transform="matrix(.8 0 0 .8 -40.004 .002)">
	<path class="st2" d="M550.8,302.4l68.5,63.6l-4.9-115.5c-0.7-17.5-15.9-13.5-27-7.2c-11.2,7.2-24,7.2-37.4,2.4
		c-13.5,4.7-26.3,4.7-37.4-2.4c-11-6.3-26.2-10.3-27,7.2L480.7,366L550.8,302.4L550.8,302.4z"/>
	<path id="a" class="st3" d="M493.5,246.5l-4.7,112.3l-8,7.2l4.9-115.5C487.9,248.9,491.9,246.5,493.5,246.5L493.5,246.5z
		 M503.1,254.5l-4,94l-8,8.2l4.9-108.5C497.5,249.8,502.2,253.7,503.1,254.5L503.1,254.5z M511.8,261.7l-3.2,78.4l-6.5,6.3l4-89.4
		C507.8,258.5,511,260.8,511.8,261.7L511.8,261.7z M521.3,265.7l-3.2,66.8l-6.3,5.1l3.2-74.3C516.6,264,519.7,265.7,521.3,265.7
		L521.3,265.7z M530.1,265.7l-2.3,55.7l-6.5,6.3l2.4-61.3C525.3,266.4,529.3,266.4,530.1,265.7L530.1,265.7z"/>
	<g transform="matrix(-1 0 0 1 900 0)">
		<path id="a_1_" class="st3" d="M292.7,246.5c-1.6,0-5.6,2.4-7.8,4L280,366l8-7.2L292.7,246.5L292.7,246.5z M302.3,254.5
			c-0.9-0.8-5.6-4.7-7.1-6.3l-4.9,108.5l8-8.2L302.3,254.5L302.3,254.5z M311,261.7c-0.8-0.9-4-3.2-5.7-4.7l-4,89.4l6.5-6.3
			L311,261.7L311,261.7z M320.5,265.7c-1.6,0-4.7-1.7-6.3-2.4l-3.2,74.3l6.3-5.1L320.5,265.7L320.5,265.7z M329.3,265.7
			c-0.8,0.7-4.8,0.7-6.4,0.7l-2.4,61.3l6.5-6.3L329.3,265.7L329.3,265.7z"/>
	</g>
	<path class="st4" d="M553.2,315.1l9.6,43.8l-3.2,3.2l-3.3-2.4l-5.5-39l2.3,39l-3.2,4l-3.2-4l2.3-39l-5.5,39l-3.3,2.4l-3.2-3.2
		l9.6-43.8H553.2L553.2,315.1z"/>
	<g id="b">
		<path class="st5" d="M528.5,295.8l-19.1,67.7l26.3,4l11.2-50.9L528.5,295.8L528.5,295.8z"/>
		<path class="st6" d="M522.2,318.9l2.3,5.6l12.4-11.8"/>
		<path class="st6" d="M530.8,304.9l2.6,24.3l7.9-10.3 M538.1,323l4.3,14.9 M544.1,332.4l-8.7,13.2 M538.1,358.8l-2.8-13.2
			l-2.4-13.4l-5.8,7.9l-2.6-9.1l-8.2,8.4l4.2,15.3l5.7-9.4l3.2,9.6l5.9-9.2"/>
		<path class="st6" d="M515,362l5.3-7.4l3.5,11.5l4.7-8l3.2,9.6"/>
	</g>
	<g transform="matrix(-1 0 0 1 900 0)">
		<g id="b_1_">
			<path class="st5" d="M327.7,295.8l18.4,20.8l-11.2,50.9l-26.3-4L327.7,295.8L327.7,295.8z"/>
			<path class="st6" d="M336.1,312.7l-12.4,11.8l-2.3-5.6"/>
			<path class="st6" d="M340.5,318.9l-7.9,10.3l-2.6-24.3 M341.6,337.9l-4.3-14.9 M334.6,345.6l8.7-13.2 M334.5,345.7l-5.9,9.2
				l-3.2-9.6l-5.7,9.4l-4.2-15.3l8.2-8.4l2.6,9.1l5.8-7.9L334.5,345.7l2.8,13.1"/>
			<path class="st6" d="M330.9,367.7l-3.2-9.6l-4.7,8l-3.5-11.5l-5.3,7.4"/>
		</g>
	</g>
	<g>
		<path class="st7" d="M550,393.8c19.9,0,39-1.6,50.2-4.7c4.7-0.9,4.7-3.3,4.7-6.5c4.7-1.6,2.3-7.2,5.6-7.2c-3.3,0.9-4-5.6-8-4.7
			c0-5.6-5.6-6.3-10.3-4.7c-9.5,3.2-26.3,3.9-42.2,3.9c-15.9-0.7-32.6-0.7-42.2-3.9c-4.7-1.6-10.3-0.9-10.3,4.7
			c-4-0.9-4.7,5.6-8,4.7c3.3,0,0.9,5.6,5.6,7.2c0,3.2,0,5.6,4.9,6.5C511,392.2,530.1,393.8,550,393.8L550,393.8z"/>
		<path class="st8" d="M522.9,363.5c6.5,0.9,13.6,1.6,19.2,0.9c3.2,0,5.5,5.5-0.9,6.3c-5.6,0.7-14.3,0-19.1-0.9
			c-4-0.7-12.8-2.3-18.4-3.9c-5.6-2.4-1.6-7.2,1.6-6.5C510.3,361.1,516.6,362.7,522.9,363.5L522.9,363.5z M577.1,363.5
			c-6.5,0.9-13.6,1.6-19.1,0.9c-3.3,0-5.6,5.5,0.7,6.3c5.6,0.7,14.3,0,19.1-0.9c4-0.7,12.8-2.3,18.4-3.9c5.6-2.4,1.6-7.2-1.6-6.5
			C589.7,361.1,583.4,362.7,577.1,363.5L577.1,363.5z"/>
		<path class="st8" d="M503.1,360.4c-4.9-0.9-7.2,4.7-5.6,7.9c0.7-1.6,4-1.6,4.7-3.2C503.1,362.7,501.5,362.7,503.1,360.4z
			 M522.2,375.1c0-3.2,3.2-2.8,3.2-5.9c0-1.6-0.9-4-2.4-4c-1.6,0-3.2,1.6-3.2,3.2C519,371.4,522.2,371.9,522.2,375.1L522.2,375.1z
			 M544.9,366c4.7,0,4.3,6.3,2,9.5c0-2.3-4-3.2-4-4.7C542.8,368.3,546.5,368.3,544.9,366L544.9,366z M596.9,360.4
			c4.9-0.9,7.2,4.7,5.6,7.9c-0.7-1.6-4-1.6-4.7-3.2C596.9,362.7,598.5,362.7,596.9,360.4L596.9,360.4z M577.8,375.1
			c0-3.2-3.2-2.8-3.2-5.9c0-1.6,0.9-4,2.4-4c1.6,0,3.2,1.6,3.2,3.2C581,371.4,577.8,371.9,577.8,375.1L577.8,375.1z M555.1,366
			c-4.7,0-4.3,6.3-2,9.5c0-2.3,4-3.2,4-4.7C557.2,368.3,553.5,368.3,555.1,366z"/>
		<path class="st9" d="M504.7,362c1.6,0,4,0.7,4.7,1.6L504.7,362L504.7,362z M512.6,364.4c0.9,0,4,0.7,5.6,1.6L512.6,364.4
			L512.6,364.4z M541.3,367.6c-1.6,0-4.7,0-5.6,0.7L541.3,367.6L541.3,367.6z M532.5,367.6c-0.9-0.9-4-0.9-5.6,0H532.5L532.5,367.6z
			 M595.3,362c-1.6,0-3.9,0.7-4.7,1.6L595.3,362z M587.5,364.4c-0.9,0-4,0.7-5.6,1.6L587.5,364.4L587.5,364.4z M558.8,367.6
			c1.6,0,4.7,0,5.6,0.7L558.8,367.6L558.8,367.6z M567.5,367.6c0.9-0.9,4-0.9,5.6,0H567.5L567.5,367.6z"/>
		<g>
			<path class="st3" d="M503.3,374.6c-0.5-0.1-0.8-0.5-0.7-1c0.2-0.6,0.6-1,1.1-0.8c0.3,0.1,0.8,0.6,0.8,0.8c0,0.2-0.3,0.8-0.4,0.8
				s-0.1,0-0.2,0.1C503.9,374.6,503.6,374.6,503.3,374.6L503.3,374.6z M558.3,378.5c-0.2-0.1-0.5-0.5-0.5-0.7c0-0.4,0.6-1,0.9-1
				c0.2,0,0.7,0.2,0.8,0.4c0.3,0.3,0.3,0.9-0.2,1.2C559.2,378.6,558.6,378.6,558.3,378.5L558.3,378.5z M558.6,381
				c-0.4-0.1-0.6-0.3-0.6-0.8s0-0.6,0.5-0.8l0.4-0.2l0.3,0.2c0.5,0.2,0.7,0.4,0.7,0.8c0,0.3-0.2,0.7-0.6,0.9
				C559,381.1,559,381.1,558.6,381L558.6,381z"/>
			<path class="st3" d="M507.8,370.1c-0.3,0-0.8,0.3-1.1,0.5c-0.6,0.1-1.4,0.5-2,0.1c-0.6-0.2-1.4,0-1.5,0.7c0.2,0.7,1.1,1,1.6,0.6
				c0.4-0.5,1.5-0.9,1.7,0.1c-0.5,0.7-0.4,1.6-0.8,2.3c-0.1,0.5-0.3,0.9-0.5,1.3c-0.5,0-1,0-1.3,0.3c-0.6,0-1.3,0.3-1.6,0.9
				c-0.4,0.6-0.8,1.2-0.9,1.9c0.1,0.7,0.9,0.9,1.6,1c0.7,0.2,1.3,0.4,2,0.6c1.1,0.2,2.1,0.6,3.2,0.9c1.6,0.5,3.2,0.7,4.8,1.1
				c0.2,0.1,0.3,0.1,0.5,0.1c0.7,0.1,1-0.6,1.1-1.1c0.3-1.2,0.6-2.3,0.9-3.5c0.2-0.5,0.5-1.5-0.4-1.3c-0.5,0.3-1,0.8-1.6,0.8
				c-0.9,0-0.4,0.9,0,1.3c0.1,0.6-0.1,1.3-0.5,1.8c-0.5,0.3-1.2-0.1-1.7-0.2c-0.6,0-1.7-0.3-1.2-1.1c0.2-0.6,0.2-1.2,0.4-1.8
				c0.3-0.6,0.3-1.3,0.5-1.9c-0.4-0.8-1,0.3-1.5,0.3c-0.3,0.2-1.6,0.3-0.9,0.9c0.6,0.4,0.1,1.2,0,1.8c0,0.8-0.8,1-1.5,0.8
				c-0.6,0-1.5-0.5-1-1.2c0.1-0.6,0.3-1.1,0.4-1.7c0.2-0.7,0.4-1.4,0.7-2.1c0.1-0.6,0.3-1.2,0.6-1.8c0-0.7,0.5-1.3,0.5-2
				C508.1,370.2,508,370.1,507.8,370.1L507.8,370.1z M504.2,377.3c0.1,0,0.2,0,0.2,0c0.3,0.1,0.3,0.3,0,0.5
				c-0.1,0.1-0.2,0.2-0.3,0.2c-0.5,0-0.6-0.1-0.6-0.3c0-0.2,0-0.2,0.3-0.3C503.9,377.4,504,377.4,504.2,377.3L504.2,377.3z
				 M503.1,382.4c-0.5-0.5-0.4-0.8,0.3-1.4c0.3-0.2,0.5-0.2,0.9,0.1c0.6,0.5,0.6,0.8,0.1,1.3c-0.2,0.2-0.3,0.3-0.6,0.3
				C503.5,382.6,503.4,382.6,503.1,382.4L503.1,382.4z M506.2,383.3c-0.5-0.1-0.7-0.6-0.6-1c0,0,0,0,0-0.1c0.1-0.4,0.2-0.5,0.8-0.5
				c0.7,0,0.9,0.1,0.9,0.7c0,0.4,0,0.4-0.2,0.6C506.8,383.3,506.5,383.3,506.2,383.3L506.2,383.3z M595.3,383.4
				c-0.2-0.2-0.3-0.3-0.3-0.5c0-0.4,0.2-0.7,0.7-0.9c0.7-0.3,1-0.3,1.2,0.2c0.3,0.6,0.3,0.8-0.1,1.3c-0.2,0.2-0.3,0.2-0.8,0.2
				C595.6,383.6,595.5,383.6,595.3,383.4L595.3,383.4z M510.2,384.5c-0.4-0.1-0.6-0.4-0.6-0.8c0-0.3,0-0.4,0.3-0.6
				c0.2-0.1,0.4-0.2,0.6-0.2c0.3,0,0.4,0,0.6,0.1c0.5,0.4,0.7,0.8,0.4,1.1C511.1,384.6,510.8,384.7,510.2,384.5L510.2,384.5z
				 M532.1,385.5c-0.1-0.1-0.3-0.2-0.3-0.3c0-0.6,0.1-1.1,0.2-1.6c0.1-0.5,0-1.1,0.2-1.6c0.2-0.9,0.2-1.9,0.4-2.8
				c0-0.5,0.1-1,0.2-1.4c0.2-0.7,0-1.5,0.2-2.2c0-0.3,0.3-1,0.6-0.6c0.4,0.6,0.9,1,1.4,1.5c0.4,0.3,0,0.6-0.3,0.8
				c-0.4,0.2-0.5,0.6-0.5,1c-0.1,0.4-0.2,0.8-0.2,1.2c-0.1,0.6-0.1,1.3-0.2,1.9c-0.2,0.6-0.1,1.3-0.2,1.9c0,0.4-0.2,0.8-0.2,1.2
				c0,0.4-0.1,0.9-0.4,1.2C532.9,385.8,532.4,385.8,532.1,385.5L532.1,385.5z M561.8,375.7c-0.5,0.4-0.9,0.8-1.3,1.2
				c-0.6,0.4,0.5,0.7,0.6,1.1c0.2,0.6,0.2,1.2,0.2,1.8c0.2,0.6,0.3,1.1,0.2,1.7c0,0.6-0.9,0.5-1.2,0.8c-0.5,0.2-0.7,0.7-1.1,1
				c-0.2,0.5-0.3,1.1-0.3,1.6c0,0.4-0.3,1,0,1.3c0,0.1,0.1,0.1,0.1,0.2c0.1,0.1,0.3,0,0.5,0.1c0.5,0,1,0,1.5-0.2
				c1.2-0.2,2.4-0.2,3.7-0.3c0.8,0,1.5-0.2,2.2-0.2c0.6,0.1,0.8-0.5,0.8-1c-0.3-0.7,0-1.4-0.3-2.1c-0.2-0.7-0.1-1.4-0.3-2.1
				c0-0.5-0.7-0.8-1.1-0.3c-0.3,0.3-0.9,0.4-1.2,0.8c-0.3,0.6,0.6,0.6,0.8,1.1s0.1,1,0.2,1.5c0.1,0.6-0.5,0.6-0.9,0.7
				c-0.5,0.2-1.3,0.3-1.6-0.3c-0.2-0.5-0.2-1-0.2-1.5c0-0.9-0.2-1.8-0.3-2.7c-0.1-1.1-0.2-2.2-0.3-3.3
				C562.6,376.3,562.5,375.6,561.8,375.7L561.8,375.7z M561.2,383.9h0.3v0.4v0.4l-0.4,0.1c-0.1,0-0.3,0.1-0.4,0.1
				c-0.1,0-0.1-0.1-0.2-0.1c-0.2-0.2-0.2-0.4,0.1-0.7C560.9,384,561,383.9,561.2,383.9L561.2,383.9z M531.3,374.7
				c-0.4,0.1-0.9,0.7-1.3,0.7c-0.9,0.1-0.8,0.9-0.1,1.2c0.1,0.3,0,0.6,0,0.9c0.1,0.8-0.4,1.4-0.3,2.2c0,0.9-0.3,1.7-0.3,2.6
				c-0.2,0.9-0.3,1.8-0.4,2.8c-0.1,0.8-0.7,0.5-1.2,0.3c0-0.4,0-0.7,0-1.1c0.2-0.8-0.4-1.1-1.1-1.2c-0.7,0.1-1-0.5-0.9-1.1
				c0.3-0.4,1-0.3,1.5-0.3c1,0.2,0.9-1.1,0.4-1.6c-0.3-0.6-1.2-0.9-1.4-1.6c0.1-0.9-0.5-1.7-1.2-2.2c-1.1-0.1-1.9,0.9-2.3,1.8
				c-0.5,0.1-0.9,0.3-1.3,0.4c-0.7,0.2-1.7,1.4-0.8,1.9c0.5,0.1,2.2,0.5,1.5,1.3c-0.4,0.7-1.2,0.7-1.9,0.5c-0.7,0-1.5-0.4-1.5-1.2
				c-0.1-0.8-0.1-1.6-0.5-2.3c-0.1-0.8-1.1-0.6-1.2,0.1c-0.7,0.5-0.6,1.4-0.1,2c0.3,0.7,0,1.6-0.3,2.3c-0.2,0.9-1.2,0.9-1.8,1.2
				c-0.3,0.1-1.6-0.1-1.2,0.7c0.8,0.3,1.7,0.5,2.4,0.3c0.8-0.1,1.5-0.7,1.9-1.4c0.6-0.6,1.5-0.3,2.2-0.3c0.8,0,1.6,0.5,2.3,0.2
				c0.2-0.6,1.2-1.5,1.5-0.5c-0.1,0.9,0.7,1.3,1.5,1.2c0.9,0,0.5,0.6,0.5,1.1c0.1,0.9,0.7,1.4,1.4,1.8c0.3,0.1,0.5,0,0.8,0
				c0.8-0.2,1.6-0.6,1.8-1.4c0.3-0.7,0.3-1.5,0.5-2.2c0.2-1.1,0.4-2.3,0.4-3.4c0.3-1,0.2-2.1,0.4-3.2c0.1-0.8,0.2-1.6,0.3-2.3
				C531.7,374.7,531.5,374.6,531.3,374.7L531.3,374.7z M524.5,378.8c0.2,0,0.2,0.2,0.3,0.5c0,0.4,0.2,0.7,0.4,0.7s0.2,0.2,0,0.4
				c-0.1,0.1-0.3,0.1-0.7,0.1c-0.6,0-0.9-0.2-1.3-0.5l-0.2-0.2l0.3-0.2c0.1-0.1,0.4-0.3,0.6-0.5
				C524.1,378.9,524.3,378.8,524.5,378.8L524.5,378.8z M590.5,370.9c-0.6,0-1.1,0.1-1.7,0.3c-1-0.1-1.6,1-0.6,1.6
				c0.6,1.5,1.5-0.3,2.5-0.2c1.4,0.3,1.6,1.8,1.8,3c0.1,1.2,0.4,2.3,0.8,3.4c1,1.1-0.7,1.7-1.4,0.9c-0.6-0.7-1.9-1.5-2.7-0.6
				c-0.9,0.4-0.9,1.6-1.7,1.9c-1.2,0.4-1.4-1.1-2-1.8c-0.6-0.8-1.7-0.9-2.6-1.2c-0.4-0.9-0.2-2.3-1.1-2.9c-0.7,0.3-2.1,1.7-1,2.3
				c1.1,1-0.5,1.4-1,2.1c-0.7,0.8-0.8,1.9-1,3c-1.3,0.7-1.5-0.8-1.7-1.7c-0.1-1.1-1-0.8-1.7-0.4c-1,0.4-1.4,1.3-2.1,2
				c-0.1,0.6,0,1.4,0,2c0.2,0.8,1.2,0.4,1.8,0.4c1-0.4,1.4,0.6,0.6,1.2c-0.5,0.7-2.2,0.3-2.1,1.4c0.5,0.1,1.1,0,1.7,0
				c1.1-0.3,2.3-1.1,2.4-2.3c0.1-1.1,1.7-0.9,2.5-1.1c1-0.3,2.3-0.4,2.5,0.9c0.7,0.7,2.3,1.6,3,0.6c0.8-0.5,1.2-1.3,1.1-2.3
				c-0.2-0.8,1.3-0.8,1.6-0.4c0.5,0.9,2.2,0.6,2.9,0.1c0.8-0.6,1-1.7,2.2-1.7c1.8-0.5,3.6-0.8,5.4-1.5c1.4-0.3-0.2-1.2-0.6-1.7
				c-1.1-0.5-2,1.6-3.2,0.6c-0.9-0.7-0.9-2.1-1.2-3.1c-0.2-1.4-0.2-2.9-1.2-4C592.4,371.1,591.5,370.9,590.5,370.9L590.5,370.9z
				 M583.7,380.4c0.1,0,0.3,0.1,0.5,0.2c0.4,0.2,0.8,0.6,0.8,1c0,0.2-0.1,0.2-0.4,0.4c-0.2,0.1-0.4,0.2-0.5,0.2
				c-0.2,0-0.6-0.4-0.6-0.5s-0.1-0.3-0.1-0.5c-0.1-0.3-0.1-0.3,0.1-0.5C583.5,380.5,583.6,380.4,583.7,380.4L583.7,380.4z
				 M590.2,380.8c0.4,0,0.6,0.1,0.8,0.4s0.1,0.6-0.4,0.8c-0.2,0.1-0.4,0.2-0.4,0.2s-0.2-0.1-0.4-0.2c-0.3-0.2-0.3-0.3-0.3-0.5
				C589.4,381.1,589.8,380.8,590.2,380.8L590.2,380.8z M581.3,380.8c0.1,0,0.2,0,0.3,0.2c0.2,0.2,0.2,0.3,0.3,0.6c0,0.2,0,0.5,0,0.6
				c0,0.2-0.1,0.2-0.6,0.2c-0.6,0-0.7-0.1-0.7-0.7c0-0.4,0-0.5,0.2-0.7C581,380.9,581.2,380.9,581.3,380.8L581.3,380.8z
				 M575.8,382.3c0.2,0,0.4,0.2,0.4,0.4c0.1,0.3,0,0.5-0.3,0.6c-0.2,0.1-0.7,0.1-0.9,0.1c-0.1,0-0.1-0.1-0.2-0.2
				c-0.1-0.1-0.1-0.2,0-0.3c0.1,0,0.1-0.1,0.1-0.2c0,0,0.1-0.2,0.2-0.3C575.3,382.3,575.6,382.2,575.8,382.3L575.8,382.3z
				 M585,383.5c0.2,0,0.3,0.1,0.4,0.2c0.2,0.2,0.2,0.4,0,0.6c-0.1,0.1-0.9,0.1-1.1,0c-0.1,0-0.2-0.1-0.2-0.2s0-0.2,0.3-0.3
				C584.6,383.5,584.9,383.5,585,383.5L585,383.5z M567.9,388.3c-0.1-0.1-0.2-0.1-0.1-0.2c0.2-0.3,0.5-0.4,0.8-0.5
				c0.5-0.2,1-0.6,1.4-1.1c0-0.3,0.4-0.5,0.4-0.9c0-0.5,0-1-0.1-1.4s-0.5-0.8-0.8-1s-0.7-0.3-0.8-0.6c-0.1-0.3,0.3-0.6,0.4-0.9
				c0.2-0.4,0.4-0.9,0.7-1.3c0.3-0.3,0.7,0,0.8,0.3c0.2,0.3,0.4,0.6,0.5,0.9c0.3,0.3,0.6,0.7,0.7,1.2c0.1,0.3,0.4,0.6,0.4,1
				s0.2,0.8,0.2,1.2c0,0.6,0,1.1-0.2,1.7c-0.1,0.3-0.4,0.5-0.6,0.7c-0.3,0.3-0.7,0.6-1.1,0.7c-0.3,0.1-0.5,0.4-0.8,0.3
				c-0.5,0-1,0.1-1.5,0C568,388.4,567.8,388.3,567.9,388.3L567.9,388.3z M561,388.7c-0.2-0.3-0.3-0.4-0.3-0.6s0-0.3,0.3-0.6
				c0.4-0.4,0.7-0.5,1.4-0.1s1,0.4,1,0.1c0.1-0.3,0.5-0.5,0.9-0.5c0.2,0,0.4,0.1,0.6,0.2c0.3,0.2,0.3,0.2,0.3,0.7s0,0.5-0.3,0.7
				s-0.3,0.3-0.7,0.2c-0.4,0-0.7-0.2-0.8-0.6c-0.1-0.3-0.1-0.3-0.2-0.1c0,0.1-0.1,0.1-0.2,0.1c-0.2,0-0.5,0.3-0.8,0.5
				c-0.1,0.1-0.3,0.1-0.5,0.1C561.3,389,561.3,389,561,388.7L561,388.7z M541.2,379.8c-0.7,0-1.4,0.6-1.5,1.2
				c0.2,0.8,0.8,1.5,0.4,2.3c0.3,1-0.8,1.4-1.5,0.8c-0.4-1-0.6-2-1.3-2.9c-0.8-0.2-1.2,1.1-1.7,1.5c0.3,0.8,1.1,1.4,1.2,2.4
				c0.2,0.9-0.4,1.9-1.2,2.4c-0.7,0.7-1.6,0.4-2.5,0.6c-1,0.6,0.8,0.8,1.2,0.8c1,0.1,2.1,0,2.9-0.8c0.8-0.4,0.7-1.7,1.6-1.8
				c1.6-0.1,3.2,0.2,4.8,0.3c0.9,0.2,2.2-0.1,2.8,0.5c0,1.1,0.9,1.8,1.8,2.2c0.5,0.1,1-0.5,1.5-0.6c1-0.3,0.7-1.5,1.3-2
				c1.6-0.1,3.3-0.1,5-0.1c0.3,0,0.4-0.4,0.6-0.6c0-0.6-0.1-1.3-0.2-1.9c-0.3-0.8,0.1-1.8-0.5-2.5c-0.8-0.2-1.5,0.5-2.4,0.6
				c-0.9,0.4-1.7,1.3-1.8,2.3c-0.5,0.9-1.4-0.2-1.1-0.9c0-0.3,0.1-0.7,0-1c-0.5-0.6-1.4-0.4-2.1-0.5c-1,0-2-0.2-3-0.2
				c-0.9-0.1-1.8,0.1-2.7-0.2c-1,0-0.9-1-1.1-1.8C541.6,379.9,541.4,379.8,541.2,379.8L541.2,379.8z M543.2,383.5c0.3,0,0.7,0,1,0.1
				c0.4,0.1,0.9-0.1,1.3,0c1,0.2,2,0.1,2.9,0.2c0.3,0,0.4,0.2,0.6,0.3c0,0.7,0,1.4,0,2.1c0,0.3,0.1,0.6-0.2,0.8
				c-0.1,0.1-0.2,0.1-0.3,0.1c-0.3-0.1-0.6-0.2-0.7-0.5c0-0.4,0-0.7,0-1.1c0-0.1,0-0.2,0-0.3c-0.2-0.2-0.5-0.2-0.7-0.3
				c-0.9,0-1.7-0.1-2.5-0.1c-0.7,0-1.4,0.1-2.1-0.1c-0.3-0.1-0.6-0.1-0.8-0.3c-0.2-0.3,0.1-0.6,0.3-0.7
				C542.5,383.6,542.9,383.5,543.2,383.5L543.2,383.5z M554.5,383.8c0.2,0,0.2,0,0.3,0.3c0,0.2,0.1,0.4,0.1,0.5s0,0.2-0.2,0.2
				c-0.5,0.2-1,0.2-1.2-0.1c-0.1-0.1,0-0.4,0.2-0.6C554,384,554.3,383.8,554.5,383.8z"/>
		</g>
	</g>
	<path class="st10" d="M550,327.2c32.6-25.1,29.8-61.9,29.8-61.9c-0.9,0.2-1.7,0.3-2.5,0.3c-6.8,0-23.2-3.9-27-8.9
		c-4.1,4.5-20.8,8.9-27.6,8.9c-0.9,0-1.7-0.1-2.5-0.3C520.2,265.3,517.3,302.1,550,327.2L550,327.2z"/>
	<path class="st11" d="M577.2,268c-0.3,0-0.6,0-0.8,0c-6.2,0-20.6-3.2-26.2-8c-5.8,4.4-20.5,8-26.6,8c-0.3,0-0.6,0-0.8-0.1
		c0,1.4,0.1,2.8,0.1,4.1c0.3,4.9,1.2,9.8,2.5,14.6c4.1,14.9,12.5,27.6,24.6,37.2c12.1-9.6,20.5-22.3,24.6-37.2
		c1.3-4.7,2.2-9.6,2.5-14.5C577.2,270.8,577.2,269.4,577.2,268L577.2,268z"/>
	<path class="st3" d="M539.4,265c-5.9,1.8-12.2,3-15.8,3c-0.3,0-0.6,0-0.8-0.1c0,1.4,0.1,2.8,0.2,4.2c0.3,4.9,1.2,9.8,2.5,14.5
		c2.8,10,7.5,19,14,26.8V265H539.4z M560,264.9v49.3c6.8-7.9,11.7-17.2,14.6-27.6c1.3-4.7,2.1-9.6,2.5-14.5c0.1-1.3,0.2-2.7,0.2-4.1
		c-0.3,0-0.6,0-0.8,0C572.6,268.1,566,266.9,560,264.9L560,264.9z"/>
	<g>
		<path class="st12" d="M562.3,253.1c0.7,0-0.9-3.6-0.9-3.6c1.8,1.8,8.4,2.2,8.4,2.2c-4-1.8-8-15.1-7.5-25.7
			c0.4-10.7-1.5-14.9-3.1-16.4c-2-2-8.4-3.8-12.7-4c-2.4-0.1-2,1.8-2,1.8c-4.4-1.1-8.9-1.6-10.9-0.2c-1.9,1.3-2.3,7.5-0.9,6.4
			c3.3-2.7,6.2-0.2,8.2,2.7c1.8,2.6,1.6,9.8-0.9,18.2c-2.7,8.9-10,17.7-10,17.7c4,0,9.5-3.5,9.5-3.5l-1.3,5.5c4.2-2,7.5-5.1,7.5-5.1
			l4,4.2c1.3-1.8,4-4.2,4-4.2S557.2,252.6,562.3,253.1L562.3,253.1z"/>
		<path class="st13" d="M546.1,227.6c0,0-2.2,16.4-6.4,21.1 M549.7,227.1c0,0-0.9,16.6-3.8,22 M552.8,227.8c0,0,0,18.2,1.1,21.3
			 M556.7,228.7c0,0,0.9,15.3,4.7,20.8"/>
		<path class="st14" d="M542.1,219.6c-0.2-1.4-0.5-2.6-1.1-3.3c-2-2.9-4.9-5.3-8.2-2.7c0,0,1.1-3.5,3.6-3.6c1.9-0.1,6.2,1.4,9.9,7.8
			c0,0-2.8-0.6-3.5,0C541.6,218.9,542.1,219.6,542.1,219.6L542.1,219.6z"/>
		<path class="st14" d="M532.4,209.3c0.3-0.9,0.7-1.7,1.3-2.1c2-1.3,6.4-0.9,10.9,0.2c0,0-0.4-1.9,2-1.8c4.2,0.2,10.7,2,12.7,4
			c0.5,0.5,1,1.3,1.5,2.4h-0.1c-1-1.4-3.8-1.3-4.4-1.2c-1.1,0.1-1.7,0.1-3.1,0.4c-0.7,0.2-1.7,0.4-2.2,0.8c-0.4,0.4-0.8,1.6-1.5,1.6
			c-1.1,0-1-0.3-1.3-0.6c-0.4-0.4-0.5-1.1-0.9-1c-1.1,0.2-2.9-0.7-5.1-2.4c-2.2-1.8-3.1-2.2-6-2S532.4,209.4,532.4,209.3
			L532.4,209.3L532.4,209.3z"/>
		<circle class="st0" cx="548.8" cy="210.7" r="1.2"/>
	</g>
</g>
</svg>
