<?xml version="1.0" encoding="utf-8"?>
<!-- Generator: Adobe Illustrator 20.0.0, SVG Export Plug-In . SVG Version: 6.00 Build 0)  -->
<!DOCTYPE svg PUBLIC "-//W3C//DTD SVG 1.1//EN" "http://www.w3.org/Graphics/SVG/1.1/DTD/svg11.dtd">
<svg version="1.1" id="Layer_1" xmlns="http://www.w3.org/2000/svg" xmlns:xlink="http://www.w3.org/1999/xlink" x="0px" y="0px"
	 viewBox="0 0 800 480" style="enable-background:new 0 0 800 480;" xml:space="preserve">
<style type="text/css">
	.st0{clip-path:url(#SVGID_2_);}
	.st1{fill:#107B00;}
	.st2{fill:#FFFFFF;}
	.st3{fill:#FF1800;}
	.st4{fill:#FF0000;}
</style>
<g>
	<defs>
		<rect id="SVGID_1_" x="-0.4" y="0" width="800.4" height="481.3"/>
	</defs>
	<clipPath id="SVGID_2_">
		<use xlink:href="#SVGID_1_"  style="display:none;overflow:visible;"/>
	</clipPath>
	<g transform="translate(148.75) scale(.94)" class="st0">
		<path d="M-158.2-0.7h851.1v256h-851.1V-0.7z"/>
		<path class="st1" d="M-158.2,255.3h851.1v256h-851.1V255.3z"/>
		<path class="st2" d="M-158.2,168.6h851.1v176.1h-851.1V168.6z"/>
		<path class="st3" d="M362.6,294.2l-25.8-18.9l-26,18.9l10-30.4l-26-18.9l32,0.1l9.9-30.6l9.8,30.4l32.1,0l-25.9,18.7"/>
		<polygon class="st4" points="-158.2,0 190.4,256.6 -158.2,512 -158.2,2.6 -158.2,0 		"/>
	</g>
</g>
<path class="st4" d="M415,240c0-29.2,20.3-53.7,47.5-60.1c-40.6-5.2-69.1,28.4-68.5,61c0.6,32.7,29.1,64.7,69.1,59.4
	C435.6,294,415,269.4,415,240z"/>
</svg>
