<?xml version="1.0" encoding="utf-8"?>
<!-- Generator: Adobe Illustrator 20.0.0, SVG Export Plug-In . SVG Version: 6.00 Build 0)  -->
<!DOCTYPE svg PUBLIC "-//W3C//DTD SVG 1.1//EN" "http://www.w3.org/Graphics/SVG/1.1/DTD/svg11.dtd">
<svg version="1.1" id="Layer_1" xmlns="http://www.w3.org/2000/svg" xmlns:xlink="http://www.w3.org/1999/xlink" x="0px" y="0px"
	 viewBox="0 0 800 480" style="enable-background:new 0 0 800 480;" xml:space="preserve">
<style type="text/css">
	.st0{fill:#BE0027;}
	.st1{fill:#4189DD;}
	.st2{fill:#239E46;}
	.st3{fill:#F3E295;}
</style>
<g>
	<path class="st0" d="M0,0h800v480H0V0z"/>
	<path class="st1" d="M0,480l800-0.3l0-239.7L0,480z"/>
	<path class="st2" d="M0,0l800,0.3l0,239.7L0,0z"/>
	<path class="st3" d="M186.2,360.4c-10.7,3-16.9,11.3-16.7,19.1l52.7-0.2c0.5-8.4-6.5-16.2-17-19.3c51.6-1.1,96.5-20.4,104.6-32.8
		c-8.1-3.5-17.4,2.1-24,0.8c15.8-7.3,63.1-37.9,55.4-70.7c-6,18.2-24.1,33.3-31.8,37.4c17.7-26.8,41.8-54.7,20.9-76.4
		c1.1,12.5-8,26.3-12,27.4c10.2-28.3,20-63.9-2.2-87.4c2.9,8.5,1.7,32.4-2.3,33.5c-1.2-19.3-4.5-59.8-24.8-59.2
		c6.4,5.7,9.3,21.4,9.4,37.2c-4.6-10.8-9.9-19-21.1-27c-9.1-17.4-25.3-31.9-41.5-42.3c1.8,12.7,3.3,22.7,21,35.9
		c-9.2-0.6-18.5-18.1-28.4-18.6c-7.9-0.4-14,7.1-26.9,2.8c1.4,4.2,7.4,6.1,8.7,9.3c-2.8,1.9-9.3-0.3-14.7-3.1
		c7.5,10.2,19,16.1,28.9,14.1c11.7-2.2,24.2-1.1,36.2,5.7c-3,1.6-14.9,1.6-22.5,0.6c6.9,7,11.6,11.7,23.6,11.6
		c10.8-0.1,16.4-5.7,19.2-2.2c6.7,8,11.3,16,16.9,25.4c-12.5,1.4-8.7-14.1-22.6-22c-7.8,16.1,9,35.3,20.4,43.2
		c0.2,12.1,1.9,22.3,7.1,31.5c3.5,6.5,8,13.2,6.3,27.9c-6.8-5-13.5-21.8-11.1-35.1c-8.6,2.3-11.9,17.4-7.9,24.9
		c3,5.8,5,16.8,1.5,21.7c-3.4,4.6-3.7,4.1-3.7,13.9c0.1,5.9-3.2,12.9-8.5,17.7c1.1-4.2,2.4-11.3,1.2-15.8
		c-4.2,7.2-14.9,14.7-18.2,22.4c-3.3,7.8-4.1,21.2-20.1,24.3c-20.5,4.1-27.6,7.6-40.8,13c-1.5-10,2.9-30.9,11.3-29.7
		c8.2,1.5,33-8.5,24.1-29.4c-1.8,6.6-7.6,13-13.9,13.3c6.8-8.9,19-18,13.1-32.9c-3.3,6.3-8.5,13.9-16.4,18.1c8.4-16.2,1-21-9-7.7
		c-3.8,5.1-6.1,15.4-8.5,28.5c-3.9-10.6-3.7-24.6-8.3-36c-4.9-12.3,6.5-15.5,11.8-14.5c13.1,3.5,34.9,3.5,33.3-18.1
		c-5.6,7.3-15.5,9.6-26.2,6.9c12-8.8,21.5-25.2,8.1-33.8c-0.4,9.1-7.5,19.4-16.9,24.1c-2.2-7.7-2.2-15.9-0.3-24.8
		c-5.3,5.5-9.1,17.1-12.2,30.2c-0.2-12.9,2.2-22.3,4-29.3c2.8-10.2,9.6-3.6,20.1-2.8c10.1,0.6,24-5,21.3-18.7
		c-3.4,5.4-10.5,7.5-17.7,6.9c8.7-5.3,23.9-14.6,15.5-29c-3.5,5.5-4.6,10.1-14.7,11.8c2.6-6.1,3.1-14.7,10.9-18.1
		c-14-2.8-22,6.4-26.1,20.8c-1.6-10-3.6-13.6-4-20.9c7.6-8.4,8.4-24.8-8-28.5c-1,8.5-0.7,10.5,1.2,17.4c-7.7-4.6-18.5-7.1-25.7-0.6
		c4.9,5.3,12.5,9.9,24.1,4.2c-2.8,9-9.9,7.5-19.8,4c6,11.3,13.6,13.3,22,12c4.4,11.6,4.6,20.4-8.2,37.2c0.6-10.5-0.2-18.3-8.5-26.7
		c-7.1-7-12.9,0.3-1.8,15.8c-6.8-5-14.4-15.1-16.7-25.2c-2.2,12.5-0.2,27.2,6.7,35.4c-3.3,3.5-7-0.4-12.5-8.9
		c2.1,27.3,13.7,32.6,29.4,26.5c0.4,15,0.4,28.9,1.3,47c-9.1-13.1-20.7-22.9-27.2-25.4c-2,7.4,5.6,16.9,9.8,22.3
		c-6.5-1.3-20.5-12-20.5-12c-1.4,12.2,14.3,23.5,24.5,28.5c-12-0.5-17.2-5-25-12.5c0.1,33.8,36.6,27.9,43.4,22.7
		c0.9,16.6,2.2,35.9,3.1,52.5c-10.3-1.8-9.5-4.9-18.3-5.7c-24.5-1-43.9-29.4-50.3-50.3c-1.8,3.4-0.4,7-2.1,11.3
		c-4-10.3-9.1-23.5-15.9-29.7c1.7,6,1.9,12.1,1.3,23.3c-2.3-7.2-4.5-9.5-4.7-18c0.2-6.5,6.3-11.4,6-20.5c-0.3-6.7-6.4-21.2-7.3-32.5
		c-3,11.6-4.8,23.8-9.4,31c2.3-12.4,1.5-20.9,5.3-29.2c4.4-8.8,8.2-16.6,5.2-25.4c-2.8,3.4-1.8,6.5-8.9,14.8
		c-1.5-9,9.1-23.5,19.5-29.3c7.3-3.9,16.5-17.6,10.5-27.1c-6.9,4.9-10,11.6-19.7,23c6.9-27.1,24.9-34.1,46.4-34.2
		c4.8,0,14.4-1.7,17.1-8c-6.1,2.3-13.2,2.6-19.6,1.4c4.6-6.8,14.4-5.9,23.6-6c7.2,0,18.3-1,22.8-11.2c-8.7,3.8-22.3,4.6-30.9,1.9
		c13.6-7.1,35-7.8,45.9-17.1c-12.5-9.3-43.7,2.2-63.4,15.7c5.5-5,14.2-14,19-21.2c-10.8-5.2-38.1,25.1-47.5,43
		c-8.9,5-12.5,12.9-16,18.5c4.8-16.1,5.3-27.7,9.2-41c-30.6,10.5-17.9,67.1-24.5,80.6c0.8-14.9,0.2-34.1-6-44
		c-9.4,7.2-10.2,49.5-1.3,84.7c-3.2-9.4-9.2-18.2-11.2-29.7c-14,25.4,8.2,55.5,26.7,79.2c-13.9-7.3-27.7-22.9-36.7-35.9
		c2.5,45.5,50,55,57.4,66.2c-10-4.7-29.2-13.9-37.3-4.2c13.2,3.1,23.8,6.6,32.3,12.2C122.2,352,145.5,358.7,186.2,360.4L186.2,360.4
		z"/>
</g>
</svg>
