<?xml version="1.0" encoding="utf-8"?>
<!-- Generator: Adobe Illustrator 20.0.0, SVG Export Plug-In . SVG Version: 6.00 Build 0)  -->
<!DOCTYPE svg PUBLIC "-//W3C//DTD SVG 1.1//EN" "http://www.w3.org/Graphics/SVG/1.1/DTD/svg11.dtd">
<svg version="1.1" id="Layer_1" xmlns="http://www.w3.org/2000/svg" xmlns:xlink="http://www.w3.org/1999/xlink" x="0px" y="0px"
	 viewBox="0 0 800 480" style="enable-background:new 0 0 800 480;" xml:space="preserve">
<style type="text/css">
	.st0{fill:#003399;}
	.st1{fill:#FFCC00;}
</style>
<path class="st0" d="M0,0h800v480H0V0z"/>
<g transform="translate(1350,900) scale(-1)">
	<polygon class="st1" points="944.7,807.3 927.4,807.3 941.4,797.1 936,780.7 950,790.9 964,780.7 958.6,797.1 972.6,807.3 
		955.3,807.3 950,823.7 	"/>
	<polygon class="st1" points="1015.9,788.2 998.6,788.2 1012.6,778 1007.3,761.6 1021.2,771.8 1035.2,761.6 1029.8,778 
		1043.8,788.2 1026.5,788.2 1021.2,804.6 	"/>
	<polygon class="st1" points="1068,736 1050.8,736 1064.7,725.9 1059.4,709.5 1073.3,719.6 1087.3,709.5 1082,725.9 1095.9,736 
		1078.7,736 1073.3,752.5 	"/>
	<polygon class="st1" points="1087.1,664.8 1069.8,664.8 1083.8,654.7 1078.5,638.3 1092.4,648.4 1106.4,638.3 1101,654.7 
		1115,664.8 1097.8,664.8 1092.4,681.2 	"/>
	<polygon class="st1" points="1068,593.6 1050.8,593.6 1064.7,583.5 1059.4,567.1 1073.3,577.2 1087.3,567.1 1082,583.5 
		1095.9,593.6 1078.7,593.6 1073.3,610 	"/>
	<polygon class="st1" points="1015.9,541.5 998.6,541.5 1012.6,531.4 1007.3,515 1021.2,525.1 1035.2,515 1029.8,531.4 
		1043.8,541.5 1026.5,541.5 1021.2,557.9 	"/>
	<polygon class="st1" points="944.7,522.4 927.4,522.4 941.4,512.3 936,495.9 950,506 964,495.9 958.6,512.3 972.6,522.4 
		955.3,522.4 950,538.8 	"/>
	<polygon class="st1" points="873.5,541.5 856.2,541.5 870.2,531.4 864.8,515 878.8,525.1 892.7,515 887.4,531.4 901.4,541.5 
		884.1,541.5 878.8,557.9 	"/>
	<polygon class="st1" points="821.3,593.6 804.1,593.6 818,583.5 812.7,567.1 826.7,577.2 840.6,567.1 835.3,583.5 849.2,593.6 
		832,593.6 826.7,610 	"/>
	<polygon class="st1" points="802.2,664.8 785,664.8 799,654.7 793.6,638.3 807.6,648.4 821.5,638.3 816.2,654.7 830.2,664.8 
		812.9,664.8 807.6,681.2 	"/>
	<polygon class="st1" points="821.3,736 804.1,736 818,725.9 812.7,709.5 826.7,719.6 840.6,709.5 835.3,725.9 849.2,736 832,736 
		826.7,752.5 	"/>
	<polygon class="st1" points="873.5,788.2 856.2,788.2 870.2,778 864.8,761.6 878.8,771.8 892.7,761.6 887.4,778 901.4,788.2 
		884.1,788.2 878.8,804.6 	"/>
</g>
</svg>
