<?xml version="1.0" encoding="utf-8"?>
<!-- Generator: Adobe Illustrator 20.0.0, SVG Export Plug-In . SVG Version: 6.00 Build 0)  -->
<!DOCTYPE svg PUBLIC "-//W3C//DTD SVG 1.1//EN" "http://www.w3.org/Graphics/SVG/1.1/DTD/svg11.dtd">
<svg version="1.1" id="Layer_1" xmlns="http://www.w3.org/2000/svg" xmlns:xlink="http://www.w3.org/1999/xlink" x="0px" y="0px"
	 viewBox="0 0 800 480" style="enable-background:new 0 0 800 480;" xml:space="preserve">
<style type="text/css">
	.st0{fill:#000066;}
	.st1{fill:#FFFFFF;}
	.st2{fill:#CC0000;}
	.st3{fill:url(#SVGID_1_);stroke:#FFFFFF;stroke-width:10;}
	.st4{fill:url(#SVGID_2_);stroke:#000000;stroke-width:1.16;}
	.st5{fill:url(#SVGID_3_);stroke:#000000;stroke-width:1.16;}
	.st6{fill:url(#SVGID_4_);stroke:#000000;stroke-width:1.16;}
	.st7{fill:url(#SVGID_5_);stroke:#000000;stroke-width:1.16;}
	.st8{fill:url(#SVGID_6_);stroke:#000000;stroke-width:1.5;}
	.st9{fill:url(#SVGID_7_);stroke:#000000;stroke-width:1.16;}
	.st10{fill:url(#SVGID_8_);stroke:#000000;stroke-width:1.16;}
	.st11{fill:url(#SVGID_9_);stroke:#000000;stroke-width:1.16;}
	.st12{fill:url(#SVGID_10_);stroke:#000000;stroke-width:1.16;}
	.st13{fill:#0072C4;fill-opacity:0.996;stroke:#FFFFFF;stroke-width:3.867;}
	.st14{fill:#BCBCBC;}
	.st15{fill:#FEFEFE;}
	.st16{fill:#C4C4C2;stroke:#000000;stroke-width:0.875;}
	.st17{fill:#005120;fill-opacity:0.996;stroke:#002B0D;stroke-opacity:0.996;}
	.st18{fill:none;stroke:#512007;stroke-width:0.475;stroke-opacity:0.996;}
	.st19{fill:none;stroke:#512007;stroke-width:0.594;stroke-opacity:0.996;}
	.st20{fill:none;stroke:#512007;stroke-width:0.41;stroke-opacity:0.996;}
	.st21{fill:#DD8B59;stroke:#512007;stroke-width:0.475;stroke-opacity:0.996;}
	.st22{fill:#FECF3E;stroke:#512007;stroke-width:0.475;stroke-opacity:0.996;}
	.st23{fill:#B6B6B4;fill-opacity:0.996;stroke:#512007;stroke-width:0.475;stroke-opacity:0.996;}
	.st24{fill:#BE0F17;fill-opacity:0.996;stroke:#512007;stroke-width:0.581;stroke-opacity:0.996;}
	.st25{stroke:#512007;stroke-width:0.475;stroke-opacity:0.996;}
	.st26{fill:#FF0000;fill-opacity:0.996;stroke:#512007;stroke-width:0.475;stroke-opacity:0.996;}
	.st27{fill:none;stroke:#512007;stroke-width:0.474;stroke-opacity:0.996;}
</style>
<path class="st0" d="M0,0h800v480H0V0z"/>
<path class="st0" d="M0,0h400v200H0V0z"/>
<g>
	<path class="st1" d="M0,0v26.9l353.8,213.7h44.5v-26.9L44.5,0H0z M398.3,0v26.9L44.5,240.6H0v-26.9L353.8,0H398.3L398.3,0z"/>
	<path class="st1" d="M166,0v240.6h66.4V0H166z M0,80.2v80.2h398.3V80.2H0z"/>
	<path class="st2" d="M0,96.2v48.1h398.3V96.2H0z M179.2,0v240.6h39.8V0L179.2,0L179.2,0z M0,240.6l132.8-80.2h29.7L29.7,240.6H0z
		 M0,0l132.8,80.2h-29.7L0,17.9V0L0,0z M235.8,80.2L368.6,0h29.7L265.5,80.2H235.8L235.8,80.2z M398.3,240.6l-132.8-80.2h29.7
		l103.1,62.3L398.3,240.6L398.3,240.6z"/>
</g>
<g>
	
		<linearGradient id="SVGID_1_" gradientUnits="userSpaceOnUse" x1="523.4177" y1="-21.3852" x2="549.9177" y2="-6.3252" gradientTransform="matrix(1.17 0 0 -1.17 -391.61 568.33)">
		<stop  offset="0" style="stop-color:#A43907;stop-opacity:0.996"/>
		<stop  offset="1" style="stop-color:#FFFFFF"/>
	</linearGradient>
	<path class="st3" d="M513,324.4c-0.8,0-1.6,0.1-2.4,0.2c-4,0.7-10.2,13.6-13.7,21.2c-5.4,6.6-8.3,11.7-10.6,15.5
		c-0.9,1.5-2.2,3.2-1.8,5.2c-8.2,2-8.6,9-8.6,11.8c0,2.9,0.9,4.4,0.9,4.4l4.9,9.2l0,0.1c5.2,10.8,12.9,25.3,17.3,26.5
		c6.1,1.7,22-4.2,33.9-14.2c19.5,8,44.5,14.7,72.5,14.7c28,0,52.9-6.7,72.5-14.7c11.9,10.1,27.8,15.9,33.9,14.2
		c4.3-1.2,12.1-15.8,17.3-26.6l4.9-9.2c0,0,0.9-1.5,0.9-4.4c0-2.7-0.4-9.8-8.6-11.8c0.4-2-0.9-3.7-1.8-5.2c-2.3-3.8-5.2-9-10.6-15.7
		c-3.5-7.6-9.7-20.3-13.6-21c-5.5-1-17.5,1.8-17.5,2.8c0,0-0.1,0.5-0.1,0.6l-24,22.7c0,0.7,1.3,17.1,5.8,31.6
		c-16.1,5.9-35.8,10-59,10c-23.2,0-43-4.1-59-10c4.5-14.5,5.8-30.9,5.8-31.6l-24-22.7c0-0.1-0.1-0.6-0.1-0.6
		C528.1,326.6,519,324.3,513,324.4L513,324.4z M519.1,352.6c3,0,6.2,2.5,8.9,5.2c-0.1,0.5-0.2,1.1-0.3,1.6c-0.7,3.4-2,7.8-3.7,12.4
		c-6.9-4-12.5-8.2-16.7-12.1c2.6-2.8,6.8-6.5,11.2-7.2C518.7,352.6,518.9,352.6,519.1,352.6L519.1,352.6z M691.8,352.6
		c0.2,0,0.4,0,0.7,0c4.4,0.6,8.7,4.4,11.3,7.2c-4.3,3.9-9.9,8.1-16.8,12.1c-1.8-4.6-3-9.1-3.7-12.5c-0.1-0.5-0.2-1.1-0.3-1.6
		C685.5,355,688.7,352.5,691.8,352.6L691.8,352.6z M497.5,384.6c3.2,2.4,7.4,5.2,12.4,8.2c-1.4,0.9-2.9,1.5-4.4,1.9
		c-2.1,0.5-4.2,0.4-6.4-0.1c-0.7-1.7-1.3-3.8-1.4-6.7C497.6,386.8,497.6,385.7,497.5,384.6z M713.4,384.6c0,1-0.1,2.1-0.1,3.3
		c-0.2,2.9-0.7,5-1.4,6.7c-2.2,0.5-4.4,0.5-6.5,0.1c-1.6-0.4-3-1-4.4-1.9C706,389.8,710.2,387,713.4,384.6L713.4,384.6z"/>
	
		<linearGradient id="SVGID_2_" gradientUnits="userSpaceOnUse" x1="387.6732" y1="-34.6536" x2="414.1732" y2="-19.5936" gradientTransform="matrix(-1.48 0 0 -1.54 1108.33 300.55)">
		<stop  offset="0" style="stop-color:#A43907;stop-opacity:0.996"/>
		<stop  offset="1" style="stop-color:#FFFFFF"/>
	</linearGradient>
	<path class="st4" d="M531.2,361.7c0,0-8.3-13.5-15.3-12.5c-6.9,1-13.4,9.6-13.9,10.1c-0.5,0.5-10.6-11.1-10.2-11.5
		c0.5-0.5,10.6-25.5,16.2-26.5c5.6-1,17.5,1.8,17.5,2.8S531.2,361.7,531.2,361.7z"/>
	
		<linearGradient id="SVGID_3_" gradientUnits="userSpaceOnUse" x1="398.6209" y1="-4.9083" x2="460.9309" y2="4.7717" gradientTransform="matrix(-1.3912 0 0 -1.6478 1107.0868 369.2186)">
		<stop  offset="0" style="stop-color:#A43907;stop-opacity:0.996"/>
		<stop  offset="1" style="stop-color:#FFFFFF"/>
	</linearGradient>
	<path class="st5" d="M549.7,347.3c0,1-2.8,36.6-14.8,49.1c-12,12.5-31.5,20.2-38.4,18.3c-6.9-1.9-22.7-38-22.7-38
		s16.6,17.3,29.1,14.4c12.5-2.9,19.9-24.5,22.2-35.1c2.3-10.6,0.5-31.3,0.5-31.3L549.7,347.3z"/>
	
		<linearGradient id="SVGID_4_" gradientUnits="userSpaceOnUse" x1="556.2271" y1="-25.3993" x2="529.1271" y2="-26.9193" gradientTransform="matrix(1.48 0 0 -1.54 -106.5 300.55)">
		<stop  offset="0" style="stop-color:#A43907;stop-opacity:0.996"/>
		<stop  offset="1" style="stop-color:#FFFFFF"/>
	</linearGradient>
	<path class="st6" d="M676.9,361.7c0,0,8.3-13.5,15.3-12.5c6.9,1,13.4,9.6,13.9,10.1c0.5,0.5,10.6-11.1,10.2-11.5
		c-0.5-0.5-10.6-25.5-16.2-26.5c-5.5-1-17.5,1.8-17.5,2.8S676.9,361.7,676.9,361.7z"/>
	
		<linearGradient id="SVGID_5_" gradientUnits="userSpaceOnUse" x1="606.5209" y1="1.8071" x2="544.9909" y2="-2.5729" gradientTransform="matrix(1.3912 0 0 -1.6478 -105.2568 369.2186)">
		<stop  offset="0" style="stop-color:#A43907;stop-opacity:0.996"/>
		<stop  offset="1" style="stop-color:#FFFFFF"/>
	</linearGradient>
	<path class="st7" d="M658.4,347.3c0,1,2.8,36.6,14.8,49.1c12,12.5,31.4,20.2,38.4,18.3c6.9-1.9,22.7-38,22.7-38
		s-16.7,17.3-29.1,14.4c-12.5-2.9-19.9-24.5-22.2-35.1c-2.3-10.6-0.5-31.3-0.5-31.3L658.4,347.3z"/>
	
		<linearGradient id="SVGID_6_" gradientUnits="userSpaceOnUse" x1="953.8937" y1="160.1261" x2="748.4429" y2="160.1261" gradientTransform="matrix(1.17 0 0 -1.17 -390.42 569.5)">
		<stop  offset="0" style="stop-color:#A43907;stop-opacity:0.996"/>
		<stop  offset="1" style="stop-color:#FFFFFF"/>
	</linearGradient>
	<path class="st8" d="M497.2,345.4c-5.5,6.8-8.5,12-10.8,15.9c-2.3,3.9-1,9.3,4.4,16.9c5.8,8.3,53.1,40.6,114.7,40.6
		c61.6,0,109-32.3,114.7-40.6c5.3-7.7,6.7-13.1,4.4-16.9c-2.3-3.9-5.2-9.1-10.8-15.9c0,10.2-39.2,46.8-108.3,46.8
		S497.2,355.6,497.2,345.4z"/>
	
		<linearGradient id="SVGID_7_" gradientUnits="userSpaceOnUse" x1="487.5473" y1="64.5332" x2="776.4173" y2="63.0132" gradientTransform="matrix(1.2136 0 0 -1.8788 -101.7904 517.7356)">
		<stop  offset="0" style="stop-color:#A43907;stop-opacity:0.996"/>
		<stop  offset="1" style="stop-color:#FFFFFF"/>
	</linearGradient>
	<path class="st9" d="M710.7,409.3c0.9-1.4,10.6-18.3,10.6-18.3l-5.3-3.9c-1.6,4.8-7.6,6.3-8.6,12.1S711.7,410.7,710.7,409.3
		L710.7,409.3z"/>
	
		<linearGradient id="SVGID_8_" gradientUnits="userSpaceOnUse" x1="676.9232" y1="61.9239" x2="653.8832" y2="61.0039" gradientTransform="matrix(1.2432 0 0 -1.848 -103.1848 496.746)">
		<stop  offset="0" style="stop-color:#A43907;stop-opacity:0.996"/>
		<stop  offset="1" style="stop-color:#FFFFFF"/>
	</linearGradient>
	<path class="st10" d="M720.4,404.1c0,0,1.9-8.2-4.2-9.1c-6-1-9.2,4.6-8.3,2.4c1-2.4,4.6-4.8,5.1-13c0.5-8.2-0.5-12.5-0.5-12.5
		s2.3-10.6,12-9.1c9.7,1.4,10.2,9.1,10.2,12c0,2.9-0.9,4.3-0.9,4.3L720.4,404.1z"/>
	<path d="M685.5,376.5l2,3.5l1.3-0.8l-0.9-2.3l0.2-0.4l2.3-1.4l6.1,10.6l-0.2,0.5l-1.2,0.9l0.5,1l5.8-3.6l-0.5-1l-1.3,0.7l-0.5-0.1
		l-6.1-10.6l2.3-1.4l0.4,0.1l1.5,1.9l1.3-0.8l-2-3.5L685.5,376.5L685.5,376.5z M671.2,384.6l0.5,1l1.2-0.5l0.5,0.2l5.2,10.8
		l-0.2,0.5l-1.1,0.7l0.5,1l5.7-3l-0.5-1l-1.3,0.5l-0.5-0.2l-2.5-5.1l5.8-3.1l2.5,5.1l-0.1,0.5l-1.2,0.7l0.5,1l5.7-3l-0.5-1l-1.2,0.5
		l-0.5-0.2l-5.2-10.8l0.2-0.5l1.1-0.7l-0.5-1l-5.7,3l0.5,1l1.3-0.5l0.5,0.2l2.1,4.4l-5.8,3.1l-2.1-4.4l0.2-0.5l1.2-0.7l-0.5-1
		L671.2,384.6L671.2,384.6z M667.9,393.8l0.3,1.1l1.6-0.4l0.4,0.2l1.3,4.4c-0.5,0.2-1,0.4-1.2,0.4c-3.3,1-6-0.6-7.1-4.5
		c-1.1-3.8,0.2-6.7,3.5-7.7c0.6-0.2,1.3-0.3,1.9-0.2l0.4,0.3l1.1,2.2l1.6-0.5l-1.1-3.7c-1.7,0-3.3,0.3-4.8,0.7
		c-4.8,1.5-7,5.4-5.7,9.9c1.3,4.5,5.3,6.7,9.8,5.3c1.6-0.5,3.1-1.3,4.6-2.4l-1.5-5.1l0.3-0.4l1.2-0.5l-0.3-1.1L667.9,393.8
		L667.9,393.8z M654.5,406.3l6.4-2l-0.3-1.1l-1.5,0.3l-0.5-0.2l-3.5-11.6l0.3-0.4l1.4-0.6l-0.3-1.1l-6.4,2l0.3,1.1l1.5-0.3l0.4,0.2
		l3.5,11.6l-0.2,0.5l-1.4,0.6L654.5,406.3L654.5,406.3z M619.7,412l11.3-1l-0.3-4l-1.4,0.1l-0.2,2.4l-0.2,0.4l-4.9,0.4l-0.5-5.9
		l2.7-0.3l0.3,0.3l0.4,1.6l1.2-0.1l-0.4-5.3l-1.2,0.1l-0.1,1.6l-0.3,0.3l-2.7,0.3l-0.5-5.4l4.2-0.4l0.3,0.3l0.5,2l1.5-0.1l-0.3-3.5
		l-10.6,1l0.1,1.1l1.3,0l0.4,0.3l1,12.1l-0.3,0.4l-1.3,0.2L619.7,412L619.7,412z M602.9,397.1l0,1.1l1.2,0.1l0.3,0.4l0.2,12.1
		l-0.3,0.4l-1.2,0.1l0,1.1l6-0.1l0-1.1l-1.3-0.1l-0.3-0.4l-0.1-5.7l6.1-0.1l0.1,5.7l-0.3,0.4L612,411l0,1.1l6-0.1l0-1.1l-1.2-0.1
		l-0.3-0.4l-0.2-12.1l0.3-0.4l1.2-0.1l0-1.1l-6,0.1l0,1.1l1.3,0.1l0.3,0.4l0.1,5l-6.1,0.1l-0.1-5l0.3-0.4l1.3-0.1l0-1.1L602.9,397.1
		L602.9,397.1z M590,396.6l0,4l1.5,0l0.4-2.4l0.3-0.3l2.5,0l-0.1,12.4l-0.4,0.4l-1.4,0.1l0,1.1l6.3,0.1l0-1.1l-1.4-0.1l-0.4-0.4
		l0.1-12.4l2.5,0l0.3,0.3l0.3,2.4l1.5,0l0-4L590,396.6L590,396.6z M570.6,409.5l11.1,0.5l0.2-4.1l-1.4-0.1l-0.5,2.4l-0.3,0.4
		l-4.8-0.2l0.3-5.9l2.7,0.1l0.3,0.3l0.1,1.6l1.2,0.1l0.2-5.3l-1.2-0.1l-0.3,1.6l-0.3,0.3l-2.7-0.1l0.2-5.4l4.1,0.2l0.3,0.3l0.2,2
		l1.4,0.1l0.2-3.6l-10.4-0.5l0,1.1l1.3,0.2l0.3,0.3l-0.5,12.1l-0.3,0.3l-1.3,0L570.6,409.5L570.6,409.5z M545.2,402.9l5.9,2l0.3-1.1
		l-1.3-0.5l-0.2-0.5l3.5-11.5l0.4-0.2l1.4,0.3l0.3-1.1l-5.9-2l-0.3,1.1l1.3,0.5l0.2,0.4l-3.5,11.5l-0.4,0.2l-1.3-0.3L545.2,402.9
		L545.2,402.9z M534.8,398.9c1.1,0.9,2.3,1.5,3.6,2c3.2,1.1,5.8-0.1,6.6-2.7c0.4-1.3,0.1-2.7-0.8-3.8c-0.9-1.2-1.8-1.9-2.3-2.5
		c-0.8-1-1.2-1.9-0.9-2.9c0.4-1.2,1.5-1.8,2.9-1.3c0.6,0.2,1,0.5,1.3,0.8l0.2,0.4l-0.4,2.4l1.4,0.5l1.1-3.5c-1.1-0.9-2.2-1.6-3.5-2
		c-2.8-0.9-5.2,0.3-5.9,2.7c-0.3,1.1-0.2,2.3,0.5,3.4c0.6,1.1,1.4,1.8,2.1,2.5c1.2,1.2,1.6,2.3,1.3,3.4c-0.4,1.2-1.6,1.7-3.2,1.2
		c-0.6-0.2-1.1-0.5-1.6-0.9l-0.2-0.4l0.5-2.7l-1.5-0.5L534.8,398.9L534.8,398.9z M521.5,393.3l10,5l1.7-3.7l-1.3-0.6l-1.3,2
		l-0.4,0.2l-4.3-2.2l2.4-5.3l2.4,1.2l0.1,0.4l-0.5,1.6l1.1,0.5l2.2-4.8l-1.1-0.5l-0.9,1.4l-0.4,0.2l-2.4-1.2l2.2-4.9l3.7,1.9
		l0.1,0.4l-0.5,1.9l1.3,0.7l1.5-3.2l-9.4-4.7l-0.5,1l1.1,0.7l0.2,0.4l-5,10.9l-0.4,0.2l-1.2-0.5L521.5,393.3L521.5,393.3z
		 M519.8,375.1l-5-3.5l-0.6,0.9l1,0.8l0.1,0.5L509,384l-0.5,0.1l-1.1-0.6l-0.6,0.9l5,3.5c1.7,1.2,3.2,1.8,4.8,1.6
		c2.1-0.2,4-1.5,5.4-3.7C524.5,381.8,523.8,377.9,519.8,375.1L519.8,375.1z M517.7,375.2l1,0.7c2.7,1.9,3,4.5,0.7,8.1
		c-2.2,3.6-4.7,4.4-7.4,2.5l-1-0.7L517.7,375.2L517.7,375.2z M557.8,390.9l-0.2,1.1l1.2,0.4l0.3,0.4l-2.4,11.8l-0.4,0.3l-1.2-0.2
		l-0.2,1.1l5.7,1.3l0.2-1.1l-1.2-0.4l-0.3-0.4l1-5l0.3,0.1c2,0.5,2.4,1.5,2.6,3.8c0.1,1.1,0.1,2.2,0.9,3.3c0.4,0.5,1.1,1,2,1.2
		c0.7,0.1,1.4,0.2,2.1,0.3l0.2-1.1l-0.3-0.1c-1.3-0.3-1.9-0.8-2.1-2.1c-0.2-1.2-0.1-2.4-0.5-3.5c-0.3-0.8-0.9-1.4-1.8-1.8
		c2.4,0,3.8-1,4.3-3c0.5-2.5-0.8-4.2-4-4.8L557.8,390.9L557.8,390.9z M561.7,393.1l0.9,0.2c2,0.4,2.8,1.7,2.4,3.5
		c-0.4,2-1.6,2.8-3.8,2.3c-0.2,0-0.5-0.1-0.7-0.2L561.7,393.1L561.7,393.1z M635.8,394.4l0.2,1.1l1.3-0.1l0.4,0.3l1.9,11.9l-0.3,0.4
		l-1.3,0.3l0.2,1.1l6.3-1.1l-0.2-1.1l-1.4,0.1l-0.4-0.3l-0.8-5l0.4-0.1c2.2-0.4,3,0.5,4,2.5c0.5,1,0.9,2,2.2,2.7
		c0.6,0.3,1.5,0.5,2.4,0.3c0.7-0.1,1.5-0.3,2.2-0.6l-0.2-1.1l-0.3,0c-1.5,0.3-2.2,0-2.9-1.1c-0.6-1-1-2.2-1.8-3.1
		c-0.6-0.6-1.4-0.9-2.6-1c2.4-0.9,3.5-2.4,3.2-4.5c-0.4-2.5-2.4-3.5-5.8-2.9L635.8,394.4L635.8,394.4z M640.5,394.9l1-0.2
		c2.2-0.4,3.5,0.5,3.7,2.3c0.3,2.1-0.7,3.2-3,3.6c-0.2,0-0.5,0.1-0.8,0.1L640.5,394.9L640.5,394.9z"/>
	
		<linearGradient id="SVGID_9_" gradientUnits="userSpaceOnUse" x1="509.8026" y1="64.3941" x2="487.2527" y2="62.0741" gradientTransform="matrix(-1.2136 0 0 -1.8788 1103.6604 517.7356)">
		<stop  offset="0" style="stop-color:#A43907;stop-opacity:0.996"/>
		<stop  offset="1" style="stop-color:#FFFFFF"/>
	</linearGradient>
	<path class="st11" d="M497.5,409.3c-0.9-1.4-10.6-18.3-10.6-18.3l5.3-3.9c1.6,4.8,7.6,6.3,8.6,12.1
		C501.6,405,496.5,410.7,497.5,409.3L497.5,409.3z"/>
	
		<linearGradient id="SVGID_10_" gradientUnits="userSpaceOnUse" x1="481.3893" y1="55.8043" x2="519.1594" y2="69.7843" gradientTransform="matrix(-1.2432 0 0 -1.848 1105.0148 496.746)">
		<stop  offset="0" style="stop-color:#A43907;stop-opacity:0.996"/>
		<stop  offset="1" style="stop-color:#FFFFFF"/>
	</linearGradient>
	<path class="st12" d="M487.8,404.1c0,0-1.8-8.2,4.2-9.1c6-1,9.2,4.6,8.3,2.4c-1-2.4-4.6-4.8-5.1-13c-0.5-8.2,0.5-12.5,0.5-12.5
		s-2.3-10.6-12-9.1c-9.7,1.4-10.2,9.1-10.2,12c0,2.9,0.9,4.3,0.9,4.3L487.8,404.1z"/>
	<path class="st13" d="M605.2,381.8c0,0-111.6-32.7-111-157.3L495,59.8h220.3l0.9,163.7C716.8,348.1,605.2,381.8,605.2,381.8
		L605.2,381.8z"/>
	<g>
		<path class="st14" d="M509.5,99.1c0.2,0,1.5-1.3,2.8-2.4c1.7-0.9,3.3-2.1,5.1-2.9c1.3-0.8,3.9-1.3,5.1-1.9
			c1.6-0.8,2.8-1.8,4.2-3.4c0.2-2.2,0.5-3.7,0.5-6.3c1.8-0.9,3.5-1.7,5.1-2.4c2.3-0.7,2.8-1.6,5.1-1.9c1.5-0.5,3.9-0.5,6-0.5
			c2.3,0,3.7,1.6,5.8,2c2.4,1,3.6,1.7,5.5,3.4c1.1,1.4,1.8,2.5,3.7,3.6c1.5,0.8,2.9,1.9,4.6,2.4c1.9,1.1,3.6,1.7,5.1,3.4
			c1.4,1,1.9,2.4,3.2,3.4c1.5,1.3,3,2.4,4.6,3.4c2,1.3,3.9,2.3,7.1,2c1.7-0.1,3.5-0.3,5.5,0.1c2.3,0,4.5,0,6.5,0.5
			c2.4,0,4.3,0.3,6.5,0.5c2.1,0.4,4.2,0.5,6.5,0.5c2,0.5,4.2,0.5,6.5,0.5h12.9c2.4,0,4.7,0.1,6.5,0.5c2.3,0,4.3-0.2,6.5-0.5
			c2.5,0,4.4-0.5,6.9-0.5h7.8c2,0.6,4.6,0.9,6,1.9c1.8,0.5,2.8,1.4,4.6,1.9c1.4,0.7,3.6,1.9,4.6,3.4c1.3,1.4,2.6,3.3,3.7,5.3
			c1.3,1.9,1.8,4,2.8,6.3c0.5,2.2,0.9,4.3,0.9,6.8c0.5,2.1,0.5,4.4,0.5,6.8c-0.5,2.2-0.6,4.6-1.4,6.8c-0.1,2.4-0.5,4.5-0.9,6.3
			c-0.4,2-0.9,3.2-0.9,5.8v6.8c-0.2,2.2-0.6,3.8-0.9,6.3c-1.1,2.1-2.2,4.6-3.2,7.2c-1.5,1.1-2.9,2.6-3.7,3.9c-1,0.6-1.6,1.5-1.4,1.9
			c1.8,0.6,1.4,1.9,1.4,4.3c0.2,1.9,0.4,4.2,0.9,6.3c0.2,2.3,0.7,3.7,1.4,5.3c0.7,0.9,0.9,0.5-0.9,0.5c-1.3,1-2.7,0.5-3.2-1.4
			c-1.1-1.3-1.4-2.9-1.8-5.3c-0.3-2.2-0.6-4.4-1.4-5.8c-0.2-2.7-1-2.7-3.7-2.9c-1.3-1.2-3-1.4-5.5-1.4c-2.5,0-2.7-0.3-2.8,2.4v6.8
			c-0.4,2-1.4,3.5-1.8,5.3c-1.4,1-2.1,2.7-3.7,3.9c-0.8,2.2-1.9,2.6-4.2,2.9c-0.8-1-2.1-2.3-2.8-3.4c1.3-2.2,2.4-2.5,3.2-4.8
			c1-1.9,1.6-3.2,2.3-4.8c-1-1.5-1.9-2.2-2.8-4.3c-0.8-1.2-1.8-3.7-2.3-5.3c-1.5-0.5-3.9-0.6-5.1-1.4c-2.2-0.5-2.9,1.9-5.5,1.9h-6.5
			c-2.9,0-3.6,1.6-6,1.4c-0.7,0.2-2.4-0.1-5.1,0c-1.9,0.7-4.3,0.5-6.5,0.5c-2.3,0-4.3-0.6-6-1c-2.1-0.6-4.2-1.2-6.5-1.4
			c-2.7,0-3.7,0.2-5.5,1.4c-1.4,0.9-3.5,2.8-5.1,3.9c-0.7,1.6-1,4.3-1.8,6.3c-0.5,1.9-1.3,3.1-1.8,4.8c-0.6,1.6-1.2,3.3-1.4,5.8
			c-0.2,3.3-0.9,2.9-2.8,1.9c-0.8-1.3-2.1-2.8-2.8-4.3c0.4-2.5,0.9-3.7,0.9-6.3c-0.5-1.9-1.5-1.8-2.8-0.5c0,2.5,0.1,4.5-0.9,5.8
			c-0.5,2-1.4,2.9-2.8,3.9c-0.7,1.8-2.2,2.6-3.7,3.4c-0.2-0.1,0-0.6,0-1.9c-1.1-2.2-0.1-4-0.1-6.8c0-2.4-0.1-4.1,0.6-6.3
			c0-2.3-1.1-4.6-1.4-6.3c-0.9-1.8-1.4-2.7-3.7-3.4c-1.6-0.7-4-1.5-5.1-2.9c-1.3-1.7-2.2-2.5-4.2-3.4c-2.1-0.8-3.2-1.5-4.6-2.4
			c-1.4-1.6-2.6-2.3-3.2-4.3c-1-1.5-1.1-4.2-1.8-6.3c-0.2-2.1-0.8-4.1-1.4-5.8c-0.3-2.1-0.6-3.7-1.4-5.8c-0.3-2-0.8-4.1-1.4-6.3
			c0-2.4,0-4.7-0.5-6.8v-6.8c-0.3-2-0.5-4.8-0.9-6.3c0-2.6-0.3-4.1-0.9-5.8c-1.1-1.7-1.1-2.5-2.8-2.9c-1.2,1.5-3.1,2.1-5.5,2.4
			c-1.7-0.4-4.1-0.6-6-1.4c-1.9-0.5-3.1-1.2-4.6-1.9c-0.8-1.3-1.8-2.7-2.8-3.9c-0.3-2.5-0.8-3.8-0.9-6.3
			C507.6,100.6,507.7,101.6,509.5,99.1L509.5,99.1z"/>
		<path class="st15" d="M536.8,116.5l0.3-0.3c-0.7,0.8-0.5,0.4,1.3-0.3c1-0.6,2.9-1.7,3.6-2.4c0.9-0.4,2.2-0.9,2.9-1.7
			c0.9-1,1.8-1.8,2.9-2.7c1.3-1.1,2.5-1.5,3.9-2.4c1.8-0.1,2.5-0.9,4.2-0.3c1.6,0.4,2.3,0.4,3.6-1c1.3-0.8,2.8-1.7,3.3-3.1v-2
			c0,2.2-0.4,3-2,3.8c-1.1,1.2-2.4,2.6-2.9,3.8c-1,1.5-1.3,2.3-2.3,3.1c-0.8,1.1-2.3,1.6-2.6,3.4c0.5,0.8,0,1.3,1,1.4
			c0.9,0.8,1.9,0.5,3.3,0c1.3-1.5,1.9-2.5,2.6-4.1c1.1-1.5,1.7-2.2,2.3-3.4c1.1-0.8,1.9-1.5,2.3-2.7c1.3-0.8,2.4-1.6,3.3-2.4
			c1-0.6,1.5-1.1,2.9-1.4c0,1.8-0.3,2.7-1,3.8c-0.3,1.9-0.3,2.8,0.3,4.1c0.9,0.6,0.8,1.1,1.3,2.4c0.5-1.1,0.8-3.4,1-4.8v-0.3
			c0,1.5,0.1,3.5-0.3,4.4c0,2,0.5,2.9,1,4.4c0.5,0.8,0.9,1.2,1.6,1.7c0.1-2,0.6-3.3,0.7-5.1c0.5,1.4,0.3,3.3,0.7,4.8
			c0.1,1.6,0.7,2.9,1.3,4.1c0.7,0.5,1,1.8,1.3,0.7c0.8-2.4,0.8-5,1.3-7.5c0.1-1.3,0.2-3.1,0.7-4.1l-0.7,4.1c0.1-1.3,0.2-3.1,0.7-4.1
			v-0.3c0.3,1.8,0.6,3.5,0.7,5.5c0,1.5-0.1,3.1,0.3,4.4c1.1-0.5,1.7-1.7,2.3-3.1c0.9-1.6,1.5-2.4,2.6-3.8l-2.6,3.8
			c0.9-1.6,1.5-2.4,2.6-3.8v-0.3c-0.2,1.6-0.3,3.1-0.3,4.8c0,1.6,0,3.4,0.3,4.4c0.4,1.8,0.9,2.1,1,4.1c0,0.9-0.1,1.9,0.3,2.4
			c1.4,0.4,1.4-0.5,1.6-2.4c0-2.2,0.6-3.7,0.6-5.8c0-2.6,0.4,0.3,0.7,1.4c0.7,1.5,0.9,2.9,1,4.4c0,0.9-0.1,1.9,0.3,2.4
			c1.3-0.5,1.8-2,2.6-2.7c0.6-1.6,1.3-2.3,2-3.4c1.7-0.4,1.6-1.1,1.6-3.1c0-1.6-0.1-3.4,0.3-4.8c0.5-1.5,1-3.1,1.3-4.4
			c0.6-0.4,1.3,0.5,1.6,1.4c0.7,1.1,0.7,2.7,0.7,4.4c0.3,1.5,0.9,2.7,1.6,4.1c0.8,1.6,1.5,2.5,2.3,3.4c0.3,1.1,0.3,2.9,0.3,4.4
			c1.3-1.4,1.5-3.6,1.6-5.8c-0.2-1.5-0.2-3.4-0.7-4.8c-0.1-1.5-0.3-3.1-0.7-4.1c-1.1-0.5-1.3-1-0.3-2.4c1-0.9,2.2-0.6,3.9-0.3
			c0.9,0.9,1.2,1.4,1.3,3.4c0,1.8,0.1,3.2,0.7,4.4c0.6,1,1.3,1.7,1.6,3.4c0.5,0.4,0.9,1.1,1.6,0.3c0.4-1,0.7-3.1,1-4.1
			c0.3-1.3,0.9-1.9,1.6-2.4c0,1.9,0,3.1,0.7,4.4c0.6,1.5,1.1,2.1,1.6,3.8c0.7,0.5,0.8,1.5,1.6,2c0.2-1.6,0.3-3.4,0.3-5.5v-4.8
			c0.1-1.6,0.5-2.5,1-3.8c1,1.3,1,1.9,1,3.8c1.1-0.4,1.3-1.2,1.6-2.4c0.8-0.7,1-1,1.3,0.7c0.2,1.8,0.7,3.4,1,5.1
			c0.7,0.8,1.4,2.7,2.3,3.4c0.6,1,1.2,1.9,2,2.7c0.5,1.1,0.6,1.7,2,2c0-2.3,0.1-4.6-0.3-6.8c0-2-0.4-2.7-0.7-4.4
			c-0.5-1.2-0.9-2.9-0.7-3.4c1.5,1.5,2.2,2.4,2.9,4.1c0.8,1.6,1.4,2.7,2,4.4c0.8,0.6,2.1,2.6,2.6,3.4c1.2,1,1.7,2.1,2.9,3.1
			c0.6,0.6,1.9,0.9,2.3,0.7c-0.1-2-0.4-3.7-1-5.5c0-1.9-0.5-2.9-1-4.1c-1.3-1.1-2.3-1.9-2.9-3.4c-0.5-0.4-0.6-0.8-0.7-1.7
			c1.9,1.6,3.2,2.9,4.6,4.8c0.9,1.2,1.4,1.8,2.6,2.4c0.7,0.7,2.5,1.6,3.9,2c0.8,1.1,1.9,1.7,3.3,2.1l-3.3-2.1
			c0.8,1.1,1.9,1.7,3.3,2.1v0.3c-0.2-2.1-0.9-3.7-2-5.5c-0.8-1.9-1.6-2.6-2.9-3.8c-0.9-1.4-1.8-2.1-3.3-3.1
			c-0.9-1.1-2.3-2.8-2.9-3.4c1.4-0.9,3,0.6,4.6,1.4c1.3,1.4,2.5,3.2,3.3,4.1c0.9,1.8,1.5,2.8,2.9,4.4c1.4,0.8,2.4,1.7,3.6,2.7
			c1.9,0.5,1.1-0.2,0.7-1.7c-0.6-1.9-0.1-2,1.3-0.7c0.9,0.6,1.9,1.7,3.3,2.4c0.6,0.8,1.5,1.2,2.3,0.7c0.3-0.5,0.3-0.4,0.3-1
			c-0.7-2.1-1.3-3.8-2.9-4.4c-0.7-0.9-1.9-2.1-2.9-3.1c-0.7-1-1.4-1.6-2-2.7l2,2.7c-0.7-1-1.4-1.6-2-2.7h-0.3c2,0.1,2.7,0.6,4.2,1.4
			c1.1,0.4,2.3,1.5,2.9,2.4c0.6,0.8,1.7,1.8,2.3,2.7c1,0.8,2.1,1.7,3.3,2.4c1.1,1.4,1.3,2.4,1.3,4.4c0.6,1,0.7,2.9,1,4.1
			c-0.2,1.9-0.9,0.4-1-0.7c-0.3-1.5-0.8-1.4-2-1c0,2.1,0.2,2.6,1,4.1c-0.2,1.4-0.7,2.4-1.3,3.4c-0.8,0.5-0.9-1-1.6-1.7
			c-0.1-2.1-0.7-2.3-2-3.4v1.4c0.7,1.5,1.5,2.8,1.6,4.8c0.5,1.5,0.7,2.5,0.7,4.4c0,1.7,0,3.3-0.3,4.8c0,1.9-0.3,2.6-0.3,4.4v9.6
			c-0.3,1.2-0.3,2.8-0.3,4.4l0.3-4.4c-0.3,1.2-0.3,2.8-0.3,4.4v0.3c-0.6-1.7-1.3-3.3-1.6-5.1c-1.1-1-1.7-2.1-2.3-3.4
			c-0.3-1.5-0.4-3.3-0.7-4.4c-0.5-1.2-0.9-2.5-2-1.7c-0.4,2.5,0.1,4.1,1,6.5c0.5,1.6,0.5,2.9,1,4.4c0.8,1.8,1.4,2.1,0,4.1
			c-0.7,1.1-1,1.4-1.3,2.7c-1.2,0.6-1.5,0.9-1.6,2.4c-0.4-1.3-1.4-2.9-2-4.4c-0.6-1.6-1.3-3.3-1.6-4.8c-0.8-1.1-1.7-3-2.6-3.8
			c-0.8-1.1-2-2.9-2.6-4.1c-1.3-1.5-1.5-2.3-2.6-3.1c-0.3-0.7-0.6-1.5-1.3-1c0,1.6-0.1,3.4,0.3,4.8c0.3,2,0.9,3.1,1,5.1v3.8
			c-0.8-1.9-1.6-3.6-2.3-5.5c-0.7-1-1.4-3-2.3-3.8c-0.6-1.3-1-2.4-1.6-3.4c-0.2-1-0.6-1-1-1.7c0,1.9,0.6,2.6,1,4.1
			c0.6,1.3,0.8,3.5,0.7,4.1c-0.8-2.4-1.6-5-2.6-7.2c-1-1.4-2-3.2-2.6-4.4c-1-1.2-2-1.2-2.9-2c-0.9-0.4-1.7-0.9-2.3-1.7
			c0.3,1.8,0.9,2.9,1.3,4.4c0.2,1.7,1,3.1,1.3,4.4c-0.4,2.3-0.9-0.6-1.3-1.7c-0.3-1.9-1-3-1.6-4.1c-0.9-0.6-1.7-1.7-2.6-2.4
			c-0.9-0.4-0.7,0.1-0.7,1.4c0,2.1,0.1,3.5,0.7,4.8c0.7,1,0.7,2.3,0.7,4.1c-0.1,1.7-0.3,3-0.3,4.8v2.7c-0.8-1.4-1.5-2.3-2-4.1
			c-1.1-1.6-1.5-2.7-2.3-4.4c-0.7-0.3-1.9-0.6-2.6,0c0.1,1.7,0.9,2.5,1,4.4c-1.3,1.3-1.1,1.7-2-0.3c-0.7-1.6-1.6-1.5-2.6-2.4
			c-1.6-0.2-1.1-1.3-1.6-2.7c0-1.3,0.1-2.6-0.3-3.8c-1.8,0-2.8-0.1-3.9,1c-0.5,1.1-0.3,3,0,4.4v4.8c-0.4,1.2-1.1,1.3-1.3,2.7
			c-0.6,1.5-0.8,3.1-1.3,4.1c-1.2,1.1-0.7,1.2-1.3-0.7v-10.9c0-1.9,0.3-2.8,0.3-4.4c-0.7-1.4-0.9-1.7-2.9-1.7
			c-0.5,0.9-0.3,2.5,0,3.4c0,1.7,0.1,3.2,0.3,4.4c0,1.8,0.2,2.9,0.3,4.4c-0.1,1.8-0.4,3.3-1.3,4.1c-1.2,0.3-0.1,1.1-1.3,1.4
			c-1.2-0.6-2.6-1.4-3.6-2.4c-1.3-0.4-2.5-0.7-4.2-0.7c-2.2,0-2.2-0.3-2.9-2.1c-0.7-1.9-1-3.5-1.3-5.5c-0.7-1.6-0.9-2.7-1.3-4.4
			c-0.5-1-1.1-1.8-2-2.4c-0.5,1.7-0.9,3.2-1,5.1c-0.4,0.8-0.5,2.8-0.7,3.8c-0.7-1-0.9-3-1.3-4.4c-0.6-2.1-1.1-3.4-3.3-2.7
			c-2.2,0-2.3,0.1-2.3,2.4c0.9,1.5,2,2.9,2.6,4.1v4.8c0,2,0.1,2.5-1.3,3.1c-0.5-2-1.7-4-2.9-5.8c-0.2-1.4-0.6-1-2-1
			c-0.9,0-1.8-0.1-2.3,0.3c0,1.2,0.1,2.8,0,3.1c-0.8,0.1-1.1,0-1.6-0.7c-0.6,1-0.1,2.4,0,3.8c-0.4,1.5-0.9,2.9-1.6,3.8
			c-0.1-0.5-0.5-0.3,0-0.3c-2.2-0.9-4-1.4-5.9-2c-1.1,0.1-2,1.2-2.6,2c-1.7,0.6-2.4,1-4.2,1c-1.8,0-2.6,0.3-4.2,0.3
			c-1.2,0.3-2.7,0.3-4.2,0.3c-0.9-0.3-2.4-0.3-2.9-0.7c0.7-1,1.4-1.5,2-3.1c0.9-0.6,1.7-1.5,2.6-2.4c0.9-0.6,1.9-1.9,2.6-2.7
			c0.5-1.6,1.2-1.9,2.3-2.7c1.9,0.1,2.3,0.7,4.2,1c1.9,0.7,2.9,0.9,3.9-0.3c1.6-0.7,2.9-1.7,4.6-2.1c1.3-0.7,2.1-1.3,3.3-2
			c1.4-0.8,2-1.7,3.3-2.7c0.3-1.4,1.3-2.5,1-4.1c-1.8-0.5-2.9-0.3-3.9,0.7c-1.4,1.2-1.7,1.7-3.3,2.7c-1.4,0.4-1.9,1-3.6,1.4
			c-1.4,0.5-3,0.3-4.6,0.3c-1.4,0-3.3-0.1-4.2,0.3c1.5-1,3.2-2,4.6-2.4c1.3-0.9,1.8-1.3,3.6-1.4c0.8-1.1,1.7-1.1,2-2.7
			c0.6-2-1.2-1.4-2.6-0.7c-1.3,0.2-2.8,1.2-3.9,1.7c-1.1,0.4-2.7,0.7-4.2,0.7c-0.4-0.6,0.3-1.1,0.7-2.1c1.5-0.5,1.8-0.7,2-2.4
			c-1.7,0.2-2.4,0.8-3.9,1c-1.7,0.4-3.4,0.6-5.2,0.7h-4.6c-1.6-0.1-2.5-0.3-4.2-0.3c-1.3-0.7-1.3-1-1.3-3.1c1-1.2,2-1,3.9-1
			c1.5-0.7,2.6-1.1,3.6-1.7c1.2-0.3,2-0.8,1.6-1.4h-4.6c-1.8-0.7-0.1-1.1,1-1.7c1.6,0,3.2,0.1,4.2,0.7c2-0.1,2.6-0.7,4.2-2.1
			c1.3-1,1.9-1.7,3.3-2.4c1-1.1,2-1.7,2.6-2.7c1.3-1.3,2.2-2,2.9-3.1c0.9-0.5,1.4-1.1,1-1.7c-2,0.3-2.9,1-4.2,2
			c-0.8,0.8-1.6,1.5-2.6,2c-1.5,0.9-2.4,1.2-4.2,1.4c-1.7,0-3-0.3-4.6-0.3c-1.8-0.2-0.1-0.6,0.3-1.4c0.7-0.5,1.2-1.5,0.7-2.4
			c-1.4-0.5-3-0.3-4.6-0.3h-4.6c-1.7-0.1-2.5-0.5-3.6-1c-0.4-1,0.1-0.7,1.3-0.7c1.6-0.1,2.7-0.3,4.2-0.7c1.5-0.4,1.7-0.9,2-2.7
			c-1.5,0-3.2,0-4.2-0.3L536.8,116.5L536.8,116.5z M508.5,108.7c-0.3-2.5-0.8-3.8-0.9-6.3c0-1.8,0-0.9,1.8-3.4
			c0.2,0,1.5-1.3,2.8-2.4c1.7-0.9,3.3-2.1,5.1-2.9c1.3-0.8,3.9-1.3,5.1-1.9c1.6-0.8,2.8-1.8,4.2-3.4c0.2-2.2,0.5-3.7,0.5-6.3
			c1.8-0.9,3.5-1.7,5.1-2.4c2.3-0.7,2.8-1.6,5.1-1.9c1.5-0.5,3.9-0.5,6-0.5c2.3,0,3.7,1.6,5.8,2c2.4,1,3.6,1.7,5.5,3.4
			c1.1,1.4,1.8,2.5,3.7,3.6c1.5,0.8,2.9,1.9,4.6,2.4c0,1.7,0.4,1.4-0.9,1.4c-0.1,1.8-0.6,1.7-2.3,1.7c-1.2-0.6-2.2-1.6-2.9-2.7
			c0.7-1.8,0.2,1.4,0,2c-0.8,0.7-1.3,1.4-2.3,0.7c-0.5-1.7-1-2.8-1-4.8c-0.3-2.1-0.8-0.6-1.3,0.3c-0.4,1.7-0.2,2.3,0.3,3.8
			c-1.7,0-2.9-0.2-4.2-0.3c-1.2-0.3-2.6,0.1-3.9,0.7c-1.7,1.1-1.2,1.1-0.3,2.4c1.5,0.4,2.6,1.3,3.9,2c1.5-0.3,3.1-0.6,4.6-1
			c1.6-0.5,3-0.2,4.6,0c0.8,0.4,1.8,0.5,2.3,1c0,1.1,0.1,2.2-0.3,2.7c-0.7,0.5-1.3,1.7-2.3,2c-1.4,0.8-3,1.3-4.6,1.7
			c-2,0.1-2.7,0.5-4.2,1.4c-0.3,1.7-0.8,2.2-2.3,2.7c-1.5,0.7-2.7,1-4.6,1c-0.9,0-1.8,0.1-2.3-0.3c1.5-1.7,1.9-2.4,2.6-4.1
			c0.3-0.7,0.9-1.1,0.3-1.7c-1.9,0.1-2.4,0.1-2.6,2c-0.2,1.8-0.9,2.1-2.3,2.7c0.4-1.7,0.4-2.9,1-4.4c-1.2,0.3-2.7,0.3-4.2,0.3
			c-1,0.6-1.4,0.9-1,2.1c-1.3,0.5-2.9,0.2-4.6,0c-1.4-0.1-0.6-0.7-1.6-1.4c-0.7-1.3-1.4-1.6-2.9-1.7c-0.8,0.9-2.1,1.3-2.9,2
			c-1.4,0.5-2.3,0.1-3.6-0.7c-1.6,0.1-1.4,0.6-1,1.7c0.6,0.4,0,0.9,1,1c0.9,0.9,1.7,1,3.6,1c1.4-0.4,3-0.3,4.6-0.3
			c1.6,0.1,1.3,0.4,1.3,2c-1.1,0.7-2.6,0.7-4.2,0.7c-1.6-0.2-2.8-0.6-3.9-1c-1.5-0.1-2.8-0.4-3.9,0c-0.5,0.6-2.1,0.8-0.3,1
			c0.7,0.7,4.5,0.3,4.7,1.5c0.9,1,0.7,2.3-0.8,2.3c-0.9-0.5-1.6-0.4-2.3,0c-1.1,0.3-2.4,0.1-4.3,0.2
			C513.8,112.8,509.5,109.9,508.5,108.7L508.5,108.7z"/>
		<path class="st14" d="M518.9,97.4c-0.1,0-1.1,0.7-2,1.4c-1.4,0.8-3,2.1-3.9,2.7c-0.7,0.6-0.7,0.9-1.6,1c1.6-0.2,2.2-0.6,3.6-1.4
			c1.7-0.2,3.3-0.6,4.2-1.4C520,99.5,519.1,98.1,518.9,97.4L518.9,97.4z M533.9,81.3c0.2,0,0.6,1.1,1.3,1.7c0.5,1.3,0.9,2.2,1,3.8
			c0.4-1.7,1.1-3,1.3-4.8c-0.5-0.9-0.5-1.3-2-1.4C535.5,81.6,535.6,81,533.9,81.3L533.9,81.3z"/>
		<path class="st16" d="M524.7,93.3c-0.7,0,1.3-0.8,2-1c0.5-1.2,1-2,2-2.7c1.6,0.1,2.4,0.6,3.3,1.7c1.4,0.4,1.9,1.1,3.6,1.4
			c0.6,0.6,1.5,0.6,0,1c-1,0.6-2.3,0.7-3.9,0.7c-1.7,0.1-2.9,0.5-3.9,1C525.5,95.4,525.8,95.5,524.7,93.3L524.7,93.3z"/>
		<path class="st14" d="M539.7,81.7V82c0-0.9,0-0.4,0.3,1.4c0.5,1.1,0.7,2.4,0.7,4.1c0.9-0.6,1.6-1.9,2-3.1
			C542.7,81.7,542.3,81.9,539.7,81.7z M551.8,120.9h0.3c-1,0-0.4,0.1,1.3-1c1.1-0.8,2-1.9,3.6-2.4c1.5-1.2,2.7-1.8,4.2-2.4
			c0.8-0.4,1.4-1,2.3-0.3c-0.2,1.7-0.5,2.3-2,3.1c-0.7,1-1.9,1.5-2.9,2c-1.1,0.5-2.2,0.5-2.6,1.7
			C554.3,122.4,554.1,122.3,551.8,120.9L551.8,120.9z M558,130.8c0.6-0.5,2.6-2.6,3.6-3.4c1.1-1.5,2.2-2.7,3.3-3.4
			c1-1.5,2.2-2.4,2.9-3.8c0.9-1.1,1.6-2.1,2.6-3.4c0,1.5-0.1,3.5,0.3,4.4c0,2.1-0.2,2.6-1,4.1c-0.7,1.2-1.3,2-2.9,2.7
			c-1.5,0.8-2.4,1.1-3.6,2c-0.9,0.6-1.9,1.2-2.9,1.7C559.4,132.3,559.8,132.1,558,130.8L558,130.8z M547.9,138.7h0.3
			c-1,0-0.4,0.1,1.3-1c1.4-1.5,2.5-2,4.2-2.7c1.3-0.1,2.9-0.5,3.9-1c0.8-0.1,1.3-0.6,2,0c1,1.4,1.3,1.9-0.3,2.7
			c-0.8,0.7-2.2,1.4-3.3,1.7c-0.8,0.7-2.4,0.7-3.9,1c-1.3,0-2.1,0.2-2.6-0.7l2.6,0.7C550.8,139.3,550.1,139.5,547.9,138.7
			L547.9,138.7z M561.9,138.7v-0.3c0,1,0,0.4,0.7-1.4c1.2-1.9,1.7-3,3.3-3.4c0.7-0.9,2-1.2,3.6-1.7c0.6,1,0.1,2.2,0,3.4
			c-0.4,1.3-1.6,2.2-2.3,3.1c-1,0.7-1.4,1.4-2.9,1.7C563,140,563.6,140,561.9,138.7L561.9,138.7z"/>
		<path d="M530,94.3c0,0.9-0.7,1.7-1.6,1.7c-0.9,0-1.6-0.8-1.6-1.7c0-0.9,0.7-1.7,1.6-1.7S530,93.3,530,94.3L530,94.3z"/>
	</g>
	<g>
		<path class="st17" d="M534.8,187.3h1.3c-4.1,0-1.7-0.3,5.2,5.4c2.9-2.5,2.8-2.8,5.2,1.4c1.4,2.4,1.8-0.2,3.9-2.7
			c1,4.9,1.7,10.1,5.2,5.4c4,0,8.3-0.3,10.5,1.4c2.6,5.1,1.8-0.9,3.9,1.4c5.8,0.7,5.7-5.1,11.9-6.7c3.9,5.1,5.6,1.2,10.5-1.4
			c3.6,1.1,7,6.7,7.7,1.2c3-5,3.2-4.6,5.2,0c2.9,2.7,4.1-1.3,6.5-2.7c4.4,2.7,9.3,3,15.7,1.4c1.1,4.5,3.8,2.6,6.5,1.4
			c5.8,2.5,7.8,3.3,14.4,0c3.3-4,1.4,0.1,3.9,2.7c4.9-1.6,3.5-1.9,9.2-1.4c5.7,0,6.1-0.1,7.8-4.1c2.8,3,3.9,5.1,7.8,1.4
			c6.1,0.2,4.2,0.8,7.8-1.4c2.7,6.2,3.3,1.7,6.5,4.1c-2.1,5.6-5.4,8.2-9.2,10.9c-2.5,4.3-4.1,9-9.2,10.9c-3.7,3.9-7.6,6.2-11.8,9.5
			c-5.7,1.5-11.9,1.4-18.3,1.4h-54.9c-3.9,2-10.3,3-15.7,4.1c-6,0-12.9,0.1-17-1.4c-2.8-2.9-7.7-6.2-10.5-9.5
			c-2.8-2.3-2.9-6.9-5.2-9.5c-2.2-3.9-2.9-10-5.2-13.6L534.8,187.3L534.8,187.3z"/>
		<path class="st17" d="M661.7,199.5v1.4c0-3.8,0.2-1.8-2.6,5.4c-0.6,1.8-1.8,2.2-3.9,2.7 M649.9,205h1.3c-4.8,4.8-8.1,7-9.2,12.3
			l9.2-12.3c-4.8,4.8-8.1,7-9.2,12.3 M631.6,198.2c0,0.1-0.2,4.9-1.3,6.8 M626.4,207.7v1.4V207.7z M615.9,199.5h1.3H615.9
			C616.4,199.5,616.8,199.5,615.9,199.5z M542.7,199.5c0.6,0,3.2,4.3,6.5,6.8c-0.8,4-2.1,8.6,0,12.2 M553.1,207.7
			c0.6,0,3.2,4.3,6.5,6.8L553.1,207.7c0.6,0,3.2,4.3,6.5,6.8v1.4c0-4.2-0.3-8.6,1.3-10.9c1.5,2.6,3.3,6.7,3.9,2.7
			c7.4-0.3,10.9-2.4,15.7-4.1c0,2-0.3,1,1.3,2.7 M670.9,200.9h1.3c-2.5,2.1-4.4,6.5-6.5,9.5 M617.2,196.8h10.5"/>
	</g>
	<path class="st1" d="M530.8,209.5c-15.7,0-20.9,16.4-36.6,16.4c-0.3,0-0.6,0-0.9,0v1c-0.1,11.4,0.8,22,2.5,31.9
		c14.5-1.1,19.9-16.4,35-16.4c15.7,0,20.9,16.4,36.6,16.4c15.7,0,20.9-16.4,36.6-16.4s20.9,16.4,36.6,16.4s20.9-16.4,36.6-16.4
		c15.1,0,20.5,15.2,34.9,16.4c1.7-10.2,2.6-21.1,2.6-32.8v0c-0.3,0-0.6,0-0.9,0c-15.7,0-20.9-16.4-36.6-16.4s-20.9,16.4-36.6,16.4
		s-20.9-16.4-36.6-16.4c-15.7,0-20.9,16.4-36.6,16.4S546.5,209.5,530.8,209.5L530.8,209.5z M530.8,273.5c-12.2,0-18.1,9.9-27.5,14.3
		c3.1,8.6,7,16.9,11.7,24.8c4.5-3.4,9.2-6.3,15.8-6.3c15.7,0,20.9,16.4,36.6,16.4c15.7,0,20.9-16.4,36.6-16.4
		c15.7,0,20.9,16.4,36.6,16.4c15.7,0,20.9-16.4,36.6-16.4c6.5,0,11.2,2.8,15.5,6.1c4.6-7.9,8.5-16.2,11.7-24.7
		c-9.2-4.5-15.1-14.2-27.2-14.2c-15.7,0-20.9,16.4-36.6,16.4s-20.9-16.4-36.7-16.4c-15.7,0-20.9,16.4-36.6,16.4
		S546.5,273.5,530.8,273.5L530.8,273.5z M604.1,337.6c-15.7,0-20.9,16.4-36.6,16.4c-14.8,0-20.3-14.7-34.2-16.3
		c18.5,20.6,39.5,33.1,53.8,39.9c4.8-3.8,9.8,4.6,17.1,4.6c7.2,0,12.2-8.4,17-4.6c14.1-6.9,34.9-19.4,53.2-39.8
		c-13.4,2-18.9,16.2-33.6,16.2C625,354,619.8,337.6,604.1,337.6L604.1,337.6z"/>
	<g transform="matrix(1.18 0 0 1.18 -406.92 -18.22)">
		<path class="st18" d="M774.3,248.4c2.2-0.8,12.7-4.2,13.1-3.8c0.4,0.4,20.3,20.4,20.3,20.4l-16.7,3.4L774.3,248.4L774.3,248.4z"/>
		<path class="st19" d="M814.6,281.9c0.3-4.8,9.2-32,9.2-32 M817.6,282.2c0-0.3,7.1-32.1,7.1-32.1 M820.1,282.2
			c0.3-1.8,5.9-32.1,5.9-32.1 M814.9,278c1.5-0.9,6.2-2.1,6.2-2.1 M817,273.2c1.5,0,4.6-1.2,4.6-1.2 M817.9,269.6
			c0-0.3,4.6-1.2,4.6-1.2 M818.5,265.1l4.9-0.9 M820.7,261.2c0,0.3,3.4,0.3,3.4,0.3 M821.6,257.6c0.6,0,3.4,0.6,3.4,0.6"/>
		<path class="st20" d="M872.6,301.6c-0.4-8.2-10.9-54.7-10.9-54.7 M869,300c0-0.5-8.4-52.7-8.4-52.7 M865.4,296
			c-0.4-3.1-6.2-48.6-6.2-48.6 M872.3,294.9c-1.8-1.5-7.3-3.6-7.3-3.6 M869.7,286.8c-1.8,0-5.5-2-5.5-2 M868.7,280.6
			c0-0.5-5.4-2-5.4-2 M867.9,272.9l-5.8-1.5 M865.4,266.3c0,0.5-4,0.5-4,0.5 M864.3,260.1c-0.7,0-4,1-4,1"/>
		<path class="st18" d="M903.5,285.1c-0.4-6-10.9-40.4-10.9-40.4 M899.9,283.9c0-0.4-8.4-38.9-8.4-38.9 M896.3,280.9
			c-0.4-2.3-6.2-35.9-6.2-35.9 M903.2,280.2c-1.8-1.1-7.3-2.6-7.3-2.6 M900.6,274.1c-1.8,0-5.5-1.5-5.5-1.5 M899.6,269.6
			c0-0.4-5.4-1.5-5.4-1.5 M898.8,263.9l-5.8-1.1 M896.3,259c0,0.4-4,0.4-4,0.4 M895.2,254.5c-0.7,0-4,0.8-4,0.8"/>
		<path class="st21" d="M852.8,288.5c0-0.4,1.1-94.8,1.1-94.8s3.3-0.4,3.3,0c0,0.4-0.4,94.5-0.7,94.8
			C856.1,288.9,852.4,289.2,852.8,288.5L852.8,288.5z M888.4,197.8c0,0.8-0.7,79.7-0.7,79.7l-2.5,3l0.7-82.8L888.4,197.8
			L888.4,197.8z"/>
		<path class="st21" d="M812.5,273c0,0,3.6,38.9,45.4,37.8c41.8-1.1,53.4-39.3,53.4-39.3s-17.8-0.8-18.2-0.8
			c-0.4,0-14.5,18.1-32.7,17.8c-18.2-0.4-24-4.9-28-8.7c-4-3.8-7.6-9.4-7.6-9.4l-21.1-8.7l1.1,8.3L812.5,273L812.5,273z
			 M925.3,268.9c-0.4-1.1-1.3-5-1.3-5v-4.5l2-4.6c0,0-31.6,4.7-31.6,5.1c0-0.4-0.2,9-0.2,9L925.3,268.9L925.3,268.9z"/>
		<path class="st18" d="M919.3,259.4l-0.7,7.9h5.1l-0.4-7.9H919.3z M913.8,259.8l-0.4,8.3l3.3-0.4l0.4-7.9H913.8z M908.4,268.1v-6.4
			l3.3-1.1l0.4,6.4L908.4,268.1z M902.2,267.7l0.7-5.7l3.6,0.4l0.4,6L902.2,267.7z M895.3,267.7l0.4-4.9l3.6-0.4v5.7L895.3,267.7z
			 M811,272.6c1.1,0,9.4,1.9,9.4,1.9l8.7,12.1"/>
		<path class="st18" d="M817.2,274.1c0.4,0.4,7.6,25.7,42.5,25.7s43.2-28.7,43.2-28.7"/>
		<path class="st18" d="M908.4,271.9c0,0-16.7,37.8-48.7,35.1c-32-2.6-37.1-15.1-39.6-21.5c-2.5-6.4-4-11.7-4-11.7"/>
		<path class="st21" d="M825.2,270.3c0.4-2.3,0.4-70.7,0.4-70.7l-2.2-0.4l-0.4,69.9L825.2,270.3z M773.2,248.1l27.6,14l-0.7,1.9
			c0,0-26.5-12.8-26.5-13.2C773.6,250.3,773.9,248.8,773.2,248.1z"/>
		<path class="st21" d="M785.9,243.9c0,1.1,4,24.2,4,24.2s2.5,0.4,2.5,0c0-0.4-4.4-23.8-4.4-23.8L785.9,243.9L785.9,243.9z
			 M811.4,244.6c1.5,0,26.2-4.2,26.2-4.2l-0.4,4.2l-24.3,2.6L811.4,244.6z"/>
		<path class="st22" d="M815,213.3c0.7,0,8.7,4.2,12,3c3.3-1.1,1.1-3.8,1.8-3.8c0.7,0,3.3,1.9,4.7,0.4c1.5-1.5,2.5-6,1.8-5.7
			C834.6,207.6,815.4,214.8,815,213.3L815,213.3z"/>
		<path class="st21" d="M811.7,222.7c1.5,0.4,29.8-7.9,29.8-7.9s0,2.6-0.4,2.6c-0.4,0-29.4,7.9-29.4,7.9V222.7L811.7,222.7z"/>
		<path class="st22" d="M877.5,211c0,0,1.8,4.5,3.6,3.8c1.8-0.8,3.6-2.3,3.6-2.3s1.5,3.8,4,3c2.5-0.8,4-4.9,4-4.9s2.5,0.8,3.6,0.4
			c1.1-0.4,2.5-6.4,2.5-6.4L877.5,211L877.5,211z M875.3,247.7c-0.4,0.8,1.8,2.6,3.6,2.6c1.8,0,2.5-2.6,2.9-1.9
			c0.4,0.8,0.4,4.2,5.1,3c4.7-1.1,4.7-4.5,4.7-4.5s-1.5,1.1,1.8,1.5c3.3,0.4,6.5-4.9,6.2-4.9C899.3,243.5,876,248.1,875.3,247.7z"/>
		<path class="st21" d="M812.8,211.8c-0.4,1.5,0.4,3.4,0.4,3.4l23.6-8.3c0,0,1.1-1.9,0-1.9S812.5,212.5,812.8,211.8L812.8,211.8z
			 M844.1,206.5c0.7,0,24.3-7.9,24.3-7.9s0.4,3.4,0,3.4c-0.4,0-22.2,6.8-22.2,6.8L844.1,206.5z"/>
		<path class="st22" d="M875.3,223.1c0,0-3.6,4.2-2.5,9.8c1.1,5.7,2.5,10.6,2.9,10.6c0.4,0,4.4-7.6,8.7-7.9
			c4.4-0.4,12.4,4.2,12.4,4.2s-1.1-9.1-0.7-13.2c0.4-4.2,6.5-11.3,6.5-11.3L875.3,223.1L875.3,223.1z"/>
		<path class="st21" d="M842.3,216.3c0,0-0.7,3.4-0.4,3.4c0.4,0,30.9-8.3,30.9-8.3v-2.3L842.3,216.3L842.3,216.3z"/>
		<path class="st23" d="M803,262c0,0-7.3-1.1-6.9,0.8c0.4,1.9,3.6,3.8,4,4.9c0.4,1.1-1.1,5.3,1.1,4.9c2.2-0.4,4.4-1.9,4.4-3
			c0-1.1-0.4-6.4-0.4-6.4L803,262L803,262z"/>
		<path class="st21" d="M843.3,243.1v2.6l26.2-3.8l-0.7-1.9L843.3,243.1z"/>
		<path class="st22" d="M812.5,247.7c0.4,0,0,3.4,2.9,2.6c2.9-0.8,3.6-2.6,3.6-2.6s0.7,4.2,4.7,3.8c4-0.4,6.2-4.9,6.2-4.9
			s0.4,3.4,2.9,2.3c2.5-1.1,3.3-3.8,3.3-3.8l-22.9,3.4L812.5,247.7L812.5,247.7z M812.5,225.4c0,0-3.3,1.1-2.2,7.9s3.6,10.6,4,10.6
			s3.3-6.4,7.6-7.6c4.4-1.1,12,3.4,12,3.4s-0.7-6,0.4-11.7c1.1-5.7,4.7-9.8,4.7-9.8S813.6,225.4,812.5,225.4z"/>
		<path class="st21" d="M873.5,245l0.4,2.3c0,0,26.2-3.4,26.2-3.8c0-0.4,0-2.6-0.4-2.6C899.3,240.9,873.9,245.4,873.5,245L873.5,245
			z M873.1,220.8l0.4,2.6l30.9-8.7c0,0,0.7-2.3,0.4-2.3S873.9,222,873.1,220.8L873.1,220.8z"/>
		<path class="st18" d="M876.4,208.8c0,0-0.4,2.3,0,2.3s22.9-5.7,22.9-6s2.2-2.6,0.4-2.3C897.9,203.1,877.1,209.9,876.4,208.8
			L876.4,208.8z M924.7,252.6l-22.5-37 M899.3,241.3c0.4-1.1,1.5-23.8,1.5-23.8"/>
		<path class="st22" d="M844.8,207.6c1.5,0.4,4,4.2,5.4,3.4c1.5-0.8,3.6-3,3.6-3s-0.4,4.5,2.5,3.8c2.9-0.8,3.3-3.8,3.3-3.8
			s2.2,1.1,4,0c1.8-1.1,3.6-6.8,2.9-6.8C865.9,201.2,845.5,208,844.8,207.6L844.8,207.6z M844.1,218.6c0,0.8-3.6,6.8-2.5,12.5
			c1.1,5.7,3.3,11,3.6,11s5.8-6,10.5-7.2c4.7-1.1,11.6,3.8,11.3,3.8s-1.8-5.7-1.8-9.8c0-4.2,5.4-17,5.4-17L844.1,218.6L844.1,218.6z
			 M844.1,245.8c0,0.4,1.1,3,3.6,3c2.5,0,2.9-2.6,2.9-2.6s-0.4,4.5,3.6,4.2c4-0.4,5.4-4.5,5.4-4.5s0.4,2.3,3.6,1.1
			c3.3-1.1,7.6-4.9,7.3-4.9C870.2,242,844.4,246.9,844.1,245.8L844.1,245.8z"/>
		<g transform="translate(-6.56 7.28)">
			<path id="k" class="st24" d="M847.2,231.3c1.1,0,1.9,1,1.9,2.1c0,1.1-0.9,2-2,1.9c0,0,0,0,0,0c-1.1,0-1.9-1-1.9-2.1
				C845.2,232.2,846.1,231.3,847.2,231.3z"/>
		</g>
		<g transform="translate(6.56 3.76)">
			<path id="k_1_" class="st24" d="M860.3,227.8c1.1,0,1.9,1,1.9,2.1c0,1.1-0.9,2-2,1.9c0,0,0,0,0,0c-1.1,0-1.9-1-1.9-2.1
				C858.4,228.7,859.3,227.8,860.3,227.8z"/>
		</g>
		<g transform="translate(0 11.03)">
			<path id="k_2_" class="st24" d="M853.8,235.1c1.1,0,1.9,1,1.9,2.1c0,1.1-0.9,2-2,1.9c0,0,0,0,0,0c-1.1,0-1.9-1-1.9-2.1
				C851.8,235.9,852.7,235.1,853.8,235.1z"/>
		</g>
		<path id="k_3_" class="st24" d="M853.8,224.1c1.1,0,1.9,1,1.9,2.1c0,1.1-0.9,2-2,1.9c0,0,0,0,0,0c-1.1,0-1.9-1-1.9-2.1
			C851.8,224.9,852.7,224,853.8,224.1z"/>
		<path class="st18" d="M856.4,194.8c0-0.4,11.3,4.9,11.3,5.3s40,55.5,40.3,55.5 M888,200.1l10.2,4.5l3.3,8.3 M824.8,199.3
			c-0.4,0,11.3,9.1,11.3,9.1l1.5,7.6 M785.2,254.5c5.1-2.3,40.3-34.4,40.3-34.4 M775.8,248.4c4.4-3.8,39.6-34.8,39.6-34.8
			 M841.9,219l37.4,64.6 M874.9,245.7c0,0,4.4,15.2,8.8,17.5c4.4,2.3,9.4,6,9.4,6"/>
		<path class="st18" d="M874.4,246c0,0,3.1,17.9,7.5,21.3s8.7,7.2,8.7,7.2"/>
		<path class="st18" d="M844.3,245.9c0,0,4.4,24.9,13.1,30.6c8.7,5.7,16,10.6,16,10.6"/>
		<path class="st18" d="M843.9,245.5c0,0,9.4,19.7,17.4,25.7c8,6,18.9,11.7,18.9,11.7 M813.4,247.1c2.5,4.5,2.2,13.2,5.1,16.3
			c2.9,3,7.3,9.8,7.3,9.8"/>
		<path class="st18" d="M814.1,247.4c1.5,2.3,5.5,13.6,8,17c1.8,3,20.3,22.3,20.3,22.3"/>
		<path class="st25" d="M836.3,287.7c0,1.6-1.2,2.8-2.7,2.8c-1.5,0-2.7-1.3-2.7-2.8c0,0,0,0,0,0c0-1.6,1.2-2.8,2.7-2.8
			C835,284.9,836.3,286.1,836.3,287.7z M849.7,293.7c0,1.4-1.1,2.5-2.4,2.5s-2.4-1.1-2.4-2.5c0,0,0,0,0,0c0-1.4,1.1-2.5,2.4-2.5
			C848.6,291.3,849.7,292.4,849.7,293.7z M866.8,295.2c0,1.4-1.1,2.5-2.4,2.5s-2.4-1.1-2.4-2.5c0,0,0,0,0,0c0-1.4,1.1-2.5,2.4-2.5
			C865.7,292.8,866.8,293.9,866.8,295.2z M881.7,289.4c0,1.3-0.9,2.3-2,2.3c-1.1,0-2-1-2-2.3c0-1.3,0.9-2.3,2-2.3
			C880.8,287.1,881.7,288.1,881.7,289.4L881.7,289.4z M893.7,282c0,1.1-1.1,2.1-2.4,2.1s-2.4-0.9-2.4-2.1s1.1-2.1,2.4-2.1
			S893.7,280.9,893.7,282z"/>
		<path class="st26" d="M823.2,201c-1.1,0.8-19.3,5.3-16.7,4.9c2.5-0.4,17.1,3.8,16.7,2.6C822.8,207.4,823.2,201.7,823.2,201z
			 M854.1,195.3c-0.7,0-11.3,4.2-10.9,4.2s12,3.4,11.6,2.6C854.4,201.3,854.4,196.4,854.1,195.3z M885.7,199.1
			c-0.7,0.4-13.1,3.4-10.9,3.8c2.2,0.4,10.5,3.4,10.5,2.6C885.3,204.7,885.3,199.5,885.7,199.1L885.7,199.1z"/>
		<path class="st18" d="M872.6,287.5c0.4-6,10.9-40.4,10.9-40.4 M876.2,286.4c0-0.4,8.4-38.9,8.4-38.9 M879.9,283.3
			c0.4-2.3,6.2-35.9,6.2-35.9 M873,282.6c1.8-1.1,7.3-2.6,7.3-2.6 M875.5,276.5c1.8,0,5.5-1.5,5.5-1.5 M876.6,272
			c0-0.4,5.4-1.5,5.4-1.5 M877.3,266.3l5.8-1.1 M879.9,261.4c0,0.4,4,0.4,4,0.4 M881,256.9c0.7,0,4,0.8,4,0.8"/>
		<path class="st18" d="M841.7,291.9c0.4-6.3,10.9-42.3,10.9-42.3 M845.3,292.3c0-0.4,8.4-42.3,8.4-42.3 M848.1,292.4
			c0.4-2.4,6.9-42.4,6.9-42.4 M842,286.7c1.8-1.2,7.3-2.8,7.3-2.8 M844.6,280.4c1.8,0,5.5-1.6,5.5-1.6 M845.6,275.7
			c0-0.4,5.4-1.6,5.4-1.6 M846.4,269.7l5.8-1.2 M848.9,264.6c0,0.4,4,0.4,4,0.4 M850,259.9c0.7,0,4,0.8,4,0.8"/>
		<path class="st27" d="M841.4,289.1c-0.4-6.1-10.9-41.1-10.9-41.1 M837.8,288c0-0.4-8.4-39.5-8.4-39.5 M834.2,284.9
			c-0.4-2.3-6.2-36.5-6.2-36.5 M841.1,284.1c-1.8-1.2-7.3-2.7-7.3-2.7 M838.5,278c-1.8,0-5.5-1.5-5.5-1.5 M837.5,273.4
			c0-0.4-5.4-1.5-5.4-1.5 M836.7,267.6l-5.8-1.2 M834.2,262.7c0,0.4-4,0.4-4,0.4 M833.1,258c-0.7,0-4,0.8-4,0.8"/>
		<path class="st21" d="M891.7,270.7l34.5,0.8l0.4-2.6l-35.6-0.4L891.7,270.7L891.7,270.7z M893.1,261.3c4,0,34.2-6,34.2-6
			s1.1-3.8,0-3.8c-1.1,0-34.2,7.2-34.2,7.2V261.3z"/>
		<g transform="translate(0 5.52)">
			<path id="k_4_" class="st24" d="M853.8,229.6c1.1,0,1.9,1,1.9,2.1c0,1.1-0.9,2-2,1.9c0,0,0,0,0,0c-1.1,0-1.9-1-1.9-2.1
				C851.8,230.4,852.7,229.5,853.8,229.6z"/>
		</g>
	</g>
</g>
</svg>
