<?xml version="1.0" encoding="utf-8"?>
<!-- Generator: Adobe Illustrator 20.0.0, SVG Export Plug-In . SVG Version: 6.00 Build 0)  -->
<!DOCTYPE svg PUBLIC "-//W3C//DTD SVG 1.1//EN" "http://www.w3.org/Graphics/SVG/1.1/DTD/svg11.dtd">
<svg version="1.1" id="Layer_1" xmlns="http://www.w3.org/2000/svg" xmlns:xlink="http://www.w3.org/1999/xlink" x="0px" y="0px"
	 viewBox="0 0 800 480" style="enable-background:new 0 0 800 480;" xml:space="preserve">
<style type="text/css">
	.st0{fill:#FFFFFF;}
	.st1{fill:#E8112D;}
	.st2{fill:#F9DD16;}
</style>
<g>
	<g>
		<path class="st0" d="M0,0h800v480H0V0z"/>
		<polygon class="st1" points="468.5,480 331.5,480 331.5,308.5 0,308.5 0,171.5 331.5,171.5 331.5,0 468.5,0 468.5,171.5 
			800,171.5 800,308.5 468.5,308.5 		"/>
		<polygon class="st2" points="586.7,216.7 423.3,216.7 423.3,53.3 446.7,30 353.3,30 376.7,53.3 376.7,216.7 213.3,216.7 
			190,193.3 190,286.7 213.3,263.3 376.7,263.3 376.7,426.7 353.3,450 446.7,450 423.3,426.7 423.3,263.3 586.7,263.3 610,286.7 
			610,193.3 		"/>
	</g>
</g>
</svg>
