<?xml version="1.0" encoding="utf-8"?>
<!-- Generator: Adobe Illustrator 20.0.0, SVG Export Plug-In . SVG Version: 6.00 Build 0)  -->
<!DOCTYPE svg PUBLIC "-//W3C//DTD SVG 1.1//EN" "http://www.w3.org/Graphics/SVG/1.1/DTD/svg11.dtd">
<svg version="1.1" id="Layer_1" xmlns="http://www.w3.org/2000/svg" xmlns:xlink="http://www.w3.org/1999/xlink" x="0px" y="0px"
	 viewBox="0 0 800 480" style="enable-background:new 0 0 800 480;" xml:space="preserve">
<style type="text/css">
	.st0{fill:#DA000C;}
	.st1{fill:#FFFFFF;}
	.st2{fill:#DA000C;stroke:#000000;stroke-linecap:square;}
	.st3{fill:#DA000C;stroke:#000000;}
	.st4{fill:#F8D80E;stroke:#000000;stroke-width:0.768;stroke-linecap:round;}
	.st5{fill:#F8D80E;stroke:#000000;stroke-linecap:round;}
	.st6{fill:#F8D80E;stroke:#000000;}
	.st7{fill:#F8D80E;stroke:#000000;stroke-width:1.024;}
	.st8{fill:#DA000C;stroke:#000000;stroke-linejoin:round;}
</style>
<path class="st0" d="M0,0h800v480H0V0z"/>
<path class="st1" d="M0,0h800v321.6H0V0z"/>
<g transform="translate(-160) scale(1.875)">
	<g id="a">
		<path d="M240.2,116.3h64v44h-64L240.2,116.3L240.2,116.3z"/>
		<path class="st2" d="M273.5,153.9h-39.1l-8.7,5.7v6h47.7 M257.1,128.6c5.6,0,10.2,4.7,10.2,10.5v14.8h7.3v-56h-40.3v56h12.5v-14.8
			C246.9,133.5,251.4,128.6,257.1,128.6L257.1,128.6z"/>
		<path d="M248.2,60h18.5v34h-18.5L248.2,60z"/>
		<path class="st2" d="M266.7,88.7h-16.2v-5.8h-11.9v5.8h-8.1v-5.8h-4.8v10.4h41 M230.5,93.3h35v4.5h-35V93.3z M244.4,47.6v35.3h6.1
			v-9.7c0-3.6,2.6-6.6,6.1-6.8c0.1,0,0.2,0,0.3,0c3.7,0,6.8,3,6.8,6.8l0,0v9.7h5.8V47.6H244.4z M242.2,42.8v4.8h29.3v-4.8H242.2z
			 M238.5,33.7v9.2h35.1v-9.2h-5.4v4.7h-6.5v-4.7h-10v4.7h-6.5v-4.7H238.5z M225.8,159.6h47.9 M304.7,156.8h-32.4l-9.8,4.7v7h42.2"
			/>
		<path class="st3" d="M262.4,161.5h43.2"/>
	</g>
	<g transform="matrix(-1 0 0 1 512 0)">
		<g id="a_1_">
			<path d="M151.6,160.3h64v-44h-64V160.3z"/>
			<path class="st2" d="M184.7,165.6H137v-6l8.7-5.7h39.1 M168.5,128.6c-5.7,0-10.2,4.9-10.3,10.5v14.8h-12.5v-56H186v56h-7.3v-14.8
				C178.7,133.3,174.1,128.6,168.5,128.6L168.5,128.6z"/>
			<path d="M159.6,94h18.5V60h-18.5V94z"/>
			<path class="st2" d="M178,93.3h-41V82.9h4.8v5.8h8.1v-5.8h11.9v5.8H178 M141.9,97.8h35v-4.5h-35V97.8z M180.8,47.6v35.3H175v-9.7
				l0,0c0-3.8-3.1-6.8-6.8-6.8c-0.1,0-0.2,0-0.3,0c-3.5,0.2-6.1,3.2-6.1,6.8v9.7h-6.1V47.6H180.8z M182.9,42.8v4.8h-29.3v-4.8H182.9
				z M156.5,33.7v4.7h6.5v-4.7h10v4.7h6.5v-4.7h5.4v9.2h-35.1v-9.2H156.5z M185,159.6h-47.9 M216,168.5h-42.2v-7l9.8-4.7H216"/>
			<path class="st3" d="M217,161.5h-43.2"/>
		</g>
	</g>
	<g>
		<g>
			<path class="st4" d="M317,150c-2.7,0.9-5.1,2.4-7.5,3.8c-3.1,1.8-6.1,3.8-8.9,6.1c-1,0.6-1.9,1.4-2.7,2.3c-1,0.9-2.1,2.1-1.9,3.5
				c0,0.6,0.9-0.8,1.4-0.8c1-0.5,2.1-0.7,3.1-0.5c1.3-1.3,2.9-2.2,4.3-3.4c3-2.2,6.2-4.2,9.5-6c1.1-0.6,2.3-1.2,3.5-1.6L317,150
				L317,150z"/>
			<path class="st5" d="M304.1,157.4v3.9 M306.5,155.7v3.9 M308.9,154.2v3.9 M311.3,152.7v4"/>
			<path class="st4" d="M282.6,150.2l-1.2,3.3c5.5,2.1,10.8,4.9,15.8,8.1c1.7,1.1,3.5,2.3,4.8,3.8c0.3,0.8-0.5,1.5-1.3,1.2
				c-0.7-0.3-1.5-0.5-2.2,0c-1.1,0.5-2.1,2.1-0.4,2.7c2.3,1.6,6.1,0.9,7.2-1.8c0.6-1.4,0.6-3.2-0.5-4.3c-2.1-2.4-4.8-4-7.4-5.7
				C292.6,154.6,287.7,152.1,282.6,150.2L282.6,150.2z"/>
			<path class="st5" d="M297.7,158l-0.3,3.3 M300.5,159.7l-0.9,3.3 M303.5,162l-1.8,2.5 M304.4,168.2l-2.6-1.4 M305.2,165.4l-3,0.3
				 M301.3,169.8l-0.2-2.6 M300.2,166.8l-2.5,1.8 M288.3,152.9v3.1 M294.6,156.2v3.5 M291.5,154.6v3.3"/>
		</g>
		<path class="st6" d="M279.5,227.6v8h5v-4h6.8v4h5.4v-8H279.5z M279.5,238.6v8.1h17.3v-8.1h-5.4v4h-6.8v-4H279.5z"/>
		<path class="st6" d="M296.7,193.6h5v58.1h-5V193.6z"/>
		<path class="st6" d="M296.7,198.7h5v50.1h-5V198.7z"/>
		<path class="st7" d="M299.2,179.4l10.6,6.2l-10.6,6.2l-10.6-6.2L299.2,179.4z M285,183.4h-2.8v4.4h2.8l14.2,8.3l14.2-8.3h2.8v-4.4
			h-2.8l-14.2-8.3L285,183.4z"/>
		<path class="st7" d="M299,164.3c-2.4,0.3-4.2,2.7-4.1,5.1c0,3.7,0,7.5,0,11.2c0.1,2.4,2.2,4.6,4.7,4.6c2,0.2,4-1,4.8-2.8l-1.7-1
			c-0.4,1.2-1.7,1.9-3,1.8c-1.6,0-3-1.5-2.8-3.1c0-3.7,0-7.4,0-11.1c0.1-1.5,1.5-2.8,3-2.6c0.6-0.2,1.5,0.7,1.9-0.1
			c0.6-0.8-0.4-1.5-1-1.9C300.3,164.2,299.6,164.3,299,164.3L299,164.3z M304.8,168.2c-0.4,0.7-1.2,1.2-1.9,1.6v7.5l2,1.2
			c0-3.2,0-6.4,0-9.6C304.9,168.6,304.9,168.3,304.8,168.2L304.8,168.2z"/>
	</g>
	<g>
		<path d="M284.5,38.3h29.3v53.3h-29.3V38.3z"/>
		<path class="st3" d="M282.4,38.4V83h9.3V69.7c0-3,2-7.3,7.9-7.3s7.9,4.2,7.9,7.3v13.2h9.3V38.4H282.4z M298.2,43.4h2.9v15.3h-2.9
			V43.4z M290,46.4h2.9v11.2H290V46.4z M306.5,46.4h2.9v11.2h-2.9V46.4z M279.3,32v6.3h40.8V32H279.3z M275.4,24.6V32h48.5v-7.4
			h-6.1v4.1H311v-4.1h-7.8v4.1h-6.9v-4.1h-7.8v4.1h-6.9v-4.1H275.4z M266.4,97.8v4.6h66.5v-4.6H266.4z"/>
		<path class="st3" d="M263.7,82.9v14.9h71.9V82.9h-6.8v5.8h-9.1v-5.8h-12.2v5.8h-15.9v-5.8h-12.2v5.8h-9.1v-5.8H263.7z"/>
		<path class="st8" d="M272.4,102.4v54.3h12.8v-20.3c0-9.6,6.4-14.1,14.5-14.1c7.8,0,14.5,4.5,14.5,14.1v20.3H327v-54.3L272.4,102.4
			z"/>
	</g>
</g>
</svg>
