<?xml version="1.0" encoding="utf-8"?>
<!-- Generator: Adobe Illustrator 20.0.0, SVG Export Plug-In . SVG Version: 6.00 Build 0)  -->
<!DOCTYPE svg PUBLIC "-//W3C//DTD SVG 1.1//EN" "http://www.w3.org/Graphics/SVG/1.1/DTD/svg11.dtd">
<svg version="1.1" id="Layer_1" xmlns="http://www.w3.org/2000/svg" xmlns:xlink="http://www.w3.org/1999/xlink" x="0px" y="0px"
	 viewBox="0 0 800 480" style="enable-background:new 0 0 800 480;" xml:space="preserve">
<style type="text/css">
	.st0{fill:#4997D0;}
	.st1{fill:#FFFFFF;}
	.st2{fill:none;stroke:#24420E;stroke-width:0.437;}
	.st3{fill:#406325;stroke:#24420E;stroke-width:0.164;}
	.st4{fill:#67923D;stroke:#24420E;stroke-width:0.164;}
	.st5{fill:#BA1F3E;stroke:#511124;stroke-width:0.186;}
	.st6{fill:#BA1F3E;stroke:#511124;stroke-width:0.218;}
	.st7{fill:#8C959D;stroke:#485654;stroke-width:0.109;}
	.st8{fill:#8C959D;}
	.st9{fill:#485654;}
	.st10{fill:#6C301E;stroke:#351710;stroke-width:0.218;stroke-linejoin:round;}
	.st11{fill:#B2B6BA;stroke:#485654;stroke-width:0.218;}
	.st12{fill:none;stroke:#485654;stroke-width:0.164;}
	.st13{fill:#FAB81C;stroke:#6C301E;stroke-width:0.218;}
	.st14{fill:#FAB81C;stroke:#6C301E;stroke-width:0.109;}
	.st15{fill:#FAB81C;}
	.st16{fill:#6C301E;}
	.st17{fill:url(#SVGID_1_);stroke:#999270;stroke-width:0.164;}
	.st18{fill:url(#SVGID_2_);stroke:#999270;stroke-width:0.164;}
	.st19{fill:url(#SVGID_3_);stroke:#999270;stroke-width:0.164;}
	.st20{fill:url(#SVGID_4_);stroke:#999270;stroke-width:0.164;}
	.st21{fill:#F9F0AA;stroke:#999270;stroke-width:0.164;}
	.st22{fill:url(#SVGID_5_);stroke:#999270;stroke-width:0.164;}
	.st23{fill:url(#SVGID_6_);stroke:#999270;stroke-width:0.164;}
	.st24{fill:url(#SVGID_7_);stroke:#999270;stroke-width:0.164;}
	.st25{fill:url(#SVGID_8_);stroke:#999270;stroke-width:0.164;}
	.st26{fill:url(#SVGID_9_);stroke:#999270;stroke-width:0.164;}
	.st27{fill:#B07E09;}
	.st28{fill:url(#SVGID_10_);stroke:#4C0505;stroke-width:0.218;}
	.st29{fill:#448127;stroke:#34541F;stroke-width:0.218;}
	.st30{fill:#EAC102;stroke:#A08307;stroke-width:0.218;}
	.st31{fill:#A08307;}
	.st32{stroke:#000000;stroke-width:9.800000e-02;}
	.st33{fill:url(#SVGID_11_);}
	.st34{fill:#34541F;}
	.st35{fill:#448127;}
</style>
<path class="st0" d="M0,0h800v480H0V0z"/>
<path class="st1" d="M266.7,0h266.7v480H266.7V0z"/>
<g transform="translate(0 40) scale(.66667)">
	<g>
		<path class="st2" d="M564.9,389.3c3.2-0.5,5.1-1.3,7.2-2.2 M574.9,382.2c1.6,1.7,2.9,3.6,3.6,5.5 M568.6,381.8
			c1.7,1.6,2.9,3.2,3.7,5.1 M512.8,222.4c-1.2,1.9-3.7,3.2-5.8,4.1 M506.7,226.3c0-1.7-0.2-3.6,0-5.3 M504.4,227
			c0.1,0.5,0.5,1.7,0.8,2.4 M507.6,230.6c-0.5,0.1-1.8,0.4-2.4,0.4 M500.4,229.9c0,3,0.4,6.7,0.6,9.4 M498.8,238.2
			c0.6,1,1.1,1.8,1.8,2.3 M495.2,248.3c0.6,1.1,1.1,2.5,1.6,4.8 M501.2,247.4c-0.5,0.2-1.4,1.1-2.3,1.8 M500.9,254.5
			c-1.2,1.1-2.6,1.8-4.1,2.5 M492.1,305.7c1.4,2.3,2.9,4.3,4.8,5.7 M497.6,313.4c-1.6-0.2-2.6-0.6-3.5-1.2 M499.3,322.4l2,1.2
			 M500.9,327.7c1.6,1,3,2.8,4.6,4.7 M503.7,335.8c1.7,0.4,3,0.7,3.9,1.3 M506.2,340l2.5,0.1 M510.3,333.6c-0.1,1.8-0.4,3.6-0.6,5.2
			 M510.9,340.6l0.5-1.9 M517,345.9l-0.1,3.9 M564.1,383.3l-1.4,1.9 M559.7,380.6l-0.8-2.2"/>
		<g>
			<path class="st3" d="M605.8,398.3c-1-1.6-2.5-2.4-4-3.2c-9.3-4.9-18.5-7-29-8.7c-2.4-0.4-4.8-2.6-7.3-3.9c-6-2.9-12.6-4-18.4-6.9
				c-0.4-0.1-1.8-1.1-2.5-1.8c-2.3-2.6-6.5-3.5-9-6c-10-9.5-20.7-18.2-26.2-30.7c-6.7-15.3-15-31.1-14-48.4c0.7-11-1-22.1,1.8-32.5
				c4-15.5,9.1-30.8,18.5-43.7l-1.6,1c-9.5,12.9-14.6,28.2-18.7,43.7c-2.6,10.5-1.1,21.5-1.8,32.5c-1.1,17.3,7.2,33.1,14,48.5
				c5.5,12.5,16.2,21.2,26.2,30.7c2.6,2.4,6.7,3.2,9,6c0.7,0.7,2.2,1.7,2.5,1.8c5.8,2.9,12.4,4,18.4,6.7c2.5,1.2,4.9,3.5,7.3,3.9
				c10.5,1.7,19.7,3.9,29,8.7c1.4,0.7,3,1.7,4,3.2L605.8,398.3"/>
			<g>
				<path class="st4" d="M509.8,334.1c-3.4-7.6-1.7-26-0.2-28.3C517.6,321.5,515,334.3,509.8,334.1z M565,388.7
					c-8.5,0.5-24.8,11.2-26.4,13.7C556.9,402.6,567.7,393.7,565,388.7z M574.1,383.6c-8.2-6.6-17.1-28.5-16.9-31.9
					C575.3,364.8,580,380.9,574.1,383.6z"/>
				<path class="st4" d="M567.9,383.7c-8.4-5.1-19-24.2-19.1-27.4C567.1,366.1,573.1,380.6,567.9,383.7z M549.1,375.5
					c1.2-9.4-6.9-29.1-9.1-31.3C536.5,364.1,543.7,377.4,549.1,375.5z M516.3,346.3c-2.8-6.7-0.7-23.2,0.6-25.3
					C523.5,335.1,520.9,346.5,516.3,346.3z M499.8,253.8c4.3-7.9,22.1-18.9,25.3-19.1C516.9,252.1,503.4,258.5,499.8,253.8z"/>
				<path class="st4" d="M500.6,247.1c2.5-8.8,17.9-23.2,20.9-24.1C517.1,241.9,505.1,250.9,500.6,247.1z M534.1,366.5
					c-6-7.5-9.6-28.8-8.8-31.8C538.9,349.7,539.9,365.2,534.1,366.5z M499.7,322.5c-8.3,1.3-25.8-5.5-27.6-7.6
					C489.6,311.1,501.4,317.5,499.7,322.5z M497,310.9c1-6.7,10.5-19,12.5-20.1C508.1,305.2,500.5,313.3,497,310.9z M558.8,381.4
					c-10.2,0.5-29.6,13.4-31.4,16.4C549,397.9,561.9,387.3,558.8,381.4z"/>
			</g>
			<g>
				<path class="st3" d="M509.9,334c5.1,0.2,7.7-12.5-0.4-28.2C511,320.6,511,332.7,509.9,334z M523.4,358.1
					c-5.4-6.6-23.4-13.6-26.1-13.4C508,359.1,521.2,362.7,523.4,358.1z M494,294.3c-1.3-9.6-14.8-27.3-17.7-28.9
					C478,286.1,489,297.5,494,294.3z M504.1,335.5c-6-4.5-22.9-6.4-25.2-5.7C491.1,339.9,503.2,340,504.1,335.5z M492.8,305.6
					c-3.5-6.9-17.8-16.2-20.3-16.5C479.1,304,490.1,309.5,492.8,305.6z M496.1,248.4c1.1-9.1-6.6-28.2-8.8-30.3
					C483.8,237.3,490.8,250.2,496.1,248.4z M501.5,230.5c3.2-7.8,1-27-0.6-29.4C493.2,217.3,496.2,230.7,501.5,230.5L501.5,230.5z"
					/>
				<path class="st3" d="M507.5,221.2c3.7-5.8,5.1-21.3,4.2-23.5C503.1,209.5,503.3,220.6,507.5,221.2z M514.7,213.9
					c5.3-4.2,11.1-18.7,11-20.9C513.9,201.2,510.9,211.9,514.7,213.9L514.7,213.9z M495.3,265.9c0.1,1.1-1.2-9.9-12.2-22
					C483.8,261.6,490.8,268.4,495.3,265.9z M534.6,369.1c-7.5-5.5-28.2-8.1-31.1-7.1C518.7,374.4,533.5,374.7,534.6,369.1z
					 M549,375.4c-5.4,1.9-12.5-11.3-9-31.2C543.4,361.1,547.5,374.4,549,375.4z M565,388.9c2.5,4.9-8.1,13.7-26.2,13.6
					C553.2,396.6,564.4,390.5,565,388.9z M573.9,383.4c5.9-2.8,1.3-18.7-16.9-31.8C567.4,367.6,574.5,381.3,573.9,383.4z"/>
				<path class="st3" d="M567.9,383.6c5.2-3.2-0.8-17.3-19.1-27.2C560.1,369.7,568.2,381.5,567.9,383.6L567.9,383.6z M516.4,346.3
					c4.5,0.2,7.2-11.2,0.6-25.2C517.9,334.2,517.5,345.1,516.4,346.3z M499.8,253.8c3.6,4.7,17-1.6,25-19.1
					C512.7,246,501.7,254.1,499.8,253.8z"/>
				<path class="st3" d="M500.9,247.1c4.5,3.7,16.2-5.2,20.8-24.1C511.8,236.6,502.8,246.8,500.9,247.1z M534.2,366.4
					c5.7-1.3,4.8-16.6-8.8-31.7C531.5,350.9,535.1,364.6,534.2,366.4z M499.4,322.5c1.7-5.1-10-11.3-27.4-7.6
					C486.8,317.6,498.5,321,499.4,322.5z M497.2,311c3.5,2.3,11.1-5.7,12.4-20C503.9,302,498.5,310.5,497.2,311z M558.8,381.5
					c3.1,5.9-9.6,16.5-31.3,16.2C544.6,390.8,557.9,383.7,558.8,381.5z"/>
				<path class="st3" d="M501.5,327.7c-3.2-7.6-17.8-18.7-20.5-19C486.9,325.1,498.1,331.7,501.5,327.7z"/>
			</g>
			<g>
				<path class="st4" d="M493.1,264.7c4.9-5.7,21.1-11,23.6-10.7C507,266.6,495.1,269.1,493.1,264.7z M523.3,358.1
					c-2.2,4.7-15.3,1.1-26-13.5C510.3,352.9,521.6,358.5,523.3,358.1z M493.9,294.3c-5.1,3.2-15.8-8.1-17.7-28.8
					C484.2,281.4,491.9,293.7,493.9,294.3z M504,335.5c-1,4.5-12.9,4.3-25.2-5.7C491.9,334,502.7,336.3,504,335.5z M492.7,305.6
					c-2.8,3.9-13.6-1.6-20.2-16.5C482.2,298.7,491,305.6,492.7,305.6z M495.9,248.3c-5.3,1.9-12.3-11-8.8-30.1
					C490.4,234.4,494.4,247.3,495.9,248.3z M501.4,230.3c-5.2,0.2-8.3-13-0.6-29.2C499.8,216.5,500.2,229.1,501.4,230.3z
					 M507.4,221.2c-4.2-0.6-4.5-11.7,4.2-23.4C508.3,209.9,506.7,220,507.4,221.2z M514.6,213.9c-3.7-1.9-0.8-12.5,10.8-20.8
					C518.8,203.4,514.2,212.4,514.6,213.9z"/>
				<path class="st4" d="M495.2,265.9c-4.6,2.5-11.6-4.2-12-22C489.4,257.9,493.7,265.3,495.2,265.9z M534.5,369.1
					c-1.1,5.5-15.8,5.3-30.9-7.1C519.4,367.2,532.8,370.1,534.5,369.1z M524.6,357.7c-4.8-5.2-8.7-20.8-8.1-23.1
					C527.4,345.1,528.8,356.4,524.6,357.7z M504.4,327.6c-4.3-7-4.7-25.2-3.5-27.7C510.8,314.2,509.6,327.2,504.4,327.6z
					 M501.1,327.7c-3.2,4-14.3-2.6-20.3-19C490.7,319.7,499.4,327.7,501.1,327.7z"/>
			</g>
			<g>
				<path class="st3" d="M493.1,264.8c1.9,4.3,13.8,1.8,23.5-10.7C502.1,262.2,496.3,265.9,493.1,264.8z M504.3,327.5
					c5.2-0.5,6.4-13.2-3.5-27.4C503.9,314.2,505.3,326,504.3,327.5z M524.7,357.7c4.2-1.3,2.8-12.6-8.1-23.1
					C521.9,346.3,525.3,356.2,524.7,357.7z"/>
				<path class="st3" d="M495.2,286.2c2.5-10.1-2-27.2-5.2-30.8C484.4,273.9,489.8,287.4,495.2,286.2z"/>
			</g>
			<path class="st4" d="M494.9,288.6c-7.1,1.6-10.4-14.4-4.9-32.6C491.3,272.2,493.4,287.4,494.9,288.6z"/>
			<path class="st4" d="M493.4,288.5c-0.7-9,8.3-27.8,10.7-29.7C506.7,277.8,498.8,290.4,493.4,288.5z"/>
			<path class="st3" d="M493.5,288.4c5.3,1.9,13.1-10.6,10.6-29.6C500,274.8,495.2,287.4,493.5,288.4z"/>
			<path class="st4" d="M495.1,300c0-9.1,10.2-26.7,12.8-28.4C508.8,291,500.3,302.7,495.1,300z"/>
			<path class="st3" d="M495.2,300.2c5.1,2.6,13.6-8.9,12.6-28.3C502.6,287.3,496.9,299.4,495.2,300.2z"/>
		</g>
		<g>
			<circle class="st5" cx="498.4" cy="237.4" r="1.3"/>
			<circle class="st5" cx="508.5" cy="230" r="1.3"/>
			<circle class="st5" cx="504.1" cy="225.9" r="1.3"/>
			<circle class="st6" cx="493.2" cy="311.8" r="1.6"/>
			<circle class="st6" cx="496.2" cy="292.6" r="1.6"/>
			<circle class="st6" cx="512.1" cy="337.6" r="1.6"/>
			<circle class="st6" cx="505.1" cy="339.9" r="1.6"/>
			<circle class="st6" cx="558.4" cy="377.4" r="1.6"/>
			<circle class="st6" cx="561.9" cy="386" r="1.6"/>
		</g>
	</g>
	<g>
		<path class="st2" d="M696.1,246.7c0.7,0.7,1.4,1,2.8,2.3 M690.9,226.1c0-1.7-0.7-4.3-1.1-6 M693.9,223.7c0.1,2.4-0.2,4.6-1.3,6.6
			 M687.7,229.7c2.2,1.9,4.2,3.7,6.4,4.7 M698.6,235.9c0.1,2.4-0.1,4.8-0.8,7.1 M698.2,244.9l1.6-2.8 M697.6,256.8
			c1.7,0.4,3.4,2.3,4.2,4.2 M702.4,259.5l1.9-2.6 M706.3,293.9c-0.8,1.4-1.8,2.9-3,4.2 M698.6,298c1,1.8,1.9,3.5,3.1,4.8
			 M704.8,309.9c-1.6,2.2-3.4,3.9-5.3,4.8 M699.6,320.1c-1.3,1-2.9,3.6-4.5,5.7 M705.3,301.5l-2.5,1.1 M701,293.5l1.6,1.3
			 M691.3,339.9c-1-0.1-1.8,0-2.5,0.1 M686.4,337.6l0.7,1.9 M677.8,345.8c-0.4,2.3-0.1,4.5,0.2,6.7 M683.2,341.7l1.2,2.8
			 M689.1,344.1l-3,0.5 M648.9,375l-1.1,2 M662.2,372.4c-1.8,0.2-3.4,0-4.9-0.2 M650.6,379.4c-1.2-0.5-2.3-0.8-3.5-1.2 M629.3,381.4
			c-1.1,1-2.4,2.9-3.7,4.9 M625,380.8c-2.9,1.6-3.9,4.5-5.3,7 M623.1,391.3c-1.9-0.6-4.1-1.4-6.4-2.4 M636.8,387.9
			c-2.8-1.4-5.7-1.3-8.5-1.8 M641.1,385.7c-4.3-0.8-8.4-0.7-12.4-0.1 M638.1,382.5l-1.7-0.7 M629.8,388.4l-2.8-1.6 M696.7,327.6
			c-1.6,1-3,2.8-4.6,4.7 M694.4,236.5l-2.6-0.8"/>
		<g>
			<path class="st3" d="M591.8,398.3c1-1.6,2.5-2.4,4-3.2c9.3-4.9,18.5-7,29-8.7c2.4-0.4,4.8-2.6,7.3-3.9c6-2.9,12.6-4,18.4-6.9
				c0.4-0.1,1.8-1.1,2.5-1.8c2.3-2.6,6.5-3.5,9-6c10-9.5,20.7-18.2,26.2-30.7c6.7-15.3,15-31.1,14-48.4c-0.7-11,1-22.1-1.8-32.5
				c-4-15.5-9.1-30.8-18.5-43.7l1.6,1c9.5,12.9,14.6,28.2,18.7,43.7c2.6,10.5,1.1,21.5,1.8,32.5c1.1,17.3-7.2,33.1-14,48.5
				c-5.5,12.5-16.2,21.2-26.2,30.7c-2.6,2.4-6.7,3.2-9,6c-0.7,0.7-2.2,1.7-2.5,1.8c-5.8,2.9-12.4,4-18.4,6.7
				c-2.5,1.2-4.9,3.5-7.3,3.9c-10.5,1.7-19.7,3.9-29,8.7c-1.4,0.7-3,1.7-4,3.2L591.8,398.3"/>
			<g>
				<path class="st3" d="M687.1,337.7c3.2-8.9,0-29.8-1.8-32.5C677.3,323.7,681.3,338.3,687.1,337.7z"/>
				<path class="st3" d="M678.5,346.1c2.8-6.7,0.7-23.2-0.6-25.3C671.3,334.9,674.1,346.5,678.5,346.1z M698.8,256.9
					c-4-7.3-20.3-17.3-23.2-17.6C683.1,255.4,695.5,261.3,698.8,256.9z"/>
				<path class="st3" d="M697,247.3c-2.2-7.3-14.9-19.4-17.5-20.1C683.2,242.9,693.2,250.4,697,247.3z M702.6,265.3
					c-4.2-4.8-18.3-9.5-20.5-9.3C690.6,266.9,700.9,269.1,702.6,265.3z M699.2,321.1c7.3,1.2,22.9-4.9,24.4-6.7
					C708.1,310.9,697.8,316.5,699.2,321.1z M699,314.2c0-6.7-7.7-20.3-9.6-21.5C688.8,307.1,695.3,316,699,314.2z"/>
				<path class="st3" d="M699.6,297.7c0-9.1-10.2-26.7-12.8-28.4C685.9,288.8,694.4,300.4,699.6,297.7z M635.9,388.4
					c5.4,6.6,23.7,13.4,26.6,13.1C651.8,386.8,638.3,383.4,635.9,388.4z"/>
			</g>
			<g>
				<path class="st4" d="M687.1,337.5c-5.8,0.6-9.7-13.7-1.7-32.3C684.8,322.3,685.6,336.1,687.1,337.5z M622.8,390.1
					c8.5,0.5,24.8,11.2,26.4,13.7C631,403.9,620.2,395,622.8,390.1z M622.8,380.4c2.5-9.6,18.1-25.5,21.1-26.6
					C639.5,374.4,627.4,384.5,622.8,380.4L622.8,380.4z M648.4,375.4c-1.2-9.4,6.9-29.1,9.1-31.3
					C661.1,363.9,653.9,377.3,648.4,375.4z M674.2,357.9c5.4-6.6,23.4-13.6,26.1-13.4C689.6,359,676.4,362.6,674.2,357.9z
					 M705.3,293.8c1.1-7.6,11.7-21.5,14-22.7C717.8,287.4,709.2,296.4,705.3,293.8z"/>
				<path class="st4" d="M691.2,339.6c7-5.2,26.6-7.5,29.4-6.6C706.3,344.7,692.3,344.8,691.2,339.6z M703.6,310.1
					c3.6-7.2,18.8-17.1,21.4-17.3C717.9,308.5,706.5,314.2,703.6,310.1z M701.8,255.3c-0.1-9.1,9.6-27.3,12-29.1
					C715.1,245.5,706.8,257.7,701.8,255.3L701.8,255.3z M693.5,224.1c-2.8-6.4-1.3-22.1-0.1-24.2C700,213.1,697.8,224.2,693.5,224.1
					z M688.3,221.4c-6.4-5.7-12.8-23.8-12.5-26.6C690,206,693.1,219.4,688.3,221.4z"/>
				<path class="st4" d="M702.4,263c-0.4,1,3.5-9.3,17.1-18.4C714.6,261.8,706.1,266.6,702.4,263z M661.3,371.2
					c8.4-6.3,31.9-9.1,35.1-8.1C679.4,377.3,662.5,377.5,661.3,371.2z M678.5,346.1c-4.5,0.2-7.2-11.2-0.6-25.2
					C677.1,334.1,677.5,345.1,678.5,346.1z M698.9,256.9c-3.2,4.3-15.5-1.4-23-17.6C687.1,249.7,697.1,257.2,698.9,256.9z
					 M696.8,247.3c-3.7,3.1-13.6-4.3-17.3-20C687.6,238.5,695.1,247.1,696.8,247.3z M702.6,265.4c-1.7,3.7-11.9,1.6-20.3-9.3
					C694.8,263.2,699.7,266.2,702.6,265.4z M699.5,321c-1.6-4.6,8.9-10,24.3-6.7C710.7,316.6,700.2,319.7,699.5,321z M699,314.2
					c-3.7,1.8-10.1-7.1-9.5-21.5C693.5,304.5,697.7,313.6,699,314.2z"/>
				<path class="st4" d="M699.5,298c-5.1,2.6-13.6-8.9-12.6-28.3C692.1,285.1,697.8,297.3,699.5,298z M636,388.4
					c2.4-4.9,15.9-1.7,26.5,13.1C649.3,393.3,637.9,387.8,636,388.4z"/>
			</g>
			<g>
				<path class="st3" d="M648.4,375.3c5.4,1.9,12.5-11.3,9-31.2C654.2,360.9,650.1,374.3,648.4,375.3z"/>
				<path class="st3" d="M660.8,369c5.2-7.9,6.6-29.6,5.5-32.5C654.5,352.9,655.1,368.2,660.8,369z M622.7,390.1
					c-2.5,4.9,8.1,13.7,26.2,13.6C634.6,397.9,623.4,391.9,622.7,390.1z M622.9,380.4c4.6,4,16.6-5.9,20.9-26.6
					C634.1,368.8,625,380.1,622.9,380.4z M674.3,357.9c2.2,4.7,15.3,1.1,26-13.5C687.3,352.8,676,358.4,674.3,357.9z M705.4,293.8
					c4,2.5,12.4-6.4,14-22.6C713,283.7,706.9,293.3,705.4,293.8z M691.3,339.6c1.1,5.2,15,5.1,29.2-6.6
					C705.5,337.8,692.9,340.5,691.3,339.6z M703.7,310c3,4.1,14.3-1.6,21.3-17.3C714.6,302.8,705.4,310.1,703.7,310z M701.9,255.1
					c5.1,2.4,13.4-9.6,11.9-29C708.9,241.9,703.7,254.3,701.9,255.1L701.9,255.1z M693.6,224c4.2,0.1,6.5-10.8-0.1-24.1
					C694.5,212.5,694.4,222.9,693.6,224z M688.4,221.3c4.8-2,1.6-15.3-12.5-26.5C683.7,208.1,689,219.6,688.4,221.3z M702.4,263.1
					c3.9,3.6,12.2-1.3,17.1-18.4C710.1,256.7,704.2,262.8,702.4,263.1z M661.3,371.3c1.2,6.3,17.9,6,35-8.1
					C678.4,369,663.4,372.4,661.3,371.3z"/>
				<path class="st3" d="M669.6,362c4-5.9,5.2-22,4.3-24.2C664.9,350,665.3,361.3,669.6,362z M693.2,327.5c4.3-7,4.7-25.2,3.5-27.7
					C686.8,314.1,688,327.1,693.2,327.5z"/>
			</g>
			<path class="st4" d="M660.8,368.9c-5.8-0.7-6.4-16,5.5-32.4C661.9,353.2,659.8,367.2,660.8,368.9z M703.1,286.7
				c-1.1-9.4,4.8-24.2,7.9-27.1C714.2,276.9,707.9,288.4,703.1,286.7z M669.6,361.9c-4.3-0.6-4.7-12,4.2-24.1
				C670.6,350.2,668.8,360.6,669.6,361.9z M697.8,236.5c-2.6-7.1,0-24.1,1.4-26.2C705.6,224.9,702.4,236.8,697.8,236.5z M627.9,381
				c3-9.7,19.5-25.4,22.6-26.4C645.3,375.6,632.3,385.4,627.9,381z M693.5,331c3.2-7.6,17.8-18.7,20.5-19
				C708,328.3,696.7,334.9,693.5,331z M693.3,327.4c-5.2-0.5-6.4-13.2,3.5-27.4C693.7,314.1,692.3,325.9,693.3,327.4z"/>
			<path class="st3" d="M703.2,288.8c6.3,2.2,11-11.9,7.9-28.8C708.3,274.6,704.7,288,703.2,288.8z"/>
			<path class="st3" d="M704.2,288.4c0.7-9-8.3-27.8-10.7-29.7C690.9,277.6,698.8,290.3,704.2,288.4z M697.8,236.4
				c4.6,0.4,7.8-11.3,1.4-26.1C699.7,224.1,698.9,235.3,697.8,236.4z M628,380.9c4.6,4.3,17.3-5.3,22.5-26.2
				C639.9,369.5,630,380.7,628,380.9L628,380.9z M693.7,331c3.2,4,14.3-2.6,20.3-19C704.3,322.9,695.4,331,693.7,331z"/>
			<path class="st4" d="M704.1,288.2c-5.3,1.9-13-10.6-10.6-29.6C697.6,274.6,702.4,287.3,704.1,288.2z"/>
		</g>
		<g>
			<circle class="st6" cx="700.3" cy="241.8" r="1.3"/>
			<circle class="st6" cx="704.9" cy="256.1" r="1.3"/>
			<circle class="st6" cx="706.6" cy="301.2" r="1.6"/>
			<circle class="st6" cx="700.3" cy="292.8" r="1.6"/>
			<circle class="st6" cx="682.6" cy="340.8" r="1.6"/>
			<circle class="st6" cx="690.2" cy="344.1" r="1.6"/>
			<circle class="st6" cx="639.2" cy="383.1" r="1.6"/>
			<circle class="st6" cx="630.8" cy="389.1" r="1.6"/>
			<circle class="st6" cx="691.2" cy="235" r="1.3"/>
		</g>
	</g>
	<g id="b">
		<path class="st7" d="M543.4,339.8c-0.1,1.3,1,2.8,2.5,2.5c0.5-0.1,0.7-0.7,0.1-0.6c-0.5,0.1-1.1-0.1-1.4-0.5
			c-0.6-0.6-0.8-1.6-0.5-2.3C544,339.2,543.7,339.4,543.4,339.8L543.4,339.8L543.4,339.8z"/>
		<path class="st8" d="M547,342.2c-1.2,1.4-3.1,2-4.1,1c-0.7-0.7-1-1.4-0.6-2.3c-0.5,0.6-1,1.1-1.3,1.4c0,0.1,0.8,1.6,2,2.2
			c1.4,0.6,3.6-0.4,4.8-1.9c0.8-1.1,1.9-2.9,1.2-4.3c-0.5-0.8-1.4-1.7-2.4-2c-0.5,0.5-0.8,0.8-1.2,1.3c0.6-0.2,1.3-0.1,2,0.4
			C549,339.2,548.1,341,547,342.2L547,342.2L547,342.2z"/>
		<path class="st9" d="M547,342.2c-0.4,0.5-0.8,0.8-1.4,1.2c-0.5,0.2-1.2,0.5-1.8,0.4c-0.4,0-0.6-0.1-0.8-0.4
			c-0.2-0.2-0.5-0.5-0.6-0.7c-0.1-0.2-0.2-0.6-0.2-0.8c0-0.4,0-0.6,0.1-1l0.1,0.1l-1.3,1.4v-0.1c0.4,0.6,0.7,1.1,1.2,1.6
			c0.2,0.2,0.5,0.4,0.8,0.5s0.6,0.1,1,0.1c0.6,0,1.3-0.2,1.9-0.6c0.6-0.4,1.1-0.7,1.6-1.2c0.5-0.5,0.8-1.1,1.1-1.7s0.5-1.2,0.5-1.9
			c0-0.4-0.1-0.6-0.2-1c-0.1-0.2-0.4-0.6-0.6-0.8c-0.5-0.5-1.1-0.8-1.7-1.1h0.1l-1.2,1.3l-0.1-0.1c0.2-0.1,0.6-0.1,1-0.1
			c0.4,0,0.6,0.1,0.8,0.2c0.5,0.4,1,0.7,1.1,1.3c0.1,0.6,0,1.2-0.2,1.7C547.8,341.3,547.5,341.8,547,342.2L547,342.2L547,342.2z
			 M547,342.2c0.4-0.5,0.7-1,1-1.4c0.2-0.5,0.4-1.1,0.2-1.7c-0.1-0.6-0.6-1-1.1-1.3c-0.5-0.2-1.1-0.4-1.6-0.1l-0.1-0.1l1.2-1.3l0,0
			h0.1c0.6,0.2,1.2,0.6,1.7,1.2c0.2,0.2,0.5,0.5,0.6,0.8c0.1,0.4,0.2,0.7,0.4,1.1c0,0.7-0.1,1.4-0.5,2c-0.4,0.6-0.7,1.2-1.2,1.7
			s-1,1-1.7,1.3c-0.6,0.4-1.3,0.6-2,0.6c-0.4,0-0.7,0-1.1-0.2c-0.4-0.1-0.6-0.4-0.8-0.6c-0.5-0.5-1-1-1.3-1.7v-0.1l0,0l1.3-1.4
			l0.1,0.1c-0.1,0.2-0.2,0.6-0.1,0.8c0,0.2,0.1,0.6,0.2,0.8c0.1,0.2,0.4,0.5,0.6,0.7c0.2,0.2,0.5,0.4,0.8,0.4
			c0.6,0.1,1.2-0.1,1.7-0.4C546.1,343,546.6,342.6,547,342.2L547,342.2z"/>
		<path class="st10" d="M640.9,235l-48.3,47.5c-3.7,3.6-45.7,43.8-49.5,47.4c-1.3,1.6-5.1,5.9-5.5,6.5c-2.5,2.8-5.3,6.4-8.7,9.6
			c-0.6,0.7-1.3,0.5-2,0.8c-2.2,1.2-4.5,3.5-6.1,5.3l-14.7,16.2c-1,1.1-1.2,1.7-0.6,2.3l7.9,10.7c1.4,1.4,3.1,2.2,3.9,1
			c3.7-6.5,13.2-16.6,16.7-24.4c2.2-4.7,4.8-13.4,6.7-15.4c2.3-2.6,8.7-9.3,14.2-15.3c0.4-0.4,0.7-0.8,1.1-1.2l1.1-1.2
			c28.3-28.9,61-63.8,84.9-88.6C641.2,235.3,641.8,235.9,640.9,235L640.9,235z"/>
		<path class="st7" d="M540.6,329.9c-1.4,0-2.4-0.8-3.4-1.7c1.4,0.4,2.8,1,4.2,0.4L540.6,329.9L540.6,329.9z"/>
		<path class="st11" d="M691.2,199.9l-38.3,31.5c-0.4,0.5-0.7,0.4-1.1,0l-3.5-2.9v-0.1c0-0.2,0-0.4-0.1-0.6l1.7-1.7
			c0.2-0.2,0.1-0.4-0.1-0.6c-0.2-0.2-0.4-0.5-0.7-0.7c-0.2-0.2-0.5,0-0.7,0.2l-1.7,1.8c-0.8,0-1.6,0.7-1.7,1.7
			c-23.1,22.5-43.1,42.6-66.1,64.9l-27.2,25.9c-1,1.2-5.2,3.5-7.9,5.3c-1,0.6-1.8,1.2-2.2,1.8l-2.2,6.5c-0.7,1.4-2.9,4.8-3,5.1
			c2.9,2.9,2.6,2.6,4.7,4.5c2.2-2.4,8.1-8.5,13.4-14.3c0.5-0.5,0.5-0.5,1-1.2c-0.4-0.6-1.1-1.4-1.7-2c-0.5-0.5-1-0.8-1.4-1.3
			c-0.2-0.2-0.6-0.5-0.7-0.6c-0.2-0.2,0.2-0.5,0.5-0.7c31.9-30.8,66.2-64.6,94.2-92.2c0.4,0.1,0.8,0.1,1.2-0.1l3.4,3.9
			c0.8,0.8,1.4,0.7,2,0.5L691.2,199.9L691.2,199.9z"/>
		<path class="st9" d="M539.4,332.7c0.2,0,0.5,0,0.7,0c0.2,0,0.5-0.1,0.7-0.2l0,0c0.6-1.9,1.2-3.9,1.8-5.7l0,0
			c-0.2-0.2-0.5-0.5-0.8-0.6c0.4,0.1,0.7,0.2,1,0.6l0,0l0,0c-0.2,1-0.6,1.9-0.8,2.9c-0.2,1-0.6,1.9-1,2.9l0,0l0,0
			c-0.2,0.1-0.5,0.1-0.7,0.1C539.9,332.8,539.6,332.7,539.4,332.7L539.4,332.7z"/>
		<circle class="st12" cx="548.2" cy="329.9" r="0.7"/>
		<circle class="st12" cx="543.6" cy="334.5" r="0.7"/>
		<path class="st9" d="M551.6,323c-0.4-0.2-0.7-0.6-1.1-1c-0.4-0.4-0.7-0.7-1-1.1c0.4,0.2,0.7,0.6,1.1,1
			C550.8,322.3,551.2,322.7,551.6,323L551.6,323z"/>
		<path class="st7" d="M625.2,246.8l4.2,4.1l0.7-0.7l-4.2-4.1L625.2,246.8z"/>
	</g>
	<g transform="rotate(-177.16 487.09 -.23)">
		<g id="b_1_">
			<path class="st7" d="M301.3-323.1L301.3-323.1c0.3,0.2,0.5,0.4,0.9,0.6c-0.4-0.7-0.4-1.7,0.1-2.3c0.3-0.4,0.9-0.7,1.4-0.6
				c0.6-0.1,0.2-0.5-0.3-0.6C301.9-326.1,301-324.4,301.3-323.1L301.3-323.1z"/>
			<path class="st8" d="M304.4-326.1L304.4-326.1c1.3,1.1,2.4,2.7,0.9,4.3c-0.5,0.7-1.4,0.9-2,0.7c0.5,0.3,0.9,0.6,1.4,1.1
				c0.8-0.4,1.8-1.5,2.1-2.4c0.6-1.6-0.7-3.2-1.7-4.2c-1.5-1.4-3.7-2-5.1-1.2c-1.1,0.7-1.7,2.2-1.7,2.3c0.4,0.3,0.9,0.8,1.6,1.3
				c-0.4-0.8-0.3-1.5,0.3-2.3C301.1-327.5,303-327.2,304.4-326.1L304.4-326.1z"/>
			<path class="st9" d="M304.4-326.1L304.4-326.1c0.5,0.3,0.9,0.8,1.2,1.2c0.4,0.4,0.6,1,0.5,1.6c-0.1,0.6-0.5,1.1-0.9,1.5
				c-0.2,0.3-0.4,0.4-0.8,0.4c-0.4,0-0.7,0.1-1,0l0.1-0.1l1.4,1.1l-0.1,0c0.6-0.3,1-0.8,1.4-1.4c0.2-0.3,0.4-0.6,0.5-0.9
				c0.1-0.4,0.2-0.6,0.1-1c-0.1-0.7-0.4-1.3-0.8-1.9c-0.4-0.4-0.8-1-1.4-1.4c-0.4-0.4-1.1-0.9-1.7-1c-0.6-0.2-1.2-0.4-2-0.3
				c-0.4,0-0.7,0.2-0.9,0.3c-0.3,0.2-0.6,0.4-0.8,0.7c-0.4,0.5-0.7,1.2-1,1.8l0-0.1l1.6,1.3l-0.1,0.1c-0.2-0.3-0.3-0.6-0.3-0.9
				c0-0.2,0.1-0.6,0.2-0.9s0.3-0.5,0.5-0.8c0.2-0.1,0.4-0.4,0.8-0.4c0.6-0.2,1.2-0.1,1.8,0.1C303.4-326.8,304-326.5,304.4-326.1
				L304.4-326.1z M304.4-326.1c-0.4-0.4-0.9-0.8-1.7-0.8c-0.5-0.2-1.1-0.3-1.7-0.1c-0.2,0-0.5,0.2-0.7,0.4c-0.1,0.3-0.3,0.5-0.4,0.8
				c-0.1,0.3-0.2,0.6-0.2,0.9c0,0.2,0.2,0.6,0.3,0.8l-0.1,0.1l-1.6-1.3l0,0l0-0.1c0.2-0.6,0.6-1.3,1-1.8c0.2-0.3,0.4-0.5,0.8-0.7
				c0.3-0.2,0.7-0.3,1.1-0.3c0.7-0.1,1.4,0,2.1,0.3c0.6,0.2,1.3,0.6,1.8,1s0.9,1,1.4,1.6s0.7,1.3,0.8,2c0,0.4,0,0.7-0.1,1.1
				c-0.1,0.3-0.3,0.6-0.5,0.9c-0.4,0.5-1,1.1-1.6,1.4l-0.1,0l0,0l-1.4-1.2l0.1-0.1c0.5,0.2,1.1,0,1.5-0.4c0.3-0.3,0.8-0.8,0.8-1.4
				s-0.1-1.2-0.4-1.7C305.2-325.3,304.8-325.6,304.4-326.1L304.4-326.1z"/>
			<path class="st10" d="M413.3-234c0.7-1,0.2-0.4,1.1-1.6c-27.2-20.9-64.8-50.6-97.1-75l-1.3-1.1c-0.4-0.3-0.9-0.6-1.3-1
				c-6.4-5-13.6-10.7-16.3-13c-2.2-1.8-6.1-9.9-8.9-14.2c-4.7-7.3-15.5-15.8-20.2-21.7c-1-1.1-2.4-0.1-3.7,1.6l-6.3,11.8
				c-0.5,0.7-0.1,1.2,0.9,2.1l17,13.9c2,1.5,4.4,3.3,6.8,4.3c0.8,0.4,1.6,0,2.2,0.6c3.8,2.8,7.1,5.9,10,8.3c0.4,0.6,4.8,4.1,6.4,5.5
				c4.3,3,51.8,36.5,55.9,39.6L413.3-234L413.3-234z"/>
			<path class="st7" d="M299.9-312.9l0.8,1.1c-1.4-0.3-2.6,0.4-4,1C297.6-311.7,298.5-312.8,299.9-312.9L299.9-312.9z"/>
			<path class="st11" d="M468.2-206.8L425.4-235c-0.6-0.2-1.3-0.1-2,0.8l-2.7,4.3c-0.4-0.1-0.9,0-1.2,0.1
				c-31.8-23.1-70.8-51.5-106.9-77.2c-0.3-0.2-0.9-0.4-0.7-0.7c0.1-0.3,0.4-0.5,0.6-0.8c0.3-0.5,0.7-1,1.2-1.6
				c0.4-0.6,1.1-1.6,1.4-2.2c-0.7-0.5-0.7-0.5-1.2-1c-6.2-4.8-12.9-10.1-15.4-12.1c-1.7,2.1-1.6,1.9-4,5.1c0.1,0.2,2.9,3.2,3.7,4.6
				l3.1,6.1c0.4,0.7,1.4,1.1,2.5,1.6c3,1.4,7.4,3,8.6,4.1l30.7,21.6c26,18.6,48.8,35.4,75,54.4c0.1,0.8,1,1.5,1.8,1.4l2,1.5
				c0.3,0.2,0.5,0.3,0.7,0c0.3-0.3,0.4-0.5,0.6-0.8c0.2-0.4,0.3-0.5,0-0.7l-2-1.5c0.1-0.3,0.1-0.4,0.1-0.6l0-0.1l3-3.4
				c0.3-0.3,0.7-0.6,1.1-0.1L468.2-206.8L468.2-206.8z"/>
			<path class="st9" d="M298.5-315.6c0.2,0,0.5-0.2,0.7-0.1c0.2,0,0.5,0,0.7,0l0,0l0,0c0.4,0.8,0.9,1.7,1.4,2.6
				c0.4,0.8,0.8,1.7,1.2,2.7l0,0l0,0c-0.2,0.3-0.4,0.5-0.8,0.7c0.3-0.2,0.6-0.4,0.8-0.7l0,0c-0.9-1.8-1.8-3.6-2.6-5.4l0,0
				c-0.3-0.1-0.5-0.1-0.7,0C298.9-315.7,298.7-315.6,298.5-315.6L298.5-315.6z"/>
			
				<ellipse transform="matrix(0.989 -0.1482 0.1482 0.989 49.9317 42.0883)" class="st12" cx="307.5" cy="-314.1" rx="0.5" ry="0.5"/>
			<ellipse transform="matrix(0.989 -0.1482 0.1482 0.989 50.43 41.2795)" class="st12" cx="302.3" cy="-317.9" rx="0.5" ry="0.5"/>
			<path class="st9" d="M311.8-307.8c-0.3,0.5-0.6,0.8-0.9,1.2c-0.3,0.4-0.7,0.7-1,1.1c0.3-0.4,0.5-0.8,0.9-1.2
				C311.2-307.1,311.5-307.4,311.8-307.8L311.8-307.8z"/>
			<path class="st7" d="M396.8-242.6l3.5-4.7l-0.9-0.6l-3.5,4.7L396.8-242.6z"/>
		</g>
	</g>
	<g>
		<path class="st4" d="M543,374.8c-9.5-4-32.4-0.8-35.1,1.1C527.5,385.5,543.4,381.4,543,374.8z M650.1,378.8
			c9.5-4,32.4-0.8,35.1,1.1C665.8,389.5,649.8,385.4,650.1,378.8z"/>
		<path class="st3" d="M542.9,374.9c0.4,6.6-15.4,10.7-35,1.1C526.3,377.1,541.3,376.5,542.9,374.9z M650.4,378.9
			c-0.4,6.6,15.4,10.7,35,1.1C667,381,651.9,380.4,650.4,378.9z"/>
	</g>
	<g id="c">
		<path class="st11" d="M632.8,368.3c-24.9-36.2-62.6-65.7-91.6-81.8c4.3-0.2,13.8,4.7,17.7,7.1c28.8,18.5,53.3,43.1,79.1,72
			c-1.6,1.4-2.5,2.4-4.1,3.6L632.8,368.3L632.8,368.3z"/>
		<path class="st8" d="M635.2,368l-1.8,1.7c-27.7-35.6-66.3-69.7-92.3-83.2C577.4,303.2,607.9,336.7,635.2,368L635.2,368L635.2,368z
			"/>
		<path class="st9" d="M635.3,368l-1.7,1.7l0,0l0,0c-6.4-8.2-13.2-16.1-20.3-23.7c-7.1-7.6-14.4-15-22.1-22
			c-7.7-7.1-15.5-13.8-23.8-20.2c-4.1-3.1-8.3-6.3-12.6-9.1c-4.3-2.9-8.8-5.7-13.4-7.9l0.1-0.2c9.5,4.3,18.4,9.9,27,16
			c8.4,6.1,16.5,12.9,24.1,20c7.7,7.1,14.9,14.6,22,22.3C621.5,352.3,628.3,360.1,635.3,368L635.3,368z M635.3,368
			c-6.9-7.8-13.8-15.6-20.9-23.4s-14.4-15.2-22-22.3c-7.7-7.1-15.6-13.8-24.1-20c-8.4-6.1-17.5-11.6-27-15.9l0.1-0.2
			c4.6,2.4,9,5.2,13.4,8.1c4.3,2.9,8.5,6,12.6,9.1c8.3,6.4,16.1,13.1,23.8,20.2c7.7,7.1,15,14.4,22,22.1
			c7.1,7.7,13.8,15.6,20.2,23.8l0,0L635.3,368L635.3,368z"/>
		<g>
			<path class="st13" d="M643.6,362.4c-2.4,0.6-4.5,1.6-6.4,2.6c-0.2,1.7-2.4,3.6-4.3,4c-0.4-0.5-0.5-0.6-0.7-1c0-0.1-0.1-0.1-0.2,0
				c-0.1,0.1-0.4,0.2-0.7,0.4c-0.7-0.1-1.6,0.2-2,1.2c-0.5,1.2,0.5,2.6,1.4,3.7c1.1,0.8,1.7,1.3,3,1.1c1.3-0.2,2-1.4,2.3-1.8
				c4.5,5.4,7.8,8.3,13.5,12.8c2.5,0,3.9-1.6,3-3.4c-0.2-0.6-1-1-1.6-0.8c0-0.1,0-0.4,0-0.6c3-2.8,4.2-6.1,1.1-11.9
				C649.5,363.9,646.5,362.4,643.6,362.4L643.6,362.4L643.6,362.4z M651.1,367.8c0.5,0.8,0.8,1.7,1.2,2.5c1.8,3.6,0.2,7.9-2.8,9.3
				c-0.1,0-0.1,0-0.2,0c0.5-0.8-1-2.6-1.8-1.9c0.4-1-0.8-2.4-1.8-2c0.5-0.8-0.6-2.3-1.7-1.8c0.6-1-0.4-2.3-1.4-2
				c0.4-1-0.5-2.2-1.7-1.9c0.1-0.8-0.2-1.3-0.6-1.8c1.3-1,2.8-2.5,4.1-3.2C647.7,363.3,649.8,366.1,651.1,367.8L651.1,367.8z"/>
			<path class="st14" d="M652.5,371.7c-0.6-0.4-1-1-0.7-1.3c0.2-0.4,0.8-0.5,1.4-0.2c0.6,0.4,1,0.8,0.7,1.3
				C653.9,371.8,653.1,371.9,652.5,371.7L652.5,371.7z"/>
			<path class="st14" d="M652.2,370.4c-0.6-0.4-1-1-0.7-1.3c0.2-0.4,0.8-0.5,1.4-0.2c0.6,0.4,1,0.8,0.7,1.3
				C653.5,370.6,652.8,370.7,652.2,370.4L652.2,370.4z"/>
			<path class="st14" d="M651.5,369c-0.6-0.4-1-1-0.7-1.3s0.8-0.5,1.4-0.2c0.6,0.4,1,0.8,0.7,1.3C652.8,369.2,652.1,369.4,651.5,369
				L651.5,369z"/>
			<path class="st14" d="M650.5,367.8c-0.6-0.4-1-1-0.7-1.3c0.2-0.4,0.8-0.5,1.4-0.2c0.6,0.4,1,0.8,0.7,1.3
				C651.8,367.9,651.1,368.2,650.5,367.8L650.5,367.8z"/>
			<path class="st14" d="M649.3,366.6c-0.6-0.4-1-1-0.7-1.3c0,0,0-0.1,0.1-0.1c0.2,0.1,0.7,0.2,0.7-0.1c-0.1-0.1-0.1-0.2-0.1-0.1
				c0.2,0,0.6,0.1,0.7,0.2c0.6,0.4,1,0.8,0.7,1.3C650.5,366.8,649.9,367,649.3,366.6L649.3,366.6L649.3,366.6z"/>
		</g>
		<path class="st15" d="M636.2,372.6c0.8-2.2,2.4-4.1,4.2-4.6 M636.4,373c1.6,0.4,4-1.4,4.6-3.1 M637.9,374.7c2,0.5,4-1.4,4.7-2.9
			 M639.7,376.6c2.4,0.1,3.9-1.6,4.5-2.9 M641.5,378.4c2,0,3.9-1.7,4.3-2.9 M643.2,380.1c2.2-0.1,3.7-1.1,4.3-2.5 M645.2,381.8
			c2,0.1,3.6-1.1,4.1-2.3 M647.4,383.6c2,0.1,3.2-1.1,3.7-2.3"/>
		<path class="st16" d="M636.2,372.6c0.4-1.1,0.8-1.9,1.6-2.8c0.4-0.4,0.7-0.8,1.2-1.1c0.5-0.4,1-0.6,1.4-0.7
			c-0.5,0.1-1,0.5-1.4,0.7c-0.4,0.4-0.8,0.7-1.2,1.1C637.1,370.7,636.5,371.7,636.2,372.6L636.2,372.6z M636.4,373
			c0.5,0.1,1,0,1.4-0.2c0.5-0.2,0.8-0.5,1.2-0.7c0.4-0.2,0.7-0.6,1.1-1c0.4-0.4,0.6-0.7,0.8-1.2c-0.1,0.5-0.4,0.8-0.7,1.3
			c-0.4,0.4-0.7,0.7-1.1,1c-0.4,0.2-0.8,0.5-1.3,0.7C637.4,373,636.9,373.1,636.4,373L636.4,373z M637.9,374.7c0.5,0.1,1,0,1.4-0.1
			c0.5-0.1,0.8-0.4,1.3-0.6c0.4-0.2,0.7-0.6,1.1-1c0.4-0.4,0.6-0.7,0.8-1.2c-0.2,0.5-0.5,0.8-0.8,1.2c-0.4,0.4-0.7,0.7-1.1,1
			c-0.4,0.2-0.8,0.5-1.3,0.6C638.8,374.8,638.3,374.8,637.9,374.7L637.9,374.7z M639.7,376.6c0.5,0,1-0.1,1.3-0.2
			c0.5-0.1,0.8-0.4,1.2-0.6c0.4-0.2,0.7-0.6,1.1-1c0.4-0.4,0.6-0.7,0.8-1.1c-0.4,0.8-1.1,1.6-1.8,2.2c-0.4,0.2-0.8,0.5-1.3,0.6
			C640.6,376.6,640.1,376.6,639.7,376.6L639.7,376.6z M641.5,378.4c1,0,1.8-0.4,2.5-1c0.4-0.2,0.7-0.6,1.1-0.8
			c0.4-0.4,0.6-0.7,0.8-1.1c-0.1,0.5-0.5,0.8-0.7,1.2c-0.4,0.4-0.6,0.6-1.1,1c-0.4,0.2-0.8,0.5-1.2,0.6
			C642.4,378.4,641.9,378.4,641.5,378.4L641.5,378.4z M643.2,380.1c0.5,0,0.8-0.1,1.3-0.2c0.5-0.1,0.8-0.2,1.2-0.5
			c0.4-0.2,0.7-0.5,1.1-0.7c0.4-0.4,0.6-0.6,0.8-1.1c-0.1,0.4-0.4,0.8-0.7,1.1c-0.4,0.4-0.7,0.6-1.1,0.8
			C645,380,644.1,380.1,643.2,380.1L643.2,380.1z M645.2,381.8c0.4,0,0.8,0,1.2-0.1c0.4-0.1,0.8-0.2,1.2-0.5c0.4-0.2,0.7-0.5,1-0.7
			c0.4-0.2,0.6-0.6,0.7-1c-0.1,0.4-0.4,0.7-0.7,1.1c-0.2,0.2-0.6,0.6-1,0.7c-0.4,0.2-0.7,0.4-1.2,0.4
			C646,381.9,645.6,381.9,645.2,381.8L645.2,381.8z M647.4,383.6c0.4,0,0.7,0,1.2-0.1c0.7-0.2,1.4-0.6,1.9-1.2
			c0.2-0.2,0.5-0.6,0.7-1c-0.2,0.7-0.8,1.3-1.4,1.8c-0.4,0.2-0.7,0.4-1.1,0.5C648.1,383.6,647.7,383.6,647.4,383.6L647.4,383.6z"/>
	</g>
	<g transform="rotate(-176.592 489.967 -.41)">
		<g id="c_1_">
			<path class="st11" d="M379-362.7l0.8-1.1c1.8,0.9,3,1.6,4.7,2.8c-20.2,33-39.9,61.5-65,84.9c-3.4,3.1-11.8,9.7-16.1,10.2
				C329.1-287,360.9-322.6,379-362.7L379-362.7z"/>
			<path class="st8" d="M381.6-362.9L381.6-362.9c-21.4,35.7-45.4,74.2-78,97c23.1-17.9,55.1-58.3,76-98.3L381.6-362.9L381.6-362.9z
				"/>
			<path class="st9" d="M381.6-362.9c-5.3,9-10.8,18-16.4,26.7c-5.6,8.8-11.5,17.5-17.8,25.9s-12.9,16.5-20.2,24
				c-7.2,7.5-15,14.5-23.6,20.5l-0.1-0.2c4.1-3.2,7.9-6.6,11.7-10.3s7.4-7.4,10.9-11.2c7.1-7.8,13.6-15.8,19.9-24.1
				c6.3-8.3,12.2-16.8,17.8-25.6s11-17.8,15.8-27l0,0l0,0L381.6-362.9L381.6-362.9z M381.6-362.9l-1.8-1.2l0,0
				c-4.8,9.3-10.1,18.3-15.7,27.1c-5.6,8.8-11.5,17.3-17.8,25.6c-6.3,8.3-13,16.3-19.9,24.1c-3.5,3.8-7.1,7.6-10.9,11.2
				c-3.7,3.6-7.6,7.1-11.7,10.3l-0.1-0.2c8.5-6,16.4-12.9,23.6-20.4c7.2-7.5,13.9-15.6,20.2-24c6.3-8.4,12.2-17,17.8-25.8
				C370.7-345,376.2-354,381.6-362.9L381.6-362.9z"/>
			<g>
				<path class="st13" d="M390.8-358.8L390.8-358.8c2.9-0.5,5.5-2.6,7.1-8.2c2-6.2,0.2-9.4-3.2-11.5c0-0.1,0-0.4-0.1-0.5
					c0.6,0.2,1.3-0.4,1.5-1c0.5-1.9-1.1-3.1-3.6-2.7c-4.8,5.4-7.7,8.9-11.1,15c-0.4-0.3-1.2-1.3-2.6-1.4c-1.3,0-1.7,0.6-2.7,1.7
					c-0.7,1.2-1.3,2.9-0.7,4c0.6,0.9,1.5,1,2.2,0.8c0.4,0.1,0.6,0.2,0.8,0.3c0.1,0.1,0.3,0.1,0.2,0c0.2-0.4,0.2-0.5,0.5-1
					c2.1,0.1,4.4,1.5,5,3.2C386.1-359.5,388.3-359,390.8-358.8L390.8-358.8z M397.3-365.5c-1.1,1.9-2.6,5-6.1,4.1
					c-1.4-0.4-3.1-1.7-4.7-2.5c0.3-0.5,0.5-1,0.3-1.8c1.2,0,1.8-1.3,1.3-2.2c1.1,0.1,1.8-1.4,1.1-2.2c1.1,0.2,2-1.3,1.3-2.1
					c1.1,0.2,1.9-1.6,1.4-2.4c0.9,0.5,2.1-1.5,1.4-2.2c0.1,0,0.1,0,0.2,0c3.3,0.8,5.5,4.8,4.4,8.7
					C397.8-367.3,397.6-366.5,397.3-365.5L397.3-365.5z"/>
				<path class="st14" d="M397.9-369.5c0.6-0.4,1.3-0.4,1.6-0.1c0.3,0.3,0,1-0.6,1.4c-0.6,0.4-1.2,0.4-1.4,0.1
					C397.1-368.4,397.3-369.1,397.9-369.5L397.9-369.5z"/>
				<path class="st14" d="M397.8-368.3c0.6-0.4,1.2-0.4,1.6-0.1c0.3,0.3,0,1-0.6,1.4c-0.6,0.4-1.2,0.4-1.4,0.1
					C397.1-367.2,397.2-367.8,397.8-368.3L397.8-368.3z"/>
				<path class="st14" d="M397.2-366.7c0.6-0.4,1.3-0.4,1.6-0.1c0.3,0.3,0,1-0.6,1.4c-0.6,0.4-1.2,0.4-1.4,0.1
					S396.7-366.3,397.2-366.7L397.2-366.7z"/>
				<path class="st14" d="M396.5-365.4c0.6-0.3,1.3-0.4,1.6-0.1c0.3,0.3,0,1-0.6,1.4c-0.6,0.4-1.2,0.4-1.4,0.1
					C395.8-364.4,396-365,396.5-365.4L396.5-365.4z"/>
				<path class="st14" d="M395.5-364L395.5-364c0.6-0.4,1.3-0.4,1.6-0.2c0.3,0.3,0,1-0.6,1.4c-0.1,0.1-0.6,0.4-0.7,0.4
					c0,0.1,0,0,0.1-0.1c0-0.4-0.5-0.2-0.7,0c-0.1,0-0.1-0.1-0.1-0.1C394.8-362.9,394.9-363.6,395.5-364L395.5-364z"/>
			</g>
			<path class="st15" d="M386.6-363.8c-1.8-0.1-3.7-1.9-4.9-3.8 M386.9-365.6c-0.9-1.6-3.7-2.8-5.1-2.3 M388.1-367.8
				c-1-1.3-3.4-2.9-5.2-2 M389.3-370c-1-1.2-2.7-2.6-5-2.1 M390.6-372.1c-0.9-1.1-2.8-2.4-4.9-2.1 M391.9-374.5
				c-0.9-1.3-2.5-2-4.7-1.7 M393.2-376.7c-0.6-1.1-2.4-2-4.4-1.5 M394.7-378.8c-0.7-1-2.1-2.1-4.1-1.6"/>
			<path class="st16" d="M381.6-367.5c0.6,0.8,1.3,1.7,2,2.3c0.4,0.4,0.8,0.8,1.3,0.9c0.5,0.3,1,0.5,1.5,0.5c-0.5-0.1-1-0.2-1.5-0.4
				c-0.4-0.3-0.9-0.6-1.3-0.9C382.8-365.7,382.1-366.6,381.6-367.5L381.6-367.5z M381.8-367.9c0.5-0.2,0.9-0.2,1.4-0.2
				c0.5,0.1,1,0.2,1.4,0.4c0.4,0.2,0.8,0.5,1.2,0.8c0.4,0.3,0.8,0.6,1,1.1c-0.3-0.4-0.6-0.8-1-1.1c-0.3-0.2-0.8-0.5-1.2-0.7
				c-0.5-0.2-0.9-0.4-1.4-0.4C382.8-368,382.3-368.1,381.8-367.9L381.8-367.9z M382.9-369.9c0.4-0.3,0.9-0.4,1.5-0.4
				c0.5,0.1,0.9,0.3,1.4,0.4s0.9,0.5,1.3,0.8c0.3,0.3,0.7,0.6,1,1.1c-0.3-0.3-0.7-0.6-1.1-1c-0.4-0.2-0.9-0.5-1.3-0.7
				c-0.4-0.2-0.9-0.4-1.4-0.4S383.4-370.1,382.9-369.9L382.9-369.9z M384.3-372.1c0.5-0.1,1-0.1,1.4-0.2c0.5-0.1,1,0.1,1.4,0.3
				c0.9,0.4,1.6,1,2.2,1.8c-0.3-0.3-0.6-0.7-1-1c-0.4-0.3-0.8-0.5-1.2-0.7c-0.5-0.2-0.9-0.3-1.4-0.3S384.8-372.2,384.3-372.1
				L384.3-372.1z M385.8-374.2c0.5-0.2,1-0.1,1.3,0c0.5,0.1,1,0.2,1.4,0.4c0.4,0.2,0.8,0.4,1.2,0.7c0.4,0.2,0.7,0.5,1,1
				c-0.3-0.4-0.6-0.7-1-1c-0.4-0.3-0.8-0.5-1.2-0.7C387.6-374.2,386.7-374.3,385.8-374.2L385.8-374.2z M387.2-376.2
				c0.8-0.2,1.7-0.1,2.7,0c0.4,0.1,0.8,0.3,1.2,0.6c0.3,0.3,0.6,0.7,0.8,1c-0.3-0.3-0.6-0.7-1-0.9c-0.4-0.3-0.8-0.5-1.2-0.6
				c-0.4-0.1-0.7-0.2-1.2-0.2C388.1-376.2,387.7-376.3,387.2-376.2L387.2-376.2z M388.8-378.2c0.5-0.2,0.8-0.2,1.3-0.2
				c0.4,0.1,0.9,0.1,1.2,0.2c0.4,0.2,0.8,0.4,1.2,0.6c0.3,0.2,0.5,0.5,0.8,0.9c-0.3-0.3-0.6-0.7-1-0.9c-0.4-0.2-0.8-0.4-1.1-0.5
				c-0.4-0.1-0.9-0.1-1.2-0.2C389.7-378.3,389.2-378.3,388.8-378.2L388.8-378.2z M390.6-380.4c0.4,0,0.8-0.1,1.3,0
				c0.4,0,0.7,0,1.1,0.2c0.8,0.3,1.3,0.8,1.8,1.5c-0.3-0.3-0.6-0.7-0.8-0.9c-0.7-0.5-1.4-0.8-2.2-0.8
				C391.3-380.5,391-380.4,390.6-380.4L390.6-380.4z"/>
		</g>
	</g>
	<g>
		<path class="st3" d="M513.3,223.8c8.7-2.9,22.5-18.7,23.5-21.5C518,207.4,509.4,219.5,513.3,223.8L513.3,223.8z M688.8,229.5
			c-2-8.4-16-22.9-18.8-24C673.4,223.8,684.3,233,688.8,229.5z"/>
		<path class="st4" d="M513.3,223.8c-4-4.3,4.6-16.5,23.2-21.4C523.4,212.5,513.5,221.9,513.3,223.8L513.3,223.8z M688.8,229.5
			c-4.5,3.5-15.3-5.7-18.7-23.8C678.8,219,686.8,229.3,688.8,229.5z"/>
	</g>
	<g>
		
			<radialGradient id="SVGID_1_" cx="1066.3859" cy="1287.0009" r="19.9005" gradientTransform="matrix(0.4445 0 0 0.4445 85.3294 -266.0175)" gradientUnits="userSpaceOnUse">
			<stop  offset="0.216" style="stop-color:#F9F0AA"/>
			<stop  offset="1" style="stop-color:#B07E09"/>
		</radialGradient>
		<path class="st17" d="M565,317.9c0,0-7.5,0.8-9.5-9.4c-2.2-11,6.4-12.2,6.4-12.2s9.7-1,15.9-1.1l2.6,21.7L565,317.9L565,317.9z"/>
		
			<radialGradient id="SVGID_2_" cx="1077.5973" cy="1299.7992" r="13.1326" gradientTransform="matrix(0.4445 0 0 0.4445 85.3294 -266.0175)" gradientUnits="userSpaceOnUse">
			<stop  offset="0.216" style="stop-color:#F9F0AA"/>
			<stop  offset="1" style="stop-color:#B07E09"/>
		</radialGradient>
		<path class="st18" d="M566,314.6c0,0-4.8,1-5.8-6.7c-0.7-5.4,2.6-6.1,2.6-6.1l11.1,1.9v9.9L566,314.6L566,314.6z"/>
		
			<radialGradient id="SVGID_3_" cx="1084.5084" cy="1288.0138" r="11.7713" gradientTransform="matrix(0.4445 0 0 0.4445 85.3294 -266.0175)" gradientUnits="userSpaceOnUse">
			<stop  offset="0.216" style="stop-color:#F9F0AA"/>
			<stop  offset="1" style="stop-color:#B07E09"/>
		</radialGradient>
		<path class="st19" d="M562.9,301.7c0,0,7.1-0.5,10.8-1l1.6,6.9l-8.5,0.5C566.7,308.1,566.1,302,562.9,301.7L562.9,301.7z"/>
		
			<radialGradient id="SVGID_4_" cx="1096.0991" cy="1283.7186" r="20.8874" gradientTransform="matrix(0.4445 0 0 0.4445 85.3294 -266.0175)" gradientUnits="userSpaceOnUse">
			<stop  offset="0.216" style="stop-color:#F9F0AA"/>
			<stop  offset="1" style="stop-color:#B07E09"/>
		</radialGradient>
		<path class="st20" d="M561.4,296.5c0,0,9.1-2.3,10.2,7.8c0.2,2.6-1.1,8.7-5.7,10.2l16.7-1.8l-1.6-18.1l-5.7,0.5
			C575.6,295.2,563.6,295.6,561.4,296.5L561.4,296.5z"/>
		<path class="st21" d="M565,317.9c0,0,62.5-4.2,68.8-4c18.9-10.4-0.1-51.3-16-74c1.8-5.2-36-16.7-53-15.6c-2.2,0.1-4.2,0.2-6.3,0.5
			c-9.3,1-9.4,12.9-5.5,20.3c3.6,7.2,36.5,66.3,13.4,72.6L565,317.9L565,317.9z"/>
		
			<linearGradient id="SVGID_5_" gradientUnits="userSpaceOnUse" x1="1138.0964" y1="1154.04" x2="1136.2321" y2="1121.2922" gradientTransform="matrix(0.4445 0 0 0.4445 85.3294 -266.0175)">
			<stop  offset="0.216" style="stop-color:#B07E09;stop-opacity:0"/>
			<stop  offset="1" style="stop-color:#B07E09"/>
		</linearGradient>
		<path class="st22" d="M632,263.9c-4.2-8.8-9.3-17.3-14.1-24.1c1.8-5.2-36-16.7-53-15.6c-2.2,0.1-4.2,0.2-6.3,0.5
			c-9.3,1-9.4,12.9-5.5,20.3c1.2,2.3,5.2,9.6,9.4,18.9"/>
		
			<linearGradient id="SVGID_6_" gradientUnits="userSpaceOnUse" x1="1162.9274" y1="1255.5645" x2="1165.7787" y2="1291.5848" gradientTransform="matrix(0.4445 0 0 0.4445 85.3294 -266.0175)">
			<stop  offset="0.216" style="stop-color:#B07E09;stop-opacity:0"/>
			<stop  offset="1" style="stop-color:#B07E09"/>
		</linearGradient>
		<path class="st23" d="M568.4,278c6.7,17.6,10.5,36.2-1.9,39.6l-1.4,0.2c0,0,62.5-4.2,68.8-4c10.2-5.7,9.4-20.2,3.9-36"/>
		
			<radialGradient id="SVGID_7_" cx="1062.4808" cy="1135.6021" r="15.6686" gradientTransform="matrix(0.4445 0 0 0.4445 85.3294 -266.0175)" gradientUnits="userSpaceOnUse">
			<stop  offset="0.216" style="stop-color:#F9F0AA"/>
			<stop  offset="1" style="stop-color:#B07E09"/>
		</radialGradient>
		<path class="st24" d="M559.3,228.1c-4.5,0-5.7,4.3-5.5,7c0.1,7.1,5.5,7.5,5.5,7.5l7.2-0.4l3.5-14.7L559.3,228.1L559.3,228.1z"/>
		
			<linearGradient id="SVGID_8_" gradientUnits="userSpaceOnUse" x1="1077.4476" y1="1127.8667" x2="1082.0514" y2="1117.098" gradientTransform="matrix(0.4445 0 0 0.4445 85.3294 -266.0175)">
			<stop  offset="0.216" style="stop-color:#F9F0AA"/>
			<stop  offset="1" style="stop-color:#B07E09"/>
		</linearGradient>
		<path class="st25" d="M559.3,228.1l10.6-0.6l1.1,11l-9.3,0.4C561.7,238.9,564.7,230.1,559.3,228.1L559.3,228.1z"/>
		
			<linearGradient id="SVGID_9_" gradientUnits="userSpaceOnUse" x1="1136.4313" y1="1094.6731" x2="1139.5787" y2="1134.6317" gradientTransform="matrix(0.4445 0 0 0.4445 85.3294 -266.0175)">
			<stop  offset="0.216" style="stop-color:#F9F0AA"/>
			<stop  offset="1" style="stop-color:#B07E09"/>
		</linearGradient>
		<path class="st26" d="M617.9,239.9c8.1-1.3,7.9-12.2,2.4-16.5c-18.7-0.7-43.2-0.1-60.9,1.2c2-0.1,7.6,0.5,8.3,7.8
			c0.2,3.5-1.4,6.6-3.7,8.4s-4.7,1.8-4.7,1.8c0.2,0.1,2.6,0,4.3-0.1c0.8,0,3-0.4,3.7-0.4C592.6,238.8,617.8,239.9,617.9,239.9
			L617.9,239.9L617.9,239.9L617.9,239.9z"/>
		<path class="st27" d="M572.6,256.8c-0.1-0.4-0.4-1-0.8-1c-0.4,0-0.7-0.1-0.7-0.5c0.2-0.1,0.6,0,1-0.1c0.7,0,1.3-0.1,2-0.1
			c0.4,0.1,0.4,0.6-0.1,0.6c-0.5,0.1-0.2,0.7-0.1,1c0.5,1.2,1.1,2.5,1.6,3.7c0.1,0.4,0.5,0.7,0.8,0.7c0.5,0,1,0,1.3-0.1
			c0.4-0.2,0.2-0.7,0.2-1.1c-0.1-0.5,0.6-0.4,0.6,0c0.1,0.5,0.4,1.1,0.5,1.6c0,0.2-0.4,0.1-0.5,0.2c-1.2,0.1-2.4,0.1-3.6,0.2
			c-0.4,0-1,0.4-1.2-0.1c-0.1-0.5,0.6-0.2,0.7-0.6c0-0.4-0.2-0.7-0.4-1.1C573.5,259.1,573.1,257.9,572.6,256.8L572.6,256.8z
			 M578.4,256.5c-0.1-0.4-0.4-0.8-0.8-1c-0.2,0-0.8,0-0.7-0.5c0.2-0.2,0.6-0.1,0.8-0.1c0.7,0,1.4-0.1,2.2-0.1c0.4,0,0.5,0.6,0,0.5
			c-0.5,0-0.5,0.5-0.2,0.7c0.6,1.3,1.2,2.8,1.7,4.1c0.1,0.2,0.2,0.6,0.6,0.7c0.4,0,0.7,0,0.8,0.4c0,0.4-0.5,0.1-0.7,0.2
			c-0.6,0-1.2,0-1.9,0.1c-0.2,0.1-0.6,0-0.7-0.4c0.1-0.4,0.7-0.1,0.7-0.5c0-0.4-0.2-0.7-0.4-1.1L578.4,256.5L578.4,256.5z
			 M583.8,257.3c0.1,0.2,0.5,0.1,0.7,0.1c0.4,0,0.6-0.2,0.6-0.6c0-0.6-0.4-1.1-0.7-1.4c-0.4-0.2-1-0.2-1.4-0.2
			c0,0.2,0.1,0.4,0.1,0.6L583.8,257.3L583.8,257.3z M584.5,259.2c0.2,0.5,0.4,0.8,0.7,1.2c0.2,0.2,0.7,0.1,1,0.1
			c0.4,0,0.6-0.4,0.5-0.7c-0.1-0.7-0.7-1.6-1.4-1.7c-0.4-0.1-0.7-0.1-1.1,0c0,0.1,0.1,0.4,0.1,0.5L584.5,259.2L584.5,259.2z
			 M582.1,256.3c-0.2-0.5-0.4-1-0.8-1.1c-0.2-0.1-0.7,0-0.8-0.4c0.1-0.4,0.7-0.1,1-0.2c1.1,0,2-0.4,3.1,0c0.8,0.2,1.7,1,1.8,1.9
			c0,0.5-0.4,0.8-0.7,1c0-0.1,0.5,0.1,0.6,0.1c0.7,0.2,1.3,0.7,1.7,1.3c0.2,0.5,0.5,1.1,0,1.6c-0.5,0.5-1.1,0.5-1.7,0.5
			c-1,0-1.8,0-2.6,0.2c-0.4,0-0.6-0.6-0.1-0.6c0.5,0,0.5-0.5,0.2-0.8L582.1,256.3L582.1,256.3z M591,254.1c0.4-0.1,0.5,0.4,0.6,0.6
			c0.1,0.4,0.4,0.6,0.4,1c-0.4,0.4-0.6-0.1-0.7-0.5c-0.1-0.2-0.5-0.6-0.8-0.6c-0.5,0-1,0-1.4,0.1c-0.1,0.2,0.1,0.5,0.1,0.7
			c0.2,0.5,0.5,1.1,0.7,1.6c0.4,0,0.7,0,1-0.2c0.1-0.2-0.4-0.8,0.2-0.7c0.4,0.2,0.4,0.7,0.5,1.1c0.1,0.5,0.5,0.8,0.6,1.3
			c-0.4,0.4-0.6-0.1-0.7-0.5c-0.2-0.4-0.7-0.4-1.2-0.4c-0.2,0-0.1,0.2,0,0.4c0.2,0.6,0.5,1.2,0.8,1.8c0.2,0.4,0.8,0.4,1.2,0.4
			s0.8,0,1.1-0.4c0.2-0.4-0.4-1,0.1-1c0.4,0,0.4,0.5,0.5,0.7c0.1,0.4,0.2,0.6,0.4,1c0,0.2-0.4,0.1-0.5,0.2c-1.2,0.1-2.4,0.1-3.7,0.2
			c-0.4,0-1,0.2-1.1-0.2c0-0.4,0.7-0.1,0.7-0.6c-0.1-0.4-0.4-0.8-0.5-1.2c-0.5-1.1-0.8-2.2-1.3-3.2c-0.1-0.4-0.5-0.7-0.8-0.7
			c-0.2,0-0.7-0.1-0.6-0.5c0.4-0.1,0.8,0,1.3-0.1L591,254.1L591,254.1z M593.8,255.6c-0.2-0.4-0.4-1-0.8-1.1c-0.4-0.1-0.8,0-0.8-0.5
			c0.2-0.2,0.8,0,1.2-0.1c1,0,1.9-0.2,2.9,0s1.8,1.2,1.9,2.2c0,0.5-0.4,1-0.8,1.1c-0.4,0,0.2,0.1,0.4,0.2c0.7,0.4,1.3,1.1,1.7,1.8
			c0.1,0.2,0.6,0.8,0.7,0.2c0-0.6,0.7-0.1,0.6,0.4c0,0.5-0.5,0.7-0.8,0.7c-0.6,0-1.1-0.2-1.3-0.7c-0.5-0.7-0.8-1.4-1.6-2
			c-0.2-0.2-0.7-0.4-1-0.2c-0.1,0.1,0.1,0.4,0.1,0.5c0.2,0.5,0.4,1,0.6,1.4c0.2,0.4,0.7,0.5,1.1,0.5c0.5,0.1,0.4,0.7-0.1,0.5
			c-0.7,0-1.4,0-2.2,0.1c-0.4,0.1-1.1,0-0.8-0.5c0.4,0,0.8-0.2,0.6-0.6c-0.4-1.1-0.8-2-1.2-3.1L593.8,255.6L593.8,255.6z
			 M595.5,256.7c0.1,0.4,0.7,0.1,1.1,0.1c0.5-0.1,0.5-0.6,0.2-1c-0.2-0.6-0.5-1.2-1.1-1.4c-0.4,0-1-0.2-1.1,0.2
			c0.2,0.6,0.5,1.3,0.7,1.9L595.5,256.7L595.5,256.7z M604.2,258.8c0.1,0.4,0.2,0.7,0.6,0.8c0.4,0.1,0.8,0,0.8,0.4
			c0,0.4-0.5,0.1-0.7,0.1c-0.6,0-1.3,0-1.9,0.1c-0.2,0.1-0.6,0-0.6-0.4c0.1-0.2,0.7,0,0.7-0.5c-0.1-0.5-0.4-1-0.5-1.3
			c-0.5-1.2-1-2.3-1.3-3.5c-0.1-0.4-0.5-0.4-0.8-0.4c-0.4,0-0.8,0.1-0.8,0.5c-0.1,0.2,0.2,0.7,0,0.8c-0.4,0.1-0.5-0.4-0.5-0.6
			c-0.1-0.4-0.4-0.7-0.5-1.1c0-0.2,0.4-0.2,0.6-0.2c1.7-0.1,3.4-0.1,4.9-0.2c0.4,0,0.6,0.2,0.6,0.6c0.1,0.4,0.4,0.8,0.5,1.2
			c-0.1,0.4-0.6,0-0.7-0.2c-0.2-0.4-0.6-0.8-1.1-0.8c-0.4,0-0.7-0.1-1,0.1c0,0.2,0.1,0.6,0.2,0.8L604.2,258.8L604.2,258.8z
			 M608.7,257.7c-0.2,0-0.1,0.2-0.1,0.5c0,0.4,0,0.7,0,1c0.1,0.4,0.6,0.2,1,0.4c0.2,0.1,0.2,0.6-0.1,0.5c-0.5,0-1.1-0.1-1.6,0
			c-0.4,0.1-0.8-0.1-0.6-0.5c0.2,0,0.5-0.1,0.6-0.4c0.1-0.5,0-1,0-1.6v-4.5c0.1-0.4,0.6,0,0.7,0.2c1.4,1.8,2.9,3.6,4.3,5.4
			c0.2,0.2,0.6,0.5,1,0.5s0.5,0.6,0,0.5c-0.6,0-1.2-0.1-1.8,0c-0.2,0-0.6,0.1-0.8,0c-0.2-0.2-0.1-0.5,0.2-0.5c0.5-0.1,0-0.6-0.1-0.8
			c-0.2-0.4-0.5-0.6-0.7-1c-0.2-0.1-0.5,0-0.7,0C609.6,257.7,609.1,257.7,608.7,257.7L608.7,257.7z M610.1,257.1
			c0.2,0-0.1-0.2-0.1-0.2c-0.5-0.7-1-1.3-1.6-2c0.1,0,0,0.2,0,0.4c0,0.7,0,1.3,0,2C609.1,257.1,609.6,257.1,610.1,257.1L610.1,257.1
			z M613.8,254.9c-0.1-0.5-0.4-1.1-1-1.2c-0.2,0-0.8-0.2-0.6-0.5c0.6,0,1.3,0,2,0c0.8-0.1,1.7,0,2.5,0.2c1.8,0.6,3.2,2.2,3.5,4
			c0.1,0.7-0.1,1.6-0.7,1.9c-0.8,0.6-1.9,0.5-3,0.4c-0.6,0-1.1,0-1.7,0.1c-0.4,0-0.4-0.6,0-0.6c0.5,0,0.5-0.5,0.2-0.8L613.8,254.9
			L613.8,254.9z M616.2,257.9c0.1,0.4,0.2,1,0.7,1.2c0.4,0.1,0.8,0.1,1.2,0.1c0.5-0.1,0.8-0.6,0.8-1.1c0-1-0.4-1.8-0.7-2.5
			c-0.5-0.8-1.3-1.4-2.2-1.7c-0.4-0.1-0.8-0.1-1.2,0c-0.1,0.1,0.1,0.4,0.1,0.5L616.2,257.9L616.2,257.9z M590.8,272.8
			c0.1,0.5,0.5,0.7,1,0.7c0.4,0,0.8,0,0.8,0.5c-0.1,0.2-0.6,0.1-1,0.1c-0.6,0-1.2,0-1.8,0.1c-0.4,0-0.7,0.1-1,0
			c-0.2-0.1-0.2-0.6,0.1-0.5c0.2-0.1,0.7-0.1,0.7-0.6c0-0.4-0.2-0.6-0.4-1c-0.5-1.1-1-2.2-1.4-3.4c-0.1-0.4-0.5-0.4-0.8-0.4
			c-0.2,0-0.7,0.1-0.8-0.2c0-0.4,0.6-0.2,0.8-0.5c0.4-0.1,0.7-0.4,1.1-0.5c0.2,0,0.4,0.1,0.5,0.4
			C589.3,269.5,590.1,271.1,590.8,272.8L590.8,272.8z M591.6,267.4c0.8,0,1.7,0.1,2.4,0c0.4,0,0.1-0.6,0.5-0.6
			c0.5,0,0.4,0.6,0.4,0.8c0,0.4-0.2,0.6-0.5,0.7h-0.1c-0.6,0-1.3,0-1.9,0c0.1,0.5,0.4,1,0.5,1.4c0-0.1,0.6-0.2,0.7-0.2
			c1.3,0,2.6,0.7,3.1,1.8c0.2,0.6,0.4,1.3,0,1.8c-0.5,0.6-1.2,0.6-1.9,0.7c-0.6,0-1.3-0.1-1.7-0.6c-0.2-0.2-0.1-0.8,0.2-0.7
			c0.4,0,0.8,0.4,0.7,0.7c0.2,0.2,0.6,0.1,1,0.1c0.4,0,0.7-0.2,0.7-0.7c0-0.6-0.2-1.2-0.6-1.7c-0.4-0.5-1-0.8-1.6-0.8
			c-0.4,0-0.6,0.1-1,0.1c-0.4,0-0.4-0.5-0.5-0.7c-0.2-0.7-0.6-1.4-0.7-2.2C591.4,267.4,591.5,267.4,591.6,267.4L591.6,267.4z
			 M599.9,268.6c-0.2-0.5-0.5-1.1-1-1.2c-0.2,0.1-0.8-0.2-0.6-0.5c0.7,0,1.3,0,2-0.1c0.8-0.1,1.7-0.1,2.5,0.2
			c1.8,0.6,3.2,2.2,3.5,4.1c0.1,0.7-0.1,1.4-0.7,1.9c-0.8,0.6-1.9,0.5-2.9,0.5c-0.6,0-1.1,0.1-1.6,0.1c-0.4,0-0.5-0.6,0-0.6
			c0.5,0,0.4-0.5,0.2-0.8C600.9,271,600.4,269.8,599.9,268.6L599.9,268.6z M602.3,271.6c0.2,0.4,0.4,1,0.7,1.2
			c0.4,0.1,0.8,0.1,1.2,0.1c0.5-0.1,0.8-0.6,0.8-1.1c0-1-0.4-1.8-0.8-2.5c-0.5-0.8-1.3-1.4-2.3-1.6c-0.4,0-0.8-0.1-1.2,0
			c-0.1,0.1,0.1,0.4,0.1,0.5L602.3,271.6L602.3,271.6z M610.1,266.5c0.4-0.1,0.5,0.4,0.5,0.6c0.1,0.4,0.2,0.6,0.4,1
			c-0.2,0.4-0.6-0.1-0.7-0.4c-0.1-0.2-0.5-0.6-0.8-0.6c-0.5,0-1,0-1.4,0c-0.2,0.1,0,0.5,0.1,0.7c0.2,0.6,0.4,1.1,0.6,1.7
			c0.4,0,0.7,0,1-0.2c0.2-0.2-0.4-0.8,0.2-0.8c0.4,0.1,0.4,0.7,0.5,1c0.1,0.5,0.5,0.8,0.6,1.3c-0.2,0.4-0.6-0.1-0.7-0.4
			c-0.1-0.4-0.6-0.5-1-0.5c-0.2,0-0.5,0-0.2,0.2c0.2,0.6,0.5,1.3,0.8,1.8c0.2,0.4,0.8,0.4,1.2,0.4s0.8,0,1.1-0.4
			c0.2-0.2-0.2-0.8,0.1-1c0.4-0.1,0.5,0.4,0.6,0.6c0.1,0.4,0.2,0.7,0.4,1.1c0,0.2-0.4,0.1-0.5,0.2c-1.2,0-2.5,0.1-3.7,0.1
			c-0.4,0-0.8,0.2-1.1-0.1c-0.2-0.5,0.6-0.2,0.6-0.6c0-0.4-0.2-0.7-0.4-1.1c-0.5-1.2-1-2.3-1.3-3.5c-0.1-0.4-0.5-0.8-0.8-0.8
			c-0.2,0-0.7-0.1-0.6-0.5c0.5-0.1,0.8,0,1.3,0L610.1,266.5L610.1,266.5z M577.2,283.7c0.2,0.6,0.8,0.8,1.3,1c1,0.4,1.9,0.6,2.6,1.4
			c0.4,0.5,0.6,1.1,0.6,1.6c0,0.6-0.6,1.1-1.1,1.2c-0.7,0.2-1.4,0.1-2-0.1c-0.4-0.1-0.2,0.6-0.6,0.4c-0.2-0.2-0.2-0.7-0.4-1
			c-0.1-0.4-0.2-0.8-0.5-1.2c0-0.4,0.6-0.2,0.6,0.1c0.4,0.7,1.1,1.3,1.9,1.3c0.5,0,1-0.2,1-0.7c0-0.6-0.5-1.2-1.1-1.4
			c-0.7-0.4-1.7-0.5-2.4-1c-0.7-0.4-1.1-1.2-1.1-1.9c0-0.5,0.5-1,1-1.1c0.6-0.2,1.3-0.2,1.9-0.1c0.2,0.1,0.4-0.4,0.7-0.1
			c0.1,0.2,0.1,0.6,0.2,0.8c0.1,0.4,0.4,0.6,0.4,1c-0.2,0.2-0.6,0-0.6-0.2c-0.2-0.5-0.6-1-1.2-1c-0.4,0-1,0-1.2,0.4
			C577.2,283.2,577.2,283.4,577.2,283.7L577.2,283.7z M585.3,281.6c0.4-0.1,0.4,0.4,0.5,0.6c0.1,0.4,0.2,0.6,0.4,1
			c-0.1,0.4-0.6,0-0.6-0.2c-0.1-0.4-0.4-0.7-0.8-0.7c-0.5,0-1,0-1.4,0.1c-0.2,0.1,0,0.5,0,0.7c0.2,0.6,0.4,1.1,0.6,1.7
			c0.4,0,0.7,0,1-0.2c0.2-0.2-0.2-0.7,0.1-0.8c0.5,0,0.4,0.5,0.5,0.8c0.1,0.6,0.4,1.1,0.6,1.6c-0.1,0.4-0.6,0-0.6-0.2
			c-0.1-0.4-0.6-0.5-1-0.5c-0.2,0-0.5,0-0.4,0.2c0.2,0.6,0.4,1.2,0.6,1.8c0.1,0.4,0.6,0.4,0.8,0.4c0.5,0,1,0,1.4-0.4
			c0.2-0.2,0-0.7,0.1-1.1c0.4-0.2,0.6,0.1,0.6,0.4c0.1,0.4,0.2,0.8,0.4,1.2c0,0.2-0.4,0.1-0.5,0.2c-1.2,0.1-2.4,0.1-3.7,0.2
			c-0.4,0-0.8,0.2-1.1-0.1c-0.2-0.5,0.6-0.2,0.6-0.6c0.1-0.4-0.1-0.7-0.2-1.1c-0.4-1.2-0.8-2.4-1.2-3.5c-0.1-0.4-0.4-0.8-0.8-0.8
			c-0.2,0.1-0.7-0.1-0.5-0.5c0.4-0.1,0.8,0,1.3-0.1L585.3,281.6L585.3,281.6z M590.3,286.7c0.1,0.4,0.4,0.7,0.7,0.8s0.8-0.1,0.8,0.4
			c0,0.4-0.6,0.1-0.8,0.2c-0.6,0-1.2,0-1.8,0.1c-0.2,0-0.6,0.1-0.7-0.2c-0.1-0.4,0.6-0.1,0.7-0.5c0.1-0.4-0.1-0.6-0.1-1
			c-0.4-1.2-0.8-2.4-1.2-3.6c-0.1-0.4-0.4-0.8-0.7-0.8c-0.2,0-0.7,0-0.7-0.5c0.2-0.2,0.6-0.1,0.8-0.1c0.8,0,1.8-0.2,2.6-0.1
			c1,0,1.8,0.6,2,1.4c0.2,0.5,0.2,1.1-0.1,1.6c-0.5,0.6-1.2,0.6-1.9,0.7c-0.2,0,0,0.2,0,0.4C590.1,285.8,590.2,286.2,590.3,286.7
			L590.3,286.7z M589.6,284.5c0.2,0,0.6,0,0.8-0.1c0.4-0.1,0.6-0.5,0.5-0.8c-0.1-0.5-0.2-1.1-0.6-1.4c-0.4-0.4-0.8-0.4-1.3-0.2
			c-0.1,0.1,0,0.4,0,0.6C589.2,283.2,589.5,283.9,589.6,284.5L589.6,284.5z M597.1,286.3c0.1,0.4,0.2,0.7,0.6,0.8
			c0.2,0.1,0.8,0,0.8,0.4c-0.1,0.4-0.5,0.1-0.7,0.2c-0.6,0-1.3,0-1.9,0.1c-0.2,0.1-0.6,0-0.6-0.4c0.1-0.2,0.7,0,0.7-0.5
			c-0.1-0.5-0.2-1-0.4-1.3c-0.4-1.2-0.7-2.3-1.2-3.5c-0.1-0.4-0.5-0.4-0.8-0.4c-0.4,0-0.7,0-0.8,0.5c-0.1,0.4,0,0.6,0,1
			c-0.2,0.2-0.6-0.1-0.6-0.4c-0.1-0.4-0.2-0.8-0.4-1.2c0-0.2,0.4-0.2,0.6-0.2c1.7-0.1,3.4-0.2,4.9-0.2c0.4-0.1,0.6,0.2,0.6,0.6
			c0.1,0.4,0.2,0.8,0.4,1.2c-0.1,0.4-0.6,0.1-0.6-0.1c-0.2-0.5-0.5-0.8-1.1-1c-0.4,0-0.7-0.1-1.1,0.1c-0.1,0.2,0.1,0.5,0.1,0.7
			C596.2,283.7,596.6,285,597.1,286.3L597.1,286.3z M599.6,282.3c-0.1-0.4-0.2-0.8-0.7-1c-0.2-0.1-0.7,0-0.7-0.5
			c0.1-0.2,0.5-0.1,0.7-0.1c0.7,0,1.4-0.1,2.2-0.1c0.4-0.1,0.6,0.5,0.2,0.5c-0.4,0-0.6,0.2-0.5,0.6c0.1,0.6,0.4,1.2,0.6,1.9
			c0.2,0.8,0.6,1.8,0.8,2.6c0.1,0.2,0.4,0.5,0.6,0.5c0.2,0,0.8,0,0.7,0.5c-0.2,0.2-0.6,0.1-0.8,0.1c-0.6,0-1.3,0-1.9,0.1
			c-0.2,0.1-0.6-0.1-0.5-0.5c0.2-0.1,0.7,0,0.7-0.5c-0.1-0.5-0.2-1-0.5-1.4L599.6,282.3L599.6,282.3z M606.6,280.4
			c0.4-0.1,0.4,0.4,0.5,0.6c0.1,0.4,0.2,0.6,0.4,1c-0.1,0.4-0.6,0-0.6-0.2c-0.1-0.4-0.4-0.7-0.8-0.7c-0.5,0-1,0-1.4,0.1
			c-0.2,0.1,0,0.5,0,0.7c0.2,0.6,0.4,1.1,0.5,1.7c0.4,0,0.7,0,1-0.2c0.2-0.2-0.2-0.7,0.2-0.8c0.5,0,0.4,0.5,0.5,0.8
			c0.1,0.6,0.4,1.1,0.5,1.6c-0.1,0.4-0.6,0-0.6-0.2c-0.1-0.4-0.5-0.6-0.8-0.5c-0.1,0-0.6-0.1-0.5,0.2c0.2,0.6,0.4,1.2,0.6,1.8
			c0.1,0.4,0.5,0.5,0.8,0.4c0.5,0,1,0,1.4-0.4c0.4-0.2,0.1-0.7,0.1-1c0.4-0.2,0.6,0.1,0.6,0.5c0.1,0.4,0.1,0.8,0.2,1.2
			c0,0.2-0.4,0.1-0.5,0.2c-1.2,0.1-2.5,0.1-3.7,0.2c-0.4,0-0.7,0.2-1-0.1c-0.2-0.5,0.5-0.4,0.6-0.6c0.1-0.4,0-0.6-0.1-1
			c-0.4-1.2-0.7-2.4-1.2-3.6c-0.1-0.4-0.4-0.8-0.8-0.8c-0.2,0.1-0.7-0.1-0.5-0.5c0.4-0.1,0.8,0,1.3,0
			C604.3,280.5,605.4,280.4,606.6,280.4L606.6,280.4z M609,281.5c-0.1-0.5-0.4-0.8-0.8-0.7c-0.5,0.1-0.6-0.7,0-0.5
			c0.6,0,1.2-0.1,1.8,0c0.2,0.4,0.5,0.7,0.8,1.1l2.6,3.5c-0.2,0,0-0.2-0.1-0.4l0.5-4.2c0.4-0.2,0.8-0.1,1.3-0.2
			c0.4,0,1.1-0.1,0.8,0.5c-0.4,0.1-1,0.2-0.6,0.7c0.5,1.4,0.8,2.9,1.3,4.3c0.1,0.5,0.6,0.6,1.1,0.6c0.4,0,0.4,0.7,0,0.5
			c-0.7,0-1.4,0-2.2,0.1c-0.4,0.1-1,0.1-0.7-0.5c0.4-0.1,1-0.1,0.7-0.7c-0.4-1.3-0.8-2.5-1.2-3.9c0.1,0.1,0,0.4,0,0.5
			c-0.1,1.2-0.2,2.4-0.4,3.6c0,0.4,0,0.7-0.1,1c-0.2,0.1-0.5-0.1-0.6-0.4l-3.5-4.5c0.1,0,0.1,0.2,0.1,0.4c0.4,1.2,0.7,2.3,1.1,3.5
			c0.1,0.5,0.6,0.6,1,0.6c0.5,0.2,0.1,0.6-0.2,0.5c-0.6-0.1-1.2,0-1.8,0.1c-0.4,0-0.4-0.6,0-0.5c0.6,0,0.4-0.6,0.2-1
			C609.7,284.1,609.3,282.8,609,281.5C608.8,281.5,608.8,281.5,609,281.5L609,281.5z M619.4,282.6c0.1,0.2,0.5,0.1,0.6,0.1
			c0.4,0,0.7-0.2,0.7-0.6c0-0.5-0.2-1.1-0.6-1.4c-0.4-0.4-1-0.2-1.4-0.2c0,0.1,0.1,0.4,0.1,0.6L619.4,282.6L619.4,282.6z M620,284.5
			c0.1,0.4,0.2,0.8,0.6,1.2c0.2,0.2,0.7,0.1,1,0.1c0.4,0,0.6-0.2,0.6-0.6c0-0.7-0.4-1.6-1.1-1.8c-0.4-0.1-0.8-0.1-1.3-0.1
			c-0.1,0.1,0,0.4,0.1,0.5C619.9,284,619.9,284.3,620,284.5L620,284.5z M617.9,281.6c-0.1-0.4-0.2-1-0.7-1.1c-0.2-0.1-0.7,0-0.8-0.4
			c0.1-0.4,0.6-0.1,1-0.1c1.1,0,2.2-0.2,3.2,0.1c0.8,0.2,1.6,1,1.6,1.9c0,0.5-0.4,0.8-0.8,1.1c0-0.1,0.5,0.1,0.6,0.1
			c0.6,0.2,1.2,0.7,1.4,1.3c0.2,0.5,0.4,1.2,0,1.6c-0.5,0.5-1.2,0.5-1.8,0.5c-1,0-1.9,0-2.9,0.1c-0.4,0-0.5-0.6,0-0.5
			c0.5,0,0.6-0.5,0.4-0.8L617.9,281.6L617.9,281.6z M623.9,281.4c-0.1-0.4-0.2-1-0.7-1.1c-0.2-0.1-0.8,0-0.8-0.5
			c0.2-0.4,0.8,0,1.2-0.1c0.8,0,1.7-0.1,2.4,0c1,0.1,1.8,0.7,2,1.7c0.1,0.5,0,1.2-0.5,1.4c-0.1,0.1-0.6,0.2-0.5,0.2
			c0.7,0.2,1.3,0.8,1.7,1.6c0.2,0.4,0.2,0.7,0.6,1c0.4,0.2,0.4-0.2,0.4-0.4c0.4-0.2,0.6,0.4,0.5,0.7c-0.1,0.5-0.8,0.6-1.3,0.5
			c-0.4-0.1-0.7-0.4-1-0.7c-0.4-0.6-0.7-1.4-1.2-1.9c-0.2-0.2-0.7-0.4-1-0.2c-0.1,0.1,0,0.4,0.1,0.5c0.1,0.5,0.2,1,0.5,1.4
			c0.2,0.4,0.6,0.5,1.1,0.5c0.4,0,0.4,0.7,0,0.5c-0.7,0-1.4-0.1-2.2,0c-0.2,0-0.6,0.1-0.8-0.1c-0.2-0.5,0.5-0.2,0.7-0.6
			c0.1-0.4-0.1-0.7-0.1-1C624.6,283.5,624.3,282.5,623.9,281.4L623.9,281.4z M625.5,282.5c0.1,0.4,0.7,0.1,1,0.1
			c0.4,0,0.6-0.4,0.5-0.7c-0.1-0.5-0.2-1.1-0.6-1.6c-0.4-0.2-0.8-0.2-1.3-0.2c-0.2,0.1,0,0.4,0,0.6L625.5,282.5L625.5,282.5z
			 M633.8,279.5c0.4,0,0.4,0.4,0.5,0.6c0.1,0.4,0.2,0.6,0.4,1c-0.1,0.4-0.6,0-0.6-0.2c-0.1-0.4-0.4-0.7-0.7-0.7c-0.5,0-1.1,0-1.6,0
			c-0.2,0.1,0,0.5,0,0.7c0.1,0.6,0.4,1.1,0.5,1.7c0.4,0,0.6,0,1-0.1c0.4-0.2-0.1-0.7,0.2-0.8c0.5-0.1,0.5,0.5,0.5,0.7
			c0.1,0.6,0.4,1.1,0.5,1.6c-0.1,0.4-0.6,0-0.6-0.2c-0.1-0.4-0.5-0.6-0.8-0.5c-0.1,0-0.7-0.1-0.5,0.1c0.2,0.6,0.4,1.3,0.6,1.9
			c0.1,0.4,0.5,0.5,0.8,0.5c0.5,0,1.1,0.1,1.4-0.2c0.4-0.2,0.1-0.7,0.1-1c0.4-0.2,0.6,0.1,0.6,0.5c0,0.4,0.1,0.8,0.2,1.2
			c-0.1,0.2-0.4,0.1-0.6,0.1c-1.2,0-2.5,0-3.7,0.1c-0.4,0-0.7,0.2-1-0.1c-0.4-0.5,0.4-0.4,0.6-0.6c0.2-0.2,0-0.6,0-1
			c-0.4-1.2-0.7-2.4-1.1-3.7c-0.1-0.4-0.4-0.8-0.7-0.8c-0.2,0-0.7-0.1-0.6-0.5c0.4-0.1,0.8,0,1.2,0
			C631.4,279.5,632.6,279.5,633.8,279.5L633.8,279.5z M594.3,295.2c-0.1-0.5-0.2-1.1-0.7-1.2c-0.2,0-0.7-0.1-0.6-0.5
			c0.4-0.1,0.8,0,1.2-0.1c1,0,2-0.2,3,0c1.4,0.4,2.6,1.4,3.1,2.9c0.2,0.8,0.4,1.9-0.2,2.6c-0.6,0.8-1.7,1.1-2.6,1.1
			c-0.7,0-1.4,0-2.2,0.1c-0.2,0.1-0.7-0.1-0.5-0.5c0.4-0.1,0.8-0.1,0.7-0.6c-0.1-0.6-0.2-1.2-0.5-1.8
			C594.6,296.7,594.4,295.9,594.3,295.2L594.3,295.2z M596.2,298.2c0.1,0.4,0.1,0.8,0.5,1.1c0.4,0.2,0.7,0.1,1.1,0.1
			c0.6-0.1,1-0.6,1.1-1.1c0.1-1-0.1-1.8-0.5-2.6c-0.4-0.7-1-1.3-1.7-1.4c-0.5-0.1-1-0.1-1.4,0c-0.1,0.1,0,0.4,0,0.5L596.2,298.2
			L596.2,298.2z M604.8,292.8c0.4-0.1,0.4,0.4,0.5,0.6c0.1,0.4,0.2,0.6,0.2,1c-0.1,0.4-0.6,0.1-0.6-0.2c-0.1-0.4-0.4-0.7-0.7-0.7
			c-0.5,0-1.1,0-1.6,0.1c-0.2,0.1,0,0.5,0,0.7c0.1,0.6,0.2,1.1,0.4,1.7c0.4,0,0.7,0,1-0.2c0.2-0.2-0.1-0.7,0.2-0.8
			c0.5,0,0.4,0.5,0.5,0.8c0,0.5,0.4,1.1,0.4,1.6c-0.1,0.4-0.6,0.1-0.6-0.2c-0.1-0.4-0.5-0.6-0.8-0.5c-0.1,0-0.6-0.1-0.5,0.2
			c0.1,0.6,0.2,1.2,0.5,1.8c0.1,0.4,0.5,0.5,0.8,0.4c0.5,0,1.1,0,1.4-0.4c0.2-0.2,0-0.7,0.2-1c0.4-0.2,0.6,0.1,0.5,0.5
			c0,0.4,0.1,0.8,0.2,1.2c-0.1,0.2-0.4,0.1-0.6,0.2c-1.2,0.1-2.5,0.1-3.7,0.2c-0.4,0-0.6,0.2-1,0c-0.4-0.4,0.1-0.5,0.4-0.5
			c0.4-0.1,0.4-0.5,0.2-0.8c-0.4-1.3-0.6-2.6-1-3.9c-0.1-0.4-0.2-0.8-0.7-0.8c-0.2,0-0.7-0.1-0.6-0.5c0.4-0.1,0.8,0,1.2-0.1
			C602.3,292.9,603.6,292.9,604.8,292.8L604.8,292.8z M612.6,297.7c0,0.4,0.4,0.7,0.7,0.7c0.2,0.1,0.7,0,0.8,0.2
			c0.1,0.5-0.5,0.2-0.7,0.4c-0.7,0-1.3,0-2,0.1c-0.4,0-0.7,0.1-1.1,0.1c-0.4-0.1-0.1-0.6,0.1-0.5c0.4-0.1,0.7-0.1,0.8-0.5
			c0-0.4-0.1-0.6-0.1-1c-0.2-1.1-0.5-2.2-0.7-3.4c0-0.4-0.5-0.4-0.7-0.4c-0.2,0-0.7,0.2-0.8-0.2c0-0.4,0.6-0.4,0.8-0.5
			c0.5-0.1,0.8-0.4,1.3-0.5c0.2,0,0.4,0.1,0.4,0.4L612.6,297.7L612.6,297.7z M617,293.8c-0.1-0.5-0.4-1-0.8-1c-0.4-0.1-0.8,0-1,0.4
			c-0.1,0.5,0,1,0.5,1.2c0.4,0.2,0.7,0.4,1.1,0.6c0.1-0.1,0.2-0.5,0.2-0.7C617,294.1,617,293.9,617,293.8z M618,297.3
			c-0.1-0.6-0.7-1-1.2-1.1c-0.2,0-0.5-0.4-0.7-0.2c-0.4,0.4-0.6,0.8-0.4,1.3c0.1,0.6,0.6,1.2,1.2,1.2c0.4,0,1-0.1,1.1-0.6
			C618.1,297.6,618.1,297.5,618,297.3L618,297.3z M619.1,297c0.1,0.6-0.1,1.2-0.6,1.6c-0.7,0.5-1.7,0.5-2.4,0.2
			c-0.7-0.2-1.3-0.8-1.4-1.6c-0.1-0.6,0.1-1.2,0.6-1.6c0.1-0.1,0.6-0.1,0.2-0.2c-0.6-0.2-1.2-0.7-1.3-1.4c-0.1-0.6,0.1-1.2,0.7-1.6
			c1.1-0.6,2.5-0.2,3.1,0.8c0.2,0.5,0.4,1.1,0,1.4c-0.1,0.2-0.4,0.5-0.7,0.5c0.6,0.1,1.1,0.5,1.4,1C619,296.4,619,296.8,619.1,297
			L619.1,297z M623.1,297.7c0.2,0,0.6-0.1,0.6-0.5c0.1-0.2-0.1-0.7,0.4-0.7c0.4,0,0.4,0.5,0.4,0.7c0,0.5,0,1.1-0.4,1.3
			c-0.2,0.2-0.7,0.1-1,0.1c-0.7,0-1.3-0.1-2-0.1c-0.2,0-0.6,0.4-0.8,0.1c-0.2-0.2-0.1-0.6,0-1c0.2-0.7,0.7-1.3,1.3-1.8
			c0.4-0.4,0.8-0.8,1-1.3c0-0.5-0.1-1-0.4-1.4c-0.4-0.6-1.2-0.7-1.7-0.4c-0.2,0.1-0.5,0.6-0.2,0.8c0.2,0.2,0.7,0,0.8,0.5
			c0.1,0.2,0,0.7-0.4,0.7c-0.5,0.1-1-0.4-1.2-0.8c-0.2-0.6,0-1.3,0.6-1.7c0.6-0.4,1.3-0.4,2-0.2c0.7,0.1,1.2,0.7,1.4,1.3
			c0.2,0.5,0.2,1.1-0.1,1.6c-0.5,0.8-1.4,1.3-2,2c-0.1,0.2-0.2,0.5-0.2,0.7c0.1-0.2,0.5-0.1,0.7-0.2
			C622.2,297.6,622.6,297.7,623.1,297.7L623.1,297.7z M627.7,297.1c0,0.4,0.4,0.7,0.7,0.7c0.2,0.1,0.7,0,0.8,0.2
			c0.1,0.4-0.4,0.4-0.6,0.4c-0.7,0-1.4,0-2.2,0c-0.4,0-0.7,0.1-1.1,0c-0.4-0.1-0.1-0.6,0.2-0.5c0.4-0.1,0.7-0.1,0.8-0.5
			c0-0.4-0.1-0.6-0.1-1c-0.2-1.1-0.5-2.2-0.7-3.4c0-0.4-0.4-0.4-0.6-0.4c-0.2,0-0.7,0.2-0.8-0.1c-0.2-0.5,0.4-0.4,0.7-0.5
			c0.5-0.1,1-0.4,1.4-0.5c0.2,0,0.4,0.2,0.4,0.4C627,293.9,627.4,295.6,627.7,297.1L627.7,297.1z"/>
	</g>
	<g>
		
			<radialGradient id="SVGID_10_" cx="1148.8202" cy="1035.14" r="0.4152" gradientTransform="matrix(0.4445 0 0 0.4445 85.3294 -266.0175)" gradientUnits="userSpaceOnUse">
			<stop  offset="0.259" style="stop-color:#A50A0A"/>
			<stop  offset="1" style="stop-color:#4C0505"/>
		</radialGradient>
		<path class="st28" d="M593.4,199.1l-4.6,5.4c-1.4,6.3,2.2,11.1,9.1,15.2c5.8,3.5,16.2,4.5,19.6,1.6l-16.5-15.8L593.4,199.1
			L593.4,199.1z"/>
		<path class="st29" d="M626.9,361.4c-0.8-1-1.7-1.9-2.4-2.9c-10.4,13.6-23.1,25.8-39.2,34.4C603.3,387.8,615.2,374.5,626.9,361.4
			L626.9,361.4z M608.2,404.4c6.4-13,14.1-25.9,21.9-38.9c-0.8-1.1-1.7-2.2-2.5-3.1C618.7,376.9,608.4,394.4,608.2,404.4
			L608.2,404.4z M658.6,266.6c-1.2-5.1-2.8-10.6-5.2-15.8c-3.2-6.5-7.9-13-14.2-20.2c-11.3-12.3-22.6-24.1-38.4-32.9l0.1-0.1h0.1
			h0.2l-0.2-0.2h0.6l-0.4-0.4h0.5l-0.5-0.5h0.6l-0.4-0.4h0.6l-0.4-0.5h0.5l-0.5-0.5l0.6-0.1l-0.5-0.4l0.6-0.1l-0.5-0.4l0.7-0.2
			l-0.6-0.4l0.8-0.4l-0.7-0.6l0.8-0.2l-0.8-0.4l0.7-0.4l-0.8-0.1l0.6-0.7h-0.8l0.4-0.7l-0.8,0.1c0,0,0,0,0-0.1l0.5-0.5l-0.8,0.1
			l0.4-0.7l-0.7,0.4l0.2-0.8l-0.7,0.5l0.1-0.8l-0.7,0.6l0.1-0.8l-0.6,0.6v-0.8l-0.6,0.7v-0.8l-0.5,0.7l-0.2-0.8l-0.4,0.8l-0.2-0.8
			l-0.4,0.8l-0.7-0.6l-0.4,0.8l-0.2-0.8l-0.2,0.8l-0.2-0.7l-0.2,0.8l-0.2-0.8l-0.2,1l-0.4-0.8l-0.1,1l-0.5-0.8v1l-0.5-0.7v1
			l-0.5-0.7v0.8l-0.5-0.5l0.2,0.8l-0.6-0.4l0.2,0.7l-0.5-0.2l0.2,0.7l-0.5-0.1l0.2,0.6v0.1l-0.4-0.1l0.2,0.5
			c-0.5,1.2-0.5,2.8-0.4,4.2c0,0.2,0.7,0.6,0.8,0.7c0.4,0.5,0.2,0.8,0.2,0.8c-1.9,3.1-3.6,5.5-3.9,9c1.6-1.9,3.1-4.3,5.4-4.3
			c-1.1,1.8-1.7,7.5-0.4,8.3l1-1.7c0,1.3,0.2,2.2,0.5,2.8c0.4-0.7,0.7-1.6,1.2-2c0.1,1.8,0.4,3.2,0.8,4c0.5-0.8,1.2-1.4,1.9-1.9
			c-0.2,1.1-0.6,2-0.5,3.2c0.7-1.3,1.6-2.2,2.3-3c-0.5,1.9,0,3.4,0.5,5.4c0.5-2.5,0.7-2.8,1.8-3.9c0.1,2.3-0.4,4.3,0.1,5.7
			c1.1-2,1.8-1.7,2.4-3c-0.1,1.9-0.5,4,0,5.7c0.4-1.7,1.4-2.6,2.3-3.2c0.1,2.6,0.7,2.2-1,4.5c0.7,0.4,3-0.5,4.3-1
			c-0.6,1.4-0.5,2.5-1.1,3.5c1.3-0.6,2.4-1.7,3.5-2.8c-0.5,1.7-1.8,3.2-1.2,4.9c0.4-1.6,1.6-2.8,2.6-3c-0.1,0.8-0.4,2.6-1.6,3.5
			c2.9,0.4,4.1-1.7,5.5-3.2c-0.2,1.7-0.1,2.9,1.9,5.3c-0.4-2.9,0.2-2.3,1.6-4.1c0.6,2.5,1.3,5.3,4.1,7.2c-1.1-2.8-1.3-4.1-0.7-5.9
			c0.4,1.8,2,4,2.4,5.5c0.2-1.8,0.5-3.6,1.2-4.9c0.8,2.2,1.4,4.3,1.7,6.7c0.6-1.2,1.1-2.4,1.4-3.7c23.7,24.8,29,56.3,3,89.7
			c9.4-6.3,11.8-16.4,17-24.9c-5.1,11.2-7.3,23.7-16.2,33c8.7-7.5,10.5-14.3,15.6-21.5c-5.5,15-13.2,31.5-23.8,46.6
			c1.9,2,3.7,4.1,5.7,6.3c1.7-2.8,3.2-5.5,4.9-8.3C649.4,333.6,667.8,307,658.6,266.6L658.6,266.6z"/>
	</g>
	<path class="st30" d="M590.3,194.1c-1.2,0.2-1.7,0.7-2.5,1.7c1.1,0.2,2,0.2,3,0.4c0.4,0,0.4-0.4,0.4-0.7l-0.1-1.2
		c0-0.2-0.7-0.2-1.1-0.1L590.3,194.1L590.3,194.1z"/>
	<path class="st31" d="M587.7,195.8c0.4-0.1,0.8-0.2,1.3-0.4c0.5-0.1,0.8-0.1,1.3-0.2c-0.4,0.1-0.8,0.2-1.3,0.4
		C588.6,195.7,588.1,195.8,587.7,195.8L587.7,195.8z"/>
	<ellipse class="st32" cx="595.7" cy="194.2" rx="1" ry="1"/>
	
		<radialGradient id="SVGID_11_" cx="1171.7197" cy="1001.1655" r="0.4152" gradientTransform="matrix(0.4343 0 0 0.4549 87.0886 -261.3251)" gradientUnits="userSpaceOnUse">
		<stop  offset="0" style="stop-color:#FFFFFF"/>
		<stop  offset="1" style="stop-color:#FFFFFF;stop-opacity:0"/>
	</radialGradient>
	<ellipse class="st33" cx="596" cy="194.1" rx="0.4" ry="0.5"/>
	<g>
		<path class="st34" d="M608.4,404c0.6-1.8,1.2-3.6,1.8-5.3c0.7-1.8,1.4-3.5,2.2-5.2c1.6-3.5,3.2-6.9,4.9-10.1
			c1.8-3.4,3.6-6.6,5.7-9.9c1-1.6,1.9-3.2,3-4.8l3-4.8l-2.9,4.8c-1,1.6-1.9,3.2-2.9,4.8c-1.9,3.2-3.7,6.5-5.5,9.9
			c-1.8,3.4-3.5,6.7-5.1,10.1c-0.7,1.7-1.6,3.5-2.2,5.2C609.6,400.4,609,402.2,608.4,404z M585.6,392.6c2-0.8,4-1.8,5.9-2.9
			c1.9-1,3.9-2,5.7-3.2c3.7-2.3,7.2-4.9,10.5-7.7c3.4-2.8,6.4-5.9,9.4-9.1c1.4-1.6,2.9-3.2,4.3-4.9c1.4-1.7,2.8-3.4,4.1-5.1
			c-1.3,1.8-2.6,3.5-4,5.2c-1.3,1.7-2.8,3.4-4.2,4.9c-2.9,3.2-6,6.4-9.3,9.1c-3.4,2.9-6.9,5.4-10.6,7.7c-1.8,1.1-3.7,2.2-5.7,3.2
			C589.6,390.9,587.7,391.8,585.6,392.6L585.6,392.6z M630.5,357.3c1-1.3,1.8-2.6,2.6-4c0.8-1.3,1.7-2.6,2.5-4.1
			c1.7-2.8,3.2-5.4,4.8-8.3c1.6-2.8,3-5.5,4.6-8.4l4.5-8.4l-2,4.3l-2.2,4.2c-1.4,2.9-2.9,5.7-4.5,8.4s-3.1,5.5-4.8,8.3
			C634.2,352.2,632.4,354.8,630.5,357.3L630.5,357.3z M637.6,327.1c2-2.4,4-5.1,5.7-7.7c1.7-2.6,3.2-5.5,4.6-8.4
			c2.6-5.8,4.6-11.9,6-18.2c0.1-0.7,0.4-1.6,0.5-2.3c0.4-2.4,0.7-4.7,0.8-7.1c0.2-3.1,0.2-6.4,0-9.5s-0.7-6.4-1.4-9.4
			c-0.7-3.1-1.7-6.1-2.9-9.1c1.2,3,2.3,6,3,9.1c0.7,3.1,1.3,6.3,1.6,9.5c0.2,3.1,0.2,6.4,0.1,9.6c-0.1,2.4-0.4,4.8-0.8,7.1
			c-0.1,0.8-0.4,1.6-0.5,2.4c-1.4,6.3-3.4,12.4-6.1,18.2c-1.3,2.9-2.9,5.7-4.7,8.4C641.6,322.1,639.7,324.7,637.6,327.1L637.6,327.1
			z"/>
		<path class="st34" d="M635.7,320.3c2.2-2.2,4.2-4.5,5.9-7.1c1.7-2.5,3.2-5.2,4.6-7.9c1.3-2.8,2.5-5.5,3.6-8.4
			c0.6-1.4,1.1-2.9,1.7-4.3l0.4-1.1c0.1-0.4,0.2-0.7,0.4-1.1c0.2-0.7,0.5-1.4,0.7-2.2l0,0c0.6-3,1-6.1,1-9.3s-0.2-6.3-0.7-9.3
			c-0.5-3-1.2-6.1-2-9c-0.8-3-1.9-5.9-3.1-8.8c1.2,2.9,2.3,5.8,3.2,8.8c1,3,1.7,6,2.2,9c0.5,3,0.7,6.1,0.7,9.3s-0.4,6.3-1,9.3l0,0
			l0,0c-0.2,0.7-0.5,1.4-0.7,2.2c-0.1,0.4-0.2,0.7-0.4,1.1l-0.4,1.1c-0.6,1.4-1.1,2.9-1.7,4.3c-1.1,2.9-2.3,5.7-3.7,8.4
			c-1.3,2.8-2.9,5.4-4.6,7.9C639.9,315.8,637.9,318.1,635.7,320.3L635.7,320.3z"/>
		<path class="st34" d="M628.6,355.3c1.4-2,2.9-4,4.3-6l2.2-3c0.7-1,1.4-2,2-3c1.3-2,2.4-4.3,3.5-6.5c1.1-2.2,2.2-4.5,3.2-6.6
			c2.2-4.5,4.2-8.9,6-13.5c1.8-4.6,3.1-9.4,4.2-14.2c1-4.8,1.7-9.7,2.3-14.6c0.5-4.9,0.6-9.9,0-14.7c-0.5-4.9-1.7-9.7-3.2-14.3
			c-1.6-4.7-3.7-9.1-6.1-13.5c2.4,4.3,4.6,8.8,6.3,13.4c1.7,4.7,2.8,9.5,3.4,14.4c0.5,4.9,0.5,9.9,0,14.8c-0.6,4.9-1.2,9.7-2.3,14.7
			c-1,4.8-2.4,9.6-4.2,14.2s-3.9,9-6,13.5c-1.1,2.2-2.2,4.5-3.2,6.6c-1.1,2.2-2.2,4.5-3.5,6.5c-0.6,1.1-1.4,2-2.2,3l-2.2,3
			C631.6,351.3,630.2,353.4,628.6,355.3L628.6,355.3z"/>
		<path class="st34" d="M632,359c2.9-4.6,5.7-9.3,8.4-14c2.8-4.7,5.4-9.4,7.8-14.3c2.4-4.8,4.5-9.9,6-15c0.8-2.6,1.4-5.2,2-7.8
			c0.2-1.3,0.5-2.6,0.7-4c0.2-1.3,0.4-2.6,0.6-4c0.7-5.4,1.1-10.8,1.1-16.2c0-5.4-0.5-10.8-1.4-16.1s-2.5-10.6-4.8-15.5
			c-2.2-4.9-5.1-9.6-8.4-13.8c3.4,4.2,6.3,8.9,8.5,13.8s3.9,10.2,4.8,15.5c1,5.3,1.4,10.7,1.4,16.2c0,5.4-0.4,10.8-1.1,16.2
			c-0.1,1.3-0.4,2.6-0.6,4c-0.2,1.3-0.5,2.6-0.7,4c-0.6,2.6-1.2,5.3-2,7.8c-1.6,5.2-3.6,10.2-6,15s-5.1,9.6-7.8,14.2
			C637.7,349.7,634.8,354.3,632,359L632,359z M598.5,200.7c0.6,0,1.2,0,1.7,0.1c0.6,0.1,1.1,0.2,1.7,0.4c1.1,0.2,2.2,0.7,3.2,1.2
			c2,1,4.1,2.2,5.9,3.5s3.5,2.9,5.2,4.6c0.8,0.8,1.6,1.7,2.3,2.5c0.7,0.8,1.4,1.8,2.2,2.6c-0.7-0.8-1.4-1.8-2.2-2.6
			c-0.7-0.8-1.6-1.7-2.3-2.5c-1.6-1.6-3.2-3.1-5.2-4.5c-1.8-1.3-3.7-2.5-5.8-3.5c-1.1-0.5-2-0.8-3.1-1.2
			C600.8,201,599.6,200.7,598.5,200.7L598.5,200.7z"/>
	</g>
	<g>
		<path class="st35" d="M618.2,213.7c0,0,3.7,2.2,5.7,5.3c0,0-5.7-1.1-9.7-5.7"/>
		<path class="st34" d="M618.2,213.7c0.6,0.4,1.1,0.7,1.7,1.1c0.5,0.4,1.1,0.8,1.6,1.2c0.5,0.5,1,1,1.4,1.4c0.5,0.5,0.8,1,1.2,1.6
			l0.1,0.2l-0.2-0.1c-1-0.2-1.8-0.5-2.8-0.8c-0.8-0.4-1.8-0.7-2.5-1.2c-1.7-1-3.1-2.2-4.3-3.6c1.3,1.3,2.8,2.5,4.5,3.5
			c0.8,0.5,1.7,0.8,2.5,1.2c0.8,0.4,1.8,0.6,2.6,0.8l-0.1,0.2c-0.4-0.6-0.7-1.1-1.2-1.6c-0.5-0.5-0.8-1-1.3-1.4
			c-0.5-0.5-1-0.8-1.4-1.3C619.3,214.5,618.7,214.1,618.2,213.7L618.2,213.7z"/>
		<path class="st35" d="M610.1,212.7c0,0,8.7,5.5,10,6c0,0-1.9-4.2-6-6"/>
		<path class="st34" d="M610.1,212.7l4.9,3c0.8,0.5,1.7,1,2.5,1.4c0.4,0.2,0.8,0.5,1.2,0.7c0.4,0.2,0.8,0.5,1.3,0.7l-0.1,0.1
			c-0.4-0.6-0.7-1.2-1.1-1.8c-0.5-0.6-0.8-1.1-1.3-1.7c-0.5-0.5-1.1-1-1.6-1.4c-0.6-0.5-1.2-0.8-1.8-1.1c0.7,0.2,1.3,0.6,1.9,1.1
			c0.6,0.4,1.2,0.8,1.7,1.4c0.5,0.5,1,1.1,1.4,1.7c0.5,0.6,0.8,1.2,1.2,1.9l0.1,0.4l-0.4-0.1c-1-0.4-1.7-1-2.5-1.4
			c-0.8-0.5-1.7-1-2.5-1.6C613.3,214.8,611.6,213.7,610.1,212.7L610.1,212.7z"/>
		<path class="st35" d="M613.5,209.9c0,0,4.6,1.9,5.5,5.3c0,0-8.2-3.4-9.6-5.3"/>
		<path class="st34" d="M613.5,209.9c1.2,0.5,2.4,1.2,3.4,2c0.5,0.5,1,1,1.3,1.4c0.4,0.5,0.7,1.1,1,1.8l0.1,0.2l-0.2-0.1
			c-0.8-0.4-1.7-0.7-2.5-1.1c-0.8-0.4-1.7-0.8-2.4-1.2c-0.8-0.4-1.6-0.8-2.4-1.3c-0.4-0.2-0.7-0.5-1.2-0.7c-0.4-0.2-0.7-0.6-1-1
			c0.4,0.4,0.7,0.6,1.1,0.8c0.4,0.2,0.7,0.5,1.2,0.7c0.8,0.5,1.6,0.8,2.4,1.3c1.7,0.8,3.2,1.6,4.9,2.3l-0.1,0.1
			c-0.2-0.6-0.5-1.2-0.8-1.7c-0.4-0.5-0.8-1-1.3-1.4c-0.5-0.5-1-0.8-1.6-1.2C614.6,210.5,614,210.1,613.5,209.9L613.5,209.9z"/>
		<path class="st35" d="M606.7,213.4c0,0,7.9,5.8,10.4,5.8c0,0-2.3-4-6.5-5.8"/>
		<path class="st34" d="M606.7,213.4c0.8,0.6,1.7,1.1,2.5,1.7c0.8,0.5,1.7,1.1,2.5,1.6c0.8,0.5,1.7,1,2.6,1.4
			c0.5,0.2,0.8,0.5,1.3,0.6c0.5,0.1,1,0.4,1.4,0.4l-0.1,0.2c-0.4-0.6-0.8-1.2-1.3-1.7c-0.5-0.6-1-1.1-1.4-1.6
			c-0.5-0.5-1.1-1-1.7-1.3s-1.2-0.8-1.9-1.1c1.3,0.5,2.6,1.3,3.7,2.3c0.6,0.5,1.1,1,1.6,1.6c0.5,0.6,1,1.1,1.3,1.8l0.1,0.2h-0.2
			c-0.5,0-1-0.2-1.4-0.4c-0.5-0.2-1-0.4-1.3-0.6c-0.8-0.5-1.8-1-2.6-1.4c-0.8-0.5-1.7-1.1-2.5-1.7
			C608.2,214.5,607.4,213.9,606.7,213.4L606.7,213.4z"/>
		<path class="st35" d="M606.7,215.1c0,0,4.2,3.5,6.5,3.5c0,0-2.3-4-6.5-5.8"/>
		<path class="st34" d="M606.7,215.1c0.5,0.4,1,0.7,1.6,1.1c0.5,0.4,1.1,0.7,1.6,1c0.5,0.4,1.1,0.6,1.7,0.8c0.2,0.1,0.6,0.2,0.8,0.4
			c0.2,0.1,0.6,0.1,0.8,0.1l-0.1,0.2c-0.4-0.6-0.8-1.2-1.3-1.7c-0.5-0.6-1-1.1-1.4-1.6c-0.5-0.5-1.1-1-1.7-1.3s-1.2-0.8-1.9-1.1
			c1.3,0.5,2.6,1.3,3.7,2.3c0.6,0.5,1.1,1,1.6,1.6c0.5,0.6,1,1.1,1.3,1.8l0.1,0.2h-0.2c-0.6,0-1.3-0.2-1.8-0.5
			c-0.6-0.2-1.1-0.6-1.7-0.8c-0.5-0.4-1.1-0.7-1.6-1.1C607.5,215.9,607,215.5,606.7,215.1L606.7,215.1z"/>
		<path class="st35" d="M604.5,207.2c0,0,8.7,6.1,9.7,9.5c0,0-7.8-3.6-9.3-5.4"/>
		<path class="st34" d="M604.5,207.2c1,0.6,1.9,1.3,2.8,2c1,0.7,1.8,1.4,2.6,2.2c0.8,0.7,1.7,1.6,2.5,2.4c0.4,0.5,0.7,0.8,1.1,1.3
			c0.4,0.5,0.6,1,0.8,1.6l0.1,0.2l-0.2-0.1c-0.8-0.4-1.7-0.7-2.4-1.2c-0.8-0.4-1.6-0.8-2.4-1.3s-1.6-0.8-2.3-1.3
			c-0.4-0.2-0.7-0.5-1.1-0.7c-0.4-0.2-0.7-0.6-1-1c0.2,0.4,0.6,0.6,1.1,0.8c0.4,0.2,0.7,0.5,1.1,0.7c0.7,0.5,1.6,0.8,2.4,1.3
			c1.6,0.8,3.2,1.7,4.8,2.4l-0.1,0.1c-0.1-0.5-0.5-1-0.8-1.4c-0.4-0.5-0.7-0.8-1.1-1.3c-0.7-0.8-1.6-1.7-2.4-2.4s-1.7-1.6-2.6-2.3
			C606.3,208.6,605.5,208,604.5,207.2L604.5,207.2z"/>
	</g>
	<g>
		<path class="st3" d="M556.4,380.7c-5.9,4.3-22.4,6.5-24.6,5.8C543.7,376.6,555.5,376.3,556.4,380.7z M640.4,386.1
			c6.4,5.8,25.4,9.7,28.3,9C655.9,382.1,641.9,380.8,640.4,386.1z"/>
		<path class="st4" d="M556.4,380.7c-0.8-4.5-12.6-4.2-24.6,5.8C544.3,382.2,554.9,380,556.4,380.7z M640.5,386
			c1.7-5.3,15.4-4,28.2,9C654.3,389,642.2,385.3,640.5,386z"/>
	</g>
</g>
</svg>
