<?xml version="1.0" encoding="utf-8"?>
<!-- Generator: Adobe Illustrator 20.0.0, SVG Export Plug-In . SVG Version: 6.00 Build 0)  -->
<!DOCTYPE svg PUBLIC "-//W3C//DTD SVG 1.1//EN" "http://www.w3.org/Graphics/SVG/1.1/DTD/svg11.dtd">
<svg version="1.1" id="Layer_1" xmlns="http://www.w3.org/2000/svg" xmlns:xlink="http://www.w3.org/1999/xlink" x="0px" y="0px"
	 viewBox="0 0 800 480" style="enable-background:new 0 0 800 480;" xml:space="preserve">
<style type="text/css">
	.st0{fill:#399408;}
	.st1{fill:#FFFFFF;}
	.st2{fill:#FFDE08;}
	.st3{fill:#DE2110;}
</style>
<g>
	<path class="st0" d="M0,0h800v480H0V0z"/>
	<path class="st1" d="M0.2,0C-0.8,0.1,800,241.5,800,241.5L0,479.8L0.2,0L0.2,0z"/>
	<path class="st2" d="M0.4,20.2c4.3,0,724.1,217.9,720.2,220L0,464.5L0.4,20.2L0.4,20.2z"/>
	<path d="M0,0c2.3,0,363.7,240.9,363.7,240.9L0,479.8L0,0z"/>
	<path class="st3" d="M0.4,33.9c10,6.1,326.1,208.4,326.1,208.4L0.1,451.7L0.4,33.9L0.4,33.9z"/>
</g>
</svg>
