<?xml version="1.0" encoding="utf-8"?>
<!-- Generator: Adobe Illustrator 20.0.0, SVG Export Plug-In . SVG Version: 6.00 Build 0)  -->
<!DOCTYPE svg PUBLIC "-//W3C//DTD SVG 1.1//EN" "http://www.w3.org/Graphics/SVG/1.1/DTD/svg11.dtd">
<svg version="1.1" id="Layer_1" xmlns="http://www.w3.org/2000/svg" xmlns:xlink="http://www.w3.org/1999/xlink" x="0px" y="0px"
	 viewBox="0 0 800 480" style="enable-background:new 0 0 800 480;" xml:space="preserve">
<style type="text/css">
	.st0{fill:#BA0000;}
	.st1{fill:#FFFFFF;}
	.st2{fill:#BA0000;stroke:#000000;stroke-width:2.152;}
	.st3{fill:none;stroke:#BA0000;stroke-width:2.152;}
</style>
<path class="st0" d="M800,480.6H0V-0.6h800V480.6z"/>
<g>
	<g transform="translate(83.48) scale(.94)">
		<path class="st1" d="M334.1,247.8c0,0-51.6-22.2-44.2-79.8c7.2-27.7,19.8-46.6,42.8-56.9c10.8-3.3,21.7-4.8,33-5.7
			c-3,2.8-5.4,5.6-6.7,9.1c-2.5,6.3-0.6,12.3,2.6,18.4c4.1,7,6.6,14.3,7.4,23.7c1.5,13.2-4.1,26-14.6,33.7
			c-6.6,5.1-14.4,6.9-20.8,12.7c-4.9,4.9-8,9.7-9.1,18.2C324.4,237.1,328.8,239.4,334.1,247.8L334.1,247.8z"/>
		<path class="st2" d="M324.3,164.5v-0.2"/>
		<path class="st3" d="M327.6,241.8c-20.1-17.8-18.3-62.4-3-77.3"/>
		<path class="st0" d="M336.9,154.5l3.3,5.5l-6.1-2.5l-4.6,4.9l0.8-6.4l-6.1-2.5l6.6-1.5l0.8-6.4l3.3,5.5l6.6-1.5"/>
		<path class="st1" d="M338.5,244c0,0,6.1-55.9,63.4-65.7c28.6-1.3,50.4,5.3,66.9,24.2c6.4,9.3,10.9,19.4,15.1,29.9
			c-3.5-2-6.9-3.5-10.6-3.7c-6.7-0.5-12,3-16.8,7.9c-5.5,6-11.7,10.5-20.5,14c-12.2,5.3-26,3.6-36.5-4.1
			c-6.8-4.8-10.8-11.8-18.2-16.2c-6.1-3.3-11.6-4.8-20-3.4C345.9,231.6,345,236.4,338.5,244L338.5,244z"/>
		<path class="st2" d="M415.3,210.2l0.2-0.1"/>
		<path class="st3" d="M342.3,236c11.1-24.4,54.3-35.8,73.1-25.6"/>
		<path class="st0" d="M428.6,219.3l-4.3,4.8l0.6-6.6l-6-2.9l6.4-1.1l0.6-6.6l3.4,5.9l6.4-1.1l-4.3,4.8l3.4,5.9"/>
		<path class="st1" d="M342.4,248c0,0,54.9-11.9,82.4,39.2c10.3,26.7,11,49.4-1.7,71.1c-6.8,9-14.9,16.5-23.5,23.8
			c0.8-4,1.2-7.7,0.2-11.3c-1.6-6.6-6.7-10.4-12.8-13.4c-7.4-3.3-13.7-7.8-19.8-14.9c-8.9-9.9-11.7-23.5-7.7-35.9
			c2.4-8,7.7-14,9.5-22.4c1.2-6.8,0.8-12.5-3.2-20.1C356.5,251.1,351.6,251.8,342.4,248L342.4,248z"/>
		<path class="st2" d="M398.8,310.1l0.1,0.2"/>
		<path class="st3" d="M351.2,249.1c26.7,2.8,51.2,40.1,47.4,61.2"/>
		<path class="st0" d="M394.4,325.6l-5.9-2.6l6.4-1.5l0.9-6.7l3.1,5.7l6.4-1.5l-4.5,5.1l3.1,5.7l-5.9-2.6l-4.5,5.1"/>
		<g>
			<path class="st1" d="M341.1,253.7c0,0,26.9,49.4-14.5,90.1c-22.8,17.4-44.4,24.4-68.8,18.3c-10.5-4-20.1-9.7-29.5-15.9
				c4-0.4,7.7-1,10.9-3c5.8-3.4,8.1-9.3,9.3-16.1c1.1-8.1,3.6-15.3,8.8-23.2c7-11.3,19.3-17.9,32.3-17.5c8.4,0.1,15.6,3.5,24.2,2.9
				c6.9-0.8,12.3-2.7,18.4-8.7C342.2,268.1,340.1,263.6,341.1,253.7L341.1,253.7z"/>
			<path class="st2" d="M297.4,325.3l-0.1,0.2"/>
			<path class="st3" d="M342.6,262.4c4.8,26.4-24.1,60.4-45.4,62.7"/>
			<path class="st0" d="M281.3,325.4l0.8-6.4l3.3,5.7l6.6-1l-4.6,4.6l3.3,5.7l-6.1-2.9l-4.6,4.6l0.8-6.4l-6.1-2.9"/>
		</g>
		<g>
			<path class="st1" d="M335,252.6c0,0-37.6,41.8-89.8,16.2c-24-15.7-37.8-33.7-40.1-58.8c0.3-11.3,2.5-22.1,5.2-33.1
				c1.7,3.7,3.5,6.9,6.5,9.3c5.2,4.4,11.5,4.6,18.3,3.4c8-1.7,15.6-1.7,24.8,0.6c13,2.8,23.3,12.3,27.2,24.6
				c2.7,7.9,1.9,15.9,5.3,23.8c3,6.2,6.6,10.7,14.3,14.4C321.8,258.4,325.3,255,335,252.6L335,252.6z"/>
			<path class="st2" d="M253,235.1l-0.2-0.1"/>
			<path class="st3" d="M327.3,256.9c-23.3,13.3-65-2.7-74.2-22"/>
			<path class="st0" d="M247.6,220l6.3-1.4l-4.3,5l3.2,5.9l-5.8-2.8l-4.3,5l0.7-6.7l-5.9-2.8l6.3-1.3l0.7-6.7"/>
		</g>
	</g>
</g>
</svg>
