<?xml version="1.0" encoding="utf-8"?>
<!-- Generator: Adobe Illustrator 20.0.0, SVG Export Plug-In . SVG Version: 6.00 Build 0)  -->
<!DOCTYPE svg PUBLIC "-//W3C//DTD SVG 1.1//EN" "http://www.w3.org/Graphics/SVG/1.1/DTD/svg11.dtd">
<svg version="1.1" id="Layer_1" xmlns="http://www.w3.org/2000/svg" xmlns:xlink="http://www.w3.org/1999/xlink" x="0px" y="0px"
	 viewBox="0 0 800 480" style="enable-background:new 0 0 800 480;" xml:space="preserve">
<style type="text/css">
	.st0{fill:#0073CF;}
	.st1{fill:#FFFFFF;}
</style>
<path class="st0" d="M0,0h800v480H0V0z"/>
<path class="st1" d="M0,160h800v160H0V160z"/>
<g>
	<polygon class="st0" points="406,236.9 400,218.5 394,236.9 374.6,237 390.3,248.4 384.3,266.8 400,255.4 415.7,266.8 409.7,248.4 
		425.4,237 	"/>
	<polygon class="st0" points="523.6,205.7 517.7,224.1 533.3,212.8 549,224.1 543,205.7 558.7,194.3 539.3,194.3 533.3,175.9 
		527.3,194.3 508,194.3 	"/>
	<polygon class="st0" points="539.3,274.3 533.3,255.9 527.3,274.3 508,274.3 523.6,285.7 517.7,304.1 533.3,292.8 549,304.1 
		543,285.7 558.7,274.3 	"/>
	<polygon class="st0" points="266.7,175.9 260.7,194.3 241.3,194.3 257,205.7 251,224.1 266.7,212.8 282.3,224.1 276.4,205.7 
		292,194.3 272.7,194.3 	"/>
	<polygon class="st0" points="272.7,274.3 266.7,255.9 260.7,274.3 241.3,274.3 257,285.7 251,304.1 266.7,292.8 282.3,304.1 
		276.4,285.7 292,274.3 	"/>
</g>
</svg>
