<?xml version="1.0" encoding="utf-8"?>
<!-- Generator: Adobe Illustrator 20.0.0, SVG Export Plug-In . SVG Version: 6.00 Build 0)  -->
<!DOCTYPE svg PUBLIC "-//W3C//DTD SVG 1.1//EN" "http://www.w3.org/Graphics/SVG/1.1/DTD/svg11.dtd">
<svg version="1.1" id="Layer_1" xmlns="http://www.w3.org/2000/svg" xmlns:xlink="http://www.w3.org/1999/xlink" x="0px" y="0px"
	 viewBox="0 0 800 480" style="enable-background:new 0 0 800 480;" xml:space="preserve">
<style type="text/css">
	.st0{fill:#FFFFFF;}
	.st1{fill:#0000CC;}
</style>
<g>
	<g transform="translate(82.14) scale(.94)">
		<path class="st0" d="M763.7,512H-87.4V0h851.1V512z"/>
		<path class="st1" d="M763.7,115.2H-87.4V48h851.1V115.2z M763.7,465.7H-87.4v-67.2h851.1V465.7z M225.3,190.8l110.1,191.5
			l112.5-190.8L225.3,190.8L225.3,190.8z"/>
		<path class="st0" d="M314.6,317.8l21,35.5L357,318L314.6,317.8L314.6,317.8z"/>
		<path class="st1" d="M224.9,320.6L335,129l112.5,190.7L224.9,320.6z"/>
		<path class="st0" d="M314.6,191.6l21-35.5l21.4,35.4L314.6,191.6L314.6,191.6z M270.8,271.1l-21.6,36l40.9-0.1L270.8,271.1
			L270.8,271.1z M249.6,204.6l41.2,0.3L271,241.2L249.6,204.6L249.6,204.6z M400.8,271.5l20.8,35.6l-41.7-0.5L400.8,271.5z
			 M421.3,204.6l-41.2,0.3l19.8,36.3L421.3,204.6L421.3,204.6z M307,204.6l-28.4,51.5l28.8,50.3l52.7,1.2l32-51.5l-29.6-51.9
			L307,204.6L307,204.6z"/>
	</g>
</g>
</svg>
