<?xml version="1.0" encoding="utf-8"?>
<!-- Generator: Adobe Illustrator 20.0.0, SVG Export Plug-In . SVG Version: 6.00 Build 0)  -->
<!DOCTYPE svg PUBLIC "-//W3C//DTD SVG 1.1//EN" "http://www.w3.org/Graphics/SVG/1.1/DTD/svg11.dtd">
<svg version="1.1" id="Layer_1" xmlns="http://www.w3.org/2000/svg" xmlns:xlink="http://www.w3.org/1999/xlink" x="0px" y="0px"
	 viewBox="0 0 800 480" style="enable-background:new 0 0 800 480;" xml:space="preserve">
<style type="text/css">
	.st0{fill:#BA0000;}
	.st1{fill:#FFEF00;fill-opacity:0.988;stroke:#000000;stroke-width:2.204;}
	.st2{fill:#FFFFFF;stroke:#000000;stroke-width:2.636;}
	.st3{fill:#FFEC00;}
	.st4{fill:none;stroke:#000000;stroke-width:2.204;}
	.st5{fill:none;stroke:#000000;stroke-width:2.437;}
	.st6{fill:#FFE606;stroke:#000000;stroke-width:2.204;}
	.st7{fill:#FFFFFF;stroke:#000000;stroke-width:2.637;}
	.st8{fill:#FFEF00;fill-opacity:0.987;stroke:#000000;stroke-width:2.204;}
</style>
<g>
	<g transform="translate(72.77) scale(.94)">
		<path class="st0" d="M773.6,512H-77.4V0h851.1V512z"/>
		<path class="st1" d="M372,376c0.2-0.6,0.6-6.8,0.4-6.8s-9.5-10.9-9.3-10.9s11.9,2.6,11.9,2.2c0-0.4,4.6-11.5,4.6-11.7
			c0-0.2,5.6,13.5,5.6,13.5l11.5,5l-8,6.6c0,0,1.8,12.9,1.8,13.1c0,0.2-8-7.6-8-7.6l-8.9,1C373.6,380.4,372.4,376.4,372,376L372,376
			z"/>
		<path class="st2" d="M309.6,206.9c-7.6,3.9-37,37.5-41,42.7c-3.4,7.6-10,17.2-16.8,23.4c-7.3,5.5-11.3,13-10.3,20.1
			c-0.1,8.8,4.9,14.8,8.8,21.1c2.3,2.8,5.5,4.7,8.8,4.9c6.9,0.9,7.5,3,10.9,4.3c13.5,18.4,33.7,32,48.2,42.7
			c9.3,4.9,15.7,9.8,17.9,12.4c4.2,8.1,3.5,16,2.9,19.9c-3.6,13.5-7.2,27.1-10.8,40.6c-1.8,11.1,7.8,8.6,8.3,6.4
			c4.3-5.6,10.8-1.7,20.1-34.3c4.2-5.7,8.5-11.4,12.7-17.1c0,0,4.9-2,4.9-2.4c7.4-8.9,1.8-14.1-2.5-15.7c-3.1-1.1-6.2-2.3-9.3-3.4
			c0,0-10.8-10.8-11.3-10.8c-5.1-14.9-30.2-46.7-36.1-51.1c-4-4.2-6-6-9.8-8.3c-5.9-2.8-7.8-3.7-11.4-5.2c-3-1.2-0.9-4.5,1-6
			c19.9-10.8,35.7-22.9,54.8-35.1l2.9-2l-6.9-39.2L314,203.5C312.4,204.6,311.1,205.7,309.6,206.9L309.6,206.9z"/>
		<path class="st3" d="M336.3,413.1c0.1-0.4,19.9-4,19.9-4s-2.3,7.3-2.4,7.3l-19.7,5.9L336.3,413.1L336.3,413.1z"/>
		<path class="st4" d="M284.6,338.5c3.8-10.2,14.4-18.2,21.6-20.4"/>
		<path class="st5" d="M335.5,413.3c1.3-0.4,7-2,8.6-2.3c1.8-0.4,3.5-0.9,5.2-1.4c2-0.4,3.2-0.8,5.2-1.1c1.6-0.6,3.2-1,4.9-1.4
			 M332,425.6c0.2-0.2,1.5-1.4,2.5-2c1.1-0.4,5-2,6.5-2.3c1.6-0.4,3.1-0.9,4.7-1.4c1.7-0.4,2.8-0.8,4.7-1.1c1.4-0.6,2.8-1,4.4-1.4"
			/>
		<path class="st4" d="M340,341.4h-0.3c0.9,0,0.3-0.1-0.9,1.4c-0.4,1.1-4.1,3.7-6.8,3.7c-1.3,0.1-3.4,0.3-4.7,0.3
			c-0.4,0-0.9-0.3-1.3-0.3 M339.7,400h1.4c1.5,0,3,0.3,4.3,0.3c1.4,0,2.8,0.4,4.3,0.4c1.4,0.2,3.2,0.1,4.7,0.3
			c1.7,0.1,3,0.4,4.7,0.4c1.4,0.1,2.2,0.3,3.7,0.3l-3.7-0.3c1.4,0.1,2.2,0.3,3.7,0.3 M330,434.7c0.2-0.2,1.4-1.4,2.3-2
			c1-0.4,4.6-2,6-2.3c1.4-0.4,2.9-0.9,4.3-1.4c1.6-0.4,2.6-0.8,4.3-1.1c1.3-0.6,2.6-1,4-1.4 M356.7,385.3c-0.8,2.3,0.2,2.9,0.7,3.9
			c0.8,1,2.7,2.5,5.7,3.4c1.2,0.3,2.1,0.6,3.4,1.1c0.9,0.1,1.3,0.3,2,0.6 M244.1,299.5h0.3c-0.9,0-0.4,0.1,1.1-1.1
			c0.9-1,1.7-1.5,2.6-2.6 M262.5,319.8c0.2,0,16.6-8.3,18.3-10c1.2-0.9,2.2-1.8,3.7-2.9c1-0.5,1.7-1.1,2.6-1.7
			c0.8-1.1,1.7-1.7,2.3-2.7c1-0.9,0.6-1.8,1.4-2.9c0.4-1.1,1.1-2.9,1.3-3.9 M312.9,308c0.1,0.6-0.3,2.4-0.2,3.8
			c-0.1,1.6-2.1,6.5-4.6,8"/>
		<path class="st4" d="M283.5,307.8c0.1,0,2.6,0.8,6.8,2.1c5,1.8,15.4,8.4,16.5,9.3c1.1,0.8,2.9,1.6,3.7,2.6c1.1,1,2,2.1,2.8,3.1
			c1,1.3,1.9,2.3,2.6,3.4c3.2,2.6,11.7,20.3,12,21.3c0.5,0.9,1.1,2.2,1.4,3.1c0.6,0.7,1.1,1.8,1.7,2.8c0.6,1.4,1.3,2.1,2,3.1
			c0.9,0.7,2.2,1.9,3.4,2.6c1.3,1.1,2.5,1.5,3.4,2.3c1.3,0.6,16.3,10.1,17,10.5c1.4,1.1,5.6,5.4,2.6,8.6c-1.2,1.1-2.4,2.5-3.4,3.1
			c-1.1,1.1-2.6,1.6-3.8,2.1c-6.8,2-10.2,1.3-11.5,1.3h-1.4 M250.4,274.3c1.9,0.8,1.1,0.2,2.9,1c1.2,0.5,1.9,0.5,3.1,0.9
			c1.2,0.4,4.6,1,6.2,2.6c1.2,1.1,2.1,2,3.4,2.8c1.5,1.1,2.7,1.5,4.6,2.3c1.6,0.6,3.4,1.3,5.1,1.3c1.7,0.1,2.1,0,3.8,0h4h-4h4"/>
		<path class="st6" d="M249.9,293.3c4.3-0.3,11.4,1,11.5,1l9.4-0.1c4.9-0.5,6-2.4,6.8-3.7c1.9-2.8,3.1-3.8,4.6-6
			c2.3-1.7,5.4,2.3,5.6,2.3c8,7.5,1.6,16.8,1.1,17.1c-4,3.7-4.8,3.9-7.3,1.6c-2.4-2.8-3.1-4.1-5.1-5.1c-3.8-1.9-11.8-0.4-12-0.4
			c-0.1,0-4.1,1.6-4.1,1.6c-1.9,0.7-3.2,2.4-6.5,3c-3.4,0.2-4.6-0.1-6.3-2.8C245.4,298,246.5,293.7,249.9,293.3L249.9,293.3z"/>
		<path class="st1" d="M472.8,120.7c-0.6,0.1-6.3,2.8-6.2,3c0.1,0.2-4.8,13.6-4.9,13.4c-0.1-0.2-3.5-11.6-3.9-11.4
			c-0.4,0.2-12.3,1.6-12.4,1.7c-0.2,0.1,9-11.5,9-11.5l-1.2-12.5l9.7,3.8c0,0,10.3-7.9,10.5-8c0.2-0.1-2.7,10.8-2.7,10.8l5.2,7.2
			C475.8,117.1,472.9,120.1,472.8,120.7L472.8,120.7z"/>
		<path class="st2" d="M355.9,257.9c7.2,4.7,50.8,13.9,57.3,14.8c8.3-0.8,19.9,0.3,28.6,3.1c8.3,3.6,16.8,3.5,22.5-0.9
			c7.7-4.3,10.6-11.5,14-18c1.3-3.4,1.4-7.1-0.1-10.1c-2.6-6.4-1-8-1.6-11.6c9.4-20.8,11.4-45,13.6-62.9
			c-0.3-10.4,0.8-18.4,2.1-21.7c5-7.7,12.3-10.9,15.9-12.3c13.6-3.5,27.1-7,40.7-10.5c10.5-3.8,3.7-11,1.5-10.4
			c-7-1-6.8-8.6-39.7-0.7l-21.2-2.7c0,0-4.1-3.3-4.5-3.1c-11.4-2.1-13.1,5.3-12.5,9.8l1.6,9.8c0,0-4.1,14.7-3.9,15.1
			c-10.5,11.8-26.1,49.5-27.1,56.8c-0.5,6.8-3,5.6-2.4,12.2c0,5.2-0.6,1.9,1.2,12.6c0.4,3.2-3.5,3-5.8,2
			c-19.2-12-37.4-19.9-57.5-30.5c-1-0.5-2.1-1.1-3.1-1.6L345,222.5l5.8,33.3C352.6,256.6,354.2,257.2,355.9,257.9L355.9,257.9z"/>
		<path class="st3" d="M522.6,133.6c-0.4,0.1-13.3-15.4-13.3-15.4s7.5-1.6,7.6-1.5l14.8,14.3L522.6,133.6z"/>
		<path class="st4" d="M482.9,215.2c-10.7,1.6-23-3.7-28.4-8.8"/>
		<path class="st5" d="M523.1,134.1c-0.9-0.9-5.2-5.1-6.2-6.4c-1.2-1.3-2.5-2.6-3.8-3.9c-1.3-1.5-2.2-2.4-3.6-4
			c-1.3-1.1-2.4-2.3-3.6-3.6 M535.6,131.3c-0.3,0-2-0.6-3-1.2c-0.9-0.8-4.2-3.4-5.2-4.6c-1.1-1.2-2.3-2.3-3.5-3.4
			c-1.2-1.3-2.1-2.1-3.3-3.5c-1.2-0.9-2.3-2-3.4-3.1"/>
		<path class="st4" d="M458.2,165.5l0.1,0.2c-0.4-0.8-0.2-0.3,1.7,0c1.2-0.2,5.2,1.7,6.6,4.1c0.8,1.1,1.9,2.8,2.5,4
			c0.2,0.3,0.2,0.9,0.4,1.3 M509.5,137l-0.1-0.2c0.2,0.3-0.4-0.7-0.6-1c-0.7-1.3-1.2-2.7-1.8-3.9c-0.7-1.2-1-2.7-1.7-3.9
			c-0.5-1.4-1.4-2.8-2-4.2c-0.8-1.5-1.1-2.8-2-4.3c-0.6-1.2-0.8-2-1.6-3.4l1.6,3.4c-0.6-1.2-0.8-2-1.6-3.4 M544.5,128.4
			c-0.3,0-1.9-0.5-2.9-1c-0.8-0.7-4-3-4.9-4.1c-1.1-1.1-2.2-2.1-3.3-3c-1.1-1.2-1.9-1.9-3.1-3.2c-1.2-0.8-2.2-1.8-3.2-2.8
			 M488.3,129.4c2.4-0.4,2.4-1.6,3.1-2.5c0.5-1.1,0.8-3.5,0.2-6.6c-0.3-1.2-0.5-2.1-0.7-3.5c-0.4-0.8-0.4-1.3-0.5-2 M468.8,269.6
			l-0.1-0.2c0.4,0.8,0.2,0.3-1.5-0.4c-1.4-0.3-2.1-0.7-3.5-1 M477.4,243.6c-0.1-0.2-15.3-10.4-17.7-11.1c-1.4-0.6-2.7-1-4.3-1.8
			c-0.9-0.6-1.8-0.9-2.7-1.4c-1.3-0.1-2.4-0.7-3.5-0.6c-1.3-0.4-1.9,0.4-3.2,0.2c-1.1,0.2-3.1,0.4-4,0.7 M442.4,205.5
			c0.5-0.4,2.2-0.9,3.4-1.6c1.4-0.7,6.7-1.4,9.2,0.1"/>
		<path class="st4" d="M456.7,231.2c0-0.1-0.6-2.7-1.5-6.9c-0.9-5.3-0.3-17.6,0-18.9c0.2-1.3-0.1-3.3,0.4-4.5c0.3-1.5,0.9-2.7,1.3-4
			c0.6-1.5,1.1-2.8,1.7-3.9c0.7-4,12-20.1,12.8-20.9c0.6-1,1.3-1.9,2-2.8c0.3-0.9,1-1.8,1.6-2.9c0.9-1.2,1.2-2.1,1.8-3.3
			c0.1-1.1,0.6-2.9,0.6-4.2c0.3-1.7,0.1-2.9,0.3-4.1c-0.2-1.4,0.8-19.2,0.8-20c0.3-1.7,2-7.5,6.2-6.5c1.5,0.6,3.3,0.9,4.4,1.5
			c1.5,0.4,2.6,1.5,3.7,2.3c5.1,4.9,6.1,8.3,6.8,9.4l0.7,1.2 M443.6,275.9l-0.1-0.2c0.4,0.7,0.2,0.3-0.3-1.1c-0.1-1.3-0.5-3-0.7-4.2
			c-0.3-1.2-0.8-2.7-0.7-3.5c-0.4-1.3-0.2-2.3,0-3.6c0.4-1.6,0.5-2.7,0.6-4.2c0.2-1.9,0-3.2,0.1-5c-0.5-1.5-0.6-2.7-1.3-4.1
			c-0.7-1.4-1.2-2.7-2-4.1l-2-3.5l2,3.5l-2-3.5"/>
		<path class="st6" d="M460.5,267.6c-2.3-3.6-4.7-10.4-4.8-10.5l-4.7-8.1c-2.8-4.1-5-4.1-6.6-4.1c-3.4-0.2-4.9-0.8-7.4-1
			c-2.6-1.1-0.7-5.8-0.7-6c2.7-10.6,13.9-9.6,14.3-9.4c5.1,1.7,5.8,2.3,4.9,5.6c-1.3,3.5-2.1,4.8-2,7c0.3,4.3,5.4,10.5,5.5,10.6
			c0.1,0.1,3.4,2.8,3.4,2.8c1.6,1.3,3.7,1.6,5.8,4.2c1.9,2.9,2.1,4,0.6,6.9C466.8,269.3,462.5,270.4,460.5,267.6L460.5,267.6z"/>
		<path class="st1" d="M196.2,168.7c0.4,0.5,5.8,3.7,5.9,3.5s14-3.4,13.9-3.2c-0.1,0.2-7.8,9.3-7.4,9.5c0.4,0.2,8,9.4,8.2,9.5
			c0.2,0.1-14.6-1.2-14.6-1.2l-9.8,7.9l-2.2-10.2c0,0-12.3-4.3-12.4-4.4c-0.2-0.1,10.5-3.6,10.5-3.6l3.2-8.3
			C191.5,168.1,195.7,168.8,196.2,168.7L196.2,168.7z"/>
		<path class="st7" d="M375,191.3c0-8.6-16.2-50.1-19-56.1c-5.2-6.5-10.7-16.8-13-25.7c-1.5-9-6.3-16-13.1-18.4
			c-7.8-4.1-15.4-2.5-22.8-1.9c-3.6,0.8-6.7,2.7-8.4,5.6c-4,5.7-6.1,5.2-8.9,7.7c-22.5,3.5-43.9,15.1-60.1,23.1
			c-8.6,6-15.9,9.4-19.3,10.2c-9.2,0-15.8-4.3-19-6.6l-31.1-28.3c-9-6.7-11.2,3-9.5,4.5c3,6.4-3.5,10.4,21.2,33.6l9.3,19.2
			c0,0-0.5,5.3-0.1,5.5c4.5,10.7,11.7,8.1,15,5l7.3-6.7c0,0,14.5-4.6,14.8-5c15.6,2.3,55.7-5.3,62.3-8.5c6-3.3,6.3-0.5,11.5-4.7
			c4.3-2.9,1.9-0.6,9.9-7.9c2.5-2.1,4.4,1.3,4.9,3.7c0.4,22.7,3.9,42.2,5.9,64.8c0.1,1.2,0.3,2.3,0.4,3.5c12.6,4,25.3,8,37.9,12
			c8.2-7.7,16.4-15.4,24.7-23.1C375.8,194.7,375.4,193.1,375,191.3L375,191.3z"/>
		<path class="st3" d="M179.7,119.8c0.3,0.3-5.6,19.5-5.6,19.5s-5.5-5.4-5.4-5.5l3.8-20.2L179.7,119.8L179.7,119.8z"/>
		<path class="st4" d="M269.7,108.4c7.3,8.1,9.5,21.2,8.2,28.6"/>
		<path class="st5" d="M179.9,119.1c-0.3,1.3-1.4,7.1-1.9,8.7c-0.5,1.7-0.8,3.5-1.1,5.3c-0.5,1.9-0.8,3.2-1.4,5.2
			c-0.2,1.7-0.6,3.3-1,5 M170.7,110.3c0.1,0.3,0.6,2,0.6,3.1c-0.2,1.2-0.5,5.4-1,6.8c-0.4,1.6-0.7,3.2-0.9,4.8
			c-0.4,1.7-0.6,2.9-1.1,4.7c-0.1,1.5-0.4,3-0.7,4.5"/>
		<path class="st4" d="M241.7,156.2l0.1-0.3c-0.4,0.8-0.1,0.3-0.9-1.4c-0.8-0.9-1.4-5.3-0.1-7.8c0.5-1.2,1.3-3.1,1.9-4.3
			c0.2-0.3,0.7-0.7,0.8-1 M189.8,129l-0.1,0.3l-0.5,1c-0.7,1.3-1.6,2.5-2.2,3.7c-0.7,1.3-1.7,2.3-2.3,3.6c-0.8,1.2-1.6,2.8-2.5,4
			c-0.8,1.5-1.7,2.5-2.5,4c-0.7,1.2-1.2,1.8-2,3.2l2-3.2c-0.7,1.2-1.2,1.8-2,3.2 M163.4,104.4c0.1,0.2,0.6,1.9,0.7,2.9
			c-0.2,1.1-0.3,5-0.7,6.4c-0.3,1.5-0.6,3-0.7,4.4c-0.4,1.6-0.5,2.7-1,4.3c-0.1,1.4-0.3,2.8-0.6,4.2 M195,150.9
			c-1.7-1.8-2.7-1.1-3.8-1.2c-1.2,0.2-3.4,1.2-5.7,3.5c-0.8,0.9-1.5,1.5-2.6,2.5c-0.5,0.8-0.9,1-1.4,1.5 M323,90.4l-0.1,0.3
			c0.4-0.8,0.1-0.3,0.5,1.5c0.5,1.3,0.5,2.2,1.1,3.5 M296.5,97.4c-0.1,0.2-0.3,18.5,0.4,20.9c0.2,1.5,0.6,2.8,0.8,4.6
			c0,1.1,0.3,2,0.3,3.1c0.6,1.2,0.8,2.3,1.4,3.3c0.3,1.3,1.3,1.3,1.9,2.6c0.8,0.8,2,2.3,2.8,3 M283.8,147.6c-0.6-0.2-2-1.3-3.2-2
			c-1.4-0.8-4.8-4.9-5-7.8"/>
		<path class="st4" d="M297.5,121.6c0,0.1-1.9,1.9-5,5c-3.9,3.6-14.5,9.8-15.8,10.3c-1.2,0.6-2.8,1.9-4,2.1
			c-1.4,0.6-2.8,0.8-4.1,1.1c-1.6,0.3-3,0.6-4.2,0.7c-3.7,1.6-23.4,1-24.5,0.8c-1.1,0-2.3-0.1-3.4-0.2c-0.9,0.2-2,0.1-3.3,0.2
			c-1.5-0.1-2.4,0.2-3.7,0.3c-1,0.5-2.7,1.1-3.8,1.9c-1.6,0.6-2.5,1.5-3.6,2c-1.1,0.9-16.5,9.9-17.2,10.3c-1.6,0.7-7.4,2.4-8.8-1.6
			c-0.4-1.6-1.1-3.2-1.2-4.5c-0.5-1.5-0.2-3-0.1-4.4c1.3-6.9,3.6-9.6,4.2-10.8l0.7-1.3 M342.1,108l-0.1,0.3c0.4-0.7,0.2-0.3-0.8,0.9
			c-1,0.8-2.2,2.1-3.1,2.9c-0.9,0.9-1.8,2.2-2.6,2.5c-0.8,1.1-1.8,1.4-3,2c-1.5,0.6-2.5,1.1-3.8,1.8c-1.7,0.9-2.7,1.7-4.2,2.6
			c-1,1.2-1.9,2-2.7,3.4c-0.8,1.3-1.6,2.5-2.4,3.9l-1.8,3.5l1.8-3.5l-1.8,3.5 M329.3,204.9l0.3-0.5c-0.5,0.9-0.3,0.7,0.1-0.9
			c0-1.9,0.5-4.2,0.5-5.9c0.3-1.8,0.6-3.7,0.6-5.5c-0.1-2.1-0.1-4-0.4-6c0-1.9-0.2-3.8-0.3-5.6c0-1.8-0.2-3.4-0.6-5.1
			c0-1.3-0.1-3.1-0.4-4.7c0.2-1.3-0.2-2.4-0.5-3.4c-0.5-1.9-0.7-3.1-1.2-5.1c-0.3-1.1-0.6-2.5-1.1-4.1c-0.2-1.5-1-3.5-1.3-4.9
			c-0.5-1-0.9-2.3-1.1-3.5c-0.5-1.1-1.2-2.4-1.3-3.6c-0.5-0.9-1-2.4-1.6-3.7c-0.5-1.1-0.8-2.5-1.3-3.6c-0.5-1.4-1.1-2.6-1.5-4
			c-0.5-0.5-0.6-1-0.9-1.4"/>
		<path class="st6" d="M325.9,98.5c-1.7,3.9-6.1,9.6-6.2,9.8l-4.2,8.4c-1.9,4.6-0.7,6.4,0.1,7.8c1.7,3,2,4.5,3.2,6.8
			c0.5,2.8-4.5,3.8-4.6,3.9c-10.4,3.6-15.6-6.4-15.7-6.9c-1.4-5.2-1.2-6.1,2-7.2c3.6-0.8,5.1-0.9,6.9-2.2c3.4-2.6,5.8-10.3,5.9-10.4
			c0.1-0.1,0.5-4.4,0.5-4.4c0.3-2.1-0.7-3.9,0.4-7.2c1.4-3.1,2.2-4,5.4-4.2C323.8,92.3,327,95.2,325.9,98.5L325.9,98.5z"/>
		<path class="st8" d="M312.3,199.6c-1.6-1.4,29.5,11.2,33.7,11.4c5.8-2.1,29.9-22.5,29.9-22.5c0.2,2,1.1,7.2,3.4,8.3
			c-9.3,7.5-17.7,14.8-27,22.3c0.7,12-1.5,24.6,4.6,38c0,0-7.3,0.1-7.3,0c-6.4-6.4-8.7-37.3-8.7-37.3c-10.2-4.6-20.4-9-30.6-13.5
			C311.7,205.4,312.9,202.4,312.3,199.6L312.3,199.6z"/>
		<path class="st4" d="M341.8,231.3c0.5-0.4-5.6,2.8-7.2,3.6c-28.2,15-42.7,36.9-43.6,37.7c-0.5,0.9-1.4,2.2-2.2,3.4
			c-0.7,1-1.6,2.1-2.2,3.1c-0.9,1.2-2.7,3.6-3.7,4.6c-0.1,0.7,0.5-0.2,0.3,0.2 M361,213.4c-0.5-0.3,5.1,3.7,6.5,4.7
			c26.3,18.2,52.3,21.1,53.5,21.5c1,0,2.6,0.2,4,0.4c1.2,0.1,2.6,0.5,3.8,0.6c1.5,0.2,4.4,0.8,5.8,1.2c0.7-0.2-0.4-0.3,0.1-0.3"/>
	</g>
</g>
</svg>
