<?xml version="1.0" encoding="utf-8"?>
<!-- Generator: Adobe Illustrator 20.0.0, SVG Export Plug-In . SVG Version: 6.00 Build 0)  -->
<!DOCTYPE svg PUBLIC "-//W3C//DTD SVG 1.1//EN" "http://www.w3.org/Graphics/SVG/1.1/DTD/svg11.dtd">
<svg version="1.1" id="Layer_1" xmlns="http://www.w3.org/2000/svg" xmlns:xlink="http://www.w3.org/1999/xlink" x="0px" y="0px"
	 viewBox="0 0 800 480" style="enable-background:new 0 0 800 480;" xml:space="preserve">
<style type="text/css">
	.st0{fill:#FF9933;}
	.st1{fill:#FFFFFF;}
	.st2{fill:#128807;}
	.st3{fill:#000088;}
</style>
<g>
	<path class="st0" d="M0,0h800v160H0V0z"/>
	<path class="st1" d="M0,160h800v160H0V160z"/>
	<path class="st2" d="M0,320h800v160H0V320z"/>
</g>
<path class="st3" d="M399.7,172.3c-37.6,0-68,30.4-68,68s30.4,68,68,68s68-30.4,68-68S437.2,172.3,399.7,172.3z M455.7,247.7
	c-0.2,1.6,0.9,3.1,2.5,3.3c-0.6,3.2-1.4,6.3-2.5,9.3c-1.5-0.6-3.2,0.1-3.8,1.6c-0.6,1.5,0.1,3.2,1.6,3.9c-0.7,1.5-1.4,2.9-2.3,4.3
	l-29.9-19.6l-11-4.7c0.3-0.6,0.5-1.1,0.7-1.7l11.1,4.5l35,7.3l-34-11.2l-11.9-1.7c0.1-0.6,0.2-1.2,0.2-1.9l11.9,1.4l35.7-2l-35.7-2
	l-11.9,1.4c0-0.6-0.1-1.3-0.2-1.9l11.9-1.7l34-11.2l-35,7.3l-11.1,4.5c-0.2-0.6-0.4-1.2-0.7-1.7l11-4.7l29.9-19.6
	c0.8,1.4,1.6,2.8,2.3,4.3c-1.5,0.7-2.2,2.4-1.6,3.9c0.6,1.5,2.3,2.2,3.8,1.6c1.1,3,1.9,6.1,2.5,9.3c-1.6,0.3-2.7,1.7-2.5,3.3
	c0.2,1.6,1.7,2.7,3.2,2.6c0.1,1.6,0.2,3.2,0.2,4.8s-0.1,3.2-0.2,4.8C457.4,245,455.9,246.1,455.7,247.7z M445,201.8
	c-1.2,1-1.5,2.8-0.5,4.1c1,1.3,2.8,1.5,4.1,0.6c0.9,1.3,1.8,2.7,2.6,4.1l-31.9,16.1l-9.6,7.2c-0.3-0.5-0.7-1-1.2-1.5l9.4-7.4
	l23.8-26.7l-26.7,23.8l-7.4,9.4c-0.5-0.4-1-0.8-1.5-1.2l7.2-9.6l16.1-31.9c1.4,0.8,2.8,1.7,4.1,2.6c-0.9,1.3-0.7,3.1,0.6,4.1
	c1.3,1,3.1,0.8,4.1-0.5c1.2,1,2.4,2.1,3.6,3.3S444,200.6,445,201.8z M404.5,181c-0.2,1.6,1,3,2.6,3.2c1.6,0.2,3.1-0.9,3.3-2.5
	c3.2,0.6,6.3,1.4,9.3,2.5c-0.6,1.5,0.1,3.2,1.6,3.8c1.5,0.6,3.2-0.1,3.9-1.6c1.5,0.7,2.9,1.4,4.3,2.3l-19.6,29.9l-4.7,11
	c-0.6-0.3-1.1-0.5-1.7-0.7l4.5-11.1l7.3-35l-11.2,34l-1.7,11.9c-0.6-0.1-1.2-0.2-1.9-0.2l1.4-11.9l-2-35.7l-2,35.7l1.4,11.9
	c-0.6,0-1.3,0.1-1.9,0.2l-1.7-11.9l-11.2-34l7.3,35L396,229c-0.6,0.2-1.2,0.4-1.7,0.7l-4.7-11l-19.6-29.9c1.4-0.8,2.8-1.6,4.3-2.3
	c0.7,1.5,2.4,2.2,3.9,1.5c1.5-0.6,2.2-2.3,1.6-3.8c3-1.1,6.1-1.9,9.3-2.5c0.3,1.6,1.7,2.7,3.3,2.5c1.6-0.2,2.7-1.7,2.6-3.2
	c1.6-0.1,3.2-0.2,4.8-0.2S402.9,180.9,404.5,181z M347.4,262c-0.6-1.5-2.3-2.2-3.8-1.6c-1.1-3-1.9-6.1-2.5-9.3
	c1.6-0.3,2.7-1.7,2.5-3.3c-0.2-1.6-1.7-2.7-3.2-2.6c-0.1-1.6-0.2-3.2-0.2-4.8s0.1-3.2,0.2-4.8c1.6,0.2,3-1,3.2-2.6
	c0.2-1.6-0.9-3.1-2.5-3.3c0.6-3.2,1.4-6.3,2.5-9.3c1.5,0.6,3.2-0.1,3.8-1.6c0.6-1.5-0.1-3.2-1.5-3.9c0.7-1.5,1.4-2.9,2.3-4.3
	l29.9,19.6l11,4.7c-0.3,0.6-0.5,1.1-0.7,1.7l-11.1-4.5l-35-7.3l34,11.2l11.9,1.7c-0.1,0.6-0.2,1.2-0.2,1.9l-11.9-1.4l-35.7,2l35.7,2
	l11.9-1.4c0,0.6,0.1,1.3,0.2,1.9l-11.9,1.7l-34,11.2l35-7.3l11.1-4.5c0.2,0.6,0.4,1.2,0.7,1.7l-11,4.7l-29.9,19.6
	c-0.8-1.4-1.6-2.8-2.3-4.3C347.4,265.2,348.1,263.5,347.4,262z M361.1,195c1,1.2,2.8,1.5,4.1,0.5c1.3-1,1.5-2.8,0.6-4.1
	c1.3-0.9,2.7-1.8,4.1-2.6l16.1,31.9l7.2,9.6c-0.5,0.3-1,0.7-1.5,1.2l-7.4-9.4l-26.7-23.8l23.8,26.7l9.4,7.4c-0.4,0.5-0.8,1-1.2,1.5
	l-9.6-7.2l-31.9-16.1c0.8-1.4,1.7-2.8,2.6-4.1c1.3,0.9,3.1,0.7,4.1-0.6c1-1.3,0.8-3.1-0.5-4.1c1-1.2,2.1-2.4,3.3-3.6
	C358.7,197.1,359.9,196,361.1,195z M354.3,278.9c1.2-1,1.5-2.8,0.5-4.1c-1-1.3-2.8-1.5-4.1-0.6c-0.9-1.3-1.8-2.7-2.6-4.1l31.9-16.1
	l9.6-7.2c0.3,0.5,0.7,1,1.2,1.5l-9.4,7.4l-23.8,26.7l26.7-23.8l7.4-9.4c0.5,0.4,1,0.8,1.5,1.2l-7.2,9.6l-16.1,31.9
	c-1.4-0.8-2.8-1.7-4.1-2.6c0.9-1.3,0.7-3.1-0.6-4.1c-1.3-1-3.1-0.8-4.1,0.5c-1.2-1-2.4-2.1-3.6-3.3
	C356.5,281.3,355.4,280.1,354.3,278.9z M394.9,299.6c0.2-1.6-1-3-2.6-3.2c-1.6-0.2-3.1,0.9-3.3,2.5c-3.2-0.6-6.3-1.4-9.3-2.5
	c0.6-1.5-0.1-3.2-1.6-3.8c-1.5-0.6-3.2,0.1-3.9,1.5c-1.5-0.7-2.9-1.4-4.3-2.3l19.6-29.9l4.7-11c0.6,0.3,1.1,0.5,1.7,0.7l-4.5,11.1
	l-7.3,35l11.2-34l1.7-11.9c0.6,0.1,1.2,0.2,1.9,0.2l-1.4,11.9l2,35.7l2-35.7l-1.4-11.9c0.6,0,1.3-0.1,1.9-0.2l1.7,11.9l11.2,34
	l-7.3-35l-4.5-11.1c0.6-0.2,1.2-0.4,1.7-0.7l4.7,11l19.6,29.9c-1.4,0.8-2.8,1.6-4.3,2.3c-0.7-1.5-2.4-2.2-3.9-1.5
	c-1.5,0.6-2.2,2.3-1.6,3.8c-3,1.1-6.1,1.9-9.3,2.5c-0.3-1.6-1.7-2.7-3.3-2.5c-1.6,0.2-2.7,1.7-2.6,3.2c-1.6,0.1-3.2,0.2-4.8,0.2
	S396.4,299.8,394.9,299.6z M438.2,285.7c-1-1.2-2.8-1.5-4.1-0.5c-1.3,1-1.5,2.8-0.6,4.1c-1.3,0.9-2.7,1.8-4.1,2.6l-16.1-31.9
	l-7.2-9.6c0.5-0.3,1-0.7,1.5-1.2l7.4,9.4l26.7,23.8l-23.8-26.7l-9.4-7.4c0.4-0.5,0.8-1,1.2-1.5l9.6,7.2l31.9,16.1
	c-0.8,1.4-1.7,2.8-2.6,4.1c-1.3-0.9-3.1-0.7-4.1,0.6c-1,1.3-0.8,3.1,0.5,4.1c-1,1.2-2.1,2.4-3.3,3.6
	C440.6,283.5,439.4,284.6,438.2,285.7z"/>
</svg>
