<?xml version="1.0" encoding="utf-8"?>
<!-- Generator: Adobe Illustrator 20.0.0, SVG Export Plug-In . SVG Version: 6.00 Build 0)  -->
<!DOCTYPE svg PUBLIC "-//W3C//DTD SVG 1.1//EN" "http://www.w3.org/Graphics/SVG/1.1/DTD/svg11.dtd">
<svg version="1.1" id="Layer_1" xmlns="http://www.w3.org/2000/svg" xmlns:xlink="http://www.w3.org/1999/xlink" x="0px" y="0px"
	 viewBox="0 0 800 480" style="enable-background:new 0 0 800 480;" xml:space="preserve">
<style type="text/css">
	.st0{fill:#FFFFFF;}
	.st1{fill:#DA0000;}
	.st2{fill:#239F40;}
	.st3{fill:#D90000;}
	.st4{fill:#239E3F;}
</style>
<g>
	<g transform="translate(79.98) scale(.9375)">
		<path class="st0" d="M-85.3,0H768v512H-85.3L-85.3,0z"/>
		<path class="st1" d="M-85.3,343.8H768V512H-85.3L-85.3,343.8z"/>
		<g>
			<path class="st0" d="M76.9,351h46.7v3.4H76.9V351z M83.9,367.8h3.2v3.3h-3.2V367.8z M123.8,367.7v3.4h-9.3v-3.4H123.8z
				 M128.8,351h3.2v20.2h-3.2V351z"/>
			<path class="st0" d="M147.4,367.7v3.4h-17.7v-3.4H147.4z M114.5,359.8h3.2v11.3h-3.2V359.8z"/>
			<path class="st0" d="M144.8,351h3.2v20.2h-3.2V351z M136.7,351h3.2v20.2h-3.2V351z M94.1,359v3.4H77V359H94.1z M131.5,359v3.4
				h-17.1V359H131.5z"/>
			<path class="st0" d="M114.5,359.8h3.2v11.3h-3.2V359.8z"/>
			<path class="st0" d="M114.5,359.8h3.2v11.3h-3.2V359.8z"/>
			<path class="st0" d="M114.5,359.8h3.2v11.3h-3.2V359.8z M77,359.8h3.2v11.3H77V359.8z M104.5,359.8h3.2v11.3h-3.2V359.8z
				 M90.9,359.8h3.2v11.3h-3.2V359.8z"/>
			<path class="st0" d="M106.7,367.7v3.4H92.3v-3.4H106.7z M107.7,359v3.4h-9.1V359H107.7z"/>
		</g>
		<g>
			<path class="st0" d="M0.2,351h46.7v3.4H0.2V351z M7.2,367.8h3.2v3.3H7.2V367.8z M47,367.7v3.4h-9.3v-3.4H47z M52.1,351h3.2v20.2
				h-3.2V351z"/>
			<path class="st0" d="M70.7,367.7v3.4H53v-3.4H70.7z M37.7,359.8h3.2v11.3h-3.2V359.8z"/>
			<path class="st0" d="M68,351h3.2v20.2H68V351z M60,351h3.2v20.2H60V351z M17.3,359v3.4H0.3V359H17.3z M54.8,359v3.4H37.7V359
				H54.8z"/>
			<path class="st0" d="M37.7,359.8h3.2v11.3h-3.2V359.8z"/>
			<path class="st0" d="M37.7,359.8h3.2v11.3h-3.2V359.8z"/>
			<path class="st0" d="M37.7,359.8h3.2v11.3h-3.2V359.8z M0.3,359.8h3.2v11.3H0.3V359.8z M27.7,359.8h3.2v11.3h-3.2L27.7,359.8z
				 M14.1,359.8h3.2v11.3h-3.2V359.8z"/>
			<path class="st0" d="M30,367.7v3.4H15.5v-3.4H30z M30.9,359v3.4h-9.1V359H30.9z"/>
		</g>
		<g>
			<path class="st0" d="M153.1,351h46.7v3.4h-46.7V351z M160,367.8h3.2v3.3H160V367.8z M199.9,367.7v3.4h-9.3v-3.4H199.9z
				 M204.9,351h3.2v20.2h-3.2V351z"/>
			<path class="st0" d="M223.5,367.7v3.4h-17.7v-3.4H223.5z M190.6,359.8h3.2v11.3h-3.2V359.8z"/>
			<path class="st0" d="M220.9,351h3.2v20.2h-3.2V351z M212.9,351h3.2v20.2h-3.2V351z M170.2,359v3.4h-17.1V359H170.2z M207.6,359
				v3.4h-17.1V359H207.6z"/>
			<path class="st0" d="M190.6,359.8h3.2v11.3h-3.2V359.8z"/>
			<path class="st0" d="M190.6,359.8h3.2v11.3h-3.2V359.8z"/>
			<path class="st0" d="M190.6,359.8h3.2v11.3h-3.2V359.8z M153.1,359.8h3.2v11.3h-3.2V359.8z M180.6,359.8h3.2v11.3h-3.2V359.8z
				 M167,359.8h3.2v11.3H167L167,359.8z"/>
			<path class="st0" d="M182.8,367.7v3.4h-14.4v-3.4H182.8z M183.8,359v3.4h-9.1V359H183.8z"/>
		</g>
		<g>
			<path class="st0" d="M690.5,351h46.7v3.4h-46.7V351z M697.5,367.8h3.2v3.3h-3.2V367.8z M737.4,367.7v3.4h-9.3v-3.4H737.4z
				 M742.4,351h3.2v20.2h-3.2V351z"/>
			<path class="st0" d="M761,367.7v3.4h-17.7v-3.4H761z M728.1,359.8h3.2v11.3h-3.2V359.8z"/>
			<path class="st0" d="M758.4,351h3.2v20.2h-3.2V351z M750.3,351h3.2v20.2h-3.2V351z M707.7,359v3.4h-17.1V359H707.7z M745.1,359
				v3.4h-17.1V359H745.1z"/>
			<path class="st0" d="M728.1,359.8h3.2v11.3h-3.2V359.8z"/>
			<path class="st0" d="M728.1,359.8h3.2v11.3h-3.2V359.8z"/>
			<path class="st0" d="M728.1,359.8h3.2v11.3h-3.2V359.8z M690.6,359.8h3.2v11.3h-3.2V359.8z M718.1,359.8h3.2v11.3h-3.2
				L718.1,359.8z M704.5,359.8h3.2v11.3h-3.2V359.8z"/>
			<path class="st0" d="M720.3,367.7v3.4h-14.4v-3.4H720.3z M721.3,359v3.4h-9.1V359H721.3z"/>
		</g>
		<g>
			<path class="st0" d="M229.7,351h46.7v3.4h-46.7V351z M236.6,367.8h3.2v3.3h-3.2V367.8z M276.5,367.7v3.4h-9.3v-3.4H276.5z
				 M281.5,351h3.2v20.2h-3.2V351z"/>
			<path class="st0" d="M300.1,367.7v3.4h-17.7v-3.4H300.1z M267.2,359.8h3.2v11.3h-3.2V359.8z"/>
			<path class="st0" d="M297.5,351h3.2v20.2h-3.2V351z M289.5,351h3.2v20.2h-3.2V351z M246.8,359v3.4h-17.1V359H246.8z M284.2,359
				v3.4h-17.1V359H284.2z"/>
			<path class="st0" d="M267.2,359.8h3.2v11.3h-3.2V359.8z"/>
			<path class="st0" d="M267.2,359.8h3.2v11.3h-3.2V359.8z"/>
			<path class="st0" d="M267.2,359.8h3.2v11.3h-3.2V359.8z M229.8,359.8h3.2v11.3h-3.2V359.8z M257.2,359.8h3.2v11.3h-3.2
				L257.2,359.8z M243.6,359.8h3.2v11.3h-3.2V359.8z"/>
			<path class="st0" d="M259.4,367.7v3.4H245v-3.4H259.4z M260.4,359v3.4h-9.1V359H260.4z"/>
		</g>
		<g>
			<path class="st0" d="M306.6,351h46.7v3.4h-46.7V351z M313.5,367.8h3.2v3.3h-3.2V367.8z M353.4,367.7v3.4h-9.3v-3.4H353.4z
				 M358.4,351h3.2v20.2h-3.2V351z"/>
			<path class="st0" d="M377,367.7v3.4h-17.7v-3.4H377z M344.1,359.8h3.2v11.3h-3.2V359.8z"/>
			<path class="st0" d="M374.4,351h3.2v20.2h-3.2V351z M366.4,351h3.2v20.2h-3.2V351z M323.7,359v3.4h-17.1V359H323.7z M361.1,359
				v3.4h-17.1V359H361.1z"/>
			<path class="st0" d="M344.1,359.8h3.2v11.3h-3.2V359.8z"/>
			<path class="st0" d="M344.1,359.8h3.2v11.3h-3.2V359.8z"/>
			<path class="st0" d="M344.1,359.8h3.2v11.3h-3.2V359.8z M306.6,359.8h3.2v11.3h-3.2V359.8z M334.1,359.8h3.2v11.3h-3.2
				L334.1,359.8z M320.5,359.8h3.2v11.3h-3.2V359.8z"/>
			<path class="st0" d="M336.3,367.7v3.4h-14.4v-3.4H336.3z M337.3,359v3.4h-9.1V359H337.3z"/>
		</g>
		<path class="st2" d="M-85.3,0H768v168.2H-85.3L-85.3,0z"/>
		<g>
			<path class="st0" d="M383.9,351h46.7v3.4h-46.7V351z M390.9,367.8h3.2v3.3h-3.2V367.8z M430.8,367.7v3.4h-9.3v-3.4H430.8z
				 M435.8,351h3.2v20.2h-3.2V351z"/>
			<path class="st0" d="M454.4,367.7v3.4h-17.7v-3.4H454.4z M421.4,359.8h3.2v11.3h-3.2V359.8z"/>
			<path class="st0" d="M451.7,351h3.2v20.2h-3.2V351z M443.7,351h3.2v20.2h-3.2V351z M401,359v3.4H384V359H401z M438.5,359v3.4
				h-17.1V359H438.5z"/>
			<path class="st0" d="M421.4,359.8h3.2v11.3h-3.2V359.8z"/>
			<path class="st0" d="M421.4,359.8h3.2v11.3h-3.2V359.8z"/>
			<path class="st0" d="M421.4,359.8h3.2v11.3h-3.2V359.8z M384,359.8h3.2v11.3H384V359.8z M411.4,359.8h3.2v11.3h-3.2L411.4,359.8z
				 M397.8,359.8h3.2v11.3h-3.2V359.8z"/>
			<path class="st0" d="M413.7,367.7v3.4h-14.4v-3.4H413.7z M414.6,359v3.4h-9.1V359H414.6z"/>
		</g>
		<g>
			<path class="st0" d="M460.8,351h46.7v3.4h-46.7V351z M467.7,367.8h3.2v3.3h-3.2V367.8z M507.6,367.7v3.4h-9.3v-3.4H507.6z
				 M512.7,351h3.2v20.2h-3.2V351z"/>
			<path class="st0" d="M531.3,367.7v3.4h-17.7v-3.4H531.3z M498.3,359.8h3.2v11.3h-3.2V359.8z"/>
			<path class="st0" d="M528.6,351h3.2v20.2h-3.2V351z M520.6,351h3.2v20.2h-3.2V351z M477.9,359v3.4h-17.1V359H477.9z M515.4,359
				v3.4h-17.1V359H515.4z"/>
			<path class="st0" d="M498.3,359.8h3.2v11.3h-3.2V359.8z"/>
			<path class="st0" d="M498.3,359.8h3.2v11.3h-3.2V359.8z"/>
			<path class="st0" d="M498.3,359.8h3.2v11.3h-3.2V359.8z M460.9,359.8h3.2v11.3h-3.2V359.8z M488.3,359.8h3.2v11.3h-3.2
				L488.3,359.8z M474.7,359.8h3.2v11.3h-3.2V359.8z"/>
			<path class="st0" d="M490.6,367.7v3.4h-14.4v-3.4H490.6z M491.5,359v3.4h-9.1V359H491.5z"/>
		</g>
		<g>
			<path class="st0" d="M537.7,351h46.7v3.4h-46.7V351z M544.6,367.8h3.2v3.3h-3.2V367.8z M584.5,367.7v3.4h-9.3v-3.4H584.5z
				 M589.5,351h3.2v20.2h-3.2V351z"/>
			<path class="st0" d="M608.2,367.7v3.4h-17.7v-3.4H608.2z M575.2,359.8h3.2v11.3h-3.2V359.8z"/>
			<path class="st0" d="M605.5,351h3.2v20.2h-3.2V351z M597.5,351h3.2v20.2h-3.2V351z M554.8,359v3.4h-17.1V359H554.8z M592.2,359
				v3.4h-17.1V359H592.2z"/>
			<path class="st0" d="M575.2,359.8h3.2v11.3h-3.2V359.8z"/>
			<path class="st0" d="M575.2,359.8h3.2v11.3h-3.2V359.8z"/>
			<path class="st0" d="M575.2,359.8h3.2v11.3h-3.2V359.8z M537.8,359.8h3.2v11.3h-3.2V359.8z M565.2,359.8h3.2v11.3h-3.2
				L565.2,359.8z M551.6,359.8h3.2v11.3h-3.2V359.8z"/>
			<path class="st0" d="M567.4,367.7v3.4H553v-3.4H567.4z M568.4,359v3.4h-9.1V359H568.4z"/>
		</g>
		<g>
			<path class="st0" d="M615,351h46.7v3.4H615V351z M622,367.8h3.2v3.3H622V367.8z M661.9,367.7v3.4h-9.3v-3.4H661.9z M666.9,351
				h3.2v20.2h-3.2V351z"/>
			<path class="st0" d="M685.5,367.7v3.4h-17.7v-3.4H685.5z M652.5,359.8h3.2v11.3h-3.2V359.8z"/>
			<path class="st0" d="M682.9,351h3.2v20.2h-3.2V351z M674.8,351h3.2v20.2h-3.2V351z M632.2,359v3.4h-17.1V359H632.2z M669.6,359
				v3.4h-17.1V359H669.6z"/>
			<path class="st0" d="M652.5,359.8h3.2v11.3h-3.2V359.8z"/>
			<path class="st0" d="M652.5,359.8h3.2v11.3h-3.2V359.8z"/>
			<path class="st0" d="M652.5,359.8h3.2v11.3h-3.2V359.8z M615.1,359.8h3.2v11.3h-3.2V359.8z M642.5,359.8h3.2v11.3h-3.2
				L642.5,359.8z M628.9,359.8h3.2v11.3h-3.2V359.8z"/>
			<path class="st0" d="M644.8,367.7v3.4h-14.4v-3.4H644.8z M645.7,359v3.4h-9.1V359H645.7z"/>
		</g>
		<g>
			<path class="st0" d="M-77.5,351h46.7v3.4h-46.7V351z M-70.5,367.8h3.2v3.3h-3.2V367.8z M-30.6,367.7v3.4H-40v-3.4H-30.6z
				 M-25.6,351h3.2v20.2h-3.2V351z"/>
			<path class="st0" d="M-7,367.7v3.4h-17.7v-3.4H-7z M-40,359.8h3.2v11.3H-40V359.8z"/>
			<path class="st0" d="M-9.6,351h3.2v20.2h-3.2V351z M-17.7,351h3.2v20.2h-3.2V351z M-60.3,359v3.4h-17.1V359H-60.3z M-22.9,359
				v3.4H-40V359H-22.9z"/>
			<path class="st0" d="M-40,359.8h3.2v11.3H-40V359.8z"/>
			<path class="st0" d="M-40,359.8h3.2v11.3H-40V359.8z"/>
			<path class="st0" d="M-40,359.8h3.2v11.3H-40V359.8z M-77.4,359.8h3.2v11.3h-3.2V359.8z M-50,359.8h3.2v11.3H-50L-50,359.8z
				 M-63.6,359.8h3.2v11.3h-3.2V359.8z"/>
			<path class="st0" d="M-47.7,367.7v3.4h-14.4v-3.4H-47.7z M-46.8,359v3.4h-9.1V359H-46.8z"/>
		</g>
		<g>
			<path class="st0" d="M76.9,143.4h46.7v3.4H76.9V143.4z M83.9,160.3h3.2v3.3h-3.2V160.3z M123.8,160.2v3.4h-9.3v-3.4H123.8z
				 M128.8,143.4h3.2v20.2h-3.2V143.4z"/>
			<path class="st0" d="M147.4,160.2v3.4h-17.7v-3.4H147.4z M114.5,152.3h3.2v11.3h-3.2V152.3z"/>
			<path class="st0" d="M144.8,143.4h3.2v20.2h-3.2V143.4z M136.7,143.4h3.2v20.2h-3.2V143.4z M94.1,151.5v3.4H77v-3.4H94.1z
				 M131.5,151.5v3.4h-17.1v-3.4H131.5z"/>
			<path class="st0" d="M114.5,152.3h3.2v11.3h-3.2V152.3z"/>
			<path class="st0" d="M114.5,152.3h3.2v11.3h-3.2V152.3z"/>
			<path class="st0" d="M114.5,152.3h3.2v11.3h-3.2V152.3z M77,152.3h3.2v11.3H77V152.3z M104.5,152.3h3.2v11.3h-3.2V152.3z
				 M90.9,152.3h3.2v11.3h-3.2V152.3z"/>
			<path class="st0" d="M106.7,160.2v3.4H92.3v-3.4H106.7z M107.7,151.5v3.4h-9.1v-3.4H107.7z"/>
		</g>
		<g>
			<path class="st0" d="M0.2,143.4h46.7v3.4H0.2V143.4z M7.2,160.3h3.2v3.3H7.2V160.3z M47,160.2v3.4h-9.3v-3.4H47z M52.1,143.4h3.2
				v20.2h-3.2V143.4z"/>
			<path class="st0" d="M70.7,160.2v3.4H53v-3.4H70.7z M37.7,152.3h3.2v11.3h-3.2V152.3z"/>
			<path class="st0" d="M68,143.4h3.2v20.2H68V143.4z M60,143.4h3.2v20.2H60V143.4z M17.3,151.5v3.4H0.3v-3.4H17.3z M54.8,151.5v3.4
				H37.7v-3.4H54.8z"/>
			<path class="st0" d="M37.7,152.3h3.2v11.3h-3.2V152.3z"/>
			<path class="st0" d="M37.7,152.3h3.2v11.3h-3.2V152.3z"/>
			<path class="st0" d="M37.7,152.3h3.2v11.3h-3.2V152.3z M0.3,152.3h3.2v11.3H0.3V152.3z M27.7,152.3h3.2v11.3h-3.2L27.7,152.3z
				 M14.1,152.3h3.2v11.3h-3.2V152.3z"/>
			<path class="st0" d="M30,160.2v3.4H15.5v-3.4H30z M30.9,151.5v3.4h-9.1v-3.4H30.9z"/>
		</g>
		<g>
			<path class="st0" d="M153.1,143.4h46.7v3.4h-46.7V143.4z M160,160.3h3.2v3.3H160V160.3z M199.9,160.2v3.4h-9.3v-3.4H199.9z
				 M204.9,143.4h3.2v20.2h-3.2V143.4z"/>
			<path class="st0" d="M223.5,160.2v3.4h-17.7v-3.4H223.5z M190.6,152.3h3.2v11.3h-3.2V152.3z"/>
			<path class="st0" d="M220.9,143.4h3.2v20.2h-3.2V143.4z M212.9,143.4h3.2v20.2h-3.2V143.4z M170.2,151.5v3.4h-17.1v-3.4H170.2z
				 M207.6,151.5v3.4h-17.1v-3.4H207.6z"/>
			<path class="st0" d="M190.6,152.3h3.2v11.3h-3.2V152.3z"/>
			<path class="st0" d="M190.6,152.3h3.2v11.3h-3.2V152.3z"/>
			<path class="st0" d="M190.6,152.3h3.2v11.3h-3.2V152.3z M153.1,152.3h3.2v11.3h-3.2V152.3z M180.6,152.3h3.2v11.3h-3.2V152.3z
				 M167,152.3h3.2v11.3H167L167,152.3z"/>
			<path class="st0" d="M182.8,160.2v3.4h-14.4v-3.4H182.8z M183.8,151.5v3.4h-9.1v-3.4H183.8z"/>
		</g>
		<g>
			<path class="st0" d="M690.5,143.4h46.7v3.4h-46.7V143.4z M697.5,160.3h3.2v3.3h-3.2V160.3z M737.4,160.2v3.4h-9.3v-3.4H737.4z
				 M742.4,143.4h3.2v20.2h-3.2V143.4z"/>
			<path class="st0" d="M761,160.2v3.4h-17.7v-3.4H761z M728.1,152.3h3.2v11.3h-3.2V152.3z"/>
			<path class="st0" d="M758.4,143.4h3.2v20.2h-3.2V143.4z M750.3,143.4h3.2v20.2h-3.2V143.4z M707.7,151.5v3.4h-17.1v-3.4H707.7z
				 M745.1,151.5v3.4h-17.1v-3.4H745.1z"/>
			<path class="st0" d="M728.1,152.3h3.2v11.3h-3.2V152.3z"/>
			<path class="st0" d="M728.1,152.3h3.2v11.3h-3.2V152.3z"/>
			<path class="st0" d="M728.1,152.3h3.2v11.3h-3.2V152.3z M690.6,152.3h3.2v11.3h-3.2V152.3z M718.1,152.3h3.2v11.3h-3.2
				L718.1,152.3z M704.5,152.3h3.2v11.3h-3.2V152.3z"/>
			<path class="st0" d="M720.3,160.2v3.4h-14.4v-3.4H720.3z M721.3,151.5v3.4h-9.1v-3.4H721.3z"/>
		</g>
		<g>
			<path class="st0" d="M229.7,143.4h46.7v3.4h-46.7V143.4z M236.6,160.3h3.2v3.3h-3.2V160.3z M276.5,160.2v3.4h-9.3v-3.4H276.5z
				 M281.5,143.4h3.2v20.2h-3.2V143.4z"/>
			<path class="st0" d="M300.1,160.2v3.4h-17.7v-3.4H300.1z M267.2,152.3h3.2v11.3h-3.2V152.3z"/>
			<path class="st0" d="M297.5,143.4h3.2v20.2h-3.2V143.4z M289.5,143.4h3.2v20.2h-3.2V143.4z M246.8,151.5v3.4h-17.1v-3.4H246.8z
				 M284.2,151.5v3.4h-17.1v-3.4H284.2z"/>
			<path class="st0" d="M267.2,152.3h3.2v11.3h-3.2V152.3z"/>
			<path class="st0" d="M267.2,152.3h3.2v11.3h-3.2V152.3z"/>
			<path class="st0" d="M267.2,152.3h3.2v11.3h-3.2V152.3z M229.8,152.3h3.2v11.3h-3.2V152.3z M257.2,152.3h3.2v11.3h-3.2
				L257.2,152.3z M243.6,152.3h3.2v11.3h-3.2V152.3z"/>
			<path class="st0" d="M259.4,160.2v3.4H245v-3.4H259.4z M260.4,151.5v3.4h-9.1v-3.4H260.4z"/>
		</g>
		<g>
			<path class="st0" d="M306.6,143.4h46.7v3.4h-46.7V143.4z M313.5,160.3h3.2v3.3h-3.2V160.3z M353.4,160.2v3.4h-9.3v-3.4H353.4z
				 M358.4,143.4h3.2v20.2h-3.2V143.4z"/>
			<path class="st0" d="M377,160.2v3.4h-17.7v-3.4H377z M344.1,152.3h3.2v11.3h-3.2V152.3z"/>
			<path class="st0" d="M374.4,143.4h3.2v20.2h-3.2V143.4z M366.4,143.4h3.2v20.2h-3.2V143.4z M323.7,151.5v3.4h-17.1v-3.4H323.7z
				 M361.1,151.5v3.4h-17.1v-3.4H361.1z"/>
			<path class="st0" d="M344.1,152.3h3.2v11.3h-3.2V152.3z"/>
			<path class="st0" d="M344.1,152.3h3.2v11.3h-3.2V152.3z"/>
			<path class="st0" d="M344.1,152.3h3.2v11.3h-3.2V152.3z M306.6,152.3h3.2v11.3h-3.2V152.3z M334.1,152.3h3.2v11.3h-3.2
				L334.1,152.3z M320.5,152.3h3.2v11.3h-3.2V152.3z"/>
			<path class="st0" d="M336.3,160.2v3.4h-14.4v-3.4H336.3z M337.3,151.5v3.4h-9.1v-3.4H337.3z"/>
		</g>
		<g>
			<path class="st0" d="M383.9,143.4h46.7v3.4h-46.7V143.4z M390.9,160.3h3.2v3.3h-3.2V160.3z M430.8,160.2v3.4h-9.3v-3.4H430.8z
				 M435.8,143.4h3.2v20.2h-3.2V143.4z"/>
			<path class="st0" d="M454.4,160.2v3.4h-17.7v-3.4H454.4z M421.4,152.3h3.2v11.3h-3.2V152.3z"/>
			<path class="st0" d="M451.7,143.4h3.2v20.2h-3.2V143.4z M443.7,143.4h3.2v20.2h-3.2V143.4z M401,151.5v3.4H384v-3.4H401z
				 M438.5,151.5v3.4h-17.1v-3.4H438.5z"/>
			<path class="st0" d="M421.4,152.3h3.2v11.3h-3.2V152.3z"/>
			<path class="st0" d="M421.4,152.3h3.2v11.3h-3.2V152.3z"/>
			<path class="st0" d="M421.4,152.3h3.2v11.3h-3.2V152.3z M384,152.3h3.2v11.3H384V152.3z M411.4,152.3h3.2v11.3h-3.2L411.4,152.3z
				 M397.8,152.3h3.2v11.3h-3.2V152.3z"/>
			<path class="st0" d="M413.7,160.2v3.4h-14.4v-3.4H413.7z M414.6,151.5v3.4h-9.1v-3.4H414.6z"/>
		</g>
		<g>
			<path class="st0" d="M460.8,143.4h46.7v3.4h-46.7V143.4z M467.7,160.3h3.2v3.3h-3.2V160.3z M507.6,160.2v3.4h-9.3v-3.4H507.6z
				 M512.7,143.4h3.2v20.2h-3.2V143.4z"/>
			<path class="st0" d="M531.3,160.2v3.4h-17.7v-3.4H531.3z M498.3,152.3h3.2v11.3h-3.2V152.3z"/>
			<path class="st0" d="M528.6,143.4h3.2v20.2h-3.2V143.4z M520.6,143.4h3.2v20.2h-3.2V143.4z M477.9,151.5v3.4h-17.1v-3.4H477.9z
				 M515.4,151.5v3.4h-17.1v-3.4H515.4z"/>
			<path class="st0" d="M498.3,152.3h3.2v11.3h-3.2V152.3z"/>
			<path class="st0" d="M498.3,152.3h3.2v11.3h-3.2V152.3z"/>
			<path class="st0" d="M498.3,152.3h3.2v11.3h-3.2V152.3z M460.9,152.3h3.2v11.3h-3.2V152.3z M488.3,152.3h3.2v11.3h-3.2
				L488.3,152.3z M474.7,152.3h3.2v11.3h-3.2V152.3z"/>
			<path class="st0" d="M490.6,160.2v3.4h-14.4v-3.4H490.6z M491.5,151.5v3.4h-9.1v-3.4H491.5z"/>
		</g>
		<g>
			<path class="st0" d="M537.7,143.4h46.7v3.4h-46.7V143.4z M544.6,160.3h3.2v3.3h-3.2V160.3z M584.5,160.2v3.4h-9.3v-3.4H584.5z
				 M589.5,143.4h3.2v20.2h-3.2V143.4z"/>
			<path class="st0" d="M608.2,160.2v3.4h-17.7v-3.4H608.2z M575.2,152.3h3.2v11.3h-3.2V152.3z"/>
			<path class="st0" d="M605.5,143.4h3.2v20.2h-3.2V143.4z M597.5,143.4h3.2v20.2h-3.2V143.4z M554.8,151.5v3.4h-17.1v-3.4H554.8z
				 M592.2,151.5v3.4h-17.1v-3.4H592.2z"/>
			<path class="st0" d="M575.2,152.3h3.2v11.3h-3.2V152.3z"/>
			<path class="st0" d="M575.2,152.3h3.2v11.3h-3.2V152.3z"/>
			<path class="st0" d="M575.2,152.3h3.2v11.3h-3.2V152.3z M537.8,152.3h3.2v11.3h-3.2V152.3z M565.2,152.3h3.2v11.3h-3.2
				L565.2,152.3z M551.6,152.3h3.2v11.3h-3.2V152.3z"/>
			<path class="st0" d="M567.4,160.2v3.4H553v-3.4H567.4z M568.4,151.5v3.4h-9.1v-3.4H568.4z"/>
		</g>
		<g>
			<path class="st0" d="M615,143.4h46.7v3.4H615V143.4z M622,160.3h3.2v3.3H622V160.3z M661.9,160.2v3.4h-9.3v-3.4H661.9z
				 M666.9,143.4h3.2v20.2h-3.2V143.4z"/>
			<path class="st0" d="M685.5,160.2v3.4h-17.7v-3.4H685.5z M652.5,152.3h3.2v11.3h-3.2V152.3z"/>
			<path class="st0" d="M682.9,143.4h3.2v20.2h-3.2V143.4z M674.8,143.4h3.2v20.2h-3.2V143.4z M632.2,151.5v3.4h-17.1v-3.4H632.2z
				 M669.6,151.5v3.4h-17.1v-3.4H669.6z"/>
			<path class="st0" d="M652.5,152.3h3.2v11.3h-3.2V152.3z"/>
			<path class="st0" d="M652.5,152.3h3.2v11.3h-3.2V152.3z"/>
			<path class="st0" d="M652.5,152.3h3.2v11.3h-3.2V152.3z M615.1,152.3h3.2v11.3h-3.2V152.3z M642.5,152.3h3.2v11.3h-3.2
				L642.5,152.3z M628.9,152.3h3.2v11.3h-3.2V152.3z"/>
			<path class="st0" d="M644.8,160.2v3.4h-14.4v-3.4H644.8z M645.7,151.5v3.4h-9.1v-3.4H645.7z"/>
		</g>
		<g>
			<path class="st0" d="M-77.5,143.4h46.7v3.4h-46.7V143.4z M-70.5,160.3h3.2v3.3h-3.2V160.3z M-30.6,160.2v3.4H-40v-3.4H-30.6z
				 M-25.6,143.4h3.2v20.2h-3.2V143.4z"/>
			<path class="st0" d="M-7,160.2v3.4h-17.7v-3.4H-7z M-40,152.3h3.2v11.3H-40V152.3z"/>
			<path class="st0" d="M-9.6,143.4h3.2v20.2h-3.2V143.4z M-17.7,143.4h3.2v20.2h-3.2V143.4z M-60.3,151.5v3.4h-17.1v-3.4H-60.3z
				 M-22.9,151.5v3.4H-40v-3.4H-22.9z"/>
			<path class="st0" d="M-40,152.3h3.2v11.3H-40V152.3z"/>
			<path class="st0" d="M-40,152.3h3.2v11.3H-40V152.3z"/>
			<path class="st0" d="M-40,152.3h3.2v11.3H-40V152.3z M-77.4,152.3h3.2v11.3h-3.2V152.3z M-50,152.3h3.2v11.3H-50L-50,152.3z
				 M-63.6,152.3h3.2v11.3h-3.2V152.3z"/>
			<path class="st0" d="M-47.7,160.2v3.4h-14.4v-3.4H-47.7z M-46.8,151.5v3.4h-9.1v-3.4H-46.8z"/>
		</g>
		<g>
			<path class="st3" d="M32,339.5h5.8V350H32V339.5z M184.9,339.5h5.8V350h-5.8V339.5z M-85.3,339.5h5.8V350h-5.8V339.5z
				 M-7.7,339.5H-2V350h-5.8V339.5z M69.3,339.5h5.8V350h-5.8V339.5z M107.4,339.5h5.8V350h-5.8L107.4,339.5z M146.3,339.5h5.8V350
				h-5.8V339.5z M223,339.5h5.8V350H223V339.5z M416.4,339.5h5.8V350h-5.8V339.5z M261.9,339.5h5.8V350h-5.8V339.5z M300,339.5h5.8
				V350H300V339.5z M338.5,339.5h5.8V350h-5.8L338.5,339.5z M377.1,339.5h5.8V350h-5.8V339.5z M684.8,339.5h5.8V350h-5.8
				L684.8,339.5z M453.7,339.5h5.8V350h-5.8V339.5z M492.6,339.5h5.8V350h-5.8V339.5z M531.9,339.5h5.8V350h-5.8V339.5z
				 M568.8,339.5h5.8V350h-5.8V339.5z M608.2,339.5h5.8V350h-5.8V339.5z M646.7,339.5h5.8V350h-5.8V339.5z M760.6,339.5h5.8V350
				h-5.8V339.5z M723.7,339.5h5.8V350h-5.8V339.5z M-46.6,339.5h5.8V350h-5.8V339.5z"/>
		</g>
		<g>
			<path class="st4" d="M32,162.6h5.8v10.5H32V162.6z M184.9,162.6h5.8v10.5h-5.8V162.6z M-85.3,162.6h5.8v10.5h-5.8V162.6z
				 M-7.7,162.6H-2v10.5h-5.8V162.6z M69.3,162.6h5.8v10.5h-5.8V162.6z M107.4,162.6h5.8v10.5h-5.8L107.4,162.6z M146.3,162.6h5.8
				v10.5h-5.8V162.6z M223,162.6h5.8v10.5H223V162.6z M416.4,162.6h5.8v10.5h-5.8V162.6z M261.9,162.6h5.8v10.5h-5.8V162.6z
				 M300,162.6h5.8v10.5H300V162.6z M338.5,162.6h5.8v10.5h-5.8L338.5,162.6z M377.1,162.6h5.8v10.5h-5.8V162.6z M684.8,162.6h5.8
				v10.5h-5.8L684.8,162.6z M453.7,162.6h5.8v10.5h-5.8V162.6z M492.6,162.6h5.8v10.5h-5.8V162.6z M531.9,162.6h5.8v10.5h-5.8V162.6
				z M568.8,162.6h5.8v10.5h-5.8V162.6z M608.2,162.6h5.8v10.5h-5.8V162.6z M646.7,162.6h5.8v10.5h-5.8V162.6z M760.6,162.6h5.8
				v10.5h-5.8V162.6z M723.7,162.6h5.8v10.5h-5.8V162.6z M-46.6,162.6h5.8v10.5h-5.8V162.6z"/>
		</g>
		<g>
			<path class="st1" d="M386.5,197.5c8.5,10.4,34.5,67.7-15.7,105.2c-23.6,17.8-9,18.7-8.3,21.7c38-20.2,50.4-47.5,50.1-72
				C412.3,227.9,399.3,206.3,386.5,197.5L386.5,197.5z"/>
			<path class="st1" d="M391.5,194.8c18.8,9.6,59.6,57.9,15.6,112.3C434.4,301.1,469.1,220.8,391.5,194.8L391.5,194.8z M333.9,194.8
				c-18.7,9.6-59.6,57.9-15.6,112.3C291,301.1,256.3,220.8,333.9,194.8L333.9,194.8z"/>
			<path class="st1" d="M338.9,197.5c-8.5,10.4-34.5,67.7,15.7,105.2c23.6,17.8,9,18.7,8.3,21.7c-38-20.2-50.4-47.5-50.1-72
				C313.1,227.9,326.1,206.3,338.9,197.5L338.9,197.5z"/>
			<path class="st1" d="M410.9,319.1c-14.9,0.2-33.6-2-47.5-9.3c2.3,4.5,4.2,7.3,6.5,11.7C383.1,322.8,401.4,324.3,410.9,319.1
				L410.9,319.1z M315.9,319.1c14.9,0.2,33.6-2,47.5-9.3c-2.3,4.5-4.2,7.3-6.5,11.7C343.7,322.8,325.4,324.3,315.9,319.1
				L315.9,319.1z M343.2,180.4c3,8,10.9,9.2,19.4,4.5c6.2,3.7,15.7,3.9,19-4.1c2.5,19.8-18.3,15.1-19.1,11.2
				C354.7,199.5,340.3,195.2,343.2,180.4L343.2,180.4z"/>
			<path class="st1" d="M363.1,331.6l7.8-8.9l1.1-120.2l-9.3-8.2l-9.3,7.8l1.9,120.9L363.1,331.6L363.1,331.6z"/>
		</g>
	</g>
</g>
</svg>
