<?xml version="1.0" encoding="utf-8"?>
<!-- Generator: Adobe Illustrator 20.0.0, SVG Export Plug-In . SVG Version: 6.00 Build 0)  -->
<!DOCTYPE svg PUBLIC "-//W3C//DTD SVG 1.1//EN" "http://www.w3.org/Graphics/SVG/1.1/DTD/svg11.dtd">
<svg version="1.1" id="Layer_1" xmlns="http://www.w3.org/2000/svg" xmlns:xlink="http://www.w3.org/1999/xlink" x="0px" y="0px"
	 viewBox="0 0 800 480" style="enable-background:new 0 0 800 480;" xml:space="preserve">
<style type="text/css">
	.st0{fill:#FFFFFF;}
	.st1{fill:#DF112D;}
	.st2{fill:#E8112D;stroke:#000000;stroke-width:0.125;}
	.st3{fill:#F9DD16;stroke:#000000;stroke-width:0.125;}
	.st4{fill:none;stroke:#000000;stroke-width:0.125;}
	.st5{fill:#FF0016;stroke:#000000;stroke-width:6.300000e-02;}
	.st6{stroke:#000000;stroke-width:6.300000e-02;}
	.st7{fill:#0051BA;stroke:#000000;stroke-width:1.300000e-02;}
</style>
<g>
	<g transform="matrix(.75 0 0 .75 3.94 2.25)">
		<path class="st0" d="M-5.3-3h1066.7v640H-5.3V-3z"/>
		<path class="st1" d="M-5.3-3v41.1L459.2,317L-5.3,595.9V637h70l463.4-278.9L991.4,637h70v-41.1L597,317l464.4-278.9V-3h-70
			L528.1,275.9L64.7-3H-5.3z"/>
		<g transform="translate(-9.649 -6.038) scale(.20361)">
			<path class="st2" d="M2915.1,485.2c67.3,272.6,30.4,609.3-273.7,796.1c-304.1-186.8-341-523.5-273.7-796.1
				C2439.4,420.1,2765.2,379.9,2915.1,485.2z"/>
			<path class="st3" d="M2640.9,430.5c111.5,0,215.3,29.5,276.5,67.8c12-94,54.6-188,104.9-259c-52.5-1.1-76,26.8-76.5,55.7
				c-13.1-37.2-64.5-35-80.3-14.7c57.4,38.8,13.1,107.6-38.8,93.4c-24.4-6.7-37.3-23.7-41.8-48.4c15.5-1,27.4-14.4,26.4-29.9
				s-14.4-27.4-29.9-26.4s-27.4,14.4-26.4,29.9c0.7,11,7.7,20.5,17.9,24.5c-16.4,26.8-45.8,34.8-66.9,28.9
				c-27.3-7.7-38.8-32.3-38.8-54.1c0-56.8,54.6-65.6,71-55.7c-1.1-38.3-61.2-68.8-79.8-37.2c20.8-37.2,19.7-89.6-17.5-124.6
				c-37.1,35-38.3,87.4-17.5,124.6c-18.6-31.7-78.7-1.1-79.8,37.2c16.4-9.8,71-1.1,71,55.7c0,21.8-11.5,46.4-38.8,54.1
				c-21.1,5.9-50.5-2.1-66.9-28.9c4.5-1.7,8.6-4.5,11.8-8.5c9.8-12.1,8-29.9-4.1-39.7c-12.1-9.8-29.9-8-39.7,4.1s-8,29.9,4.1,39.7
				c4.5,3.7,10.1,5.9,15.9,6.2c-4.6,24.7-17.5,41.7-41.8,48.4c-51.9,14.2-96.2-54.7-38.8-93.4c-15.8-20.2-67.2-22.4-80.3,14.7
				c-0.6-28.9-24-56.8-76.5-55.7c50.3,71,92.9,165,104.9,259C2425.6,460,2529.5,430.5,2640.9,430.5L2640.9,430.5z"/>
			<g id="b">
				<g>
					<path class="st3" d="M2872.2,697.9c-6.7,1.6-6.7,10.3-10.2,10.3c17.5-0.5,26-5.3,31.3-14.1c-3.8,3.5-0.5,10.2-1.8,11.9
						c12.8-4.5,18.9-15.4,14.4-22.8c2.9,4.2,11.2,6.4,13.8,6.7c-9-7-2.6-23.1-17-31.4c4.8-0.3,14.1,5.1,16.7,11.5
						c-2.2-14.4-4.5-23.7-16.4-31.7c1.3,1.5,8,2.7,10.9,0c-7.7-4.8-9.9-12.8-9.3-17.9c0.9-7.2-3.9-8.7-12.8-6.4
						c-8.1,2-26.6,3.2-37.5,3.2c-22.4,0-42,0-60.6-12.8c27.9,11.5,63.5-12.8,63.5-33c0-22.4-27.6-40.7-83.4-28.5
						C2718,555.1,2650,550,2650,531.4s48.7-21.2,73.7-17.3c25,3.8,42.9,6.4,89.8-10.3c-11.5,4.5-48.7,5.8-78.2-2.6
						c-29.5-8.3-102-8.3-102.6,30.8s77.2,35.6,144.3,25.7c39.1-5.8,59.6-1.9,59.6,10.9c0,12.2-35.9,17.3-63.5,14.1s-55.8-2.6-88.5,7
						c-27.3,8-46.2,0-76.3,5.1c-14.6,2.5-50,0-67.5-28.8c-10.8,7.7-43.1,23.8-48.6,39.5c-7.7,14.4-2.6,28.8,7.7,42.9
						c12.9,17.8-6.4,15.1-20.2,15.7c-18.9,0.9-44.2-2-57.4-17c-11.7-13.3-27.3-23.9-39.7-14.1c-6.4,5.1-0.3,11.7,4.8,9.9
						c5-1.9,10.9,1.9,16.3,4.2c-8.6-3.7-18-0.8-21.6,2.5c-5.1,4.5,1.1,13.2,7.2,10.1c4.8-2.4,14.7-4,21.1,1.9
						c-6.9-1.3-14.1-1.1-17.6,2.7c-3.5,3.7-0.8,9.1,6.7,8.8c12-0.5,15.1,7.9,27.1,6.1c-7.4,1-11.6,4.8-13.5,7.7
						c11.2-5.1,23.6,8.7,38.2,5.5c-5.7,2.3-14.8,7.9-14.7,12.2c8.6-9.9,66.7,7.7,68-14.1c1.6,4.5,1.3,11.2-3.2,17
						c7.4-4.5,31.4-6.1,38.8-23.4c0.6,5.1-0.3,11.9-4.8,13.4c7.7,2.5,17.8-3.2,28.2-18.6c4.1-6.1,5.1-10.2,4.4-14.8
						c10.3,0.4,17.7-2.2,25.7-9c8.3-7,17.3,5.8,31.4-3.2c14.1-9,26.3-1.3,34-5.8s18.3,1.6,26.6-3.5s21.3,2.5,35.1-8.4
						c21.7,7.9,47.1,22.7,109.2,11.3c35.6-6.5,46.8,5.5,46.8,21.8c0,11.2-6.6,12.2-11.5,12.5c-19.8,1.2-28.3-7.4-36.2-4.7
						c-5.2,1.9-8.4,10.4-0.9,13.3c-6.3,3.2-5.5,9.2-2.3,11.4s11.5,0.2,17.1-2.4c-7.2,3.3-14.7,9.1-10.4,15.3
						c2.6,3.7,9.1,6.9,15.2-1.1C2853.9,703.5,2865.1,696.8,2872.2,697.9L2872.2,697.9z M2477.3,528.6c-18-7.4-24-7.6-19.9,7
						c1.8,6.3,6.1,15.1,10.4,19.1C2468,548.6,2470.2,531.8,2477.3,528.6z"/>
					<path class="st3" d="M2533.4,528.6c18-7.4,24-7.6,19.9,7c-1.8,6.3-6.1,15.1-10.4,19.1C2542.7,548.6,2540.5,531.8,2533.4,528.6z
						"/>
					<path class="st3" d="M2505.5,518.7c34,0,38.2,16,38.1,35.8c-0.1,21.5-11.7,14.1-18.3,41.7c-2.6,10.8-11.2,11.4-19.8,11.4
						c-8.7,0-17.2-0.6-19.8-11.4c-6.5-27.6-18.1-20.2-18.3-41.7C2467.2,534.7,2471.5,518.7,2505.5,518.7L2505.5,518.7z"/>
					<path class="st3" d="M2418,597.5c-8.7-5.1-14.3-1.6-17.8-0.6c11.2,2.9,11.7,17.3,37.3,24c-5.8-1.6-9,1.6-14.4-1.3
						c10.6,8.3,22.4,18,47.5,18.3c14,0.1,4.3,7.4-4.8,3.2c9.5,9.8,28.2,1.8,40.1,19.6c2.2-13.8-22.1-35.6-10.9-51.3
						c-34.6-1.5-37.4-20.7-57.4-35.9c-16.2-12.4-17.7-25-24.9-48.6c-3.3-10.7-15.8-17.4-22.7-14.8c-6.1,2.2-8.3,7.5-3.1,11.4
						s11.9,4.5,13.3,14.4c-6.8-8.1-16.9-11-21.8-6c-3,3.1-1.8,10.3,4.6,10.9c10.4,1.1,2.9,11.2,14.7,21.1
						c-10.5-11.8-19.5-12.8-25.2-6.4c-3.3,3.8,0,10.7,7.2,9.9C2390.3,564.3,2402.4,590.8,2418,597.5z M2696.8,696.6
						c-5.5,1-3.8,9.9-11.2,10.6c17.6,0,26.6-4.2,34.9-10.9c-3.8,2.2-5.4,8-5.8,11.2c9.3-8,31.4-8.7,43-6.4
						c11.5,2.3,13.5-3.2,17.6-10.6c4.2-7.4-1.6-11.6-7.4-17.3c-5.8-5.8-7.1-13.8-5.8-27.3c-30.8-41-85.9-21.2-86.6-3.2
						c19.9,23.1,22.4,20.5,39.1,23.7c16.7,3.2,26.9,3.2,15.7,12.5c-3.8,3.2-19.9,1.7-32.4,2.3c-28,1.2-40.8-19.3-49-8.7
						c-6.8,8.8,0.2,12.7,14.1,12.2c-9.6,0.1-22.3-0.4-20.2,8.5c3.7,15.1,18.1-2.8,23.7,3.4c-4.8-1.2-12.3,1.8-12.5,6.3
						c-0.3,4.5,10.7,10.4,22.7,0.9C2682.6,699.4,2689.6,696.8,2696.8,696.6L2696.8,696.6z"/>
				</g>
				<g>
					<path class="st4" d="M2720.7,634c-10-3.7-19.2-5.9-30.9-3.5 M2569.9,629.2c-8.2,17.7-3.2,26.4-2,34.6 M2482.2,545.4
						c5.7,2.8,8.8-5.2,17.1,3.3c-2.3-2.5-5.1,6.6-11.5,0.6 M2528.3,545.4c-5.7,2.8-8.8-5.2-17.1,3.3c2.3-2.5,5.1,6.6,11.5,0.6"/>
					<path class="st4" d="M2511.2,548.7c-1.9,1.6-2.1-1.3-0.7,6.3c2.7,13.9,6,20.4-5.3,20.4c-11.5,0-8-6.5-5.3-20.4
						c1.5-7.6,1.3-4.7-0.6-6.3"/>
				</g>
				<path class="st5" d="M2505.5,602c9.1,0,14.4-0.1,13-13c-0.6-5.1,6.3-7.2,3.8-15.6c2.6,10.3-16.8,9.3-16.8,4.6
					c0,4.7-19.4,5.6-16.8-4.6c-2.4,8.4,4.4,10.4,3.8,15.6C2491,601.8,2496.3,602,2505.5,602z"/>
				<g>
					<path class="st6" d="M2497.1,576l-21.9-6.1 M2497.1,577.2l-24.5-0.2 M2497.4,578.4l-20.9,5.6 M2513.6,576l21.9-6.1
						 M2513.6,577.2l24.5-0.2 M2513.4,578.4l20.9,5.6"/>
				</g>
				<g>
					<path class="st7" d="M2391.8,510.4c-6.4-7.9-22.4-1.2-22.7,8.6c5.4-6.4,14.2,2.8,19,0.9
						C2391.4,518.6,2394.3,513.7,2391.8,510.4L2391.8,510.4z M2383.6,529.2c-6.4-7.9-22.3-1.2-22.7,8.6c5.4-6.4,14.2,2.8,19,0.9
						C2383.3,537.4,2386.2,532.5,2383.6,529.2z M2379.4,554.5c-7.2-7.2-22.3,1.3-21.5,11.1c4.7-6.9,14.4,1.2,19-1.2
						C2380,562.6,2382.3,557.4,2379.4,554.5z M2387.1,632.8c-8-6.3-22,3.8-20.1,13.5c3.8-7.4,14.5-0.5,18.7-3.4
						C2388.6,640.8,2390.3,635.3,2387.1,632.8z M2386.6,649.9c-9.6-3.5-19.8,10.5-15,19.1c1.3-8.3,13.6-4.9,16.7-9
						C2390.6,657.1,2390.5,651.3,2386.6,649.9z M2398.8,662.7c-9.6-3.5-19.8,10.5-15,19.1c1.3-8.3,13.6-4.9,16.8-9
						C2402.7,669.9,2402.7,664.1,2398.8,662.7z M2649.2,687.5c-9.6-3.5-19.8,10.5-15,19.1c1.3-8.3,13.6-4.9,16.7-9
						C2653.2,694.7,2653.1,688.9,2649.2,687.5z M2662.3,699.1c-9.9-2.4-18.5,12.6-12.7,20.7c0.4-8.4,13-6.4,15.6-10.9
						C2667,705.8,2666.3,700.1,2662.3,699.1z M2653.1,671c-8.8-5.1-21.3,6.9-18,16.2c2.7-7.9,14.3-2.5,18-6
						C2655.7,678.8,2656.7,673.1,2653.1,671z M2831.2,691.1c-9.9-2.4-18.5,12.6-12.7,20.7c0.4-8.4,13-6.4,15.6-10.9
						C2835.9,697.8,2835.2,692.1,2831.2,691.1z M2831.6,675.4c-9-4.8-21,7.7-17.5,16.9c2.5-8,14.2-3,17.8-6.7
						C2834.6,683,2835.3,677.3,2831.6,675.4z M2838.5,705.2c-10-2-17.9,13.4-11.8,21.2c0-8.4,12.7-7,15.1-11.6
						C2843.5,711.6,2842.5,706,2838.5,705.2z M2506.1,594.3c6.3,0,8.8,1.8,8.8,13.2c0,24-0.3,34.3-8,34.3s-7.2-9.8-7.2-27.4
						c0-9.2,0-13.8-1.9-13C2497.8,595.3,2500.5,594.3,2506.1,594.3L2506.1,594.3z"/>
				</g>
			</g>
			<g transform="matrix(.9 0 0 .9 11.6 13.7)">
				<g id="b_1_">
					<g>
						<path class="st3" d="M3133.6,1030.5c-6,1.4-6,9.2-9.2,9.2c15.7-0.4,23.4-4.8,28.1-12.7c-3.5,3.2-0.4,9.2-1.6,10.7
							c11.5-4,17-13.9,13-20.5c2.6,3.7,10.1,5.8,12.4,6c-8.1-6.3-2.3-20.8-15.3-28.3c4.3-0.3,12.7,4.6,15,10.4
							c-2-13-4.1-21.4-14.7-28.6c1.2,1.3,7.2,2.5,9.8,0c-6.9-4.3-8.9-11.5-8.4-16.1c0.8-6.5-3.5-7.8-11.6-5.8
							c-7.3,1.8-23.9,2.9-33.8,2.9c-20.2,0-37.8,0-54.5-11.6c25.1,10.4,57.1-11.5,57.1-29.7c0-20.2-24.8-36.7-75-25.7
							s-111.4,6.4-111.4-10.4c0-16.7,43.9-19.1,66.4-15.6s38.6,5.8,80.8-9.2c-10.4,4-43.9,5.2-70.4-2.3
							c-26.6-7.5-91.8-7.5-92.4,27.7c-0.6,35.2,69.4,32,129.9,23.1c35.2-5.2,53.7-1.7,53.7,9.8c0,11-32.3,15.6-57.1,12.7
							c-24.8-2.9-50.2-2.3-79.6,6.3c-24.6,7.2-41.5,0-68.7,4.6c-13.2,2.2-45,0-60.7-26c-9.7,6.9-38.8,21.4-43.7,35.6
							c-6.9,13-2.3,25.9,6.9,38.6c11.6,16-5.8,13.6-18.2,14.2c-17,0.8-39.8-1.8-51.7-15.3c-10.5-11.9-24.5-21.5-35.7-12.7
							c-5.8,4.6-0.2,10.6,4.3,8.9c4.5-1.7,9.8,1.7,14.7,3.8c-7.7-3.3-16.2-0.7-19.5,2.2c-4.6,4.1,1,11.9,6.5,9.1
							c4.3-2.2,13.2-3.6,19,1.7c-6.2-1.2-12.7-1-15.8,2.4s-0.7,8.2,6,7.9c10.8-0.5,13.6,7.1,24.4,5.5c-6.6,0.9-10.4,4.3-12.1,6.9
							c10.1-4.6,21.3,7.9,34.3,4.9c-5.1,2.1-13.3,7.1-13.3,11c7.8-8.9,60,6.9,61.2-12.7c1.4,4,1.2,10.1-2.9,15.3
							c6.7-4,28.3-5.5,34.9-21.1c0.6,4.6-0.3,10.7-4.3,12.1c6.9,2.3,16.1-2.9,25.4-16.7c3.7-5.5,4.6-9.2,4-13.3
							c9.3,0.3,16-2,23.2-8.1c7.5-6.3,15.6,5.2,28.3-2.9c12.7-8.1,23.7-1.2,30.6-5.2c6.9-4.1,16.5,1.4,24-3.2s19.1,2.3,31.6-7.5
							c19.5,7.1,42.4,20.4,98.3,10.1c32.1-5.9,42.1,4.9,42.1,19.6c0,10.1-5.9,11-10.4,11.3c-17.8,1.1-25.5-6.7-32.5-4.2
							c-4.7,1.7-7.6,9.4-0.8,12c-5.6,2.9-4.9,8.3-2,10.3s10.3,0.2,15.4-2.2c-6.5,2.9-13.2,8.2-9.4,13.7c2.3,3.3,8.2,6.2,13.7-1
							C3117.1,1035.6,3127.2,1029.6,3133.6,1030.5L3133.6,1030.5z M2778.2,878.2c-16.2-6.6-21.6-6.8-17.9,6.3
							c1.6,5.6,5.5,13.6,9.4,17.2C2769.9,896.2,2771.9,881.1,2778.2,878.2z"/>
						<path class="st3" d="M2828.7,878.2c16.2-6.6,21.6-6.8,17.9,6.3c-1.6,5.6-5.5,13.6-9.4,17.2
							C2837.1,896.2,2835.1,881.1,2828.7,878.2z"/>
						<path class="st3" d="M2803.6,869.3c30.6,0,34.4,14.4,34.3,32.3c-0.1,19.3-10.5,12.7-16.4,37.5c-2.3,9.7-10,10.3-17.8,10.3
							s-15.5-0.5-17.8-10.3c-5.9-24.8-16.3-18.2-16.4-37.5C2769.2,883.7,2773,869.3,2803.6,869.3L2803.6,869.3z"/>
						<path class="st3" d="M2724.9,940.2c-7.8-4.6-12.8-1.4-16-0.6c10.1,2.6,10.5,15.6,33.6,21.6c-5.2-1.4-8.1,1.4-13-1.2
							c9.5,7.5,20.2,16.2,42.7,16.5c12.6,0.1,3.9,6.6-4.3,2.9c8.5,8.8,25.4,1.6,36.1,17.6c2-12.4-19.9-32-9.8-46.2
							c-31.1-1.3-33.7-18.6-51.6-32.3c-14.6-11.2-15.9-22.5-22.4-43.8c-2.9-9.6-14.2-15.6-20.4-13.3c-5.5,2-7.4,6.7-2.8,10.3
							c4.7,3.5,10.7,4,12,13c-6.1-7.3-15.2-9.9-19.6-5.4c-2.7,2.8-1.6,9.3,4.1,9.8c9.4,1,2.6,10.1,13.3,19
							c-9.4-10.6-17.6-11.6-22.6-5.8c-3,3.5,0,9.6,6.5,8.9C2699.9,910.4,2710.8,934.2,2724.9,940.2z M2975.8,1029.4
							c-4.9,0.9-3.5,8.9-10.1,9.5c15.9,0,23.9-3.7,31.4-9.8c-3.5,2-4.9,7.2-5.2,10.1c8.4-7.2,28.3-7.8,38.7-5.8s12.1-2.9,15.9-9.5
							c3.8-6.6-1.4-10.4-6.6-15.6c-5.2-5.2-6.4-12.4-5.2-24.5c-27.7-36.9-77.3-19-77.9-2.9c17.9,20.8,20.2,18.5,35.2,21.4
							s24.2,2.9,14.1,11.3c-3.5,2.9-17.9,1.5-29.1,2c-25.2,1.1-36.7-17.4-44.1-7.8c-6.1,7.9,0.2,11.4,12.7,10.9
							c-8.6,0.1-20.1-0.4-18.1,7.7c3.3,13.6,16.3-2.5,21.3,3.1c-4.3-1-11,1.6-11.3,5.7c-0.2,4.1,9.6,9.4,20.4,0.8
							C2963,1031.9,2969.3,1029.6,2975.8,1029.4L2975.8,1029.4z"/>
					</g>
					<g>
						<path class="st4" d="M2997.3,973.1c-9-3.3-17.3-5.3-27.8-3.1 M2861.6,968.8c-7.4,15.9-2.9,23.8-1.8,31.2 M2782.6,893.3
							c5.1,2.6,7.9-4.6,15.4,3c-2.1-2.2-4.6,5.9-10.3,0.5 M2824.1,893.3c-5.1,2.6-7.9-4.6-15.4,3c2.1-2.2,4.6,5.9,10.3,0.5"/>
						<path class="st4" d="M2808.8,896.3c-1.7,1.4-1.9-1.2-0.6,5.7c2.5,12.5,5.4,18.4-4.8,18.4c-10.3,0-7.2-5.9-4.8-18.4
							c1.3-6.8,1.2-4.2-0.6-5.7"/>
					</g>
					<path class="st5" d="M2803.6,944.3c8.2,0,13-0.1,11.7-11.7c-0.5-4.6,5.6-6.5,3.5-14c2.3,9.2-15.1,8.4-15.1,4.2
						c0,4.2-17.5,5.1-15.1-4.2c-2.2,7.5,4,9.4,3.5,14C2790.6,944.1,2795.4,944.3,2803.6,944.3z"/>
					<g>
						<path class="st6" d="M2796.1,920.9l-19.7-5.5 M2796.1,921.9l-22-0.2 M2796.3,923.1l-18.8,5 M2810.9,920.9l19.7-5.5
							 M2810.9,921.9l22-0.2 M2810.7,923.1l18.8,5"/>
					</g>
					<g>
						<path class="st7" d="M2701.2,861.9c-5.7-7.1-20.1-1.1-20.4,7.8c4.9-5.8,12.8,2.5,17.1,0.8
							C2700.9,869.2,2703.6,864.8,2701.2,861.9L2701.2,861.9z M2693.9,878.8c-5.7-7.1-20.1-1.1-20.4,7.8c4.8-5.8,12.8,2.5,17.1,0.8
							C2693.7,886.1,2696.3,881.7,2693.9,878.8z M2690.1,901.5c-6.5-6.5-20.1,1.2-19.4,10c4.2-6.2,13,1.1,17.1-1.1
							C2690.6,908.8,2692.8,904.1,2690.1,901.5z M2697,971.9c-7.2-5.7-19.8,3.5-18.1,12.2c3.4-6.7,13-0.4,16.8-3.1
							C2698.4,979.2,2700,974.3,2697,971.9z M2696.6,987.4c-8.6-3.2-17.8,9.4-13.5,17.1c1.2-7.4,12.2-4.4,15.1-8.1
							C2700.2,993.8,2700.1,988.7,2696.6,987.4z M2707.6,998.9c-8.6-3.2-17.8,9.4-13.5,17.1c1.2-7.4,12.3-4.4,15.1-8.1
							C2711.1,1005.3,2711.1,1000.2,2707.6,998.9z M2933,1021.2c-8.6-3.2-17.8,9.4-13.5,17.1c1.2-7.4,12.2-4.4,15.1-8.1
							C2936.5,1027.7,2936.5,1022.5,2933,1021.2z M2944.7,1031.7c-8.9-2.2-16.6,11.4-11.5,18.6c0.3-7.5,11.7-5.8,14.1-9.8
							C2948.9,1037.7,2948.3,1032.5,2944.7,1031.7z M2936.4,1006.4c-7.9-4.6-19.2,6.2-16.2,14.6c2.5-7.1,12.8-2.2,16.2-5.4
							C2938.8,1013.3,2939.7,1008.3,2936.4,1006.4z M3096.8,1024.5c-8.9-2.2-16.6,11.4-11.5,18.6c0.4-7.5,11.7-5.8,14.1-9.8
							C3101,1030.5,3100.4,1025.3,3096.8,1024.5z M3097.1,1010.3c-8.1-4.3-18.9,6.9-15.7,15.2c2.2-7.2,12.7-2.7,16.1-6
							C3099.8,1017.2,3100.4,1012.1,3097.1,1010.3z M3103.3,1037.1c-9-1.8-16.1,12.1-10.6,19.1c0-7.5,11.4-6.3,13.6-10.4
							C3107.8,1042.9,3107,1037.8,3103.3,1037.1z M2804.2,937.3c5.6,0,7.9,1.7,7.9,11.8c0,21.6-0.2,30.9-7.2,30.9s-6.5-8.8-6.5-24.7
							c0-8.3,0-12.4-1.7-11.7C2796.7,938.3,2799.1,937.3,2804.2,937.3L2804.2,937.3z"/>
					</g>
				</g>
			</g>
			<g transform="matrix(.67 0 0 .75 39.2 27.5)">
				<g id="b_2_">
					<g>
						<path class="st3" d="M4039.7,1488.2c-4.5,1.2-4.5,7.7-6.9,7.7c11.7-0.4,17.4-4,20.9-10.6c-2.6,2.6-0.3,7.7-1.2,8.9
							c8.6-3.4,12.7-11.6,9.7-17.1c1.9,3.1,7.5,4.8,9.2,5c-6-5.3-1.7-17.3-11.4-23.6c3.2-0.2,9.5,3.8,11.2,8.7
							c-1.5-10.8-3-17.8-11-23.8c0.9,1.1,5.4,2,7.3,0c-5.1-3.6-6.7-9.6-6.2-13.5c0.6-5.4-2.6-6.5-8.6-4.8
							c-5.4,1.5-17.8,2.4-25.1,2.4c-15,0-28.1,0-40.6-9.6c18.7,8.7,42.5-9.6,42.5-24.8c0-16.8-18.5-30.5-55.9-21.4
							c-37.4,9.2-82.9,5.3-82.9-8.6c0-14,32.6-15.9,49.4-13c16.8,2.9,28.8,4.8,60.1-7.7c-7.7,3.4-32.7,4.3-52.4-1.9
							c-19.8-6.3-68.3-6.3-68.8,23.1c-0.4,29.3,51.7,26.7,96.7,19.2c26.2-4.3,39.9-1.4,39.9,8.2c0,9.2-24.1,13-42.5,10.6
							c-18.5-2.4-37.4-1.9-59.3,5.3c-18.3,6-30.9,0-51.1,3.9c-9.8,1.9-33.5,0-45.2-21.6c-7.2,5.8-28.9,17.9-32.5,29.6
							c-5.2,10.8-1.7,21.6,5.1,32.2c8.7,13.3-4.3,11.3-13.5,11.8c-12.7,0.7-29.6-1.5-38.5-12.8c-7.8-10-18.3-17.9-26.6-10.6
							c-4.3,3.8-0.2,8.8,3.2,7.4s7.3,1.4,10.9,3.2c-5.7-2.8-12-0.6-14.5,1.8c-3.4,3.4,0.7,9.9,4.8,7.6c3.2-1.8,9.8-3,14.1,1.4
							c-4.6-1-9.5-0.8-11.8,2s-0.5,6.8,4.5,6.6c8-0.4,10.1,5.9,18.1,4.6c-4.9,0.7-7.7,3.6-9,5.8c7.5-3.8,15.8,6.5,25.6,4.1
							c-3.8,1.8-9.9,5.9-9.9,9.2c5.8-7.5,44.7,5.8,45.5-10.6c1.1,3.4,0.9,8.4-2.1,12.8c5-3.4,21.1-4.6,26-17.6
							c0.4,3.8-0.2,8.9-3.2,10.1c5.2,1.9,11.9-2.4,18.9-13.9c2.8-4.6,3.4-7.6,2.9-11.1c6.9,0.3,11.9-1.6,17.3-6.7
							c5.6-5.3,11.6,4.3,21.1-2.4c9.5-6.7,17.6-1,22.8-4.3c5.2-3.4,12.2,1.2,17.8-2.7c5.6-3.8,14.3,1.9,23.5-6.3
							c14.6,6,31.5,17,73.2,8.4c23.9-4.9,31.4,4.1,31.4,16.4c0,8.4-4.4,9.2-7.7,9.4c-13.3,0.9-19-5.6-24.2-3.5
							c-3.5,1.4-5.7,7.8-0.6,10c-4.2,2.4-3.7,6.9-1.5,8.6c2.1,1.6,7.7,0.2,11.4-1.8c-4.8,2.4-9.8,6.8-7,11.5
							c1.7,2.8,6.1,5.2,10.2-0.8C4027.4,1492.4,4034.9,1487.4,4039.7,1488.2L4039.7,1488.2z M3775.1,1361.2
							c-12-5.5-16.1-5.7-13.3,5.3c1.2,4.7,4.1,11.3,7,14.3C3768.9,1376.3,3770.4,1363.6,3775.1,1361.2z"/>
						<path class="st3" d="M3812.7,1361.2c12-5.5,16.1-5.7,13.3,5.3c-1.2,4.7-4.1,11.3-7,14.3
							C3818.9,1376.3,3817.4,1363.6,3812.7,1361.2z"/>
						<path class="st3" d="M3794,1353.8c22.8,0,25.6,12,25.5,26.9c-0.1,16.1-7.8,10.6-12.2,31.2c-1.7,8.1-7.5,8.5-13.3,8.5
							s-11.5-0.4-13.3-8.5c-4.4-20.7-12.1-15.1-12.2-31.2C3768.3,1365.8,3771.2,1353.8,3794,1353.8L3794,1353.8z"/>
						<path class="st3" d="M3735.4,1412.9c-5.8-3.8-9.5-1.2-11.9-0.5c7.5,2.2,7.8,13,25,18c-3.9-1.2-6,1.2-9.7-1
							c7.1,6.2,15,13.5,31.8,13.7c9.3,0.1,2.9,5.5-3.2,2.4c6.3,7.3,18.9,1.3,26.9,14.7c1.5-10.3-14.8-26.7-7.3-38.5
							c-23.2-1.1-25.1-15.5-38.4-26.9c-10.9-9.3-11.8-18.8-16.7-36.5c-2.2-8-10.6-13-15.2-11.1c-4.1,1.7-5.5,5.6-2.1,8.6
							c3.5,2.9,7.9,3.3,8.9,10.8c-4.5-6.1-11.3-8.3-14.6-4.5c-2,2.3-1.2,7.7,3.1,8.2c7,0.8,2,8.4,9.9,15.8c-7-8.8-13.1-9.6-16.9-4.8
							c-2.2,2.9,0,8,4.8,7.4C3716.8,1388,3724.9,1407.9,3735.4,1412.9z M3922.2,1487.2c-3.7,0.7-2.6,7.5-7.5,7.9
							c11.8,0,17.8-3.1,23.4-8.2c-2.6,1.7-3.6,6-3.9,8.4c6.2-6,21.1-6.5,28.8-4.8s9-2.4,11.8-7.9s-1.1-8.7-4.9-13
							c-3.9-4.3-4.7-10.3-3.9-20.4c-20.6-30.8-57.6-15.9-58-2.4c13.3,17.3,15,15.4,26.2,17.8s18,2.4,10.5,9.4
							c-2.6,2.4-13.3,1.3-21.7,1.7c-18.7,0.9-27.3-14.5-32.8-6.5c-4.6,6.6,0.1,9.5,9.4,9.1c-6.4,0.1-15-0.3-13.5,6.4
							c2.5,11.3,12.1-2.1,15.9,2.6c-3.2-0.9-8.2,1.3-8.4,4.7c-0.2,3.4,7.1,7.8,15.2,0.6C3912.6,1489.3,3917.3,1487.4,3922.2,1487.2
							L3922.2,1487.2z"/>
					</g>
					<g>
						<path class="st4" d="M3938.2,1440.3c-6.7-2.8-12.8-4.4-20.7-2.6 M3837.1,1436.7c-5.5,13.3-2.2,19.8-1.4,26 M3778.4,1373.8
							c3.8,2.1,5.9-3.9,11.5,2.5c-1.5-1.9-3.4,4.9-7.7,0.4 M3809.3,1373.8c-3.8,2.1-5.9-3.9-11.5,2.5c1.5-1.9,3.4,4.9,7.7,0.4"/>
						<path class="st4" d="M3797.8,1376.3c-1.3,1.2-1.4-1-0.4,4.7c1.8,10.4,4,15.3-3.5,15.3c-7.7,0-5.4-4.9-3.5-15.3
							c1-5.7,0.9-3.5-0.4-4.7"/>
					</g>
					<path class="st5" d="M3794,1416.3c6.1,0,9.7-0.1,8.7-9.7c-0.4-3.9,4.2-5.4,2.6-11.7c1.7,7.7-11.3,7-11.3,3.5
						c0,3.5-13,4.2-11.3-3.5c-1.6,6.3,3,7.8,2.6,11.7C3784.3,1416.2,3787.8,1416.3,3794,1416.3z"/>
					<g>
						<path class="st6" d="M3788.4,1396.8l-14.7-4.6 M3788.4,1397.7l-16.4-0.2 M3788.5,1398.6l-14,4.2 M3799.4,1396.8l14.7-4.6
							 M3799.4,1397.7l16.4-0.2 M3799.3,1398.6l14,4.2"/>
					</g>
					<g>
						<path class="st7" d="M3717.8,1347.6c-4.3-6-15-0.9-15.2,6.5c3.6-4.8,9.5,2.1,12.7,0.7
							C3717.6,1353.7,3719.5,1350,3717.8,1347.6L3717.8,1347.6z M3712.4,1361.7c-4.3-6-15-0.9-15.2,6.5c3.6-4.8,9.5,2.1,12.7,0.7
							C3712.1,1367.9,3714.1,1364.2,3712.4,1361.7z M3709.5,1380.7c-4.8-5.4-15,1-14.4,8.3c3.1-5.2,9.7,0.9,12.7-0.9
							C3709.9,1386.8,3711.5,1382.9,3709.5,1380.7z M3714.6,1439.4c-5.4-4.7-14.8,2.9-13.5,10.1c2.6-5.6,9.7-0.4,12.5-2.6
							C3715.7,1445.4,3716.8,1441.3,3714.6,1439.4z M3714.4,1452.2c-6.4-2.6-13.3,7.8-10,14.3c0.9-6.2,9.1-3.7,11.2-6.8
							C3717,1457.6,3717,1453.3,3714.4,1452.2z M3722.5,1461.8c-6.4-2.6-13.3,7.8-10.1,14.3c0.9-6.2,9.1-3.7,11.2-6.8
							C3725.1,1467.2,3725.1,1462.9,3722.5,1461.8z M3890.3,1480.4c-6.4-2.6-13.3,7.8-10,14.3c0.9-6.2,9.1-3.7,11.2-6.8
							C3892.9,1485.8,3892.9,1481.5,3890.3,1480.4z M3899,1489.1c-6.6-1.8-12.4,9.5-8.5,15.5c0.3-6.3,8.7-4.8,10.5-8.2
							C3902.2,1494.1,3901.7,1489.9,3899,1489.1z M3892.9,1468.1c-5.9-3.8-14.3,5.2-12.1,12.2c1.8-5.9,9.5-1.9,12.1-4.5
							C3894.6,1473.9,3895.3,1469.6,3892.9,1468.1z M4012.2,1483.1c-6.6-1.8-12.4,9.5-8.5,15.5c0.3-6.3,8.7-4.8,10.5-8.2
							C4015.4,1488.1,4014.9,1483.9,4012.2,1483.1z M4012.5,1471.3c-6-3.6-14.1,5.7-11.7,12.6c1.6-6,9.5-2.3,11.9-5
							C4014.5,1477.1,4015,1472.8,4012.5,1471.3z M4017.1,1493.7c-6.7-1.5-12,10.1-7.9,15.9c0-6.3,8.5-5.2,10.1-8.7
							C4020.4,1498.5,4019.8,1494.3,4017.1,1493.7z M3794.4,1410.5c4.2,0,5.9,1.4,5.9,9.9c0,18-0.2,25.7-5.4,25.7s-4.8-7.4-4.8-20.6
							c0-6.9,0-10.3-1.2-9.8C3788.9,1411.3,3790.7,1410.5,3794.4,1410.5L3794.4,1410.5z"/>
					</g>
				</g>
			</g>
		</g>
	</g>
</g>
</svg>
