<?xml version="1.0" encoding="utf-8"?>
<!-- Generator: Adobe Illustrator 20.0.0, SVG Export Plug-In . SVG Version: 6.00 Build 0)  -->
<!DOCTYPE svg PUBLIC "-//W3C//DTD SVG 1.1//EN" "http://www.w3.org/Graphics/SVG/1.1/DTD/svg11.dtd">
<svg version="1.1" id="Layer_1" xmlns="http://www.w3.org/2000/svg" xmlns:xlink="http://www.w3.org/1999/xlink" x="0px" y="0px"
	 viewBox="0 0 800 480" style="enable-background:new 0 0 800 480;" xml:space="preserve">
<style type="text/css">
	.st0{fill:#BE0027;}
	.st1{fill:#FFFF00;}
</style>
<g>
	<g transform="translate(79.64) scale(.9375)">
		<path class="st0" d="M-84.9,0h853.3v512H-84.9V0z"/>
		<path class="st1" d="M190.5,261.1c13.7-16.6,41.9-0.4,65-12.4c-27.4,1.5-42.3-13.1-63.9-11.1c22.4-13.8,41.5,4.5,66.5-2.8
			c-33.2-2.8-31.7-17.6-61.9-19.7c26.8-11.4,40,11.8,66.3,6.5c-30.9-7.1-35-25.4-58-29.2c33.6-5.1,31.4,14.8,64.4,17.2
			c-33.4-14.3-24.7-26.8-52.6-37.7c31.3-0.7,29.2,20.9,60.9,26.6c-27.1-17.2-23.8-32.9-46.1-45.2c26.5,0.5,29.1,27.6,56.2,36
			c-24.1-19.2-17.8-35.3-38.7-52.4c26.4,6.2,22.5,29.6,50,44.6c-20.4-22.6-12.5-38.8-30.3-57.3c25.4,8.2,15.7,30.4,42.1,51.6
			c-15.1-24.9-5.8-40.7-20.6-61.7c23.6,12.2,12.2,34.9,34,57.6c-10.3-25.5,0-41.4-10.5-63.9c20.2,15.1,8.2,39.3,24.4,62.5
			c-5.9-31.9,7.8-37.2,3.6-65.1c15.3,18.8-1.8,37.6,9.9,65.3c-1.4-31.5,15.3-38.8,12.4-64.1c15.2,22.6-8.5,42.4,1.4,66.6
			c2.6-29.9,22.2-37.6,22.5-60.8c11.9,21.3-14.1,36.7-9.9,65c8.6-31.2,29.5-35.1,31.9-56c7.2,24.7-21.3,36.2-19.6,63.5
			c8.5-27.7,34.6-31,40-51.5c3.3,26.1-22.4,30.7-29.6,59.6c13.5-23.5,37.1-25.5,47.8-44.1c-0.8,25.8-29.8,29.2-38.7,53.4
			c16.7-20.5,37.7-16.9,54.4-35.1c-1.8,23.3-31.3,22-47,46.1c18.1-16.7,45.4-11.7,59.3-26.1c-0.7,20.6-36.9,19.1-54,37.5
			c21.1-11.5,47.8-4.8,63.2-15.5c-2.8,18.1-41.1,13.8-59.4,27.9c25.2-7,44.7,3.8,65.1-4c-9.9,17.6-44.6,6.5-63.1,17.9
			c21.9-3.7,45.1,9.6,65.1,5.3c-6.6,15.2-44.6-0.9-65.1,8.5c24.5-0.2,40.4,15.4,63.1,14.4c-12.4,13.8-45.8-5.2-65.3-1.9
			c23.8,4.9,41.9,24.6,59.9,25.5c-14.8,11.4-42.4-14.5-64.9-11.2c23.1,6.2,42.5,32.5,55.8,33c-14.3,9.8-42.5-22.5-61.9-21.3
			c23.5,10.6,34.3,37.5,49.7,41.3c-19.1,6.1-37.9-29.2-58.4-30.4c23.8,15,25.1,37.9,43.4,48.1c-19.3,4.7-33-35.2-53.3-38.5
			c19.5,14.3,22.4,44.9,35.4,54.6c-19.6,1-26.7-40.7-46.8-46.7c17.2,14.4,13.1,45.6,26.5,58.9c-20.4-4.2-17.8-40.5-39.1-52.8
			c15.3,19.3,7.5,46.8,17.5,62.3c-19.9-8-11.2-40.6-30.2-59c10.3,20.6-0.8,44.6,7.4,64.5c-18.2-8.9-5.9-47.4-19.9-62.7
			c6.4,23.8-5.4,43.5-0.6,64.8c-18.6-21.5,2.8-43.2-13.3-65.1c4.3,25.2-13.3,42.7-10.6,63.8c-14.7-17.2,7.9-44.8-3.5-66.5
			c2.5,24.8-20.3,46.4-18.7,62c-12-20,13.3-43.6,6.5-66.3c-1.4,23.6-24.4,36.4-28.7,57.9c-7.7-23.7,19.6-40.8,17.2-64.1
			c-7.8,22.1-30,31-37.8,52.5c-6.4-23.6,25.9-36.2,26.8-61c-10,23.3-36.5,28.4-45.3,46.3c-3.3-23.5,33.8-34,35.2-56.3
			c-11.9,21.4-41,22.3-51,39.3c-1.5-23.4,37.6-26.3,43.7-50.8c-11.9,18.3-43.7,15.9-57,30.8c2.1-21.7,44.4-23.1,51.1-42.6
			c-15.7,15.2-45,8.9-61.4,20.9c9.2-21.3,48.8-16.8,57.8-32.3c-17.6,9.2-48.7,0.3-64,9.4c13.9-20.2,44.8-8.1,62.3-22
			C227.2,267.2,210.2,255.9,190.5,261.1L190.5,261.1z"/>
		<path class="st1" d="M441,256.1c0,54.8-44.4,99.2-99.2,99.2c-54.8,0-99.2-44.4-99.2-99.2c0-54.8,44.4-99.2,99.2-99.2
			C396.5,156.9,441,201.3,441,256.1z"/>
		<path class="st0" d="M428.2,256.3c0,47.6-38.6,86.3-86.3,86.3c-47.6,0-86.3-38.6-86.3-86.3s38.6-86.3,86.3-86.3
			C389.6,170,428.2,208.7,428.2,256.3L428.2,256.3z"/>
		<path class="st1" d="M416.2,256.5c0,40.9-33.2,74.1-74.1,74.1c-40.9,0-74.1-33.2-74.1-74.1s33.2-74.1,74.1-74.1
			S416.2,215.6,416.2,256.5z"/>
		<path class="st0" d="M279.1,207.9c20.5-0.5,46,1.4,62.9,14.9c17.9-11.2,39-16.3,60.5-14.3l11,20.1c-16-1.6-31.6,0.6-50.1,8.1
			c23.6,18.7,35.4,42.8,34.6,72.1c-2.7,3.4-7,7.1-9.7,10.4c3.9-28.5-11.1-60.3-32.9-77c17.7,25.6,28.3,48.7,25.3,80.5
			c-3.2,1.9-6.9,4.5-10.1,6.4c4.6-28-1.9-60.9-22.6-80.1c11.9,17.5,23.9,49,16.4,81c-3.2,1-8.2,3.7-11.4,4.6
			c8.3-26.2,3.1-59.1-10.8-78.7c-13.8,19.8-18.3,50-10.4,77.9c-3.9-1-6.8-2.1-10.6-3.1c-5.7-30,2.2-64,15.9-81.6
			c-13.9,8.1-27.1,42.6-23.4,77.9c-3.4-1.5-5.9-2.7-9.3-4.3c-4.5-26.4,7.4-60.7,24.6-80.5c-19.5,12.3-35.3,42.3-32.5,74.7
			c-3-2.6-5.7-3.9-8.7-6.6c-3.4-28.2,12.9-56.7,32.1-73.7c-16.2-7.2-30-8.6-50.1-8.3C272.9,222.1,275.9,214.5,279.1,207.9
			L279.1,207.9z"/>
	</g>
</g>
</svg>
