<?xml version="1.0" encoding="utf-8"?>
<!-- Generator: Adobe Illustrator 20.0.0, SVG Export Plug-In . SVG Version: 6.00 Build 0)  -->
<!DOCTYPE svg PUBLIC "-//W3C//DTD SVG 1.1//EN" "http://www.w3.org/Graphics/SVG/1.1/DTD/svg11.dtd">
<svg version="1.1" id="Layer_1" xmlns="http://www.w3.org/2000/svg" xmlns:xlink="http://www.w3.org/1999/xlink" x="0px" y="0px"
	 viewBox="0 0 800 480" style="enable-background:new 0 0 800 480;" xml:space="preserve">
<style type="text/css">
	.st0{fill:#032EA1;}
	.st1{fill:#E00025;}
	.st2{fill:#FFFFFF;stroke:#000000;stroke-width:0.96;stroke-linejoin:bevel;}
	.st3{fill:#FFFFFF;stroke:#000000;stroke-width:0.945;stroke-linejoin:bevel;}
	.st4{fill:#FFFFFF;stroke:#000000;stroke-width:0.96;}
	.st5{fill:#FFFFFF;stroke:#000000;stroke-width:0.981;}
	.st6{fill:none;stroke:#000000;stroke-width:0.8;}
	.st7{fill:none;stroke:#000000;stroke-width:0.96;}
	.st8{fill:#FFFFFF;stroke:#000000;stroke-width:1.034;stroke-linejoin:bevel;}
	.st9{fill:#FFFFFF;stroke:#000000;stroke-width:1.045;}
	.st10{fill:#FFFFFF;stroke:#000000;stroke-width:1.043;}
</style>
<path class="st0" d="M0,0h800v480H0V0z"/>
<path class="st1" d="M0,120h800v240H0V120z"/>
<g transform="matrix(1.2 0 0 1.2 85.571 -521.92)">
	<g>
		<path class="st2" d="M207.9,623.5h113.8v43.8H207.9V623.5z"/>
		<path class="st2" d="M315.8,647.6h3.6v16.5h-3.6V647.6z M207.9,639.5h113.8v5.1H207.9V639.5z M207.9,632.6h113.8v4.5H207.9V632.6z
			"/>
		<path class="st3" d="M207.9,625.7h113.8v4.4H207.9V625.7z"/>
		<path class="st2" d="M237.9,647.6h3.6v16.5h-3.6V647.6z M286.9,647.6h3.6v16.5h-3.6V647.6z M208.8,647.6h3.6v16.5h-3.6V647.6z
			 M215.8,647.6h3.6v16.5h-3.6V647.6z M223.3,647.6h3.6v16.5h-3.6V647.6z M230.8,647.6h3.6v16.5h-3.6V647.6z M293.7,647.6h3.6v16.5
			h-3.6V647.6z M301.2,647.6h3.6v16.5h-3.6V647.6z M308.7,647.6h3.6v16.5h-3.6V647.6z"/>
		<path class="st4" d="M163.4,669.5c1.8-0.9,3.8-3,4.4-5.3h193.1c0.7,2.3,2.7,4.4,4.4,5.3H163.4z"/>
	</g>
	<path class="st4" d="M261.9,556.8c0,0-0.1-4.1,2.3-4.2c2.4,0,2.3,4.2,2.3,4.2H261.9z M249.4,611.3v-5.5c-0.1-2.8-2.8-3-2.8-5
		c0,0-0.3-3,0.5-4.4c1.1,4,3.1,3.3,3.1,1.6c0-1.5-1.1-2.8-3.4-6.3c-0.7-1.1-0.3-4.7,0.7-5.9c0.4,3.1,0.9,4.5,2.2,4.5
		c0.8,0,1.5-0.5,1.5-2.1c0-2-1.3-2.9-2-4.7c-0.8-2.1-0.2-4.2,1-5.4c0.5,3,0.4,4.2,1.7,4.2c2.7-0.9,0-4.8-0.6-5.8
		c-0.7-1.2,0.9-3.5,0.9-3.5c0.9,2.7,1.1,2.9,2.1,2.7c1.2-0.3,1-2.1-0.4-3.5c-0.9-0.9-0.8-2.2,0.2-3.3c1,1.9,2.2,1.8,2.3,0.7
		l-0.8-4.4h17.3l-0.9,4.2c-0.2,1.2,1.4,1.5,2.4-0.5c1,1.1,1.1,2.4,0.2,3.3c-1.4,1.4-1.6,3.1-0.4,3.5c0.9,0.3,1.2,0,2.1-2.7
		c0,0,1.4,1.6,0.9,3.5c-0.6,1-3.3,4.9-0.6,5.8c1.3,0,1.2-1.2,1.7-4.2c1.3,1.2,1.8,3.3,1,5.4c-0.7,1.8-2,2.8-2,4.7
		c0,1.5,0.7,2.1,1.5,2.1c1.3,0,1.8-1.5,2.2-4.5c1,1.3,1.5,4.8,0.7,5.9c-2.3,3.5-3.4,4.9-3.4,6.3c0,1.7,2,2.4,3.1-1.6
		c0.8,1.4,0.5,4.4,0.5,4.4c-0.1,2-2.8,2.2-2.8,5v5.5H249.4z M256.6,565.3l-0.4-3.1H272l-0.4,3.1H256.6z M257.7,562.1l-0.3-2.6H271
		l-0.3,2.6H257.7z M259.8,559.5l-0.2-2.6h9.1l-0.2,2.6H259.8z M292.9,669.5c-2-0.8-5-2.9-5-5.1v-24.3l2.6-3.4h-52.8l2.5,3.4v24.3
		c0,2.2-2,4.3-4.1,5.1H292.9z"/>
	<path class="st2" d="M247.1,647.6h3.6v16.5h-3.6V647.6z M277.4,647.6h3.6v16.5h-3.6V647.6z"/>
	<path class="st4" d="M236.8,609.2v27.7h54v-6l0.1-21.7c-2.2,0.9-2.6,2.9-2.6,2.9v11.8h-48.8V612C239.5,612,239,610,236.8,609.2
		L236.8,609.2z"/>
	<path class="st4" d="M283.5,669.5c-1.8-0.8-5.6-2.9-5.6-5.1v-27.2c0.4-1.5,2.4-2.4,3.8-3.4h-35.8c1.7,0.9,3.6,1.7,4.3,3.4v27.2
		c0,2.2-3,4.3-4.8,5.1H283.5z"/>
	<path class="st4" d="M288.3,634.2v-19.6h-4.9v-1.9h-38.8v1.9h-4.9v19.6H288.3z M275.7,669.5c-1.7-0.8-4.2-2.9-4.2-5.1v-23.2
		l1.4-2.1h-17.7l1.4,2.1v23.2c0,2.2-2.5,4.3-4.2,5.1H275.7z"/>
	<path class="st5" d="M259.6,639.2h9v30.4h-9V639.2z"/>
	<path class="st2" d="M273.3,632.5c0-2,5.8-2.1,8.8-3.8h-36c3,1.7,8.7,1.8,8.7,3.8l1.2,3.9l14.9,0.6L273.3,632.5z"/>
	<path class="st4" d="M280.3,611.3c0-4.9,0.2-6.8,1.7-6.8v15.6c-3.7,1.3-6.3,6-6.3,6h-23.2c0,0-2.6-4.7-6.3-6v-15.6
		c1.9,0,1.9,2,1.9,6.8H280.3z M282,609.3c0-5.6,4.9-6.3,4.9-6.3v5c-1.8-0.1-2.7,1.6-2.7,4s1.5,2.5,1.5,2.5v14.2H282V609.3z"/>
	<path class="st4" d="M246.2,609.3c0-5.6-4.9-6.3-4.9-6.3v5c1.8-0.1,2.7,1.6,2.7,4s-1.5,2.5-1.5,2.5v14.2h3.6L246.2,609.3
		L246.2,609.3z"/>
	<g>
		<path class="st6" d="M255.7,570.6h17.1 M253.7,576h20.9 M251.7,582.5h24.9 M249.5,590.4H279 M248.9,599.4h30.4"/>
		<path class="st7" d="M239.6,628.9h48.7 M255.1,628.9h18v6.6h-18V628.9z"/>
	</g>
	<g>
		<path class="st4" d="M252.8,614.2c3,3.6,2.7,9.7,2.7,13.3h17.3c0-3.6-0.3-9.7,2.7-13.3H252.8z M262.6,573.1l-2.4-1.2v-3.5
			c1,0.3,2.1,0.4,2.2,2c0.3-2.2,0.9-2.1,1.9-3c1,0.9,1.6,0.8,1.9,3c0.1-1.5,1.2-1.7,2.2-2v3.5l-2.4,1.2H262.6z"/>
		<path class="st4" d="M262.4,578.8l-3.9-2.7v-3.2c1.4,0.3,2.9,0.5,3.1,2.1c0.5-2.4,1.4-3.7,2.7-4.6c1.4,0.9,2.2,2.2,2.7,4.6
			c0.2-1.7,1.7-1.8,3.1-2.1v3.2l-3.9,2.7H262.4z"/>
		<path class="st4" d="M262.1,587.8l-4.5-4v-4.7c1.6,0.5,3.4,0.7,3.6,3.2c0.6-3.6,1.6-5.4,3.1-6.8c1.6,1.4,2.6,3.2,3.1,6.8
			c0.2-2.5,2-2.7,3.6-3.2v4.7l-4.5,4H262.1z M270.5,593.1l-4.1,5.7h-4.6l-4.1-5.7H270.5z M255.3,602.6c2.1,1.1,2.8,3.4,3,7.6h11.5
			c0.2-4.2,1-6.4,3-7.6H255.3z"/>
		<path class="st2" d="M273.1,593.1v-5.7c-2,0.5-3.2,1.7-3.8,3.3c0-1.9-2.5-6.3-5.2-8.4c-2.7,2.4-5.3,6.4-5.2,8.4
			c-0.5-1.5-1.8-2.7-3.8-3.3v5.7H273.1z"/>
		<path class="st2" d="M273.9,602.6v-5.7c-2.1,0.5-3.5,1.7-4.1,3.3c0-1.9-2.7-6.3-5.7-8.4c-3,2.4-5.8,6.4-5.7,8.4
			c-0.5-1.5-2-2.7-4.1-3.3v5.7H273.9z"/>
		<path class="st2" d="M276.3,614.3v-6.6c-2.7,0.7-4.3,2.7-5.1,3.8c0-3.6-4-9-7.1-10.8c-3.2,1.8-7.1,7.4-7.1,10.8
			c-0.9-1.1-2.5-3.1-5.2-3.8v6.6H276.3z"/>
		<path class="st2" d="M274.9,628.9v-6.8c-2.3,0.9-3,3.2-3.8,4.7c0.3-6.9-3.9-14.2-7-16.1c-3.2,1.9-7.4,9.4-7,16.1
			c-0.8-1.5-1.4-3.8-3.8-4.7v6.8H274.9z"/>
		<path class="st4" d="M273.2,639.2v-6.8c-2.5,0.6-2.6,1.5-3.4,3c0.3-4.1-2.6-8.8-5.8-10.6c-3.2,1.9-6.1,6.5-5.8,10.6
			c-0.8-1.5-0.9-2.4-3.4-3v6.8H273.2z"/>
	</g>
	<g id="a">
		<path class="st4" d="M167.8,664.2v-20.4c-0.7-2.6-2.9-4.9-4.5-5.4v-18l3.7,2l4.3,18.8v23L167.8,664.2z"/>
		<path class="st4" d="M167.8,664.3v-20.5c-0.7-2.6-2.9-4.9-4.5-5.4v-19.2c2.5,0,3.7,3.3,3.7,3.3l4.3,18.8v22.9L167.8,664.3z"/>
		<path class="st4" d="M165.2,669.5c1.7-0.8,4.2-2.9,4.2-5.1v-25.5l-1.2-2.1h43.5l-1.7,2.1v25.5c0,2.2,1.7,4.3,3.5,5.1H165.2z"/>
		<path class="st4" d="M204.7,669.5c-1.7-0.8-4.2-2.9-4.2-5.1v-24.3l3.6-3.4h-29.6l3.6,3.4v24.3c0,2.2-2.5,4.3-4.3,5.1H204.7z"/>
		<path class="st4" d="M200.6,669.5c-1.7-0.8-4.2-2.9-4.2-5.1v-22l2.4-3.4H180l2.4,3.4v22c0,2.2-2.5,4.3-4.3,5.1H200.6z"/>
		<path class="st4" d="M184.8,639.2h9v30.4h-9V639.2z"/>
		<path class="st2" d="M172.6,647.6h3.6v16.5h-3.6V647.6z M203.3,647.6h3.6v16.5h-3.6V647.6z M169.5,619.8h4.3v16.9h-4.3V619.8z
			 M169.5,616.6h4.3v3.1h-4.3V616.6z"/>
		<path class="st8" d="M205.1,623.5h6.2v13.1h-6.2V623.5z"/>
		<path class="st4" d="M173.8,636.6v-28.9c1.2,0,1.4,4.2,4.2,4.2c1.5,0,1.3-1.8,0.5-3.2c-0.7-1.3-1.6-3-0.4-6.3
			c0.8,2.5,3.1,3.3,2.7,1.7c-0.7-2.7-2.8-3.1-1.2-7.3c0.5,3.5,2.8,3.3,2.2,1.3c-0.6-2.3-1.9-3.2-0.3-6.4c0.9,3.7,2.1,3.4,2.1,1.2
			c0-3.3-0.1-7,4.2-8.3c0,0,0.3-3.1,1.8-3.1c1.6,0,1.8,3.1,1.8,3.1c4.3,1.3,4.2,5,4.2,8.3c0,2.3,1.2,2.5,2.1-1.2
			c1.6,3.2,0.3,4.1-0.3,6.4c-0.5,2,1.7,2.2,2.2-1.3c1.6,4.2-0.5,4.6-1.2,7.3c-0.4,1.6,1.9,0.8,2.7-1.7c1.2,3.3,0.3,5-0.4,6.3
			c-0.8,1.4-1,3.2,0.5,3.2c2.8,0,3-4.2,4.2-4.2v28.9H173.8z M167,614.7v22.1h2.5v-22.1C168.6,614.2,167.8,614.2,167,614.7z"/>
		<path class="st4" d="M167.1,629c3.1,1.6,6.2,3.4,7,7.8h-7V629z M210.3,622.4v14.4h2v-14.4C211.7,622.1,210.8,622,210.3,622.4z"/>
		<path class="st4" d="M212.3,628.9c-3.1,1.6-6.2,3.4-7,7.8h7V628.9z"/>
		<g>
			<path class="st4" d="M191.7,595.3l1.8-1.5v-2c-0.7,0.1-1,0.3-1.5,0.9c-0.4-1.3-1.3-2.3-2.6-2.9c-1.2,0.6-2.1,1.6-2.6,2.9
				c-0.5-0.6-0.9-0.8-1.5-0.9v2l1.8,1.5H191.7z"/>
			<path class="st4" d="M192.7,600.2l0.8-1.8v-2.5c-0.7,0.1-1,0.3-1.5,0.9c-0.4-1.3-1.3-2.3-2.6-3c-1.2,0.6-2.1,1.6-2.6,2.9
				c-0.5-0.7-0.9-0.8-1.5-0.9v2.5l0.8,1.8L192.7,600.2L192.7,600.2z"/>
			<path class="st4" d="M192.8,606.8l2.7-3.3v-3.2c-1,0.1-1.5,0.5-2.3,1.6c-0.6-2.2-2-2.7-3.8-3.8c-1.8,1.1-3.2,1.5-3.8,3.7
				c-0.7-1.1-1.3-1.4-2.3-1.5v3.2l2.7,3.3H192.8z"/>
			<path class="st4" d="M193.6,613.3c0,0,3.1-2.7,3.3-4.2v-3.5c-1.2,0.1-2.4,0.5-3.3,1.9c-0.8-2.9-2-3.7-4.2-5.1
				c-2.3,1.4-3.4,2.2-4.2,5.1c-0.9-1.4-2.1-1.7-3.3-1.9v3.5c0.4,1.5,3.3,4.2,3.3,4.2H193.6z"/>
			<path class="st4" d="M194.9,625.3c0,0,4.3-4.8,4.4-6.6v-5.4c-1.6,0.2-3.1,1.3-4.3,3.6c-1-4.5-2.6-7.6-5.6-9.8
				c-3,2.2-4.6,5.3-5.6,9.8c-1.2-2.2-2.7-3.3-4.3-3.6v5.4c0.3,1.9,4.4,6.6,4.4,6.6H194.9z"/>
			<path class="st4" d="M194.9,632.4c0,0,3.7-3.7,4.4-5.4v-5.4c-1.6,0.2-3.1,1.3-4.3,3.6c-1-4.5-2.6-7-5.6-9.2
				c-3,2.2-4.6,4.7-5.6,9.2c-1.2-2.2-2.7-3.3-4.3-3.6v5.4c0.9,1.6,4.4,5.4,4.4,5.4H194.9z"/>
			<path class="st4" d="M196.4,636.6c-1.1-4.7-2-8.1-7.2-11.6c-5.2,3.5-6.1,7-7.2,11.6H196.4z"/>
			<path class="st4" d="M199.1,639.2v-6.8c-2.3,0.9-4.5,2.3-5.2,3.8c-0.9-3.8-2.6-5.4-4.7-7.7c-2.1,2.3-3.5,3.9-4.4,7.7
				c-0.8-1.5-2.9-2.9-5.2-3.8v6.8H199.1z"/>
		</g>
	</g>
	<g transform="matrix(-1 0 0 1 390.74 0)">
		<g id="a_1_">
			<path class="st4" d="M34.5,664.2v-23l-4.3-18.8l-3.7-2v18c1.6,0.5,3.8,2.8,4.5,5.4v20.4L34.5,664.2z"/>
			<path class="st4" d="M34.5,664.2v-22.9l-4.3-18.8c0,0-1.2-3.3-3.7-3.3v19.2c1.6,0.5,3.8,2.8,4.5,5.4v20.5L34.5,664.2z"/>
			<path class="st4" d="M76.7,669.5c-1.8-0.8-3.5-2.9-3.5-5.1v-25.5l1.7-2.1H31.4l1.2,2.1v25.5c0,2.2-2.5,4.3-4.2,5.1H76.7z"/>
			<path class="st4" d="M37,669.5c1.8-0.8,4.3-2.9,4.3-5.1v-24.3l-3.6-3.4h29.6l-3.6,3.4v24.3c0,2.2,2.5,4.3,4.2,5.1H37z"/>
			<path class="st4" d="M41.3,669.5c1.8-0.8,4.3-2.9,4.3-5.1v-22l-2.4-3.4H62l-2.4,3.4v22c0,2.2,2.5,4.3,4.2,5.1H41.3z"/>
			<path class="st4" d="M48,669.6h9v-30.4h-9V669.6z"/>
			<path class="st2" d="M35.8,664.1h3.6v-16.5h-3.6V664.1z M66.5,664.1h3.6v-16.5h-3.6V664.1z M32.7,636.7H37v-16.9h-4.3V636.7z
				 M32.7,619.7H37v-3.1h-4.3V619.7z"/>
			<path class="st8" d="M68.2,636.6h6.2v-13.1h-6.2V636.6z"/>
			<path class="st4" d="M68.6,636.6v-28.9c-1.2,0-1.4,4.2-4.2,4.2c-1.5,0-1.3-1.8-0.5-3.2c0.7-1.3,1.6-3,0.4-6.3
				c-0.8,2.5-3.1,3.3-2.7,1.7c0.7-2.7,2.8-3.1,1.2-7.3c-0.5,3.5-2.7,3.3-2.2,1.3c0.6-2.3,1.9-3.2,0.3-6.4c-0.9,3.7-2.1,3.5-2.1,1.2
				c0-3.3,0.1-7-4.2-8.3c0,0-0.2-3.1-1.8-3.1c-1.5,0-1.8,3.1-1.8,3.1c-4.3,1.3-4.2,5-4.2,8.3c0,2.2-1.2,2.5-2.1-1.2
				c-1.6,3.2-0.3,4.1,0.3,6.4c0.6,2-1.7,2.2-2.2-1.3c-1.6,4.2,0.5,4.6,1.2,7.3c0.4,1.6-1.9,0.8-2.7-1.7c-1.2,3.3-0.3,5,0.4,6.3
				c0.8,1.4,1,3.2-0.5,3.2c-2.8,0-3-4.2-4.2-4.2v28.9H68.6z M32.7,614.7v22.1h-2.5v-22.1C31,614.2,31.8,614.2,32.7,614.7z"/>
			<path class="st4" d="M30.3,636.8h7c-0.8-4.4-3.9-6.2-7-7.8V636.8z M75.4,622.4v14.4h-2v-14.4C74,622,74.8,622.1,75.4,622.4z"/>
			<path class="st4" d="M75.5,636.7h-7c0.8-4.4,3.9-6.2,7-7.8V636.7z"/>
			<g>
				<path class="st4" d="M50.3,595.3l-1.8-1.5v-2c0.6,0.1,1,0.3,1.5,0.9c0.5-1.3,1.4-2.3,2.6-2.9c1.3,0.6,2.2,1.6,2.6,2.9
					c0.5-0.6,0.8-0.8,1.5-0.9v2l-1.8,1.5H50.3z"/>
				<path class="st4" d="M55.9,600.1h-6.6l-0.8-1.8v-2.5c0.6,0.1,1,0.2,1.5,0.9c0.5-1.3,1.4-2.3,2.6-2.9c1.3,0.7,2.2,1.7,2.6,3
					c0.5-0.6,0.8-0.8,1.5-0.9v2.5L55.9,600.1L55.9,600.1z"/>
				<path class="st4" d="M49.2,606.8l-2.7-3.3v-3.2c1,0.1,1.6,0.4,2.3,1.5c0.6-2.2,2-2.6,3.8-3.7c1.8,1.1,3.2,1.6,3.8,3.8
					c0.8-1.1,1.3-1.5,2.3-1.6v3.2l-2.7,3.3H49.2z"/>
				<path class="st4" d="M48.4,613.3c0,0-2.9-2.7-3.3-4.2v-3.5c1.3,0.2,2.4,0.5,3.3,1.9c0.8-2.9,1.9-3.7,4.2-5.1
					c2.2,1.4,3.4,2.2,4.2,5.1c0.9-1.4,2.1-1.8,3.3-1.9v3.5c-0.2,1.5-3.3,4.2-3.3,4.2H48.4z"/>
				<path class="st4" d="M47.1,625.3c0,0-4.1-4.7-4.4-6.6v-5.4c1.6,0.3,3.1,1.4,4.3,3.6c1-4.5,2.6-7.6,5.6-9.8
					c3,2.2,4.6,5.3,5.6,9.8c1.2-2.3,2.7-3.4,4.3-3.6v5.4c-0.1,1.8-4.4,6.6-4.4,6.6H47.1z"/>
				<path class="st4" d="M47.1,632.4c0,0-3.5-3.8-4.4-5.4v-5.4c1.6,0.3,3.1,1.4,4.3,3.6c1-4.5,2.6-7,5.6-9.2c3,2.2,4.6,4.7,5.6,9.2
					c1.2-2.3,2.7-3.4,4.3-3.6v5.4c-0.7,1.7-4.4,5.4-4.4,5.4H47.1z"/>
				<path class="st4" d="M45.2,636.6c1.1-4.6,2-8.1,7.2-11.6c5.2,3.5,6.1,6.9,7.2,11.6H45.2z"/>
				<path class="st4" d="M42.8,639.2v-6.8c2.3,0.9,4.4,2.3,5.2,3.8c0.9-3.8,2.3-5.4,4.4-7.7c2.1,2.3,3.8,3.9,4.7,7.7
					c0.7-1.5,2.9-2.9,5.2-3.8v6.8H42.8z"/>
			</g>
		</g>
	</g>
	<g>
		<path class="st4" d="M141.6,694.3h245.3v12.5H141.6V694.3z"/>
		<path class="st4" d="M135.1,706.8h258.3v12.5H135.1V706.8z M154.5,675.5H374v8.1H154.5V675.5z"/>
		<path class="st4" d="M148,683.6h232.4v10.6H148V683.6z M158.3,669.3h211.9v6.2H158.3V669.3z"/>
		<path class="st9" d="M181.3,669.3h16v49.9h-16V669.3z"/>
		<path class="st10" d="M184.8,669.3h8.9v49.9h-8.9V669.3z"/>
		<path class="st9" d="M256,669.3h16v49.9h-16V669.3z"/>
		<path class="st10" d="M259.6,669.3h8.9v49.9h-8.9V669.3z"/>
		<path class="st9" d="M331.1,669.3h16v49.9h-16V669.3z"/>
		<path class="st10" d="M334.6,669.3h8.9v49.9h-8.9V669.3z"/>
	</g>
	<g>
		<path class="st7" d="M167.8,664.2h193.1 M184.7,713h9.2 M184.7,706.7h9.2 M184.7,700.5h9.2 M184.7,694.2h9.2 M184.7,688h9.2
			 M184.7,681.7h9.2 M184.7,675.5h9.2 M259.7,713h8.6 M259.7,706.7h8.6 M259.7,700.5h8.6 M259.7,694.2h8.6 M259.7,688h8.6
			 M259.7,681.7h8.6 M259.7,675.5h8.6 M334.5,713h9.2 M334.5,706.7h9.2 M334.5,700.5h9.2 M334.5,694.2h9.2 M334.5,688h9.2
			 M334.5,681.7h9.2 M334.5,675.5h9.2"/>
	</g>
</g>
</svg>
