<?xml version="1.0" encoding="utf-8"?>
<!-- Generator: Adobe Illustrator 20.0.0, SVG Export Plug-In . SVG Version: 6.00 Build 0)  -->
<!DOCTYPE svg PUBLIC "-//W3C//DTD SVG 1.1//EN" "http://www.w3.org/Graphics/SVG/1.1/DTD/svg11.dtd">
<svg version="1.1" id="Layer_1" xmlns="http://www.w3.org/2000/svg" xmlns:xlink="http://www.w3.org/1999/xlink" x="0px" y="0px"
	 viewBox="0 0 800 480" style="enable-background:new 0 0 800 480;" xml:space="preserve">
<style type="text/css">
	.st0{fill:#FFFFFF;stroke:#000000;stroke-width:1.014;}
	.st1{fill:#3E5698;}
	.st2{fill:#C60000;}
	.st3{fill:#FFFFFF;}
	.st4{fill:#C40000;}
</style>
<g>
	<g transform="translate(-4.761 -.094) scale(.93768)">
		<path class="st0" d="M857.6,511.5H5.7V0.6h851.9V511.5z"/>
		<path class="st1" d="M857.6,419.1H5.7v92.5h851.9V419.1z"/>
		<path class="st2" d="M857.6,397.7H5.7V114.4h851.9V397.7z"/>
		<path class="st1" d="M857.6,0.6H5.7V93h851.9V0.6z"/>
		<path class="st3" d="M410.2,256.1c0,63.5-53.1,114.9-118.6,114.9c-65.5,0-118.6-51.4-118.6-114.9c0-63.4,53.1-114.9,118.6-114.9
			C357.1,141.2,410.2,192.6,410.2,256.1z"/>
		<path class="st4" d="M257.5,270.6L200.4,230l71.1-0.3l22.6-66.4l21.2,66.1l71.1-0.4l-58,41.2l21.3,66.1l-57-40.7l-57.9,41.3
			L257.5,270.6z"/>
	</g>
</g>
</svg>
