<?xml version="1.0" encoding="utf-8"?>
<!-- Generator: Adobe Illustrator 20.0.0, SVG Export Plug-In . SVG Version: 6.00 Build 0)  -->
<!DOCTYPE svg PUBLIC "-//W3C//DTD SVG 1.1//EN" "http://www.w3.org/Graphics/SVG/1.1/DTD/svg11.dtd">
<svg version="1.1" id="Layer_1" xmlns="http://www.w3.org/2000/svg" xmlns:xlink="http://www.w3.org/1999/xlink" x="0px" y="0px"
	 viewBox="0 0 800 480" style="enable-background:new 0 0 800 480;" xml:space="preserve">
<style type="text/css">
	.st0{fill:#FFFFFF;}
	.st1{fill:#C70000;}
	.st2{fill:#3D5897;}
</style>
<g>
	<g transform="translate(89.82 .412) scale(.9375)">
		<path class="st0" d="M757.5,511.6H-95.8v-512h853.3V511.6z"/>
		<path class="st1" d="M469.1,262.5c0,81.1-65,146.8-145.3,146.8s-145.3-65.7-145.3-146.8s65-146.8,145.3-146.8
			S469.1,181.5,469.1,262.5L469.1,262.5z"/>
		<path d="M26.6,126.4l83.7-96.8l19.8,17.1l-83.7,96.8L26.6,126.4z M54,150.1l83.7-96.8l19.8,17.1l-83.7,96.8L54,150.1z"/>
		<path d="M26.6,126.4l83.7-96.8l19.8,17.1l-83.7,96.8L26.6,126.4z"/>
		<path d="M26.6,126.4l83.7-96.8l19.8,17.1l-83.7,96.8L26.6,126.4z M82,174.3l83.7-96.8l19.8,17.1l-83.7,96.8L82,174.3z"/>
		<path d="M26.6,126.4l83.7-96.8l19.8,17.1l-83.7,96.8L26.6,126.4z"/>
		<path d="M26.6,126.4l83.7-96.8l19.8,17.1l-83.7,96.8L26.6,126.4z M535.5,29.6l83,97.3l-19.9,17l-83-97.3L535.5,29.6z M479.8,77.1
			l83,97.3l-19.9,17l-83-97.3L479.8,77.1z"/>
		<path class="st0" d="M493.6,133.2l78.6-67.8l14.6,17l-84,75.5L493.6,133.2L493.6,133.2z"/>
		<path d="M590.3,372l-80.4,95.8l-19.7-16.4l80.4-95.8L590.3,372z M507.9,53.1l83,97.3l-19.9,17l-83-97.3L507.9,53.1z M617.5,394.7
			l-80.4,95.8l-19.7-16.4l80.4-95.8L617.5,394.7z M562.4,348.9L482,444.7l-19.7-16.4l80.4-95.8L562.4,348.9z"/>
		<path class="st2" d="M180.6,236.7c4.6,37,11.3,78.2,68.2,82.5c21.3,1.3,62.8-5.1,77.1-63.2c18.7-55.8,75-71.9,113.3-41.6
			c21.7,14.2,27.7,36.7,29.3,53.6c-1.7,54.2-32.9,101.2-72.8,122.1c-45.9,27.3-109.6,27.9-165.3-13.5
			C205.2,353,170.1,309.5,180.6,236.7L180.6,236.7z"/>
		<path class="st0" d="M512,370.6l78.7,67.7l-14.6,17l-87.2-71.9L512,370.6L512,370.6z"/>
		<path d="M74.2,357.2l83,97.3l-19.9,17l-83-97.3L74.2,357.2z"/>
		<path class="st0" d="M59.9,437.3l78.6-67.8l14.6,17l-84,75.5L59.9,437.3L59.9,437.3z"/>
		<path d="M101.7,333.7l83,97.3l-19.9,17l-83-97.3L101.7,333.7z M46,381.2l83,97.3l-19.9,17l-83-97.3L46,381.2z"/>
	</g>
</g>
</svg>
