<?xml version="1.0" encoding="utf-8"?>
<!-- Generator: Adobe Illustrator 20.0.0, SVG Export Plug-In . SVG Version: 6.00 Build 0)  -->
<!DOCTYPE svg PUBLIC "-//W3C//DTD SVG 1.1//EN" "http://www.w3.org/Graphics/SVG/1.1/DTD/svg11.dtd">
<svg version="1.1" id="Layer_1" xmlns="http://www.w3.org/2000/svg" xmlns:xlink="http://www.w3.org/1999/xlink" x="0px" y="0px"
	 viewBox="0 0 800 480" style="enable-background:new 0 0 800 480;" xml:space="preserve">
<style type="text/css">
	.st0{fill:#000066;}
	.st1{fill:#FFFFFF;}
	.st2{fill:#CC0000;}
	.st3{fill:#FEC500;stroke:#6D6666;stroke-width:1.403;}
	.st4{fill:#FEC500;stroke:#6D6666;stroke-width:1.497;}
	.st5{fill:#00389B;}
	.st6{fill:#005120;stroke:#000000;stroke-width:1.497;}
	.st7{stroke:#000000;stroke-width:1.497;}
	.st8{fill:#001707;stroke:#000007;stroke-width:1.497;}
	.st9{fill:#D40F0F;fill-opacity:0.996;}
	.st10{fill:#FDDC59;fill-opacity:0.996;}
	.st11{fill:#FDC400;}
	.st12{fill:#D40F0F;fill-opacity:0.996;stroke:#000000;stroke-width:1.497;}
	.st13{fill:#0062BB;fill-opacity:0.996;}
	.st14{fill:#FDC400;fill-opacity:0.996;stroke:#000000;stroke-width:0.701;}
	.st15{fill-opacity:0.996;}
	.st16{fill:#000039;fill-opacity:0.996;stroke:#000000;stroke-width:0.421;}
	.st17{fill:none;stroke:#000000;stroke-width:0.842;}
	.st18{fill:none;stroke:#000000;stroke-width:1.497;}
	.st19{fill:#003017;fill-opacity:0.996;}
	.st20{fill:none;}
</style>
<path class="st0" d="M0,0h800v480H0V0z"/>
<path class="st0" d="M0,0h400v200H0V0z"/>
<g>
	<path class="st1" d="M0,0v26.8L355.3,240H400v-26.8L44.7,0L0,0L0,0z M400,0v26.8L44.7,240H0v-26.8L355.3,0H400z"/>
	<path class="st1" d="M166.7,0v240h66.7V0H166.7z M0,80v80h400V80H0z"/>
	<path class="st2" d="M0,96v48h400V96H0z M180,0v240h40V0H180z M0,240l133.3-80h29.8L29.8,240H0z M0,0l133.3,80h-29.8L0,17.9V0z
		 M236.9,80L370.2,0H400L266.7,80H236.9L236.9,80z M400,240l-133.3-80h29.8L400,222.1V240L400,240z"/>
</g>
<g>
	<path class="st1" d="M577.9,129.9c-1,0.6-3,2.4-5,1.8c-2-0.6-6.6-8.5-11.6-7.3c-5,1.2-8.1,3.1-10.1,3.1c-2,0-7.6,1.8-7.6,6.7
		c0,4.9,0.5,8.5,1.5,8.5s2.5-3.1,2.5-3.1s0.5,6.1,4,6.1s11.1,0.6,11.6,2.4c0.5,1.8-3.5,6.1-2.5,9.8c1,3.7,5.6,9.8,5.6,9.8
		s-6.6,4.9-6.6,7.9s1,6.1,1,6.1l-29.3,1.2c0,0-2,86.6-1,93.4c1,6.7,3.5,23.2,3.5,23.2s-6.6-2.1-12.1,3.4c-5.6,5.5-25,14.9-25.5,19.2
		s-2.3,7.9-0.3,11c2,3,9.1,11.3,7.1,11c-6.8-1.2-9.3-10.8-13.9-14.3c-4.5-3.5-13.4-2.7-14.4,0.9c-1,3.7-0.5,9.8,0,11
		c0.5,1.2,6.1,20.7,7.6,25s17.4,10.7,24.5,10.1c13.4,0.3,19.4-5.8,19.9-5.2c0.5,0.6,28.8,29.8,86.8,29.9
		c45.2,0.1,79.3-29.3,79.3-28.7c0,0.6,18.7,6.1,25.2,4.3c6.6-1.8,16.2-6.1,18.2-10.4c2-4.3,7.6-26.2,8.1-29.9c0.5-3.7,0-7.9-4.5-9.2
		s-7.1-0.9-9.6,0.3s-3.3,4.6-7.1,10.7c-2,1.8-7.3,6.7-5.8,5.5s4.8-10.4,5.3-13.4c0.5-3,2-8.5-1.5-11.6c-3.5-3-8.9-4.3-15.1-8.8
		c-5.9-4-10.6-10.7-14.1-10.7c-3.5,0-7.6-1.8-7.1-1.8s4.6-8.9,3.5-18c-1-9.2,0.5-96.7,0-96.7c-0.5,0-25.2,1.8-25.2,0.6s2-9.8,0-15.3
		c-2-5.5-10.6-9.2-8.1-10.4s13.6-4.3,13.1-9.2s-7.6-4.3-10.6-6.1c-3-1.8-12.1-10.4-13.1-10.4c-1,0,26.3-16.5,24.2-16.5
		c-2,0-12.6-3.1-16.2-1.2c0-3.1,14.6-12.2,12.1-13.4c-2.5-1.2-14.1-2.4-11.1-3.1c3-0.6,4-7.9,3.5-7.9S644,92.1,644,92.1
		s-3-4.3-4-4.3c-1,0-5.6,2.4-5.6,2.4l-2.5-6.7l-5.6,3.7l-2.5-3.1c0,0-4.5,1.2-4.5,0c0.2,0-0.5-3.1-1.2-3.1c-0.7,0-5.7,3.9-5.9,3.7
		c-0.2-0.2-5.7-8-5.7-7.8s-3.9,14.7-4.1,14.7c-0.2,0-3.9,0.4-4.1,0.6c-0.2,0.2-20-11.4-19.8-11.2c0.2,0.2,5.2,11.2,5.2,11.2
		s-4.3,2.4-4.3,2.6c0,0.2,0.7,5,0.7,5l-13.2-4.5c0,0,5,10.1,4.6,10.1c-0.4,0-9.8,0.4-9.6,0.4c0.2,0,4.5,8.4,4.5,8.4l-1.6,5
		C564.7,119.3,578.9,129.3,577.9,129.9L577.9,129.9z M662.2,342.3c1.3,1.8,8.1,10.4,7.1,10.4s-17.9,11.3-24.7,13.4
		c-6.8,2.1-29,6.1-27.8,5.8c1.3-0.3,19.9-10.5,27.5-15.4C651.8,351.6,662.2,342.9,662.2,342.3L662.2,342.3z M556.7,342
		c-1,1.2-5.8,10.7-5.8,10.7s13.9,9.8,24.2,13.4c10.3,3.7,28,4.9,27,4.6c-1-0.3-22.2-9.8-28.3-14.6C567.8,351.1,556.9,342,556.7,342
		L556.7,342z"/>
	<g>
		<path class="st3" d="M567.8,116c0,0,8.8,6.4,10.9,7.9c2,1.5,8.6,8.2,9.1,7.9c0.5-0.3,4-3.7,4-3.7s-7.3-7-11.9-8.5
			C575.3,118.2,567.8,116.6,567.8,116z"/>
		<path class="st3" d="M566.5,109c0.8,0,14.6,8.5,18.9,12.8c4.3,4.3,6.1,9.8,6.6,9.8c0.5,0,7.1-1.2,6.8-1.2c-0.3,0-3-11-9.3-14.3
			C583.2,112.7,566.8,109,566.5,109z"/>
		<path class="st3" d="M631.9,86.9c-0.3,0-2.8,9.2-3.5,11.9c-0.8,2.7-2,8.5-2,8.5s-11.1,1.2-10.6-0.3
			C616.2,105.5,632.6,86.9,631.9,86.9z"/>
		<path class="st3" d="M569,98c0,0,13.1,10.7,17.7,16.8c4.5,6.1,9.1,16.8,9.3,16.8c0.3,0,12.4-3.1,12.4-2.7c0,0.3-14.1-17.1-21-22.3
			C580.6,101.4,569.3,98.6,569,98z"/>
		<path class="st3" d="M582.7,95.2c0,0,6.6,12.2,7.8,16.5c1.3,4.3,5,15.3,5,15.3h10.3c0,0-5-13.7-10.6-20.4
			C589.7,99.8,582.9,95.8,582.7,95.2z"/>
		<path class="st3" d="M586.2,88.5c0.3,0.9,9.6,11.6,11.9,18.6c2.3,7,4,15.9,4,15.9l9.1-2.7c0,0-8.1-18-13.1-22.9
			C593,92.4,586.7,89.1,586.2,88.5z"/>
		<path class="st3" d="M661.7,117.2c0,0-18.9,2.4-25.7,4.6s-10.6,10.1-10.6,10.1s8.8,4,9.3,3.4c0.5-0.6,5.8-7,11.6-9.5
			C652.1,123.3,662.2,117.6,661.7,117.2L661.7,117.2z"/>
		<path class="st3" d="M660.9,102.3c-0.5,0.3-15.6,15.3-20.4,20.1c-4.8,4.9-9.3,10.1-9.8,10.4c-0.5,0.3-9.8-1.5-9.3-2.1
			c0.5-0.6,13.9-13.7,22.7-19.5C652.8,105.3,660.1,102.9,660.9,102.3z"/>
		<path class="st3" d="M657.1,91.6c-1.5,2.1-16.4,16.8-20.4,22c-4,5.2-10.6,14.3-10.6,14.3s-7.8-4.3-7.3-6.1
			c0.5-1.8,11.1-12.5,18.7-18.6C645,97.1,657.9,92.2,657.1,91.6z"/>
		<path class="st3" d="M642,90.4c-0.3,0.3-9.1,11.6-10.9,14.6c-1.8,3.1-7.1,16.5-7.1,16.5s-7.8-8.2-7.8-8.5
			c0-0.3,9.8-12.8,15.6-17.7C637.7,90.4,642.2,91.3,642,90.4z"/>
		<path class="st4" d="M620.1,107.1c0,2.1-1.4,3.9-3.2,3.9c-1.8,0-3.2-1.7-3.2-3.9s1.4-3.9,3.2-3.9
			C618.7,103.2,620.1,104.9,620.1,107.1z M626.5,112.2c0,1.9-1.4,3.5-3.2,3.5s-3.2-1.5-3.2-3.5c0-1.9,1.4-3.5,3.2-3.5
			S626.5,110.3,626.5,112.2z M612.2,108.4c0,1.9-1.8,3.5-3.9,3.5c-2.2,0-3.9-1.5-3.9-3.5c0-1.9,1.8-3.5,3.9-3.5
			S612.2,106.5,612.2,108.4z"/>
		<path class="st4" d="M622.6,115.5c0,3.7-2,6.7-4.5,6.7s-4.5-3-4.5-6.7c0-3.7,2-6.7,4.5-6.7S622.6,111.8,622.6,115.5z M610.5,115.7
			c0,2.9-2,5.2-4.5,5.2s-4.5-2.3-4.5-5.2s2-5.2,4.5-5.2S610.5,112.8,610.5,115.7z"/>
		<path class="st4" d="M604.4,119.8c0,2.5-1.5,4.5-3.4,4.5s-3.4-2-3.4-4.5c0-2.5,1.5-4.5,3.4-4.5
			C602.9,115.3,604.4,117.3,604.4,119.8z M629.4,119.4c0,3-2.3,5.4-5.2,5.4c-2.9,0-5.2-2.4-5.2-5.4c0-3,2.3-5.4,5.2-5.4
			C627.1,114,629.4,116.4,629.4,119.4z M616.9,111.6c0,1.8-1.8,3.2-4.1,3.2s-4.1-1.4-4.1-3.2c0-1.8,1.8-3.2,4.1-3.2
			S616.9,109.8,616.9,111.6z"/>
		<path class="st4" d="M617.6,118.7c0,2.6-2.6,4.7-5.7,4.7s-5.7-2.1-5.7-4.7s2.6-4.7,5.7-4.7S617.6,116.1,617.6,118.7z M632.2,127.1
			c0,3.2-2.4,5.8-5.4,5.8c-3,0-5.4-2.6-5.4-5.8c0-3.2,2.4-5.8,5.4-5.8C629.8,121.3,632.2,123.9,632.2,127.1z M603,125.6
			c0,2.1-1.4,3.9-3,3.9s-3-1.7-3-3.9s1.4-3.9,3-3.9S603,123.5,603,125.6z"/>
		<path class="st4" d="M624.4,125c0,2.7-2.1,5-4.6,5c-2.6,0-4.6-2.2-4.6-5s2.1-5,4.6-5C622.3,120,624.4,122.2,624.4,125z
			 M609.7,124.8c0,2.4-1.8,4.3-4.1,4.3c-2.3,0-4.1-1.9-4.1-4.3c0-2.4,1.8-4.3,4.1-4.3C607.9,120.4,609.7,122.4,609.7,124.8z"/>
		<path class="st4" d="M616.9,126.1c0,2.6-1.9,4.7-4.3,4.7c-2.4,0-4.3-2.1-4.3-4.7s1.9-4.7,4.3-4.7
			C615,121.3,616.9,123.4,616.9,126.1z M598.3,97.6c1.1,0,8.6,3,8.6,3s-9.3,4.3-7.9,3.9s10.4-1.7,9.6-1.7c-0.7,0-7.9,8.2-5.7,7.8
			c2.1-0.4,6.4-5.6,6.8-5.6c0.4,0,4.6,8.2,5,7.8c0.4-0.4,0-8.2,0.4-8.2c0.4,0,8.9,5.2,8.2,4.7c-0.7-0.4-5.7-6.5-5.4-6.5
			c0.4,0,11.8,1.3,11.1,0.9c-0.7-0.4-7.5-4.3-7.5-4.3s5-5.6,3.9-5.6s-9.3,5.6-8.6,5.2c0.7-0.4,8.9-11.6,8.9-11.6l-8.2,4.7
			c0,0,1.4-6.9,0.7-6.5c-0.7,0.4-6.4,9.1-6.8,9.1s-1.8-8.6-1.8-8.6s0.4,9.5-1.8,9.9C605.8,96.3,598.3,98,598.3,97.6L598.3,97.6z"/>
	</g>
	<g>
		<path class="st5" d="M575.1,167.3c0.2,0.9,5.9,16.4,14.6,16s12.3-3,12-3.2c-0.4-0.2-4.1-2.8-6.2-8.4c-2.1-5.6-2.5-8-2.5-8
			L575.1,167.3L575.1,167.3z M606.3,161.3c0,0,6.4,15.3,9.3,17.5c2.9,2.2,9.5,3.9,12.3,3.7c2.9-0.2,6.2,0,6.2,0s-2.9-1.5-5.2-9.9
			s-3-11.2-3-11.2H606.3L606.3,161.3z M645.6,166.9c0,0-1.3,11.2,0,14s7.5,8,7.5,8s7.5-1.1,7.7-8c0.2-6.9-2.5-13.4-2.5-13.4
			L645.6,166.9L645.6,166.9z"/>
		<path class="st6" d="M569,147.3c0,0,0.4,1.7,0,3c-0.4,1.3-3.4,4.7-3.4,7.6c0,2.8,3.6,11.4,14.5,11.6c10.9,0.2,24.6-7.1,24.5-7.3
			c-0.2-0.2-26.1-21.1-26.4-20.9C577.7,141.4,569,147.7,569,147.3L569,147.3z M640.9,162.2c0,0,2.3,7.6,3.2,8.4
			c0.9,0.9,1.2,2.6,1.4,2.6s15,3.9,15,3.9s1.4-5-0.7-8.8c-2.1-3.9-10.2-14-10.2-14L640.9,162.2L640.9,162.2z M651.1,152.9
			c0.4,0,3.9,3.7,6.8,1.7c2.9-1.9,7.5-7.1,7.5-7.1s-3.9,1.5-6.8,1.3C655.7,148.6,651.3,153.1,651.1,152.9z"/>
		<path class="st6" d="M568.5,148.1c0,0-1.1-3.7-3.9-3.9c-2.9-0.2-8,0.4-9.8-1.3c-1.8-1.7-2.3-5.8-3.2-5.6c-0.9,0.2-3.2,0-3.4,0
			c-0.2,0-1.1-3.5,1.4-5.2s4.6-0.2,6.1-1.5c1.4-1.3,3.6-2.2,6.4-2.4s7.5,4.3,9.6,5.4c2.1,1.1,6.8,2.4,8.6,1.3
			c1.8-1.1,11.8-5.8,15.3-6c3.6-0.2,11.1-0.4,13.9-0.2s14.1,1.9,17.5,3.9c3.4,1.9,21.4,9.5,23.9,11.2c2.5,1.7,8,4.3,8,4.3
			s-9.8,11.6-14.6,13.6c-4.8,1.9-20.2,5-29.3,4.3c-9.1-0.6-16.2-1.7-23.2-6c-7-4.3-14.5-8.4-14.8-10.6c-0.4-2.2-0.2-5-0.2-5
			L568.5,148.1L568.5,148.1z"/>
		<path class="st6" d="M557.4,134.1c-0.4,0.2-2.1,1.1-1.8,1.5c0.4,0.4,1.1,1.7,3.2,1.5c2.1-0.2,4.5-1.7,4.5-1.7
			S560.6,133.9,557.4,134.1z"/>
		<path class="st7" d="M557.2,134.5v2.4c0,0,2.5,0.9,2.5,0.2c0-0.6,0.2-2.2-0.4-2.2C558.8,135,557.4,134.8,557.2,134.5z"/>
		<path class="st8" d="M582.2,136.3c0.6-1.4,0-3.2,3.7-5.3c3.7-2.1,10-1.5,10-1.5s-1.8,1.7-1.9,3.4c-0.1,1.8,0.1,2.5,0.1,2.5
			s-3.5-1.4-6.1-0.5C585.3,135.7,582.3,136.6,582.2,136.3z M598.6,128.9c-0.4,0.2-3.2,4-2.8,5.1c0.3,1.1,4,3.9,5.2,3.7
			c1.2-0.2,6.7-3.4,7-5s0.6-3.7,0.1-4.2C607.7,127.9,598.7,129,598.6,128.9z M610.7,128.3c-0.7,0.8-0.4,4.9-0.2,5.3
			c0.3,0.5,4.6,5.7,5.6,6c0.9,0.3,8-0.5,8.5-1.4c0.6-0.9,2.3-4.8,1.8-5.7c-0.5-0.9-2-2.1-6.7-3.4C614.9,127.9,612.2,128,610.7,128.3
			z M628.5,133.4c1.1,0.7,7.8,4.6,11.7,7.7c3.9,3.1,5.5,6.7,6.6,7c1.1,0.3,5.7-3.1,5.9-4c0.2-0.9-5.6-5.8-9.5-8
			C639.3,133.9,628.5,133.6,628.5,133.4z M627.1,136.6c-0.6,0.6,7.1,16.7,8.5,17.2c1.5,0.5,10.2-3.1,10-4.3
			c-0.1-1.2-2.4-3.7-7.8-7.2C632.6,138.7,628.2,136.3,627.1,136.6z M617.7,142.5c-1.2,0.8-3.1,15.3-1.9,15.9
			c1.2,0.7,16-1.8,16.5-3.4c0.6-1.6-6.1-14.3-8-14.3C622.3,140.8,618.8,141.4,617.7,142.5L617.7,142.5z M602.4,139.5
			c-1.6,1.8-1.3,15.2-0.6,16c0.7,0.8,9.5,3.6,10.4,2.6c0.9-1,2.2-16.1,1.3-17.2s-3.3-3.9-5.2-4.1
			C606.4,136.5,603.3,138.9,602.4,139.5z M582.6,139.2c-1.5,1.4-1.5,5,0.1,5.6c1.6,0.6,5.5,2.7,9.1,4.6c3.7,1.9,5.7,4.2,6.8,4.1
			c1.1-0.1,2.1-13.5,0.9-14.3c-1.1-0.8-4.5-1.4-7.6-1.2C588.8,138.2,584.2,138.5,582.6,139.2z"/>
	</g>
	<path class="st9" d="M517.5,310c2.6-2.5,6.6-8.7,12.1-9c5.5-0.3,11.2,4.8,11.2,4.8s5.8,23.5,5.5,23.5c-0.3,0-9.5,6.7-9.8,6.7
		c-0.3,0-4-9.2-7.5-8.4c-3.5,0.8-3.2,13.4-3.7,12.6s-15.2-18.2-14.7-18.8C511.2,320.9,517.8,310.8,517.5,310L517.5,310z
		 M669.4,306.9c1.7-0.3,9.5-6.2,15-5.9c5.5,0.3,8.6,2.8,11.5,5.3c2.9,2.5,6.3,9,6.3,9s-6.9,19-7.5,19s-3.5,1.7-4,0.3
		s-2.3-5.9-5.8-6.4c-3.5-0.6-4.3,6.2-4.3,6.2L669.4,306.9L669.4,306.9z"/>
	<path class="st10" d="M673.2,312.8c0,1.7,10.6,28,27.9,33c17.3,5,22.7-4.8,24.7-8.1c2-3.4,9.2-3.1,9.2-3.1s-1.7,24.6-4.6,27.7
		c-2.9,3.1-5.2,9.8-21.3,10.1c-16.1,0.3-30.8-15.1-35.7-19.6c-4.9-4.5-11.2-16.2-13.8-21.6C657,326,673.4,313.4,673.2,312.8
		L673.2,312.8z M485.6,365.2c0.3,0,7.8,8.1,18.7,7.3c10.9-0.8,29.6-7.3,38.3-18.5c8.6-11.2,12.9-23.2,12.9-23.2
		s-12.7-22.4-12.9-22.4c-0.3,0-1.4,7.3-3.7,12c-2.3,4.8-8.6,18.2-19.3,22.4c-10.6,4.2-10.6,5.9-15,5.3c-4.3-0.6-15.5-7.3-15.5-7.6
		c0-0.3-5.5,13.2-5.5,13.2S482.4,362.4,485.6,365.2L485.6,365.2z"/>
	<path class="st10" d="M517.3,309.2c-0.8,0-21.2,11.1-20.3,15.8c0.8,4.8,35,72.1,108.2,72.9c73.2,0.8,118-61,114.7-71.3
		c-3.3-10.3-26-22.2-26-22.2s5.7,4.8,4.9,11.1c-0.8,6.3-26,61-89.5,59.4c-63.5-1.6-93.6-49.9-93.6-55.5S519,310.8,517.3,309.2
		L517.3,309.2z"/>
	<path class="st9" d="M715.7,358.2c1.7-1.4,12.4-30.5,18.4-29.7c6,0.8,4,9.5,3.5,11.8c-0.6,2.2-6.6,22.4-6.6,22.4s0.3-4.8-3.7-5.9
		C723.2,355.7,716.6,358.7,715.7,358.2L715.7,358.2z M485.6,365.5c0-1.6-4.9-7.1,0.8-8.7c5.7-1.6,13,1.6,13,1.6s-4.1-11.9-9-21.4
		c-4.9-9.5-6.5-7.9-10.6-6.3c-4.1,1.6-4,5.8-1.5,12.1C480.8,349.1,485.6,367.1,485.6,365.5L485.6,365.5z"/>
	<path class="st11" d="M552.7,311.1l7.1-23.9l-19.6-15l24.6-0.6l8-23.6l8.1,23.6l24.6,0.5l-19.5,15.1l7.2,23.9l-20.2-14.2
		L552.7,311.1z"/>
	<path class="st1" d="M685.2,186.6v92c0.2,45-45.7,84.4-76.1,92c-30.5-7.7-76.3-47.1-76.1-92v-92L685.2,186.6L685.2,186.6z"/>
	<path class="st12" d="M532.9,186.6l0.1,57.6c0,0,0.7-1.2,10.7-0.5c10,0.7,10.9,12.7,21.8,12.7c10.9,0,10.9-12.7,21.8-12.7
		s10.9,12.7,21.8,12.7s10.9-12.7,21.8-12.7s10.9,12.7,22.4,13.4c10.3-0.7,10.3-13.4,21.2-14.1l10.8,0.7v-57.1L532.9,186.6
		L532.9,186.6z"/>
	<path class="st13" d="M532.9,262.8v19h10.9c10,0.7,10.9,12.7,21.8,12.7c10.9,0,10.9-12.7,21.8-12.7c10.9,0,10.9,12.7,21.8,12.7
		c10.9,0,10.9-12.7,21.8-12.7c10.9,0,10.3,12,21.8,12.7c10.3-0.7,10.8-12,21.8-12.7h10.9v-19h-10.9c-10.9,0-10.9,12.7-21.8,12.7
		s-10.9-12.7-21.8-12.7c-10.9,0-10.9,12.7-21.8,12.7c-10.9,0-10.9-12.7-21.8-12.7s-10.9,12.7-21.8,12.7s-10.9-12.7-21.8-12.7
		L532.9,262.8L532.9,262.8z M536.2,300.9l7.6,19c10,0.7,10.9,12.7,21.8,12.7c10.9,0,10.9-12.7,21.8-12.7c10.9,0,10.9,12.7,21.8,12.7
		c10.9,0,10.9-12.7,21.8-12.7s10.3,12,21.8,12.7c10.3-0.7,10.6-12,21.5-12.7l7.8-19.3l-7.6,0.3c-10.9,0-10.9,12.7-21.8,12.7
		c-10.9,0-10.9-12.7-21.8-12.7c-10.9,0-10.9,12.7-21.8,12.7c-10.9,0-10.9-12.7-21.8-12.7c-10.9,0-10.9,12.7-21.8,12.7
		c-10.9,0-10.9-12.7-21.8-12.7H536.2L536.2,300.9z M609,370.7c10.9,0,35.8-19,35.5-19c0.3,0-2.9-12.7-13.8-12.7
		s-10.9,12.7-21.8,12.7c-10.9,0-10.9-12.7-21.8-12.7c-10.9,0-13.7,12.7-13.7,12.7C573.1,351.7,598.2,370.7,609,370.7L609,370.7z"/>
	<path class="st14" d="M552.8,230.6c1.2,0,12.3,1.6,20.4,1.1c8-0.5,11.1-3.2,11.1-3.8v-1.6h10.5c0,0,1.9,7.5,0.6,8
		c-1.2,0.5-4.3,2.7-4.9,2.7s0-3.8-1.2-2.7c-1.2,1.1-1.9,2.7-1.9,2.7s-1.2-1.6-1.9-1.6s-1.9,1.6-1.9,1.6s0-1.6-0.6-1.6
		c-0.6,0-3.7,2.7-3.7,2.7l-3.1-2.1c0,0-1.9,2.7-2.5,2.7s-4.3-2.1-4.3-2.1l-6.2,3.2c0,0,0-4.8-1.2-4.3c-1.2,0.5-8,0.5-8,0.5
		s-1.9,3.2-2.5,3.2s-3.1-2.7-2.5-2.7s1.9-1.6,1.2-2.1c-0.6-0.5-3.7,0-3.7-0.5s-1.2-3.8-0.6-3.8s3.1,0.5,3.1,0.5v-3.2h3.1
		L552.8,230.6L552.8,230.6z"/>
	<path class="st14" d="M563.9,200c-0.6,0-4.9,4.3-4.3,9.1c0.6,4.8,11.1,11.8,11.1,11.8s5.6-2.1,7.4,0s1.9,8.6,1.2,8.6s-8,1.6-8,0.5
		c0-1.1,0-2.1-0.6-2.1s-7.4,0.5-7.4,0.5l0.6-2.1l-6.2-1.1l2.5-2.1c0,0-9.9-3.8-9.3-3.8s4.3-2.1,4.3-2.1l-7.4-4.3h4.3
		c0,0-6.2-4.3-5.6-4.3c0.6,0,3.7,0.5,3.7,0.5l-1.9-4.3h1.9l-1.9-3.2l3.1-1.1l1.9,2.7l-0.6-6.4l4.3,0.5v5.4c0,0,1.9-3.2,1.9-3.8
		S564.5,201.1,563.9,200L563.9,200z"/>
	<path class="st15" d="M659.5,233.3c-0.8,0.7-3.1,2.1-3.1,2.1s5.2-0.4,5.1-0.4S659.7,233.7,659.5,233.3z M664,235.8
		c-0.3,0.4-1.2,4.6-0.6,4.3c0.6-0.3,3.1-3.4,3.1-3.4L664,235.8z M671.1,236.3c0.8,0.7,4.3,3.8,3.9,3.1c-0.5-0.7-0.9-3.5-1.2-3.6
		C673.4,235.7,671.4,236.6,671.1,236.3L671.1,236.3z M608.9,231.9c-0.5,0.1-4.3,2.7-4.3,2.7s6.5-1.1,6.2-1.1
		C610.5,233.5,608.8,232.3,608.9,231.9z M612.9,235.1c-0.6,0.5-2.6,4.3-1.8,4.2c0.8-0.1,4.2-2.5,4.2-2.5L612.9,235.1L612.9,235.1z
		 M610.5,229.9c-0.5-0.1-3.7-1.5-3.5-1.5c0.2,0,4.3-0.9,4.3-0.9L610.5,229.9z M549.4,228.2l-4.6-3.2l5.9,1.6L549.4,228.2
		L549.4,228.2z M545.4,230.3c-0.6,0-6.5,3.2-6.3,3.2s8.2,0.1,8,0C546.9,233.4,545.7,230.6,545.4,230.3L545.4,230.3z M549.1,235
		c-0.6,0.3-5.2,3.4-4.9,3.4c0.3,0,6.9,0.1,6.9,0S549.3,235.1,549.1,235z M548.5,201.6c0,0-1.7-3.8-1.5-3.8s4.3,3,4.3,3L548.5,201.6z
		 M553.1,196.9c0-0.1,0.5-2.4,0.5-2.4s4.2,2.8,4,2.8S553.4,197.3,553.1,196.9L553.1,196.9z M559.6,198.6c0-0.1,0.5-3.5,0.5-3.5
		s3.9,4.6,3.5,4.7C563.3,200,559.9,199.2,559.6,198.6z"/>
	<path class="st14" d="M621.4,222.1c0,0.3,6.5,4.8,6.6,5.9c0.2,1.1-11.7,1.3-11.7,1.3s-3.4-2.3-4.5-2.1c-1.1,0.1-1.5,2.4-1.5,2.4
		l2.8,1.3l-5.2,0.3l1.5,2.5l4-0.3l-0.9,2.4c0,0,2.5,1.6,2.9,1.3c0.5-0.3,2-2.7,3.2-3.1c1.2-0.4,3.9-0.4,3.9-0.4s-2,3-1.1,3
		c0.9,0,5.1-3.1,5.1-3.1s0.9,2.8,1.1,2.8c0.2,0,3.1-3.2,3.1-3.2s0,2.5,0.5,2.5s4.8-3.2,4.8-3.2s3.4,3.8,3.9,3.5c0.5-0.3,0.9-4,1.4-4
		s3.4-0.4,3.4-0.5s-1.9-1.5-2.2-3.4c-0.3-1.9,0.3-6.3,0.2-6.3S621.7,222.5,621.4,222.1L621.4,222.1z"/>
	<path class="st14" d="M588.6,213.9H649c6.2,0,11.7-2.1,11.7-5.4c0-3.2-9.9-3.8-13.6-2.7c-3.7,1.1-19.7,7.5-26.5,7s-13-4.3-13.6-8
		c-0.6-3.8,3.1-7,9.9-7s15.4,2.1,17.3,1.6s6.2-4.8,8-5.4c1.9-0.5,7.4-1.1,7.4-1.1l-2.5,1.6l8-1.6c0,0-6.2,5.9-12.3,7.5
		c-6.2,1.6-19.1,1.1-24.1,1.1s-7.4-0.5-6.8,2.7c0.6,3.2,4.3,5.4,7.4,4.8c3.1-0.5,12.3-3.2,12.3-3.2l-2.5-1.6l11.1-0.5
		c0,0-0.6-1.6,0-1.6s6.2,0.5,6.2,0.5s-3.7-1.6-3.1-1.6s3.1,0,8,0.5c4.9,0.5,15.4,2.1,14.8,6.4c-0.6,4.3-4.3,8-8.6,8
		c-4.3,0-8-1.1-8,0.5c0,1.6,4.9,2.7,8,2.7c3.1,0,6.8-2.1,7.4-2.1s1.9,3.2,2.5,3.2s4.3-1.1,4.3-1.1l-2.5,5.9l4.3,1.1
		c0,0-2.5,2.1-1.9,2.1s4.3,0,4.3,0.5s-4.9,3.8-4.9,4.3c0,0.5,3.7,2.1,3.7,2.1s-2.5,3.2-3.1,2.7c-0.6-0.5-3.1-3.2-3.1-3.2
		s-0.6,2.1-1.9,2.1s-3.7-0.5-3.7-0.5s1.9-3.2,1.2-3.2s-3.7,2.1-3.7,1.6l-1.8-1.6c0,0,4.9-1.7,4.9-4.3c0-2.5-2-5.1-10.9-5.5
		c-8.9-0.4-9.1,1.9-15.7,1.6c-6.6-0.3-6.6-2.5-11.6-2.5c-4.9,0-20.2,5.4-27.3,5.2c-7.1-0.1-16-0.5-15.7-0.8
		C582.9,226.7,588.4,214.3,588.6,213.9L588.6,213.9z"/>
	<path class="st14" d="M576.9,210.9c-0.6,0.3-6,0.9-6.3,5.9c-0.3,5,0.5,5,1.1,4.7c0.6-0.3,1.9-4.6,1.9-4.6s-1.9,5.9,0.2,7.2
		c1.3,0.8,2.7,1.5,4.2,1.9l0.8-4.7c0,0-1.5,4.6,2.2,6.2c3.7,1.6,5.1,0.4,4.8-0.8c-0.3-1.2-1.4-4.3-1.4-4.3s2.9,2.8,3.1,3.1
		c0.2,0.3,1.5,2.4,5.2,1.5c3.7-0.9,1.1-3.1,1.1-3.1l-4.5-3.2c0,0,4.6,4.2,6.6,2.7c2-1.5-1.5-4.7-1.4-4.6c0.2,0.1,2.9,4.6,4,1.7
		s-1.7-3.6-2.6-6.3c-0.9-2.7-1.7-3-0.8-4.6c0.9-1.6,1.1-4.7,1.1-4.7s3.9,0.8,3.5-2c-0.3-2.8-4.2-3.5-4.9-3.6c-0.8-0.1-0.6-3-0.9-2.8
		c-0.3,0.1-2.8,1.7-2.8,1.7s-2.2-4.4-2.6-4.2c-0.5,0.3-2.9,2.5-4.8,2.7c-1.9,0.1-2.9,2.4-2.9,2.4s-6.5-2.7-6.3,1.7
		c0.2,4.4,3.9,3.4,3.9,3.5S577.5,210.6,576.9,210.9L576.9,210.9z"/>
	<path class="st15" d="M580.4,204.1c0.7-0.2,1.8-1.2,3.1-1.1c1.3,0.1,3.3,1.1,2.3,1.6c-1,0.5-1.7,0.8-2.9,0.5
		C581.8,204.8,580.9,204.3,580.4,204.1L580.4,204.1z M593,203.9c-0.7-0.2-1.8-1.2-3.1-1.1c-1.3,0.1-3.3,1.1-2.3,1.6
		c1,0.5,1.7,0.8,2.9,0.5C591.6,204.7,592.5,204.1,593,203.9L593,203.9z"/>
	<path class="st16" d="M583.2,211.8c0.2,0.7,0.6,6.3,0.9,5.9c0.3-0.4,2.6-5.8,2.5-5.8C586.5,212,583.4,212.1,583.2,211.8
		L583.2,211.8z"/>
	<path class="st17" d="M581.7,212c0.1-1.6,1.2-1.5,3.7-1.2c2.5,0.3,3.7,1.3,3.5,1.6c-0.2,0.3-2.2,0.9-3.9,0.8
		C583.1,212.7,581.6,213.4,581.7,212z"/>
	<path class="st18" d="M585.4,208l-0.3,2.5 M595.7,201.2c0,0,2,0.8,1.7,1.6c-0.3,0.8-1.7,1.2-1.7,1.2 M578.9,200.5
		c-0.5,0.1-1.1,0.4-1.4,1.5c-0.3,1.1,1.4,1.7,1.4,1.7"/>
	<path class="st18" d="M583.8,206.1c0,0-2.2,1.9,1.5,1.9c3.7,0,1.1-1.7,1.1-1.7"/>
	<path class="st11" d="M591.9,354.6l6.4-21.1l-17.8-13.2l22.3-0.5l7.3-20.8l7.4,20.8l22.3,0.4L622,333.4l6.5,21L610.2,342
		L591.9,354.6z"/>
	<path class="st19" d="M594.9,348.9l5.3-16.7l-14.8-10.5l18.6-0.4l6.1-16.5l6.1,16.5l18.6,0.3L620,332.1l5.4,16.7l-15.3-9.9
		L594.9,348.9z"/>
	<path class="st11" d="M555.2,311.9l6.3-19.9l-17.6-12.5L566,279l7.2-19.7l7.3,19.6l22.1,0.4L585,291.9l6.4,19.9L573.3,300
		L555.2,311.9z"/>
	<path class="st19" d="M558.2,306.6l5.3-15.8l-14.7-9.9l18.4-0.4l6-15.6l6.1,15.6l18.4,0.3l-14.6,10l5.4,15.8l-15.1-9.4L558.2,306.6
		z"/>
	<path class="st11" d="M629.1,311.9l6.4-19.9l-17.8-12.5L640,279l7.3-19.7l7.4,19.6l22.3,0.4l-17.8,12.6l6.5,19.9L647.4,300
		L629.1,311.9z"/>
	<path class="st19" d="M632.2,306.6l5.4-15.8l-14.9-9.9l18.6-0.4l6.1-15.6l6.2,15.6l18.6,0.3l-14.8,10l5.4,15.8l-15.3-9.4
		L632.2,306.6z"/>
	<path class="st20" d="M502.8,323.4c8,34.5,41.9,60.2,87.5,66.2c58.6,7.8,114.5-21.9,124.8-66.3"/>
	<path d="M502.7,328.7l11-6.2l1,2.3l-4.3,2.4l1.4,3.1l4.3-2.4l1,2.3l-11,6.2l-1-2.3l5-2.8l-1.4-3.1l-5,2.8L502.7,328.7 M507.3,338.3
		l10.3-7.6l3.5,5.9l-1.7,1.3l-2.3-3.8l-2.4,1.8l2.1,3.5l-1.6,1.2l-2.1-3.5l-2.8,2.1l2.3,3.8l-1.7,1.3L507.3,338.3 M514.4,349.4
		l9.1-9.3l1.6,1.9l-3.6,3.7l2.1,2.6l3.6-3.7l1.6,1.9l-9.1,9.3l-1.6-1.9l4.1-4.2l-2.1-2.6l-4.1,4.2L514.4,349.4 M526.3,354.9l1.5,1.4
		l2.7-5L526.3,354.9 M520.5,356.6l10.2-8.3l2.3,2.3l-6,12.4l-1.9-1.8l1.6-3l-2-1.9l-2.5,2.2L520.5,356.6 M529.5,364.9l6.1-9.2
		l-2.1-1.7l1.2-1.8l6.1,5l-1.2,1.8l-2.1-1.7l-6.1,9.2L529.5,364.9 M534.5,368.9l6.4-11.7l2,1.3l-2.5,4.6l2.7,1.8l2.5-4.6l2,1.3
		l-6.4,11.7l-2-1.3l2.9-5.3l-2.7-1.8l-2.9,5.3L534.5,368.9 M546.6,376.6l5.2-12.4l5.9,3l-0.8,2l-3.8-1.9l-1.2,2.9l3.6,1.8l-0.8,2
		l-3.6-1.8l-2.3,5.5L546.6,376.6 M558,374.7c-0.7,2.1-1.1,3.5-1,4.1c0,0.6,0.4,1.1,1,1.3c0.6,0.2,1.1,0.2,1.5-0.3
		c0.4-0.4,1-1.7,1.7-3.9c0.7-2.1,1.1-3.5,1-4.2s-0.3-1.1-0.9-1.3c-0.6-0.3-1.1-0.1-1.5,0.3C559.3,371.2,558.7,372.5,558,374.7
		 M555.8,373.7c0.5-1.4,0.9-2.4,1.3-3.2c0.4-0.8,0.8-1.3,1.2-1.6c0.5-0.4,1.1-0.7,1.6-0.7s1.2,0.1,2,0.4c0.8,0.3,1.3,0.7,1.7,1.1
		c0.4,0.4,0.6,1,0.8,1.8c0.1,0.5,0.1,1.2-0.1,2.1c-0.2,0.9-0.5,2-0.9,3.3c-0.5,1.4-0.9,2.4-1.3,3.2c-0.4,0.8-0.8,1.3-1.2,1.6
		c-0.5,0.4-1.1,0.7-1.6,0.7s-1.2-0.1-2-0.4s-1.3-0.7-1.7-1.1c-0.4-0.4-0.6-1-0.8-1.8c-0.1-0.5-0.1-1.2,0.1-2.1
		C555,376.2,555.4,375.1,555.8,373.7 M566.4,370.8l2.2,0.7l-2.4,8.9c-0.3,1-0.3,1.7-0.2,2.2c0.1,0.4,0.5,0.7,1,0.9
		c0.6,0.2,1,0.1,1.3-0.2c0.3-0.3,0.6-1,0.9-2l2.4-8.8l2.2,0.7l-2.4,9.1c-0.2,0.9-0.5,1.5-0.7,1.9c-0.2,0.4-0.4,0.7-0.7,0.9
		c-0.4,0.4-1,0.6-1.5,0.6c-0.6,0.1-1.2,0-2-0.3c-1.4-0.4-2.2-1.1-2.6-1.9c-0.4-0.8-0.3-2.1,0.1-3.7L566.4,370.8 M572.3,387l2.7-13.4
		l2.3,0.6l1.3,10.1l1.8-9.4l2.1,0.5l-2.7,13.4l-2.3-0.6l-1.3-10.2l-1.8,9.4L572.3,387 M584.4,387.7l1,0.2c0.5,0.1,0.9,0.1,1.1,0.1
		c0.2,0,0.4-0.2,0.6-0.3c0.3-0.3,0.5-0.8,0.7-1.4c0.2-0.6,0.4-1.6,0.5-2.9c0.2-1.3,0.3-2.3,0.2-2.9c0-0.6-0.1-1.1-0.3-1.5
		c-0.1-0.2-0.3-0.3-0.5-0.4c-0.2-0.1-0.5-0.2-1-0.3l-1-0.2L584.4,387.7 M581.9,389.3l1.9-13.6l3.7,0.6c0.7,0.1,1.3,0.3,1.7,0.5
		c0.4,0.2,0.8,0.5,1,0.9c0.4,0.5,0.6,1.2,0.7,1.9c0.1,0.7,0,1.8-0.2,3.3c-0.3,1.9-0.5,3.3-0.8,4.1c-0.2,0.8-0.5,1.4-0.9,1.9
		c-0.4,0.5-0.8,0.8-1.3,1c-0.5,0.1-1.4,0.1-2.6-0.1L581.9,389.3 M591.5,390.9l1.2-13.7l6.3,0.7l-0.2,2.3l-4-0.4l-0.3,3.2l3.8,0.4
		l-0.2,2.2l-3.8-0.4l-0.3,3.8l4.1,0.4l-0.2,2.3L591.5,390.9 M601.9,389.8l1,0c0.5,0,0.9,0,1.1-0.1c0.2-0.1,0.4-0.2,0.5-0.4
		c0.2-0.3,0.4-0.8,0.5-1.4c0.1-0.6,0.2-1.6,0.2-3c0-1.3,0-2.3-0.1-2.9c-0.1-0.6-0.3-1.1-0.5-1.4c-0.1-0.2-0.3-0.3-0.5-0.3
		c-0.2-0.1-0.5-0.1-1-0.1l-1,0L601.9,389.8 M599.6,391.7L600,378l3.7,0.1c0.8,0,1.4,0.1,1.8,0.3c0.4,0.2,0.8,0.4,1.1,0.7
		c0.4,0.5,0.7,1.1,0.9,1.8c0.2,0.7,0.2,1.8,0.2,3.3c-0.1,1.9-0.2,3.3-0.3,4.1c-0.1,0.8-0.4,1.5-0.7,2c-0.3,0.6-0.7,0.9-1.2,1.1
		c-0.5,0.2-1.4,0.3-2.6,0.2L599.6,391.7 M613.3,391.9l-0.5-13.7l2.3-0.1l0.5,13.7L613.3,391.9 M619.5,391.5l-0.8-11.4l-2.6,0.2
		l-0.2-2.3l7.6-0.7l0.2,2.3l-2.6,0.2l0.8,11.4L619.5,391.5 M627.6,376.8l2.3-0.4l1.4,9.1c0.2,1,0.4,1.7,0.7,2.1
		c0.3,0.3,0.7,0.4,1.3,0.3c0.6-0.1,1-0.4,1.1-0.8c0.2-0.4,0.2-1.2,0-2.2l-1.4-9.1l2.2-0.4l1.5,9.3c0.1,0.9,0.2,1.6,0.2,2
		c0,0.4-0.1,0.8-0.3,1.2c-0.2,0.5-0.6,1-1.1,1.3c-0.5,0.3-1.1,0.6-1.9,0.7c-1.4,0.3-2.4,0.1-3.1-0.4c-0.7-0.6-1.1-1.7-1.4-3.3
		L627.6,376.8 M639.9,380.3l0.9-0.3c0.7-0.2,1.2-0.5,1.4-0.8c0.2-0.4,0.2-0.9,0.1-1.7c-0.2-0.7-0.4-1.2-0.7-1.4
		c-0.3-0.2-0.8-0.2-1.6,0l-1,0.3L639.9,380.3 M639.3,388.4l-2.9-13.3l3.9-1c1.2-0.3,2.1-0.3,2.7,0.2s1.1,1.3,1.4,2.7
		c0.3,1.3,0.2,2.4-0.2,3.2c-0.4,0.8-1.2,1.3-2.3,1.6l-1.6,0.4l1.2,5.7L639.3,388.4 M648.2,378.7c0.6,2.2,1.1,3.5,1.5,4
		c0.4,0.5,0.9,0.6,1.5,0.4c0.6-0.2,0.9-0.6,1-1.2c0.1-0.6-0.2-2-0.8-4.2s-1.1-3.5-1.5-4c-0.4-0.5-0.9-0.6-1.5-0.4
		c-0.6,0.2-0.9,0.6-1,1.3S647.5,376.5,648.2,378.7 M645.9,379.5c-0.4-1.4-0.7-2.5-0.8-3.4c-0.1-0.9-0.1-1.6,0-2.1
		c0.2-0.7,0.5-1.3,0.9-1.7s1-0.8,1.8-1c0.8-0.3,1.4-0.4,2-0.3c0.5,0.1,1.1,0.4,1.6,0.8c0.4,0.3,0.7,0.9,1.1,1.7
		c0.4,0.8,0.7,1.9,1.1,3.3c0.4,1.4,0.6,2.5,0.8,3.4c0.1,0.9,0.1,1.6,0,2.1c-0.2,0.7-0.5,1.3-0.9,1.7c-0.4,0.4-1,0.8-1.8,1
		c-0.8,0.3-1.4,0.4-2,0.3c-0.5-0.1-1.1-0.4-1.6-0.8c-0.4-0.3-0.7-0.9-1.1-1.7C646.7,382,646.3,380.9,645.9,379.5 M657.2,382.6
		l-4.6-12.7l2.2-1l6.2,7.6l-3.3-8.9l2-0.9l4.6,12.7l-2.2,1l-6.2-7.6l3.3,8.9L657.2,382.6 M671.5,375.6l-4.8-10.1l-2.3,1.4l-1-2
		l6.7-3.9l1,2l-2.3,1.4l4.8,10.1L671.5,375.6 M676.9,372.4l-6.6-11.6l1.9-1.4l2.6,4.5l2.7-1.9l-2.6-4.5l1.9-1.4l6.6,11.6l-1.9,1.4
		l-3-5.3l-2.7,1.9l3,5.3L676.9,372.4 M685.2,366.4l-7.4-10.9l5.1-4.2l1.2,1.8l-3.2,2.7l1.7,2.5l3-2.5l1.2,1.7l-3,2.5l2,3l3.3-2.8
		l1.3,1.8L685.2,366.4 M691.5,354.7l1.6-1.8l0.6,0.6c0.5,0.6,1,0.9,1.3,1c0.3,0.1,0.7-0.1,1-0.4c0.3-0.4,0.5-0.8,0.5-1.2
		c0-0.4-0.2-0.8-0.5-1.2c-0.3-0.3-0.5-0.5-0.9-0.5c-0.3-0.1-0.8,0-1.5,0.1l-1.4,0.3c-1.2,0.2-2.1,0.3-2.6,0.1
		c-0.5-0.2-1-0.5-1.5-1.1c-0.7-0.8-1.1-1.7-1-2.6c0-0.9,0.4-1.8,1.2-2.7c0.8-0.9,1.7-1.3,2.5-1.3s1.7,0.5,2.5,1.4
		c0.1,0.1,0.1,0.2,0.2,0.2c0,0.1,0.1,0.1,0.1,0.1l-1.6,1.7l-0.2-0.3c-0.5-0.5-0.9-0.8-1.2-0.9c-0.4-0.1-0.7,0.1-1.1,0.5
		c-0.3,0.3-0.4,0.6-0.4,0.9c0,0.3,0.1,0.6,0.4,1c0.4,0.4,1.1,0.5,2.2,0.3c0,0,0,0,0,0l1.5-0.3c1.1-0.2,1.9-0.3,2.5-0.1
		c0.6,0.2,1.2,0.6,1.8,1.2c0.8,0.9,1.2,1.8,1.1,2.8c0,1-0.5,1.9-1.3,2.9c-0.9,1-1.8,1.4-2.7,1.4c-0.9,0-1.8-0.6-2.7-1.6
		C691.9,355.2,691.8,355,691.5,354.7L691.5,354.7 M701.1,350.8l-9.5-8.8l4.1-5.4l1.6,1.5l-2.6,3.5l2.2,2l2.4-3.2l1.5,1.4l-2.4,3.2
		l2.6,2.4l2.7-3.5l1.6,1.5L701.1,350.8 M703.5,338.5l1.1-1.8l-4.8-2.3L703.5,338.5 M705.7,344.6l-8.7-10.2l1.7-2.8l11.8,5.1
		l-1.4,2.3l-2.9-1.4l-1.5,2.4l2.2,2.5L705.7,344.6 M707.2,333.5l1.1-2.3l0.7,0.4c0.7,0.4,1.2,0.6,1.5,0.5c0.3-0.1,0.6-0.3,0.8-0.8
		c0.2-0.5,0.3-0.9,0.2-1.3c-0.1-0.4-0.4-0.7-0.8-0.9c-0.3-0.2-0.7-0.3-1-0.2c-0.3,0-0.8,0.2-1.4,0.6l-1.3,0.7c-1.1,0.6-1.9,1-2.4,1
		c-0.5,0-1.1-0.1-1.7-0.5c-0.9-0.5-1.5-1.2-1.7-2.1s-0.1-1.9,0.4-3c0.5-1.1,1.2-1.8,2-2.1c0.8-0.3,1.8-0.1,2.8,0.5
		c0.1,0.1,0.2,0.1,0.2,0.1c0.1,0,0.1,0.1,0.1,0.1l-1,2.2l-0.3-0.2c-0.6-0.3-1.1-0.5-1.4-0.4c-0.4,0.1-0.7,0.4-0.9,0.9
		c-0.2,0.4-0.2,0.7-0.1,1c0.1,0.3,0.3,0.6,0.7,0.8c0.5,0.3,1.2,0.1,2.2-0.5c0,0,0,0,0,0l1.3-0.8c0.9-0.6,1.7-0.9,2.3-1
		c0.6,0,1.3,0.1,2,0.6c1,0.6,1.6,1.3,1.9,2.3c0.3,0.9,0.1,2-0.4,3.2c-0.6,1.2-1.3,2-2.1,2.3c-0.8,0.3-1.9,0.1-3-0.6
		C707.6,333.8,707.4,333.6,707.2,333.5L707.2,333.5"/>
</g>
</svg>
