<?xml version="1.0" encoding="utf-8"?>
<!-- Generator: Adobe Illustrator 20.0.0, SVG Export Plug-In . SVG Version: 6.00 Build 0)  -->
<!DOCTYPE svg PUBLIC "-//W3C//DTD SVG 1.1//EN" "http://www.w3.org/Graphics/SVG/1.1/DTD/svg11.dtd">
<svg version="1.1" id="Layer_1" xmlns="http://www.w3.org/2000/svg" xmlns:xlink="http://www.w3.org/1999/xlink" x="0px" y="0px"
	 viewBox="0 0 800 480" style="enable-background:new 0 0 800 480;" xml:space="preserve">
<style type="text/css">
	.st0{fill:#37B0CC;}
	.st1{fill:#FFE400;}
</style>
<g>
	<path class="st0" d="M0,0h800v480H0V0z"/>
	<g>
		<path class="st1" d="M57,445.8c3,2.9,2,7.8,10.2,7.1c12.6,0,12.9-7.7,12.9-13.1c0-5.4-18.7-12.9-19.6-20.7
			c-0.9-7.9,4.3-10.1,8.7-10.1c4.3,0,7.4,2.5,7.4,4.7c0,2.2-2.2,2.8-5.2,2.8s1.3-1.6-1.3-2.8c-2.6-1.3-4.3,1.9-4.3,3.8
			c0,1.9,6.5,2.5,10.8,1.1c0.9,4.3,1.3,4.6-4.8,11.8c4.3-2.8,4.8-3.5,9.5-1.9c-4.8-4.1-1.2-12.5-1-14.6c0.2-2.1-0.9-4.7-2.9-5.9
			c-3.5-3.2-11.1-3.3-15.6-1.3c-6.6,3-6.9,11.7-5.2,14.5L75,440.2c1.3,2.2,1.7,8.4-6,8.7c-8.2,0.6-11.1-10.6-12.5-14.3
			c-2,4.1-4.1,15.3-12.4,14.7c-7.8-0.3-9.3-6.5-8-8.7l18.9-19.2c1.7-2.9,1.4-11.6-5.2-14.5c-4.5-2-12.1-1.9-15.6,1.3
			c-1.9,1.3-3,3.8-2.9,5.9c0.2,2.1,3.7,10.5-1,14.6c4.8-1.6,5.2-1,9.5,1.9c-6.1-7.3-5.6-7.6-4.8-11.8c4.3,1.4,10.8,0.8,10.8-1.1
			c0-1.9-1.7-5.1-4.3-3.8c-2.6,1.3,1.7,2.8-1.3,2.8c-3,0-5.2-0.6-5.2-2.8c0-2.2,3-4.7,7.4-4.7s9.5,2.2,8.7,10.1
			c-0.9,7.9-20.1,16.5-20.1,21.9c0,5.4,1.3,11.9,13.9,11.9C53.1,453.6,54.1,448.7,57,445.8L57,445.8z"/>
		<path class="st1" d="M56,333.2c3-2.9,5.4-11.5,13.6-10.9c12.6,0,17.3,6.9,17.3,12.3c0,5.4-25.6,49.2-26.4,57.1
			c-0.9,7.9,4.3,10.1,8.7,10.1c4.3,0,7.4-2.5,7.4-4.7c0-2.2-2.2-2.8-5.2-2.8c-3,0,1.3,1.6-1.3,2.8c-2.6,1.3-4.3-1.9-4.3-3.8
			c0-1.9,6.5-2.5,10.8-1.1c0.9-4.3,1.3-4.6-4.8-11.8c4.3,2.8,4.8,3.5,9.5,1.9c-4.8,4.1-1.2,12.5-1,14.6c0.2,2.1-0.9,4.7-2.9,5.9
			c-3.5,3.2-11.1,3.3-15.6,1.3c-6.6-3-6.9-11.7-5.2-14.5l24.7-53.3c1.3-2.2-2.2-9.5-10-9.8c-8.2-0.6-11.1,8-12.5,11.7l11.2-0.8
			c0,0,0.4,1.7,0,2.9c-5.8,0.4-11.2,1.4-11.2,1.4l-0.4,5.7H64l-0.4,2.5c0,0-4.7-0.3-5.1,0c-0.4,0.3-0.9,5.7-0.9,5.7
			s-0.9,0.3-1.8,0.3c-0.9,0-1.8-0.3-1.8-0.3s-0.4-5.4-0.9-5.7c-0.4-0.3-5.1,0-5.1,0l-0.4-2.5h5.5l-0.4-5.7c0,0-5.4-1.1-11.2-1.4
			c-0.4-1.1,0-2.9,0-2.9l11.2,0.8c-1.5-3.7-4.3-12.4-12.5-11.7c-7.8,0.3-11.3,7.6-10,9.8l24.7,53.3c1.7,2.9,1.4,11.6-5.2,14.5
			c-4.5,2-12.1,1.9-15.6-1.3c-1.9-1.3-3-3.8-2.9-5.9c0.2-2.1,3.7-10.5-1-14.6c4.8,1.6,5.2,1,9.5-1.9c-6.1,7.3-5.6,7.6-4.8,11.8
			c4.3-1.4,10.8-0.8,10.8,1.1c0,1.9-1.7,5.1-4.3,3.8c-2.6-1.3,1.7-2.8-1.3-2.8c-3,0-5.2,0.6-5.2,2.8c0,2.2,3,4.7,7.4,4.7
			s9.5-2.2,8.7-10.1c-0.9-7.9-26.4-51.8-26.4-57.1c0-5.4,4.8-12.3,17.3-12.3C50.1,321.7,53.1,330.3,56,333.2L56,333.2z"/>
		<path class="st1" d="M56,311.5c3,2.9,5.4,11.5,13.6,10.9c12.6,0,17.3-6.9,17.3-12.3c0-5.4-25.6-49.2-26.4-57.1
			c-0.9-7.9,4.3-10.1,8.7-10.1c4.3,0,7.4,2.5,7.4,4.7c0,2.2-2.2,2.8-5.2,2.8c-3,0,1.3-1.6-1.3-2.8c-2.6-1.3-4.3,1.9-4.3,3.8
			c0,1.9,6.5,2.5,10.8,1.1c0.9,4.3,1.3,4.6-4.8,11.8c4.3-2.8,4.8-3.5,9.5-1.9c-4.8-4.1-1.2-12.5-1-14.6c0.2-2.1-0.9-4.7-2.9-5.9
			c-3.5-3.2-11.1-3.3-15.6-1.3c-6.6,3-6.9,11.7-5.2,14.5l24.7,53.3c1.3,2.2-2.2,9.5-10,9.8c-8.2,0.6-11.1-8-12.5-11.7l11.2,0.8
			c0,0,0.4-1.7,0-2.9c-5.8-0.4-11.2-1.4-11.2-1.4l-0.4-5.7H64l-0.4-2.5c0,0-4.7,0.3-5.1,0c-0.4-0.3-0.9-5.7-0.9-5.7
			s-0.9-0.3-1.8-0.3c-0.9,0-1.8,0.3-1.8,0.3s-0.4,5.4-0.9,5.7c-0.4,0.3-5.1,0-5.1,0l-0.4,2.5h5.5l-0.4,5.7c0,0-5.4,1.1-11.2,1.4
			c-0.4,1.1,0,2.9,0,2.9l11.2-0.8c-1.5,3.7-4.3,12.4-12.5,11.7c-7.8-0.3-11.3-7.6-10-9.8l24.7-53.3c1.7-2.9,1.4-11.6-5.2-14.5
			c-4.5-2-12.1-1.9-15.6,1.3c-1.9,1.3-3,3.8-2.9,5.9c0.2,2.1,3.7,10.5-1,14.6c4.8-1.6,5.2-1,9.5,1.9c-6.1-7.3-5.6-7.6-4.8-11.8
			c4.3,1.4,10.8,0.8,10.8-1.1c0-1.9-1.7-5.1-4.3-3.8c-2.6,1.3,1.7,2.8-1.3,2.8c-3,0-5.2-0.6-5.2-2.8c0-2.2,3-4.7,7.4-4.7
			s9.5,2.2,8.7,10.1c-0.9,7.9-26.4,51.8-26.4,57.1c0,5.4,4.8,12.3,17.3,12.3C50.1,323,53.1,314.4,56,311.5L56,311.5z"/>
		<path class="st1" d="M56,166.9c3-2.9,5.4-11.5,13.6-10.9c12.6,0,17.3,6.9,17.3,12.3c0,5.4-25.6,49.2-26.4,57.1
			c-0.9,7.9,4.3,10.1,8.7,10.1c4.3,0,7.4-2.5,7.4-4.7s-2.2-2.8-5.2-2.8c-3,0,1.3,1.6-1.3,2.8c-2.6,1.3-4.3-1.9-4.3-3.8
			c0-1.9,6.5-2.5,10.8-1.1c0.9-4.3,1.3-4.6-4.8-11.8c4.3,2.8,4.8,3.5,9.5,1.9c-4.8,4.1-1.2,12.5-1,14.6c0.2,2.1-0.9,4.7-2.9,5.9
			c-3.5,3.2-11.1,3.3-15.6,1.3c-6.6-3-6.9-11.7-5.2-14.5L81.4,170c1.3-2.2-2.2-9.5-10-9.8c-8.2-0.6-11.1,8-12.5,11.7l11.2-0.8
			c0,0,0.4,1.7,0,2.9c-5.8,0.4-11.2,1.4-11.2,1.4l-0.4,5.7H64l-0.4,2.5c0,0-4.7-0.3-5.1,0c-0.4,0.3-0.9,5.7-0.9,5.7
			s-0.9,0.3-1.8,0.3c-0.9,0-1.8-0.3-1.8-0.3s-0.4-5.4-0.9-5.7c-0.4-0.3-5.1,0-5.1,0l-0.4-2.5h5.5l-0.4-5.7c0,0-5.4-1.1-11.2-1.4
			c-0.4-1.1,0-2.9,0-2.9l11.2,0.8c-1.5-3.7-4.3-12.4-12.5-11.7c-7.8,0.3-11.3,7.6-10,9.8l24.7,53.3c1.7,2.9,1.4,11.6-5.2,14.5
			c-4.5,2-12.1,1.9-15.6-1.3c-1.9-1.3-3-3.8-2.9-5.9c0.2-2.1,3.7-10.5-1-14.6c4.8,1.6,5.2,1,9.5-1.9c-6.1,7.3-5.6,7.6-4.8,11.8
			c4.3-1.4,10.8-0.8,10.8,1.1c0,1.9-1.7,5.1-4.3,3.8c-2.6-1.3,1.7-2.8-1.3-2.8c-3,0-5.2,0.6-5.2,2.8c0,2.2,3,4.7,7.4,4.7
			s9.5-2.2,8.7-10.1c-0.9-7.9-26.4-51.8-26.4-57.1c0-5.4,4.8-12.3,17.3-12.3C50.1,155.4,53.1,164,56,166.9z"/>
		<path class="st1" d="M56,145.2c3,2.9,5.4,11.5,13.6,10.9c12.6,0,17.3-6.9,17.3-12.3c0-5.4-25.6-49.2-26.4-57.1
			c-0.9-7.9,4.3-10.1,8.7-10.1c4.3,0,7.4,2.5,7.4,4.7s-2.2,2.8-5.2,2.8c-3,0,1.3-1.6-1.3-2.8c-2.6-1.3-4.3,1.9-4.3,3.8
			c0,1.9,6.5,2.5,10.8,1.1c0.9,4.3,1.3,4.6-4.8,11.8c4.3-2.8,4.8-3.5,9.5-1.9c-4.8-4.1-1.2-12.5-1-14.6s-0.9-4.7-2.9-5.9
			c-3.5-3.2-11.1-3.3-15.6-1.3c-6.6,3-6.9,11.7-5.2,14.5l24.7,53.3c1.3,2.2-2.2,9.5-10,9.8c-8.2,0.6-11.1-8-12.5-11.7l11.2,0.8
			c0,0,0.4-1.7,0-2.9c-5.8-0.4-11.2-1.4-11.2-1.4l-0.4-5.7H64l-0.4-2.5c0,0-4.7,0.3-5.1,0c-0.4-0.3-0.9-5.7-0.9-5.7
			s-0.9-0.3-1.8-0.3c-0.9,0-1.8,0.3-1.8,0.3s-0.4,5.4-0.9,5.7c-0.4,0.3-5.1,0-5.1,0l-0.4,2.5h5.5l-0.4,5.7c0,0-5.4,1.1-11.2,1.4
			c-0.4,1.1,0,2.9,0,2.9l11.2-0.8c-1.5,3.7-4.3,12.4-12.5,11.7c-7.8-0.3-11.3-7.6-10-9.8l24.7-53.3c1.7-2.9,1.4-11.6-5.2-14.5
			c-4.5-2-12.1-1.9-15.6,1.3c-1.9,1.3-3,3.8-2.9,5.9c0.2,2.1,3.7,10.5-1,14.6c4.8-1.6,5.2-1,9.5,1.9c-6.1-7.3-5.6-7.6-4.8-11.8
			c4.3,1.4,10.8,0.8,10.8-1.1c0-1.9-1.7-5.1-4.3-3.8c-2.6,1.3,1.7,2.8-1.3,2.8c-3,0-5.2-0.6-5.2-2.8c0-2.2,3-4.7,7.4-4.7
			s9.5,2.2,8.7,10.1c-0.9,7.9-26.4,51.8-26.4,57.1c0,5.4,4.8,12.3,17.3,12.3C50.1,156.7,53.1,148.1,56,145.2z"/>
		<path class="st1" d="M57,32.6c3-2.9,2-7.8,10.2-7.1c12.6,0,12.9,7.7,12.9,13.1c0,5.4-18.7,12.9-19.6,20.7
			c-0.9,7.9,4.3,10.1,8.7,10.1c4.3,0,7.4-2.5,7.4-4.7s-2.2-2.8-5.2-2.8s1.3,1.6-1.3,2.8c-2.6,1.3-4.3-1.9-4.3-3.8
			c0-1.9,6.5-2.5,10.8-1.1c0.9-4.3,1.3-4.6-4.8-11.8c4.3,2.8,4.8,3.5,9.5,1.9c-4.8,4.1-1.2,12.5-1,14.6c0.2,2.1-0.9,4.7-2.9,5.9
			c-3.5,3.2-11.1,3.3-15.6,1.3c-6.6-3-6.9-11.7-5.2-14.5L75,38.2c1.3-2.2,1.7-8.4-6-8.7c-8.2-0.6-11.1,10.6-12.5,14.3
			c-2-4.1-4.1-15.3-12.4-14.7c-7.8,0.3-9.3,6.5-8,8.7L54.9,57c1.7,2.9,1.4,11.6-5.2,14.5c-4.5,2-12.1,1.9-15.6-1.3
			c-1.9-1.3-3-3.8-2.9-5.9c0.2-2.1,3.7-10.5-1-14.6c4.8,1.6,5.2,1,9.5-1.9c-6.1,7.2-5.6,7.6-4.8,11.8c4.3-1.4,10.8-0.8,10.8,1.1
			c0,1.9-1.7,5.1-4.3,3.8c-2.6-1.3,1.7-2.8-1.3-2.8c-3,0-5.2,0.6-5.2,2.8c0,2.2,3,4.7,7.4,4.7s9.5-2.2,8.7-10.1
			c-0.9-7.9-20.1-16.5-20.1-21.9c0-5.4,1.3-11.9,13.9-11.9C53.1,24.8,54.1,29.7,57,32.6L57,32.6z"/>
	</g>
	<g transform="translate(-194.73 8.285) scale(1.0673)">
		<path class="st1" d="M567.7,108.4L567.7,108.4c42.4,0,76.7,32.5,76.7,72.7v0c0,40.1-34.3,72.7-76.7,72.7h0
			c-42.4,0-76.7-32.5-76.7-72.7v0C490.9,140.9,525.3,108.4,567.7,108.4z"/>
		<path class="st1" d="M564,65c-0.6,0-4.1,24.2-5.4,29.6c-1.2,12.1,16.3,11.7,13.4-0.5L564,65L564,65z M570.1,299.2
			c0.6,0,5.8-23.9,7.6-29.2c2.1-12-15.4-12.7-13.4-0.4L570.1,299.2L570.1,299.2z M447.9,180.6c-0.1,0.6,25.2,5.7,30.8,7.3
			c12.7,2,13.5-14.5,0.5-12.7L447.9,180.6z M692.8,183.5c0-0.6-25.4-4.8-31.1-6.2c-12.7-1.6-12.8,15,0.1,12.7L692.8,183.5
			L692.8,183.5z M473.7,104c-0.4,0.4,16.1,19.2,19.5,23.7c8.6,9,20.1-3.6,8.7-9.7L473.7,104L473.7,104z M664,258.1
			c0.4-0.5-17.8-17.8-21.6-22.1c-9.4-8.2-19.7,5.2-7.7,10.4L664,258.1L664,258.1z M511.7,77.9c-0.6,0.3,7.2,23.5,8.4,29
			c4.4,11.4,20,4,11.9-5.9C532.1,101,511.7,77.9,511.7,77.9z M622.6,287.3c0.6-0.2-5.4-24-6.3-29.5c-3.5-11.7-19.6-5.3-12.3,5.1
			L622.6,287.3L622.6,287.3z M649.8,94.1c-0.5-0.4-20.5,15-25.4,18.1c-9.6,8,3.4,19.1,10.1,8.4L649.8,94.1L649.8,94.1z M484.9,268.7
			c0.4,0.4,21.5-13.6,26.6-16.4c10.2-7.4-2-19.2-9.5-9L484.9,268.7z M453.3,138.7c-0.3,0.6,21.7,13.3,26.5,16.6
			c11.2,5.9,17.8-9.4,4.9-11.8L453.3,138.7L453.3,138.7z M682.2,227.5c0.3-0.5-20.7-14.7-25.2-18.3c-10.8-6.6-18.5,8.3-5.8,11.5
			L682.2,227.5z M609.4,71.6c-0.6-0.2-13.1,21.1-16.5,25.7c-5.8,10.9,10.7,16.5,12.7,4.2L609.4,71.6L609.4,71.6z M524.8,291.8
			c0.6,0.3,14.6-20.2,18.3-24.6c6.6-10.4-9.4-17.2-12.3-5L524.8,291.8L524.8,291.8z M455,229.3c0.2,0.6,25.2-5.4,31-6.2
			c12.3-3.4,5.4-18.7-5.5-11.6L455,229.3z M682.2,136.9c-0.2-0.6-25.6,3.7-31.4,4.2c-12.5,2.6-6.7,18.3,4.6,12L682.2,136.9z"/>
		<path class="st1" d="M588.9,66.6c-0.6-0.1-9.1,22.9-11.6,28c-3.7,11.6,13.5,14.5,13.3,2.1L588.9,66.6L588.9,66.6z M545.2,297.2
			c0.6,0.2,10.8-22.3,13.6-27.2c4.6-11.4-12.4-15.4-13.1-3L545.2,297.2L545.2,297.2z M536.4,68.9c-0.6,0.1,1.7,24.4,1.7,30
			c1.7,12.1,18.6,7.9,13-3.3L536.4,68.9L536.4,68.9z M597.7,295.8c0.6-0.1,0.1-24.5,0.5-30.1c-0.8-12.1-18-9.1-13.2,2.5L597.7,295.8
			L597.7,295.8z M493,89.1c-0.5,0.3,11.5,21.9,13.8,27.1c6.4,10.5,20.4,0.5,10.6-7.8L493,89.1z M641.6,276.4
			c0.5-0.3-9.9-22.6-11.7-27.9c-5.7-10.9-20.3-1.9-11.2,7.1L641.6,276.4z M461.3,119.3c-0.4,0.5,19,16.6,23.1,20.6
			c10,7.6,19.3-6.4,7-10.9L461.3,119.3z M672.4,245.2c0.4-0.5-17.8-17.8-21.5-22.1c-9.4-8.3-19.7,5.2-7.8,10.4L672.4,245.2
			L672.4,245.2z M447.4,157.1c-0.2,0.6,23.7,9.7,29,12.3c12.1,4.1,15.9-12.1,2.8-12.4L447.4,157.1z M688.4,209.2
			c0.2-0.6-23-11.3-28-14.2c-11.8-4.9-16.8,11-3.7,12.2L688.4,209.2L688.4,209.2z M446.6,203.5c0.1,0.6,25.9,0.2,31.7,0.7
			c12.8-0.7,9.8-17-2.5-12.5L446.6,203.5z M690.1,162.9c0-0.6-25.8-1.9-31.6-2.8c-12.8-0.2-11,16.3,1.6,12.6L690.1,162.9
			L690.1,162.9z M468.7,251.6c0.4,0.5,23.4-10.5,28.9-12.5c11.2-5.9,0.9-19.3-8-10.2L468.7,251.6z M669,114.3
			c-0.3-0.5-24.1,8.9-29.7,10.6c-11.6,5.2-2.4,19.2,7.2,10.7L669,114.3L669,114.3z M506.2,283.5c0.5,0.3,17-18.5,21.2-22.4
			c7.8-9.7-7.3-18.1-11.6-6.3L506.2,283.5L506.2,283.5z M632.1,81.9c-0.5-0.4-18.3,17.3-22.8,20.9c-8.5,9.1,5.9,18.5,11.2,7.1
			L632.1,81.9L632.1,81.9z"/>
		<g transform="matrix(2.1824 0 0 2.0629 -405.01 -272.56)">
			<path class="st1" d="M392,243.4c0.6,2.3,0.7,14.9,13.4,27c12.7,12.1,34.2,14.8,34.2,14.8s0.1,1.7-1.4,1.8
				c-1.5,0.1-8.9-1.4-12.5-2.5c-3.7-1.1-6.9-3.1-7.3-3c-0.4,0.1-1.1,1.4-2.3,1.3c-1.1-0.1-6.3-5.6-8.6-7c-2.3-1.4-9.9-9.7-12.4-13.8
				c-2.5-4.1-3.1-6.8-3.9-6.8c-0.8,0-3.8,2-3.8,2s-2.7-4.1-5.1-10.6c-2.4-6.5-2.1-10.3-1.5-10.6c0.6-0.3,0.6,4.8,2.4,9.4
				c1.8,4.6,4.4,6.1,4.4,6.1s-1.7-2.4-3-8.4s-1.7-11.8-0.8-13.7c0.8-1.8,1.7-2.4,1.8-2.3c0.1,0.1-1.5,2.8-0.4,9.7
				c1.1,6.9,4.4,12.8,5.1,12.5c0.7-0.3-0.4-1.7-1-5.8c-0.6-4.1,0.6-6.6,1.5-6.9C391.1,236.3,391.8,241.2,392,243.4L392,243.4z
				 M383.1,254.9c-2.4-2.3-6.2-10.1-7-9.7c-0.8,0.4,6.2,11.7,6.3,12.7c0.1,1,1.7,4.1,0.6,3.7c-1.1-0.4-9.6-9.3-8.6-7.6
				c1,1.7,7.3,9.4,6.9,9.9s-5.2-4.2-5.4-3.7c-0.1,0.6,4.8,5.2,4.6,5.8c-0.1,0.6-3.1-3-3.1-2.3c0,0.7,3.1,4.2,3.1,4.8
				c0,0.6-2.7-2.5-1.8-0.8c0.8,1.7,3.2,3.2,3.1,3.8c-0.1,0.6-2-0.7-2-0.4c0,0.3,3.5,1.5,4.4,2.5c0.8,1,6.6,7.6,11,11
				c4.4,3.4,16.8,9.2,17.6,9.2c0.8,0,2.1-1.8,1.8-2.5c-0.3-0.7-12.4-4.8-15.8-7.9c-3.4-3.1-11.7-10.4-12.4-10.8
				c-0.7-0.4-2.5-0.3-2.5-0.7s2.4,0.3,2.3,0c-0.1-0.3-3.4-1.7-3.2-2c0.1-0.3,2.3,0.6,2.3,0.3c0-0.3-3.8-2.4-3.7-2.8
				c0.1-0.4,2.8,1.3,2.8,1c0-0.3-3.7-2.8-3.5-3.2c0.1-0.4,2.8,2,2.7,1.4c-0.1-0.6-2.1-3.5-2.1-3.9c0-0.4,3.2,3.1,3.5,2.4
				c0.3-0.7-1.1-6.5-1-6.6c0.1-0.1,2.4,1.3,2.8,0.4C387.2,257.7,385.1,256.6,383.1,254.9L383.1,254.9z M424.7,299.2
				c-1.7,0.2-2.5-0.4-1.5-1.7c1.3-0.1,4.9-1.2,6.2-1.8c1.3-0.5,2.6-1.3,3.7-2.3c1.1-1.1,1.7,0.7,1.2,1.6c-0.5,0.7-2.6,1.8-4.1,2.5
				C427.9,298.3,426,299.3,424.7,299.2L424.7,299.2z M435.9,294.6c-1.1-1.3-0.1-2.1,1.5-3.1c2.5-1.4,1.8-3.2,5.1-4.8
				c1.4-0.8,21.5-9,28.2-13.4c6.6-4.4,25.1-18.3,30-27.9c4.9-9.6,2.5-10.3,3.2-10.7c0.7-0.4,1.4,1.4,1.3,3.5c-0.1,2.1-1.7,8.4-1.3,9
				s7.5-4.9,10.3-11.7c2.8-6.8,5.1-13.8,6.5-13.8c1.4,0-2.4,11.5-4.8,16.1c-2.4,4.5-5.2,6.8-4.5,7.7c0.7,1,7.7-4.9,10.1-9.3
				c2.4-4.4,4.6-8.3,5.1-7.5c0.4,0.8-2.3,10.1-6.1,14.5c-3.8,4.4-8.3,7.5-7.6,8.2c0.7,0.7,5.8,1.4,11.1-2.3c5.4-3.7,5.9-9,6.6-8.7
				c0.7,0.3-0.7,7.6-5.8,12.1c-5.1,4.5-12,4.9-11.7,5.9c0.3,1,14.6-4.1,14.4-3c-0.3,1.1-18.6,8.3-18.7,9c0,0.6,3.1,0.7,8-0.4
				c4.9-1.1,9.6-4.9,10.3-4.1c0.1,1.3-3.5,4.4-9.2,5.8c-5.6,1.4-8.4,3.4-8.6,3.8c-0.1,0.4,10-1.3,10-0.7c0,0.6-13.2,3.1-13.4,3.8
				c-0.1,0.7,12.7-2.5,12.4-1.8c-0.3,0.7-17.3,5.8-17.2,6.1c0.1,0.3,14.2-3.1,13.9-2.5c-0.3,0.6-23.8,7.2-23.9,7.6
				c-0.1,0.4,20.7-4.6,20.6-4.2c-0.1,0.4-10.8,3.1-10.8,3.4c0,0.3,8.6-1.4,8.4-1c-0.1,0.4-21.7,5.9-22.1,6.8
				c-0.4,0.8,11.1-2.3,11-0.7c-0.1,1.5-24.9,10-25.1,8.4c-0.1-1.5,15.1-5.5,14.9-5.9c-0.1-0.4-8.7,1-8.9,0.1
				c-0.1-0.8,5.6-2.7,5.2-3.1c-0.4-0.4-4.8,1.3-4.4,0.3c0.4-1,8.6-4.8,8.4-5.1c-0.1-0.3-3,1-2.7,0c0.3-1,17.7-6.1,17.5-6.6
				c-0.3-0.6-8,1.3-8.7,1.4c-0.3-0.6,10.8-4.6,10.6-5.4c-0.3-0.7-5.9,2.4-6.2,1.5c-0.3-0.8,9.7-4.8,9.2-5.4c-0.6-0.6-5.2,1.5-5.8,1
				c-0.6-0.6,9.4-7.6,7.9-7.7c-1.5-0.1-3.4,2.1-3.7,0.7c0.3-1.8,7.9-4.8,6.2-6.2c-2.7-0.8-11.8,0.6-15.6,2.8
				c-3.8,2.3-16.3,14.8-19.4,16.8c-3.1,2-13.5,6.3-15.5,7.2c-3.1,1.1-3.7,2.8-6.8,4.4c-5.6,1.5-5.6,3.2-8.3,4.2
				C446.2,290.1,436,295,435.9,294.6L435.9,294.6z M421.7,301c-1.7,0.8-3.2,3.1-2.3,3.9c0.6,1.1,2.3-2.4,3.7-2.3
				c1.4,0.1,3.4,0.1,7.2,0.4c3.8,0.3,5.8-0.8,7.9-0.7c2.1,0.1,6.9-1.1,9.2-1.1s2.7,0.3,3-0.7c0.3-1-7-0.3-10.3-0.4
				c-3.2-0.1-7.3,0.7-9.7,0.7C428,300.7,424.1,300,421.7,301L421.7,301z"/>
			<path class="st1" d="M431,298.6L431,298.6c0.9,0,1.5,0.6,1.5,1.3v0c0,0.7-0.7,1.3-1.5,1.3l0,0c-0.9,0-1.5-0.6-1.5-1.3v0
				C429.4,299.2,430.1,298.6,431,298.6z"/>
			<path class="st1" d="M468.5,297.3c1.5-0.3,5.7,1.1,8.5,1.8c5.3,2,15,1,15,2c0,1-0.6,2.3-2.9,2.4c-2.3,0.1-7.9-0.8-7.7-0.8
				s4.5,2,3.2,2.5c-1.2,0.6-4.9-1.1-5.6-0.7c-0.6,0.4,3.4,1.3,2.8,1.5c-0.6,0.3-3.4-0.4-4.3-0.3c-0.9,0.1,0.8,1.1-0.3,1.5
				c-1.1,0.4-2.9-0.6-3.7-0.3c-0.8,0.3,1.7,1.8,0.6,2c-1.1,0.1-3.7-0.7-5.1-0.8c-1.4-0.1,1.4,1.4,0.4,1.5c-0.9,0.1-3.4-1.1-4.1-1.1
				c-0.6,0,0,1.7-0.9,1.7c-0.9,0-2-1.4-2.5-1.4c-0.5,0,0,1.7-0.9,1.7s-1.3-1.8-2-1.7c-0.9,0.1,0,2.4-1.2,2.3
				c-1.2-0.1-1.4-2.4-2.3-2.3c-0.9,0.1,0.2,2.3-0.8,2.3c-0.9,0-1.1-2.1-2-2.3c-0.9-0.1-0.5,2-1.1,2c-0.6,0-1.1-2-1.4-2
				c-0.3,0,0,2-1.1,1.8c-1.1-0.1-1.1-2.3-1.4-2.1c-0.3,0.1-0.3,1.5-1.1,1.5c-0.8,0-0.8-1.4-1.1-1.3c-0.3,0.1-1.4,2-2.2,1.7
				c-0.8-0.3,0.2-1.7-0.1-1.7c-0.3,0-1.3,1-1.9,0.8c-0.6-0.1,0-1.3-0.1-1.3c-0.2,0-1.6,0.7-2.2,0.7c-0.6,0-2.3,1-2.8,0.1
				c-0.5-0.8,1.2-0.8,1.5-1.7c0.3-0.8-0.9-3.2,0.3-4.1c1.2-0.8,5.1,1.1,10.8-0.3C459.5,300.4,467.6,297.1,468.5,297.3L468.5,297.3z"
				/>
		</g>
	</g>
</g>
</svg>
