<?xml version="1.0" encoding="utf-8"?>
<!-- Generator: Adobe Illustrator 20.0.0, SVG Export Plug-In . SVG Version: 6.00 Build 0)  -->
<!DOCTYPE svg PUBLIC "-//W3C//DTD SVG 1.1//EN" "http://www.w3.org/Graphics/SVG/1.1/DTD/svg11.dtd">
<svg version="1.1" id="Layer_1" xmlns="http://www.w3.org/2000/svg" xmlns:xlink="http://www.w3.org/1999/xlink" x="0px" y="0px"
	 viewBox="0 0 800 480" style="enable-background:new 0 0 800 480;" xml:space="preserve">
<style type="text/css">
	.st0{fill:#FF0000;}
	.st1{fill:#FFFFFF;}
	.st2{fill:#00A651;}
</style>
<g>
	<g transform="translate(80) scale(.9375)">
		<g>
			<path class="st0" d="M-85.3,384H768v128H-85.3V384z M-85.3,0H768v128H-85.3V0z"/>
			<path class="st1" d="M-85.3,128H768v256H-85.3V128z"/>
		</g>
	</g>
</g>
<path class="st2" d="M394.1,120.6L390,127c-2.3,3.5-7.7,8.9-12.1,11.8c-4.4,3-9.7,7.3-11.8,9.8l-3.9,4.4l4.1-1
	c2.2-0.6,5.2-1.5,6.5-2c1.3-0.5,2.4-0.2,2.4,0.7c0,0,0,0.1,0,0.1c0,0.1,0,0.1,0,0.2c-0.6,2.3-7.6,7.5-13.2,9.7
	c-5.3,2.1-13.3,7.6-14.3,9.7c0,0.1,0,0.1-0.1,0.2c0,0,0,0.1,0,0.1c0,0,0,0.1,0,0.1c0,0,0,0,0,0c0,0,0,0,0,0c0,0,0,0,0,0c0,0,0,0,0,0
	c0,0,0,0.1,0,0.1c0,0,0,0,0,0.1c0,0,0,0,0,0c0,0,0,0,0,0c0,0,0,0,0,0c0,0,0.1,0,0.1,0.1c0.6,0.4,2.3,0.5,4.3,0.1
	c3.5-0.7,4.9-0.3,6.1,2c1.8,3.4,0.8,5-3.3,5c-4.9,0-11.9,4.7-12.8,8.6c-0.6,2.6-3.3,4.8-9.1,7.2c-9.4,4-21.5,11.8-22.3,14.2
	c0,0.1,0,0.2,0,0.2c0,3.4,7.9,3.1,19.4-0.6c2.6-0.8,3.7,0,5.6,4.2c2.4,5.2,2.4,5.3-3.2,12.1c-3.9,4.7-7.3,7.2-11,7.9
	c-7.4,1.5-9.7,2.9-19.3,11.9c-4.6,4.3-9.2,7.9-10.3,8c-0.4,0-0.7,0.1-0.8,0.2c0,0,0,0,0,0c0,0,0,0,0,0c0,0,0,0,0,0c0,0,0,0,0,0
	c0,0,0,0,0,0c0,0,0,0,0,0c0,0,0,0,0,0c0,0,0,0,0,0c0,0,0,0,0,0.1c0,0,0,0,0,0c0,0,0,0.1,0,0.1c0,0,0,0,0,0.1c0,0,0,0,0,0.1
	c0.8,1.3,5.8,4,8.7,4c2.1,0,7.2-2.3,11.3-5c7.2-4.8,7.6-4.9,10.5-2.2c1.7,1.6,3,4.6,3,6.7c0,3.2-1.8,4.7-11.3,9.3
	c-7,3.4-15.3,9.2-21.7,15.3c-8.7,8.2-11.1,9.7-14.8,9.1c-2.3-0.4-3.6-0.5-4-0.3c0,0,0,0-0.1,0c0,0,0,0,0,0c0,0,0,0,0,0
	c0,0,0,0.1,0,0.1c0,0.4,0.8,1.3,2.2,2.7c1.3,1.4,4.4,2.5,6.8,2.5c6.6,0,27.6-7.4,34.1-12c6-4.3,11.8-5.1,16.7-2.4
	c7.5,4.2-5,12.6-28.6,19.2c-8.7,2.4-16.2,4.8-17.1,5.4c0,0,0,0-0.1,0c0,0,0,0,0,0c0,0,0,0,0,0c0,0,0,0,0,0c-0.3,0.5,0.2,1.9,1.2,3.2
	c2.5,3.1,14.8,3.2,25.4,0.3c4.2-1.2,14.8-5.2,23.4-8.9c15.7-6.7,15.7-6.7,21.2-4c12.7,6.3,11.6,17.3-3.7,35.4
	c-6.7,7.9-12.6,11.4-23.3,13.9c-4,0.9-12.2,8.2-12.2,10.8c0,0.3,0.1,0.5,0.1,0.6h2.7c0.6-0.4,1.2-1,1.8-1.8
	c3.4-4.3,10.2-7.1,17.1-7.1c7.5,0,16.7-3.9,23.6-10c6.1-5.3,12.2-6.9,16.8-4.4c2.6,1.4,4.9,1.6,8,0.5c5.5-2,8.2-1,8.2,2.9
	c0,1.7,1.9,4.1,4.6,5.5c2.5,1.4,7,4.7,10,7.4c2.3,2.1,3.9,3,4.8,3c0,0,0.1,0,0.1,0c0,0,0.1,0,0.1,0c0,0,0,0,0.1,0c0,0,0,0,0.1,0
	c0,0,0.1,0,0.1-0.1c0,0,0,0,0,0c0,0,0,0,0,0c0,0,0,0,0,0c0,0,0,0,0,0c0,0,0,0,0-0.1c0,0,0,0,0-0.1c0,0,0,0,0-0.1c0,0,0-0.1,0-0.1
	c0,0,0-0.1,0-0.1c0.1-0.9-0.7-2.7-2.4-5.3c-1-1.5-1.5-3-1.4-3.8c0,0,0-0.1,0-0.1c0,0,0,0,0-0.1c0,0,0,0,0,0c0,0,0,0,0,0
	c0,0,0-0.1,0.1-0.1c0,0,0,0,0,0c0,0,0,0,0.1,0c0,0,0,0,0,0c0,0,0,0,0.1,0c1-0.4,6-0.2,11.6,0.4c9.8,1.1,11,1.6,16.7,7.9
	c2.8,3.1,5.2,5.1,7.1,5.9h3.9c0.8-0.4,1.4-0.9,1.6-1.4c0,0,0,0,0-0.1c0,0,0-0.1,0-0.1c0,0,0,0,0-0.1c0,0,0,0,0-0.1c0,0,0,0,0,0
	c0,0,0,0,0,0c-0.3-1.1-6.1-6.3-13.1-11.7c-15.8-12.4-18.2-17-18.3-34.2c0-10.3,0.5-12.9,3-15.6c4-4.1,6.2-4,15.9,0.8
	c7.4,3.6,9.7,3.9,26.4,3.6c18-0.4,18.5-0.3,27.6,4.8c5.1,2.8,11.3,6.6,13.8,8.4c5.6,4,11.3,4.3,12.6,0.6c1.6-4.3-9.1-12.6-29.1-22.7
	c-19.9-10-22-12.8-12.8-17.4c5.2-2.6,5.6-2.5,13.8,1.8c6.6,3.5,9.6,4.2,13.9,3.4l5.4-1.1l-11.9-9.2c-6.6-5.1-12.9-10.5-14.1-12
	c-3.5-4.4-10.2-7.4-16.9-7.4c-3.1,0-6-0.6-6.8-1.3c0,0-0.1-0.1-0.1-0.1c0,0,0,0,0,0c0,0,0,0,0-0.1c-1.9-3.1,3.8-4.6,19.4-5.2
	c21.1-0.8,24-3.1,9.5-7.6c-5.8-1.8-14.5-4-19.4-5c-5.9-1.2-9.2-2.5-10-4c-0.1-0.2-0.2-0.4-0.2-0.6c0-0.1,0-0.3,0-0.4
	c0.1-0.5,0.4-1.1,0.9-1.6c1-1,5.7-0.9,13.8,0.4c9,1.4,14,1.8,14.9,0.8c0.9-1.1-3.2-4-12.4-8.8c-8.4-4.4-19-11.5-23.8-16
	c-4.8-4.5-11.9-9.5-15.8-11.2c-5.1-2.3-6.8-3.8-6.1-5.6c1.2-3.1,9.2-3.2,14.4-0.1c2.1,1.3,7.7,2.3,12.3,2.2l8.5-0.1l-5.6-2.1
	c-5.6-2.1-20.8-12.4-22-14.7c0,0,0-0.1-0.1-0.2c0,0,0,0,0-0.1c0,0,0,0,0,0c0,0,0,0,0,0c0,0,0,0,0,0c0,0,0,0,0,0c0,0,0,0,0,0
	c0.6-0.4,4.1-0.6,8.3-0.4l8.5,0.5l-12.2-8.9c-8.9-6.5-14.4-9.3-20.7-10.6c-4.7-0.9-10.1-2.1-12-2.5c-5.1-1.1-13.5-9.5-17-16.7
	L394.1,120.6z M366.4,165.3c0.2,0,0.4,0,0.6,0c1.6,0,2.7,0.4,3.2,0.9c0,0,0,0,0.1,0.1c0,0,0,0,0,0.1c0.1,0.1,0.1,0.2,0.1,0.3
	c0,0,0,0.1,0,0.1c0,0,0,0.1,0,0.1c0,0,0,0.1,0,0.1c0,0,0,0.1,0,0.2c0,0,0,0.1,0,0.1c-0.3,1-2.1,2.9-4,4.2c-1.4,1-2.3,1.5-2.7,1.4
	c0,0-0.1,0-0.1,0c0,0,0,0-0.1,0c0,0-0.1-0.1-0.1-0.1c-0.3-0.4-0.4-1.4-0.4-3.1C363,166.3,363.6,165.4,366.4,165.3z M407.5,169.3
	C407.5,169.3,407.5,169.3,407.5,169.3c2.5,0,4.1,1.1,4.4,2.8c0.4,2.2-0.6,2.8-4.3,2.8c-2.1,0-3.4-0.2-4-0.8c-0.4-0.4-0.5-1.1-0.4-2
	C403.6,170.4,405.1,169.4,407.5,169.3z M395.4,170.3c2.1-0.2,2.9,1,2.9,3.5c0,3-1.2,3.9-6.9,5.3c-3.6,0.9-6.9,1.3-7.6,1
	c0,0,0,0-0.1,0c0,0,0,0,0,0c-2-2.1-0.2-4.7,4.7-7.2C391.6,171.3,393.9,170.4,395.4,170.3z M423.1,170.3c3.1-0.1,3.4,1.3,1.9,5.3
	c-0.5,1.4-2.6,2.5-4.7,2.5c-3,0-3.7-0.7-3.3-3.6c0.4-2.6,1.7-3.8,4.7-4.1C422.3,170.4,422.7,170.3,423.1,170.3z M376.4,178.2
	c0.1,0,0.2,0,0.3,0c3.7,0,1.4,6.6-3.4,9.6c-4.2,2.7-8.7,3.8-10,2.8c0,0,0,0,0,0c-0.1-0.1-0.2-0.2-0.2-0.3c0,0,0,0,0-0.1
	c0,0,0-0.1,0-0.1c0,0,0,0,0-0.1c0,0,0-0.1,0-0.1c0,0,0-0.1,0-0.2c0,0,0,0,0,0C363.1,186.2,372,178.5,376.4,178.2z M411.2,193.4
	c1.8-0.2,2.9,1.6,2.3,5c-0.3,1.9-2.1,3.2-4.7,3.5c-2,0.2-3.3,0.2-3.7-0.4c0,0,0,0,0,0c0,0,0-0.1-0.1-0.1c0,0,0,0,0-0.1c0,0,0,0,0,0
	c0,0,0-0.1,0-0.1c-0.2-0.9,0.7-2.6,2.9-5.3C408.9,194.3,410.2,193.5,411.2,193.4z M397.3,194.2c0.1,0,0.2,0,0.2,0
	c3.5,0,4.1,2.9,0.9,4.7c-1.5,0.8-2.9,1.4-3.4,1.5c0,0,0,0-0.1,0c0,0,0,0-0.1,0c-0.3-0.1-2.2-0.7-4.3-1.4l-3.8-1.2l4.3-1.8
	C393.4,195,396.1,194.2,397.3,194.2z M427.2,197.8c1.7-0.1,3.5,0.2,5.3,0.9c3.2,1.3,3.8,2.4,3.2,5.7c-0.8,4.5-3.4,5-12.3,2.3
	c-4.4-1.3-4.8-1.9-3.4-4.7C421.2,199.5,424,198,427.2,197.8z M361.1,198.9c0.1,0,0.2,0,0.3,0c6.5,0,7.4,1.1,4.2,5
	c-1.1,1.3-3.1,3.3-4.5,4.4c-2.2,1.7-2.8,1.5-4.2-1.2c-1.6-3.2-2.2-5.3-1.4-6.6C356.3,199.5,358.2,199,361.1,198.9z M344.1,201.6
	c2.8-0.1,4.5,1.2,6.7,4.7l3.1,5l-4.6,1.7c-4.2,1.5-4.9,1.2-8.4-3.4c-2.2-2.9-3-4.9-2.4-6.1c0.1-0.1,0.1-0.2,0.2-0.3
	c0,0,0.1-0.1,0.1-0.1c0,0,0.1-0.1,0.1-0.1c0.8-0.7,2.4-1.2,4.8-1.4C343.7,201.7,343.9,201.7,344.1,201.6z M446.1,216.7
	c3.1-0.2,6.2,1.8,5.8,5.1c-0.6,4.2-5.4,5.4-9.4,2.4c-2.4-1.8-2.5-2.5-0.6-5.1C442.9,217.6,444.5,216.9,446.1,216.7z M388.2,224.6
	c0.1,0,0.2,0,0.4,0c0.3,0,0.5,0.1,0.7,0.1c0.1,0,0.3,0.1,0.4,0.2c0,0,0.1,0.1,0.1,0.1c0,0,0,0,0.1,0.1c0,0,0,0,0.1,0.1
	c0,0,0,0,0.1,0.1c0.5,0.6,0.6,1.5,0.4,2.9c-0.6,4.3-3.6,5.6-4.9,2.1C384.3,227,385.4,224.7,388.2,224.6z M368.8,227.9
	c1.3-0.2,3.4,0.6,5.6,2.3c1.5,1.1,2.1,2.3,2,3.1c0,0.1,0,0.2,0,0.2c0,0,0,0.1,0,0.2c0,0,0,0.1-0.1,0.1c0,0-0.1,0.1-0.1,0.2
	c0,0,0,0,0,0.1c0,0,0,0-0.1,0.1c0,0.1-0.1,0.1-0.2,0.2c0,0,0,0.1-0.1,0.1c-0.9,0.6-2.8,0.5-4.9-1.1c-1.8-1.3-3.3-3-3.4-3.9
	c0,0,0,0,0-0.1c0,0,0,0,0-0.1C367.6,228.4,368.1,228,368.8,227.9z M399.6,228.5c0.6,0,1.2,0.5,2.3,1.6c1.3,1.4,2.9,4,3.4,5.8
	c1.4,4.4-0.8,6.3-5,4.3c-4.5-2.2-5.6-5.6-3-9.4C398.4,229.3,399,228.5,399.6,228.5z M410.3,234.5c1.1-0.1,2.7,1.5,3.1,4.2
	c0.2,1.6,0,2.9-0.5,3.3c0,0,0,0,0,0c0,0,0,0-0.1,0c0,0-0.1,0-0.1,0c0,0,0,0,0,0c0,0,0,0,0,0c0,0,0,0-0.1,0c0,0,0,0,0,0c0,0,0,0,0,0
	c-2.2,0-3.5-1.9-3.5-5.2C409.1,235.4,409.6,234.6,410.3,234.5z M342.9,240.9c2.3,0,4.2,0.1,5.5,0.4c2.2,0.4,3.6,1,4.3,1.7
	c0.1,0.1,0.3,0.3,0.4,0.5c0,0.1,0.1,0.2,0.1,0.3c0,0.2,0,0.4,0,0.6c-0.3,1.2-2.2,2.8-5.7,4.5c-2.9,1.4-7.8,3.1-11,3.7
	c-5.2,0.9-5.9,0.6-8.1-3.8c-1.3-2.6-2.3-5.1-2.4-5.5c0,0,0,0,0,0c0,0,0,0,0-0.1c0,0,0,0,0,0c0,0,0,0,0-0.1c0,0,0,0,0,0
	C327.3,241.9,336.3,240.9,342.9,240.9z M447.5,255.3c6.1-0.3,9.3,3.6,2.7,8.4c-4.2,3.1-10.5,3.2-14.3,0.3c-2.8-2.1-2.6-2.4,2.4-5.6
	C441.6,256.3,444.8,255.4,447.5,255.3z M469.6,259.8c0.1,0,0.2,0,0.3,0c0.9,0,3,1,4.6,2.2c2.9,2.2,2.9,2.4-0.7,6.4
	c-1.9,2.1-3.8,3.7-4.5,3.9c0,0,0,0,0,0c0,0,0,0,0,0c0,0,0,0,0,0c0,0,0,0,0,0c-0.5-0.1-3.2-0.5-5.9-0.9c-3.1-0.4-5-1.6-5-3
	c0-0.1,0-0.1,0-0.2C458.8,265.8,466.4,260.2,469.6,259.8z M358.6,266.2c0.3,0,0.6,0,1,0c4.2,0,6.5,3.2,6.5,9.1
	c0,7.9-5.1,7.3-7.5-0.9C356.6,267.2,356.4,266.3,358.6,266.2z M390.3,268.4c2.5-0.1,8.6,1.2,9.4,2.1c0,0,0,0,0,0c0,0,0,0,0,0
	c0,0,0,0,0,0c0,0,0,0,0,0c0,0,0,0,0,0c0,0,0,0,0,0c0,0,0,0,0,0c-0.1,0.6-1.7,3.1-3.7,5.6l-3.6,4.6l-1.9-5.9
	c-0.9-2.9-1.5-5.6-1.4-6.3c0,0,0,0,0,0c0,0,0,0,0,0c0,0,0,0,0,0c0,0,0,0,0,0c0,0,0,0,0,0c0,0,0,0,0,0c0,0,0,0,0,0c0,0,0,0,0,0
	c0,0,0,0,0.1,0C389.7,268.5,390,268.4,390.3,268.4z M374.9,271c0.5,0,1.2,0.1,2.2,0.2c2,0.3,3.8,1.8,4.1,3.5c0.4,2,0.2,3.4-0.4,4.1
	c0,0.1-0.1,0.1-0.1,0.2c-0.1,0.1-0.1,0.1-0.2,0.2c0,0-0.1,0-0.1,0.1c-0.1,0.1-0.2,0.1-0.4,0.2c0,0-0.1,0-0.2,0c-0.1,0-0.2,0-0.3,0
	c-1-0.1-2.4-1.3-3.5-3.7c-1.3-2.7-1.9-4-1.7-4.5c0,0,0.1-0.1,0.1-0.1C374.6,271.1,374.7,271.1,374.9,271z"/>
</svg>
