<?xml version="1.0" encoding="utf-8"?>
<!-- Generator: Adobe Illustrator 20.0.0, SVG Export Plug-In . SVG Version: 6.00 Build 0)  -->
<!DOCTYPE svg PUBLIC "-//W3C//DTD SVG 1.1//EN" "http://www.w3.org/Graphics/SVG/1.1/DTD/svg11.dtd">
<svg version="1.1" id="Layer_1" xmlns="http://www.w3.org/2000/svg" xmlns:xlink="http://www.w3.org/1999/xlink" x="0px" y="0px"
	 viewBox="0 0 800 480" style="enable-background:new 0 0 800 480;" xml:space="preserve">
<style type="text/css">
	.st0{fill:#FFB700;}
	.st1{fill:#FF5B00;}
	.st2{fill:#005641;}
	.st3{fill:#8D2029;}
	.st4{fill:#FFB700;stroke:#000000;stroke-width:1.134;}
	.st5{fill:#FFB700;stroke:#000000;stroke-width:5.56;}
	.st6{stroke:#000000;stroke-width:5.56;}
</style>
<path class="st0" d="M0,0h800v480H0V0z"/>
<path class="st1" d="M26.7,240l93-213.3h93v426.7h-93L26.7,240z"/>
<path class="st2" d="M26.7,26.7h93v426.7h-93C26.7,453.4,26.7,26.7,26.7,26.7z"/>
<path class="st3" d="M239.4,26.7H776v426.7H239.4V26.7z"/>
<path id="a" class="st4" d="M739.3,408.6c0,0,3.6,7.4,7.6,10.4c5.9,4.5,18.1,4.1,23.3,9.3c6.2,6.1-0.5,14.2-0.4,14.9l0.3,4.3
	c0,0-4.2,0-5.9,0.3c-2.6,0.4-3.7,2.6-8.6,2.2c-12.4-0.8-11.9-11.9-12.6-21.5c-0.6-3.6-2.1-8.4-2.9-12
	C739.4,413.5,739.3,408.6,739.3,408.6L739.3,408.6z"/>
<g transform="rotate(180 422.667 240)">
	<path id="a_3_" class="st4" d="M567.5,71.4c0,0,0.2-4.9,0.8-7.9c0.8-3.6,2.3-8.4,2.9-12c0.7-9.6,0.2-20.7,12.6-21.5
		c4.9-0.4,6,1.8,8.6,2.2c1.7,0.3,5.9,0.3,5.9,0.3l-0.3,4.3c-0.1,0.7,6.6,8.8,0.4,14.9c-5.2,5.2-17.4,4.8-23.3,9.3
		C571.1,64,567.5,71.4,567.5,71.4L567.5,71.4z"/>
</g>
<g transform="matrix(1 0 0 -1 0 480)">
	<path id="a_4_" class="st4" d="M739.3,405.9c0,0,0.1,4.9,0.8,7.9c0.8,3.6,2.3,8.4,2.9,12c0.7,9.6,0.2,20.7,12.6,21.5
		c4.9,0.4,6-1.8,8.6-2.2c1.7-0.3,5.9-0.3,5.9-0.3l-0.3-4.3c-0.1-0.7,6.6-8.8,0.4-14.9c-5.2-5.2-17.4-4.8-23.3-9.3
		C742.9,413.3,739.3,405.9,739.3,405.9L739.3,405.9z"/>
</g>
<g transform="rotate(180 422.667 240)">
	<path id="a_1_" class="st4" d="M567.5,405.9c0,0,3.6,7.4,7.6,10.4c5.9,4.5,18.1,4.1,23.3,9.3c6.2,6.1-0.5,14.2-0.4,14.9l0.3,4.3
		c0,0-4.2,0-5.9,0.3c-2.6,0.4-3.7,2.6-8.6,2.2c-12.4-0.8-11.9-11.9-12.6-21.5c-0.6-3.6-2.1-8.4-2.9-12
		C567.7,410.8,567.5,405.9,567.5,405.9L567.5,405.9z"/>
</g>
<g transform="translate(0 -76)">
	<g>
		<g id="b">
			<path class="st5" d="M422.4,434.2l2.9-1.7l1.2,1.7c1.6,2.2,6.2,2.2,9.2,0l2.3-1.7l1.9,1.7c2.5,2.3,7.3,2.3,10.3,0
				c2.1-1.6,2.4-1.6,3.8-0.4c0.8,0.7,3.3,1.5,5.5,1.8c3.9,0.5,4,0.5,6.2-2.9c1.9-2.9,2.2-4,1.8-6.8c-0.3-2.2-0.6-4.4-0.7-6.6
				c-0.2-3.2-0.2-3.2,4.5-4.9c2.6-0.9,5.6-2.1,6.7-2.7c1.9-1,7-7.1,7-8.3c0-0.3-2-0.8-4.5-1.1c-9.8-1.1-11.5-6.4-5.1-16.2
				c10.4-16,16.7-31.5,16.7-41.4c0-4.4,0.3-5.9,0.8-5c2.3,3.9-1.8,20.4-8.2,32.3l-2.5,4.8l2.4-0.6c1.3-0.3,9.2-3.6,17.4-7.4
				c22.6-10.2,30.3-12.2,45-11.6c12.2,0.5,17.5,2.9,26.1,12c4.6,4.8,9,8.2,17.1,13.3c17.2,10.8,17.9,11.7,18.7,24.4
				c0.8,12.8,0.4,13.5-9.3,15.7c-8.3,1.8-13.5,5.7-14.9,11.1c-0.7,2.9,0.8,3,5,0.3l3.1-2l1.4,2c1.8,2.6,5.6,2.6,8.8,0l2.4-1.9
				l2.4,1.9c3.8,3,8.8,2.3,10.3-1.5c0.3-0.7,1-0.5,2.5,0.8c2.8,2.4,9.9,3.4,10.6,1.5c0.3-0.7-0.3-2.5-1.2-4
				c-4.1-6.2-5.4-9.2-5.5-12.5c-0.1-4.7,1.3-7,6.7-10.8c6.5-4.6,8.5-10.6,3.6-10.6c-3,0-6.1-2.7-8.1-7.1c-4-8.9-3.2-18.9,2.8-35.5
				c6.1-16.9,6.7-20,6.8-31.3c0-9.1-0.2-10.7-2.3-15.7c-1.3-3.1-3.8-7.6-5.7-10.1l-3.4-4.6l4.4-3.6c13.4-11.1,10.7-29.3-5.5-36.3
				c-4.9-2.1-6.2-2.3-14.8-2.3c-5.2,0-13.1,0.7-17.6,1.5c-4.6,0.8-12.3,1.5-17.6,1.5c-8.4,0-9.9-0.2-13.1-1.9
				c-3.4-1.8-4-2.7-4.6-6.8c-0.1-0.9-0.7-1.7-1.3-1.9c-1.2-0.4-6.5,4.3-7.3,6.3c-0.4,1-0.7,0.9-1.8-0.4c-0.8-0.9-1.8-2.9-2.3-4.6
				c-1.3-4.1,0.3-7.1,5.1-9.4l3.7-1.8l-2.2-1.4c-4.5-2.8-12.2-0.9-14.9,3.7c-0.8,1.3-1.6,2.4-1.9,2.4c-0.3,0-1.8-1.2-3.3-2.8
				c-5.8-5.7-3.8-14.1,4-16.7c4.2-1.4,7.8-0.3,8.6,2.4c1.2,4.2,4.8-1.3,4.1-6.3c-0.4-3.3-0.4-3.5,1.9-3.5c3.2,0,10,4.2,12.2,7.5
				c2.5,3.8,2.3,9.8-0.4,14.3l-2.1,3.5l2.8-0.6c4.1-0.8,8-3.3,10-6.4c2.1-3.2,2.3-9.5,0.5-12.9c-1.8-3.3-1.6-3.8,1.1-2.7
				c4.6,1.9,7,4,8.8,7.6c1.7,3.2,1.7,4,0.8,7.4c-0.6,2.1-1.8,4.8-2.7,6.1c-1.5,2-1.5,2.3-0.4,2.3c2.2,0,6.8-2.1,8.4-3.8
				c0.8-0.9,2-3,2.7-4.8l1.2-3.2l1.3,2.4c1.9,3.4,5.6,6.5,10.1,8.5c4.8,2.1,6.8,2.2,4.3,0.3c-1.7-1.3-4.8-10.5-3.9-11.4
				c0.6-0.5,7.1,4.5,14.6,11.2c7.1,6.4,11.5,8.4,18,8.4c8.3,0,13.1-7.2,9.4-14.1c-2.2-4-7-4.5-9.9-1.1c-1.3,1.6-1.7,2.8-1.3,4.5
				c0.5,2,0.3,2.3-1.6,2.3c-2.4,0-7.2-3.1-15.6-10.1c-12.9-10.8-28.6-19.9-39.9-23.2c-7.3-2.1-22.8-3-30.1-1.6
				c-8,1.5-17.4,6-22.6,10.9c-9.1,8.7-9.3,20.2-0.4,30.7l2.5,3l-1.7,2.7c-2.5,3.9-2.3,9.1,0.5,13c1.2,1.7,2.5,3.1,2.8,3.1
				s0.6-1.1,0.7-2.4c0.2-3.4,1.7-5.6,4.2-6.5c2.2-0.8,3.7-0.4,13.9,3.7c10.8,4.3,28.5,4.6,47.4,0.8c9.2-1.9,20.1-1.8,24.9,0.3
				c8.8,3.7,10.8,13.3,4.4,20.5c-2.8,3.1-5.5,4.4-14.6,6.9c-6.9,1.9-8.5,2-24.2,1.9c-13.4-0.1-18.2,0.1-23.7,1.3
				c-5.9,1.2-9.6,1.4-27,0.9l-20.1-0.5l2.2,1.8c1.2,1,3,2.3,3.9,2.8c1.5,0.9,1.5,1-0.8,1.8c-1.3,0.5-4.3,0.9-6.5,0.9h-4.1l-0.6,3.5
				c-0.3,1.9-0.3,4.2,0.1,5c0.5,1.2,0.3,1.4-1,0.9c-0.9-0.3-3.3-0.9-5.4-1.4c-2.1-0.4-4.9-1.3-6.3-2c-2.3-1.1-2.5-1.1-3.4,0.4
				c-0.7,1.3-7.7,6.5-8.8,6.5c-0.2,0-0.4-1-0.5-2.2s-1.1-4.4-2.2-7.1s-2.3-5.6-2.6-6.5c-0.5-1.3-0.7-1.4-1.3-0.4
				c-0.4,0.7-0.9,2.5-1.2,4.1s-1.4,4.1-2.3,5.6l-1.8,2.8l-1.1-2.4c-1.2-2.6-3.3-5.2-4-5.2c-0.3,0-0.7,0.8-0.9,1.8
				c-0.6,2.1-5.4,7.9-6.6,7.9c-0.4,0-0.8-1.6-0.8-3.7c0-2-0.4-3.7-0.9-3.7s-0.9,0.5-0.9,1.2c0,1.5-4.2,6.2-5.5,6.2
				c-0.6,0-1.6,0.5-2.2,1.2c-1.5,1.7-2.8,1.5-2.1-0.4c0.3-0.9,0.1-3-0.4-4.7s-1.1-3.4-1.3-3.9c-0.2-0.6-1.7-0.5-4.8,0.5
				c-5.1,1.6-6.8,1.3-4.2-0.7c1-0.7,2.4-3.3,3.2-5.8c0.8-2.4,2-4.6,2.7-4.8c0.9-0.3,0.9,0.1-0.2,1.5c-0.8,1.1-1.4,2.5-1.4,3.2
				s-0.6,2.3-1.3,3.6c-0.7,1.3-1.2,2.5-1,2.6c0.2,0.2,2.1-0.6,4.3-1.6l4-1.9v1.7c0,0.9,0.5,3.4,1.1,5.5l1.1,3.8l2.7-1.3
				c2.8-1.3,5.4-5.8,5.4-9.4c0-1.7,1-1.5,1.4,0.4c0.1,0.5,0.7,2.6,1.4,4.5l1.2,3.6l1.9-2.2c1-1.2,2.3-3.7,2.9-5.4
				c0.9-3,2.4-4.3,2.4-2.1c0,1.6,4.3,7.2,5.1,6.7c0.4-0.2,1.2-2.3,1.8-4.7c1.2-4.9,3.1-8.2,4.3-7.5c0.5,0.3,0.6,0.8,0.4,1.2
				c-0.2,0.4,0.7,3.5,2.2,7c1.1,2.6,2.2,5.2,3.2,7.8c0.5,1.3,1,1.1,4.1-1.6c1.9-1.7,3.7-3.6,3.9-4.2c0.3-0.9,0.7-0.9,2.5,0.2
				c2.5,1.6,11,4.1,11.6,3.5c0.2-0.2,0.5-2.5,0.6-4.9l0.1-4.5l2.4,0.5c1.3,0.3,4.2,0.3,6.3,0l3.8-0.5l-3.4-2.3
				c-1.9-1.3-3.8-3-4.2-3.7c-0.5-0.8-2.1-1.5-4-1.6c-5.1-0.4-14.2-5.5-14.2-7.9c0-0.5,1.3,0.3,2.8,1.7c3.4,3.1,8.1,5.1,12.2,5.1h3.1
				l-1.9-2.5c-1.1-1.5-2.1-4.2-2.3-6.5c-0.4-3.6-0.8-4.2-4.5-6.8c-2.3-1.6-5.1-4-6.3-5.3l-2.1-2.4l-1.1,2.8
				c-0.6,1.6-1.3,2.8-1.6,2.8c-0.3,0-1.4-0.9-2.5-2s-2.2-2-2.5-2s-1.3,1.5-2.2,3.3l-1.7,3.3l-1.3-1.9c-0.7-1.1-2.4-2.9-3.8-4.2
				c-1.4-1.2-2.1-2.2-1.6-2.2s2.2,1.3,3.7,2.8l2.8,2.8l1.2-2.1c0.7-1.2,0.9-3.1,0.6-4.7c-0.5-2.2-0.4-2.4,0.5-1
				c0.5,0.9,2.2,2.6,3.7,3.8l2.7,2.2l1.9-3.4c1.8-3.4,1.9-3.4,2.7-1.4c1.1,2.7,9.3,9.4,16.2,13.3c1.1,0.6,0.6-1.5-1.4-6.2
				c-0.5-1.3-0.9-3.5-0.9-5c0-2.2-0.6-3.2-3.5-5.4c-4.1-3.2-5.5-5.4-6.3-10.5c-0.3-2.1-1-4.4-1.6-5.1c-0.8-1.1-1-0.5-0.8,3.3
				c0.2,2.6-0.2,5.8-0.7,7.1l-1,2.4l-0.8-2c-0.4-1.1-2.4-3.1-4.3-4.3c-1.9-1.3-3.3-2.5-3-2.8s2.2,0.9,4.4,2.5c3.3,2.5,4,2.8,4.4,1.7
				c0.5-1.3,0-7-1-11c-0.5-2-0.5-2,2,0.5c1.8,1.8,2.8,4,3.6,7.7c1,4.8,1.5,5.6,5.9,9.4c2.6,2.3,5,4.1,5.1,3.9
				c0.2-0.2,0.5-6.2,0.7-13.4c0.5-13.8-0.1-17.1-3.4-21.3l-1.7-2.2l2.7-2.9c3.5-3.8,5.1-6.8,5.8-10.9l0.6-3.4l-3,2.9
				c-2.5,2.3-3.7,2.9-6.5,2.9s-4-0.5-5.9-2.5c-2.3-2.4-6.4-4.8-10.3-6c-1.4-0.4-1.9-0.2-1.9,0.7c0,0.7-0.8,2.8-1.8,4.6l-1.8,3.3
				l-3.7-3.7c-2.3-2.3-5-4-7-4.5c-5.2-1.4-5.4-1.2-5.4,2.6c0,5.8-2.5,6.9-7,3c-3.4-3-6.2-3.6-12.7-2.9l-5,0.5l0.9,2.3
				c0.8,1.9,0.6,2.7-1,4.8c-2.6,3.5-6,5-11.2,5c-2.4,0-5.4,0.5-6.7,1.1c-1.3,0.6-4.4,1.3-7,1.6c-2.6,0.2-5.4,0.7-6.1,1
				c-1.2,0.5-1.4,0.1-1-2.7c0.6-4.3-2.4-7.4-7-7.4c-6,0-8.8,5.4-6.5,12.5c0.5,1.6,1,3.2,1.3,4.8c0.3,1.3,3,4.8,6.3,8.2
				c3.2,3.2,6.2,6.6,6.7,7.4c0.5,0.9,2.1,2.3,3.7,3.1l2.8,1.5l-0.4-2.9c-0.4-3.2,0.3-3.7,2-1.5c0.6,0.8,2.2,2.1,3.5,2.9
				c2,1.3,2.4,1.3,2.4,0.2c0-0.7,0.4-2.3,0.9-3.5l0.9-2.3l1.6,3.1c0.9,1.7,3.8,5.6,6.4,8.6c5.1,5.9,8.2,12.5,6.6,14
				c-0.7,0.6-2.4,0.6-6-0.2c-2.8-0.6-6.3-0.9-7.8-0.7c-3,0.4-3.2,0-1.4-2.2c1.9-2.4,1.6-2.8-2.2-2.8c-4.4,0-15.2-2.1-19.3-3.7
				c-4-1.6-5-1.2-6.2,2.6c-0.5,1.7-1.5,4.8-2.2,6.9l-1.2,3.8l4.4-0.4c2.4-0.2,5.5-0.8,6.9-1.2c1.4-0.4,2.6-0.6,2.8-0.5
				c0.2,0.1-0.5,1.6-1.4,3.3l-1.6,3l2.7-0.6c1.5-0.3,3.7-1.1,5-1.7c2.2-1.1,2.4-1,4.1,1.8c2.1,3.4,3.8,3.3,4.2-0.3
				c0.4-3.7,1.6-3.2,3.9,1.8c2.2,4.8,4.5,6.4,5,3.6c0.1-0.9,1.3-2.5,2.7-3.4c2.7-1.9,4.7-1.3,5.8,1.6c1.2,3-1.5,6.2-9.2,10.9
				c-15.4,9.4-24.4,22.2-27,38.5c-2.3,14.7,4.9,29.9,19.4,40.8c6.9,5.2,17.9,10.7,17.2,8.6c-3-8.9-2.9-26,0.2-28.9
				c0.5-0.4,0.3,1.3-0.3,4c-2.4,9.7-1.4,17.5,4.8,35.6c5.6,16.4,4.8,23.4-3.1,28.1c-2.5,1.5-4.2,1.7-11,1.7c-7.4-0.1-8.2,0.1-10.6,2
				c-2.3,1.8-5.3,7.9-5.3,10.7C417.4,436.4,419.1,436.2,422.4,434.2L422.4,434.2z"/>
			<path class="st5" d="M542.8,433.9l3.1-2l2.1,2c2.8,2.6,6,2.6,8.7-0.2c1.2-1.2,2.2-2,2.3-1.8s0.6,1.1,1.2,2c0.7,1.1,2,1.7,4.4,1.9
				c2.9,0.2,3.7-0.1,4.9-1.8l1.4-2l3.1,2c8.4,5.4,12.9-0.3,9.1-11.5c-1.9-5.7-0.9-8.9,5.3-16.2c2.6-3.1,4.7-6.4,4.7-7.3
				c0-1.5-0.5-1.7-3.9-1.6c-3.3,0.1-4.3-0.3-6-2.2c-2.8-3.1-2.7-6.7,0.5-10.6l2.5-3.2l-4.5-3c-2.5-1.7-6.9-5.6-9.9-8.8
				c-6.7-7.1-13.2-10.5-21.8-11.2l-5.8-0.5v4.4c0,5.6,2.7,11.1,9.9,20.2c8.2,10.4,8.8,12.1,9.1,25.7l0.3,11.5l-2.4,2.3
				c-2.1,2-3.1,2.3-10,2.7c-6.6,0.4-8,0.7-9.9,2.4c-2.6,2.3-3.3,3.5-4.1,6.7c-0.5,1.8-0.3,2.2,1,2.2
				C539,435.9,541.1,435,542.8,433.9L542.8,433.9z M366.3,404.1c0.7-1,1.3-2.6,1.3-3.6c0-1.5,0.7-1.8,3.9-2.3l3.9-0.5l-2.6-2.1
				c-3.1-2.4-3.3-4.3-0.6-4.3c2.7,0,7.2-2.8,7.9-4.9c0.3-1,0.1-2.2-0.5-2.9c-1.5-1.7-4.3-1.5-4.9,0.4c-0.6,2-1.5,2.1-3.7,0
				c-3.2-3.1-3.3-9.4-0.2-13.1c1.5-1.7,1.5-1.8-0.4-3.6c-2-1.9-3.5-5.7-2.5-6.6c0.3-0.3,1.9-0.1,3.6,0.5c2.4,0.8,3.3,0.8,4.3,0.1
				c2.9-2.3-0.2-5.3-5-4.6c-1.9,0.3-2.7,0-3-1c-0.2-0.7-1.9-1.7-3.7-2.2c-3.3-0.8-3.4-0.8-3.4,1.5c0,2.5-1.4,3-4.2,1.4
				c-2.2-1.3-4.4-0.3-4.4,2.1c0,2.2,2.2,3.3,6.2,3c3.1-0.2,3.2,2.1,0.3,5.3l-2.1,2.4l1.7,2.4c2.5,3.5,2.2,9.4-0.4,12.3l-2.1,2.3
				l-1.4-1.8c-1.9-2.5-4.5-2.4-5.3,0.3c-0.5,1.8-0.1,2.6,2.1,4.5c1.5,1.3,3.7,2.3,4.8,2.3c2.9,0,2.8,2.3-0.2,4.6l-2.4,1.8l3.6,0.6
				c2,0.3,3.6,0.9,3.6,1.3c0,1.5,2.5,6.4,3.3,6.4C364.6,405.9,365.6,405.1,366.3,404.1L366.3,404.1z"/>
			<path class="st5" d="M413.8,383.5c3.3-1.3,10.5-7.4,10.5-8.9c0-0.5-2-2.6-4.4-4.8c-5.1-4.6-10.6-12.4-12-16.9
				c-0.7-2.4-4.4-6.4-14.5-16.3l-13.5-13.1l-3.9,1c-2.1,0.5-4.8,1-5.8,1c-1.8,0-1.8,0.1,0.6,2l2.5,2l3.6-2c3.5-1.9,3.6-1.9,4-0.4
				c0.3,0.9-0.3,2.5-1.2,3.6c-0.9,1.1-1.5,2.4-1.2,2.8s-0.6,1.3-2,2c-2.5,1.2-4.3,5.3-2.3,5.3c1.8,0,5.8-4.9,5.3-6.6
				c-0.2-0.9-0.1-1.7,0.3-1.9c1.6-0.9,1.5,2.9-0.1,4.8c-0.9,1.1-1.5,2.4-1.2,2.8s-0.6,1.3-2,2c-2.5,1.2-4.3,5.3-2.3,5.3
				s5.9-4.7,5.4-6.4c-0.3-0.9-0.2-1.8,0.2-2.1c1-0.6,1.6,2.4,0.7,3.9c-0.5,0.8-0.5,1.9,0,2.8c0.9,1.6,0,4.6-1.6,5.5
				c-0.7,0.4-0.2,1.2,1.4,2.4c2.4,1.8,2.5,2,2.5,10c0,6.7,0.3,8.4,1.5,9.6c1.4,1.3,1.5,1.3,1.5,0.1c0-1.4,2.4-3,4.4-3
				c0.6,0,4.2,3.1,8.1,6.8c3.9,3.8,7.9,7,9.1,7.2c1.1,0.2,2.4,0.4,2.7,0.5C410.3,384.7,412,384.2,413.8,383.5L413.8,383.5z
				 M372.4,351.1c0-2.2-4.5-4.5-9.8-5.1c-4.3-0.5-4.4-0.5-4.4,1.7c0,1.8,0.7,2.5,3.6,3.8C366.7,353.6,372.4,353.4,372.4,351.1
				L372.4,351.1z"/>
			<path class="st5" d="M377.3,350.9c2.2-2,3.2-4.3,1.9-4.3c-1.5,0-5.5,3.6-5.5,4.9C373.7,353.6,374.4,353.5,377.3,350.9
				L377.3,350.9z M372.6,344.5c0.2-1.2-0.6-2-2.8-3.1c-4.9-2.2-10.7-3.2-12.1-2.1c-2.6,2-0.9,4.8,3.3,5.2c1.7,0.2,4,0.7,5.1,1.1
				C369.3,347,372.4,346.4,372.6,344.5L372.6,344.5z M372.6,338c0.3-1.7-0.8-2.4-9.9-5.5c-6.8-2.4-9.8-1.3-7.6,2.8
				c0.8,1.4,2,2.1,4.9,2.5c2.1,0.3,5,0.9,6.4,1.4C370.2,340.4,372.3,340,372.6,338L372.6,338z M377.2,331.9c1.4-1.4,2.5-3,2.5-3.6
				c0-2-5.4,1.5-6.1,4C372.8,335.2,374.1,335,377.2,331.9L377.2,331.9z M372.6,331.5c0.3-2-3-3.8-9.5-5.1c-4.7-1-6.8-0.4-6.5,1.8
				c0.2,1.2,1.8,2.1,6.3,3.5C370.1,333.9,372.3,333.8,372.6,331.5L372.6,331.5z M379,322.3c8.3-3.7,9-13,1.2-15.4
				c-3.2-1-5.3-0.5-6.6,1.7c-1,1.7-0.3,4.7,1,4.7c0.4,0,0.8,0.6,0.8,1.3c0,3.2-12.7,4.7-17.8,2.1c-1.8-0.9-2.6-3.3-1.1-3.3
				c1.1,0,1.9-2.4,1.3-4.2c-0.8-2.4-3.2-3.2-6.6-2.3c-7.8,2-7.6,11.2,0.4,15C358,325.1,372.2,325.3,379,322.3L379,322.3z"/>
			<path class="st5" d="M373.8,315.1c0.5-0.5,0.3-1.2-0.5-1.8c-1.8-1.4-1.7-3.4,0.3-5.8c1.5-1.8,1.6-4.4,2.1-31.2
				c0.9-46.1,4.3-80.7,8.8-89.1c1.8-3.3,1.5-3.3-3.1-0.2c-6,4.1-10.5,9.4-14.6,17c-7.6,14.3-10.3,33.6-10.3,74.8
				c0,23.4,0.2,26.4,1.5,28.6c1.3,2.1,1.3,2.9,0.4,5.1c-0.6,1.4-0.8,2.8-0.6,3.1C359.6,317.3,372,316.9,373.8,315.1L373.8,315.1z
				 M443.5,271.2c0.3-0.4-0.3-2.4-1.3-4.5c-1.5-3.2-2.1-3.7-4.2-3.7c-6.7,0-17.4-3-28.5-7.9c-6.4-2.9-8.6-3.5-9.4-2.8
				c-2,1.9,1.3,6.3,6.3,8.6c4.5,2.1,17,4.6,22.7,4.6c3.3,0,3.4,0.1,1.5,2.9l-1.4,2l3.7,0.1c2.1,0.1,4.9,0.4,6.3,0.7
				C442.9,272,443,272,443.5,271.2L443.5,271.2z"/>
			<path class="st6" d="M482.5,292c0-1.2-3.5-4.4-7-6.5c-2.8-1.6-3.2-1.7-3.2-0.4c0,2-1.8,7.1-2.5,7.1c-0.4,0-1-1-1.3-2.2
				s-1.7-3.6-3-5.3l-2.4-3.1l-1.9,2.9c-1.8,2.7-4.8,5.3-6.1,5.3c-0.3,0-0.4-1.4-0.1-3.1c0.3-1.9,0.1-3.4-0.5-3.7
				c-0.5-0.3-1-0.2-1,0.2c0,1-4.2,5.8-5.1,5.8c-0.4,0-0.9-1.4-1.1-3c-0.3-1.7-0.7-4.3-1-5.9s0.3-0.5,1.3,2.4l1.8,5.2l2-3.2
				c1.1-1.7,2-3.6,2-4.2s0.4-0.8,0.8-0.6c0.5,0.3,1.1,2.4,1.4,4.7l0.6,4.2l2.2-2.4c1.2-1.3,2.7-3.1,3.2-4c0.9-1.5,1-1.5,2.9,0.1
				c1.1,0.9,2.7,3,3.6,4.7s1.8,3,2,2.8c0.1-0.2,0.5-1.9,0.8-3.9s0.5-3.7,0.5-3.8c0.1-0.5,6.7,3.8,9.1,5.9c1.6,1.4,3,2.3,3.3,2.1
				c0.3-0.2,0.5-2.3,0.5-4.6c0-3.5-0.4-4.5-2.5-6.4c-2.5-2.2-2.5-2.2-3.5-0.6c-1.2,2.1-2.6,2.1-2.6,0.1c0-1.5-4.7-7.3-5.9-7.3
				c-0.3,0-1.3,1.3-2.2,2.8c-0.9,1.6-1.8,2.8-2.1,2.8c-1.2,0-7.8-7.4-7.8-8.7c0-1.1,0.4-0.8,1.6,1c0.9,1.3,2.6,3.3,3.9,4.4
				c2.6,2.2,3.5,1.7,4.5-2.6c0.3-1.2,0.8-2.2,1.1-2.2c1.1,0,6.8,6.1,7.6,8.1l0.8,2l0.6-2.2c0.7-2.7,1.6-2.8,2.8-0.3
				c0.5,1,3,3.2,5.5,4.8l4.6,2.9l0.9-2.9c0.5-1.6,1.2-2.5,1.5-2.1c0.5,0.7-0.7,5.6-1.6,6.6c-0.1,0.2-1.6-0.7-3.3-1.9l-3.1-2.2v4
				c0,2.2-0.2,4.8-0.5,5.8C484,293.2,482.5,293.7,482.5,292L482.5,292z M459.7,260.4c-5.4-4.6-6.3-5.6-6.2-7.7l0.1-2.3l0.4,2.2
				c0.2,1.3,1.7,3.2,3.5,4.7l3.1,2.4l1.9-2.2c1.1-1.2,1.9-2.7,2-3.2c0-1.5,0.3-1.3,4,1.9c3.3,2.8,3.3,2.9,3.8,1c0.3-1,0.2-3-0.2-4.3
				c-1.1-3.7-0.9-4.2,0.8-2c0.8,1.1,2.1,2.7,2.9,3.5c1.4,1.4,1.4,1.4,1.9-0.4c0.3-1,0.5-2.9,0.5-4.2v-2.3l3,3.3
				c2.8,3.1,3,3.2,3.9,1.8c0.5-0.9,0.9-3,0.9-4.7c0-2.2,0.2-2.8,0.8-1.9c0.9,1.4,0.3,5.2-1.4,8.5l-1.2,2.3l-1.6-2.5
				c-2.1-3.2-2.8-3.2-4.1,0.3c-1.3,3.3-2.1,3.6-3.3,1c-0.8-1.6-0.9-1.4-1.5,2l-0.6,3.8l-3.8-2.9l-3.8-2.9l-1.7,1.9
				c-0.9,1.1-1.7,2.4-1.7,2.9C462,261.6,461.1,261.6,459.7,260.4L459.7,260.4z M508.1,243.5c-2-1.8-3.4-3.5-3-3.8
				c0.3-0.3,0.7-0.4,0.8-0.2c0.1,0.2,1.7,1.9,3.6,3.8C513.8,247.7,512.9,247.8,508.1,243.5z M443.6,236.8c-1.8-2.4-1.7-4.1,0.5-6.7
				c1.6-1.9,2.3-2.2,5.1-1.8c1.8,0.2,5.6,1.8,8.5,3.5c3.3,2,6.8,3.3,9.5,3.6c2.3,0.3,4.2,0.4,4.2,0.2s-1-1.7-2.1-3.5
				c-2.8-4.2-2.7-4.6,0.5-2.1c3.2,2.6,7.1,3.3,15.8,3.1l4.2-0.1l-2.5-2.4c-3.4-3.4-2.4-3.7,1.4-0.4c3.6,3.1,3.3,3.3-4.2,4.1
				c-3.2,0.3-6.6,0.1-9.4-0.6c-4.3-1.1-4.4-1.1-3.6,0.4c0.5,0.8,1.2,1.5,1.7,1.5s0.8,0.4,0.8,0.9c0,1.6-9.2,0.2-13.6-2
				c-10-5.1-11.3-5.5-13.7-4.8c-1.3,0.4-2.7,1.6-3.1,2.9c-1.5,4.1,4.3,7.3,6.7,3.7c0.7-1,0.5-1.8-0.7-3c-1.7-1.8-1.5-2,0.7-1.2
				c1.6,0.6,1.8,4.4,0.3,5.8C448.9,239.3,445.1,238.8,443.6,236.8L443.6,236.8z"/>
			<path class="st6" d="M483.1,226.7c-1.3-1.2-0.3-1.5,5.4-1.6c7-0.1,11.2-1.3,16.2-4.4c4-2.5,5.1-2,1.3,0.6
				c-3.5,2.4-8.9,4.2-14.1,4.8c-2.5,0.3-5.4,0.6-6.4,0.8S483.4,227,483.1,226.7L483.1,226.7z"/>
		</g>
	</g>
	<g id="b_1_">
		<path class="st0" d="M422.4,434.2l2.9-1.7l1.2,1.7c1.6,2.2,6.2,2.2,9.2,0l2.3-1.7l1.9,1.7c2.5,2.3,7.3,2.3,10.3,0
			c2.1-1.6,2.4-1.6,3.8-0.4c0.8,0.7,3.3,1.5,5.5,1.8c3.9,0.5,4,0.5,6.2-2.9c1.9-2.9,2.2-4,1.8-6.8c-0.3-2.2-0.6-4.4-0.7-6.6
			c-0.2-3.2-0.2-3.2,4.5-4.9c2.6-0.9,5.6-2.1,6.7-2.7c1.9-1,7-7.1,7-8.3c0-0.3-2-0.8-4.5-1.1c-9.8-1.1-11.5-6.4-5.1-16.2
			c10.4-16,16.7-31.5,16.7-41.4c0-4.4,0.3-5.9,0.8-5c2.3,3.9-1.8,20.4-8.2,32.3l-2.5,4.8l2.4-0.6c1.3-0.3,9.2-3.6,17.4-7.4
			c22.6-10.2,30.3-12.2,45-11.6c12.2,0.5,17.5,2.9,26.1,12c4.6,4.8,9,8.2,17.1,13.3c17.2,10.8,17.9,11.7,18.7,24.4
			c0.8,12.8,0.4,13.5-9.3,15.7c-8.3,1.8-13.5,5.7-14.9,11.1c-0.7,2.9,0.8,3,5,0.3l3.1-2l1.4,2c1.8,2.6,5.6,2.6,8.8,0l2.4-1.9
			l2.4,1.9c3.8,3,8.8,2.3,10.3-1.5c0.3-0.7,1-0.5,2.5,0.8c2.8,2.4,9.9,3.4,10.6,1.5c0.3-0.7-0.3-2.5-1.2-4
			c-4.1-6.2-5.4-9.2-5.5-12.5c-0.1-4.7,1.3-7,6.7-10.8c6.5-4.6,8.5-10.6,3.6-10.6c-3,0-6.1-2.7-8.1-7.1c-4-8.9-3.2-18.9,2.8-35.5
			c6.1-16.9,6.7-20,6.8-31.3c0-9.1-0.2-10.7-2.3-15.7c-1.3-3.1-3.8-7.6-5.7-10.1l-3.4-4.6l4.4-3.6c13.4-11.1,10.7-29.3-5.5-36.3
			c-4.9-2.1-6.2-2.3-14.8-2.3c-5.2,0-13.1,0.7-17.6,1.5c-4.6,0.8-12.3,1.5-17.6,1.5c-8.4,0-9.9-0.2-13.1-1.9c-3.4-1.8-4-2.7-4.6-6.8
			c-0.1-0.9-0.7-1.7-1.3-1.9c-1.2-0.4-6.5,4.3-7.3,6.3c-0.4,1-0.7,0.9-1.8-0.4c-0.8-0.9-1.8-2.9-2.3-4.6c-1.3-4.1,0.3-7.1,5.1-9.4
			l3.7-1.8l-2.2-1.4c-4.5-2.8-12.2-0.9-14.9,3.7c-0.8,1.3-1.6,2.4-1.9,2.4c-0.3,0-1.8-1.2-3.3-2.8c-5.8-5.7-3.8-14.1,4-16.7
			c4.2-1.4,7.8-0.3,8.6,2.4c1.2,4.2,4.8-1.3,4.1-6.3c-0.4-3.3-0.4-3.5,1.9-3.5c3.2,0,10,4.2,12.2,7.5c2.5,3.8,2.3,9.8-0.4,14.3
			l-2.1,3.5l2.8-0.6c4.1-0.8,8-3.3,10-6.4c2.1-3.2,2.3-9.5,0.5-12.9c-1.8-3.3-1.6-3.8,1.1-2.7c4.6,1.9,7,4,8.8,7.6
			c1.7,3.2,1.7,4,0.8,7.4c-0.6,2.1-1.8,4.8-2.7,6.1c-1.5,2-1.5,2.3-0.4,2.3c2.2,0,6.8-2.1,8.4-3.8c0.8-0.9,2-3,2.7-4.8l1.2-3.2
			l1.3,2.4c1.9,3.4,5.6,6.5,10.1,8.5c4.8,2.1,6.8,2.2,4.3,0.3c-1.7-1.3-4.8-10.5-3.9-11.4c0.6-0.5,7.1,4.5,14.6,11.2
			c7.1,6.4,11.5,8.4,18,8.4c8.3,0,13.1-7.2,9.4-14.1c-2.2-4-7-4.5-9.9-1.1c-1.3,1.6-1.7,2.8-1.3,4.5c0.5,2,0.3,2.3-1.6,2.3
			c-2.4,0-7.2-3.1-15.6-10.1c-12.9-10.8-28.6-19.9-39.9-23.2c-7.3-2.1-22.8-3-30.1-1.6c-8,1.5-17.4,6-22.6,10.9
			c-9.1,8.7-9.3,20.2-0.4,30.7l2.5,3l-1.7,2.7c-2.5,3.9-2.3,9.1,0.5,13c1.2,1.7,2.5,3.1,2.8,3.1s0.6-1.1,0.7-2.4
			c0.2-3.4,1.7-5.6,4.2-6.5c2.2-0.8,3.7-0.4,13.9,3.7c10.8,4.3,28.5,4.6,47.4,0.8c9.2-1.9,20.1-1.8,24.9,0.3
			c8.8,3.7,10.8,13.3,4.4,20.5c-2.8,3.1-5.5,4.4-14.6,6.9c-6.9,1.9-8.5,2-24.2,1.9c-13.4-0.1-18.2,0.1-23.7,1.3
			c-5.9,1.2-9.6,1.4-27,0.9l-20.1-0.5l2.2,1.8c1.2,1,3,2.3,3.9,2.8c1.5,0.9,1.5,1-0.8,1.8c-1.3,0.5-4.3,0.9-6.5,0.9h-4.1l-0.6,3.5
			c-0.3,1.9-0.3,4.2,0.1,5c0.5,1.2,0.3,1.4-1,0.9c-0.9-0.3-3.3-0.9-5.4-1.4c-2.1-0.4-4.9-1.3-6.3-2c-2.3-1.1-2.5-1.1-3.4,0.4
			c-0.7,1.3-7.7,6.5-8.8,6.5c-0.2,0-0.4-1-0.5-2.2s-1.1-4.4-2.2-7.1s-2.3-5.6-2.6-6.5c-0.5-1.3-0.7-1.4-1.3-0.4
			c-0.4,0.7-0.9,2.5-1.2,4.1s-1.4,4.1-2.3,5.6l-1.8,2.8l-1.1-2.4c-1.2-2.6-3.3-5.2-4-5.2c-0.3,0-0.7,0.8-0.9,1.8
			c-0.6,2.1-5.4,7.9-6.6,7.9c-0.4,0-0.8-1.6-0.8-3.7c0-2-0.4-3.7-0.9-3.7s-0.9,0.5-0.9,1.2c0,1.5-4.2,6.2-5.5,6.2
			c-0.6,0-1.6,0.5-2.2,1.2c-1.5,1.7-2.8,1.5-2.1-0.4c0.3-0.9,0.1-3-0.4-4.7s-1.1-3.4-1.3-3.9c-0.2-0.6-1.7-0.5-4.8,0.5
			c-5.1,1.6-6.8,1.3-4.2-0.7c1-0.7,2.4-3.3,3.2-5.8c0.8-2.4,2-4.6,2.7-4.8c0.9-0.3,0.9,0.1-0.2,1.5c-0.8,1.1-1.4,2.5-1.4,3.2
			s-0.6,2.3-1.3,3.6c-0.7,1.3-1.2,2.5-1,2.6c0.2,0.2,2.1-0.6,4.3-1.6l4-1.9v1.7c0,0.9,0.5,3.4,1.1,5.5l1.1,3.8l2.7-1.3
			c2.8-1.3,5.4-5.8,5.4-9.4c0-1.7,1-1.5,1.4,0.4c0.1,0.5,0.7,2.6,1.4,4.5l1.2,3.6l1.9-2.2c1-1.2,2.3-3.7,2.9-5.4
			c0.9-3,2.4-4.3,2.4-2.1c0,1.6,4.3,7.2,5.1,6.7c0.4-0.2,1.2-2.3,1.8-4.7c1.2-4.9,3.1-8.2,4.3-7.5c0.5,0.3,0.6,0.8,0.4,1.2
			c-0.2,0.4,0.7,3.5,2.2,7c1.1,2.6,2.2,5.2,3.2,7.8c0.5,1.3,1,1.1,4.1-1.6c1.9-1.7,3.7-3.6,3.9-4.2c0.3-0.9,0.7-0.9,2.5,0.2
			c2.5,1.6,11,4.1,11.6,3.5c0.2-0.2,0.5-2.5,0.6-4.9l0.1-4.5l2.4,0.5c1.3,0.3,4.2,0.3,6.3,0l3.8-0.5l-3.4-2.3
			c-1.9-1.3-3.8-3-4.2-3.7c-0.5-0.8-2.1-1.5-4-1.6c-5.1-0.4-14.2-5.5-14.2-7.9c0-0.5,1.3,0.3,2.8,1.7c3.4,3.1,8.1,5.1,12.2,5.1h3.1
			l-1.9-2.5c-1.1-1.5-2.1-4.2-2.3-6.5c-0.4-3.6-0.8-4.2-4.5-6.8c-2.3-1.6-5.1-4-6.3-5.3l-2.1-2.4l-1.1,2.8c-0.6,1.6-1.3,2.8-1.6,2.8
			c-0.3,0-1.4-0.9-2.5-2s-2.2-2-2.5-2s-1.3,1.5-2.2,3.3l-1.7,3.3l-1.3-1.9c-0.7-1.1-2.4-2.9-3.8-4.2c-1.4-1.2-2.1-2.2-1.6-2.2
			s2.2,1.3,3.7,2.8l2.8,2.8l1.2-2.1c0.7-1.2,0.9-3.1,0.6-4.7c-0.5-2.2-0.4-2.4,0.5-1c0.5,0.9,2.2,2.6,3.7,3.8l2.7,2.2l1.9-3.4
			c1.8-3.4,1.9-3.4,2.7-1.4c1.1,2.7,9.3,9.4,16.2,13.3c1.1,0.6,0.6-1.5-1.4-6.2c-0.5-1.3-0.9-3.5-0.9-5c0-2.2-0.6-3.2-3.5-5.4
			c-4.1-3.2-5.5-5.4-6.3-10.5c-0.3-2.1-1-4.4-1.6-5.1c-0.8-1.1-1-0.5-0.8,3.3c0.2,2.6-0.2,5.8-0.7,7.1l-1,2.4l-0.8-2
			c-0.4-1.1-2.4-3.1-4.3-4.3c-1.9-1.3-3.3-2.5-3-2.8s2.2,0.9,4.4,2.5c3.3,2.5,4,2.8,4.4,1.7c0.5-1.3,0-7-1-11c-0.5-2-0.5-2,2,0.5
			c1.8,1.8,2.8,4,3.6,7.7c1,4.8,1.5,5.6,5.9,9.4c2.6,2.3,5,4.1,5.1,3.9c0.2-0.2,0.5-6.2,0.7-13.4c0.5-13.8-0.1-17.1-3.4-21.3
			l-1.7-2.2l2.7-2.9c3.5-3.8,5.1-6.8,5.8-10.9l0.6-3.4l-3,2.9c-2.5,2.3-3.7,2.9-6.5,2.9s-4-0.5-5.9-2.5c-2.3-2.4-6.4-4.8-10.3-6
			c-1.4-0.4-1.9-0.2-1.9,0.7c0,0.7-0.8,2.8-1.8,4.6l-1.8,3.3l-3.7-3.7c-2.3-2.3-5-4-7-4.5c-5.2-1.4-5.4-1.2-5.4,2.6
			c0,5.8-2.5,6.9-7,3c-3.4-3-6.2-3.6-12.7-2.9l-5,0.5l0.9,2.3c0.8,1.9,0.6,2.7-1,4.8c-2.6,3.5-6,5-11.2,5c-2.4,0-5.4,0.5-6.7,1.1
			c-1.3,0.6-4.4,1.3-7,1.6c-2.6,0.2-5.4,0.7-6.1,1c-1.2,0.5-1.4,0.1-1-2.7c0.6-4.3-2.4-7.4-7-7.4c-6,0-8.8,5.4-6.5,12.5
			c0.5,1.6,1,3.2,1.3,4.8c0.3,1.3,3,4.8,6.3,8.2c3.2,3.2,6.2,6.6,6.7,7.4c0.5,0.9,2.1,2.3,3.7,3.1l2.8,1.5l-0.4-2.9
			c-0.4-3.2,0.3-3.7,2-1.5c0.6,0.8,2.2,2.1,3.5,2.9c2,1.3,2.4,1.3,2.4,0.2c0-0.7,0.4-2.3,0.9-3.5l0.9-2.3l1.6,3.1
			c0.9,1.7,3.8,5.6,6.4,8.6c5.1,5.9,8.2,12.5,6.6,14c-0.7,0.6-2.4,0.6-6-0.2c-2.8-0.6-6.3-0.9-7.8-0.7c-3,0.4-3.2,0-1.4-2.2
			c1.9-2.4,1.6-2.8-2.2-2.8c-4.4,0-15.2-2.1-19.3-3.7c-4-1.6-5-1.2-6.2,2.6c-0.5,1.7-1.5,4.8-2.2,6.9l-1.2,3.8l4.4-0.4
			c2.4-0.2,5.5-0.8,6.9-1.2c1.4-0.4,2.6-0.6,2.8-0.5c0.2,0.1-0.5,1.6-1.4,3.3l-1.6,3l2.7-0.6c1.5-0.3,3.7-1.1,5-1.7
			c2.2-1.1,2.4-1,4.1,1.8c2.1,3.4,3.8,3.3,4.2-0.3c0.4-3.7,1.6-3.2,3.9,1.8c2.2,4.8,4.5,6.4,5,3.6c0.1-0.9,1.3-2.5,2.7-3.4
			c2.7-1.9,4.7-1.3,5.8,1.6c1.2,3-1.5,6.2-9.2,10.9c-15.4,9.4-24.4,22.2-27,38.5c-2.3,14.7,4.9,29.9,19.4,40.8
			c6.9,5.2,17.9,10.7,17.2,8.6c-3-8.9-2.9-26,0.2-28.9c0.5-0.4,0.3,1.3-0.3,4c-2.4,9.7-1.4,17.5,4.8,35.6
			c5.6,16.4,4.8,23.4-3.1,28.1c-2.5,1.5-4.2,1.7-11,1.7c-7.4-0.1-8.2,0.1-10.6,2c-2.3,1.8-5.3,7.9-5.3,10.7
			C417.4,436.4,419.1,436.2,422.4,434.2L422.4,434.2z"/>
		<path class="st0" d="M542.8,433.9l3.1-2l2.1,2c2.8,2.6,6,2.6,8.7-0.2c1.2-1.2,2.2-2,2.3-1.8s0.6,1.1,1.2,2c0.7,1.1,2,1.7,4.4,1.9
			c2.9,0.2,3.7-0.1,4.9-1.8l1.4-2l3.1,2c8.4,5.4,12.9-0.3,9.1-11.5c-1.9-5.7-0.9-8.9,5.3-16.2c2.6-3.1,4.7-6.4,4.7-7.3
			c0-1.5-0.5-1.7-3.9-1.6c-3.3,0.1-4.3-0.3-6-2.2c-2.8-3.1-2.7-6.7,0.5-10.6l2.5-3.2l-4.5-3c-2.5-1.7-6.9-5.6-9.9-8.8
			c-6.7-7.1-13.2-10.5-21.8-11.2l-5.8-0.5v4.4c0,5.6,2.7,11.1,9.9,20.2c8.2,10.4,8.8,12.1,9.1,25.7l0.3,11.5l-2.4,2.3
			c-2.1,2-3.1,2.3-10,2.7c-6.6,0.4-8,0.7-9.9,2.4c-2.6,2.3-3.3,3.5-4.1,6.7c-0.5,1.8-0.3,2.2,1,2.2C539,435.9,541.1,435,542.8,433.9
			L542.8,433.9z M366.3,404.1c0.7-1,1.3-2.6,1.3-3.6c0-1.5,0.7-1.8,3.9-2.3l3.9-0.5l-2.6-2.1c-3.1-2.4-3.3-4.3-0.6-4.3
			c2.7,0,7.2-2.8,7.9-4.9c0.3-1,0.1-2.2-0.5-2.9c-1.5-1.7-4.3-1.5-4.9,0.4c-0.6,2-1.5,2.1-3.7,0c-3.2-3.1-3.3-9.4-0.2-13.1
			c1.5-1.7,1.5-1.8-0.4-3.6c-2-1.9-3.5-5.7-2.5-6.6c0.3-0.3,1.9-0.1,3.6,0.5c2.4,0.8,3.3,0.8,4.3,0.1c2.9-2.3-0.2-5.3-5-4.6
			c-1.9,0.3-2.7,0-3-1c-0.2-0.7-1.9-1.7-3.7-2.2c-3.3-0.8-3.4-0.8-3.4,1.5c0,2.5-1.4,3-4.2,1.4c-2.2-1.3-4.4-0.3-4.4,2.1
			c0,2.2,2.2,3.3,6.2,3c3.1-0.2,3.2,2.1,0.3,5.3l-2.1,2.4l1.7,2.4c2.5,3.5,2.2,9.4-0.4,12.3l-2.1,2.3l-1.4-1.8
			c-1.9-2.5-4.5-2.4-5.3,0.3c-0.5,1.8-0.1,2.6,2.1,4.5c1.5,1.3,3.7,2.3,4.8,2.3c2.9,0,2.8,2.3-0.2,4.6l-2.4,1.8l3.6,0.6
			c2,0.3,3.6,0.9,3.6,1.3c0,1.5,2.5,6.4,3.3,6.4C364.6,405.9,365.6,405.1,366.3,404.1L366.3,404.1z"/>
		<path class="st0" d="M413.8,383.5c3.3-1.3,10.5-7.4,10.5-8.9c0-0.5-2-2.6-4.4-4.8c-5.1-4.6-10.6-12.4-12-16.9
			c-0.7-2.4-4.4-6.4-14.5-16.3l-13.5-13.1l-3.9,1c-2.1,0.5-4.8,1-5.8,1c-1.8,0-1.8,0.1,0.6,2l2.5,2l3.6-2c3.5-1.9,3.6-1.9,4-0.4
			c0.3,0.9-0.3,2.5-1.2,3.6c-0.9,1.1-1.5,2.4-1.2,2.8s-0.6,1.3-2,2c-2.5,1.2-4.3,5.3-2.3,5.3c1.8,0,5.8-4.9,5.3-6.6
			c-0.2-0.9-0.1-1.7,0.3-1.9c1.6-0.9,1.5,2.9-0.1,4.8c-0.9,1.1-1.5,2.4-1.2,2.8s-0.6,1.3-2,2c-2.5,1.2-4.3,5.3-2.3,5.3
			s5.9-4.7,5.4-6.4c-0.3-0.9-0.2-1.8,0.2-2.1c1-0.6,1.6,2.4,0.7,3.9c-0.5,0.8-0.5,1.9,0,2.8c0.9,1.6,0,4.6-1.6,5.5
			c-0.7,0.4-0.2,1.2,1.4,2.4c2.4,1.8,2.5,2,2.5,10c0,6.7,0.3,8.4,1.5,9.6c1.4,1.3,1.5,1.3,1.5,0.1c0-1.4,2.4-3,4.4-3
			c0.6,0,4.2,3.1,8.1,6.8c3.9,3.8,7.9,7,9.1,7.2c1.1,0.2,2.4,0.4,2.7,0.5C410.3,384.7,412,384.2,413.8,383.5L413.8,383.5z
			 M372.4,351.1c0-2.2-4.5-4.5-9.8-5.1c-4.3-0.5-4.4-0.5-4.4,1.7c0,1.8,0.7,2.5,3.6,3.8C366.7,353.6,372.4,353.4,372.4,351.1
			L372.4,351.1z"/>
		<path class="st0" d="M377.3,350.9c2.2-2,3.2-4.3,1.9-4.3c-1.5,0-5.5,3.6-5.5,4.9C373.7,353.6,374.4,353.5,377.3,350.9L377.3,350.9
			z M372.6,344.5c0.2-1.2-0.6-2-2.8-3.1c-4.9-2.2-10.7-3.2-12.1-2.1c-2.6,2-0.9,4.8,3.3,5.2c1.7,0.2,4,0.7,5.1,1.1
			C369.3,347,372.4,346.4,372.6,344.5L372.6,344.5z M372.6,338c0.3-1.7-0.8-2.4-9.9-5.5c-6.8-2.4-9.8-1.3-7.6,2.8
			c0.8,1.4,2,2.1,4.9,2.5c2.1,0.3,5,0.9,6.4,1.4C370.2,340.4,372.3,340,372.6,338L372.6,338z M377.2,331.9c1.4-1.4,2.5-3,2.5-3.6
			c0-2-5.4,1.5-6.1,4C372.8,335.2,374.1,335,377.2,331.9L377.2,331.9z M372.6,331.5c0.3-2-3-3.8-9.5-5.1c-4.7-1-6.8-0.4-6.5,1.8
			c0.2,1.2,1.8,2.1,6.3,3.5C370.1,333.9,372.3,333.8,372.6,331.5L372.6,331.5z M379,322.3c8.3-3.7,9-13,1.2-15.4
			c-3.2-1-5.3-0.5-6.6,1.7c-1,1.7-0.3,4.7,1,4.7c0.4,0,0.8,0.6,0.8,1.3c0,3.2-12.7,4.7-17.8,2.1c-1.8-0.9-2.6-3.3-1.1-3.3
			c1.1,0,1.9-2.4,1.3-4.2c-0.8-2.4-3.2-3.2-6.6-2.3c-7.8,2-7.6,11.2,0.4,15C358,325.1,372.2,325.3,379,322.3L379,322.3z"/>
		<path class="st0" d="M373.8,315.1c0.5-0.5,0.3-1.2-0.5-1.8c-1.8-1.4-1.7-3.4,0.3-5.8c1.5-1.8,1.6-4.4,2.1-31.2
			c0.9-46.1,4.3-80.7,8.8-89.1c1.8-3.3,1.5-3.3-3.1-0.2c-6,4.1-10.5,9.4-14.6,17c-7.6,14.3-10.3,33.6-10.3,74.8
			c0,23.4,0.2,26.4,1.5,28.6c1.3,2.1,1.3,2.9,0.4,5.1c-0.6,1.4-0.8,2.8-0.6,3.1C359.6,317.3,372,316.9,373.8,315.1L373.8,315.1z
			 M443.5,271.2c0.3-0.4-0.3-2.4-1.3-4.5c-1.5-3.2-2.1-3.7-4.2-3.7c-6.7,0-17.4-3-28.5-7.9c-6.4-2.9-8.6-3.5-9.4-2.8
			c-2,1.9,1.3,6.3,6.3,8.6c4.5,2.1,17,4.6,22.7,4.6c3.3,0,3.4,0.1,1.5,2.9l-1.4,2l3.7,0.1c2.1,0.1,4.9,0.4,6.3,0.7
			C442.9,272,443,272,443.5,271.2L443.5,271.2z"/>
		<path d="M482.5,292c0-1.2-3.5-4.4-7-6.5c-2.8-1.6-3.2-1.7-3.2-0.4c0,2-1.8,7.1-2.5,7.1c-0.4,0-1-1-1.3-2.2s-1.7-3.6-3-5.3
			l-2.4-3.1l-1.9,2.9c-1.8,2.7-4.8,5.3-6.1,5.3c-0.3,0-0.4-1.4-0.1-3.1c0.3-1.9,0.1-3.4-0.5-3.7c-0.5-0.3-1-0.2-1,0.2
			c0,1-4.2,5.8-5.1,5.8c-0.4,0-0.9-1.4-1.1-3c-0.3-1.7-0.7-4.3-1-5.9s0.3-0.5,1.3,2.4l1.8,5.2l2-3.2c1.1-1.7,2-3.6,2-4.2
			s0.4-0.8,0.8-0.6c0.5,0.3,1.1,2.4,1.4,4.7l0.6,4.2l2.2-2.4c1.2-1.3,2.7-3.1,3.2-4c0.9-1.5,1-1.5,2.9,0.1c1.1,0.9,2.7,3,3.6,4.7
			s1.8,3,2,2.8c0.1-0.2,0.5-1.9,0.8-3.9s0.5-3.7,0.5-3.8c0.1-0.5,6.7,3.8,9.1,5.9c1.6,1.4,3,2.3,3.3,2.1c0.3-0.2,0.5-2.3,0.5-4.6
			c0-3.5-0.4-4.5-2.5-6.4c-2.5-2.2-2.5-2.2-3.5-0.6c-1.2,2.1-2.6,2.1-2.6,0.1c0-1.5-4.7-7.3-5.9-7.3c-0.3,0-1.3,1.3-2.2,2.8
			c-0.9,1.6-1.8,2.8-2.1,2.8c-1.2,0-7.8-7.4-7.8-8.7c0-1.1,0.4-0.8,1.6,1c0.9,1.3,2.6,3.3,3.9,4.4c2.6,2.2,3.5,1.7,4.5-2.6
			c0.3-1.2,0.8-2.2,1.1-2.2c1.1,0,6.8,6.1,7.6,8.1l0.8,2l0.6-2.2c0.7-2.7,1.6-2.8,2.8-0.3c0.5,1,3,3.2,5.5,4.8l4.6,2.9l0.9-2.9
			c0.5-1.6,1.2-2.5,1.5-2.1c0.5,0.7-0.7,5.6-1.6,6.6c-0.1,0.2-1.6-0.7-3.3-1.9l-3.1-2.2v4c0,2.2-0.2,4.8-0.5,5.8
			C484,293.2,482.5,293.7,482.5,292L482.5,292z M459.7,260.4c-5.4-4.6-6.3-5.6-6.2-7.7l0.1-2.3l0.4,2.2c0.2,1.3,1.7,3.2,3.5,4.7
			l3.1,2.4l1.9-2.2c1.1-1.2,1.9-2.7,2-3.2c0-1.5,0.3-1.3,4,1.9c3.3,2.8,3.3,2.9,3.8,1c0.3-1,0.2-3-0.2-4.3c-1.1-3.7-0.9-4.2,0.8-2
			c0.8,1.1,2.1,2.7,2.9,3.5c1.4,1.4,1.4,1.4,1.9-0.4c0.3-1,0.5-2.9,0.5-4.2v-2.3l3,3.3c2.8,3.1,3,3.2,3.9,1.8c0.5-0.9,0.9-3,0.9-4.7
			c0-2.2,0.2-2.8,0.8-1.9c0.9,1.4,0.3,5.2-1.4,8.5l-1.2,2.3l-1.6-2.5c-2.1-3.2-2.8-3.2-4.1,0.3c-1.3,3.3-2.1,3.6-3.3,1
			c-0.8-1.6-0.9-1.4-1.5,2l-0.6,3.8l-3.8-2.9l-3.8-2.9l-1.7,1.9c-0.9,1.1-1.7,2.4-1.7,2.9C462,261.6,461.1,261.6,459.7,260.4
			L459.7,260.4z M508.1,243.5c-2-1.8-3.4-3.5-3-3.8c0.3-0.3,0.7-0.4,0.8-0.2c0.1,0.2,1.7,1.9,3.6,3.8
			C513.8,247.7,512.9,247.8,508.1,243.5z M443.6,236.8c-1.8-2.4-1.7-4.1,0.5-6.7c1.6-1.9,2.3-2.2,5.1-1.8c1.8,0.2,5.6,1.8,8.5,3.5
			c3.3,2,6.8,3.3,9.5,3.6c2.3,0.3,4.2,0.4,4.2,0.2s-1-1.7-2.1-3.5c-2.8-4.2-2.7-4.6,0.5-2.1c3.2,2.6,7.1,3.3,15.8,3.1l4.2-0.1
			l-2.5-2.4c-3.4-3.4-2.4-3.7,1.4-0.4c3.6,3.1,3.3,3.3-4.2,4.1c-3.2,0.3-6.6,0.1-9.4-0.6c-4.3-1.1-4.4-1.1-3.6,0.4
			c0.5,0.8,1.2,1.5,1.7,1.5s0.8,0.4,0.8,0.9c0,1.6-9.2,0.2-13.6-2c-10-5.1-11.3-5.5-13.7-4.8c-1.3,0.4-2.7,1.6-3.1,2.9
			c-1.5,4.1,4.3,7.3,6.7,3.7c0.7-1,0.5-1.8-0.7-3c-1.7-1.8-1.5-2,0.7-1.2c1.6,0.6,1.8,4.4,0.3,5.8
			C448.9,239.3,445.1,238.8,443.6,236.8L443.6,236.8z"/>
		<path d="M483.1,226.7c-1.3-1.2-0.3-1.5,5.4-1.6c7-0.1,11.2-1.3,16.2-4.4c4-2.5,5.1-2,1.3,0.6c-3.5,2.4-8.9,4.2-14.1,4.8
			c-2.5,0.3-5.4,0.6-6.4,0.8S483.4,227,483.1,226.7L483.1,226.7z"/>
	</g>
</g>
</svg>
