<?xml version="1.0" encoding="utf-8"?>
<!-- Generator: Adobe Illustrator 20.0.0, SVG Export Plug-In . SVG Version: 6.00 Build 0)  -->
<!DOCTYPE svg PUBLIC "-//W3C//DTD SVG 1.1//EN" "http://www.w3.org/Graphics/SVG/1.1/DTD/svg11.dtd">
<svg version="1.1" id="Layer_1" xmlns="http://www.w3.org/2000/svg" xmlns:xlink="http://www.w3.org/1999/xlink" x="0px" y="0px"
	 viewBox="0 0 800 480" style="enable-background:new 0 0 800 480;" xml:space="preserve">
<style type="text/css">
	.st0{fill:#FFFFFF;}
	.st1{fill:#000066;}
	.st2{fill:#CC0000;}
</style>
<g>
	<g transform="scale(.9375)">
		<path class="st0" d="M0,0.1h854.3V512H0V0.1z"/>
		<path class="st1" d="M0,0h232.7v232.8H0V0z"/>
		<path class="st2" d="M0,464.9h854.3V512H0V464.9z"/>
		<path class="st2" d="M0,465.4h854.3V512H0V465.4z M0,372.5h854.3v46.2H0V372.5z M0,279.3h852.4V326H0V279.3z M232.7,0.1h621.6
			v46.5H232.7V0.1z M232.7,186.1h621.6v46.8H232.7V186.1z M232.7,93.4h621.6v46.5H232.7V93.4z"/>
		<path class="st0" d="M166.4,193.8l-50.7-38l-50.5,38.4l18.8-62.4L33.6,93.3l62.3-0.5l19.3-62.2l19.7,62l62.3,0.1l-50.1,38.9
			L166.4,193.8L166.4,193.8z"/>
	</g>
</g>
</svg>
