<?xml version="1.0" encoding="utf-8"?>
<!-- Generator: Adobe Illustrator 20.0.0, SVG Export Plug-In . SVG Version: 6.00 Build 0)  -->
<!DOCTYPE svg PUBLIC "-//W3C//DTD SVG 1.1//EN" "http://www.w3.org/Graphics/SVG/1.1/DTD/svg11.dtd">
<svg version="1.1" id="Layer_1" xmlns="http://www.w3.org/2000/svg" xmlns:xlink="http://www.w3.org/1999/xlink" x="0px" y="0px"
	 viewBox="0 0 800 480" style="enable-background:new 0 0 800 480;" xml:space="preserve">
<style type="text/css">
	.st0{fill:#C4272F;}
	.st1{fill:#015197;}
	.st2{fill:#F8CF0D;}
</style>
<path class="st0" d="M0,0h800v480H0V0z"/>
<path class="st1" d="M266.7,0h266.7v480H266.7V0z"/>
<path class="st2" d="M180,176.2c0,0.3,0,0.5,0,0.8c0,23.9-19.4,43.3-43.3,43.3c-23.9,0-43.3-19.4-43.3-43.3c0-0.3,0-0.5,0-0.8
	c7.3,16.7,23.9,28.3,43.3,28.3S172.7,192.9,180,176.2z M105.2,165.2c0,17.4,14.1,31.5,31.5,31.5s31.5-14.1,31.5-31.5
	s-14.1-31.5-31.5-31.5S105.2,147.8,105.2,165.2z M121.9,94.3c0-3-3-6.9,3-11.8c-3,4.9,2,5.9,2,10.8c0,4.9-2,4.9-2,8.9
	c0,2.2,1.8,3.9,3.9,3.9c2.2,0,3.9-1.8,3.9-3.9c0-3.9-3-4.9-3-10.8s3.9-8.9,3.9-13.8s-3-12.8,3-14.8c-3.9,3.9,1,7.9,3.9,12.8
	c3,4.9,3.9,6.9,3.9,12.8s-3.9,9.8-3.9,13.8c0,2.2,1.8,3.9,3.9,3.9c2.2,0,3.9-1.8,3.9-3.9c0-3.9-2-3.9-2-8.9c0-4.9,4.9-5.9,2-10.8
	c5.9,4.9,3,8.9,3,11.8c0,3,4.9,3.9,4.9,11.8c0,10.9-8.8,19.7-19.7,19.7c-10.9,0-19.7-8.8-19.7-19.7C117,98.3,121.9,97.3,121.9,94.3z
	 M50.1,417.2h39.4v-189H50.1V417.2z M184,417.2h39.4v-189H184V417.2z M97.3,275.4h78.7v-15.7H97.3V275.4z M97.3,385.7h78.7v-15.7
	H97.3V385.7z M176.1,228.2l-39.4,23.6l-39.4-23.6H176.1z M176.1,393.5l-39.4,23.6l-39.4-23.6H176.1z M155.4,288
	c2.9,3.9,4.5,8.6,4.5,13.8c0,12.8-10.4,23.2-23.2,23.2c-10.2,0-18.5,8.3-18.5,18.5c0,10.2,8.3,18.5,18.5,18.5
	c21.7,0,39.4-17.7,39.4-39.4C176.1,307.7,167.7,294.7,155.4,288z M113.5,343.5c0-12.8,10.4-23.2,23.2-23.2
	c10.2,0,18.5-8.3,18.5-18.5c0-10.2-8.3-18.5-18.5-18.5c-21.7,0-39.4,17.7-39.4,39.4c0,15,8.4,28,20.7,34.6
	C115.2,353.5,113.5,348.7,113.5,343.5z M136.7,293.9c4.3,0,7.9,3.5,7.9,7.9c0,4.3-3.5,7.9-7.9,7.9s-7.9-3.5-7.9-7.9
	C128.8,297.5,132.4,293.9,136.7,293.9z M136.7,335.7c4.3,0,7.9,3.5,7.9,7.9c0,4.3-3.5,7.9-7.9,7.9s-7.9-3.5-7.9-7.9
	C128.8,339.2,132.4,335.7,136.7,335.7z"/>
</svg>
