<?xml version="1.0" encoding="utf-8"?>
<!-- Generator: Adobe Illustrator 20.0.0, SVG Export Plug-In . SVG Version: 6.00 Build 0)  -->
<!DOCTYPE svg PUBLIC "-//W3C//DTD SVG 1.1//EN" "http://www.w3.org/Graphics/SVG/1.1/DTD/svg11.dtd">
<svg version="1.1" id="Layer_1" xmlns="http://www.w3.org/2000/svg" xmlns:xlink="http://www.w3.org/1999/xlink" x="0px" y="0px"
	 viewBox="0 0 800 480" style="enable-background:new 0 0 800 480;" xml:space="preserve">
<style type="text/css">
	.st0{fill:#CC0001;}
	.st1{fill:#FFFFFF;}
	.st2{fill:#010066;}
	.st3{fill:#FFCC00;}
</style>
<path class="st0" d="M0-0.1h800v480.1H0V-0.1z"/>
<path class="st1" d="M0,445.8h800V480H0V445.8z M0,377.2h800v34.3H0V377.2z M0,308.6h800v34.3H0V308.6z M0,240h800v34.3H0V240z
	 M0,171.4h800v34.3H0V171.4z M0,102.8h800v34.3H0V102.8z M0,34.2h800v34.3H0V34.2z"/>
<path class="st2" d="M0-0.1h405v274.3H0V-0.1z"/>
<path class="st3" d="M160,34.2c-57,0-103.2,46.1-103.2,102.9S103,240,160,240c20.6,0,39.8-6,55.9-16.4c-9.6,3.3-19.7,5-29.9,5
	c-50.5,0-91.5-40.9-91.5-91.2c0-50.4,41-91.2,91.5-91.2c11.2,0,21.9,2,31.8,5.6C201.2,40.7,181.3,34.2,160,34.2L160,34.2z"/>
<path class="st3" d="M331.2,190.7L287.7,168l12.9,46.4l-29.1-38.8l-9.1,47.3l-8.9-47.3l-29.2,38.8l13-46.4l-43.6,22.6l32.4-36.3
	l-49.3,1.9l45.3-19l-45.2-19.1l49.3,2l-32.2-36.4l43.5,22.7l-12.9-46.4l29.1,38.8l9.1-47.3l8.9,47.3l29.2-38.8l-13,46.4l43.6-22.6
	L299,120.1l49.3-1.9l-45.3,19l45.2,19.1l-49.3-2L331.2,190.7z"/>
</svg>
