<?xml version="1.0" encoding="utf-8"?>
<!-- Generator: Adobe Illustrator 20.0.0, SVG Export Plug-In . SVG Version: 6.00 Build 0)  -->
<!DOCTYPE svg PUBLIC "-//W3C//DTD SVG 1.1//EN" "http://www.w3.org/Graphics/SVG/1.1/DTD/svg11.dtd">
<svg version="1.1" id="Layer_1" xmlns="http://www.w3.org/2000/svg" xmlns:xlink="http://www.w3.org/1999/xlink" x="0px" y="0px"
	 viewBox="0 0 800 480" style="enable-background:new 0 0 800 480;" xml:space="preserve">
<style type="text/css">
	.st0{fill:#009A00;}
	.st1{fill:#FFFFFF;}
	.st2{fill:#FFCA00;}
	.st3{fill:#FF0000;}
	.st4{fill:#FFFFFF;stroke:#000000;stroke-width:1.1027;stroke-linecap:round;stroke-linejoin:round;}
	.st5{fill:none;stroke:#000000;stroke-width:1.1027;stroke-linecap:round;stroke-linejoin:round;}
	.st6{fill:none;stroke:#000000;stroke-width:0.8822;}
	.st7{stroke:#000000;stroke-width:1.1027;stroke-linecap:round;stroke-linejoin:round;}
</style>
<g>
	<g transform="scale(.9375)">
		<path class="st0" d="M0,0h853.3v160H0V0z"/>
		<path class="st1" d="M0,160h853.3v16H0V160z"/>
		<path d="M0,176h853.3v160H0V176z"/>
		<path class="st1" d="M0,336h853.3v16H0V336z"/>
		<path class="st2" d="M0,352h853.3v160H0V352z"/>
		<path class="st3" d="M0,0v512l336-256L0,0z"/>
		<path class="st2" d="M198.5,333l-51.2-37.5L96.1,333l19.8-60.3l-51.5-37.1l63.5,0.2l19.3-60.4l19.4,60.5l63.4-0.3l-51.5,37.1
			L198.5,333z"/>
		<path class="st4" d="M102.8,290.9h36.9c3,3.3,9.6,4.7,15.9,0c11.6-6.3,33.9,0,33.9,0l4.4-4.7L183.3,251l-3.9-4.1c0,0-8.3-5-24-3.3
			c-15.7,1.7-21.2-0.6-21.2-0.6s-13.8,1.7-17.6,3.6c-0.4,0.3-4.4,4.4-4.4,4.4S102.8,290.9,102.8,290.9z"/>
		<path class="st5" d="M110.3,281.8c0,0,35.3-4.4,45.4,9.1c-5.8,3.9-10.8,4.3-16.3,0.3c0.9-1.4,12.7-13.8,42.7-9.6"/>
		<path class="st6" d="M148,246.6l-0.3,38.8 M179.4,247.1L186,278"/>
		<path class="st5" d="M117,246.6l-3.7,15.9"/>
		<path class="st7" d="M78.9,295.1l8.7,10.2c1,0.6,1.9,0.6,2.8,0l12.9-15.4l5.4-6.7c0.8-1,1.1-2.1,1-3.1l10.3-9.2
			c0.8,0.1,1.3,0.2,2.2,0.2c-1-0.3-1.7-0.7-0.9-1.8l2.3-1.8l1.8,2.3c0,0-2.6,3.3-2.8,3.3h-2.8l-5.4,4.9l2.4,2.1l3.6,9.7l4.4-3.1
			l-2.8-10l6.2-6.7l-2.3-3.6l1.5-2.1c0,0,21.4,13.5,29.6,9.9c0.2,0.1,0.5-9.6,0.5-9.6s-22.1-2.3-22.6-6.7c-0.5-4.4,4.9-4.9,4.9-4.9
			l-2.3-3.3l0.5-1.8l3.9,4.9l8.7-7.5l51.4,58.7c2.8-1.1,3.4-1.8,3.6-4.6c-0.1-0.1-50.4-57.9-50.4-57.9l3.9-4.1c0.8-0.9,1-1.2,1-2.6
			l5.9-5.1c1.8,0.6,2.9,1.7,3.9,3.1l16.3-13.8c0.4,0.4,1.7,0.9,2.6,0.4l26.9-25.8l-29.3,20.7l-1-0.8c0-0.9,1.1-1.1,0-2.6
			c-1.1-1.4-2.8,1.3-3.1,1.3c-0.3,0-4.2-1.4-5.1-3.2l-0.3,4.7l-7.5,6.9l-5.7-0.3l-8.2,8l-1,3.1l1.3,2.6c0,0-4.4,3.9-4.4,3.6
			c0-0.3-0.9-1.1-0.9-1.3l3.8-3.4l0.5-2.3l-1.3-2c-0.4,0.3-5.2,5.3-5.4,4.8c-0.4-0.5-13.9-15.7-13.9-15.7l0.8-2.8l-8.7-9.5
			c-3.2-1.1-8.2-1.3-9.3,5.7c-0.8,1.6-7.5,0.3-7.5,0.3l-3.6,0.8L85.2,241l11.3,13.6l23.2-29.3l0.7-8.3l4.9,5.4
			c1.6,0.2,3.2,0.2,4.6-0.5l13.7,15.3l-2.3,2.2c0.8,0.9,1.3,1.4,2.1,2.3c0.8-0.5,1.5-1.1,2.3-1.6c0.3,0.3,0.7,1,0.9,1.3
			c-1.1,0.6-2,1.5-3.1,2.1c-1.8-1.2-3.6-2.7-3.5-5.1l-7.7,6.4l-0.3,1.3l-22.9,19l-2.1,0.3l-0.5,5.9l14.9-12.3v-1.8l1.5,1.3l11.6-9.3
			c0,0,0.8,1,0.5,1s-10.3,9.3-10.3,9.3l-0.3,1l-1.8,1.5l-1-0.8l-13.9,12.3h-2.1l-7.7,7.7c-2,0.2-3.7,0.4-5.4,1.5L78.9,295.1
			L78.9,295.1z"/>
	</g>
</g>
</svg>
