<?xml version="1.0" encoding="utf-8"?>
<!-- Generator: Adobe Illustrator 20.0.0, SVG Export Plug-In . SVG Version: 6.00 Build 0)  -->
<!DOCTYPE svg PUBLIC "-//W3C//DTD SVG 1.1//EN" "http://www.w3.org/Graphics/SVG/1.1/DTD/svg11.dtd">
<svg version="1.1" id="Layer_1" xmlns="http://www.w3.org/2000/svg" xmlns:xlink="http://www.w3.org/1999/xlink" x="0px" y="0px"
	 viewBox="0 0 800 480" style="enable-background:new 0 0 800 480;" xml:space="preserve">
<style type="text/css">
	.st0{fill:#FFFFFF;}
	.st1{fill:#3662A2;}
	.st2{fill:#38A100;}
	.st3{fill:#C70000;}
	.st4{fill:#FFE700;}
</style>
<g>
	<g>
		<path class="st0" d="M30.4,0h740.3v480H30.4V0z"/>
		<path class="st1" d="M-0.1,0.2l0.9,345.5L623.3,0L-0.1,0.2L-0.1,0.2z"/>
		<path class="st2" d="M801.2,479.6l-1.5-359.3L171.9,479.8L801.2,479.6L801.2,479.6z"/>
		<path class="st3" d="M0.3,371.8L0.9,480l135.8-0.1L800,95.3l-0.7-94.1L665.1,0.2L0.3,371.8L0.3,371.8z"/>
		<path class="st4" d="M207.2,125.7l25.8-14.2l-25.6-14.5l15.3-25.2l-29.5,0.2l0.6-29.5l-25.4,14.9l-14.2-25.8l-14.6,25.7
			l-25.2-15.2l0.2,29.5l-29.5-0.6L100,96.3l-25.8,14.2L99.8,125l-15.3,25.2l29.5-0.2l-0.6,29.5l25.4-14.9l14.2,25.8l14.6-25.6
			l25.2,15.2l-0.2-29.5l29.5,0.6L207.2,125.7z M153.6,164.6c-29.9,0-54.1-24-54.1-53.7c0-29.6,24.2-53.7,54.1-53.7
			s54.1,24,54.1,53.7C207.7,140.6,183.5,164.6,153.6,164.6z M196,111c0,23.4-19,42.3-42.3,42.3s-42.3-19-42.3-42.3
			s19-42.3,42.3-42.3C177,68.6,196,87.6,196,111z"/>
	</g>
</g>
</svg>
