<?xml version="1.0" encoding="utf-8"?>
<!-- Generator: Adobe Illustrator 20.0.0, SVG Export Plug-In . SVG Version: 6.00 Build 0)  -->
<!DOCTYPE svg PUBLIC "-//W3C//DTD SVG 1.1//EN" "http://www.w3.org/Graphics/SVG/1.1/DTD/svg11.dtd">
<svg version="1.1" id="Layer_1" xmlns="http://www.w3.org/2000/svg" xmlns:xlink="http://www.w3.org/1999/xlink" x="0px" y="0px"
	 viewBox="0 0 800 480" style="enable-background:new 0 0 800 480;" xml:space="preserve">
<style type="text/css">
	.st0{fill:#0067C6;}
	.st1{fill:#FFFFFF;}
	.st2{fill:#C8A400;}
	.st3{display:none;fill:none;}
	.st4{display:none;fill:#FFFFFF;}
	.st5{opacity:0.62;fill:#17C0EB;enable-background:new    ;}
	.st6{fill:#FF0000;}
	.st7{fill:#FF6600;}
	.st8{fill:#FFFF00;}
	.st9{fill:#00FF00;}
	.st10{fill:#00CCFF;}
	.st11{fill:#0000FF;}
	.st12{fill:#800080;}
	.st13{fill:url(#SVGID_1_);}
	.st14{fill:url(#SVGID_2_);}
	.st15{fill:#97C924;}
	.st16{fill:#EDE71F;}
	.st17{fill:#C6CB24;}
	.st18{fill:#9ECB34;}
	.st19{fill:url(#SVGID_3_);}
	.st20{fill:url(#SVGID_4_);}
	.st21{fill:url(#SVGID_5_);}
	.st22{fill:#93BC30;}
	.st23{fill:#CCD11E;}
	.st24{fill:url(#SVGID_6_);}
	.st25{fill:url(#SVGID_7_);}
	.st26{fill:#510000;}
	.st27{fill:url(#SVGID_8_);}
	.st28{fill:#FF2A2A;}
	.st29{fill:url(#SVGID_9_);}
	.st30{fill:#910000;}
	.st31{fill:#FF3A3A;}
</style>
<path class="st0" d="M0,0h800v480H0V0z"/>
<path class="st1" d="M0,160h800v160H0V160z"/>
<path class="st2" d="M328,239.5l8,0.5c0-0.4,0-0.8,0.1-1.2l-3.1-0.2c0.1-1.3,0.2-2.6,0.2-3.8c1.1-0.8,2.2-1.6,3.3-2.4l0.1-1.5
	l-3.5,2.6c-0.1-0.8-0.6-1.7-1.4-2c-0.7-0.3-1.6-0.3-2.3,0.2c-0.8,0.6-0.9,1.6-1,2.6C328.2,236,328.1,237.7,328,239.5L328,239.5z
	 M329.2,238.4c0.1-1.3,0.2-2.6,0.3-3.9c0.1-0.6,0.2-1.4,0.8-1.8c0.5-0.3,1.3-0.1,1.5,0.5c0.4,1,0.2,2.1,0.2,3.1l-0.1,2.3
	L329.2,238.4L329.2,238.4z M329,227.2c2.6,0.6,5.2,1.2,7.8,1.8l1.8-7.6c-0.4-0.1-0.7-0.2-1.1-0.3l-1.5,6.4l-2.4-0.6
	c0.5-1.9,0.9-3.9,1.4-5.8l-1.1-0.3l-1.4,5.8l-2.1-0.5l1.5-6.2l-1.1-0.3C330.2,222.3,329.6,224.8,329,227.2L329,227.2z M331.8,216.7
	l7.6,2.6l0.4-1.1c-1-0.3-2-0.7-3-1c0.4-1.1,0.8-2.3,1.2-3.4c0.3-0.9,0.5-2-0.1-2.9c-0.5-0.6-1.3-1.1-2-1c-0.9,0-1.6,0.7-2,1.4
	c-0.6,1.1-0.9,2.3-1.3,3.4L331.8,216.7L331.8,216.7z M333.3,216c0.4-1.1,0.8-2.3,1.2-3.4c0.3-0.6,0.6-1.3,1.3-1.5
	c0.6-0.1,1.2,0.3,1.2,0.9c0.1,1.1-0.3,2.1-0.7,3.1l-0.6,1.8L333.3,216L333.3,216z M336,207.1c1.4,0.8,2.8,1.7,4.3,2.5
	c0.8,0.4,1.8,0.7,2.7,0.2c1.2-0.6,1.9-1.8,2.4-3c0.4-1,0.8-2.2,0.2-3.2c-0.6-1-1.7-1.4-2.7-2l-2.8-1.6c-0.2,0.3-0.4,0.7-0.6,1
	c1.4,0.8,2.7,1.6,4.1,2.4c0.6,0.4,1.2,1.1,1.1,1.9c-0.1,0.9-0.7,1.8-1.2,2.5c-0.4,0.6-1.2,1.1-2,0.9c-0.8-0.2-1.5-0.7-2.2-1.1
	l-2.7-1.6C336.4,206.4,336.2,206.7,336,207.1z M341.8,197.6l6.4,4.9c1-1.3,2-2.6,3-3.9c0.6-0.8,1.1-1.9,0.7-2.9
	c-0.4-0.8-1.2-1.4-2.1-1.5c-0.4-0.1-0.9,0.2-1.1,0.4c0.2-0.9-0.5-1.7-1.3-1.9c-0.9-0.3-1.9,0.3-2.5,0.9c-0.7,0.8-1.4,1.7-2,2.6
	L341.8,197.6L341.8,197.6z M343.4,197.4c0.7-0.9,1.4-1.9,2.2-2.9c0.4-0.4,0.9-0.9,1.5-0.6c0.5,0.2,0.6,0.9,0.4,1.3
	c-0.4,0.8-1,1.5-1.6,2.2c-0.3,0.4-0.6,0.8-0.9,1.1C344.5,198.3,344,197.8,343.4,197.4L343.4,197.4z M346,199.4c0.8-1,1.5-2,2.3-3
	c0.4-0.4,0.9-1,1.6-0.9c0.6,0.1,1,0.7,0.8,1.3c-0.3,1-1.1,1.8-1.7,2.7l-1,1.3L346,199.4L346,199.4z M349,189.2l5.5,5.8l4.7-4.4
	l-0.8-0.8l-3.8,3.6l-0.1,0.1l-0.1-0.1l-4.6-4.9L349,189.2z M356,183l4.9,6.3l1-0.7l-4.9-6.3L356,183z M363.2,178.1
	c-0.8,0.5-1.4,1.1-1.9,1.7c-0.5,0.7-0.8,1.4-0.8,2.1c0,0.7,0.2,1.4,0.6,2.1c0.4,0.6,0.9,1.1,1.6,1.5c0.7,0.3,1.4,0.5,2.1,0.4
	c0.8-0.1,1.6-0.4,2.6-1c0.9-0.6,1.6-1.3,2-2c0.4-0.7,0.5-1.5,0.3-2.4l-1.1,0.4c0.3,1.6-0.7,2.4-1.9,3.1c-1.8,1.1-3.6,1-4.6-0.6
	c-1.1-1.9,0.1-3.4,1.6-4.4c1.1-0.7,2.2-1.1,3.2-0.5l0.9-0.8c-0.6-0.4-1.3-0.6-2-0.6C364.9,177.3,364.1,177.6,363.2,178.1
	L363.2,178.1z M372.6,173.4l-0.8,9l1.2-0.5l0.3-2.8h0l4-1.6l2.1,1.8l1.2-0.5l-6.8-5.9L372.6,173.4L372.6,173.4z M373.7,174.3
	l2.7,2.3l-3,1.2L373.7,174.3L373.7,174.3z M390.2,168.5l0.5,8c1.4-0.1,2.9-0.2,4.3-0.3c1.1-0.1,2.4-0.4,3.1-1.3
	c1-1.1,1.1-2.8,0.7-4.1c-0.4-1.2-1.5-2.1-2.7-2.4c-1.2-0.2-2.5-0.1-3.7,0L390.2,168.5L390.2,168.5z M391.4,169.5
	c1.1-0.1,2.3-0.2,3.4-0.2c0.7,0,1.3,0.2,1.8,0.6c0.8,0.5,1.3,1.5,1.2,2.5c-0.1,1.1-0.9,2.1-2,2.4c-0.6,0.2-1.3,0.2-1.9,0.3l-2.2,0.1
	C391.6,173.3,391.5,171.4,391.4,169.5L391.4,169.5z M401.3,168c-0.1,2.7-0.3,5.3-0.5,8l7.8,0.4l0.1-1.1c-2.2-0.1-4.4-0.3-6.6-0.4
	l0.1-2.4c2,0.1,4,0.2,6,0.3l0.1-1.1c-2-0.1-4-0.2-6-0.3c0-0.7,0.1-1.4,0.1-2.1c2.1,0.1,4.2,0.2,6.4,0.4l0.1-1.1L401.3,168L401.3,168
	z M422.2,171.3l-2.9,7.5l1,0.4l2.3-5.9l0.1-0.3l0.1,0.3l2.8,7.9l1.3,0.5l2.9-7.5l-1-0.4l-2.3,5.9l-0.1,0.3l-0.1-0.3l-2.8-7.9
	L422.2,171.3z M433,175.9l-3.6,7.1l-1.1-0.5l3.6-7.1L433,175.9z M439,179.5c-0.8-0.5-1.6-0.9-2.4-1c-0.8-0.2-1.6-0.1-2.2,0.2
	c-0.7,0.3-1.2,0.7-1.7,1.4c-0.4,0.6-0.6,1.3-0.7,2.1c0,0.7,0.1,1.4,0.5,2.1c0.4,0.7,1.1,1.3,2,1.9c0.9,0.6,1.8,0.9,2.7,1
	c0.8,0.1,1.6-0.2,2.3-0.7l-0.9-0.8c-1.3,0.9-2.5,0.3-3.6-0.4c-1.8-1.2-2.4-2.8-1.4-4.5c1.2-1.8,3.1-1.3,4.7-0.3
	c1.1,0.7,1.9,1.5,1.8,2.7l1.1,0.5c0.1-0.7,0-1.4-0.3-2.1C440.5,180.7,439.9,180.1,439,179.5L439,179.5z M446.6,185.2l-8.4,3.3l1,0.9
	l2.6-1l0,0l3.3,2.9l-0.7,2.7l1,0.9l2.1-8.8L446.6,185.2L446.6,185.2z M446.3,186.6l-0.8,3.4l-2.4-2.1L446.3,186.6L446.3,186.6z
	 M452.7,190.8l-6.2,5.1l0.7,0.9l2.4-2c0.8,1,1.6,2,2.5,3c-0.3,1.3-0.5,2.7-0.8,4l0.9,1.1c0.3-1.4,0.5-2.8,0.8-4.3
	c0.7,0.6,1.7,0.9,2.5,0.4c0.7-0.3,1.3-1,1.4-1.8c0.1-1.1-0.7-2-1.3-2.8C454.7,193.2,453.7,192,452.7,190.8L452.7,190.8z
	 M452.5,192.4c0.9,1.1,1.8,2.1,2.6,3.2c0.4,0.6,0.9,1.4,0.4,2c-0.4,0.6-1.1,0.5-1.6,0.1c-1-0.7-1.6-1.7-2.4-2.5l-1-1.2L452.5,192.4
	L452.5,192.4z M462,203.5l-9,0.4l0.7,1.2l2.8-0.1l0,0l2.2,3.8l-1.5,2.3l0.7,1.2l4.9-7.6L462,203.5L462,203.5z M461.3,204.7l-1.9,3
	l-1.6-2.8L461.3,204.7L461.3,204.7z M467.1,214.1c-0.5-1.4-1.3-2.7-2.6-3.4c-1.5-0.7-3.5-0.4-4.5,0.9c-0.9,1.1-1,2.6-0.7,4
	c0.3,1.5,1,3,2,4.1c-0.2,0.1-0.4,0.1-0.6,0.2l0.4,1.1c1.3-0.4,2.5-0.9,3.7-1.3c-0.5-1.4-1-2.7-1.5-4c-0.3,0.1-0.6,0.2-0.9,0.3l1.1,3
	c-0.4,0.1-0.8,0.3-1.3,0.5c-1.1-1-1.7-2.4-2.1-3.8c-0.2-1.1-0.3-2.3,0.6-3.2c0.9-1,2.6-1.3,3.7-0.4c1.1,0.8,1.7,2.1,2,3.4
	c0.2,0.8,0.2,1.9-0.5,2.5c-0.2,0.1,0.1,0.3,0.2,0.5l0.3,0.5c0.7-0.5,1.1-1.4,1.1-2.2C467.6,215.8,467.4,214.9,467.1,214.1
	L467.1,214.1z M469.4,220.4l-4.5,0.9c-0.8,0.2-1.5,0.4-1.9,0.8c-0.4,0.4-0.7,0.8-0.8,1.5c-0.1,0.6-0.1,1.4,0.1,2.4c0,0,0,0,0,0
	c0.2,1,0.5,1.7,0.8,2.3c0.4,0.6,0.8,0.9,1.3,1.1c0.5,0.2,1.2,0.2,2,0l4.5-0.9l-0.2-1.1l-4.4,0.9c-2,0.4-2.6-0.6-3-2.4l0,0
	c-0.4-1.8-0.1-3,1.8-3.3l4.4-0.9L469.4,220.4L469.4,220.4z M471.9,234l-8.3-3.5l0.1,1.3l2.6,1.1v0l0.3,4.4l-2.4,1.4l0.1,1.3l7.7-4.7
	L471.9,234L471.9,234z M470.7,234.7l-3,1.8l-0.2-3.2L470.7,234.7z M334.2,254.7L333,255l1.3,4.9l1.2-0.3L334.2,254.7z M465.8,254.7
	l1.2,0.3l-1.3,4.9l-1.2-0.3L465.8,254.7z M346.6,275.2l-8.9,1l0.7,1.1l2.8-0.3l0,0l2.4,3.6l-1.4,2.4l0.7,1.1l4.3-7.9L346.6,275.2
	L346.6,275.2z M345.9,276.5l-1.7,3.1l-1.8-2.7L345.9,276.5L345.9,276.5z M350,280.1l-5.7,5.3l0.8,0.8l4.8-4.5l-2.5,6.9l0.9,0.9
	l6.9-2.1l-4.7,4.4l0.8,0.8l5.7-5.3l-1.2-1.2l-7,2.1l2.6-6.8L350,280.1z M358.3,288.5l-4.8,6.4l6.2,4.7l0.7-0.9l-5.3-4l1.5-1.9
	l4.8,3.6l0.7-0.9l-4.8-3.6l1.3-1.7c1.7,1.3,3.4,2.6,5.1,3.8l0.7-0.9L358.3,288.5L358.3,288.5z M366.1,294.3l-3.8,7.1l1,0.5l1.5-2.8
	c1.1,0.6,2.3,1.2,3.4,1.8c0.3,1.3,0.5,2.7,0.8,4l1.3,0.7l-0.9-4.2c0.9,0.3,1.9,0.1,2.5-0.6c0.5-0.6,0.8-1.4,0.6-2.1
	c-0.3-1-1.3-1.6-2.2-2.1C369,295.8,367.6,295.1,366.1,294.3L366.1,294.3z M366.6,295.8c1.2,0.7,2.4,1.3,3.6,2
	c0.5,0.4,1.2,0.9,1.2,1.6c-0.1,0.7-0.8,1-1.4,0.9c-1.2-0.2-2.2-0.9-3.2-1.4l-1.5-0.8L366.6,295.8L366.6,295.8z M375.2,299l-3,7.4
	l1.1,0.5l3-7.4L375.2,299z M382.4,301.5c-0.9-0.3-1.7-0.4-2.6-0.4c-0.8,0.1-1.5,0.3-2.1,0.7c-0.6,0.4-1,1-1.3,1.8
	c-0.2,0.7-0.3,1.4-0.1,2.2c0.1,0.7,0.5,1.4,1.1,1.9c0.6,0.5,1.4,1,2.5,1.4c1,0.3,2,0.4,2.8,0.2c0.8-0.2,1.5-0.6,2-1.3l-1-0.6
	c-1,1.2-2.3,0.9-3.6,0.5c-2-0.7-3.1-2.1-2.5-4c0.7-2,2.7-2.1,4.4-1.5c1.2,0.4,2.3,0.9,2.4,2.1l1.1,0.2c-0.1-0.7-0.4-1.4-0.9-1.9
	C384.2,302.3,383.4,301.8,382.4,301.5L382.4,301.5z M390.4,303.3l-5.2,7.3l1.3,0.2l1.6-2.3h0l4.3,0.6l0.9,2.6l1.3,0.2l-2.9-8.5
	L390.4,303.3L390.4,303.3z M390.9,304.6l1.1,3.3l-3.2-0.5L390.9,304.6z M409.2,303.4c-0.9,0.2-1.7,0.5-2.4,0.9
	c-0.7,0.5-1.2,1-1.5,1.7c-0.3,0.7-0.4,1.4-0.2,2.2c0.1,0.7,0.5,1.4,0.9,1.9c0.5,0.6,1.1,0.9,1.9,1.1c0.8,0.2,1.7,0.2,2.8,0
	c1.1-0.2,1.9-0.6,2.6-1.2c0.6-0.5,1-1.3,1.2-2.1l-1.2,0c-0.3,1.6-1.5,1.9-2.9,2.2c-2.1,0.4-3.7-0.3-4.1-2.3
	c-0.4-2.1,1.3-3.1,3.1-3.5c1.3-0.2,2.4-0.3,3.2,0.7l1.1-0.4c-0.4-0.6-1-1-1.7-1.3C411.1,303.2,410.2,303.2,409.2,303.4L409.2,303.4z
	 M414.5,302.4c0.8,2.6,1.5,5.1,2.3,7.7c2.5-0.7,5-1.5,7.5-2.2c-0.1-0.4-0.2-0.7-0.3-1.1l-6.4,1.9c-0.2-0.8-0.5-1.6-0.7-2.3
	c1.9-0.6,3.8-1.1,5.7-1.7l-0.3-1.1l-5.7,1.7l-0.6-2.1l6.1-1.8l-0.3-1.1L414.5,302.4L414.5,302.4z M423.2,299.7
	c1.1,2.4,2.2,4.8,3.4,7.3l1-0.5l-2.8-6.1c2.6,1.2,5.2,2.4,7.7,3.6c0.2,0.1,0.3,0,0.5,0l1-0.5c-1.1-2.4-2.2-4.8-3.4-7.3l-1,0.5l2.8,6
	c-2.7-1.2-5.3-2.4-8-3.7C424,299.3,423.6,299.5,423.2,299.7L423.2,299.7z M432,295.6l0.6,1l2.9-1.9l0.1-0.1l0.1,0.1l3.7,5.6l1-0.6
	l-3.7-5.6l-0.1-0.1l0.1-0.1l2.9-1.9l-0.6-1L432,295.6z M440,290l5.4,5.9c0.3-0.3,0.6-0.5,0.9-0.8l-2.1-2.3c0.9-0.9,1.9-1.7,2.8-2.6
	c1.4,0.2,2.7,0.4,4.1,0.5l1.1-1l-4.3-0.6c0.5-0.7,0.8-1.7,0.3-2.5c-0.4-0.7-1.1-1.3-1.9-1.3c-1.1,0-2,0.8-2.7,1.5L440,290L440,290z
	 M441.6,290.1c1-0.9,2-1.9,3-2.8c0.5-0.4,1.3-0.9,2-0.5c0.6,0.3,0.6,1.1,0.2,1.6c-0.6,1-1.6,1.7-2.4,2.5l-1.1,1
	C442.8,291.4,442.2,290.7,441.6,290.1z M449.3,280.7l3.6,8.3l0.9-1l-1.1-2.6l0,0l2.8-3.4l2.7,0.6l0.9-1l-8.8-1.9L449.3,280.7
	L449.3,280.7z M450.7,281l3.4,0.7l-2,2.5L450.7,281L450.7,281z M452.8,276.2l6.7,4.4l3.5-5.4l-1-0.6l-2.8,4.3l-0.1,0.1l-0.1-0.1
	l-5.7-3.7L452.8,276.2z"/>
<polygon class="st3" points="400,181.1 349,269.4 451,269.4 "/>
<path class="st4" d="M400,181.1l-25.2,43.6l-12.3,21.4h75l-11.8-20.4L400,181.1L400,181.1z"/>
<g>
	<g>
		<polygon class="st5" points="408,195 400,228.4 410,198.4 		"/>
		<polygon class="st5" points="411.1,200.3 400,228.4 412.6,203 		"/>
		<polygon class="st5" points="414.1,246.1 400,228.4 411.8,246.1 		"/>
		<polygon class="st5" points="418.7,246.1 400,228.4 415.7,246.1 		"/>
		<polygon class="st5" points="424.2,223 400,228.4 425.3,225 		"/>
		<polygon class="st5" points="424.8,246.1 400,228.4 420.8,246.1 		"/>
		<polygon class="st5" points="398,246.1 399.5,246.1 400,228.4 400,228.4 		"/>
		<polygon class="st5" points="400,228.4 400.5,246.1 402,246.1 400,228.4 403,246.1 404.6,246.1 400,228.4 405.6,246.1 
			407.3,246.1 400,228.4 400,228.4 400,228.4 		"/>
		<polygon class="st5" points="410.4,246.1 400,228.4 408.5,246.1 		"/>
		<polygon class="st5" points="403.9,187.9 400,228.4 406.6,192.6 		"/>
		<polygon class="st5" points="413.5,204.5 400,228.4 414.8,206.8 		"/>
		<polygon class="st5" points="422.4,220 400,228.4 423.5,221.8 		"/>
		<polygon class="st5" points="428.3,230.1 400,228.4 429.8,232.8 		"/>
		<polygon class="st5" points="426.1,226.3 400,228.4 427.4,228.6 		"/>
		<polygon class="st5" points="420.8,217.1 400,228.4 421.8,218.9 		"/>
		<polygon class="st5" points="419.1,214.2 400,228.4 420.1,216 		"/>
		<polygon class="st5" points="415.6,208.1 400,228.4 416.7,210.1 		"/>
		<polygon class="st5" points="417.4,211.3 400,228.4 418.5,213.1 		"/>
		<polygon class="st5" points="430.9,234.7 400,228.4 432.9,238.1 		"/>
		<polygon class="st5" points="434,246.1 400,228.4 400,228.4 427.9,246.1 		"/>
		<polygon class="st5" points="434.3,240.6 400,228.4 437,245.2 		"/>
		<polygon class="st5" points="381.5,213.1 400,228.4 382.6,211.3 		"/>
		<polygon class="st5" points="383.3,210.1 400,228.4 384.4,208.1 		"/>
		<polygon class="st5" points="400,228.4 377.6,220 376.5,221.8 400,228.4 400,228.4 373.9,226.3 372.6,228.6 400,228.4 
			371.7,230.1 370.2,232.8 400,228.4 400,228.4 400,228.4 400,228.4 400,228.4 400,228.4 		"/>
		<polygon class="st5" points="379.9,216 400,228.4 380.9,214.2 		"/>
		<polygon class="st5" points="388.2,246.1 400,228.4 385.9,246.1 		"/>
		<polygon class="st5" points="387.4,203 400,228.4 388.9,200.3 		"/>
		<polygon class="st5" points="398.1,184.4 400,228.4 400,228.4 401.9,184.4 400,181.1 400,181.1 		"/>
		<polygon class="st5" points="378.2,218.9 400,228.4 379.2,217.1 		"/>
		<polygon class="st5" points="393.4,192.6 400,228.4 396.1,187.9 		"/>
		<polygon class="st5" points="390,198.4 400,228.4 392,195 		"/>
		<polygon class="st5" points="385.2,206.8 400,228.4 386.5,204.5 		"/>
		<circle class="st5" cx="400" cy="228.4" r="0"/>
		<circle class="st5" cx="400" cy="228.4" r="0"/>
		<polygon class="st5" points="374.8,224.8 374.7,225 400,228.4 375.8,223 		"/>
		<polygon class="st5" points="363,245.2 400,228.4 365.7,240.6 		"/>
		<polygon class="st5" points="400,228.4 400,228.4 400,228.4 369.1,234.7 367.1,238.1 400,228.4 400,228.4 		"/>
		<polygon class="st5" points="400,228.4 400,228.4 400,228.4 		"/>
		<polygon class="st5" points="400,228.4 400,228.4 400,228.4 389.6,246.1 391.5,246.1 400,228.4 392.7,246.1 394.4,246.1 
			400,228.4 395.4,246.1 397,246.1 400,228.4 400,228.4 400,228.4 		"/>
		<polygon class="st5" points="400,228.4 400,228.4 400,228.4 400,228.4 366,246.1 372.1,246.1 400,228.4 375.2,246.1 379.2,246.1 
			400,228.4 381.3,246.1 384.3,246.1 400,228.4 400,228.4 		"/>
		<polygon class="st5" points="400,228.4 400,228.4 400,228.4 400,228.4 400,228.4 400,228.4 		"/>
		<ellipse transform="matrix(0.7071 -0.7071 0.7071 0.7071 -44.3277 349.7313)" class="st5" cx="400" cy="228.4" rx="0" ry="0"/>
	</g>
	<path class="st1" d="M400,222c0,0,0.1,0,0.1,0l-0.1,2.5l-0.1-2.5L400,222L400,222z M406.1,226.5c0,0,0-0.1,0-0.1l0,0l0-0.1
		l-2.3,0.9L406.1,226.5z M403.7,233.6C403.7,233.6,403.7,233.6,403.7,233.6L403.7,233.6l0.2-0.1l-1.5-1.9L403.7,233.6z M396.2,233.5
		C396.2,233.5,396.2,233.5,396.2,233.5L396.2,233.5l0.2,0.1l1.4-2.1L396.2,233.5z M394,226.3c0,0,0,0.1,0,0.1l0,0l0,0.1l2.4,0.7
		L394,226.3z M400.9,222L400.9,222l-0.1,0l-0.2,2.5l0.5-2.4C401,222.1,400.9,222,400.9,222z M406.3,227.4c0,0,0-0.1,0-0.1l0,0l0-0.1
		l-2.4,0.5L406.3,227.4z M402.9,234.1C402.9,234.1,403,234,402.9,234.1L402.9,234.1l0.2-0.1l-1.3-2.1L402.9,234.1z M395.5,232.9
		C395.5,232.9,395.5,232.9,395.5,232.9L395.5,232.9l0.2,0.1l1.7-1.9L395.5,232.9z M394.3,225.5C394.3,225.5,394.3,225.5,394.3,225.5
		L394.3,225.5l-0.1,0.2l2.3,1L394.3,225.5z M401.8,222.2L401.8,222.2l-0.1,0l-0.6,2.4l0.8-2.4C401.8,222.3,401.8,222.2,401.8,222.2z
		 M406.4,228.3c0,0,0-0.1,0-0.1l0,0l0-0.1l-2.5,0.2L406.4,228.3z M402.1,234.4c0,0,0.1,0,0.1,0l0,0l0.1,0l-1-2.3L402.1,234.4z
		 M394.9,232.2C394.9,232.3,394.9,232.3,394.9,232.2L394.9,232.2l0.1,0.2l1.9-1.6L394.9,232.2z M394.8,224.7
		C394.7,224.7,394.7,224.8,394.8,224.7L394.8,224.7l-0.1,0.2l2.1,1.3L394.8,224.7z M402.7,222.6
		C402.7,222.6,402.6,222.5,402.7,222.6L402.7,222.6l-0.2-0.1l-0.9,2.3L402.7,222.6z M406.3,229.1c0,0,0-0.1,0-0.1l0,0l0-0.1
		l-2.5-0.2L406.3,229.1z M401.2,234.6c0,0,0.1,0,0.1,0l0,0l0.1,0l-0.6-2.4L401.2,234.6z M394.4,231.5
		C394.4,231.5,394.4,231.5,394.4,231.5L394.4,231.5l0.1,0.2l2.1-1.3L394.4,231.5z M395.3,224C395.3,224,395.3,224.1,395.3,224
		L395.3,224l-0.1,0.2l1.9,1.6L395.3,224z M403.5,223C403.4,223,403.4,223,403.5,223L403.5,223l-0.2-0.1l-1.2,2.2L403.5,223z
		 M406.2,230c0,0,0-0.1,0-0.1l0,0l0-0.1l-2.4-0.5L406.2,230z M400.3,234.8c0,0,0.1,0,0.1,0l0,0l0.1,0l-0.3-2.5L400.3,234.8z
		 M394,230.7c0,0,0,0.1,0,0.1l0,0l0,0.1l2.3-1L394,230.7z M396,223.4C395.9,223.4,395.9,223.5,396,223.4L396,223.4l-0.2,0.1l1.7,1.8
		L396,223.4z M404.2,223.5C404.2,223.5,404.1,223.5,404.2,223.5L404.2,223.5l-0.2-0.1l-1.5,2L404.2,223.5z M405.9,230.9
		C405.9,230.8,405.9,230.8,405.9,230.9l0-0.1l0-0.1l-2.3-0.8L405.9,230.9z M399.6,234.8L399.6,234.8l0.1,0l0.1-2.5l-0.3,2.5
		C399.5,234.7,399.5,234.7,399.6,234.8z M393.8,229.8c0,0,0,0.1,0,0.1l0,0l0,0.1l2.4-0.7L393.8,229.8z M396.7,222.9
		C396.7,222.9,396.6,222.9,396.7,222.9L396.7,222.9l-0.2,0.1l1.4,2.1L396.7,222.9z M404.8,224.2
		C404.8,224.2,404.8,224.1,404.8,224.2L404.8,224.2l-0.1-0.2l-1.8,1.7L404.8,224.2z M405.5,231.7
		C405.5,231.6,405.5,231.6,405.5,231.7L405.5,231.7l0.1-0.2l-2.2-1.2L405.5,231.7z M398.7,234.6L398.7,234.6l0.1,0l0.4-2.5l-0.6,2.4
		C398.6,234.6,398.6,234.6,398.7,234.6z M393.6,228.9c0,0,0,0.1,0,0.1l0,0l0,0.1l2.5-0.4L393.6,228.9z M397.5,222.5
		C397.5,222.5,397.4,222.5,397.5,222.5l-0.1,0l-0.1,0l1.1,2.2L397.5,222.5z M405.4,224.9C405.3,224.9,405.3,224.8,405.4,224.9
		L405.4,224.9l-0.1-0.2l-2,1.5L405.4,224.9z M405,232.4C405,232.4,405,232.3,405,232.4L405,232.4l0.1-0.2l-2-1.4L405,232.4z
		 M397.7,234.3C397.7,234.4,397.8,234.4,397.7,234.3l0.1,0l0.1,0l0.8-2.4L397.7,234.3z M393.6,228c0,0,0,0.1,0,0.1l0,0l0,0.1l2.5,0
		L393.6,228z M398.3,222.2c0,0-0.1,0-0.1,0l0,0l-0.1,0l0.8,2.4L398.3,222.2z M405.8,225.7C405.8,225.6,405.8,225.6,405.8,225.7
		L405.8,225.7l-0.1-0.2l-2.2,1.2L405.8,225.7z M404.4,233C404.4,233,404.4,233,404.4,233L404.4,233l0.2-0.1l-1.8-1.7L404.4,233z
		 M396.9,234C396.9,234,397,234,396.9,234L396.9,234l0.2,0.1l1.1-2.2L396.9,234z M393.7,227.2c0,0,0,0.1,0,0.1l0,0l0,0.1l2.5,0.3
		L393.7,227.2z M399.2,222c0,0-0.1,0-0.1,0l0,0l-0.1,0l0.5,2.4L399.2,222z"/>
	<g>
		<path class="st6" d="M400,212.7c-8.5,0-16.7,3-23.2,8.6l-11.7,20.3c-0.4,2.1-0.6,4.3-0.6,6.6h4c0-17.4,14.1-31.5,31.5-31.5
			c17.4,0,31.5,14.1,31.5,31.5h4c0-2.3-0.2-4.5-0.6-6.6l-11.7-20.3C416.7,215.7,408.5,212.7,400,212.7L400,212.7z"/>
		<path class="st7" d="M400,213.3c-9.4,0-18,3.7-24.2,9.8l-9.6,16.7c-0.7,2.7-1,5.6-1,8.4h3.4c0-17.4,14.1-31.5,31.5-31.5
			c17.4,0,31.5,14.1,31.5,31.5h3.4c0-2.8-0.3-5.7-1-8.4l-9.6-16.7C418,217.1,409.4,213.3,400,213.3L400,213.3z"/>
		<path class="st8" d="M400,214c-10.2,0-19.3,4.4-25.6,11.4l-7,12.1c-1.1,3.5-1.7,7.1-1.7,10.7h2.7c0-17.4,14.1-31.5,31.5-31.5
			s31.5,14.1,31.5,31.5h2.7c0-3.7-0.6-7.3-1.7-10.7l-7-12.1C419.3,218.4,410.2,214,400,214L400,214z"/>
		<path class="st9" d="M400,214.6c-11.6,0-21.9,5.9-27.9,14.9l-2.3,3.9c-2.3,4.6-3.4,9.7-3.4,14.8h2.1c0-17.4,14.1-31.5,31.5-31.5
			c17.4,0,31.5,14.1,31.5,31.5h2.1c0-5.1-1.2-10.2-3.4-14.7l-2.3-3.9C421.9,220.5,411.6,214.6,400,214.6z"/>
		<path class="st10" d="M400,215.2c-18.2,0-33,14.8-33,33h1.5c0-17.4,14.1-31.5,31.5-31.5c17.4,0,31.5,14.1,31.5,31.5h1.5
			C432.9,230,418.2,215.2,400,215.2z"/>
		<path class="st11" d="M400,215.9c-17.8,0-32.3,14.5-32.3,32.3h1.1c0-17.2,14-31.2,31.2-31.2s31.2,14,31.2,31.2h1.1
			C432.3,230.4,417.8,215.9,400,215.9L400,215.9z"/>
		<path class="st12" d="M400,216.5c-17.5,0-31.7,14.2-31.7,31.7c0,0.2,0,0.4,0,0.6h0.6c0-0.2,0-0.4,0-0.6c0-17.1,13.9-31,31-31
			c17.1,0,31,13.9,31,31c0,0.2,0,0.4,0,0.6h0.6c0-0.2,0-0.4,0-0.6C431.7,230.7,417.5,216.5,400,216.5L400,216.5z"/>
	</g>
	<g>
		<path class="st1" d="M362.5,246.1l-7,12.8l87.9-1.8l-5.9-10.9H362.5L362.5,246.1z"/>
		<linearGradient id="SVGID_1_" gradientUnits="userSpaceOnUse" x1="355.4954" y1="252.4942" x2="443.3413" y2="252.4942">
			<stop  offset="0" style="stop-color:#002255"/>
			<stop  offset="0.5" style="stop-color:#0044AA"/>
			<stop  offset="1" style="stop-color:#002255"/>
		</linearGradient>
		<path class="st13" d="M361.7,247.5l0.1-0.2h76.4l0.1,0.2H361.7z M430.6,252.8c-1.2,0-2.4,0-3.6,0c-2.8,0-5.2-0.6-7.8-0.7
			c-2.6,0.1-5,0.7-7.8,0.7c-1.2,0-2.4,0-3.6,0c-2.8,0-5.2-0.6-7.8-0.7c-2.6,0.1-5,0.7-7.8,0.7c-1.1,0-2.4,0-3.6,0
			c-2.8,0-5.2-0.6-7.8-0.7c-2.6,0.1-5,0.7-7.8,0.7c-1.2,0-2.4,0-3.6,0c-2.8,0-5.2-0.6-7.8-0.7c-0.8,0-1.5,0.1-2.2,0.2l-0.2,0.4
			c0.3,0,0.6,0,0.9,0l0,0c1.2,0,2.4,0,3.6,0c2.8,0,5.2,0.6,7.8,0.7c2.6-0.1,5-0.7,7.8-0.7c1.2,0,2.4,0,3.6,0c2.8,0,5.2,0.6,7.8,0.7
			c2.6-0.1,5-0.7,7.8-0.7c1.2,0,2.4,0,3.6,0c2.8,0,5.2,0.6,7.8,0.7c2.6-0.1,5-0.7,7.8-0.7c1.2,0,2.4,0,3.6,0c2.8,0,5.2,0.6,7.8,0.7
			c2.6-0.1,5-0.7,7.8-0.7c1.2,0,2.4,0,3.6,0c0.2,0,0.4,0,0.5,0l-0.2-0.3c-0.8-0.1-1.6-0.2-2.4-0.2
			C435.8,252.2,433.4,252.8,430.6,252.8z M430.6,251c-1.2,0-2.4,0-3.6,0c-2.8,0-5.2-0.6-7.8-0.7c-2.6,0.1-5,0.7-7.8,0.7
			c-1.2,0-2.4,0-3.6,0c-2.8,0-5.2-0.6-7.8-0.7c-2.6,0.1-5,0.7-7.8,0.7c-1.1,0-2.4,0-3.6,0c-2.8,0-5.2-0.6-7.8-0.7
			c-2.6,0.1-5,0.7-7.8,0.7c-1.2,0-2.4,0-3.6,0c-2.8,0-5.2-0.6-7.8-0.7c-0.4,0-0.8,0-1.2,0.1l-0.2,0.4c1.2,0,2.3,0,3.5,0
			c2.8,0,5.2,0.6,7.8,0.7c2.6-0.1,5-0.7,7.8-0.7c1.2,0,2.4,0,3.6,0c2.8,0,5.2,0.6,7.8,0.7c2.6-0.1,5-0.7,7.8-0.7c1.2,0,2.4,0,3.6,0
			c2.8,0,5.2,0.6,7.8,0.7c2.6-0.1,5-0.7,7.8-0.7c1.2,0,2.4,0,3.6,0c2.8,0,5.2,0.6,7.8,0.7c2.6-0.1,5-0.7,7.8-0.7c1.1,0,2.1,0,3.2,0
			l-0.2-0.4c-0.5,0-0.9-0.1-1.4-0.1C435.8,250.4,433.4,251,430.6,251z M430.6,254.6c-1.2,0-2.4,0-3.6,0c-2.8,0-5.2-0.6-7.8-0.7
			c-2.6,0.1-5,0.7-7.8,0.7c-1.2,0-2.4,0-3.6,0c-2.8,0-5.2-0.6-7.8-0.7c-2.6,0.1-5,0.7-7.8,0.7c-1.1,0-2.4,0-3.6,0
			c-2.8,0-5.2-0.6-7.8-0.7c-2.6,0.1-5,0.7-7.8,0.7c-1.2,0-2.4,0-3.6,0c-2.8,0-5.2-0.6-7.8-0.7c-1.1,0-2.2,0.2-3.3,0.3l-0.2,0.3
			c0.6,0,1.2-0.1,1.9-0.1l0,0c1.2,0,2.4,0,3.6,0c2.8,0,5.2,0.6,7.8,0.7c2.6-0.1,5-0.7,7.8-0.7c1.2,0,2.4,0,3.6,0
			c2.8,0,5.2,0.6,7.8,0.7c2.6-0.1,5-0.7,7.8-0.7c1.2,0,2.4,0,3.6,0c2.8,0,5.2,0.6,7.8,0.7c2.6-0.1,5-0.7,7.8-0.7c1.2,0,2.4,0,3.6,0
			c2.8,0,5.2,0.6,7.8,0.7c2.6-0.1,5-0.7,7.8-0.7c1.2,0,2.4,0,3.6,0c0.5,0,1,0,1.5,0.1l-0.1-0.3c-1.1-0.1-2.3-0.3-3.4-0.3
			C435.8,254,433.4,254.6,430.6,254.6z M430.6,251.9c-1.2,0-2.4,0-3.6,0c-2.8,0-5.2-0.6-7.8-0.7c-2.6,0.1-5,0.7-7.8,0.7
			c-1.2,0-2.4,0-3.6,0c-2.8,0-5.2-0.6-7.8-0.7c-2.6,0.1-5,0.7-7.8,0.7c-1.1,0-2.4,0-3.6,0c-2.8,0-5.2-0.6-7.8-0.7
			c-2.6,0.1-5,0.7-7.8,0.7c-1.2,0-2.4,0-3.6,0c-2.8,0-5.2-0.6-7.8-0.7c-0.6,0-1.1,0.1-1.7,0.1l-0.2,0.4c0.1,0,0.2,0,0.4,0l0,0
			c1.2,0,2.4,0,3.6,0c2.8,0,5.2,0.6,7.8,0.7c2.6-0.1,5-0.7,7.8-0.7c1.2,0,2.4,0,3.6,0c2.8,0,5.2,0.6,7.8,0.7c2.6-0.1,5-0.7,7.8-0.7
			c1.2,0,2.4,0,3.6,0c2.8,0,5.2,0.6,7.8,0.7c2.6-0.1,5-0.7,7.8-0.7c1.2,0,2.4,0,3.6,0c2.8,0,5.2,0.6,7.8,0.7c2.6-0.1,5-0.7,7.8-0.7
			c1.2,0,2.4,0,3.6,0c0,0,0,0,0,0l-0.2-0.4c-0.6-0.1-1.3-0.1-1.9-0.1C435.8,251.3,433.4,251.9,430.6,251.9z M430.6,257.3
			c-1.2,0-2.4,0-3.6,0c-2.8,0-5.2-0.6-7.8-0.7c-2.6,0.1-5,0.7-7.8,0.7c-1.2,0-2.4,0-3.6,0c-2.8,0-5.2-0.6-7.8-0.7
			c-2.6,0.1-5,0.7-7.8,0.7c-1.1,0-2.4,0-3.6,0c-2.8,0-5.2-0.6-7.8-0.7c-2.6,0.1-5,0.7-7.8,0.7c-1.2,0-2.4,0-3.6,0
			c-2.8,0-5.2-0.6-7.8-0.7c-1.7,0-3.2,0.3-4.8,0.5l-0.1,0.3c1.1-0.1,2.2-0.2,3.4-0.2l0,0c1.2,0,2.4,0,3.6,0c2.8,0,5.2,0.6,7.8,0.7
			c2.6-0.1,5-0.7,7.8-0.7c1.2,0,2.4,0,3.6,0c2.8,0,5.2,0.6,7.8,0.7c2.6-0.1,5-0.7,7.8-0.7c1.2,0,2.4,0,3.6,0c2.8,0,5.2,0.6,7.8,0.7
			c2.6-0.1,5-0.7,7.8-0.7c1.2,0,2.4,0,3.6,0c1.5,0,2.9,0.2,4.3,0.3l8.7-0.2c0.9-0.1,1.7-0.2,2.6-0.2c1.2,0,2.4,0,3.6,0
			c0.2,0,0.3,0,0.5,0l2.4,0c-1.7-0.2-3.2-0.4-4.9-0.5C435.8,256.7,433.4,257.3,430.6,257.3z M393.1,258.1l11-0.2
			c-1.4-0.2-2.7-0.4-4.2-0.4C397.6,257.5,395.4,258,393.1,258.1z M417.4,257.6l2.6-0.1c-0.3,0-0.6-0.1-0.9-0.1
			C418.6,257.5,418,257.5,417.4,257.6z M430.6,255.5c-1.2,0-2.4,0-3.6,0c-2.8,0-5.2-0.6-7.8-0.7c-2.6,0.1-5,0.7-7.8,0.7
			c-1.2,0-2.4,0-3.6,0c-2.8,0-5.2-0.6-7.8-0.7c-2.6,0.1-5,0.7-7.8,0.7c-1.1,0-2.4,0-3.6,0c-2.8,0-5.2-0.6-7.8-0.7
			c-2.6,0.1-5,0.7-7.8,0.7c-1.2,0-2.4,0-3.6,0c-2.8,0-5.2-0.6-7.8-0.7c-1.3,0-2.5,0.2-3.8,0.4l-0.2,0.3c0.8-0.1,1.6-0.1,2.4-0.1l0,0
			c1.2,0,2.4,0,3.6,0c2.8,0,5.2,0.6,7.8,0.7c2.6-0.1,5-0.7,7.8-0.7c1.2,0,2.4,0,3.6,0c2.8,0,5.2,0.6,7.8,0.7c2.6-0.1,5-0.7,7.8-0.7
			c1.2,0,2.4,0,3.6,0c2.8,0,5.2,0.6,7.8,0.7c2.6-0.1,5-0.7,7.8-0.7c1.2,0,2.4,0,3.6,0c2.8,0,5.2,0.6,7.8,0.7c2.6-0.1,5-0.7,7.8-0.7
			c1.2,0,2.4,0,3.6,0c0.7,0,1.4,0,2,0.1l-0.1-0.2c-1.3-0.2-2.6-0.3-4-0.4C435.8,254.9,433.4,255.5,430.6,255.5z M430.6,256.4
			c-1.2,0-2.4,0-3.6,0c-2.8,0-5.2-0.6-7.8-0.7c-2.6,0.1-5,0.7-7.8,0.7c-1.2,0-2.4,0-3.6,0c-2.8,0-5.2-0.6-7.8-0.7
			c-2.6,0.1-5,0.7-7.8,0.7c-1.1,0-2.4,0-3.6,0c-2.8,0-5.2-0.6-7.8-0.7c-2.6,0.1-5,0.7-7.8,0.7c-1.2,0-2.4,0-3.6,0
			c-2.8,0-5.2-0.6-7.8-0.7c-1.5,0-2.9,0.2-4.3,0.4l-0.2,0.3c0.9-0.1,1.9-0.2,2.9-0.2l0,0c1.2,0,2.4,0,3.6,0c2.8,0,5.2,0.6,7.8,0.7
			c2.6-0.1,5-0.7,7.8-0.7c1.2,0,2.4,0,3.6,0c2.8,0,5.2,0.6,7.8,0.7c2.6-0.1,5-0.7,7.8-0.7c1.2,0,2.4,0,3.6,0c2.8,0,5.2,0.6,7.8,0.7
			c2.6-0.1,5-0.7,7.8-0.7c1.2,0,2.4,0,3.6,0c2.8,0,5.2,0.6,7.8,0.7c2.6-0.1,5-0.7,7.8-0.7c1.2,0,2.4,0,3.6,0c0.9,0,1.7,0.1,2.5,0.2
			l-0.1-0.2c-1.5-0.2-2.9-0.4-4.5-0.4C435.8,255.8,433.4,256.4,430.6,256.4z M430.6,253.7c-1.2,0-2.4,0-3.6,0
			c-2.8,0-5.2-0.6-7.8-0.7c-2.6,0.1-5,0.7-7.8,0.7c-1.2,0-2.4,0-3.6,0c-2.8,0-5.2-0.6-7.8-0.7c-2.6,0.1-5,0.7-7.8,0.7
			c-1.1,0-2.4,0-3.6,0c-2.8,0-5.2-0.6-7.8-0.7c-2.6,0.1-5,0.7-7.8,0.7c-1.2,0-2.4,0-3.6,0c-2.8,0-5.2-0.6-7.8-0.7
			c-0.9,0-1.8,0.1-2.7,0.2l-0.2,0.3c0.5,0,0.9-0.1,1.4-0.1l0,0c1.2,0,2.4,0,3.6,0c2.8,0,5.2,0.6,7.8,0.7c2.6-0.1,5-0.7,7.8-0.7
			c1.2,0,2.4,0,3.6,0c2.8,0,5.2,0.6,7.8,0.7c2.6-0.1,5-0.7,7.8-0.7c1.2,0,2.4,0,3.6,0c2.8,0,5.2,0.6,7.8,0.7c2.6-0.1,5-0.7,7.8-0.7
			c1.2,0,2.4,0,3.6,0c2.8,0,5.2,0.6,7.8,0.7c2.6-0.1,5-0.7,7.8-0.7c1.2,0,2.4,0,3.6,0c0.4,0,0.7,0,1,0l-0.2-0.3
			c-1-0.1-1.9-0.2-2.9-0.2C435.8,253.1,433.4,253.7,430.6,253.7z M360.4,250l0.2-0.3h78.9l0.2,0.3c-0.9,0-1.8,0-2.7,0
			c-2.8,0-5.2,0.6-7.8,0.7c-2.6-0.1-5-0.7-7.8-0.7c-1.2,0-2.4,0-3.6,0c-2.8,0-5.2,0.6-7.8,0.7c-2.6-0.1-5-0.7-7.8-0.7
			c-1.2,0-2.4,0-3.6,0c-2.8,0-5.2,0.6-7.8,0.7c-2.6-0.1-5-0.7-7.8-0.7c-1.2,0-2.4,0-3.6,0c-2.8,0-5.2,0.6-7.8,0.7
			c-2.6-0.1-5-0.7-7.8-0.7C362.4,249.9,361.4,250,360.4,250z M431.1,249.8c0,0,0.3,0.5,3,0H431.1z M365.9,249.8c2.8,0.5,3,0,3,0
			H365.9z M362.2,246.6l0.2-0.4h0l0,0h75l0,0h0l0.2,0.4L362.2,246.6L362.2,246.6L362.2,246.6z M362.3,246.4h75.4l-0.1-0.2h-75.2h0
			L362.3,246.4z M388.4,258.1c-2.8,0-5.2-0.6-7.8-0.7c-2.6,0.1-5,0.7-7.8,0.7c-1.2,0-2.4,0-3.6,0c-2.8,0-5.2-0.6-7.8-0.7
			c-1.8,0-3.5,0.3-5.4,0.5l-0.5,0.9l35.6-0.7C390.3,258.1,389.3,258.1,388.4,258.1z M439.2,249.2l-0.1-0.3h-78.2l-0.1,0.3H439.2z
			 M362.1,246.8L362,247h76l-0.1-0.2H362.1z M438.6,248.1l-0.1-0.2h-77l-0.1,0.2H438.6z M438.9,248.6l-0.1-0.2h-77.6l-0.1,0.2H438.9
			z"/>
	</g>
	<g>
		<g id="t">
			
				<linearGradient id="SVGID_2_" gradientUnits="userSpaceOnUse" x1="624.9749" y1="131.541" x2="624.9749" y2="125.603" gradientTransform="matrix(0.8 0 0 -0.8 -77.2 354.6)">
				<stop  offset="0" style="stop-color:#F5F549"/>
				<stop  offset="1" style="stop-color:#97C924"/>
			</linearGradient>
			<path class="st14" d="M424.5,237.6c-1.4,0-1.8,0.7-1.8,0.7c-2.2,8.5-9.4,17.1-18.1,17.1h-6.5v8.6c0,0,0,0,0,0h49.2l-4.9-8.8
				c-7.8-1.2-14.1-9.1-16.1-16.9C426.3,238.3,425.9,237.6,424.5,237.6z"/>
			<path class="st15" d="M424.5,238c-0.6,0-1,0.1-1.2,0.3c-0.2,0.1-0.3,0.2-0.3,0.2c0,0,0,0,0,0c-1.1,4.3-3.5,8.5-6.7,11.8
				c-3.2,3.3-7.3,5.5-11.7,5.5h-6.1v7.9h48.7l-4.5-8c-3.7-0.5-7.2-2.5-10-5.4c-3.2-3.2-5.5-7.5-6.7-11.8l0,0c0,0-0.1-0.1-0.3-0.2
				C425.5,238.1,425.1,238,424.5,238L424.5,238z"/>
			<path class="st16" d="M424.5,238c0.1,0,0.2,0,0.3,0c0,2.4,0,6.5,0,8.6c0,1.9-0.7,3.4-1.6,5.2c-0.4,1.2-0.8,0.8-1.9,2.3
				c-1.5,0.5-2.5,0.7-4.1,1c-2,0.3-6.5,0.6-8.7,0.1c2.9-0.9,5.6-2.6,7.8-4.9c0.6-0.6,1.2-1.3,1.7-1.9c0.9-1.1,1.7-2.3,2.4-3.6
				c0.3-0.5,0.5-1,0.8-1.5c0.4-0.8,0.7-1.6,1-2.4c0.1-0.3,0.2-0.5,0.3-0.8c0.2-0.5,0.3-1.1,0.5-1.6c0,0,0,0,0,0c0,0,0-0.1,0.3-0.2
				c0.1-0.1,0.3-0.1,0.5-0.2h0C423.9,238,424.2,238,424.5,238L424.5,238z"/>
			<path class="st17" d="M423.9,239.1c-0.3,4.8-1.8,10.6-5.3,14.2c-1.3,1.1-2.9,2-4.5,1.8C419.5,250.8,422.8,244,423.9,239.1z"/>
			<path class="st18" d="M419.6,247.4c-0.8,2.2-3.8,5.4-7.1,8c-0.9,0-1.4,0.1-2.2,0C412.3,255.3,416.9,251.4,419.6,247.4
				L419.6,247.4z"/>
		</g>
		<g>
			<g id="t_1_">
				
					<linearGradient id="SVGID_3_" gradientUnits="userSpaceOnUse" x1="624.9749" y1="131.541" x2="624.9749" y2="125.603" gradientTransform="matrix(0.8 0 0 -0.8 -89.4728 354.6)">
					<stop  offset="0" style="stop-color:#F5F549"/>
					<stop  offset="1" style="stop-color:#97C924"/>
				</linearGradient>
				<path class="st19" d="M412.2,237.6c-1.4,0-1.8,0.7-1.8,0.7c-2.2,8.5-9.4,17.1-18.1,17.1h-6.5v8.6c0,0,0,0,0,0h49.2l-4.9-8.8
					c-7.8-1.2-14.1-9.1-16.1-16.9C414,238.3,413.6,237.6,412.2,237.6z"/>
				<path class="st15" d="M412.2,238c-0.6,0-1,0.1-1.2,0.3c-0.2,0.1-0.3,0.2-0.3,0.2c0,0,0,0,0,0c-1.1,4.3-3.5,8.5-6.7,11.8
					c-3.2,3.3-7.3,5.5-11.7,5.5h-6.1v7.9h48.7l-4.5-8c-3.7-0.5-7.2-2.5-10-5.4c-3.2-3.2-5.5-7.5-6.7-11.8l0,0c0,0-0.1-0.1-0.3-0.2
					C413.2,238.1,412.9,238,412.2,238L412.2,238z"/>
				<path class="st16" d="M412.2,238c0.1,0,0.2,0,0.3,0c0,2.4,0,6.5,0,8.6c0,1.9-0.7,3.4-1.6,5.2c-0.4,1.2-0.8,0.8-1.9,2.3
					c-1.5,0.5-2.5,0.7-4.1,1c-2,0.3-6.5,0.6-8.7,0.1c2.9-0.9,5.6-2.6,7.8-4.9c0.6-0.6,1.2-1.3,1.7-1.9c0.9-1.1,1.7-2.3,2.4-3.6
					c0.3-0.5,0.5-1,0.8-1.5c0.4-0.8,0.7-1.6,1-2.4c0.1-0.3,0.2-0.5,0.3-0.8c0.2-0.5,0.3-1.1,0.5-1.6c0,0,0,0,0,0c0,0,0-0.1,0.3-0.2
					c0.1-0.1,0.3-0.1,0.5-0.2h0C411.7,238,411.9,238,412.2,238L412.2,238z"/>
				<path class="st17" d="M411.7,239.1c-0.3,4.8-1.8,10.6-5.3,14.2c-1.3,1.1-2.9,2-4.5,1.8C407.3,250.8,410.6,244,411.7,239.1z"/>
				<path class="st18" d="M407.3,247.4c-0.8,2.2-3.8,5.4-7.1,8c-0.9,0-1.4,0.1-2.2,0C400,255.3,404.6,251.4,407.3,247.4L407.3,247.4
					z"/>
			</g>
		</g>
		<g>
			
				<linearGradient id="SVGID_4_" gradientUnits="userSpaceOnUse" x1="596.4759" y1="131.541" x2="596.4759" y2="125.603" gradientTransform="matrix(0.8 0 0 -0.8 -77.2 354.6)">
				<stop  offset="0" style="stop-color:#F5F549"/>
				<stop  offset="1" style="stop-color:#97C924"/>
			</linearGradient>
			<path class="st20" d="M401.8,238.3c2.2,8.5,9.4,17.1,18.1,17.1h6.5v8.6c0,0,0,0,0,0h-52.6c0,0,0,0,0,0v-8.6h6.5
				c8.6,0,15.9-8.6,18.1-17.1c0,0,0.4-0.7,1.8-0.7C401.3,237.6,401.8,238.3,401.8,238.3L401.8,238.3z"/>
			<path class="st15" d="M400,238c0.6,0,1,0.2,1.2,0.3c0.2,0.1,0.3,0.2,0.3,0.2l0,0c1.1,4.3,3.5,8.5,6.7,11.8
				c3.2,3.3,7.3,5.5,11.7,5.5h6.1v7.9h-52v-7.9h6.1c4.4,0,8.5-2.2,11.7-5.5c3.2-3.2,5.5-7.5,6.7-11.8c0,0,0,0,0,0c0,0,0-0.1,0.3-0.2
				C399,238.1,399.4,238,400,238L400,238z"/>
			<path class="st16" d="M399.4,238c-0.1,0-0.1,0-0.2,0h0c-0.2,0.1-0.3,0.1-0.5,0.2c-0.2,0.1-0.3,0.2-0.3,0.2c0,0,0,0,0,0
				c-0.2,0.8-0.5,1.6-0.8,2.4c-0.3,0.8-0.6,1.6-1,2.4c-0.3,0.5-0.5,1-0.8,1.5c-0.7,1.3-1.5,2.5-2.4,3.6c-0.5,0.7-1.1,1.3-1.7,1.9
				c-2.2,2.3-4.9,4-7.8,4.9c2.2,0.5,3.2,0,5.2-0.4c1.6-0.2,3.4-0.5,4.8-1c1.1-1.5,0.7-1,1.2-2.3c0.9-1.8,2.3-3.4,2.7-5.3
				C399.2,243.8,399.4,239.3,399.4,238L399.4,238z"/>
			<path class="st17" d="M399.4,239.1c-0.3,4.8-1.8,10.6-5.3,14.2c-1.3,1.1-2.9,2-4.5,1.8C395,250.8,398.3,244,399.4,239.1
				L399.4,239.1z"/>
			<path class="st18" d="M395.1,247.4c-0.8,2.2-3.8,5.4-7.1,8c-0.9,0-1.4,0.1-2.2,0C387.7,255.3,392.3,251.4,395.1,247.4
				L395.1,247.4z"/>
			<path class="st16" d="M400.8,238.1L400.8,238.1c0.2,0.1,0.4,0.1,0.5,0.2c0.2,0.1,0.3,0.2,0.3,0.2c0,0,0,0,0,0
				c0.1,0.5,0.3,1.1,0.5,1.6c0.1,0.3,0.2,0.5,0.3,0.8c0.3,0.8,0.6,1.6,1,2.4c0.2,0.5,0.5,1,0.8,1.5c0.7,1.3,1.5,2.5,2.4,3.6
				c0.5,0.7,1.1,1.3,1.7,1.9c2.2,2.3,4.9,4.4,7.8,5.2c-5.8,0-8.3-0.5-10.4-3.2c-2.1-2.7-2.9-3.9-3.3-5.5
				C401.8,245.1,400.6,241.5,400.8,238.1L400.8,238.1z"/>
			<path class="st17" d="M401.2,239.1c0.3,4.8,1.8,9.6,5.3,13.3c1.3,1.1,2.9,2,4.5,1.8C405.1,250.2,402.3,244,401.2,239.1
				L401.2,239.1z"/>
		</g>
		<g id="w">
			
				<linearGradient id="SVGID_5_" gradientUnits="userSpaceOnUse" x1="577.2209" y1="131.541" x2="577.2209" y2="125.603" gradientTransform="matrix(0.8 0 0 -0.8 -77.2 354.6)">
				<stop  offset="0" style="stop-color:#F5F549"/>
				<stop  offset="1" style="stop-color:#97C924"/>
			</linearGradient>
			<path class="st21" d="M387.8,237.6c-1.4,0-1.8,0.7-1.8,0.7c-2,7.8-9.5,17.9-17.2,19L365,264h39.2v-9.1
				c-7.1-1.9-12.7-9.3-14.6-16.6C389.6,238.3,389.2,237.6,387.8,237.6L387.8,237.6z"/>
			<path class="st15" d="M387.8,238c-0.6,0-1,0.2-1.2,0.3c-0.2,0.1-0.3,0.2-0.3,0.2l0,0c-1.1,4.3-3.7,8.6-6.5,12
				c-2.7,3.4-7.8,6.9-11.2,7.3l-3.4,5.9h38.4v-8.6c-2.8-0.9-5.4-2.6-7.6-4.8c-3.2-3.2-5.5-7.5-6.7-11.8c0,0,0,0,0,0
				c0,0,0-0.1-0.3-0.2C388.8,238.1,388.4,238,387.8,238L387.8,238z"/>
			<path class="st22" d="M386.8,239.1c-0.5,7.2-4.5,16.4-9.1,17.9c-1.5,0.5-4.1,0.7-5,0.8C380.7,254.1,385.4,245.2,386.8,239.1
				L386.8,239.1z"/>
			<path class="st16" d="M387.8,238c-0.1,0-0.2,0-0.3,0c0,2.4,0,6.5,0,8.6c0,1.9,0.7,3.4,1.6,5.2c0.1,0.2,0.1,0.3,0.2,0.4
				c0.3,0.9,0.6,1.2,1.8,2.1c4,3,8.9,3.5,11.8,3.2c-0.9-0.7-1.9-1.4-2.7-2c1.4,0,2.7-0.2,3.6-0.4c-2.9-0.9-5.6-2.6-7.8-4.9
				c-0.4-0.4-0.8-0.8-1.1-1.2c-0.2-0.2-0.4-0.6-0.5-0.6c-0.9-1.1-1.8-2.4-2.5-3.6c-0.3-0.5-0.5-1-0.8-1.5c-0.5-1-0.9-2.1-1.3-3.2
				c-0.2-0.5-0.3-1.1-0.5-1.6c0,0,0,0,0,0c0,0,0-0.1-0.3-0.2c-0.1-0.1-0.3-0.1-0.5-0.2h0C388.3,238,388.1,238,387.8,238L387.8,238z"
				/>
			<path class="st23" d="M388.4,239.1c0.3,4.8,1.8,10.6,5.3,14.2c1.3,1.1,2.9,2,4.5,1.8C392.8,250.8,389.5,244,388.4,239.1z"/>
			<path class="st18" d="M391.7,245.8c1.9,4.7,6.7,9,11.6,12c0.9,0,1.2,0,2,0C401.8,255.8,396.1,253.1,391.7,245.8L391.7,245.8z"/>
		</g>
		<g>
			<g id="w_1_">
				
					<linearGradient id="SVGID_6_" gradientUnits="userSpaceOnUse" x1="577.2209" y1="131.541" x2="577.2209" y2="125.603" gradientTransform="matrix(0.8 0 0 -0.8 -89.544 354.6)">
					<stop  offset="0" style="stop-color:#F5F549"/>
					<stop  offset="1" style="stop-color:#97C924"/>
				</linearGradient>
				<path class="st24" d="M375.5,237.6c-1.4,0-1.8,0.7-1.8,0.7c-2,7.8-9.5,17.9-17.2,19l-3.8,6.6h39.2v-9.1
					c-7.1-1.9-12.7-9.3-14.6-16.6C377.2,238.3,376.8,237.6,375.5,237.6L375.5,237.6z"/>
				<path class="st15" d="M375.5,238c-0.6,0-1,0.2-1.2,0.3c-0.2,0.1-0.3,0.2-0.3,0.2l0,0c-1.1,4.3-3.7,8.6-6.5,12
					c-2.7,3.4-7.8,6.9-11.2,7.3l-3.4,5.9h38.4v-8.6c-2.8-0.9-5.4-2.6-7.6-4.8c-3.2-3.2-5.5-7.5-6.7-11.8c0,0,0,0,0,0
					c0,0,0-0.1-0.3-0.2C376.5,238.1,376.1,238,375.5,238L375.5,238z"/>
				<path class="st22" d="M374.4,239.1c-0.5,7.2-4.5,16.4-9.1,17.9c-1.5,0.5-4.1,0.7-5,0.8C368.3,254.1,373,245.2,374.4,239.1
					L374.4,239.1z"/>
				<path class="st16" d="M375.5,238c-0.1,0-0.2,0-0.3,0c0,2.4,0,6.5,0,8.6c0,1.9,0.7,3.4,1.6,5.2c0.1,0.2,0.1,0.3,0.2,0.4
					c0.3,0.9,0.6,1.2,1.8,2.1c4,3,8.9,3.5,11.8,3.2c-0.9-0.7-1.9-1.4-2.7-2c1.4,0,2.7-0.2,3.6-0.4c-2.9-0.9-5.6-2.6-7.8-4.9
					c-0.4-0.4-0.8-0.8-1.1-1.2c-0.2-0.2-0.4-0.6-0.5-0.6c-0.9-1.1-1.8-2.4-2.5-3.6c-0.3-0.5-0.5-1-0.8-1.5c-0.5-1-0.9-2.1-1.3-3.2
					c-0.2-0.5-0.3-1.1-0.5-1.6c0,0,0,0,0,0c0,0,0-0.1-0.3-0.2c-0.1-0.1-0.3-0.1-0.5-0.2h0C376,238,375.7,238,375.5,238L375.5,238z"
					/>
				<path class="st17" d="M376,239.1c0.3,4.8,1.8,10.6,5.3,14.2c1.3,1.1,2.9,2,4.5,1.8C380.4,250.8,377.1,244,376,239.1z"/>
				<path class="st18" d="M379.3,245.8c1.9,4.7,6.7,9,11.6,12c0.9,0,1.2,0,2,0C389.5,255.8,383.8,253.1,379.3,245.8L379.3,245.8z"/>
			</g>
		</g>
	</g>
	<g>
		<path class="st1" d="M445.2,259.8c-0.9,0.3-2.3,0-3.2,0c-1.3,0-2.6,0.2-3.9,0.3c-4.1,0.2-8.3,1.1-12.3,0.6
			c-4.4-0.5-8.4-0.7-12.8-0.1c-4.4,0.6-8.6-0.2-13-0.2c-4.2,0-8.1,1.3-12.3,0.8c-3.3-0.4-7.1,0.2-10.4,0.6c-2,0.2-4.1,0.7-6.1,0.7
			c-2.4,0-4.9-0.6-7.3-0.7c-2.9-0.2-5.7,0.1-8.6,0.4c-1.7,0.2-1.6-0.4-2.5,0.6c-0.7,0.8-0.4,0.7-0.9,1.6c-1,1.7-2,3.4-2.9,5.1
			c14.9,0,29.7,0,44.6,0c12.2,0,24.4,0,36.5,0c6.9,0,13.8,0,20.7,0C449,266.2,447.1,263,445.2,259.8z"/>
		<linearGradient id="SVGID_7_" gradientUnits="userSpaceOnUse" x1="349.0634" y1="264.6852" x2="450.941" y2="264.6852">
			<stop  offset="0" style="stop-color:#002255"/>
			<stop  offset="0.5" style="stop-color:#0044AA"/>
			<stop  offset="1" style="stop-color:#002255"/>
		</linearGradient>
		<path class="st25" d="M448.9,265.9l0.3,0.5c-0.5,0.1-1,0.1-1.4,0.1c-2.6-0.1-5-0.8-7.7-0.8c-1.2,0-2.4,0-3.6,0
			c-2.8,0-5.1,0.7-7.7,0.8c-2.6-0.1-5-0.8-7.7-0.8c-1.2,0-2.4,0-3.6,0c-2.8,0-5.1,0.7-7.7,0.8c-2.6-0.1-5-0.8-7.7-0.8
			c-1.2,0-2.4,0-3.6,0c-2.8,0-5.1,0.7-7.7,0.8c-2.6-0.1-5-0.8-7.7-0.8c-1.2,0-2.4,0-3.6,0c-2.8,0-5.1,0.7-7.7,0.8
			c-2.6-0.1-5-0.8-7.7-0.8c-1.2,0-2.4,0-3.6,0l0,0c-2.8,0-5.1,0.7-7.7,0.8c-0.6,0-1.2-0.1-1.7-0.1l0.3-0.4c1,0,2,0,3,0
			c2.8,0,5.1-0.7,7.7-0.8c2.6,0.1,5,0.8,7.7,0.8c1.2,0,2.4,0,3.6,0c2.8,0,5.1-0.7,7.7-0.8c2.6,0.1,5,0.8,7.7,0.8c1.2,0,2.4,0,3.6,0
			c2.8,0,5.1-0.7,7.7-0.8c2.6,0.1,5,0.8,7.7,0.8c1.2,0,2.4,0,3.6,0c2.8,0,5.1-0.7,7.7-0.8c2.6,0.1,5,0.8,7.7,0.8c1.2,0,2.4,0,3.6,0
			c2.8,0,5.1-0.7,7.7-0.8c2.6,0.1,5,0.8,7.7,0.8C446.8,265.9,447.8,265.9,448.9,265.9z M445.7,263.9c-2.8,0-5.1-0.7-7.7-0.8
			c-2.6,0.1-5,0.8-7.7,0.8c-1.2,0-2.4,0-3.6,0c-2.8,0-5.1-0.7-7.7-0.8c-2.6,0.1-5,0.8-7.7,0.8c-1.2,0-2.4,0-3.6,0
			c-2.8,0-5.1-0.7-7.7-0.8c-2.6,0.1-5,0.8-7.7,0.8c-1.2,0-2.4,0-3.6,0c-2.8,0-5.1-0.7-7.7-0.8c-2.6,0.1-5,0.8-7.7,0.8
			c-1.2,0-2.4,0-3.6,0c-2.8,0-5.1-0.7-7.7-0.8c-2.6,0.1-4.9,0.8-7.7,0.8c-0.6,0-1.2,0-1.8,0l-0.3,0.5c0.2,0,0.4,0,0.6,0
			c2.6-0.1,5-0.8,7.7-0.8l0,0c1.2,0,2.4,0,3.6,0c2.8,0,5.1,0.7,7.7,0.8c2.6-0.1,5-0.8,7.7-0.8c1.2,0,2.4,0,3.6,0
			c2.8,0,5.1,0.7,7.7,0.8c2.6-0.1,5-0.8,7.7-0.8c1.2,0,2.4,0,3.6,0c2.8,0,5.1,0.7,7.7,0.8c2.6-0.1,5-0.8,7.7-0.8c1.2,0,2.4,0,3.6,0
			c2.8,0,5.1,0.7,7.7,0.8c2.6-0.1,5-0.8,7.7-0.8c1.2,0,2.4,0,3.6,0c2.8,0,5.1,0.7,7.7,0.8c0.1,0,0.2,0,0.3,0l-0.3-0.6
			C447,263.9,446.3,263.9,445.7,263.9z M353.3,262c0.2,0,0.3-0.1,0.5-0.1l0.1-0.1c-0.2,0-0.3,0-0.5,0l-0.3,0.5c0,0,0,0,0,0
			L353.3,262z M445.7,264.9c-2.8,0-5.1-0.7-7.7-0.8c-2.6,0.1-5,0.8-7.7,0.8c-1.2,0-2.4,0-3.6,0c-2.8,0-5.1-0.7-7.7-0.8
			c-2.6,0.1-5,0.8-7.7,0.8c-1.2,0-2.4,0-3.6,0c-2.8,0-5.1-0.7-7.7-0.8c-2.6,0.1-5,0.8-7.7,0.8c-1.2,0-2.4,0-3.6,0
			c-2.8,0-5.1-0.7-7.7-0.8c-2.6,0.1-5,0.8-7.7,0.8c-1.2,0-2.4,0-3.6,0c-2.8,0-5.1-0.7-7.7-0.8c-2.6,0.1-4.9,0.8-7.7,0.8
			c-0.8,0-1.6,0-2.4,0l-0.3,0.5c0.4,0,0.8,0.1,1.2,0.1c2.6-0.1,5-0.8,7.7-0.8l0,0c1.2,0,2.4,0,3.6,0c2.8,0,5.1,0.7,7.7,0.8
			c2.6-0.1,5-0.8,7.7-0.8c1.2,0,2.4,0,3.6,0c2.8,0,5.1,0.7,7.7,0.8c2.6-0.1,5-0.8,7.7-0.8c1.2,0,2.4,0,3.6,0c2.8,0,5.1,0.7,7.7,0.8
			c2.6-0.1,5-0.8,7.7-0.8c1.2,0,2.4,0,3.6,0c2.8,0,5.1,0.7,7.7,0.8c2.6-0.1,5-0.8,7.7-0.8c1.2,0,2.4,0,3.6,0c2.8,0,5.1,0.7,7.7,0.8
			c0.3,0,0.6,0,0.8-0.1l-0.3-0.5C447.4,264.9,446.6,264.9,445.7,264.9z M445.7,267c-2.8,0-5.1-0.7-7.7-0.8c-2.6,0.1-5,0.8-7.7,0.8
			c-1.2,0-2.4,0-3.6,0c-2.8,0-5.1-0.7-7.7-0.8c-2.6,0.1-5,0.8-7.7,0.8c-1.2,0-2.4,0-3.6,0c-2.8,0-5.1-0.7-7.7-0.8
			c-2.6,0.1-5,0.8-7.7,0.8c-1.2,0-2.4,0-3.6,0c-2.8,0-5.1-0.7-7.7-0.8c-2.6,0.1-5,0.8-7.7,0.8c-1.2,0-2.4,0-3.6,0
			c-2.8,0-5.1-0.7-7.7-0.8c-2.6,0.1-4.9,0.8-7.7,0.8c-1.2,0-2.4,0-3.6,0c0,0,0,0,0,0l-0.2,0.4c0.8,0.1,1.5,0.2,2.3,0.2
			c2.6-0.1,5-0.8,7.7-0.8l0,0c1.2,0,2.4,0,3.6,0c2.8,0,5.1,0.7,7.7,0.8c2.6-0.1,5-0.8,7.7-0.8c1.2,0,2.4,0,3.6,0
			c2.8,0,5.1,0.7,7.7,0.8c2.6-0.1,5-0.8,7.7-0.8c1.2,0,2.4,0,3.6,0c2.8,0,5.1,0.7,7.7,0.8c2.6-0.1,5-0.8,7.7-0.8c1.2,0,2.4,0,3.6,0
			c2.8,0,5.1,0.7,7.7,0.8c2.6-0.1,5-0.8,7.7-0.8c1.2,0,2.4,0,3.6,0c2.8,0,5.1,0.7,7.7,0.8c0.7,0,1.3-0.1,2-0.2l-0.2-0.4
			c-0.1,0-0.2,0-0.2,0C448.1,266.9,446.9,267,445.7,267z M388.6,261.8c-0.9,0-1.8-0.1-2.7-0.2c-1.2-0.1-2.4-0.1-3.8-0.1
			c-1.2,0-2.1,0.1-2.9,0.2c0,0,0.1,0,0.1,0c1.2,0,2.4,0,3.6,0c2.8,0,5.1,0.7,7.7,0.8c2.6-0.1,5-0.8,7.7-0.8c1.2,0,2.4,0,3.6,0
			c2.8,0,5.1,0.7,7.7,0.8c2.6-0.1,5-0.8,7.7-0.8c1.2,0,2.4,0,3.6,0c2.8,0,5.1,0.7,7.7,0.8c2.6-0.1,5-0.8,7.7-0.8c1.2,0,2.4,0,3.6,0
			c2.4,0,4.5,0.5,6.7,0.7l-0.3-0.5c-0.2,0-0.5,0-0.7,0c-2.8,0-5.1-0.7-7.7-0.8c-2.6,0.1-5,0.8-7.7,0.8c-1.2,0-2.4,0-3.6,0
			c-2.8,0-5.1-0.7-7.7-0.8c-2.6,0.1-5,0.8-7.7,0.8c-1.2,0-2.4,0-3.6,0c-2.8,0-5.1-0.7-7.7-0.8c-2.6,0.1-5,0.8-7.7,0.8
			C391,261.8,389.8,261.8,388.6,261.8z M354.2,261.2l0.3-0.5c-0.1,0-0.3,0-0.4,0c0,0,0,0-0.1,0l-0.3,0.5
			C353.9,261.2,354.1,261.2,354.2,261.2z M352.5,263.4c2.6-0.1,5-0.8,7.7-0.8l0,0c1.2,0,2.4,0,3.6,0c2.8,0,5.1,0.7,7.7,0.8
			c2.6-0.1,5-0.8,7.7-0.8c1.2,0,2.4,0,3.6,0c2.8,0,5.1,0.7,7.7,0.8c2.6-0.1,5-0.8,7.7-0.8c1.2,0,2.4,0,3.6,0c2.8,0,5.1,0.7,7.7,0.8
			c2.6-0.1,5-0.8,7.7-0.8c1.2,0,2.4,0,3.6,0c2.8,0,5.1,0.7,7.7,0.8c2.6-0.1,5-0.8,7.7-0.8c1.2,0,2.4,0,3.6,0c2.6,0,4.9,0.6,7.4,0.7
			l-0.3-0.6c-0.4,0-0.9,0-1.3,0c-2.8,0-5.1-0.7-7.7-0.8c-2.6,0.1-5,0.8-7.7,0.8c-1.2,0-2.4,0-3.6,0c-2.8,0-5.1-0.7-7.7-0.8
			c-2.6,0.1-5,0.8-7.7,0.8c-1.2,0-2.4,0-3.6,0c-2.8,0-5.1-0.7-7.7-0.8c-2.6,0.1-5,0.8-7.7,0.8c-1.2,0-2.4,0-3.6,0
			c-2.8,0-5.1-0.7-7.7-0.8c-2.6,0.1-5,0.8-7.7,0.8c-1.2,0-2.4,0-3.6,0c-2.2,0-4.2-0.4-6.2-0.6c-0.9,0-1.6,0-2,0
			c-0.6,0-1.7,0.1-2.9,0.3c-0.8,0.1-1.6,0.2-2.4,0.3c-1.1,0.1-2,0.3-2.8,0.4c0,0-0.1,0-0.1,0l0,0c-0.2,0-0.3,0-0.5,0.1l0.2-0.3
			c0,0,0,0,0,0L352.5,263.4C352.5,263.4,352.5,263.4,352.5,263.4z M450.4,268.4l0.3,0.5c-0.5,0-0.9,0.1-1.4,0.1c-1.2,0-2.4,0-3.6,0
			c-2.8,0-5.1-0.7-7.7-0.8c-2.6,0.1-5,0.8-7.7,0.8c-1.2,0-2.4,0-3.6,0c-2.8,0-5.1-0.7-7.7-0.8c-2.6,0.1-5,0.8-7.7,0.8
			c-1.2,0-2.4,0-3.6,0c-2.8,0-5.1-0.7-7.7-0.8c-2.6,0.1-5,0.8-7.7,0.8c-1.2,0-2.4,0-3.6,0c-2.8,0-5.1-0.7-7.7-0.8
			c-2.6,0.1-5,0.8-7.7,0.8c-1.2,0-2.4,0-3.6,0c-2.8,0-5.1-0.7-7.7-0.8c-2.6,0.1-4.9,0.8-7.7,0.8c-1.2,0-2.4,0-3.6,0
			c-0.4,0-0.8,0-1.2-0.1l0.4-0.7c0.9,0.1,1.9,0.2,2.8,0.3c2.6-0.1,5-0.8,7.7-0.8l0,0c1.2,0,2.4,0,3.6,0c2.8,0,5.1,0.7,7.7,0.8
			c2.6-0.1,5-0.8,7.7-0.8c1.2,0,2.4,0,3.6,0c2.8,0,5.1,0.7,7.7,0.8c2.6-0.1,5-0.8,7.7-0.8c1.2,0,2.4,0,3.6,0c2.8,0,5.1,0.7,7.7,0.8
			c2.6-0.1,5-0.8,7.7-0.8c1.2,0,2.4,0,3.6,0c2.8,0,5.1,0.7,7.7,0.8c2.6-0.1,5-0.8,7.7-0.8c1.2,0,2.4,0,3.6,0c2.8,0,5.1,0.7,7.7,0.8
			C448.6,268.5,449.5,268.4,450.4,268.4l-0.3-0.5c-0.3,0-0.5,0-0.8,0c-1.2,0-2.4,0-3.6,0c-2.8,0-5.1-0.7-7.7-0.8
			c-2.6,0.1-5,0.8-7.7,0.8c-1.2,0-2.4,0-3.6,0c-2.8,0-5.1-0.7-7.7-0.8c-2.6,0.1-5,0.8-7.7,0.8c-1.2,0-2.4,0-3.6,0
			c-2.8,0-5.1-0.7-7.7-0.8c-2.6,0.1-5,0.8-7.7,0.8c-1.2,0-2.4,0-3.6,0c-2.8,0-5.1-0.7-7.7-0.8c-2.6,0.1-5,0.8-7.7,0.8
			c-1.2,0-2.4,0-3.6,0c-2.8,0-5.1-0.7-7.7-0.8c-2.6,0.1-4.9,0.8-7.7,0.8c-1.2,0-2.4,0-3.6,0c-0.2,0-0.4,0-0.6,0l-0.8,1.4l50.4,0
			l51.5,0L450.4,268.4z M438,260c-2.6,0.1-5,0.8-7.7,0.8c-1.2,0-2.4,0-3.6,0c-1.9,0-3.6-0.3-5.3-0.5c-0.5,0-1,0-1.6,0
			c-1.2,0.1-2.4,0.1-3.6,0.1c-0.2,0-0.5,0-0.7,0c-1,0.1-2,0.3-3.1,0.4c-1.1,0.1-2.1,0.3-3.4,0.2c-2.4-0.1-5.8-0.5-8.3-0.3
			c0.4,0,0.8,0,1.1,0c2.8,0,5.1,0.7,7.7,0.8c2.6-0.1,5-0.8,7.7-0.8c1.2,0,2.4,0,3.6,0c2.8,0,5.1,0.7,7.7,0.8c2.6-0.1,5-0.8,7.7-0.8
			c1.2,0,2.4,0,3.6,0c2.2,0,4.1,0.4,6.1,0.6l-0.3-0.5c0,0-0.1,0-0.1,0C442.9,260.8,440.6,260.1,438,260z"/>
	</g>
	<g>
		<path class="st26" d="M400.3,230.5c-0.5-0.1-1-0.4-1.4-0.5c-0.6,0.6-0.7,1.2-0.6,1.7c0.2,0.1,0.2,0.3,0.7,0.7
			c0.5,0.4,0.4,0.6,0.4,1.6c0,0.4,0.1,1.3,0.5,1.3c0.4,0.1,0.7-0.3,0.9-0.9c0.1-0.6,0.3-1,0.6-1.4
			C401.5,231.5,401.1,231,400.3,230.5L400.3,230.5z"/>
		<path class="st6" d="M397.7,226.8c-0.5,0-1.2,0.8-1.6,0.4c-0.2-0.2-0.2-0.7,0-1.1c0.4-0.9,0.9-1.4,1.7-1.9
			c1.9-1.1,3.1-0.8,4.1,0.8c0.9,1.4,1.7,3,1.8,4.3c0,0.4,0.2,1.1-0.1,1.5c-1.1,1.1-3.7-1.1-5.2-0.8c-0.5,0.1-1.1,0.5-1.6,0.2
			c-0.4-0.2-0.1-0.8,0.2-1c0.5-0.4,1.2-1.9,1.1-2.5C398.1,226.3,398.1,226.8,397.7,226.8L397.7,226.8z"/>
		
			<linearGradient id="SVGID_8_" gradientUnits="userSpaceOnUse" x1="595.9594" y1="153.9531" x2="597.8474" y2="159.5881" gradientTransform="matrix(0.8 0 0 -0.8 -77.2 354.6)">
			<stop  offset="0" style="stop-color:#510000"/>
			<stop  offset="0.3" style="stop-color:#8A0000"/>
			<stop  offset="1" style="stop-color:#AA0000"/>
		</linearGradient>
		<path class="st27" d="M397.5,226c-0.9,0.4-0.8,0.9-1.2,1.3c0.1,0,0.6,0.2,1.1-0.2c0.2-0.2,0.4-0.2,0.5-0.3
			c-0.2,0.2-0.4,0.4-0.5,0.5c-0.3,0.3-0.8,0.9-1.1,1.5c-0.2,0.6-0.3,1.3-0.3,1.4c0,0.1,0.3,0.6,1.3,1c1.6,0.6,1.9,2,3.6,2
			c1.3,0,1.1-0.8,2.1-0.7c0.9,0.2,1.4-0.6,0.5-1c-1.1-0.4-3.3-0.2-4.3,0c-0.3-3.3,0-2.1-0.1-3.5c-0.1-1.4-0.5-1.5,0.1-2.6
			C398.7,226.1,398.1,226,397.5,226L397.5,226z"/>
		<path class="st28" d="M400.7,223.8c0,0.2-0.1,0.4,0,0.5c0.1,0.3,0.1,0.6,0.2,0.8c0.1,0.3,0.1,0.5,0.2,0.7c0.1,0.3,0.3,0.4,0.6,0.6
			c0.3,0.2,0.1,0.8,0.3,0.9c0.1,0,0.4-0.9,0.4-1c0-0.2,0-0.3,0-0.5c-0.1-0.2-0.2-0.5-0.3-0.7c0,0,0,0,0,0c0-0.1-0.1-0.2-0.2-0.3
			c-0.2-0.3-0.4-0.5-0.6-0.7c0,0,0,0,0,0c-0.1-0.1-0.1-0.1-0.2-0.1C400.9,223.9,400.8,223.9,400.7,223.8L400.7,223.8z"/>
		
			<linearGradient id="SVGID_9_" gradientUnits="userSpaceOnUse" x1="595.8662" y1="152.662" x2="597.3492" y2="156.586" gradientTransform="matrix(0.8 0 0 -0.8 -77.2 354.6)">
			<stop  offset="0" style="stop-color:#FF2A2A"/>
			<stop  offset="1" style="stop-color:#FF0000"/>
		</linearGradient>
		<path class="st29" d="M401,229.9c-0.6-0.2-1.1-0.4-1.6-0.6c-1-0.3-2-0.9-2.7-0.7c-0.3,0.1-0.2,0.4-0.3,0.7c0,0.4-0.5,1.1-0.1,0.8
			c0.5-0.3,2,0.6,2.5,0.9c0.2,0.1,0.7,0.4,0.9,0.8c0.2,0.4,0.1,1.4,0,1.8c0,0.5,0.1,1.5,0.5,1.6c0.5,0.1,0.9-0.3,1.1-1
			c0.2-0.7,0.3-1.1,0.6-1.5c0.3-0.4,0.6-0.6,1.1-0.7c0.5-0.1,1.1,0.4,1.1-0.2c0-0.3-0.3-0.7-0.2-1.2c0.1-0.4-0.3-0.3-0.7-0.5
			C402.3,230.1,401.6,230.1,401,229.9L401,229.9z"/>
		<path class="st30" d="M398.7,231.1c-0.3-0.1-1.9-1.2-2.4-0.9c-0.2,0.1-0.3,0-0.3-0.2c0-0.2,0.1-0.5,0.1-0.7
			c0.1-0.2,0.2-0.6,0.4-0.8c0.5-0.5,1.8,0.5,2.5,0.7C399,229.6,398.7,231.1,398.7,231.1L398.7,231.1z"/>
		<path class="st31" d="M401.4,233.1c0.7-1.3,1.2-1.1,2.1-1.1c0.3,0,0.4-0.3,0.3-0.5c-0.2,0.5-1.3-0.1-1.9,0.2c-1.3,0.6-1,3-1.6,3.3
			C400.9,235.4,401.2,233.5,401.4,233.1L401.4,233.1z"/>
	</g>
	<path class="st2" d="M400,179.9l-25.7,44.5L348,270l51.4,0l52.6,0l-25.7-44.5L400,179.9z M400,182.3l25.2,43.7l24.7,42.7l-50.5,0
		l-49.4,0l25.2-43.7L400,182.3z"/>
</g>
</svg>
