<?xml version="1.0" encoding="utf-8"?>
<!-- Generator: Adobe Illustrator 20.0.0, SVG Export Plug-In . SVG Version: 6.00 Build 0)  -->
<!DOCTYPE svg PUBLIC "-//W3C//DTD SVG 1.1//EN" "http://www.w3.org/Graphics/SVG/1.1/DTD/svg11.dtd">
<svg version="1.1" id="Layer_1" xmlns="http://www.w3.org/2000/svg" xmlns:xlink="http://www.w3.org/1999/xlink" x="0px" y="0px"
	 viewBox="0 0 800 480" style="enable-background:new 0 0 800 480;" xml:space="preserve">
<style type="text/css">
	.st0{fill:#FFFFFF;}
	.st1{fill:#CE0000;}
	.st2{fill:#000063;}
</style>
<path class="st0" d="M0,0h800v480H0V0z"/>
<g>
	<g transform="translate(0 14.96) scale(.9375)">
		<g>
			<g>
				<path class="st1" d="M6.4,489.6l373.5,0L135.5,241.7l253.7,0.3L6.5-2.4L6.4,489.6z"/>
				<path class="st2" d="M-0.8,496.9l0-512.6l414.9,265L152.9,249l244.5,247.9L-0.8,496.9z M13.7,10.8l0,471.5l348.9,0L118.1,234.4
					l246.1,0.3L13.7,10.8z"/>
			</g>
			<path class="st0" d="M180.7,355.8l-27,8.9l21.1,19.9l-28.4-1.8l11.7,26.2l-25.5-12.3l0.5,28.6l-18.8-20.9L103.6,431l-9.2-26.3
				l-20.4,20.6l1.9-27.7L49.1,409l12.6-24.9l-29.3,0.5l21.4-18.3l-27.3-10.5l27-8.9L32.3,327l28.4,1.8l-11.7-26.2l25.5,12.3
				l-0.5-28.6l18.8,20.9l10.7-26.6l9.2,26.3l20.4-20.6l-1.9,27.7l26.9-11.4l-12.6,24.9l29.3-0.5l-21.4,18.3L180.7,355.8z
				 M148.3,171.1l-11.3,8.4l5.6,4.6c13.6-10.5,23.2-20.1,30.8-36c1.8,21.2-17.7,68.9-68.7,69.4C50,217.5,31,167,33.1,147.3
				c10,18.2,16.2,27.1,31.9,36.6l4.8-4.4l-10.7-8.9l13.7-3.6l-7.4-12.4l14.4,1.1l-1.8-14.5l12.6,7.4l3.9-13.5l9.1,10.9l8.5-10.3
				l4.6,14l11.8-8.2l-1.5,14.2l14.1-1.7l-6.6,13.2L148.3,171.1L148.3,171.1z"/>
		</g>
	</g>
</g>
</svg>
