<?xml version="1.0" encoding="utf-8"?>
<!-- Generator: Adobe Illustrator 20.0.0, SVG Export Plug-In . SVG Version: 6.00 Build 0)  -->
<!DOCTYPE svg PUBLIC "-//W3C//DTD SVG 1.1//EN" "http://www.w3.org/Graphics/SVG/1.1/DTD/svg11.dtd">
<svg version="1.1" id="Layer_1" xmlns="http://www.w3.org/2000/svg" xmlns:xlink="http://www.w3.org/1999/xlink" x="0px" y="0px"
	 viewBox="0 0 800 480" style="enable-background:new 0 0 800 480;" xml:space="preserve">
<style type="text/css">
	.st0{fill:#00006A;}
	.st1{fill:#FFFFFF;}
	.st2{fill:#FF0000;}
	.st3{fill:#CC142B;}
</style>
<g>
	<path class="st0" d="M0,0h800v480H0L0,0z"/>
	<g>
		<path class="st1" d="M625.4,126.2l-19.6-14.5l-20.3,13.4l7.6-23.2l-19-15.3l24.3,0.1L607,64l7.4,23.3l24.3,1.1L619,102.6
			L625.4,126.2z"/>
		<path class="st2" d="M617.5,114.5l-11.6-8.4l-11.8,8l4.4-13.7l-11.2-8.8l14.3-0.1l4.9-13.5l4.5,13.6l14.3,0.5l-11.5,8.5
			L617.5,114.5z"/>
		<path class="st1" d="M550.3,250.9l-19.6-14.5l-20.3,13.4l7.6-23.2l-19-15.3l24.3,0.1l8.6-22.9l7.4,23.3l24.3,1.1l-19.7,14.2
			L550.3,250.9z"/>
		<path class="st2" d="M542.4,239.2l-11.6-8.4l-11.8,8l4.3-13.7l-11.2-8.8l14.3-0.1l4.9-13.5l4.5,13.6l14.3,0.5l-11.5,8.5
			L542.4,239.2z"/>
		<g>
			<path class="st1" d="M704,238.6l-19.6-14.5l-20.3,13.4l7.6-23.2l-19-15.3l24.3,0.1l8.6-22.9l7.4,23.3l24.3,1.1l-19.7,14.2
				L704,238.6z"/>
			<path class="st2" d="M696.2,226.9l-11.6-8.4l-11.8,8l4.3-13.7l-11.2-8.8l14.3-0.1l4.9-13.5l4.5,13.6l14.3,0.5l-11.5,8.5
				L696.2,226.9z"/>
		</g>
		<g>
			<path class="st1" d="M623.6,416l-19.6-14.5L583.8,415l7.6-23.2l-19-15.3l24.3,0.1l8.6-22.9l7.4,23.3l24.3,1.1l-19.7,14.2
				L623.6,416z"/>
			<path class="st2" d="M615.8,404.3l-11.6-8.4l-11.8,8l4.3-13.7l-11.2-8.8l14.3-0.1l4.9-13.5l4.5,13.6l14.3,0.5l-11.5,8.5
				L615.8,404.3z"/>
		</g>
	</g>
</g>
<polygon class="st1" points="200,140.2 355.3,229.6 400,229.6 400,229.6 400,203.8 244.7,114.5 400,25.1 400,-0.6 400,-0.6 
	355.3,-0.6 200,88.7 44.7,-0.6 0,-0.6 0,25.1 155.3,114.5 0,203.8 0,229.6 44.7,229.6 "/>
<g>
	<polygon class="st3" points="0,16.6 170.2,114.5 200,114.5 0,-0.6 	"/>
	<polygon class="st3" points="29.8,229.6 200,131.6 200,114.5 0,229.6 	"/>
	<polygon class="st3" points="370.2,-0.6 200,97.3 200,114.5 400,-0.6 	"/>
	<polygon class="st3" points="229.8,114.5 200,114.5 400,229.6 400,212.4 	"/>
</g>
<polygon class="st1" points="233.3,76.1 233.3,-0.6 166.7,-0.6 166.7,76.1 0,76.1 0,152.8 166.7,152.8 166.7,229.6 233.3,229.6 
	233.3,152.8 400,152.8 400,76.1 "/>
<polygon class="st3" points="220,91.5 220,-0.6 180,-0.6 180,91.5 0,91.5 0,137.5 180,137.5 180,229.6 220,229.6 220,137.5 
	400,137.5 400,91.5 "/>
</svg>
