<?xml version="1.0" encoding="utf-8"?>
<!-- Generator: Adobe Illustrator 20.0.0, SVG Export Plug-In . SVG Version: 6.00 Build 0)  -->
<!DOCTYPE svg PUBLIC "-//W3C//DTD SVG 1.1//EN" "http://www.w3.org/Graphics/SVG/1.1/DTD/svg11.dtd">
<svg version="1.1" id="Layer_1" xmlns="http://www.w3.org/2000/svg" xmlns:xlink="http://www.w3.org/1999/xlink" x="0px" y="0px"
	 viewBox="0 0 800 480" style="enable-background:new 0 0 800 480;" xml:space="preserve">
<style type="text/css">
	.st0{fill:#EF2D29;}
	.st1{fill:#009025;}
	.st2{fill:#FFFFFF;}
	.st3{fill:#FFFFFF;stroke:#DB161B;stroke-width:0.2833;}
	.st4{fill:#FFFFFF;stroke:#DB161B;stroke-width:0.2642;}
	.st5{fill:#FFFFFF;stroke:#DB161B;stroke-width:0.1668;}
	.st6{fill:#FFFFFF;stroke:#DB161B;stroke-width:0.5;}
	.st7{fill:none;stroke:#DB161B;stroke-width:0.5;}
	.st8{fill:#DB161B;stroke:#DB161B;stroke-width:0.5;}
	.st9{fill:#FFFFFF;stroke:#DB161B;stroke-width:0.4237;}
	.st10{fill:#FFFFFF;stroke:#DB161B;stroke-width:0.3303;}
	.st11{fill:none;stroke:#DB161B;stroke-width:0.3303;}
	.st12{fill:#FFFFFF;stroke:#DB161B;stroke-width:0.3352;}
	.st13{fill:#FFFFFF;stroke:#DB161B;stroke-width:0.2945;}
	.st14{fill:#FFFFFF;stroke:#DB161B;stroke-width:0.3342;}
	.st15{fill:#FFFFFF;stroke:#DB161B;stroke-width:0.335;}
	.st16{fill:#FFFFFF;stroke:#DB161B;stroke-width:0.1881;}
	.st17{fill:#FFFFFF;stroke:#DB161B;stroke-width:0.2734;}
</style>
<g>
	<g>
		<path class="st0" d="M0,0h800v480H0V0z"/>
		<path class="st1" d="M174.6,317.3H800V480H174.6V317.3z"/>
		<path class="st2" d="M174.6,0H800v154.7H174.6V0z"/>
	</g>
</g>
<g>
	<g id="a">
		<path class="st3" d="M26.9,67.9h23.2c1.3,0,2.3,1,2.3,2.2V81c0,1.2-1,2.2-2.3,2.2H26.9c-1.3,0-2.3-1-2.3-2.2V70
			C24.6,68.8,25.6,67.9,26.9,67.9z"/>
		<path class="st4" d="M27.5,68.5h22c1.2,0,2.2,0.9,2.2,2v10c0,1.1-1,2-2.2,2h-22c-1.2,0-2.2-0.9-2.2-2v-10
			C25.3,69.4,26.3,68.5,27.5,68.5z"/>
		<path class="st5" d="M37.6,72.3h1.3l0.1,0.6l1.1,0.6l0.8-0.7l1,0.6l-1,0.6l0.2,0.8h1.2v1.1l-1-0.1l-0.5,0.7l1.1,0.8L41.2,78
			l-0.9-0.7L39,77.6l0.1,1l-1.5,0.1l-0.2-1l-1.2-0.5l-0.7,0.7l-1-0.5l0.6-0.8L34.3,76h-1l-0.1-1.4l1,0.1l0.7-0.8l-0.8-0.6l1.1-0.7
			l0.8,0.6l1.3-0.2C37.4,72.9,37.6,72.3,37.6,72.3z"/>
		<ellipse class="st6" cx="38" cy="75.3" rx="1.5" ry="1.3"/>
		<path class="st4" d="M28.9,69.1L26.7,71"/>
		<path class="st4" d="M30.3,69.1L28.2,71"/>
		<path class="st4" d="M31.7,69.1L29.6,71"/>
		<path class="st4" d="M33.1,69.1L31,71"/>
		<path class="st4" d="M34.6,69.1L32.4,71"/>
		<path class="st4" d="M36,69.1L33.8,71"/>
		<path class="st4" d="M37.4,69.1L35.3,71"/>
		<path class="st4" d="M38.8,69.1L36.7,71"/>
		<path class="st4" d="M40.3,69.1L38.1,71"/>
		<path class="st4" d="M41.7,69.1L39.5,71"/>
		<path class="st4" d="M43.1,69.1L41,71"/>
		<path class="st4" d="M44.5,69.1L42.4,71"/>
		<path class="st4" d="M38.8,69.1L36.7,71"/>
		<path class="st4" d="M46,69.1L43.8,71"/>
		<path class="st4" d="M47.4,69.1L45.2,71"/>
		<path class="st4" d="M48.8,69.1L46.7,71"/>
		<path class="st4" d="M50.2,69.1L48.1,71"/>
		<path class="st4" d="M48.1,69.1l2.1,1.9"/>
		<path class="st4" d="M46.7,69.1l2.1,1.9"/>
		<path class="st4" d="M45.2,69.1l2.1,1.9"/>
		<path class="st4" d="M43.8,69.1L46,71"/>
		<path class="st4" d="M42.4,69.1l2.1,1.9"/>
		<path class="st4" d="M41,69.1l2.1,1.9"/>
		<path class="st4" d="M39.5,69.1l2.1,1.9"/>
		<path class="st4" d="M38.1,69.1l2.1,1.9"/>
		<path class="st4" d="M36.7,69.1l2.1,1.9"/>
		<path class="st4" d="M35.3,69.1l2.1,1.9"/>
		<path class="st4" d="M33.8,69.1L36,71"/>
		<path class="st4" d="M32.4,69.1l2.1,1.9"/>
		<path class="st4" d="M38.1,69.1l2.1,1.9"/>
		<path class="st4" d="M31,69.1l2.1,1.9"/>
		<path class="st4" d="M29.6,69.1l2.1,1.9"/>
		<path class="st4" d="M28.2,69.1l2.1,1.9"/>
		<path class="st4" d="M26.7,69.1l2.1,1.9"/>
		<path class="st4" d="M28.9,79.9l-2.1,1.9"/>
		<path class="st4" d="M30.3,79.9l-2.1,1.9"/>
		<path class="st4" d="M31.7,79.9l-2.1,1.9"/>
		<path class="st4" d="M33.1,79.9L31,81.8"/>
		<path class="st4" d="M34.6,79.9l-2.1,1.9"/>
		<path class="st4" d="M36,79.9l-2.1,1.9"/>
		<path class="st4" d="M37.4,79.9l-2.1,1.9"/>
		<path class="st4" d="M38.8,79.9l-2.1,1.9"/>
		<path class="st4" d="M40.3,79.9l-2.1,1.9"/>
		<path class="st4" d="M41.7,79.9l-2.1,1.9"/>
		<path class="st4" d="M43.1,79.9L41,81.8"/>
		<path class="st4" d="M44.5,79.9l-2.1,1.9"/>
		<path class="st4" d="M38.8,79.9l-2.1,1.9"/>
		<path class="st4" d="M46,79.9l-2.1,1.9"/>
		<path class="st4" d="M47.4,79.9l-2.1,1.9"/>
		<path class="st4" d="M48.8,79.9l-2.1,1.9"/>
		<path class="st4" d="M50.2,79.9l-2.1,1.9"/>
		<path class="st4" d="M48.1,79.9l2.1,1.9"/>
		<path class="st4" d="M46.7,79.9l2.1,1.9"/>
		<path class="st4" d="M45.2,79.9l2.1,1.9"/>
		<path class="st4" d="M43.8,79.9l2.1,1.9"/>
		<path class="st4" d="M42.4,79.9l2.1,1.9"/>
		<path class="st4" d="M41,79.9l2.1,1.9"/>
		<path class="st4" d="M39.5,79.9l2.1,1.9"/>
		<path class="st4" d="M38.1,79.9l2.1,1.9"/>
		<path class="st4" d="M36.7,79.9l2.1,1.9"/>
		<path class="st4" d="M35.3,79.9l2.1,1.9"/>
		<path class="st4" d="M33.8,79.9l2.1,1.9"/>
		<path class="st4" d="M32.4,79.9l2.1,1.9"/>
		<path class="st4" d="M38.1,79.9l2.1,1.9"/>
		<path class="st4" d="M31,79.9l2.1,1.9"/>
		<path class="st4" d="M29.6,79.9l2.1,1.9"/>
		<path class="st4" d="M28.2,79.9l2.1,1.9"/>
		<path class="st4" d="M26.7,79.9l2.1,1.9"/>
	</g>
	<g transform="scale(-1,1)">
		<g id="a_1_">
			<path class="st3" d="M-145.7,70v11c0,1.2,1,2.2,2.3,2.2h23.2c1.3,0,2.3-1,2.3-2.2V70.1c0-1.2-1-2.2-2.3-2.2h-23.2
				C-144.6,67.9-145.7,68.8-145.7,70z"/>
			<path class="st4" d="M-145,70.5v10c0,1.1,1,2,2.2,2h22c1.2,0,2.2-0.9,2.2-2v-10c0-1.1-1-2-2.2-2h-22C-144,68.5-145,69.4-145,70.5
				z"/>
			<path class="st5" d="M-133,73l-1.3,0.2l-0.8-0.6l-1.1,0.7l0.8,0.6l-0.7,0.8l-1-0.1l0.1,1.4h1l0.7,0.5l-0.6,0.8l1,0.5l0.7-0.7
				l1.2,0.5l0.2,1l1.5-0.1l-0.1-1l1.3-0.3l0.9,0.7l0.8-0.6l-1.1-0.8l0.5-0.7l1,0.1v-1.1h-1.2l-0.2-0.8l1-0.6l-1-0.6l-0.8,0.7
				l-1.1-0.6l-0.1-0.6h-1.3C-132.7,72.3-132.9,72.9-133,73z"/>
			
				<ellipse transform="matrix(1 -2.535182e-06 2.535182e-06 1 -1.908996e-04 -3.354518e-04)" class="st6" cx="-132.3" cy="75.3" rx="1.5" ry="-1.3"/>
			<path class="st4" d="M-143.5,71l2.1-1.9"/>
			<path class="st4" d="M-142.1,71l2.1-1.9"/>
			<path class="st4" d="M-140.7,71l2.1-1.9"/>
			<path class="st4" d="M-139.2,71l2.1-1.9"/>
			<path class="st4" d="M-137.8,71l2.1-1.9"/>
			<path class="st4" d="M-136.4,71l2.1-1.9"/>
			<path class="st4" d="M-135,71l2.1-1.9"/>
			<path class="st4" d="M-133.5,71l2.1-1.9"/>
			<path class="st4" d="M-132.1,71l2.1-1.9"/>
			<path class="st4" d="M-130.7,71l2.1-1.9"/>
			<path class="st4" d="M-129.3,71l2.1-1.9"/>
			<path class="st4" d="M-127.8,71l2.1-1.9"/>
			<path class="st4" d="M-133.5,71l2.1-1.9"/>
			<path class="st4" d="M-126.4,71l2.1-1.9"/>
			<path class="st4" d="M-125,71l2.1-1.9"/>
			<path class="st4" d="M-123.6,71l2.1-1.9"/>
			<path class="st4" d="M-122.2,71l2.2-1.9"/>
			<path class="st4" d="M-120.1,71l-2.1-1.9"/>
			<path class="st4" d="M-121.5,71l-2.1-1.9"/>
			<path class="st4" d="M-122.9,71l-2.1-1.9"/>
			<path class="st4" d="M-124.3,71l-2.1-1.9"/>
			<path class="st4" d="M-125.8,71l-2.1-1.9"/>
			<path class="st4" d="M-127.2,71l-2.1-1.9"/>
			<path class="st4" d="M-128.6,71l-2.1-1.9"/>
			<path class="st4" d="M-130,71l-2.1-1.9"/>
			<path class="st4" d="M-131.5,71l-2.1-1.9"/>
			<path class="st4" d="M-132.9,71l-2.1-1.9"/>
			<path class="st4" d="M-134.3,71l-2.1-1.9"/>
			<path class="st4" d="M-135.7,71l-2.1-1.9"/>
			<path class="st4" d="M-130,71l-2.1-1.9"/>
			<path class="st4" d="M-137.2,71l-2.1-1.9"/>
			<path class="st4" d="M-138.6,71l-2.1-1.9"/>
			<path class="st4" d="M-140,71l-2.1-1.9"/>
			<path class="st4" d="M-141.4,71l-2.1-1.9"/>
			<path class="st4" d="M-143.5,81.8l2.1-1.9"/>
			<path class="st4" d="M-142.1,81.8l2.1-1.9"/>
			<path class="st4" d="M-140.7,81.8l2.1-1.9"/>
			<path class="st4" d="M-139.2,81.8l2.1-1.9"/>
			<path class="st4" d="M-137.8,81.8l2.1-1.9"/>
			<path class="st4" d="M-136.4,81.8l2.1-1.9"/>
			<path class="st4" d="M-135,81.8l2.1-1.9"/>
			<path class="st4" d="M-133.5,81.8l2.1-1.9"/>
			<path class="st4" d="M-132.1,81.8l2.1-1.9"/>
			<path class="st4" d="M-130.7,81.8l2.1-1.9"/>
			<path class="st4" d="M-129.3,81.8l2.1-1.9"/>
			<path class="st4" d="M-127.8,81.8l2.1-1.9"/>
			<path class="st4" d="M-133.5,81.8l2.1-1.9"/>
			<path class="st4" d="M-126.4,81.8l2.1-1.9"/>
			<path class="st4" d="M-125,81.8l2.1-1.9"/>
			<path class="st4" d="M-123.6,81.8l2.1-1.9"/>
			<path class="st4" d="M-122.1,81.8l2.1-1.9"/>
			<path class="st4" d="M-120.1,81.8l-2.1-1.9"/>
			<path class="st4" d="M-121.5,81.8l-2.1-1.9"/>
			<path class="st4" d="M-122.9,81.8l-2.1-1.9"/>
			<path class="st4" d="M-124.3,81.8l-2.1-1.9"/>
			<path class="st4" d="M-125.8,81.8l-2.1-1.9"/>
			<path class="st4" d="M-127.2,81.8l-2.1-1.9"/>
			<path class="st4" d="M-128.6,81.8l-2.1-1.9"/>
			<path class="st4" d="M-130,81.8l-2.1-1.9"/>
			<path class="st4" d="M-131.5,81.8l-2.1-1.9"/>
			<path class="st4" d="M-132.9,81.8l-2.1-1.9"/>
			<path class="st4" d="M-134.3,81.8l-2.1-1.9"/>
			<path class="st4" d="M-135.7,81.8l-2.1-1.9"/>
			<path class="st4" d="M-130,81.8l-2.1-1.9"/>
			<path class="st4" d="M-137.2,81.8l-2.1-1.9"/>
			<path class="st4" d="M-138.6,81.8l-2.1-1.9"/>
			<path class="st4" d="M-140,81.8l-2.1-1.9"/>
			<path class="st4" d="M-141.4,81.8l-2.1-1.9"/>
		</g>
	</g>
	<g id="b">
		<path class="st6" d="M68.2,99.8c-34.6,33.8-49.3,38.1-42.4,40.8c6.9,2.7,29.2-14.7,52.3-37.9c23.2-23.2,37.3-43.8,30.4-46.5
			C101.6,53.5,104.9,63.9,68.2,99.8z"/>
		<path class="st6" d="M39.1,124.4l12.1,3.2c-11.4,10.8-24.2,15.2-27.8,13.3C19.8,139,29.8,134.5,39.1,124.4z"/>
		<path class="st6" d="M39.1,125.6l10,2.5C38,138.5,27,141.4,24.2,140.2C21.3,139,30,135.4,39.1,125.6z"/>
		<path class="st7" d="M76.3,98.3c0,0.2-0.1,0.9-0.2,1.2c0,0.4,0,0.7-0.1,1s-0.1,0.5-0.4,0.6c-0.2,0.3-0.4,0.4-0.7,0.6
			c-0.2,0.2-0.5,0.3-0.9,0.5c-0.4,0.1-0.7,0.2-1.1,0.1c-0.3-0.2-0.5-0.4-0.8-0.5c-0.1-0.3-0.1-0.6-0.2-0.9c0.1,0.3,0.2,0.7,0.2,1
			c0,0.4-0.2,0.6-0.4,0.9"/>
		<path class="st7" d="M73,103.6C73,103.6,72.9,103.5,73,103.6s0,0-0.4-0.2c-0.3-0.2-0.7-0.2-1.1-0.3h-1.2c-0.5,0-0.8,0.1-1.1,0.2
			c-0.3,0.2-0.6,0.3-0.9,0.5s-0.4,0.4-0.5,0.6c-0.2,0.2-0.4,0.5-0.6,0.7c-0.1,0.4-0.3,0.3-0.4,0.6c0.4,0,0.8,0.1,1,0.3
			c0.4,0.2-0.3-0.2-0.4-0.3c-0.3-0.1-0.4-0.2-0.8-0.2c-0.4-0.1-0.6,0.1-1.1,0.2c-0.2,0.1-0.3,0.2-0.6,0.2"/>
		<path class="st7" d="M68.2,107.5c-0.2,0-1,0.1-1.3,0c-0.4-0.1-0.6-0.3-0.8-0.6c-0.1-0.2,0,0.4,0,0.6c0,0.5-0.2,0.5-0.4,0.8
			c-0.3,0.1-0.5,0.4-0.8,0.5c-0.2,0.2-0.5,0.3-0.8,0.4c-0.3,0.1-0.6,0.2-0.8,0.4c-0.3,0.2-0.3,0.4-0.4,0.7c0,0.4,0.1,0.6,0.4,0.8
			c0.1,0.3,0.3,0.5,0.5,0.7c0.2,0.4,0.5,0.5-0.1,0.6c-0.3,0.1-0.5,0-0.8,0"/>
		<path class="st7" d="M62.6,113c-0.2,0-1-0.3-1.3-0.4h-1.2c-0.5,0-0.6,0.2-1,0.3c-0.3,0.2-0.4,0.4-0.8,0.6
			c-0.2,0.2-0.6,0.6-0.7,0.9c-0.1,0.3-0.2,0.6-0.2,1c0,0.5,0.1,0.5,0.2,0.9c0.1,0.3,0.3,0.6,0.5,0.9c0,0.1,0.1,0.1,0.2,0.2"/>
		<path class="st7" d="M58.4,118.4c0,0-0.1,0.2-0.3,0.4c-0.3,0.3-0.3,0.3-0.8,0.3c-0.4,0-0.4-0.2-0.6-0.3c-0.1-0.2-0.3-0.4-0.4-0.6
			c-0.1-0.2-0.2-0.4-0.3-0.6s-0.3-0.3-0.4-0.5c-0.1-0.1-0.2-0.1-0.3-0.1c0.4,0.1,0.4,0.2,0.6,0.4c0.1,0.2,0.2,0.4,0.3,0.6
			c0,0.3,0.1,0.5,0.1,0.8s0,0.6-0.1,0.9c-0.2,0.2-0.3,0.3-0.4,0.4c-0.2,0.1-0.3,0.3-0.4,0.5c-0.2,0.1-0.3,0.2-0.6,0.4
			c-0.2,0.1-0.4,0.2-0.7,0.3c-0.4,0-0.5-0.1-0.8-0.3c-0.2-0.2-0.4-0.3-0.6-0.4c-0.2-0.1-0.3-0.3-0.4-0.5c-0.3-0.1-0.6-0.1-0.8,0.1
			c-0.2,0.1-0.3,0.3-0.4,0.4c-0.1,0.1-0.3,0.2-0.4,0.3"/>
		<path class="st7" d="M51.5,121c0.1,0,0.5,0.3,0.6,0.4c0.1,0.3,0.3,0.5,0.3,0.8c0.1,0.3,0.1,0.7,0.1,1.1c-0.1,0.4-0.3,0.7-0.4,1
			c-0.3,0.2-0.4,0.3-0.7,0.5c-0.3,0-0.6,0.1-1,0.1c-0.2,0.1-0.7,0.1-0.9,0c-0.3-0.1-0.6-0.2-0.9-0.3c-0.3-0.2-0.5-0.3-0.8-0.5
			c-0.2-0.2-0.4-0.4-0.6-0.7c-0.2-0.3-0.3-0.4-0.5-0.7c0.1,0.3,0.3,0.6,0.4,0.9c0.2,0.3,0.3,0.4,0.3,0.8c0.1,0.3,0.1,0.7,0.1,1.1
			c0,0.3-0.1,0.7-0.2,0.9v0.2"/>
		<path class="st7" d="M40,127.9L40,127.9c0-0.2,0-0.1,0.1,0.5c0.2,0.3,0.8,0.3,1.3,0.2c0.4-0.3,0.4-0.5,1.1-0.7
			c0.7,0,1,0.2,1.4,0.4c0.5,0.2,0.7,0.3,1,0.8c0.2,0.4,0.2,0.6-0.3,0.8c-0.4,0.3-0.9,0.4-1.4,0.5c-0.6,0-1-0.1-1.3,0.2
			c-0.4,0.4-0.4,0.6-0.4,1.2c-0.1,0.2-0.2,0.8-0.3,1c-0.3,0.1-0.6,0.2-1.1,0.2c-0.1-0.3-0.3-1-0.4-1.3c-0.1-0.4-0.1-1-0.4-1.2
			c-0.2-0.3-0.5-0.6-0.9-0.8c-0.2-0.2-0.4-0.4-0.8-0.4c0.5,0.2,0.6,0.5,0.6,1c-0.4,0.2-0.5,0.3-1.3,0.3c-0.7-0.1-0.9-0.2-1.1-0.6
			c0,0.6-0.2,0.7-0.4,1.2c-0.3,0.3-0.4,0.7-0.6,1.1c0.1,0.5,0.3,0.6,0.4,1.2c0.2,0.4,0.1,0.9,0.5,1.1c0.2,0.2,0.3,0.2,0.6,0.2
			c-0.7,0-1.2-0.1-1.6-0.3c-0.4-0.2-0.7-0.5-1-0.7c-0.4-0.3-1-0.6-1.5-0.7c-0.6,0-1-0.1-1.3,0.2c-0.4,0.2-0.6,0.6-0.8,1.1
			c-0.1,0.6-0.2,1,0.1,1.3c0.2,0.4,0.3,0.6,0,1.1c-0.3,0.4-0.7,0.4-1.4,0.6c-0.5,0-0.9-0.1-1.3-0.2"/>
		<path class="st6" d="M107.6,69.3c15.3-26.5,25.5-49,22.7-50.3s-17.5,19.2-32.8,45.6L107.6,69.3z"/>
		<path class="st6" d="M106.6,68.8c14.8-25.5,25-47.1,22.7-48.1c-2.2-1-16.1,18.9-30.9,44.4"/>
		<path class="st6" d="M104,55.5c-1.8,3-3.7,6.4-5.6,9.6l8.1,3.7c1.8-3.2,3.9-6.6,5.6-9.6C112.1,59.2,104,55.5,104,55.5z"/>
		<path class="st6" d="M104.7,56.5c-1.8,3-3.1,5.3-4.9,8.5l6.1,2.8c1.9-3.2,3.2-5.4,4.9-8.5C110.8,59.3,104.7,56.5,104.7,56.5z"/>
		<polygon class="st6" points="109.1,60 105.1,58.1 101.5,64.3 105.5,66.2 		"/>
		<path class="st6" d="M109.1,60l-7.6,4.3"/>
		<path class="st6" d="M105.5,66.2l-0.5-8.1"/>
		<path class="st6" d="M127.4,28.4l-4.1-1.9"/>
		<ellipse transform="matrix(0.9685 -0.2492 0.2492 0.9685 -2.0906 32.472)" class="st8" cx="127.2" cy="24.5" rx="1.2" ry="1"/>
	</g>
	<g transform="scale(-1,1)">
		<g id="b_1_">
			<path class="st9" d="M-61.7,56.2c6.9,2.7-7.3,23.3-30.5,46.5c-23.1,23.2-45.4,40.6-52.3,37.9c-6.9-2.7,7.8-7,42.4-40.8
				C-65.4,63.9-68.7,53.5-61.7,56.2z"/>
			<path class="st10" d="M-146.9,140.9c3.6,1.9,16.4-2.5,27.8-13.3l-12.1-3.2C-140.5,134.5-150.4,139-146.9,140.9z"/>
			<path class="st10" d="M-146.1,140.2c2.8,1.2,13.8-1.7,24.9-12.1l-10-2.5C-140.2,135.4-149,139-146.1,140.2z"/>
			<path class="st11" d="M-98.6,102.8c0.2-0.3,0.4-0.5,0.4-0.9c0-0.3-0.1-0.7-0.2-1c0.1,0.3,0.1,0.6,0.2,0.9
				c0.3,0.1,0.5,0.3,0.8,0.5c0.4,0.1,0.7,0,1.1-0.1c0.4-0.2,0.7-0.3,0.9-0.5c0.3-0.2,0.5-0.3,0.7-0.6c0.3-0.1,0.3-0.3,0.4-0.6
				s0.1-0.6,0.1-1c0.1-0.3,0.2-1,0.2-1.2"/>
			<path class="st11" d="M-105.4,105.9c0.3,0,0.4-0.1,0.6-0.2c0.5-0.1,0.7-0.3,1.1-0.2c0.4,0,0.5,0.1,0.8,0.2
				c0.1,0.1,0.8,0.5,0.4,0.3c-0.2-0.2-0.6-0.3-1-0.3c0.1-0.3,0.3-0.2,0.4-0.6c0.2-0.2,0.4-0.5,0.6-0.7c0.1-0.2,0.2-0.4,0.5-0.6
				s0.6-0.3,0.9-0.5c0.3-0.1,0.6-0.2,1.1-0.2h1.2c0.4,0.1,0.8,0.1,1.1,0.3c0.4,0.2,0.5,0.3,0.4,0.2c0-0.1,0,0,0,0"/>
			<path class="st11" d="M-107.4,112.4c0.3,0,0.5,0.1,0.8,0c0.6-0.1,0.3-0.2,0.1-0.6c-0.2-0.2-0.4-0.4-0.5-0.7
				c-0.3-0.2-0.4-0.4-0.4-0.8c0.1-0.3,0.1-0.5,0.4-0.7c0.2-0.2,0.5-0.3,0.8-0.4s0.6-0.2,0.8-0.4c0.3-0.1,0.5-0.4,0.8-0.5
				c0.2-0.3,0.4-0.3,0.4-0.8c0-0.2-0.1-0.8,0-0.6c0.2,0.3,0.4,0.5,0.8,0.6c0.3,0.1,1.1,0,1.3,0"/>
			<path class="st11" d="M-111.9,117.4c-0.1-0.1-0.2-0.1-0.2-0.2c-0.2-0.3-0.4-0.6-0.5-0.9c-0.1-0.4-0.2-0.4-0.2-0.9
				c0-0.4,0.1-0.7,0.2-1s0.5-0.7,0.7-0.9c0.4-0.2,0.5-0.4,0.8-0.6c0.4-0.1,0.5-0.3,1-0.3h1.2c0.3,0.1,1.1,0.4,1.3,0.4"/>
			<path class="st11" d="M-119.5,120.9c0.1-0.1,0.3-0.2,0.4-0.3s0.2-0.3,0.4-0.4c0.2-0.2,0.5-0.2,0.8-0.1c0.1,0.2,0.2,0.4,0.4,0.5
				s0.4,0.2,0.6,0.4c0.3,0.2,0.4,0.3,0.8,0.3c0.3-0.1,0.5-0.2,0.7-0.3c0.3-0.2,0.4-0.3,0.6-0.4c0.1-0.2,0.2-0.4,0.4-0.5
				c0.1-0.1,0.2-0.2,0.4-0.4c0.1-0.3,0.1-0.6,0.1-0.9s-0.1-0.5-0.1-0.8c-0.1-0.2-0.2-0.4-0.3-0.6c-0.2-0.2-0.2-0.3-0.6-0.4
				c0.1,0,0.2,0,0.3,0.1c0.1,0.2,0.3,0.3,0.4,0.5c0.1,0.2,0.2,0.4,0.3,0.6s0.3,0.4,0.4,0.6c0.2,0.1,0.2,0.3,0.6,0.3
				c0.5,0,0.5,0,0.8-0.3c0.2-0.2,0.3-0.4,0.3-0.4"/>
			<path class="st11" d="M-123,126.6v-0.2c0.1-0.2,0.2-0.6,0.2-0.9c0-0.4,0-0.8-0.1-1.1c0-0.4-0.1-0.5-0.3-0.8
				c-0.1-0.3-0.3-0.6-0.4-0.9c0.2,0.3,0.3,0.4,0.5,0.7c0.2,0.3,0.4,0.5,0.6,0.7c0.3,0.2,0.5,0.3,0.8,0.5c0.3,0.1,0.6,0.2,0.9,0.3
				c0.2,0.1,0.7,0.1,0.9,0c0.4,0,0.7-0.1,1-0.1c0.3-0.2,0.4-0.3,0.7-0.5c0.1-0.3,0.3-0.6,0.4-1c0-0.4,0-0.8-0.1-1.1
				c0-0.3-0.2-0.5-0.3-0.8c-0.1-0.1-0.5-0.4-0.6-0.4"/>
			<path class="st11" d="M-142.8,137.2c0.4,0.1,0.8,0.2,1.3,0.2c0.7-0.2,1.1-0.2,1.4-0.6c0.3-0.5,0.2-0.7,0-1.1
				c-0.3-0.3-0.2-0.7-0.1-1.3c0.2-0.5,0.4-0.9,0.8-1.1c0.3-0.3,0.7-0.2,1.3-0.2c0.5,0.1,1.1,0.4,1.5,0.7c0.3,0.2,0.6,0.5,1,0.7
				c0.4,0.2,0.9,0.3,1.6,0.3c-0.3,0-0.4,0-0.6-0.2c-0.4-0.2-0.3-0.7-0.5-1.1c-0.1-0.6-0.3-0.7-0.4-1.2c0.2-0.4,0.3-0.8,0.6-1.1
				c0.2-0.5,0.4-0.6,0.4-1.2c0.2,0.4,0.4,0.5,1.1,0.6c0.8,0,0.9-0.1,1.3-0.3c0-0.5-0.1-0.8-0.6-1c0.4,0,0.6,0.2,0.8,0.4
				c0.4,0.2,0.7,0.5,0.9,0.8c0.3,0.2,0.3,0.8,0.4,1.2c0.1,0.3,0.3,1,0.4,1.3c0.5,0,0.8-0.1,1.1-0.2c0.1-0.2,0.2-0.8,0.3-1
				c0-0.6,0-0.8,0.4-1.2c0.3-0.3,0.7-0.2,1.3-0.2c0.5-0.1,1-0.2,1.4-0.5c0.5-0.2,0.5-0.4,0.3-0.8c-0.3-0.5-0.5-0.6-1-0.8
				c-0.4-0.2-0.7-0.4-1.4-0.4c-0.7,0.2-0.7,0.4-1.1,0.7c-0.5,0.1-1.1,0.1-1.3-0.2c-0.1-0.6-0.1-0.7-0.1-0.4v-0.1"/>
			<path class="st12" d="M-72.8,64.6C-57.5,38.2-42.8,17.7-40,19s-7.3,23.8-22.7,50.3L-72.8,64.6z"/>
			<path class="st13" d="M-71.9,65.1C-57.1,39.6-43.2,19.7-41,20.7c2.3,1-7.9,22.6-22.7,48.1"/>
			<path class="st14" d="M-58.1,59.2c-1.7,3-3.8,6.4-5.6,9.6l-8.1-3.7c1.9-3.2,3.8-6.6,5.6-9.6C-66.2,55.5-58.1,59.2-58.1,59.2z"/>
			<path class="st14" d="M-59.4,59.3c-1.7,3.1-3,5.3-4.9,8.5l-6.1-2.8c1.8-3.2,3.1-5.5,4.9-8.5C-65.5,56.5-59.5,59.3-59.4,59.3z"/>
			<polygon class="st15" points="-64.7,66.2 -68.8,64.3 -65.2,58.1 -61.1,60 			"/>
			<path class="st14" d="M-68.7,64.3l7.6-4.3"/>
			<path class="st14" d="M-65.2,58.1l0.5,8.1"/>
			<path class="st14" d="M-46.9,26.5l4.1,1.9"/>
			
				<ellipse transform="matrix(0.2492 -0.9685 0.9685 0.2492 -56.0782 -23.3979)" class="st8" cx="-43.1" cy="24.5" rx="1" ry="-1.2"/>
		</g>
	</g>
	<path class="st6" d="M74.4,55.1c0,22.2,0.1,30.6-1.5,31.8s-44.8,0-44.8,6.4S63.8,106,74.4,106c14.2,0,21.4-6.4,21.4-19.1V55.1H74.4
		z"/>
	<path class="st6" d="M74.4,61.5v3.2c7.1,1.1,14.2,1.1,21.4,0v-3.2C88.7,62.6,81.6,62.6,74.4,61.5z"/>
	<path class="st6" d="M74.4,55.1v3.2c7.1,1.1,14.2,1.1,21.4,0v-3.2C88.7,56.2,81.6,56.2,74.4,55.1z"/>
	<path class="st6" d="M74.4,58.3v3.2c7.1,1.1,14.2,1.1,21.4,0v-3.2C88.7,59.4,81.6,59.4,74.4,58.3z"/>
	<path class="st6" d="M74.4,64.7v3.2c7.1,1.1,14.2,1.1,21.4,0v-3.2C88.7,65.7,81.6,65.7,74.4,64.7z"/>
	<ellipse class="st6" cx="75.4" cy="60.1" rx="1" ry="0.7"/>
	<ellipse class="st6" cx="79.3" cy="60.5" rx="1" ry="0.7"/>
	<ellipse class="st6" cx="83.2" cy="60.8" rx="1" ry="0.7"/>
	<ellipse class="st6" cx="87.1" cy="60.8" rx="1" ry="0.7"/>
	<ellipse class="st6" cx="91" cy="60.5" rx="1" ry="0.7"/>
	<ellipse class="st6" cx="94.8" cy="60.1" rx="1" ry="0.7"/>
	<g>
		<path class="st4" d="M74.4,71l21.4,17.1"/>
		<path class="st4" d="M76.6,71l19.2,15.2"/>
		<path class="st4" d="M79.4,71.7l16.4,12.7"/>
		<path class="st4" d="M81.6,71.7l14.2,10.8"/>
		<path class="st4" d="M83.7,71.7l12.1,8.9"/>
		<path class="st4" d="M85.8,71.7l10,7"/>
		<path class="st4" d="M88,71.7l7.8,5.1"/>
		<path class="st4" d="M90.1,71.7l5.7,3.8"/>
		<path class="st4" d="M92.3,71.7l3.6,2.5"/>
		<path class="st4" d="M94.4,71.7l1.4,1.3"/>
		<path class="st4" d="M74.4,72.9L95.8,90"/>
		<path class="st4" d="M95.8,71L72.3,90.1"/>
		<path class="st4" d="M93.7,71L73,87.5"/>
		<path class="st4" d="M90.8,71.7L74.4,84.4"/>
		<path class="st4" d="M88.7,71.7L74.4,82.5"/>
		<path class="st4" d="M86.6,71.7l-12.1,8.9"/>
		<path class="st4" d="M84.4,71.7l-10,7"/>
		<path class="st4" d="M82.3,71.7l-7.8,5.1"/>
		<path class="st4" d="M80.1,71.7l-5.7,3.8"/>
		<path class="st4" d="M78,71.7l-3.6,2.5"/>
		<path class="st4" d="M75.9,71.7L74.5,73"/>
		<path class="st4" d="M95.8,72.9L72.3,92"/>
		<path class="st4" d="M95.8,74.8L72.3,93.9"/>
		<path class="st4" d="M95.8,76.7L72.3,95.8"/>
		<path class="st4" d="M95.8,78.6L72.3,97.7"/>
		<path class="st4" d="M95.8,80.6l-23.5,19"/>
		<path class="st4" d="M95.8,82.5l-23.5,19.1"/>
		<path class="st4" d="M95.8,84.4l-23.5,19.1"/>
		<path class="st4" d="M95.8,86.3l-23.5,19.1"/>
		<path class="st4" d="M95.8,88.2L73.7,106"/>
		<path class="st4" d="M95.8,90.1L75.9,106"/>
		<path class="st4" d="M95.1,92.6l-15.7,12.7"/>
		<path class="st4" d="M94.4,95.2l-12.8,10.2"/>
		<path class="st4" d="M93,98.3l-6.4,5.1"/>
		<path class="st4" d="M74.4,74.8l20.7,16.5"/>
		<path class="st4" d="M74.4,76.7l20.7,16.5"/>
		<path class="st4" d="M74.4,78.6l19.9,15.9"/>
		<path class="st4" d="M74.4,80.6l19.9,15.9"/>
		<path class="st4" d="M74.4,82.5l19.2,15.2"/>
		<path class="st4" d="M73.7,83.7L93,99"/>
		<path class="st4" d="M73.7,85.6l17.8,14"/>
		<path class="st4" d="M73,86.9l17.8,14"/>
		<path class="st4" d="M72.3,88.2l17.1,13.3"/>
		<path class="st4" d="M72.3,90.1l16.4,12.7"/>
		<path class="st4" d="M72.3,92l14.2,11.4"/>
	</g>
	<path class="st6" d="M74.4,67.9V71c7.1,1.1,14.2,1.1,21.4,0v-3.2C88.7,68.9,81.6,68.9,74.4,67.9z"/>
	<path class="st4" d="M72.3,93.9L85.1,104"/>
	<path class="st4" d="M72.3,95.8l11.4,8.9"/>
	<path class="st4" d="M72.3,97.7l10,7.6"/>
	<path class="st4" d="M72.3,99.6l7.1,5.7"/>
	<path class="st4" d="M72.3,101.5L78,106"/>
	<path class="st4" d="M72.3,103.4l3.6,2.5"/>
	<ellipse class="st6" cx="75.4" cy="69.7" rx="1" ry="0.7"/>
	<ellipse class="st6" cx="79.3" cy="70" rx="1" ry="0.7"/>
	<ellipse class="st6" cx="83.2" cy="70.3" rx="1" ry="0.7"/>
	<ellipse class="st6" cx="87.1" cy="70.3" rx="1" ry="0.7"/>
	<ellipse class="st6" cx="91" cy="70" rx="1" ry="0.7"/>
	<ellipse class="st6" cx="94.8" cy="69.7" rx="1" ry="0.7"/>
	<g>
		<path class="st4" d="M43.8,100.9l25.6-13.3"/>
		<path class="st4" d="M42.4,100.2l24.2-12.7"/>
		<path class="st4" d="M41.7,99l22.1-11.4"/>
		<path class="st4" d="M41,97.7l19.2-10.2"/>
		<path class="st4" d="M39.5,96.4l17.8-8.9"/>
		<path class="st4" d="M40.3,94.5l12.1-6.4"/>
		<path class="st4" d="M39.5,93.3l9.3-5.1"/>
		<path class="st4" d="M39.5,91.3l6.4-3.2"/>
		<path class="st4" d="M46,101.5l24.2-12.7"/>
		<path class="st4" d="M48.1,102.1L70.9,90"/>
		<path class="st4" d="M50.2,102.8l21.4-11.4"/>
		<path class="st4" d="M52.4,103.4l17.8-9.5"/>
		<path class="st4" d="M55.2,103.4l15.7-8.3"/>
		<path class="st4" d="M57.3,104l13.5-7"/>
		<path class="st4" d="M59.5,104.7L70.2,99"/>
		<path class="st4" d="M62.3,104.7l8.5-4.4"/>
		<path class="st4" d="M65.2,105.3l5.7-3.2"/>
		<path class="st4" d="M68,105.3l3.6-1.9"/>
	</g>
	<path class="st4" d="M73,86.9h-3.6c-1.2,6.4-1.2,12.7,0,19.1H73C71.8,99.6,71.8,93.3,73,86.9z"/>
	<path class="st4" d="M31,95.8l8.5-6.4"/>
	<path class="st4" d="M31,91.3l8.5,7.6"/>
	<path class="st16" d="M43.8,88.2l-4.3,0.6c-0.9,4-0.9,7.4,0,11.4l4.3,1.3C42.9,97.5,42.9,92.2,43.8,88.2z"/>
	<path class="st6" d="M95.8,56.4v-3.2c-3.2,0-5.3-1.9-5.3-3.8H79.8c0,1.9-2.1,3.8-5.3,3.8v3.2H95.8z"/>
	<rect x="80.5" y="45.6" class="st6" width="9.1" height="3.8"/>
	<rect x="81.3" y="41.8" class="st17" width="7.6" height="3.8"/>
	<rect x="81.3" y="38" class="st17" width="7.6" height="3.8"/>
	<rect x="82.1" y="32.9" class="st6" width="6.1" height="5.1"/>
	<rect x="81.8" y="28.5" class="st6" width="6.6" height="4.4"/>
	<ellipse class="st6" cx="85.5" cy="24.4" rx="8.8" ry="6"/>
	<path class="st6" d="M89.9,24c0,1.7,2.2,4.4,2.2,4.4c-1.6,1.1-4.2,1.9-6.6,1.9s-5.5-0.5-6.6-1.9c0,0,2.2-2.8,2.2-4.4
		c0-1.7-2.2-3.8-2.2-3.8c1.6-1.1,4.2-1.9,6.6-1.9s5,0.8,6.6,1.9C92.1,20.2,89.9,22.4,89.9,24z"/>
	<path class="st6" d="M88.4,24c0,1.7,2.2,5.1,2.2,5.1c-1.6,1.1-2.7,1.3-5.2,1.3s-4,0.2-5.2-1.3c0,0,2.2-3.4,2.2-5.1
		s-2.2-4.4-2.2-4.4c1.6-1.1,2.7-1.3,5.2-1.3s3.6,0.2,5.2,1.3C90.6,19.6,88.4,22.4,88.4,24z"/>
	<ellipse class="st6" cx="76.7" cy="24.7" rx="2.2" ry="1.9"/>
	<ellipse class="st6" cx="94.3" cy="24.7" rx="2.2" ry="1.9"/>
	<ellipse class="st6" cx="85.5" cy="24.7" rx="2.2" ry="1.9"/>
	<ellipse class="st6" cx="85.5" cy="18.3" rx="2.2" ry="1.9"/>
	<ellipse class="st6" cx="79" cy="54.5" rx="2.3" ry="1.9"/>
	<ellipse class="st6" cx="91.2" cy="54.5" rx="2.3" ry="1.9"/>
	<path class="st6" d="M79.8,49.4h10.7l-5.3,5.7C85.1,55.1,79.8,49.4,79.8,49.4z"/>
	<ellipse class="st6" cx="85.1" cy="53.9" rx="3" ry="2.5"/>
	<path class="st10" d="M74.3,72.9h14.6c0.5,0,0.9,0.3,0.9,0.7v2.5c0,0.4-0.4,0.7-0.9,0.7H74.3c-0.5,0-0.9-0.3-0.9-0.7v-2.5
		C73.4,73.2,73.8,72.9,74.3,72.9z"/>
	<path class="st10" d="M94.7,69.8c-2,0-3.6,1.5-3.6,3.3V76c0,1.8,1.6,3.3,3.6,3.3s3.6-1.5,3.6-3.3v-2.9
		C98.3,71.2,96.7,69.8,94.7,69.8z M94.7,71c-1.2,0-2.1,1.2-2.1,2.7v1.7c0,1.5,1,2.7,2.1,2.7s2.1-1.2,2.1-2.7v-1.7
		C96.9,72.2,95.9,71,94.7,71z"/>
	<path class="st10" d="M76.2,70.4c-1.2,0-2.1,1.2-2.1,2.7V76c0,1.5,0.9,2.7,2.1,2.7s2.1-1.2,2.1-2.7v-2.9
		C78.4,71.6,77.4,70.4,76.2,70.4z M76.2,69.1c-2,0-3.6,1.5-3.6,3.3v4.2c0,1.8,1.6,3.3,3.6,3.3s3.6-1.5,3.6-3.3v-4.2
		C79.8,70.6,78.2,69.1,76.2,69.1z"/>
	<path class="st10" d="M70.5,71.7c-1.2,0-2.1,1.2-2.1,2.7V75c0,1.5,1,2.7,2.1,2.7c1.2,0,2.1-1.2,2.1-2.7v-0.7
		C72.7,72.9,71.7,71.7,70.5,71.7z M70.5,70.4c-2,0-3.6,1.5-3.6,3.3v1.9c0,1.8,1.6,3.3,3.6,3.3s3.6-1.5,3.6-3.3v-1.9
		C74.1,71.9,72.5,70.4,70.5,70.4z"/>
	<path class="st10" d="M62,69.9c-2.1,0-3.8,1.3-3.8,3v3.3c0,1.6,1.7,3,3.8,3s3.8-1.3,3.8-3v-3.3C65.8,71.2,64.1,69.9,62,69.9z
		 M62,68.5c-3.5,0-6.4,1.7-6.4,3.7v4.6c0,2.1,2.9,3.7,6.4,3.7s6.4-1.7,6.4-3.7v-4.6C68.4,70.2,65.5,68.5,62,68.5z"/>
	<path class="st10" d="M108.3,70.5c-2.1,0-3.9,1.3-3.9,3v3.3c0,1.6,1.7,3,3.9,3c2.1,0,3.8-1.3,3.8-3v-3.3
		C112.1,71.9,110.4,70.5,108.3,70.5z M108.3,69.1c-3.6,0-6.4,1.7-6.4,3.7v4.6c0,2.1,2.9,3.7,6.4,3.7s6.4-1.7,6.4-3.7v-4.6
		C114.7,70.8,111.8,69.1,108.3,69.1z"/>
	<path class="st10" d="M96.6,72.9h7.6c0.3,0,0.5,0.3,0.5,0.7v2.5c0,0.4-0.2,0.7-0.5,0.7h-7.6c-0.3,0-0.5-0.3-0.5-0.7v-2.5
		C96.2,73.2,96.4,72.9,96.6,72.9z"/>
	<path class="st10" d="M88.6,72.3H93c0.1,0,0.3,0.4,0.3,0.9v3.3c0,0.5-0.1,0.9-0.3,0.9h-4.4c-0.1,0-0.3-0.4-0.3-0.9v-3.3
		C88.3,72.7,88.5,72.3,88.6,72.3z"/>
	<path class="st10" d="M65.1,72.3h4.4c0.1,0,0.3,0.4,0.3,0.9v3.3c0,0.5-0.1,0.9-0.3,0.9h-4.4c-0.1,0-0.3-0.4-0.3-0.9v-3.3
		C64.8,72.7,65,72.3,65.1,72.3z"/>
	<path class="st10" d="M49.7,71.7h8.9c0.3,0,0.5,0.5,0.5,1.1v4.1c0,0.6-0.2,1.1-0.5,1.1h-8.9c-0.3,0-0.5-0.5-0.5-1.1v-4.1
		C49.2,72.2,49.4,71.7,49.7,71.7z"/>
	<path class="st10" d="M111.6,72.3h8.3c0.3,0,0.5,0.5,0.5,1.1v4.1c0,0.6-0.2,1.1-0.5,1.1h-8.3c-0.3,0-0.5-0.5-0.5-1.1v-4.1
		C111.1,72.8,111.3,72.3,111.6,72.3z"/>
</g>
</svg>
