<?xml version="1.0" encoding="utf-8"?>
<!-- Generator: Adobe Illustrator 20.0.0, SVG Export Plug-In . SVG Version: 6.00 Build 0)  -->
<!DOCTYPE svg PUBLIC "-//W3C//DTD SVG 1.1//EN" "http://www.w3.org/Graphics/SVG/1.1/DTD/svg11.dtd">
<svg version="1.1" id="Layer_1" xmlns="http://www.w3.org/2000/svg" xmlns:xlink="http://www.w3.org/1999/xlink" x="0px" y="0px"
	 viewBox="0 0 800 480" style="enable-background:new 0 0 800 480;" xml:space="preserve">
<style type="text/css">
	.st0{display:none;fill:#FFFFFF;}
	.st1{fill:#DB0000;}
	.st2{fill:#0000AB;}
	.st3{fill:#D80000;}
</style>
<g>
	<g>
		<path class="st0" d="M0,0h640v480H0V0z"/>
		<path class="st0" d="M92.5,0h477.2v480H92.5V0z"/>
		<path class="st1" d="M400,0h400v240H400V0z"/>
		<path class="st2" d="M0,240h400v240H0V240z M242.1,177.7l-42-29.3l-41.8,29.6l15.5-48.1l-41.7-29.7l51.6-0.4l16-48l16.3,47.9
			l51.6,0.1l-41.5,30L242.1,177.7L242.1,177.7z"/>
		<path class="st3" d="M642.5,413.9l-42.4-27.7l-42.1,28l15.7-45.5l-42.1-28.1l52-0.4l16.1-45.4l16.5,45.3l52,0.1l-41.9,28.4
			L642.5,413.9L642.5,413.9z"/>
	</g>
</g>
</svg>
