<?xml version="1.0" encoding="utf-8"?>
<!-- Generator: Adobe Illustrator 20.0.0, SVG Export Plug-In . SVG Version: 6.00 Build 0)  -->
<!DOCTYPE svg PUBLIC "-//W3C//DTD SVG 1.1//EN" "http://www.w3.org/Graphics/SVG/1.1/DTD/svg11.dtd">
<svg version="1.1" id="Layer_1" xmlns="http://www.w3.org/2000/svg" xmlns:xlink="http://www.w3.org/1999/xlink" x="0px" y="0px"
	 viewBox="0 0 800 480" style="enable-background:new 0 0 800 480;" xml:space="preserve">
<style type="text/css">
	.st0{fill:#0038A8;}
	.st1{fill:#CE1126;}
	.st2{fill:#FFFFFF;}
	.st3{fill:#FCD116;}
</style>
<path class="st0" d="M0,0h800v240H0V0z"/>
<path class="st1" d="M0,240h800v240H0V240z"/>
<path class="st2" d="M415.7,240L0,480V0"/>
<g>
	<circle class="st3" cx="0" cy="0" r="9"/>
	<g>
		<g>
			<g id="b">
				<path class="st3" d="M-19,0l1.2,1.2L0,0l-17.8-1.2L-19,0z"/>
				<path id="a" class="st3" d="M-17,2.2l1,1L0,0L-17,2.2z"/>
				<g transform="scale(1 -1)">
					<path id="a_1_" class="st3" d="M-17-2.2l1-1L0,0L-17-2.2z"/>
				</g>
			</g>
			<g id="c">
				<g id="b_1_">
					<path class="st3" d="M-13.4-13.4v1.7L0,0l-11.8-13.4H-13.4z"/>
					<path id="a_2_" class="st3" d="M-13.6-10.4l0,1.4L0,0L-13.6-10.4z"/>
					<g transform="rotate(45)">
						<path id="a_3_" class="st3" d="M-10.4-13.6h1.4L0,0L-10.4-13.6z"/>
					</g>
				</g>
			</g>
			<g>
				<g id="d">
					<g id="b_2_">
						<path class="st3" d="M0-19l-1.2,1.2L0,0l1.2-17.8L0-19z"/>
						<path id="a_4_" class="st3" d="M-2.2-17l-1,1L0,0L-2.2-17z"/>
						<g transform="scale(1 -1)">
							<path id="a_5_" class="st3" d="M2.2-17l1,1L0,0L2.2-17z"/>
						</g>
					</g>
					<g id="c_1_">
						<g id="b_3_">
							<path class="st3" d="M13.4-13.4h-1.7L0,0l13.4-11.8V-13.4z"/>
							<path id="a_6_" class="st3" d="M10.4-13.6H9.1L0,0L10.4-13.6z"/>
							<g transform="rotate(90)">
								<path id="a_7_" class="st3" d="M13.6-10.4v1.4L0,0L13.6-10.4z"/>
							</g>
						</g>
					</g>
				</g>
				<g>
					<g>
						<g>
							<g id="b_4_">
								<path class="st3" d="M19,0l-1.2-1.2L0,0l17.8,1.2L19,0z"/>
								<path id="a_8_" class="st3" d="M17-2.2l-1-1L0,0L17-2.2z"/>
								<g transform="scale(1 -1)">
									<path id="a_9_" class="st3" d="M17,2.2l-1,1L0,0L17,2.2z"/>
								</g>
							</g>
							<g id="c_2_">
								<g id="b_5_">
									<path class="st3" d="M13.4,13.4v-1.7L0,0l11.8,13.4H13.4z"/>
									<path id="a_10_" class="st3" d="M13.6,10.4V9.1L0,0L13.6,10.4z"/>
									<g transform="rotate(45)">
										<path id="a_11_" class="st3" d="M10.4,13.6H9.1L0,0L10.4,13.6z"/>
									</g>
								</g>
							</g>
							<g>
								<g id="d_1_">
									<g id="b_6_">
										<path class="st3" d="M0,19l1.2-1.2L0,0l-1.2,17.8L0,19z"/>
										<path id="a_12_" class="st3" d="M2.2,17l1-1L0,0L2.2,17z"/>
										<g transform="scale(1 -1)">
											<path id="a_13_" class="st3" d="M-2.2,17l-1-1L0,0L-2.2,17z"/>
										</g>
									</g>
									<g id="c_3_">
										<g id="b_7_">
											<path class="st3" d="M-13.4,13.4h1.7L0,0l-13.4,11.8V13.4z"/>
											<path id="a_14_" class="st3" d="M-10.4,13.6h1.4L0,0L-10.4,13.6z"/>
											<g transform="scale(-1)">
												<path id="a_15_" class="st3" d="M-13.6,10.4l0-1.4L0,0L-13.6,10.4z"/>
											</g>
										</g>
									</g>
								</g>
								<g>
									<g id="f" transform="translate(37.962)">
										<path id="e" class="st3" d="M5,0L1.6,1.2L1.5,4.8l-2.2-2.9l-3.4,1L-2,0H5z"/>
										<g transform="scale(1 -1)">
											<path id="e_1_" class="st3" d="M5,0L1.6-1.2L1.5-4.8l-2.2,2.9l-3.4-1L-2,0H5z"/>
										</g>
									</g>
									<g transform="translate(149.333 240) scale(5.33333)">
										<g id="f_1_" transform="translate(37.962)">
											<path id="e_2_" class="st3" d="M-59.4,37.2l0.7-3.5l-3.1-1.9l3.6-0.4l0.8-3.5l1.5,3.2L-59.4,37.2z"/>
											<g transform="rotate(120)">
												<path id="e_3_" class="st3" d="M-59.4,37.2l2.7-2.3l3.1,1.7l-1.4-3.3l2.6-2.4l-3.6,0.3L-59.4,37.2z"/>
											</g>
										</g>
										<g transform="translate(-2.02)">
											<g id="f_2_" transform="translate(37.962)">
												<path id="e_4_" class="st3" d="M-59.4-37.2l2.7,2.3l3.1-1.7l-1.4,3.3l2.6,2.4l-3.6-0.3L-59.4-37.2z"/>
												<g transform="rotate(-120)">
													<path id="e_5_" class="st3" d="M-59.4-37.2l0.7,3.5l-3.1,1.9l3.6,0.4l0.8,3.5l1.5-3.2L-59.4-37.2z"/>
												</g>
											</g>
										</g>
									</g>
								</g>
							</g>
						</g>
					</g>
				</g>
			</g>
		</g>
	</g>
</g>
</svg>
