<?xml version="1.0" encoding="utf-8"?>
<!-- Generator: Adobe Illustrator 20.0.0, SVG Export Plug-In . SVG Version: 6.00 Build 0)  -->
<!DOCTYPE svg PUBLIC "-//W3C//DTD SVG 1.1//EN" "http://www.w3.org/Graphics/SVG/1.1/DTD/svg11.dtd">
<svg version="1.1" id="Layer_1" xmlns="http://www.w3.org/2000/svg" xmlns:xlink="http://www.w3.org/1999/xlink" x="0px" y="0px"
	 viewBox="0 0 800 480" style="enable-background:new 0 0 800 480;" xml:space="preserve">
<style type="text/css">
	.st0{fill:#0C590B;}
	.st1{fill:#FFFFFF;}
</style>
<g>
	<g transform="translate(49.063) scale(.9375)">
		<path class="st0" d="M-52.3,0H801v512H-52.3V0z"/>
		<path class="st1" d="M-52.3,0h242.1v512H-52.3V0z"/>
		<g>
			<path class="st1" d="M607.4,217l-37.5-7.9l-19.7,32.9l-4.1-38.1l-37.3-8.6l35-15.7l-3.4-38.2l25.7,28.4l35.3-15l-19.1,33.2
				L607.4,217L607.4,217z"/>
			<path class="st1" d="M621.6,314.1c-33.3,73.3-120.7,105.4-194.2,71.3c-73.6-34.1-105.6-121.4-71.5-195
				c17.4-37.5,45.8-63.3,86-77.4c-4.6,3.9-9.2,8-14.2,13.1c-51.9,53.5-50.5,139.1,3,191C484.2,368.9,569.7,367.6,621.6,314.1
				L621.6,314.1z"/>
		</g>
	</g>
</g>
</svg>
