<?xml version="1.0" encoding="utf-8"?>
<!-- Generator: Adobe Illustrator 20.0.0, SVG Export Plug-In . SVG Version: 6.00 Build 0)  -->
<!DOCTYPE svg PUBLIC "-//W3C//DTD SVG 1.1//EN" "http://www.w3.org/Graphics/SVG/1.1/DTD/svg11.dtd">
<svg version="1.1" id="Layer_1" xmlns="http://www.w3.org/2000/svg" xmlns:xlink="http://www.w3.org/1999/xlink" x="0px" y="0px"
	 viewBox="0 0 800 480" style="enable-background:new 0 0 800 480;" xml:space="preserve">
<style type="text/css">
	.st0{fill:#0038A8;}
	.st1{fill:#FFFFFF;}
	.st2{fill:#D52B1E;}
	.st3{fill:none;stroke:#000000;stroke-width:1.076;}
	.st4{fill:none;stroke:#000000;stroke-width:0.478;}
	.st5{fill:none;stroke:#000000;stroke-width:0.438;}
	.st6{fill:#009B3A;stroke:#000000;stroke-width:0.145;}
	.st7{fill:#FEDF00;stroke:#000000;stroke-width:0.435;}
</style>
<path class="st0" d="M0,319.7h800V480H0V319.7z"/>
<path class="st1" d="M0,160h800v160H0V160z"/>
<path class="st2" d="M0,0h800v160H0V0z"/>
<g transform="translate(-116.364) scale(1.45455)">
	<circle class="st3" cx="355" cy="165" r="42.2"/>
	<circle class="st4" cx="355" cy="165" r="34.7"/>
	<circle class="st5" cx="355" cy="165" r="26.6"/>
</g>
<path d="M367.3,263.7l-7.1,4.2l-2.2-3.7c-0.4-0.7-0.7-1.2-0.8-1.7c-0.1-0.4-0.1-0.9,0.1-1.3c0.2-0.4,0.5-0.7,1-1
	c0.4-0.2,0.8-0.4,1.2-0.4c0.4,0,0.8,0.1,1.1,0.3c0.2,0.1,0.5,0.3,0.7,0.6c-0.1-0.3-0.1-0.6-0.1-0.7c0-0.1,0.1-0.3,0.2-0.6
	s0.2-0.5,0.3-0.6l1.4-2.3l1.5,2.5l-1.5,2.5c-0.2,0.3-0.3,0.6-0.3,0.7c0,0.2,0,0.4,0.2,0.6l0.1,0.2l2.9-1.7L367.3,263.7z M361.8,264
	l-0.5-0.9c-0.1-0.1-0.2-0.3-0.4-0.5c-0.1-0.1-0.3-0.2-0.4-0.2c-0.2,0-0.3,0-0.5,0.1c-0.2,0.1-0.4,0.3-0.4,0.5c0,0.2,0.1,0.5,0.3,0.9
	l0.6,1L361.8,264z M355.1,258.5l-2.2-6.5l1.7-0.6l1.4,4.1l1.2-0.4l-1.3-3.8l1.6-0.5l1.3,3.8l1.5-0.5l-1.4-4.2l1.8-0.6l2.2,6.6
	L355.1,258.5z M352.2,248.8l-0.5-4.2c-0.1-0.9,0-1.6,0.4-2.1c0.4-0.5,1-0.8,1.8-0.9c0.8-0.1,1.5,0.1,2,0.5c0.5,0.4,0.8,1.2,1,2.2
	l0.2,1.4l3-0.3l0.3,2.6L352.2,248.8z M355.4,245.9l-0.1-0.6c-0.1-0.5-0.2-0.8-0.4-1c-0.2-0.2-0.4-0.3-0.7-0.2
	c-0.2,0-0.5,0.1-0.6,0.3c-0.2,0.2-0.2,0.5-0.2,1l0.1,0.7L355.4,245.9z M352,233.3l0.3-2.5l4.9,0.5c0.5,0,0.9,0.2,1.4,0.4
	c0.4,0.2,0.8,0.5,1.1,0.8c0.3,0.4,0.5,0.7,0.6,1.1c0.1,0.5,0.2,1.1,0.1,1.8c0,0.4-0.1,0.8-0.2,1.3c-0.1,0.5-0.3,0.9-0.5,1.2
	c-0.2,0.3-0.5,0.6-0.8,0.8c-0.3,0.2-0.7,0.4-1,0.4c-0.5,0.1-1,0.1-1.4,0.1l-4.9-0.5l0.3-2.5l5,0.5c0.5,0,0.8,0,1.1-0.3
	c0.3-0.2,0.4-0.6,0.5-1c0-0.4,0-0.8-0.3-1.1c-0.2-0.3-0.6-0.4-1-0.5L352,233.3z M353.1,227.2l1.6-4.5c0.3-0.8,0.7-1.3,1.2-1.5
	c0.5-0.3,1.1-0.3,1.6-0.1c0.5,0.2,0.8,0.4,1,0.8c0.2,0.3,0.2,0.6,0.2,1c0.3-0.5,0.7-0.8,1.1-1c0.4-0.1,0.9-0.1,1.4,0
	c0.4,0.1,0.7,0.4,1,0.7c0.3,0.3,0.4,0.6,0.5,1c0,0.2,0,0.6-0.1,1c-0.1,0.6-0.2,0.9-0.3,1.1l-1.5,4.2L353.1,227.2z M357,225.9
	l0.4-1.1c0.1-0.4,0.2-0.7,0.1-0.9c-0.1-0.2-0.2-0.3-0.5-0.4c-0.2-0.1-0.4-0.1-0.6,0c-0.2,0.1-0.3,0.3-0.5,0.7l-0.4,1.1L357,225.9z
	 M360.1,226.9l0.4-1.2c0.1-0.4,0.2-0.7,0.1-1c-0.1-0.2-0.3-0.4-0.5-0.5c-0.2-0.1-0.5-0.1-0.6,0.1c-0.2,0.1-0.4,0.4-0.5,0.8l-0.4,1.2
	L360.1,226.9z M357,217.3l1.3-2.2l5.3,3.2l2.1-3.4l1.7,1.1l-3.4,5.6L357,217.3z M362,209.7l1.6-2l6.4,5.3l-1.6,2L362,209.7z
	 M373.1,205.4l2.1-0.9c0.3,0.6,0.5,1.1,0.5,1.7c0,0.5-0.1,1-0.3,1.5c-0.2,0.5-0.6,1-1.2,1.4c-0.7,0.6-1.3,1-1.9,1.1
	c-0.6,0.2-1.3,0.1-2-0.1c-0.7-0.2-1.5-0.7-2.1-1.5c-0.9-1-1.3-2.1-1.2-3.1c0.1-1,0.6-2,1.6-2.9c0.8-0.7,1.5-1.1,2.3-1.1
	c0.7-0.1,1.5,0.1,2.3,0.6l-1.4,1.9c-0.2-0.1-0.4-0.2-0.5-0.3c-0.2-0.1-0.5-0.1-0.7,0c-0.2,0.1-0.4,0.2-0.6,0.3
	c-0.4,0.4-0.6,0.8-0.6,1.4c0,0.4,0.3,0.9,0.8,1.5c0.6,0.7,1.1,1.1,1.5,1.2c0.4,0.1,0.8-0.1,1.2-0.4c0.4-0.3,0.6-0.7,0.6-1
	C373.5,206.3,373.4,205.9,373.1,205.4L373.1,205.4z M381.9,202.2l-2.6,1.4l0.3,1.4l-2.3,1.2l-1.1-8.8l2.5-1.3l6.6,5.8l-2.4,1.3
	L381.9,202.2z M380.6,200.9l-2.2-2.2l0.6,3.1L380.6,200.9z M388.4,192.4l3.7-0.6c0.7-0.1,1.4-0.1,1.8,0c0.5,0.1,0.9,0.3,1.3,0.7
	c0.4,0.3,0.6,0.7,0.9,1.2c0.2,0.5,0.4,1,0.5,1.5c0.1,0.9,0.2,1.6,0.1,2.1c-0.1,0.5-0.3,1-0.6,1.4c-0.3,0.4-0.6,0.7-1,0.8
	c-0.5,0.2-1,0.4-1.5,0.5l-3.7,0.6L388.4,192.4z M391.3,193.8l0.8,4.5l0.6-0.1c0.5-0.1,0.9-0.2,1.1-0.4c0.2-0.2,0.3-0.4,0.4-0.7
	c0.1-0.3,0.1-0.8-0.1-1.4c-0.1-0.9-0.4-1.4-0.7-1.7c-0.3-0.3-0.8-0.4-1.5-0.2L391.3,193.8z M399.1,191l6.8,0.3l-0.1,1.8l-4.3-0.2
	l-0.1,1.3l4,0.2l-0.1,1.7l-4-0.2l-0.1,1.6l4.4,0.2l-0.1,1.9l-7-0.3L399.1,191z M409,191.8l2.5,0.6l-1.5,6.1l3.9,0.9l-0.5,2l-6.4-1.6
	L409,191.8z M422.3,196.2l3.7,2.2c0.8,0.5,1.3,1,1.5,1.6c0.2,0.6,0.1,1.3-0.4,2c-0.4,0.7-1,1.2-1.6,1.3c-0.7,0.1-1.5,0-2.3-0.6
	l-1.2-0.7l-1.6,2.6l-2.2-1.3L422.3,196.2z M422.7,200.5l0.5,0.3c0.4,0.3,0.8,0.4,1,0.3c0.3,0,0.5-0.2,0.6-0.4
	c0.1-0.2,0.2-0.5,0.1-0.7c-0.1-0.2-0.3-0.5-0.7-0.7l-0.6-0.4L422.7,200.5z M429.9,210.2l-2.1-2l-1.2,0.7l-1.9-1.8l7.9-3.9l2,1.9
	l-3.4,8.2l-2-1.8L429.9,210.2z M430.7,208.5l1.4-2.8l-2.7,1.6L430.7,208.5z M431.7,214l6.8-4.7l2.4,3.5c0.4,0.7,0.7,1.2,0.9,1.6
	c0.1,0.4,0.1,0.8,0,1.3c-0.2,0.4-0.5,0.8-0.9,1.1c-0.4,0.3-0.8,0.4-1.1,0.4c-0.4,0-0.8,0-1.1-0.2c-0.2-0.1-0.5-0.3-0.8-0.6
	c0.1,0.3,0.1,0.6,0.1,0.7c0,0.1,0,0.3-0.1,0.6c-0.1,0.2-0.1,0.4-0.2,0.6l-1.3,2.4l-1.6-2.4l1.3-2.6c0.2-0.3,0.3-0.6,0.3-0.7
	c0-0.2-0.1-0.4-0.2-0.6l-0.1-0.2l-2.8,1.9L431.7,214z M437.2,213.4l0.6,0.9c0.1,0.1,0.2,0.3,0.5,0.5c0.1,0.1,0.3,0.2,0.5,0.2
	c0.2,0,0.3,0,0.5-0.1c0.2-0.1,0.3-0.3,0.4-0.6c0-0.2-0.1-0.5-0.4-0.9l-0.6-0.9L437.2,213.4z M439.8,225.7l-1.1-2.7l-1.4,0.1l-1-2.4
	l8.8-0.2l1,2.6l-6.5,6l-1-2.5L439.8,225.7z M441.3,224.6l2.4-2l-3.1,0.3L441.3,224.6z M443.4,233.6l1.7-0.3l0.6,3.9l-3.5,0.5
	c-0.6-0.7-1.1-1.3-1.3-1.8c-0.3-0.5-0.5-1.2-0.6-2c-0.1-1-0.1-1.8,0.1-2.4c0.2-0.7,0.7-1.2,1.3-1.6c0.6-0.4,1.3-0.7,2.2-0.8
	c0.9-0.1,1.7-0.1,2.4,0.2c0.7,0.3,1.3,0.8,1.7,1.4c0.3,0.5,0.6,1.2,0.7,2.2c0.1,0.9,0.2,1.6,0.1,2.1c-0.1,0.5-0.3,0.9-0.6,1.2
	c-0.3,0.4-0.7,0.6-1.2,0.9l-0.8-2.4c0.3-0.1,0.5-0.4,0.6-0.6s0.2-0.6,0.1-1c-0.1-0.6-0.3-1-0.8-1.2c-0.4-0.3-1.1-0.3-1.9-0.2
	c-0.9,0.1-1.5,0.4-1.8,0.8c-0.3,0.4-0.5,0.9-0.4,1.5c0,0.3,0.1,0.5,0.2,0.8c0.1,0.2,0.3,0.5,0.6,0.8l0.8-0.1L443.4,233.6z
	 M448.8,245.6l-0.2,2.5l-4.9-0.4c-0.5,0-0.9-0.2-1.4-0.4c-0.4-0.2-0.8-0.5-1.1-0.8c-0.3-0.4-0.5-0.7-0.6-1.1
	c-0.1-0.5-0.2-1.1-0.1-1.8c0-0.4,0.1-0.8,0.2-1.3c0.1-0.5,0.2-0.9,0.4-1.2c0.2-0.3,0.5-0.6,0.8-0.8c0.3-0.2,0.7-0.4,1-0.5
	c0.5-0.1,1-0.1,1.4-0.1l4.9,0.4l-0.2,2.5l-5-0.4c-0.5,0-0.8,0.1-1.1,0.3c-0.3,0.2-0.4,0.6-0.5,1c0,0.4,0.1,0.8,0.3,1.1
	c0.2,0.3,0.6,0.4,1,0.5L448.8,245.6z M439.7,254.4l0.9-2.8l-1.2-0.8l0.8-2.5l6.9,5.5l-0.9,2.6l-8.8,0.4l0.8-2.5L439.7,254.4z
	 M441.5,254.5l3.1,0.1l-2.5-1.8L441.5,254.5z M444.5,261.2l-1.5,2.4l-3.3,0l1.5,2.9l-1.5,2.4l-2.5-5.2l-3-1.8l1.3-2.2l3,1.8
	L444.5,261.2z"/>
<g>
	<path class="st6" d="M408.1,211.3c0,0,23.4,10.1,19.3,30.8s-17.1,20.6-22.2,22.9c-5.1,2.3-8.6,5.6-10.6,5.1c-2-0.5-4.7-2-4.7-2
		s-0.2,3.4,3.9,4c4.1,0.6,9.5-5.4,12.1-6.1c2.6-0.7,18.5-2.4,22.3-23.5C432.7,220.1,408.3,212,408.1,211.3L408.1,211.3z"/>
	<path class="st6" d="M419.9,215.8c0.4,1.7,0.4,3.1,0,3.2c-0.4,0-1.1-1.3-1.6-3c-0.4-1.7-0.4-3.1,0-3.2
		C418.8,212.7,419.5,214.1,419.9,215.8L419.9,215.8z"/>
	<path class="st6" d="M419.1,216c0.8,1.6,1.2,3.1,0.8,3.2c-0.4,0.1-1.4-1.1-2.2-2.7l0,0c-0.8-1.6-1.1-3-0.7-3.1
		C417.4,213.3,418.3,214.4,419.1,216L419.1,216z M416.8,217.5c1.7,0.5,2.9,1.2,2.8,1.7c-0.1,0.4-1.4,0.4-3-0.1
		c-1.7-0.5-2.9-1.2-2.9-1.7C413.8,217,415.1,217.1,416.8,217.5L416.8,217.5z"/>
	<path class="st6" d="M417.1,216.7c1.5,1,2.6,2.1,2.4,2.5s-1.5-0.1-3-1.1c0,0,0,0,0,0c-1.5-1-2.6-2.1-2.4-2.5
		C414.2,215.1,415.5,215.6,417.1,216.7C417.1,216.6,417.1,216.7,417.1,216.7z"/>
	<path class="st6" d="M418.1,216.3c1.3,1.3,2.1,2.6,1.8,2.9c-0.3,0.3-1.5-0.6-2.8-1.9l0,0c-1.3-1.3-2.1-2.6-1.8-2.9
		S416.8,214.9,418.1,216.3L418.1,216.3z"/>
	<path class="st6" d="M419.7,219.2c0,0-0.9,0.5-1.1,0.6c-0.2,0.1-0.5-0.3-1.1,0c-0.6,0.3-1,0.9-1.1,1.2s0.2,0.5,0.9,0.1
		c0.7-0.4,0.9-0.9,1.3-1.1c0.3-0.2,0.9-0.5,1.3-0.7c0.1-0.3,0.6-1,0.9-1.4c0.2-0.4,1.2-1,1.5-1.8c0.3-0.6,0.2-1.1-0.2-0.9
		c-0.4,0.2-0.9,0.8-1.2,1.3c-0.2,0.4,0,1-0.3,1.4C420.3,218.3,419.8,219.2,419.7,219.2L419.7,219.2z M427,221.6
		c0.1,2.7-0.4,4.8-1,4.7c-0.6-0.1-1.1-2.2-1.2-4.9c0-0.1,0-0.2,0-0.3c-0.1-2.7,0.4-4.8,1-4.7c0.6,0.1,1.1,2.2,1.2,4.9
		C427,221.4,427,221.5,427,221.6z"/>
	<path class="st6" d="M425.7,221.5c0.6,2.7,0.6,5,0.1,5.1c-0.6,0.1-1.5-2-2.1-4.7c0-0.1,0-0.2-0.1-0.3c-0.6-2.7-0.6-5-0.1-5.1
		s1.5,2,2.1,4.7C425.7,221.4,425.7,221.5,425.7,221.5z"/>
	<path class="st6" d="M422,222.7c2.1,1.4,3.8,3.1,3.6,3.7c-0.1,0.6-2,0-4.1-1.4c-0.1-0.1-0.2-0.1-0.2-0.2c-2.1-1.4-3.8-3.1-3.6-3.7
		c0.1-0.6,2,0,4.1,1.4C421.9,222.6,421.9,222.7,422,222.7z"/>
	<path class="st6" d="M422.8,221.6c1.7,2.1,2.8,4.2,2.3,4.5c-0.4,0.3-2-0.9-3.7-2.9c-1.8-2.1-3-4.2-2.7-4.8c0.3-0.5,2,0.7,3.7,2.8
		C422.6,221.4,422.7,221.5,422.8,221.6L422.8,221.6z"/>
	<path class="st6" d="M424.3,221.5c1.4,2.5,2.1,4.8,1.7,5.2c-0.4,0.4-1.9-1.3-3.2-3.7c-0.1-0.1-0.2-0.3-0.2-0.4
		c-1.4-2.5-2.1-4.8-1.7-5.2s1.9,1.3,3.2,3.8C424.1,221.2,424.2,221.4,424.3,221.5L424.3,221.5z"/>
	<path class="st6" d="M425.6,226.4c0,0-1.4,0.3-1.7,0.3c-0.3,0-0.6-0.6-1.5-0.4c-0.9,0.2-1.7,0.8-2,1.2c-0.3,0.4,0.1,0.7,1.2,0.6
		c1.1-0.2,1.6-0.9,2.1-1c0.6-0.2,1.5-0.4,2-0.4c0.3-0.4,1.2-1.1,1.6-1.6c0.5-0.4,2-0.9,2.7-1.8c0.6-0.7,0.6-1.5,0-1.4
		c-0.6,0.1-1.6,0.8-2,1.3c-0.5,0.5-0.4,1.4-0.9,1.9C426.6,225.4,425.6,226.5,425.6,226.4L425.6,226.4z M430.7,231.3
		c-0.4,2.6-1.3,4.5-1.8,4.3c-0.6-0.3-0.7-2.6-0.2-5.2c0.4-2.6,1.3-4.5,1.8-4.3C431.1,226.3,431.2,228.6,430.7,231.3L430.7,231.3z"/>
	<path class="st6" d="M429.6,231c0.1,2.8-0.3,5.1-0.8,5.2c-0.6,0.1-1.1-2.1-1.2-4.9c0-0.2,0-0.4,0-0.6c-0.1-2.8,0.3-5.1,0.8-5.1
		c0.6-0.1,1.1,2.1,1.2,4.9C429.6,230.6,429.6,230.8,429.6,231L429.6,231z"/>
	<path class="st6" d="M425.7,231.4c1.8,1.8,3.1,3.8,2.8,4.4c-0.3,0.6-2-0.4-3.8-2.2c0,0-0.1-0.1-0.1-0.1c-1.8-1.8-3.1-3.8-2.8-4.4
		s2,0.4,3.8,2.2C425.6,231.3,425.7,231.4,425.7,231.4z"/>
	<path class="st6" d="M426.7,230.5c1.3,2.4,2.1,4.7,1.6,5.1c-0.4,0.4-1.9-1.3-3.2-3.7c0,0,0-0.1-0.1-0.1c-1.3-2.4-2.1-4.7-1.7-5.2
		c0.4-0.4,1.8,1.2,3.2,3.6C426.6,230.4,426.6,230.4,426.7,230.5L426.7,230.5z"/>
	<path class="st6" d="M428.1,230.7c0.9,2.7,1.2,5.1,0.7,5.4s-1.6-1.7-2.5-4.4c0-0.1-0.1-0.2-0.1-0.4c-0.9-2.7-1.2-5.1-0.7-5.4
		c0.5-0.3,1.6,1.7,2.5,4.4C428.1,230.4,428.1,230.5,428.1,230.7z"/>
	<path class="st6" d="M428.5,235.8c0,0-1.4,0-1.8,0c-0.3,0-0.5-0.7-1.4-0.7c-0.9,0-1.8,0.5-2.1,0.8c-0.4,0.4-0.1,0.7,1.1,0.8
		c1.1,0,1.7-0.6,2.3-0.6c0.6,0,1.5-0.1,2,0c0.4-0.3,1.3-0.9,1.9-1.3c0.5-0.4,2.1-0.5,3-1.3c0.7-0.6,0.9-1.4,0.3-1.4
		s-1.7,0.5-2.2,0.9c-0.6,0.4-0.6,1.3-1.2,1.7C429.8,234.9,428.6,235.8,428.5,235.8 M431,242.1c-1.4,2.2-2.9,3.6-3.2,3
		c-0.3-0.5,0.4-2.6,1.8-4.7c1.4-2.2,2.9-3.6,3.3-3.1C433.2,237.8,432.4,239.9,431,242.1"/>
	<path class="st6" d="M430.1,241.3c-1,2.6-2.2,4.5-2.7,4.2c-0.5-0.3-0.1-2.7,0.9-5.3l0,0c1-2.6,2.2-4.5,2.7-4.2
		C431.5,236.3,431.1,238.7,430.1,241.3L430.1,241.3 M426.4,240.1c0.9,2.4,1.3,4.8,0.8,5.1c-0.5,0.4-1.7-1.3-2.6-3.7
		c-0.9-2.4-1.3-4.8-0.8-5.1C424.3,236,425.5,237.7,426.4,240.1C426.4,240.1,426.4,240.1,426.4,240.1"/>
	<path class="st6" d="M427.6,239.7c0.3,2.8,0,5.2-0.5,5.4c-0.5,0.2-1.2-2-1.5-4.8c0,0,0,0,0,0c-0.3-2.8,0-5.2,0.5-5.4
		S427.4,236.9,427.6,239.7"/>
	<path class="st6" d="M428.9,240.4c-0.3,2.9-0.9,5.1-1.5,5.1c-0.5,0-0.8-2.4-0.5-5.3c0.3-2.9,0.9-5.2,1.5-5.2
		C429,235.2,429.2,237.5,428.9,240.4C428.9,240.4,428.9,240.4,428.9,240.4"/>
	<path class="st6" d="M427.3,245.3c0,0-1.3-0.6-1.6-0.7c-0.3-0.2-0.1-0.9-1-1.3c-0.8-0.4-1.8-0.3-2.2-0.1c-0.5,0.2-0.3,0.7,0.7,1.2
		c1,0.5,1.7,0.2,2.3,0.4c0.5,0.2,1.4,0.6,1.8,0.8c0.5-0.1,1.6-0.3,2.2-0.4c0.6-0.1,2.1,0.4,3.2,0c0.9-0.3,1.4-0.9,0.8-1.2
		c-0.6-0.3-1.7-0.2-2.4-0.1c-0.7,0.2-1.1,1-1.8,1.1C428.7,245.1,427.3,245.4,427.3,245.3 M428.1,253c-2.3,2-4.4,3-4.7,2.4
		s1.3-2.8,3.6-4.8c2.3-2,4.4-3,4.7-2.4C432.1,248.9,430.4,251,428.1,253L428.1,253"/>
	<path class="st6" d="M427.3,251.9c-2,2.5-3.9,4.2-4.4,3.7c-0.5-0.5,0.7-2.9,2.7-5.4c0-0.1,0.1-0.1,0.1-0.2c2-2.5,3.9-4.2,4.4-3.7
		c0.5,0.5-0.7,2.9-2.7,5.4C427.4,251.7,427.4,251.8,427.3,251.9"/>
	<path class="st6" d="M423.7,249.2c0.2,3-0.1,5.7-0.8,6c-0.7,0.3-1.4-2-1.6-5.1s0.1-5.7,0.8-6C422.7,243.9,423.5,246.2,423.7,249.2"
		/>
	<path class="st6" d="M425.1,249.1c-0.6,3.2-1.7,5.8-2.3,5.7c-0.7,0-0.7-2.6,0-5.8l0,0c0.6-3.2,1.7-5.8,2.3-5.7
		C425.8,243.3,425.8,246,425.1,249.1"/>
	<path class="st6" d="M426.3,250.4c-1.2,3.1-2.7,5.3-3.3,5.1c-0.6-0.2-0.1-2.9,1.2-6l0,0c1.2-3.1,2.7-5.3,3.3-5.1
		C428.1,244.7,427.6,247.4,426.3,250.4L426.3,250.4"/>
	<path class="st6" d="M422.9,255.3c0,0-1.3-1.1-1.5-1.4c-0.2-0.3,0.1-1-0.7-1.7c-0.8-0.7-1.9-1-2.4-1c-0.6,0-0.6,0.6,0.3,1.5
		s1.9,0.8,2.4,1.2c0.5,0.4,1.3,1.1,1.7,1.6c0.5,0,1.8,0.3,2.5,0.4c0.7,0.1,2.2,1.2,3.5,1.2c1.1,0,1.8-0.5,1.2-1
		c-0.6-0.5-1.8-0.9-2.6-0.9c-0.8-0.1-1.5,0.7-2.3,0.6C424.6,255.5,422.9,255.3,422.9,255.3 M420.6,262.6c-3.3,0.6-6,0.4-6-0.4
		c0-0.8,2.7-1.9,6-2.4c0.1,0,0.2,0,0.3,0c3.3-0.6,6-0.4,6,0.4c0,0.8-2.6,1.9-5.9,2.5C420.9,262.6,420.8,262.6,420.6,262.6"/>
	<path class="st6" d="M420.5,261c-3.3,1.3-6,1.7-6.2,0.9c-0.1-0.7,2.4-2.4,5.7-3.6l0,0c3.3-1.3,6-1.7,6.2-0.9
		C426.3,258.2,423.8,259.8,420.5,261"/>
	<path class="st6" d="M418.4,256.4c-1.5,3-3.2,5.3-4,5.1c-0.7-0.2-0.2-2.7,1.2-5.6c1.4-3,3.2-5.4,4.1-5.3c0.8,0.1,0.3,2.6-1.1,5.7
		C418.5,256.3,418.4,256.4,418.4,256.4"/>
	<path class="st6" d="M419.9,257.2c-2.4,2.7-4.8,4.5-5.4,4.1c-0.6-0.4,0.8-2.9,3.2-5.6l0,0c2.4-2.7,4.8-4.5,5.4-4.1
		C423.6,252,422.2,254.5,419.9,257.2"/>
	<path class="st6" d="M420.3,259.1c-2.9,2.2-5.6,3.5-6,2.9c-0.4-0.6,1.5-2.8,4.4-5c2.9-2.2,5.6-3.5,6-2.9
		C425.1,254.7,423.2,256.9,420.3,259.1L420.3,259.1"/>
	<path class="st6" d="M414.4,261.7c0,0-0.6-1.8-0.7-2.2c-0.1-0.4,0.7-0.9,0.3-2c-0.4-1.2-1.3-2-1.8-2.3c-0.6-0.3-0.9,0.2-0.5,1.6
		c0.4,1.4,1.4,1.9,1.6,2.5c0.3,0.7,0.7,1.8,0.8,2.5c0.5,0.3,1.6,1.3,2.2,1.8c0.6,0.5,1.5,2.4,2.7,3.2c1,0.7,2,0.5,1.8-0.3
		c-0.3-0.8-1.2-1.9-2-2.4c-0.7-0.5-1.8-0.2-2.5-0.8C415.9,262.9,414.3,261.8,414.4,261.7"/>
	<path class="st6" d="M410.8,268c-3.4,0-6.1-0.7-6-1.7c0.1-0.9,2.7-1.8,6-1.8c3.4,0,6.1,0.7,6,1.7
		C416.7,267.1,414.1,267.9,410.8,268"/>
	<path class="st6" d="M409.9,262.5c-2.2,2.8-4.5,4.5-5.2,3.9c-0.7-0.6,0.4-3.3,2.6-6c2.1-2.8,4.5-4.6,5.2-4c0.7,0.6-0.4,3.3-2.5,6.1
		C410,262.4,410,262.4,409.9,262.5"/>
	<path class="st6" d="M410.8,265.3c-3.2,1.3-5.9,1.6-6.2,0.7c-0.2-0.9,1.9-2.6,4.9-4c3.2-1.3,5.9-1.7,6.2-0.7
		C416,262.2,413.8,263.9,410.8,265.3 M412.5,211.9c1.5,1.4,2.4,2.7,2,2.9c-0.4,0.2-1.9-0.7-3.4-2.1c-1.6-1.4-2.5-2.7-2.2-3
		c0.4-0.2,1.9,0.7,3.5,2.1C412.4,211.8,412.4,211.8,412.5,211.9 M410.6,213.5c2.1,0.3,3.9,0.9,4,1.3c0.1,0.4-1.6,0.6-3.7,0.3
		c-2.1-0.3-3.9-0.9-4-1.3C406.8,213.3,408.5,213.2,410.6,213.5L410.6,213.5"/>
	<path class="st6" d="M411.4,212.5c2,1,3.5,2.1,3.4,2.5c-0.1,0.4-1.8-0.1-3.8-1.1c-0.1-0.1-0.2-0.1-0.3-0.2c-2-1-3.4-2.1-3.1-2.4
		C407.8,211,409.5,211.5,411.4,212.5 M383.7,262c0,0,5.1,1.1,9.6,2.7c4.5,1.6,11.3,7.2,13.1,7.5c2,0.1,4.9-0.6,6-3.6
		c-3.2,0.8-5,2.1-8.1,0.5c-1.1-0.4-4.5-3.6-8.4-5.3c-3.8-1.7-11.5-3.6-11.5-3.6L383.7,262 M389.2,215.5c0,0,5.9-3.1,5.9-3.1
		l-6.5,1.7l-0.8,1.1L389.2,215.5"/>
	<path class="st6" d="M394.8,216.9c-2.3-0.4-5.8-1.2-8.1-1.4c1.6-1.7,3.7-4.6,5-6.4c-0.9,1.7-2.2,3.9-2.8,5.6
		C390.5,215.6,393,216.3,394.8,216.9"/>
	<path class="st6" d="M388.1,215.9c0,0,5.3-4.1,5.3-4.1l-6.1,2.7l-0.5,1.3L388.1,215.9"/>
	<path class="st6" d="M393.7,216.9c-2.3-0.4-5.9-1.2-8.1-1.4c1.5-1.8,3.6-4.8,4.9-6.6c-0.8,1.8-2.2,4.1-2.7,5.8
		C389.4,215.5,391.9,216.2,393.7,216.9"/>
	<path class="st6" d="M387.2,216.2c0,0,6.2-2.6,6.2-2.6l-6.7,1.1l-0.9,1.1L387.2,216.2"/>
	<path class="st6" d="M393,216.9c-2.3-0.2-5.9-0.6-8.2-0.6c1.3-2,3-5.2,4.1-7.2c-0.6,1.9-1.7,4.4-2,6.1
		C388.6,216,391.2,216.4,393,216.9"/>
	<path class="st6" d="M386.6,216.2c0,0,4.2-5.1,4.2-5.1l-5.3,4l-0.2,1.4L386.6,216.2"/>
	<path class="st6" d="M393,217.3c-2.5,0-6.4-0.3-8.8-0.1c1.2-2.2,2.7-5.9,3.6-8.2c-0.5,2.1-1.3,4.9-1.5,6.8
		C388.2,216.5,391,216.8,393,217.3"/>
	<path class="st6" d="M385.8,217.4c0,0,5.1-4.9,5.1-4.9l-6.2,3.4l-0.4,1.5L385.8,217.4"/>
	<path class="st6" d="M391.9,217.4c-2.7,0-6.8-0.1-9.5,0.2c1.7-2.5,4.1-6.6,5.6-9.1c-0.9,2.3-2.5,5.4-3,7.6
		C386.9,216.7,389.8,217,391.9,217.4"/>
	<path class="st6" d="M384,217.8c0,0,6.5-5.5,6.5-5.5l-7.4,3.9l-0.8,1.6L384,217.8"/>
	<path class="st6" d="M390.9,217.6c-2.7,0.4-6.8,0.8-9.3,1.5c1.4-2.7,3.1-7,4.2-9.7c-0.6,2.4-1.6,5.6-1.9,7.8
		C385.8,217.6,388.8,217.5,390.9,217.6"/>
	<path class="st6" d="M383.2,218.9c0,0,5-6.9,5-6.9l-6.3,5.7l-0.3,1.7L383.2,218.9"/>
	<path class="st6" d="M389.4,218.4c-2.7,0.3-6.8,0.5-9.4,1c1.5-2.6,3.5-6.8,4.8-9.4c-0.7,2.4-2,5.5-2.3,7.7
		C384.4,218.2,387.3,218.2,389.4,218.4"/>
	<path class="st6" d="M382.3,219.6c0-0.1,6.4-5.5,6.4-5.5l-7.2,3.9l-0.7,1.6L382.3,219.6"/>
	<path class="st6" d="M388.7,218.7c-2.7,0.6-6.8,1.3-9.4,2.1c1.2-2.7,2.8-7.1,3.8-9.8c-0.5,2.4-1.4,5.7-1.5,7.8
		C383.5,219.1,386.5,218.7,388.7,218.7"/>
	<path class="st6" d="M381.2,219.9c0,0,4.1-7.6,4.1-7.6l-5.5,6.6l-0.1,1.7L381.2,219.9"/>
	<path class="st6" d="M388.7,219.1c-2.9,0.7-7.3,1.7-10,2.8c1-3.1,2.2-8.1,3-11.1c-0.3,2.7-0.8,6.4-0.7,8.8
		C383.1,219.8,386.3,219.2,388.7,219.1"/>
	<path class="st6" d="M380.4,221.7c0,0,5.1-7.6,5.1-7.6l-6.6,6.1l-0.3,1.9L380.4,221.7"/>
	<path class="st6" d="M387.5,220c-2.8,0.9-7.2,2.1-9.9,3.3c0.9-3.1,1.8-8.1,2.4-11.2c-0.1,2.7-0.5,6.3-0.3,8.7
		C382,220.9,385.2,220.2,387.5,220"/>
	<path class="st6" d="M379.4,222.8c0,0,3.9-8.4,3.9-8.4l-5.6,7.2l0,1.9L379.4,222.8"/>
	<path class="st6" d="M386.4,221.1c-2.9,0.7-7.4,1.5-10.1,2.4c1.2-3,2.6-7.9,3.4-10.9c-0.4,2.7-1.1,6.3-1.1,8.7
		C380.9,221.6,384.1,221.2,386.4,221.1"/>
	<path class="st6" d="M378.4,223.6c0-0.1,6.4-6.6,6.4-6.6l-7.5,4.9l-0.6,1.8L378.4,223.6"/>
	<path class="st6" d="M385.2,222.3c-2.9,0.4-7.3,0.8-10,1.5c1.3-3,3-7.8,4-10.8c-0.5,2.7-1.5,6.3-1.6,8.7
		C379.7,222.2,382.8,222.1,385.2,222.3"/>
	<path class="st6" d="M377.2,222.9c0,0,4.3-8.2,4.3-8.2l-5.9,6.9l-0.1,2L377.2,222.9"/>
	<path class="st6" d="M385.5,221.3c-3.1,1.3-8,3-10.9,4.6c1-3.7,2-9.5,2.6-13.1c-0.1,3.1-0.5,7.4-0.3,10.1
		C379.4,222.9,382.9,221.8,385.5,221.3"/>
	<path class="st6" d="M376.6,225.4c0,0,5.2-9.4,5.2-9.4l-6.9,8l-0.2,2.2L376.6,225.4"/>
	<path class="st6" d="M384.3,222.5c-3,1.4-7.8,3.5-10.7,5.2c0.8-3.7,1.5-9.5,2-13.1c0,3.1-0.2,7.3,0.2,10
		C378.3,224.3,381.7,223.1,384.3,222.5"/>
	<path class="st6" d="M375.5,226.8c-0.1,0,3.8-10.1,3.8-10.1l-5.7,9.1l0.1,2.2L375.5,226.8"/>
	<path class="st6" d="M383,223.3c-3,1.5-7.8,3.5-10.6,5.3c0.8-3.7,1.5-9.5,1.9-13.1c0,3.1-0.2,7.3,0.2,10
		C377,225.2,380.4,224,383,223.3"/>
	<path class="st6" d="M374.7,228c0-0.1,5.9-8.9,5.9-8.9l-7.4,7.3l-0.4,2.2L374.7,228"/>
	<path class="st6" d="M382.7,222.9c-2.7,2.2-7,5.3-9.4,7.7c0-3.7-0.5-9.5-0.8-13c0.7,2.9,1.4,7,2.3,9.5
		C377.2,226.2,380.3,224.1,382.7,222.9"/>
	<path class="st6" d="M375,228.5c-0.1,0,0.7-10.7,0.7-10.7l-2.8,10.4l0.8,2L375,228.5"/>
	<path class="st6" d="M381.9,223.8c-2.7,2.1-7,5.3-9.5,7.7c0-3.7-0.5-9.5-0.8-13c0.7,2.9,1.3,7.1,2.3,9.5
		C376.4,227.2,379.5,225.1,381.9,223.8"/>
	<path class="st6" d="M374.3,230.3c-0.1,0,2.7-10.5,2.7-10.5l-4.7,9.6l0.4,2.1L374.3,230.3"/>
	<path class="st6" d="M381.6,224.1c-2.6,2.5-6.7,6.3-8.9,9c-0.4-3.8-1.5-9.7-2.2-13.3c1,2.9,2.2,7.1,3.4,9.5
		C376.2,228.2,379.3,225.7,381.6,224.1"/>
	<path class="st6" d="M374.3,231.6c-0.1,0,0.5-11.1,0.5-11.1l-2.7,10.8l0.9,2L374.3,231.6"/>
	<path class="st6" d="M380.8,225.9c-2.8,2.3-7.1,5.6-9.6,8.1c-0.1-3.9-0.7-9.8-1.1-13.5c0.8,3,1.6,7.3,2.6,9.9
		C375.2,229.5,378.3,227.3,380.8,225.9"/>
	<path class="st6" d="M373.5,232.9c-0.1,0,3.9-10.5,3.9-10.5l-5.8,9.3l0.2,2.3L373.5,232.9"/>
	<path class="st6" d="M380.8,226c-2.4,2.6-6.3,6.4-8.5,9.2c-0.4-3.9-1.5-9.8-2.1-13.4c1,3,2,7.2,3.2,9.6
		C375.7,230.1,378.5,227.6,380.8,226"/>
	<path class="st6" d="M373.6,233.4c-0.1,0-0.5-11.1-0.5-11.1l-1.8,11l1,1.9L373.6,233.4"/>
	<path class="st6" d="M379.6,226.8c-2.4,2.6-6.1,6.5-8.2,9.2c-0.5-3.9-1.7-9.8-2.5-13.4c1,3,2.3,7.2,3.5,9.6
		C374.6,231,377.4,228.4,379.6,226.8"/>
	<path class="st6" d="M373,234.5c-0.1,0,1.2-11.2,1.2-11.2l-3.3,10.6l0.7,2.2L373,234.5"/>
	<path class="st6" d="M379.1,227.2c-2.2,2.8-5.6,7-7.5,10c-0.8-3.8-2.5-9.6-3.5-13.1c1.3,2.8,2.8,6.9,4.2,9.2
		C374.4,231.9,377,229.1,379.1,227.2"/>
	<path class="st6" d="M372.9,235.6c-0.1,0-0.7-11.3-0.7-11.3l-1.4,11.2l1,2L372.9,235.6"/>
	<path class="st6" d="M378.9,227.9c-2,2.9-5.3,7.4-7,10.4c-1-3.8-3-9.5-4.2-13c1.4,2.8,3.2,6.8,4.7,9
		C374.4,232.8,376.9,229.8,378.9,227.9"/>
	<path class="st6" d="M373.6,236.6c-0.1,0,1.1-11.3,1.1-11.3l-3.2,10.6l0.7,2.2L373.6,236.6"/>
	<path class="st6" d="M378.4,228.9c-1.7,3.2-4.6,8-6,11.4c-1.3-3.6-3.8-9-5.4-12.4c1.7,2.6,3.7,6.3,5.5,8.3
		C374.5,234.5,376.7,231.1,378.4,228.9"/>
	<path class="st6" d="M373.3,237.6c-0.1,0-3.2-10.7-3.2-10.7l1.1,11.3l1.4,1.6L373.3,237.6"/>
	<path class="st6" d="M378.4,230.2c-1.8,3.2-4.8,8-6.3,11.3c-1.3-3.6-3.9-9-5.4-12.3c1.7,2.6,3.8,6.3,5.6,8.3
		C374.3,235.7,376.5,232.4,378.4,230.2"/>
	<path class="st6" d="M373.4,239.6c-0.1,0-1.2-11.3-1.2-11.3l-1,11.3l1.1,1.9L373.4,239.6"/>
	<path class="st6" d="M378.6,231.2c-1.9,3.2-4.9,7.9-6.4,11.2c-1.3-3.7-3.7-9.1-5.2-12.5c1.6,2.6,3.7,6.4,5.4,8.4
		C374.4,236.6,376.7,233.3,378.6,231.2"/>
	<path class="st6" d="M373.3,240.5c-0.1,0-2.1-11.1-2.1-11.1l-0.1,11.3l1.3,1.8L373.3,240.5"/>
	<path class="st6" d="M377.8,232.8c-2,3-5.3,7.6-7,10.7c-1.1-3.7-3.3-9.4-4.6-12.8c1.5,2.7,3.4,6.6,5,8.8
		C373.3,237.9,375.8,234.8,377.8,232.8"/>
	<path class="st6" d="M372.3,241.7c-0.1,0,0.9-11.3,0.9-11.3l-3.1,10.7l0.7,2.2L372.3,241.7"/>
	<path class="st6" d="M377.9,233c-1.7,3.3-4.5,8.2-5.9,11.6c-1.4-3.6-4.1-8.8-5.8-12.1c1.8,2.5,4,6.1,5.8,8.1
		C373.9,238.7,376.1,235.3,377.9,233"/>
	<path class="st6" d="M371.9,242.7c-0.1,0-3.5-10.5-3.5-10.5l1.3,11.2l1.5,1.5L371.9,242.7"/>
	<path class="st6" d="M377.4,233.9c-1.2,3.6-3.2,9.1-4.1,12.7c-2-3.2-5.4-7.8-7.5-10.6c2.1,2.1,4.8,5.2,6.9,6.7
		C374.4,240.3,376,236.5,377.4,233.9"/>
	<path class="st6" d="M375,243.5c-0.1,0-3.8-10.4-3.8-10.4l1.6,11.2l1.5,1.5L375,243.5"/>
	<path class="st6" d="M377.4,235c-1.2,3.6-3.2,9.1-4,12.7c-2-3.2-5.4-7.7-7.6-10.5c2.1,2,4.9,5.1,7,6.6
		C374.4,241.5,376,237.6,377.4,235"/>
	<path class="st6" d="M375.1,245.3c-0.1,0-4.8-9.7-4.8-9.7l2.8,10.8l1.7,1.2L375.1,245.3"/>
	<path class="st6" d="M377,235.9c-0.8,3.7-2.1,9.5-2.5,13.2c-2.3-2.9-6.3-6.9-8.7-9.4c2.3,1.7,5.4,4.4,7.7,5.5
		C374.8,242.7,375.9,238.7,377,235.9"/>
	<path class="st6" d="M375.4,246.8c-0.1,0-2.6-10.9-2.6-10.9l0.4,11.3l1.4,1.7L375.4,246.8"/>
	<path class="st6" d="M377,237.1c-0.4,3.8-1.2,9.7-1.3,13.5c-2.6-2.5-6.9-6-9.5-8.2c2.5,1.4,5.8,3.6,8.1,4.5
		C375.5,244.2,376.2,240,377,237.1"/>
	<path class="st6" d="M375.5,247.6c0,0.1-6.9-7.9-6.9-7.9l5.2,9.5l1.9,0.6L375.5,247.6"/>
	<path class="st6" d="M377.2,238.4c-0.4,3.8-1.2,9.7-1.3,13.4c-2.6-2.6-6.9-6.1-9.5-8.2c2.5,1.4,5.8,3.6,8.1,4.5
		C375.6,245.5,376.4,241.4,377.2,238.4"/>
	<path class="st6" d="M376.3,249.4c-0.1,0-5.3-9.5-5.3-9.5l3.3,10.7l1.7,1.1L376.3,249.4"/>
	<path class="st6" d="M377.5,240c-0.3,3.8-0.8,9.8-0.7,13.5c-2.7-2.4-7.1-5.6-9.8-7.6c2.5,1.3,5.9,3.3,8.3,4
		C376.2,247.2,376.8,243,377.5,240"/>
	<path class="st6" d="M376.9,251.2c-0.1,0-6.5-8.3-6.5-8.3l4.8,9.8l1.9,0.8L376.9,251.2"/>
	<path class="st6" d="M377.6,241.7c-0.2,3.9-0.8,9.8-0.7,13.5c-2.7-2.4-7.1-5.6-9.9-7.5c2.5,1.2,5.9,3.2,8.3,3.9
		C376.3,249,376.9,244.8,377.6,241.7"/>
	<path class="st6" d="M377.5,252.6c-0.1,0-4.6-10-4.6-10l2.5,10.9l1.6,1.3L377.5,252.6"/>
	<path class="st6" d="M377.7,242.9c0.1,3.9,0.2,9.8,0.6,13.6c-2.9-2-7.6-4.6-10.5-6.2c2.6,0.9,6.2,2.4,8.6,2.8
		C377.2,250.2,377.3,246,377.7,242.9"/>
	<path class="st6" d="M378.3,252.2c0,0.1-8.4-5.7-8.4-5.7l7.1,7.8l2,0.1L378.3,252.2"/>
	<path class="st6" d="M378,243.3c0.3,3.8,0.7,9.8,1.3,13.5c-3-1.9-7.8-4.3-10.8-5.8c2.7,0.8,6.3,2.2,8.8,2.5
		C377.8,250.6,377.8,246.4,378,243.3"/>
	<path class="st6" d="M379.2,254.3c-0.1,0-7-8-7-8l5.3,9.6l1.9,0.7L379.2,254.3"/>
	<path class="st6" d="M378.6,244.8c0.5,3.8,1.1,9.8,1.9,13.4c-3.1-1.7-8-3.8-11-5.1c2.7,0.6,6.4,1.8,8.9,1.9
		C378.7,252.1,378.5,247.9,378.6,244.8"/>
	<path class="st6" d="M380.6,255.7c0,0.1-8.3-5.9-8.3-5.9l7,7.9l2,0.1L380.6,255.7"/>
	<path class="st6" d="M378.9,246.4c0.7,3.8,1.7,9.7,2.8,13.3c-3.1-1.4-8.2-3.1-11.3-4.1c2.7,0.4,6.5,1.2,8.9,1.1
		C379.5,253.7,379,249.5,378.9,246.4"/>
	<path class="st6" d="M381.6,256.9c-0.1,0-6.9-8.2-6.9-8.2l5.2,9.7l1.9,0.7L381.6,256.9"/>
	<path class="st6" d="M379.3,247.4c1.1,3.7,2.6,9.4,4,12.9c-3.2-1-8.4-2-11.5-2.6c2.7,0,6.5,0.3,8.9-0.1
		C380.6,254.7,379.7,250.6,379.3,247.4"/>
	<path class="st6" d="M381.9,256.9c0,0.1-9.6-2.1-9.6-2.1l9.1,4.5l1.8-0.7L381.9,256.9"/>
	<path class="st6" d="M379.9,248.6c1.1,3.7,2.6,9.4,3.9,12.9c-3.2-1-8.4-2-11.5-2.6c2.7,0,6.5,0.4,8.9,0
		C381.2,255.9,380.3,251.7,379.9,248.6"/>
	<path class="st6" d="M383.5,257.9c0,0.1-9.2-4.4-9.2-4.4l8.2,6.7l2-0.2L383.5,257.9"/>
	<path class="st6" d="M379.5,249.2c1.8,3.4,4.5,8.7,6.5,11.7c-3.4-0.3-8.6-0.1-11.8,0c2.7-0.6,6.4-1.1,8.7-2.1
		C382.2,256,380.5,252.2,379.5,249.2"/>
	<path class="st6" d="M384.9,258.9c0,0.1-9.6-2.6-9.6-2.6l9,5.1l1.9-0.6L384.9,258.9"/>
	<path class="st6" d="M380.5,250.7c1.8,3.3,4.5,8.6,6.6,11.7c-3.4-0.2-8.6,0-11.8,0.1c2.7-0.6,6.4-1.2,8.7-2.1
		C383.3,257.5,381.5,253.6,380.5,250.7"/>
	<path class="st6" d="M386.2,259.7c0,0.1-8.9-5.3-8.9-5.3l7.8,7.4l2,0L386.2,259.7"/>
	<path class="st6" d="M381.2,251.5c2.1,3.1,5.3,8.1,7.6,10.9c-3.3,0.2-8.4,1.1-11.6,1.7c2.6-1,6.2-2,8.3-3.3
		C384.6,258,382.5,254.3,381.2,251.5"/>
	<path class="st6" d="M386.8,260.5c0,0.1-9.6-0.2-9.6-0.2l9.5,2.8l1.7-1L386.8,260.5 M392.4,213.9c0,0,6.9-1.2,6.9-1.2l-6.9,0.2
		l-1.2,0.6L392.4,213.9"/>
	<path class="st6" d="M396.2,215.4c-2-0.6-5-1.6-7.1-2.1c2.2-0.9,5.4-2.4,7.4-3.4c-1.5,1-3.8,2.2-5,3.2
		C392.7,213.9,394.8,214.7,396.2,215.4"/>
	<path class="st6" d="M392.1,214.1c0,0,6.7-1.8,6.7-1.8l-6.9,0.9l-1,0.7L392.1,214.1"/>
	<path class="st6" d="M396.5,215.9c-2.3-0.2-5.9-0.7-8.3-0.7c1.7-1.5,4.2-4.1,5.7-5.7c-1,1.5-2.6,3.5-3.3,4.9
		C392.2,215,394.7,215.4,396.5,215.9"/>
	<path class="st6" d="M389.6,214.6c0,0,7-0.8,7-0.8l-6.8-0.2l-1.3,0.6L389.6,214.6"/>
	<path class="st6" d="M394.7,216.1c-2.1-0.4-5.4-1.1-7.5-1.4c2-1,5-2.7,6.9-3.8c-1.4,1-3.4,2.4-4.4,3.4
		C391,215,393.2,215.6,394.7,216.1"/>
	<path class="st6" d="M389,214.5c0,0,6.1-2.6,6.1-2.6l-6.7,1.8l-0.8,0.8L389,214.5"/>
	<path class="st6" d="M394.5,216.9c-1.8-0.7-4.5-2-6.2-2.5c1.4-1.3,3.3-3.5,4.5-4.8c-0.8,1.4-2.1,3.1-2.6,4.5
		C391.3,215,393.2,216,394.5,216.9"/>
	<path class="st6" d="M389.3,215c0,0,4.8-2.1,4.8-2.1l-5.2,0.7l-0.6,0.9L389.3,215 M385.4,259.6c0,0.1-9.9,0.1-9.9,0.1l10,2.4
		l1.6-1.1L385.4,259.6"/>
	<path class="st6" d="M387.1,260.2c0,0.1-10-2.3-10-2.3l9.6,4.7l1.9-0.6L387.1,260.2"/>
	<path class="st6" d="M388.8,260.9c0,0.1-10-0.5-10-0.5l10,3l1.7-1L388.8,260.9"/>
	<path class="st6" d="M382.5,253.9c2.6,2.9,6.5,7.4,9.2,9.9c-3.3,0.5-8.4,1.9-11.5,2.7c2.5-1.2,6-2.5,8-3.9
		C386.8,259.9,384.2,256.5,382.5,253.9"/>
	<path class="st6" d="M390.1,261.4c0,0.1-9.9-3.3-9.9-3.3l9.3,5.6l2-0.4L390.1,261.4"/>
	<path class="st6" d="M383.4,254.5c2.8,2.6,7.1,6.7,10,8.9c-3.2,0.9-8,2.9-10.9,4.1c2.3-1.5,5.6-3.3,7.3-5
		C388.2,260.1,385.3,257,383.4,254.5"/>
	<path class="st6" d="M391,262c0,0.1-9.4,1.9-9.4,1.9l9.9,0.7l1.4-1.4L391,262"/>
	<path class="st6" d="M389,261.4c0,0.1-9.8,0.8-9.8,0.8l10.2,1.7l1.6-1.2L389,261.4"/>
	<path class="st6" d="M390.8,261.9c0,0.1-10.2-1.6-10.2-1.6l10,4l1.8-0.7L390.8,261.9z"/>
	<path class="st6" d="M392.5,262.5c0,0.1-10,0.2-10,0.2l10.2,2.3l1.6-1.1L392.5,262.5L392.5,262.5z"/>
	<path class="st6" d="M385.7,255.9c2.8,2.7,7,6.9,9.9,9.2c-3.3,0.7-8.2,2.4-11.2,3.5c2.4-1.3,5.8-2.9,7.7-4.5
		C390.4,261.6,387.6,258.4,385.7,255.9L385.7,255.9z"/>
	<path class="st6" d="M393.9,262.9c0,0.1-10.2-2.6-10.2-2.6l9.7,4.9l1.9-0.5L393.9,262.9L393.9,262.9z"/>
	<path class="st6" d="M386.6,256.5c3,2.4,7.6,6.2,10.6,8.2c-3.1,1.1-7.7,3.5-10.6,4.9c2.2-1.6,5.3-3.7,7-5.5
		C391.9,261.7,388.8,258.8,386.6,256.5L386.6,256.5z"/>
	<path class="st6" d="M394.8,263.4c0,0.1-9.3,2.5-9.3,2.5l10,0l1.3-1.5L394.8,263.4L394.8,263.4z"/>
</g>
<path class="st7" d="M407.6,249.5l-7.6-5.2l-7.6,5.2l2.8-8.4l-6.6-5.2h8.5l2.8-8.4l2.8,8.4h8.5l-6.6,5.2L407.6,249.5L407.6,249.5z"
	/>
</svg>
