<?xml version="1.0" encoding="utf-8"?>
<!-- Generator: Adobe Illustrator 20.0.0, SVG Export Plug-In . SVG Version: 6.00 Build 0)  -->
<!DOCTYPE svg PUBLIC "-//W3C//DTD SVG 1.1//EN" "http://www.w3.org/Graphics/SVG/1.1/DTD/svg11.dtd">
<svg version="1.1" id="Layer_1" xmlns="http://www.w3.org/2000/svg" xmlns:xlink="http://www.w3.org/1999/xlink" x="0px" y="0px"
	 viewBox="0 0 800 480" style="enable-background:new 0 0 800 480;" xml:space="preserve">
<style type="text/css">
	.st0{fill:#199D00;}
	.st1{fill:#FFFFFF;}
	.st2{fill:#1BA400;}
	.st3{fill:#1B9D00;}
	.st4{fill:#259F00;}
	.st5{fill:#209000;}
</style>
<g>
	<g transform="translate(80) scale(.9375)">
		<path class="st0" d="M-85.3,0H768v512H-85.3V0z"/>
		<path class="st1" d="M152.9,145.1c-0.9,12-1.9,33,8.2,35.2c12.3,1.2,5.5-20.8,10-24.8c0.8-2,2.4-2,2.5,0.5v18.6
			c-0.1,6.1,3.9,7.9,7,9.1c3.2-0.2,5.4-0.1,6.6,3l1.5,32.3c0,0,7.5,2.1,7.8-18.1c0.4-11.9-2.4-21.9-0.8-24.2c0.1-2.3,3-2.4,5-1.3
			c3.2,2.3,4.6,5.1,9.6,3.9c7.6-2.1,12.2-5.8,12.3-11.6c-0.4-5.5-1.1-11.1-3.5-16.6c0.3-1-1.5-3.6-1.1-4.6c1.4,2.1,3.4,2,3.9,0
			c-1.3-4.3-3.3-8.3-6.6-10.1c-2.7-2.4-6.6-1.9-8.1,3.1c-0.7,5.7,2.1,12.5,6.2,18c0.9,2.2,2.1,5.7,1.6,9c-2.2,1.3-4.4,0.7-6.3-1.2
			c0,0-6-4.5-6-5.5c1.6-10.3,0.4-11.4-0.5-14.3c-0.6-3.9-2.5-5.2-4-7.9c-1.5-1.6-3.6-1.6-4.5,0c-2.7,4.6-1.4,14.6,0.5,19
			c1.4,4.1,3.5,6.7,2.5,6.7c-0.8,2.3-2.5,1.8-3.8-0.9c-1.8-5.5-2.1-13.8-2.1-17.5c-0.5-4.6-1.1-14.4-4.2-16.9
			c-1.8-2.5-4.6-1.3-5.5,1c-0.2,4.6-0.2,9.1,0.3,13.3c2.1,7.4,2.7,13.9,3.7,21.4c0.3,10.1-5.9,4.4-5.6-0.6c1.4-6.5,1-16.8-0.2-19.4
			c-1-2.6-2.2-3.2-4.6-2.8c-1.9-0.1-6.9,5.3-8.3,14.3c0,0-1.2,4.6-1.7,8.7c-0.7,4.6-3.7,7.9-5.9-0.7
			C157.2,156.9,156,141.5,152.9,145.1L152.9,145.1z"/>
		<path class="st1" d="M186.3,194.2c-10.8,5.3-21.3,10.3-32,15.4c0.4-7.3,15.2-20.4,25.3-20.5C186.2,189.2,184.6,191.6,186.3,194.2
			L186.3,194.2z"/>
		<path class="st1" d="M180.7,204.2c-16.9,43.5,39.5,49.5,45.8,1.8c0.6-2,3-3.9,3.4-0.7c-1.3,43.2-43.6,46.2-50.8,32.6
			c-1.8-3.2-2.3-10.3-2.5-14.6c-1.1-8.5-5.5-5.2-6.2,3.2c-0.7,4.7-0.5,6-0.5,10.5c2.3,34.2,56.7,19.5,65.6-8.7
			c4.7-15.6-0.8-27.1,1.8-27.1c5.4,5.8,12.9,0.8,14.6-1.2c0.7-1,2.5-1.7,3.7-0.4c4.2,3,11.6,1.6,13.2-3.7c0.9-5.2,1.6-10.6,1.8-16.2
			c-3.4,1.1-6,1.8-6.2,3.2l-0.7,4.6c-0.3,1.5-3.3,1.5-3.4-0.4c-1.3-5.9-6.7-6.7-10,2.5c-2.2,1.8-6.2,2.1-6.6-0.5
			c0.5-6.2-2-7-6.9-4.1c-1.6-12.2-3.2-23.9-4.8-36.2c2.1-0.1,4,1.5,5.9-0.9c-2.1-6.5-6.5-19.7-8.9-20.7c-1.2-1.4-2.2-0.5-3.7-0.2
			c-2.6,0.8-5.1,3.1-4.3,7.5c3.1,18.8,5.1,33.1,8.2,51.9c0.5,2.2-1.4,5.1-3.7,4.8c-4-2.7-5-8.3-11.9-8c-5,0.1-10.7,5.5-11.4,10.7
			c-0.8,4.2-1.1,8.7,0,12.3c3.5,4.2,7.7,3.8,11.4,2.9c3-1.2,5.5-4.3,6.6-3.6c0.7,0.9,0.2,10.9-14.3,18.5c-8.7,3.9-15.7,4.8-19.4-2.3
			C183.9,217.2,186.4,200.3,180.7,204.2L180.7,204.2z"/>
		<path class="st1" d="M252.3,160c3.4-1.2,19.4-19.6,19.4-19.6c-0.8-0.7-1.6-1.2-2.4-2c-0.9-0.8-0.8-1.5,0-2.3
			c4-2.3,2.7-7.4,0.6-9.7c-3.4-1.5-6.4-1-8.6,0.1c-2.8,2.7-3.4,7-1.2,9.6c2.1,1,4.3,3.2,2.9,4.4c-6.6,7-24.5,19.1-22.5,19.5
			C240.9,160.6,251.9,160.6,252.3,160z M155.4,225c-6,9.6-6.5,23.9-3.2,28.2c1.8,2,4.7,2.9,6.8,2.3c3.8-1.6,5.4-9.3,4.5-12.1
			c-1.3-2-2.3-2.3-3.5-0.6c-2.7,5.4-3.8,1.7-4-1.3c-0.4-5.7,0.1-11,0.8-15.2C157.4,222,156.8,223.3,155.4,225z M412.5,209.6
			c-5.8-12.5-13.9-24.9-16.4-29.6c-2.6-4.8-21.9-32.8-24.8-36c-6.3-7.5,10.2,3.1-2.1-11.7c-4.7-4-5-4.3-8.8-7.5
			c-2-1.4-6.8-3.9-7.6,0.3c-0.4,3.7-0.2,5.7,0.4,8.8c0.5,2.1,3.5,5.5,5,7.5c19.6,26.4,37,53,53.8,86.5
			C414.6,226.6,414.1,211.7,412.5,209.6L412.5,209.6z"/>
		<path class="st1" d="M387,251.5c-1.1,1.3,2.8,6.8,8,6.8c8.6-1,16.2-5.8,23.2-18.6c1.9-3,5.2-9.3,5.3-14.3
			c0.7-28.9-1.4-51.4-5.8-72.3c-0.3-2-0.1-4.4,0.2-5c0.6-0.7,2.5,0,3.5-1.6c1.5-1.5-3.9-14-7-18.8c-1.1-2.1-1.5-3.6-3.3,0.3
			c-1.9,3.1-3.2,8.5-3,13.6c4.1,28.5,5.4,53.4,8.1,81.9c0.2,2.8-0.2,6.8-2,8.4C407.4,238.8,397.6,247.5,387,251.5L387,251.5z
			 M503.5,251.4c-6.2,3.6-6.2,7.7-1.2,7.8c8.6-1,18.8-1.7,25.8-12.3c1.9-3,4.1-11,4.2-15.9c0.7-28.9-0.4-50.5-4.7-71.4
			c-0.3-2-1.2-6.7-0.8-7.3c0.6-1.4,3.4,0.2,4.4-1.5c1.5-1.5-7.3-12.7-10.4-17.5c-1.1-2.1-1.5-3.6-3.3,0.3c-1.9,3.1-2.6,8.7-1.8,13.6
			c4.6,30.9,8,54.2,8.7,81.6c-0.4,2.6-0.5,4-1.7,7.3c-2.7,3.5-5.7,7.8-8.5,9.9C511.4,247.8,505.4,249.8,503.5,251.4L503.5,251.4z"/>
		<path class="st1" d="M508.1,223.7c-0.1-7.2,0.1-13.5-0.1-18.9c-0.2-5.4-1.2-9.8-3.1-13.6c-1.8-4.1-0.7-7.4-1.5-11.8
			c-0.8-4.4-0.6-10.9-1.9-16.1c-0.3-2-1.4-8.5-1.1-9.1c0.5-1.4,2.5,0,3.4-1.6c1.4-1.6-4.9-18-8.2-22.7c-1.2-2.1-3.3-1.4-5.9,2
			c-2.4,2.3-1.5,7.4-0.6,12.3c6.2,32.3,10.8,61.5,9.8,92.3C498.7,239,508.2,228.6,508.1,223.7L508.1,223.7z M462.4,183.6
			c-3.9-0.1-12-7.6-14.4-12c-0.9-2.5-0.3-5,0.5-6.4c1.4-0.9,3.7-2,5.3-1c0,0,1.7,2.4,1.4,2.7c2.1,1,3,0.4,3.2-0.4
			c0.1-1.5-0.6-2.4-0.6-4.1c0.9-4.5,6.1-5.2,8-2.3c1.4,1.8,1.9,5.5,2.2,8c0,1.3-2.1-0.2-3.3,0.1c-1.2,0.3-1.5,1.7-1.6,2.9
			C462.8,174.4,462.5,179.6,462.4,183.6L462.4,183.6z M390.6,231.7c1.1-9.8-0.4-27.3-0.5-33.1c-0.4-13.7-2.6-40.2-3.7-44.6
			c-1.2-8.3,3.4,0.9,2.8-3.9c-1.5-8.3-6.1-14-11.5-21.6c-1.8-2.5-1.7-3-4.4,0.6c-3,6.8-0.4,11.4,0.4,16.7c3.9,17.2,6.2,33,7.3,48.7
			s1.4,32.6,0.4,49.1C384.2,243.6,388.9,238.8,390.6,231.7L390.6,231.7z"/>
		<path class="st1" d="M521.4,215.9c-6.9-11.5-17.2-24-20-28.6c-2.8-4.6-26.2-34.8-29.1-37.9c-8.6-9,3.9-1.5-1.6-8.4
			c-4.7-5.2-6.1-6.8-10.1-9.9c-2-1.3-3.2-3.8-3.9,0.4c-0.3,3.7-0.5,8.1-0.3,11.2c0,1.7,1.8,5,3.4,7c20.8,25.5,43.4,51.5,61.6,84.3
			C523.9,232.7,523,218,521.4,215.9L521.4,215.9z"/>
		<path class="st2" d="M210,194.7c-0.5,0.9-1.6,2-1.2,3.1c0.8,1,1.4,1.3,2.7,1.3c1.1,0,2.7,0.3,3-0.4c0.6-0.7,1.1-2,0.6-3.3
			C213.8,192.6,210.6,193.7,210,194.7z"/>
		<path class="st1" d="M441.6,362.5c9.2,0.3,15.2,0.4,23.3,1.4c0,0,7-0.7,9.6-1.1c10.6-1,11.1,15.2,11.1,15.2
			c-0.1,9.5-3.8,10-8.5,11c-2.7,0.3-4.1-1.6-5.5-3.7c-1.8,0.7-4.2,0.8-7.1,0.4c-3.8-0.2-7.6-0.2-11.5-0.5c-4.1-0.4-6.2,0.4-10.3,0.1
			c-0.8,1.3-1.9,3.1-4.4,2.5c-2.1-0.2-4.5-6-3.8-10.4c1.5-3.2,1.1-2.1,0.9-3.5c-37.5-1-75.4-2.6-112.2-2.1
			c-28.8,0.1-57.2,1.3-85.7,2.5c-15.2-0.2-26.8-2.6-34.8-14.3c0.7,0,38.7,2.2,49.8,1.4c20.6-0.2,39.3-1.9,60.2-2.5
			c41.2,0.7,82.1,0.7,123.3,3.6c-3.9-2.7-4.1-9.1,2-10.6c0.5-0.4,0.8,3.2,1.7,3.1C444.7,354.6,442.6,361.2,441.6,362.5L441.6,362.5z
			 M276,135.3c-6.2,17.9,3.6,37.4,10.4,35.5c4.9,2,8-7.3,10.1-17.6c1.4-2.9,2.4-3.2,3.1-1.7c-0.2,13.6,1,16.6,4.5,20.8
			c7.8,6,14.3,0.8,14.8,0.3l6.1-6.1c1.4-1.4,3.2-1.5,5.1-0.3c1.9,1.7,1.6,4.6,5.6,6.6c3.4,1.3,10.5,0.3,12.2-2.6
			c2.2-3.8,2.8-5.1,3.8-6.6c1.6-2.1,4.3-1.2,4.3-0.5c-0.3,1.2-1.8,2.4-0.8,4.5c1.9,1.4,2.3,0.5,3.5,0.2c4-1.9,6.9-10.5,6.9-10.5
			c0.2-3.2-1.6-2.9-2.8-2.3c-1.5,0.9-1.6,1.2-3.1,2.2c-1.9,0.3-5.7,1.6-7.6-1.3c-1.9-3.5-1.9-8.3-3.4-11.8c0-0.3-2.5-5.5-0.2-5.8
			c1.2,0.2,3.7,0.9,4.1-1.2c1.2-2.1-2.7-7.9-5.3-10.9c-2.3-2.5-5.5-2.8-8.6-0.3c-2.2,2-1.9,4.2-2.3,6.3c-0.6,2.4-0.4,5.4,2,8.6
			c2.2,4.3,6.1,9.8,4.8,17.5c0,0-2.3,3.7-6.3,3.2c-1.7-0.4-4.4-1.1-5.8-11.8c-1.1-8.1,0.3-19.5-3.2-24.8c-1.2-3.2-2.2-6.3-5.2-0.8
			c-0.8,2.2-4.3,5.4-1.8,12.2c2.1,4.3,2.9,11.2,2,19c-1.4,2.2-1.8,2.9-3.6,5.1c-2.6,2.8-5.5,2.1-7.7,1.1c-2.1-1.4-3.7-2.1-4.6-6.5
			c0.2-7,0.6-18.5-0.7-20.9c-1.9-3.8-5-2.4-6.3-1.3c-6.4,5.8-9.6,15.7-11.5,23.6c-1.8,5.7-3.7,4.1-5,1.8
			C280.1,155.1,279.9,131.4,276,135.3L276,135.3z"/>
		<path class="st1" d="M294.8,174.1c2.8-2,1.5-3.4,5.8,0.8c5.3,9.1,8.7,20.8,9.2,31.3c-0.2,2.6,1.6,4.2,2.4,3.6
			c0.5-6,15.2-14.4,28.6-15.7c2.1-0.4,1.1-4.4,1.4-6.4c-0.8-7.5,4.2-14.3,11.2-14.8c9.5,1.4,12.7,6.5,12.9,14.3
			c-1,14.9-16.6,17.5-25.3,18.6c-1.3,0.5-1.9,1.1,0,1.9l36.6,0.2l1.9,1.1c0.2,0.9-0.5,0.1-2,2.5c-1.4,2.4-3.6,7.9-3.7,11.5
			c-10.9,3.5-22.2,5-33.6,6.4c-4,2-6,4.7-5.1,7.7c1.3,3.4,10.2,6.7,10.2,6.9c1.7,1.1,3.7,3.5-0.5,8.5c-17.9-0.8-31.7-8.4-36.5-19.1
			c-1.4-1.1-3,0-4,1.4c-7,9-13.8,17.1-25.7,21.4c-7.1,1.8-14.3-1.1-17.8-5.7c-2.3-2.6-2.2-5.6-3-6.2c-3.8,1.7-36.8,15.7-32.6,9.2
			c8-8.6,21.9-14.9,34.2-23.4c0.9-2.8,2.5-12.4,7.3-15.6c0.3,0-0.8,5.6-0.7,8c0.1,1.9-0.1,2.7,0.3,2.2c0.8-0.5,15.7-12.2,16.9-15.8
			c1.4-2.1,0.4-7.3,0.4-7.4c-2.8-7.2-6.7-7.8-8.2-11.4c-1.3-4.7-0.7-10.2,2-11.7c2.4-2.2,5.3-1.9,7.9,0.5c3,2.7,5.7,8,6.4,11.9
			c-0.5,1.6-3.9-1-5.1-0.3c2.1,2.2,3.1,4.7,3.8,7.7c1.9,8.2,1.3,11.4-0.6,16.7c-6.6,13.9-15,18-22.4,23.2c-0.2,0.1-0.3,3.5,2.5,5.4
			c1,1,4.8,1.5,9.3,0.1c8.8-4.8,17.8-13.6,22.4-23.4c1.3-7.4-0.5-15.3-2.4-22.1c-2.9-6.7-6.3-16.3-6.3-16.4
			C292.7,177.6,293,176.2,294.8,174.1L294.8,174.1z M199,135.5c4.2,2,12.1,1.2,11.8-5.6c0-0.6-0.2-2.6-0.2-3.2
			c-0.9-2-3.2-1.5-3.7,0.6c-0.2,0.7,0.3,1.8-0.3,2.1c-0.4,0.4-1.7,0.1-1.6-1.7c0-0.6-0.4-1.2-0.7-1.6c-0.3-0.2-0.4-0.2-0.9-0.2
			c-0.6,0-0.6,0.2-0.9,0.7c-0.1,0.5-0.3,1-0.3,1.6c-0.1,0.7-0.3,0.9-0.8,1c-0.5,0-0.4,0.1-0.9-0.2c-0.3-0.3-0.6-0.4-0.6-0.9
			c0-0.5-0.1-1.3-0.3-1.7c-0.2-0.3-0.6-0.4-1-0.6c-2.3,0-2.5,2.6-2.3,3.6C196,129.5,195.9,134.2,199,135.5z"/>
		<path class="st1" d="M322.5,187.7c4.2,2,14.2,0.9,11.8-5.6c0-0.6-0.2-2.6-0.2-3.2c-0.9-2-3.2-1.5-3.7,0.6
			c-0.2,0.7,0.3,1.8-0.3,2.1c-0.4,0.4-1.7,0.1-1.6-1.7c0-0.6-0.4-1.2-0.7-1.6c-0.3-0.2-0.4-0.2-0.9-0.2c-0.6,0-0.6,0.2-0.9,0.7
			c-0.1,0.5-0.3,1-0.3,1.6c-0.1,0.7-0.3,0.9-0.8,1c-0.5,0-0.4,0.1-0.9-0.2c-0.3-0.3-0.6-0.4-0.6-0.9c0-0.5-0.1-1.3-0.3-1.7
			c-0.2-0.3-0.6-0.4-1-0.6c-2.3,0-2.5,2.6-2.3,3.6C319.5,181.7,319.4,186.4,322.5,187.7L322.5,187.7z M394.5,166.1
			c4.2,2,12.1,1.2,11.8-5.6c0-0.6-0.2-2.6-0.2-3.2c-0.9-2-3.2-1.5-3.7,0.6c-0.2,0.7,0.3,1.8-0.3,2.1c-0.4,0.4-1.7,0.1-1.6-1.7
			c0-0.6-0.4-1.2-0.7-1.6c-0.3-0.2-0.4-0.2-0.9-0.2c-0.6,0-0.6,0.2-0.9,0.7c-0.1,0.5-0.3,1-0.3,1.6c-0.1,0.7-0.3,0.9-0.8,1
			c-0.5,0-0.4,0.1-0.9-0.2c-0.3-0.3-0.6-0.4-0.6-0.9c0-0.5-0.1-1.3-0.3-1.7c-0.2-0.3-0.6-0.4-1-0.6c-2.3,0-2.5,2.6-2.3,3.6
			C391.5,160.1,391.4,164.8,394.5,166.1z M431.8,220.4c-7.3,8.3-4.1,22-2.4,24.9c2.4,4.8,4.4,7.9,9.1,10.3c4.3,3.2,7.6,1.2,9.5-1
			c4.3-4.5,4.4-15.9,6.4-18.2c1.4-4.2,5-3.4,6.7-1.6c1.7,2.4,3.7,4,6.1,5.3c4,3.6,8.8,4.2,13.6,1c3.2-1.8,5.3-4.2,7.2-8.8
			c2.1-5.6,0.9-31.6,0.5-47.1c-0.2-1.2-4.2-21.2-4.2-21.4c0-0.2-0.5-10.2-1-12.6c-0.1-1-0.3-1.2,0.7-1.1c1.1,0.9,1.2,1,1.9,1.3
			c1.1,0.2,2.1-1.6,1.4-3.3l-10-18.5c-0.8-0.8-1.8-1.7-3.1,0.2c-1.2,1.1-2.5,3-2.5,5.5c0.3,4.4,1.1,8.9,1.4,13.3l4,22.6
			c1.3,16.1,1.6,29.2,2.8,45.3c-0.2,6.8-2.3,12.7-4.3,13.6c0,0-3,1.8-5-0.2c-1.5-0.6-7.4-9.8-7.4-9.8c-3-2.8-5-2-7.1,0
			c-5.9,5.7-8.6,16.4-12.6,23.8c-1,1.6-4,3.1-7.2-0.1C428,232.3,432.8,216.3,431.8,220.4L431.8,220.4z M396.4,126.7
			c3.8,1.6,6.4,9.2,5.6,13c-0.8,4.6-2.8,9.6-4.2,9c-1.6-0.6,1.1-4.6-0.4-8.8c-0.8-2.7-6-7.7-5.4-9.2
			C390.8,127.5,394.1,126.1,396.4,126.7L396.4,126.7z"/>
		<path class="st1" d="M443.9,225c0.8-9.2-0.5-14.8-0.8-20.2s-6.1-46.6-7.3-50.6c-1.4-7.7,5.7-1,4.9-5.5
			c-2.5-5.7-8.6-13.9-10.5-18.8c-1.2-2.1-0.7-4-3.3-0.6c-2.4,7.9-3.2,14.3-2.3,19.2c6.2,32.3,12.5,59.1,11.5,89.9
			C439.1,238.4,442.5,231.6,443.9,225L443.9,225z M508.4,139.7c3.4,1.7,5.5,11.3,5.1,14c-0.7,5-2.5,10.4-3.8,9.7
			c-1.4-0.6,0.3-7.4-0.4-9.5c-0.8-3-5.5-8.4-5-10C503.3,140.6,506.3,139.1,508.4,139.7L508.4,139.7z M252.7,207.6
			c3.3,1.3,5.2,8.3,4.9,10.3c-0.7,3.7-2.4,7.6-3.7,7.1c-1.4-0.5,0.3-5.4-0.4-7c-0.3-3.8-4.8-5.7-4.8-7.3
			C247.9,207.7,250.7,207.2,252.7,207.6L252.7,207.6z"/>
		<path class="st3" d="M332.2,218.2c4.2,0.3,6.4,3.6,2.4,5c-3.9,1.3-7.7,2.4-7.7,8.1c1.5,7.9-2,5.2-4,4.1
			c-2.4-1.7-9.2-5.9-10.2-14.9c-0.1-2.2,1.5-4,4.2-4C321,217.6,327,217.6,332.2,218.2L332.2,218.2z"/>
		<path class="st1" d="M164.8,124.4c4.9,1.5,5.1,8.6,4.8,10.7c-0.6,3.8-2.4,7.9-3.6,7.4c-1.3-0.5-0.1-5.6-0.7-7.3
			c-0.7-2.3-4.8-6.4-4.4-7.6C160,125.1,162.8,123.9,164.8,124.4z M260.7,158c-3.7,2-5.2,8-2.9,11.5c2.2,3.1,5.6,1.9,6,1.9
			c3.6,0.5,5.8-6.8,5.8-6.8s0.1-2.1-4.2,1.8c-1.8,0.3-2.1-0.3-2.5-1.4c-0.4-1.9-0.3-3.8,0.6-5.7C264.2,157.6,262.8,156.8,260.7,158
			L260.7,158z M288.6,121.6c-1.9,1.3-5.6,5.1-5.7,9.6c-0.1,2.5-0.6,2.5,1.1,4.1c1.2,1.7,2.4,1.6,4.8,0.3c1.4-1,1.8-1.7,2.3-3.4
			c0.6-2.9-3,1.4-3.5-1.8c-0.8-2.9,1.5-4.2,3.7-7C291.3,121.4,291.3,120,288.6,121.6L288.6,121.6z M311.1,125.6
			c-0.8,1.8-1.8,11.1-1.6,11.1c-0.6,2.8,2.9,4,4.5,0.4c2.4-6.5,2.4-9.3,2.6-12.1C315.8,120.8,313,120.9,311.1,125.6z M453,197.9
			c0.5-0.5,20-14.4,20-14.4c2-0.7,1.6,7.1,0.6,7.1c0.4,1.6-19.2,14.9-20.6,14.4C452.1,205.6,451.1,199.6,453,197.9L453,197.9z
			 M470.8,197.7c3.4,1.7,4.8,11.8,4.4,14.5c0.1,5.3-3.3,9.6-4.6,8.9c-1.4-0.6,0.1-6.6-0.6-8.7c-0.8-3-3.7-8.5-3.2-10.1
			C465.9,198.9,468.7,197.1,470.8,197.7L470.8,197.7z M354.8,241.1c1.4-2,5.5-4.8,5.6-4.8c1.9-1,3.8,0.8,3.7,0.6
			c0.3,1.9-1.2,3.7-0.7,6.3c0.4,1,0.7,2.2,2.6,1.8c3.1-2.4,6-2.6,9.1-2.8c2.4,0.1,2.5,4.2,1,4.2c-5.7,1.2-8.3,2.8-12.4,4.3
			c-1.9,1.1-3.6-0.3-3.6-0.5s-1.1-1.1-0.3-3.7c0.1-2.1-0.7-3.2-2.4-2.9c-1.3,0.7-2.4,1.2-3.1-0.3C354,242.2,353.9,241.7,354.8,241.1
			L354.8,241.1z M491.4,246.5c0.8,1.1,1.4,2-0.1,3.8c-1.4,1.3-2.3,1.9-3.7,3.2c-0.6,1.1-1.1,2.8,0.9,3.3c3.6,1,12.1-4.4,12.1-4.6
			c1.4-1,0.9-3,0.8-3c-0.8-0.9-2.6-0.4-3.8-0.5c-0.6,0-2.5-0.3-1.6-2c0.8-1,1-1.7,1.5-3c0.6-1.3,0.1-2.1-2-2.8
			c-2.1-0.4-2.9-0.2-5.2,0c-1.3,0.3-1.7,0.8-1.9,2.3C488.5,245.7,489.9,245.6,491.4,246.5L491.4,246.5z"/>
		<path class="st4" d="M355.5,189.7c-0.5,0.9-2.3,0.9-4-0.1s-2.6-2.5-2.1-3.5s2.3-0.9,4,0.1S356,188.8,355.5,189.7z M266.4,136.1
			c-1,0.2-2.3-0.7-3-2s-0.3-2.7,0.7-2.9s2.3,0.7,3,2S267.4,135.9,266.4,136.1z"/>
		<path class="st5" d="M442.6,375c9.4,0.5,18.1,0.1,27.5,0.6c1.7,1.4,0.5,5-0.6,4.7c-3-0.1-4.8-0.2-7.8-0.2c-0.1-3-7.7-2.5-7.5,0.1
			c-4.1,0.5-7.8-0.1-11.9-0.3C441,378.3,441.2,375.6,442.6,375L442.6,375z"/>
	</g>
</g>
</svg>
