<?xml version="1.0" encoding="utf-8"?>
<!-- Generator: Adobe Illustrator 20.0.0, SVG Export Plug-In . SVG Version: 6.00 Build 0)  -->
<!DOCTYPE svg PUBLIC "-//W3C//DTD SVG 1.1//EN" "http://www.w3.org/Graphics/SVG/1.1/DTD/svg11.dtd">
<svg version="1.1" id="Layer_1" xmlns="http://www.w3.org/2000/svg" xmlns:xlink="http://www.w3.org/1999/xlink" x="0px" y="0px"
	 viewBox="0 0 800 480" style="enable-background:new 0 0 800 480;" xml:space="preserve">
<style type="text/css">
	.st0{fill:#0000D6;}
	.st1{fill:#006000;}
	.st2{fill:#FFCC00;}
	.st3{fill:#FFFFFF;}
</style>
<g>
	<g transform="scale(.9375)">
		<path class="st0" d="M0,507.2L822.9,0H0V507.2z"/>
		<path class="st1" d="M853.3,0L22.6,512h830.7V0z"/>
		<path class="st2" d="M853.3,0h-45.7L0,485.4V512h45.7L853.3,27.6L853.3,0L853.3,0z"/>
		<path class="st3" d="M71.4,9.1l11.9,34.4l38.5,0L90.6,64.8l11.9,34.4L71.4,77.9L40.3,99.2l11.9-34.4L21.1,43.5l38.5,0L71.4,9.1z
			 M262.5,9.1l11.9,34.4l38.5,0l-31.1,21.3l11.9,34.4l-31.1-21.3l-31.1,21.3l11.9-34.4l-31.1-21.3l38.5,0L262.5,9.1z M262.5,153.6
			l11.9,34.4l38.5,0l-31.1,21.3l11.9,34.4l-31.1-21.3l-31.1,21.3l11.9-34.4L212.2,188l38.5,0L262.5,153.6z M167.5,82.2l11.9,34.4
			l38.5,0l-31.1,21.3l11.9,34.4L167.5,151l-31.1,21.3l11.9-34.4l-31.1-21.3l38.5,0L167.5,82.2z M71.4,153.6L83.3,188l38.5,0
			l-31.1,21.3l11.9,34.4l-31.1-21.3l-31.1,21.3l11.9-34.4L21.1,188l38.5,0L71.4,153.6z"/>
	</g>
</g>
</svg>
