<?xml version="1.0" encoding="utf-8"?>
<!-- Generator: Adobe Illustrator 20.0.0, SVG Export Plug-In . SVG Version: 6.00 Build 0)  -->
<!DOCTYPE svg PUBLIC "-//W3C//DTD SVG 1.1//EN" "http://www.w3.org/Graphics/SVG/1.1/DTD/svg11.dtd">
<svg version="1.1" id="Layer_1" xmlns="http://www.w3.org/2000/svg" xmlns:xlink="http://www.w3.org/1999/xlink" x="0px" y="0px"
	 viewBox="0 0 800 480" style="enable-background:new 0 0 800 480;" xml:space="preserve">
<style type="text/css">
	.st0{fill:#FFFFFF;}
	.st1{fill:#DF0000;}
</style>
<g>
	<g>
		<path class="st0" d="M0,0h800v480H0V0z"/>
		<path class="st1" d="M0,0h800v240H0V0z"/>
		<path class="st0" d="M166.1,40.2c-33.2,7.6-57.9,32.2-64.9,65.7c-9.5,45.5,20.1,90,65.7,99.5c-46,13.1-93.6-13.3-106.6-58.9
			c-13-45.6,13.5-93.2,59.1-106.2C135.3,35.8,150,35.7,166.1,40.2L166.1,40.2z"/>
		<path class="st0" d="M153,110l4.9,15.1l-12.9-9.2l-12.9,9.3l4.8-15.1l-12.8-9.4l15.9-0.1l4.9-15.1l5,15.1l15.9,0L153,110z
			 M170.5,162l4.9,15.1l-12.9-9.2l-12.9,9.3l4.8-15.1l-12.8-9.4l15.9-0.1l4.9-15.1l5,15.1l15.9,0L170.5,162z M229,161.6l4.9,15.1
			l-12.9-9.2l-12.9,9.3l4.8-15.1l-12.8-9.4l15.9-0.1l4.9-15.1l5,15.1l15.9,0L229,161.6z M246.4,110l4.9,15.1l-12.9-9.2l-12.9,9.3
			l4.8-15.1l-12.8-9.4l15.9-0.1l4.9-15.1l5,15.1l15.9,0L246.4,110z M200.1,75.7l4.9,15.1l-12.9-9.2l-12.9,9.3l4.8-15.1l-12.8-9.4
			l15.9-0.1l4.9-15.1l5,15.1l15.9,0L200.1,75.7z"/>
	</g>
</g>
</svg>
