<?xml version="1.0" encoding="utf-8"?>
<!-- Generator: Adobe Illustrator 20.0.0, SVG Export Plug-In . SVG Version: 6.00 Build 0)  -->
<!DOCTYPE svg PUBLIC "-//W3C//DTD SVG 1.1//EN" "http://www.w3.org/Graphics/SVG/1.1/DTD/svg11.dtd">
<svg version="1.1" id="Layer_1" xmlns="http://www.w3.org/2000/svg" xmlns:xlink="http://www.w3.org/1999/xlink" x="0px" y="0px"
	 viewBox="0 0 800 480" style="enable-background:new 0 0 800 480;" xml:space="preserve">
<style type="text/css">
	.st0{fill:#000066;}
	.st1{fill:#FFFFFF;}
	.st2{fill:#CE1126;}
	.st3{fill:#8FC5FF;stroke:#FFFFFF;stroke-width:1.112;}
	.st4{fill:#366CC9;stroke:#000000;stroke-width:1.102;}
	.st5{fill:#5D3100;stroke:#000000;stroke-width:0.138;}
	.st6{fill:#FFFF00;stroke:#FFFFFF;stroke-width:1.08;}
	.st7{fill:#CF6200;}
	.st8{fill:#00B800;}
	.st9{fill:#5D3100;}
	.st10{fill:#00D860;}
	.st11{fill:#FFFF00;stroke:#000000;stroke-width:0.138;}
	.st12{fill:#FFFFFF;stroke:#000000;stroke-width:0.138;}
	.st13{stroke:#000000;stroke-width:0.138;}
	.st14{fill:none;stroke:#000000;stroke-width:0.138;}
	.st15{fill:#EF072D;stroke:#000000;stroke-width:0.138;}
	.st16{fill:#FFFF00;}
	.st17{fill:none;stroke:#000000;stroke-width:0.275;}
</style>
<path class="st0" d="M800,480V0H0v480H800z"/>
<path class="st1" d="M0,80.2h84.7L0,29.3V0h48.5L167,70.8V0h66.7v70.8L352.3,0h48.9v29.3l-85.1,51h85.1v80.3H316l85.1,51v29.3h-48.9
	l-118.5-70.8v70.8H167v-70.8L48.5,240.7H0v-29.3l84.7-51H0V80.2z"/>
<path class="st2" d="M369.6,0L235.7,80.3h32.1L401.1,0H369.6z M401.2,240.7l-133.5-80.2h32.2l101.3,61.1V240.7z M134.1,80.3L0,0
	v19.2l101.8,61.1H134.1L134.1,80.3z M133.9,160.5L0,240.7h32l133.9-80.2C165.9,160.5,133.9,160.5,133.9,160.5z"/>
<path class="st2" d="M0,96.9h181.2V0h39.2v96.9h180.7v47H220.4v96.8h-39.2v-96.8H0L0,96.9L0,96.9z"/>
<g>
	<path class="st3" d="M714.5,194.3c-0.2,73.3-11.8,152.2-106.6,189.8c-94.8-37.6-106.4-116.5-106.6-189.8H714.5L714.5,194.3z"/>
	<path class="st4" d="M607.9,384.2c43-17,68.9-42.6,84.3-72.3c-2.3,0.1-7.2,0-9.3-0.2c-2.3-0.2-90.9-9.1-101.4-12.9
		c-9.1-3.3-44,2.8-60.2,8.7C536.5,339,562.8,366.3,607.9,384.2z"/>
	<path class="st5" d="M541.6,338.7c1.4-0.5,4.2-0.4,5.3-0.2c1.3,0.2,1.5,0.3,2-1c0.5-1.4,1.5-1,2.3-0.3c0.8,0.7,2.9,0.3,3.7-0.8
		c0.8-1.2,1-1,1.9-0.2c0.8,0.8,1.2,0.6,2,0.3c0.8-0.2,2.2-1.2,2.9-2.4c0.7-1.3,1.7-1.7,2.3-1c0.6,0.7,1.2,1,2,0.9s1,0.7,0.9,1.7
		c-0.1,1,0.3,1.3,2.3-0.3c1.7,1.7,2.3,1,2.3-0.8c0-1.9-0.5-8.7-1.2-9.7c-0.7-0.9-1.4-3.6-1.5-5.7c-0.2-4-0.2-4.2-5-6.6
		c0-1.4-0.3-2-3.7-1.7c0.1-0.5-0.5-1.9-1.2-2.4s-0.8-0.8-0.5-2.4c1.4,0.1,2.9-0.1,3.7-1.3c0.8-1.2,3.5-0.9,5.1-0.2
		c1.6,0.7,3.7,0.8,6.9,0.3c1.2-0.9,3.1-2,5.2-3.1c2.1-1.2,2.7-1.6,2.8-3.3c0.3-4.2-1.2-9-2.3-11.2c-1.2-2.2-1.5-5-3.1-8.5
		c-1.8-3.8-1.7-4.8-3.7-7.1c-0.5-0.6-1.2-1.2-1.3-2.4c-0.1-1.3-0.6-3-2-4.3c-3.5-3.2-4.9-13.6-6.3-21.3c-0.8-4.4-0.2-14.8-2.1-16.4
		c-3.1-2.6-4.7-2.1-6.8-2.9c-1.5-2.1-2.2-6.3-3.6-10c-2.2,0.3-3.7,2.7-5.2,3.5c-1.5,0.8-1.7,0.8-1.7,2.9c0,2.1-1.2,5-3.3,8.3
		c-2.1,3.3-5.6,2.3-8.5,7.2c-6.4-7.8-6.5-10-7-12.2c-0.5-2.2-1.5-2.7-5.1-5.8c0-0.9-0.5-4.7-0.1-6.8c-2.7-2.2-4.7-1.9-5.9-0.2
		c-1.3,1.6-2.2,4.1-4.2,5c-1.2,1.5-4.8,5.3-7.7,9.9C505,266.2,514.1,306.5,541.6,338.7L541.6,338.7z"/>
	<path class="st6" d="M714.5,194.3c0.1-27.6-1.5-54.4-0.8-77.9c-35.4-15.9-82.1-19.1-105.9-19.1c-23.8,0-70.4,3.3-105.9,19.1
		c0.7,23.5-0.8,50.3-0.8,77.9H714.5z"/>
	<path class="st7" d="M507.1,226.3c1.2,1.9,3.3,5.1,3.5,6.8c0.8-1.7,1.5-2.4,1.6-3.5s1.4-3.1,0.9-4.2s-0.8-2,0.5-1.2
		c1.3,0.8,1,2.2,0.8,4.3c-0.8,5.7-3.1,6.9-3.5,10.7c3.4,8.1,0.9,11,4.6,18.9c0.6,0.4,2.1-0.3,2.6-0.2c2-1.4,3.5-0.9,6.3-0.3
		c2.8,0.6,4.3,2.6,4.3,4.3s0,2.2,0.6,3.3c0.6,1,1.8,2.7,1.5,3.9c-0.2,1.2,0.2,1.9,0.6,2.4c0.3,0.6-0.1,1.9-0.5,2.7
		c-0.4,0.8-0.2,1.9,1.2,3.6c1.4,1.7,4.7,9.1,4.7,13.4c0,4.3,0.2,6.3,2,7.1c1.8,0.8,2.3,1.5,2.1,3.4c-0.2,1.9,0.8,11.5,1,13.1
		c0.2,1.5,0.8,1.2,1.5,2c0.7,0.8,1.2,1.7,3.5,1.7s4.6-0.3,6.1-0.1c2.1,2.9,3.4,6.9,3.8,9.3c0.5,2.5,0.4,5.8,1.2,5.8s1.6,0.1,1.4-2.9
		c-0.2-3-0.5-3.5-1.5-5c-1-1.5-1.6-2.2-1-3.1s0.7-2.5,0.5-3.6c-0.2-1.2-0.6-2.9,1.4-0.6c2,2.3,2.6,2.9,3.1,3.7
		c0.6,0.8,0.8,2.3,0.7,3.7c-0.1,1.4,0.1,2,0.9,1.3c0.8-0.7,1.9,0.5,1.4,2s0.1,2.5,1.5,2.9s2,0.8,2.3,1.9c0.3,1.1,1.5,1.5,1.5-0.6
		c0-2.1-0.8-6.5-1.4-7.9c-0.6-1.4-1-4.4-1.2-6.2c-0.1-1.7-0.5-2.2-1.3-2.6c-0.8-0.4-1.5-0.9-1.6-1.8s-0.8-1.1-1.3-1.1
		c-0.5,0-1-0.4-1.3-1s-0.6-0.6-1.2-0.7c-0.6-0.1-1.5,0.3-1.8-0.6c-0.3-0.9-0.7-2.3-1.3-3c-0.6-0.8-1.1-1-1.2-3.6
		c-0.1-2.6-0.1-3-0.9-3.9c-0.8-0.9-2.2-3.4-2.8-4.4c-0.6-1-1.2-2.1-1.2,0.1c0,2.2,0,3.4,1.4,4.2c1.4,0.8,1.8,0.8,1.2,2s0,2,0.2,2.8
		c0.2,0.8,0.7,1.6,0,2.4c-0.7,0.8-1.4,0.6-1.3-0.7c0.1-1.3-0.3-2.8-0.9-3.9c-0.6-1-1-1.8-1.8-1.2s-1.3-0.1-0.8-0.6s0.4-0.8,0-1.2
		c-0.3-0.3-0.5-0.7,0.1-1.4s0.6-1,0.2-2.7c-0.4-1.6-2.9-9.8-4.1-11.7s-1-3.3,0.5-1.4s2.8,3.5,2.9,5c0.1,1.5,0.5,2.5,0.9,3
		s0.8,0.4,1-0.9c0.2-1.3,1.2-0.8-0.5-3.3c-1.6-2.5-4.7-6.5-5.8-13.9s-1.6-12.2-2.8-14.2c-1.2-2-1.5-2.5-1.6-4.3
		c-0.1-1.9,0-3.7-0.8-5.1c-0.8-1.4-1.4-1.6-1.5,0.5c-0.1,2.1,0.1,6.8,0.7,7.6c0.6,0.8,0.2,2.9,0.1,4.1s-2,2.3,1.9,4.7
		c1.5,0.9,1.3,2.2,1,3c-0.2,0.8-0.5,0.7-1.3-0.6c-0.8-1.3-1.6-2.3-2.5-3s-0.9-1.2-0.8-2.8c0.1-1.6,0.5-2.8,0-3.4
		c-0.5-0.6-0.7-0.1-0.9,0.8c-0.2,0.9-0.5,3.5-0.9,4.2c-0.5,0.7-0.7,0.2-1-1.3s0.1-3.8,0.9-6.5c0.8-2.7,1.3-5.5,0.6-9
		c-0.7-3.5-0.3-4.5-3-7.5c-2.7-2.9-5.7-5.7-7-9.3c-1.3-3.6-1.5-6.8-2.9-8.4c-1.4-1.6-3.4-3.7-4.7-4.3v-5.4c0-1.3-0.6-2.1-2.1-1.9
		c-1.5,0.2-2.5,1.5-3.4,3.3c-0.9,1.8-1.6,0.9-2.9,4S507.1,223,507.1,226.3L507.1,226.3z"/>
	<path class="st7" d="M515.5,260.5c0.9,0.6,1.8,1,3.2,0.3c1.4-0.7,3.1-2.7,4.9-0.7c1.9,2,2.9,5.2,2.9,7.8c0,2.6,0,7.3,2.9,10
		c2.9,2.7,4.4,5.5,4.5,9c0.1,3.5,1.4,8.9,1.8,10.3c0.3,1.4,1.2,3,2.1,4c0.9,0.9,1.6,3.6,1.8,6.4c0.1,2.8-0.4,4.8,0,6.2
		c0.3,1.4,0,2.6-1,1.9s-1.3-1-1.9-2.2s-1.3-0.9-0.7,0.8c0.6,1.8,2.3,3.4,3.8,3.4s2,0.2,2.9,1.2c0.9,0.9,1,1.4,2.7,1.4s1.9,0,3.4,0.5
		c1.5,0.5,1.5,0.2,2.3,0s1.6,0.5,2.2,2s2,5.7,2,6.9s0,2.3,0.8,3.5c0.8,1.2,0.6,2.3-0.3,1.6c-0.9-0.7-0.9-0.5-1.6-0.4
		c-0.7,0.1-1.2-0.2-2.1-0.8c-0.9-0.6-0.3-0.5-1.3-1.9s-1.5-1.9-1.5-0.8s-0.1,2.3-0.8,1.8s-1-0.6-1.6,0s-0.8,1-1.5-0.1
		c-0.7-1.2-1.5-1.2-2.2-1.4s-0.7-0.2-1-1.3c-0.4-1-1.4-1.3-2.3-1.3c-0.9,0-1.4-0.5-1.5-1.2c-0.1-0.7-0.7-1.2-1.2-1.5
		c-0.5-0.4-0.2-1.2-0.3-2c-0.1-0.8-0.8-0.5-1.3-0.7s-0.8-0.1-0.8-1.3s-0.5-1.5-0.8-2.3c-0.3-0.8,0-1.6,0.2-2.6
		c0.2-0.9,0.1-1.5-0.6-2.3c-0.7-0.8-0.1-1.6-2-3.3c-1.9-1.6-2.8-0.2-3.4-4.1c-0.6-3.9-1.8-11.8-2.8-13.1s-1.7-2.2-2.8-2.6
		c-1.1-0.3-1.8-0.1-1.9-2.3c-0.1-2.2-0.8-5-2.2-6.4c-1.4-1.4-2-1.9-2.7-2.5s-0.9-1.6,0-3.6c0.9-2,0.6-4.7,0.5-6
		c-0.1-1.3-0.5-2.9-0.2-4.3c0.2-1.4,0.1-3.1-0.2-4.1C515.4,261.4,514.9,261.2,515.5,260.5z M543.6,227.3c-1.6,2-3.3,3.7-5.4,5.3
		c-2.2,1.6-5,2.8-3.4,5.4c1.6,2.6,2.8,3,3.1,5c0.3,2,0.8,3.7,2.3,4.2c1.6,0.5,2.2,0.2,2.2,3.4s0,4.5,1.4,5.8
		c1.4,1.2,1.2,2.5,1.9,5.4c0.6,3,0.6,9.3,2.5,13.7c1.9,4.4,6.1,12.6,5.6,14.3s-1.1,3,0.8,5c1.9,2,3.1,5,3.3,6.7
		c0.2,1.7,0.5,2.3,2.3,1.7c1.9-0.6,2.8-1.2,3.4-2c0.6-0.8,1.9-0.6,3.6,0.3c1.7,0.9,4.4,1.9,5.9,0.9c1.6-0.9,2.3-2.3,3.7-2.3
		c2.2-1.6,3-4.8,3.4-5.8c0.5-0.9,0.2-0.9-0.8-1.9s-0.5-2.5-0.6-4c-0.2-1.6-0.8-3.9-2.6-7.3c-1.9-3.4-3-7.6-4.2-8.7
		c-1.2-1.1-1.9-3.7-2-5c-0.2-1.2-1.6-2.3-2.5-3.3c-0.9-0.9-1.9-2.3-3-7.8c-1.1-5.4-1.9-9.3-1.9-10.3s-0.2-1.1-1.1-1.4
		s-1.4-1.9-1.1-2.6c0.3-0.8-0.3-1.6-0.6-2.5c-0.3-0.9,0-2.6,0.6-3.6c0.6-0.9,0.5-3.6-0.2-5.8s-1.2-4-3.7-4.4c-2.5-0.3-3-0.9-3.9-3
		c-0.9-2-1.9-5.6-2.2-6.4c-0.3-0.8-0.8-0.9-2.6,0.6c-1.9,1.6-2.5,2.1-2.5,5c0,1.9,0.3,2.5,0.9,3.6c0.6,1.1,0.8,1.4,1.2,4.4
		c0.5,3,3.1,7.6-0.3,10.3c-3.4,2.6-3,3.3-2.8,5.1c0.2,1.9-0.9,3.1-1.6,0.5c-0.6-2.6,0-4.2,1.9-5.4c1.9-1.2,3.6-2.8,2.3-4.5
		c-1.2-1.7-1.7-5.8-1.9-7.6S544.7,225.9,543.6,227.3L543.6,227.3z"/>
	<path class="st8" d="M515.8,266.9c-0.1,1.3,0.2,2.7,0.3,3.8c0.1,1.3,0.5,4-0.5,6c-0.9,2-0.7,3,0,3.6c0,0,0.1,0.1,0.1,0.1
		c1.9-0.6,2.2-2.8,1.6-3.8c-0.5-1.1-0.4-2.4,0.2-3.5c0.6-1.1,0.6-1.7,0.1-2.5c-0.5-0.8-0.5-0.8,0.1-3
		C518.4,265.7,517,265.7,515.8,266.9L515.8,266.9z M535.8,297.1c-0.4-1.4-1.6-6.8-1.8-10.3c-0.1-3.5-1.6-6.3-4.5-9
		c-2.3-2.1-2.8-5.5-2.9-8.1c-1.7-1-2.4-0.6-2.3,1.4c0.2,2.1,2.3,3.1,1.9,6.1c-0.3,3-0.3,2.3,1.2,3.7c1.5,1.5,2,2.9,1.2,3.5
		c-0.8,0.6-0.9,1.7,0.2,2.1c1.1,0.4,1.2,1.6,1,2.6c-0.2,1.1,0.9,1.3,1.5,2.1c0.6,0.8,0.7,2.6,0.1,3.7c-0.6,1.1-0.7,2.8,0.4,1.9
		c1.1-0.9,1.6-0.1,2.4,1.4c0.7,1.3,1.4,0.9,2.2,0.5C536.1,298.3,535.9,297.7,535.8,297.1L535.8,297.1z M550.9,324.2
		c-0.7,1.4-1.5,0.9-2.2,0.2s-1.5-0.7-1.2-2c0.3-1.3,0.2-1.5-0.7-2.2c-0.1-0.1-0.2-0.2-0.3-0.2c-0.3,0-0.6,0-1.1,0
		c-1.6,0-1.8-0.5-2.7-1.4c-0.2-0.2-0.4-0.4-0.6-0.5c0,0.2,0,0.5,0,0.9c0,1.3,0,1-1.3,1.4c-1.3,0.4-1-1.3-1.3-2.3
		c0-0.2-0.1-0.4-0.2-0.6c-1.4-0.3-2.9-1.8-3.4-3.3c-0.6-1.8,0.1-2,0.7-0.8s0.8,1.5,1.9,2.2s1.4-0.5,1-1.9c-0.1-0.4-0.1-1-0.1-1.5
		c-0.3-0.5-0.6-0.8-1-1c-1.9-0.8-1.3-1-1.2-2.6c0.1-1.5-0.2-1.5-1.4-0.7c-1.2,0.8-1.3-0.1-1.3-2.4c0-2.3-1.5-2.3-1.9-0.7
		c-0.4,1.6-0.9,0.6-1.6-1.8c-0.7-2.3-1.6-2.9-1.8-0.7c-0.1,1.9-0.6,2.3-1.8,1.3c0.2,1.4,0.4,2.6,0.6,3.6c0.6,3.8,1.5,2.4,3.4,4.1
		s1.3,2.5,2,3.3c0.7,0.8,0.8,1.4,0.6,2.3c-0.2,0.9-0.6,1.7-0.2,2.6c0.4,0.8,0.8,1.2,0.8,2.3s0.3,1,0.8,1.3c0.3,0.1,0.7,0.1,0.9,0.2
		c0.3-0.4,0.6-0.9,0.9-1.2c1.4-1.4,3.5,0.1,4.2,1.9s1.5,2.2,2.6,0.8c1.1-1.4,0.7-1.2,1.9,0.1c1.2,1.3,1.6,1,1.6,1s1.2-0.5,2,0.2
		c0.8,0.7,1.3,0.6,2.8-1.6C553.8,322.1,551.6,322.8,550.9,324.2L550.9,324.2z M555.1,260.2c0.5-3.4,0.2-6.8,1.6-8.1
		c1.4-1.2,3.1-3.7,3,1.6c-0.2,5.3-0.3,5-1.4,6.2c-1.1,1.2-2,1.6-0.9,3.6c1.1,2,1.2,2.2,1.1,5.3c-0.2,3.1-0.2,4.4,1.1,5.9
		c1.2,1.6,1.6,1.7,1.9,3.4c0.3,1.7,1.4,4,2.8,5.3s3,4.8,3.1,7.3c0.2,2.5,2.3,3.1,4.4,4.8c2,1.7-0.5,3-2,2.2c-1.6-0.8-0.9,0-1.9,1.1
		c-0.9,1.1-1.2,1.2-2-0.6s-3.4-3.1-4.7-3.6s-2.3-2.5-3.4-4.5c-0.9-1.7-2.8-3-4.5-3.1c0.5,1.3,0.7,2.3,0.6,2.8c-0.5,1.7-1.1,3,0.8,5
		c1.9,2,3.1,5,3.3,6.7c0.2,1.7,0.5,2.3,2.3,1.7c1.9-0.6,2.8-1.2,3.4-2c0.6-0.8,1.9-0.6,3.6,0.3c1.7,0.9,4.4,1.9,5.9,0.9
		c1.6-0.9,2.3-2.3,3.7-2.3c2.2-1.6,3-4.8,3.4-5.8c0.5-0.9,0.2-0.9-0.8-1.9c-0.9-0.9-0.5-2.5-0.6-4c-0.2-1.6-0.8-3.9-2.6-7.3
		c-1.9-3.4-3-7.6-4.2-8.7c-1.2-1.1-1.9-3.7-2-5c-0.2-1.2-1.6-2.3-2.5-3.3c-0.9-0.9-1.9-2.3-3-7.8c-0.9-4.3-1.5-7.6-1.8-9.2
		c-1.1,1.8-1.9,2.2-2.3,1c-0.5-1.4-1.1-2.2-1.7-1.2c-0.6,0.9-0.8-0.8-0.8-1.6c0-0.8-0.2-0.9-0.9-0.9c-0.8,0-0.2-1.2-0.5-3.6
		c-0.3-2.3-0.8-2.6-1.1,0.2c-0.3,2.8-1.9,4.5-1.2,5.1c0.6,0.6,0.3,1.9-0.3,3.7c-0.6,1.9-0.3,3,0.2,4.2c0.5,1.2-0.3,3.6-0.6,5.6
		C553,261.6,554.6,263.7,555.1,260.2L555.1,260.2z M526.7,232.3c-1.2,0.1-1.9,1.1-1.3,4.6c0.4,2.2-1.2,1.7-1.9,0.6
		c-0.6-1.1-1.1-3.4-2.3-5.4c-1.2-2-0.6,1.4-0.8,3.3c-0.2,1.9,1.1,1.9,2.2,3.4c1.1,1.6,0.2,2.2-1.1,2.2s-0.6,2.5-0.3,4.2
		s-0.3,2-1.2,0.6c-0.9-1.4-0.3-3.6-0.2-6.2c0.2-2.6,0.3-2-1.4-2.6c-1.7-0.6-1.4-0.9-0.8-2.5c0.6-1.6,1.2-2.3,0.5-3.1
		c-0.8-0.8-0.6-1.2,0.6-1.4c1.2-0.2,0.8-1.1,1.9-1.4c1.1-0.3,1.6,0.2,1.7-1.9c0.1-1.7,0.7-2.7,2-2.2
		C525,227.1,526,231.1,526.7,232.3L526.7,232.3z M542.3,250.6c0,3.3,0,4.5,1.4,5.8c1.4,1.2,1.2,2.5,1.9,5.4c0.6,3,0.6,9.3,2.5,13.7
		c0.6,1.3,1.3,2.9,2.1,4.7c1-0.8,1.9-2.2,2.2-2.9c0.5-1.1-0.9-3.3-2-5.1c-1.1-1.9,0.2-2.5,1.2-4.8c1.1-2.3-0.2-2.5-1.9-3.1
		c-1.7-0.6-1.7-2.2-2.6-4.7s-0.8-3.6-0.2-5c0.6-1.4,0.2-2.5-1.1-2.8c-1.2-0.3-0.9-1.2-0.5-2.8c0.5-1.6,0.8-1.9-1.1-1.4
		c-1.4,0.4-1.8,0.6-2.2,1.1C542.3,249.1,542.3,249.7,542.3,250.6L542.3,250.6z"/>
	<path class="st9" d="M560.2,257.1c-0.2,1.9-0.2,2.8-0.6,3.4c-0.5,0.6-0.2,1.6,0.3,2.5c0.5,0.9,0.8,2.2,0.3,3.9s0.3,3.1,1.2,3.6
		c0.9,0.5,1.4,0,1.1,2.2c-0.3,2.2,0.9,4.5,2,5.4c1.1,0.9,1.9,2.5,1.7,3.4c-0.2,0.9,0.8,1.9,1.9,2.3c1.1,0.5,0.9,0.6,0.9,1.2
		c0,0.6,0.5,0.6,1.7,0.9c1.2,0.3,2.2,1.1,3.6,2.8c1.4,1.7,3.4,2.6,3.1,0.8s0-3.1-1.9-4c-1.9-0.9-3.3-5.4-4-8.6
		c-0.8-3.1-3.3-7.3-4.7-8.1c-0.2-2.2,0.2-3.3-1.2-4.4c-1.4-1.1-1.9-2.5-1.9-3.6c0-1.1-0.8-2.5-1.4-2.8c-0.6-0.3-0.9-1.1-0.9-2
		C561.5,255.3,560.4,255.4,560.2,257.1L560.2,257.1z"/>
	<path class="st10" d="M552,340.5c2.8-0.2,10.4-2.5,11.2-3.1c1.9,1.3,5.1,3,6.5,3c-2.7,0.6-4.4,0.2-5.1-0.2c0.3,0.8,1.3,2.1,1.9,2.2
		c-2.6-0.1-5.5-0.7-6.4-1.6C557.8,341.7,554.1,341.9,552,340.5z M557,344c1,0.3,5.9,1.1,6.6,1.1c-1.6,1.4-0.2,2.7,2.5,2.5
		c-1.3,0.2-2.8,0.7-1.8,0.9c2.4,0.5,8.9-1.3,10.1-2C572.2,349.4,561.4,352,557,344z M561.4,351.1c1.3-0.7,4.7-0.5,6.2,0.3
		C565.9,352.1,562.5,352.1,561.4,351.1z"/>
	<path d="M566.4,351c2.4-0.4,9.2,1.2,11.5-0.2c-0.8,2.2-5.1,2.5-6.5,2c-1.5-0.5-2.9-1-3.8-1C568.1,351.5,567.2,351.5,566.4,351z"/>
	<path class="st10" d="M568.9,354.4c1.8,0.3,8.3-0.5,10.3-1.3c2.1,0.7,6.2,1.8,7.2,1.7c-2,1.2-5.8,0.5-7,0
		C575.8,355.9,572.9,356.3,568.9,354.4L568.9,354.4z"/>
	<path class="st10" d="M572,355.4c2.6,0.6,4.8,0.2,7.3-0.7c0.8,0.3,2.7,0.8,4.4,0.7c1.2,0.7,2.7,1.6,4.3,1.7c-1.6,0.6-7.3,0-8.5-0.6
		c-2.9,0.1-7.9,0.7-9.2,1.7C570.3,357.4,570.8,356.2,572,355.4L572,355.4z"/>
	<path d="M568.9,342.3c2,0.7,9.3,0.4,13.1-1.4c1.5-0.7,2.4,0.5,0.7,1c-6.1,2.1-10.8,2.9-14.3,1C566.9,342.3,566.8,341.6,568.9,342.3
		L568.9,342.3z"/>
	<path class="st10" d="M604.7,332.4c-9,4.2-14.9,5.5-27.4,1.6c-1.2-0.4-2,0-0.7,0.8c1.3,0.8,8.2,2.7,9.8,2.8c1.6,0.1,1,0.9,0.1,1.2
		c-1,0.3-1.3,1,0.1,0.5s8.8-0.7,11.9,0.9c1.3,0.7,1.7,0.6,1.6,0.1s0.6-0.9,1.6-1c1-0.1,1.6-0.5,0.8-0.8c-0.8-0.3-0.9-0.5-0.3-0.8
		s0.6-0.6-0.2-0.8s-1.5-0.4-0.6-0.8c0.8-0.4,2-0.7,3-0.8C604.4,334.7,604,333,604.7,332.4L604.7,332.4z"/>
	<path d="M589.7,333.5c5.1,0.4,14.6-2,19.6-6.9c1.7,1,4.2,2.2,5.5,2.4c1.3,0.2,2.5,1.4,0.5,1.4c-2,0-4.8-0.8-6.1-1.4
		c-6.7,4.1-14.4,5.4-19.4,5C588.5,333.9,588.1,333.3,589.7,333.5z"/>
	<path class="st10" d="M574.6,305.5c1.8,1.2,4.8,3.3,8.9,3c2,1.6,5.1,2.9,6.5,3.2c-2.7,1.1-5.6,2-6.4,2.9c-1.2-1.2-2.8-1-3.2-1.6
		c-1.2,0.9-1,1.5-0.2,2c0.8,0.5,6.6,1.5,8.1,1c1.5-0.4,1.8,0.8,0.6,1.2c-3.2,1.1-9.3,0.1-11.4-3.3c-2.1-3.4-3.9-4.7-9.6-1.6
		c-0.6-1.6-0.6-2-1.8-2c-1.1,0-3.2-1.5-1.6-1.4C566.1,309,570.8,308.3,574.6,305.5L574.6,305.5z"/>
	<path class="st10" d="M576,313c-1,0.2-3.7,1.8-4.7,1.9c-1,0.1-2.7,1.5-0.9,1.6c1.8,0.1,4.1-1.9,5.4-2.1S577.1,312.7,576,313
		L576,313z M581.6,318.9c-0.7,0.1-3.7,0.8-4.5,0.8s-1.6,0.2-1.6,0.8c0.1,0.6,0.3,0.9-0.9,0.8s-2.3,0.4-2.6,0.7
		c-0.3,0.4-0.5,0.7,0.7,0.8c1.2,0.1,1.9,0.2,3.3-0.4c1.4-0.6,2.7-1.6,4.3-1.7C581.8,320.6,583.3,318.6,581.6,318.9L581.6,318.9z"/>
	<path d="M577.4,322.5c1.3,0.8,7.6,3,9.9,2.8c2.3-0.2,1.8,0.9,0.1,1.3c-3.6,0.8-7.9-0.8-10.8-3.1
		C575.1,322.2,576.4,321.8,577.4,322.5L577.4,322.5z"/>
	<path class="st10" d="M607.3,325.6c-4.8,1.5-9.7,1-11.7,0.5s-3.8-0.6-2.5,0.6c1.3,1.3,5.7,2.2,8.1,1.5c-8.7,2-11,1.8-13.1,1.5
		c-2.2-0.4-6.2-0.3-7.9-0.1c-1.3,0.1-3-0.1-3.8-0.5s-1-1.3,1.3-1.1c2.3,0.2,2.6-0.2,0.6-0.5c-2-0.3-4.7,0.5-2,2.2
		c2.7,1.7,8.6-0.1,12.3,0.9c3.7,1,11.7,1.8,19.2-4.3C608.1,325.9,608.7,325.1,607.3,325.6L607.3,325.6z M583.6,318.5
		c0.2,0.6,0.2,1.2,0,1.6s-0.2,0.9,0.6,0.4c0.8-0.6,1.2-1.3,2-0.9s2.7,0.4,3.6,0.2c0.9-0.1,1.2-0.3-0.1-0.8c-1.3-0.5-2.6-0.7-3.3-0.6
		c-0.7,0.1-1.6-0.1-2.2-0.4S583.4,317.9,583.6,318.5L583.6,318.5z"/>
	<path class="st10" d="M596,320.7c-1,0.1-2.7-0.6-3.7-1s-2.3-0.5-1.3,0.9c1,1.3,5.3,2.1,6.8,1.5c1.5-0.6,0.9-1.3,2.4-0.4
		c1.5,0.9,3.1,1.6,4.2,1.6s1.5,0,0.3-0.7c-1.2-0.7-1.8-0.9-1.9-1.5s-0.3-0.9,0.8-0.6s2.4,1,3.3,0.5s2.5-1.5,4-1.5l0.4-0.9
		c-2.1-0.2-3.4,0.5-4,0.7s-1.6,0.4-2.7,0.2s-2.6-0.3-2.9-0.6c-0.3-0.3-0.3-0.5,0.6-0.7c0.9-0.2,1.2-0.8-0.1-0.6s-4.7,0.1-6.5-0.5
		c-1.8-0.6-2.6-0.6-3.3-0.4c-0.8,0.3-0.6,1.1,0.5,1.2c1.1,0.1,3.6,0.3,4.5,1.1c0.9,0.8,0.8,0.9-0.2,0.5S594.1,319.4,596,320.7
		L596,320.7z"/>
	<path class="st10" d="M611.2,318.6l-0.4,0.9c2.2-0.1,7.4,0.5,9.1,1.5c1.6-1.3,1.3-1.7,2.5-1.5s2.6,0.6,3.3,0.3s1.1-0.3,1.8-0.2
		c0.7,0.1,2.2-0.2,3.1-0.7s2.7-1.2,3.7-1.2s2.3-0.2,0.4-0.5c-1.9-0.3-4.8,0.3-5.8,0.6c-1,0.4-4,0.6-5.7,0.6s-4.1,0.9-6.1,0.4
		S612.4,318.6,611.2,318.6L611.2,318.6z"/>
	<path d="M638.2,317.6c-3.5,2.6-7.7,3.1-12.7,3.5c-1.5,0.1-1,0.5,0.2,0.6c5.2,0.5,11.3-1.4,13.3-3.5
		C639.6,317.6,639.6,316.6,638.2,317.6L638.2,317.6z"/>
	<path class="st10" d="M614.4,323.5c1.5,0.1,6.8,1.4,8.5,2c1.3-0.1,1.6-0.4,1.4-0.9c-0.2-0.5-0.4-1,1.9-0.9c2.3,0.1,7.7,0.1,8.7,0.1
		c0.8-0.4,2.6-1.8,3.4-1.8c-2.1,0.1-10.8,0.6-11.9,0.5s-1.7,0-2.4,0.4s-1.1,0.6-2,0.2s-2.5-0.8-3.3-0.3
		C617.8,323.4,616,322.9,614.4,323.5L614.4,323.5z"/>
	<path class="st10" d="M634.9,323.8c0.8-0.4,2.6-1.8,3.4-1.8c1.5-0.1,3.3,0.5,4.1,0.6s1.7-0.1,1.1-0.7s-0.1-1.8,2.3-1.5
		c2.4,0.3,3.6,0.7,5.9,0.5s3.4,1.5,7.8-0.2c-0.3,1.8,0.5,1.9,1.3,1.5s1.8-0.2,3.2,0.8s9.9,1.2,11.9,0.8c2-0.4,3,0.7,1.5,1.2
		c-1.5,0.5-1.9,1.2-1.5,1.6c0.3,0.5,0.7,1-1.2,0.8c-1.9-0.2-2.2,0.4-3.2,1s-1.2,0.9-3.7,0.5c-2.6-0.5-3-0.1-4.4,0.1
		s-1.8,0.2-3.1-0.2s-4.4-0.9-6.3-0.4s-3.3,1.2-4.9,0.7s-1.7-0.2-0.7-1.3s1.3-0.9,3.3-1.2c2-0.2,3.5-0.8,2.1-1.6s-1.9-0.7-3.7,0.2
		s-2.8,1.5-4.9,0.4c-2.1-1.2-3.2-0.9-4.5-0.6S636.8,324.7,634.9,323.8L634.9,323.8z M641.9,327.3c-2.7,0.4-3.4-1.3-6.2-1
		c-0.9,0.1-2.5,1.3-0.3,1.1c2.2-0.2,4.5,1,6.6,0.8S643.1,327.1,641.9,327.3L641.9,327.3z M638.8,329.3c1.4-0.5,4.3,0.5,5.5,0.2
		s2.4,0.5,1.1,0.9s-4.4-0.8-5.8-0.4S636.8,330,638.8,329.3L638.8,329.3z M610.9,336.9c1.9,0.1,8.9-0.2,11.6-6.1
		c0.2-0.4,0.4-0.6,1.3-0.1s4.1,2.5,10.1,3c1.7,0.1,3.5,1,0.1,0.8s-8.7-1.2-10.6-2.3c-3,4.8-8.5,5.3-12.5,5.2
		C608.5,337.4,609,336.8,610.9,336.9L610.9,336.9z"/>
	<path class="st10" d="M625.9,328.9c-0.9,1.3-4.1,3.5-5.6,3.6c-1.5,0.1-5.8-0.3-6.9-0.7c-1.1-0.4-2.5-0.3-0.9,0.8s5.5,1.9,7.1,1.5
		c1.6-0.4,3.4-0.9,4.6-0.1c1.2,0.8,3.5,2.2,4.8,1.9c1.3-0.3,4.1-0.3,5,0.1c0.9,0.4,2.4,1.6,0.1,0.9s-4.1-0.1-5.2-0.6
		c1.2,1.6,3.8,4.3,6.1,4.3c0.5,0,0.9,0.9-0.2,1.5c1.1,0.5,3.7,0.9,5-0.3c-0.3,0.5-0.2,0.8,0.4,1s1.3,0.7,0.2,0.8s-3.4,0.4-4.1,0.1
		c2.3,1.5,8.2,3.8,14.2,2.6c1.1-0.2,1.8-0.7-0.1-0.6c-3.8,0.1-4.1,0.1-4.8-0.3c-0.7-0.4-0.6-0.8,0.5-1.1c1.1-0.4,3.9-0.8,5.1-0.8
		s2.3-0.5-0.1-0.5s-5.3,0-6.5-0.4s-2-0.9-0.8-1.8s2.5-0.6,3.1-1.3c-3.8-0.1-8.6-2.1-5.9-4c0.6-0.4,0.4-0.5-0.6-0.6s-3.9-0.9-5.1-1.6
		s-0.4-1.3,0.6-1.5C633.5,332.4,628.9,331.2,625.9,328.9L625.9,328.9z M660.1,328.8c-2.1,1.6-6.1,2.2-7.8,2.2s-1.9,0.6-0.6,0.8
		s2.8,0.4,3.4,0.2s0.9-0.2,1.8,0.2c0.9,0.4,2.7,0.6,4.4,0.1s4.3-0.8,5.4-0.7s2.3,0.1,0.1-0.5c-2.2-0.6-5.8-0.2-6.7,0.1
		s-3.3,0.1-2-0.4s2.4-1,3-1.6C660.7,329.1,660.4,329,660.1,328.8L660.1,328.8z M659,333.4c-1.8,1.3-4.4,2.6-7.1,2.7
		c2.5,0.9,4.5,3.4,6.1,3.3c-0.8,0.5-1.7,1.2-2.7,1.3c1.5,0.4,4.1-0.1,6.2-1.2c3.5,1,8,0.4,9.6-0.9c-2.3,0-5-0.8-6.2-1.9
		c1.1,0,2.2-0.7,2.7-1.3C664.8,335.8,660.3,334.5,659,333.4L659,333.4z"/>
	<path class="st10" d="M655.3,340.7c1-0.1,1.9-0.8,2.7-1.3c-1.9,0.6-10.3-0.7-12.8-2.9c-2.5-2.2-2.5-0.5-0.8,1
		S649.2,341.5,655.3,340.7z M661.4,346c-1,0.6-6.1,0.9-7.7,0.6s-2.3-0.2-1.9,0.5s0.6,1.2-0.8,1s-3.7,0.1-4.7,0.5
		c-1,0.4-2.2,1.2-0.1,0.9c2.1-0.4,4-0.8,5.6-0.4s7.2,0.5,8.3,0.1s0.3-0.5-0.2-0.5s-0.8-0.4,0-0.7S661.2,346.7,661.4,346L661.4,346z
		 M612.9,339.2c-2.1,0.9-9.1,2.8-11,2.9c-2.3,1-4.2,1.6-5.4,1.6c0.8,0.7,4,1.4,5.2,1c-0.7,0.7-2.3,1.5-2.9,1.9
		c1.9-0.2,4.1,0.2,5,0.4c-2.5,1.4-5.8,1.9-7.6,1.6c0.6,0.8,1.4,1.6,2.5,1.6c-2.2,0.6-4.9,0.6-6.3,0.1c0.6,1.2,1.2,1.9,2,2
		c-1.9,0.2-4.2,0.6-6.2-0.6c1.5,2,4.9,2.7,9.9,2.1c5-0.6,9.2-2.8,10.4-3.7c-2.1,0.2-4.9,0.4-6.3,0.1c2.8-0.7,8.9-3.3,9.9-4.3
		c-1.2,0-2.3-0.4-3.1-0.9c1.6,0.2,7.3-0.5,9.1-1.2c-2.1-0.5-3.4-1.8-4-2.6c7.3,2.3,15.5,1.6,19.5,0.6c0.9-0.2,1-1.4-0.8-1.3
		c-3.3,0.2-9.6-0.7-11.2-1.5c1.5,1.2,3.4,1.9,4.7,2.1C623.3,342,619.1,342.6,612.9,339.2L612.9,339.2z"/>
	<path class="st10" d="M598.9,346.7c0.6-0.4,2.2-1.2,2.9-1.9c-1.3,0.3-4.4-0.4-5.2-1c1.2,0,3-0.6,5.4-1.6c-4.2-0.1-7.1-0.1-8.6-0.9
		s-4.3-0.6-5.4-0.4s-0.7,2,3.7,1.5c-1.9,1.3-6.9,1.8-8.7,1.3c0.5,1.5,0.8,3,0.4,3.8c2.5,1.4,8.9,3.1,12,2.9c-2.8-1-4.3-2.2-2-2.5
		C595.7,347.8,596.9,347.3,598.9,346.7L598.9,346.7z"/>
	<path d="M591.7,354.3c5.6-0.5,13.1-0.6,19-5.6c1.5-1.3,2.5-0.9,1,0.5c-3.1,2.8-11,6.6-18.4,6.8C590.3,356,588.9,354.5,591.7,354.3
		L591.7,354.3z"/>
	<path class="st10" d="M633.5,345.1c-1.4,0.5-5.3,1.2-6.5,1c-1.2-0.2-2.9-0.2-3.8,0.4c-0.9,0.6-1,0.9,0.3,1s2.9,0.2,3.7,0.2
		c-1,0.6-1.8,1.4-2,1.8c1.9-0.5,5.3,0.4,6.3,0.9c-0.8,0.2-1.6-0.1-2.3-0.4c3.1,3.3,12.5,3.3,14,2.7c-0.7,0.5-1.3,1-2,1.2
		c2.6,0.5,5.7,0.4,8.6-1.3c-1,0.2-4-0.1-4.7-0.2c0.6-0.6,1.4-1.1,2.3-1.3c-1.2-0.2-4.8-0.1-5.7,0.4c0.3-0.7,1-1.6,1.7-1.9
		c-4.6,0-10.2-0.1-12.2-1.2c3.3,0.4,6.9-1.6,8.4-1.6C637,346.7,634.2,346.1,633.5,345.1L633.5,345.1z M621.8,347.6
		c-2.3,0.5-5.7,1.4-6.6,1.9c-0.9,0.5-1.9,0.8,0.1,0.8c2,0,7.6,0.2,8.8,0.4c-3.1-0.5-7.3-0.6-8.1-0.6c-0.8,0-1.8-0.1-0.2-0.5
		C617.3,349.2,619.2,348.2,621.8,347.6L621.8,347.6z M617.2,353.1c0.8,0,4.4,0,5.8-1.2c1.5,1.1,4.3,2.7,6.1,2.7
		c1.8,0,1.6,0.5,0.1,0.6c-1.6,0.2-4.7-0.8-6.2-1.9C620.7,354,619,353.4,617.2,353.1L617.2,353.1z M590.2,368.8
		c3.6,1.4,8.4,2.5,11.9,1.3c2,1.8,6.1,1.9,8.3,1.4c2.2-0.5,4.2-0.7,6.6,0.1c2.4,0.8,7.5,0.9,8.9,2c-1.3,0.1-4,0-4.7,0.2
		c-0.6,0.2-0.3,0.6,0.9,1.2c-4-0.2-10.8,1.5-12.9,3.3c0.8-1.8,3.1-4.3,6.8-4.3c-2.1-0.8-8.8-0.8-11,0.5c-0.6-0.7-1.4-1.9-1.5-2.3
		C600,374.2,593,371.3,590.2,368.8L590.2,368.8z M580.9,362.2c4.3-0.6,7.2-2,8.5-3.3c0.8,0.7,3.9,1.4,7.3,0.4
		c-0.7,0.5-0.8,1.5-0.5,2c-2.3,0.1-6.6,1.2-8,1.9c-1.5,0.8-5.7,1.3-7.1,0.5C579.8,363,579.7,362.4,580.9,362.2L580.9,362.2z"/>
	<path class="st10" d="M596.3,361.4c-2.3,0.1-6.6,1.2-8,1.9c0.3,0.6,0.5,1.5,0.5,2.2c4.2-1.5,13.8-2.4,17.5-1.9
		c-1.8,0.1-5.1,1.9-6.9,2.2c4.5-0.4,9,0.6,10.1,0.9c1.2,0.3,1.4,1.2,0.5,2s-1.3,0.9,0.6,1c1.9,0.1,5.7-0.2,7.5-1.9
		c-0.7-0.8-2.5-0.5-3-1c1.2-0.4,2.6-1.3,3.1-1.9c-3.1-0.1-4.3-0.1-5.4-0.4c-1-0.2-1.8-0.5-0.5-1.2c1.3-0.7,1.9-1.3,2.3-1.8
		c-2.3,0.6-5.8,1.2-8.8-1.2c1.1,0.3,3.7,0.1,4.7-0.3c-1-0.5-1.8-0.9-2.6-0.9c2.4-1.2,7.1-2.2,12.9,0.1c2.9-0.2,6.1-0.1,8.3,0.5
		c0.9-0.9,2.9-3.1,4-3.7c-6.9,0.6-19.2-0.7-19-4.3c-2.2,2.9-7.3,4.5-9.6,4.1c-0.2,1,0.7,2.3,1.5,3c-2.3,0.5-6.3,0.8-8.2,0.5
		c1,1,3,2,4.2,1.9C599.5,361.1,598.3,361.5,596.3,361.4z"/>
	<path class="st10" d="M610.6,369.6c1.9,0.1,5.7-0.2,7.5-1.9c-0.7-0.8-2.5-0.5-3-1c1.2-0.4,2.6-1.3,3.1-1.9
		c4.9-0.4,9.3-0.2,11.4-0.8c2.1-0.6,7.5-0.3,8.5-0.6c-4.7,0.8-5.6,1.2-5.8,1.9s1.5,1.4,2.6,1.4c-2.1-0.1-4.7,2.1-5,3
		c-2.8-1.6-4.1,0.3-4.4,0.9c-1.2-0.5-5-0.4-7,1.3c-2.6-0.8-4.3-1.2-6.8-0.8C613.2,370.9,612.9,369.8,610.6,369.6L610.6,369.6z
		 M633,355.9c1.6-0.1,5,0.1,6.2-0.1c-0.8,0.4-1.9,1.2-2.1,1.5c4-0.5,9.4-0.8,11-0.5c-1.9-0.3-3.9,0.9-4.9,1.6s-0.4,1,0.9,1.2
		s3.2,1.2,0.7,0.9s-7.3-0.4-8.5-0.2s-1.8-0.4-0.1-0.6s2.9-0.8,3.7-1.3c-1.4,0.4-4.1,0.4-4.9,0.1s-1.3-0.7-0.4-0.9s0.3-0.6-0.7-0.5
		s-3.5,1.2-4.9,2.5C630.5,358.1,631.9,356.7,633,355.9L633,355.9z"/>
	<path d="M615.2,358.6c1.9,2.2,4.2,3.4,7.8,3.5c0.8,0,2.2,1,0.3,1.1c-4.9,0.2-7.3-1-9.5-4.1C613.4,358.4,614.2,357.5,615.2,358.6
		L615.2,358.6z M644.4,317.8c2.6,1.2,7.8,2.3,11.8,2.1c0.7,0,2.1,0.7,0.3,0.9c-4.5,0.4-8.6-0.2-12.4-2.3
		C643.1,317.9,643.4,317.3,644.4,317.8L644.4,317.8z"/>
	<path class="st10" d="M647,317.8c4-0.1,6.9-0.1,8.2,1.1c2.3-0.7,6.4-1.1,7.3-0.9s2-0.2-0.2-0.8c-2.2-0.5-7.2-0.7-8.7-0.4
		c-1.6,0.3-6.5,0.5-8.1,0.3C646.1,317.2,646.6,317.3,647,317.8z M662.4,319.3c1.9-1,7.2-0.1,8.9-0.8c-1.2,1.4,3.7,1.5,8,0.4
		c-1.6,1-5.1,1.2-6.6,1.9s-2.3,0.2-3.5-0.4S665,318.9,662.4,319.3z"/>
	<path class="st10" d="M679.3,319c-4.3,1.1-9.2,1-8-0.4c-1.6,0.7-7-0.2-8.9,0.8c1.9-1.2,3.4-0.2,4.8-2.6c0.9,0.2,2.9,0.3,3.6-0.6
		c1.2,0.3,3.4,0.8,4,1.5c0.6,0.6,1.6-0.2,0.8-1.2c1.9-0.7,0.7,0.8,5.2-0.3c0.9-0.2,3.2-0.6,4-0.7C683.3,316.6,681.5,317.9,679.3,319
		L679.3,319z"/>
	<path class="st11" d="M596.5,299.4c-0.1-8.8-0.9-82.7-0.9-99.7c0-4.1-2.1-3.3-2.1,0v99.3C594.4,299.1,595.7,299.3,596.5,299.4z
		 M628.9,194.3l3.6,105.3l-0.6,0.8l-2.1,0l-2.3-106.1H628.9z M659.6,283.2c-0.3-10.7-1.6-60.3-2.2-84.8c-0.1-3.3-2-2.7-2,0.1
		c0.2,19.7,1.4,74.8,1.6,84.7C657.8,283.3,659.2,283.2,659.6,283.2L659.6,283.2z"/>
	<path class="st12" d="M611,211.8l-31-0.5c-1.7,6.3,6.1,6.2,9,4.5c3.4,2.6,5.9,2.3,7.8,0.2c2.7,2.2,6.1,1.6,7.5,0.2
		C608,219.2,611.9,216.4,611,211.8z M613.4,227.4l-31.7-0.1c-5.5,5.2,1.6,7.8,7.7,4.2c0.8,1.7,4.5,2.8,7.5,1.4
		c2.7,2.1,6.1,0.6,7.8-1.2C607.9,233.3,611.7,233.7,613.4,227.4z M612.5,247.3l-30.5-0.2c-0.6,5.5,5.6,4.8,8,3.4
		c2.3,3.6,7.5,2.8,9.4,0.7c2.9,2,5.6,1.5,7.1-0.3C609.9,253.7,612.7,249.9,612.5,247.3L612.5,247.3z M614,267.1l-34.2-0.6
		c-1.9,5.8,3.4,6.9,5.8,5.5c0.8,3.4,5.4,2.2,6.5-0.2c1.7,1.7,4,0.8,5-0.3c0.5,3.1,4.4,3.3,7.5,0.6
		C610.9,276.3,616.7,271.3,614,267.1z M644.3,258.9l-28.4-0.2c1.3,5.8,4.1,7.3,8.6,4c3.4,3.5,9,2.2,10.4,0.5
		C641,268.1,644.4,262.3,644.3,258.9z M641.4,239.5l-27.5-0.8c0.5,7,7.1,6.8,10.5,3.7c2.6,3.3,7.1,2.3,8.7,0
		C636.6,245.9,642.3,243.8,641.4,239.5z M645,217.5h-29.6c0.3,4.9,6.9,7.7,11.9,3c1.4,5.6,6.8,3.8,9.1,1.6
		C639.8,226.5,647.6,221.6,645,217.5z M643.3,202.6l-26.5,0.3c-0.5,4.3,5.8,6.2,8.2,2.7c1.3,2.2,5.7,2,7-0.1c2.1,3.3,4.7,1,5.5,0
		C640.5,207.8,643.7,206.7,643.3,202.6z M674.3,212.3l-32.4-0.3c-0.1,3.4,3.4,4.8,5.5,3.4c0,3.3,4.5,4.3,7.5,1.7
		c2,2.8,7.8,3.6,10.1-0.2C669.7,220.8,674.8,218,674.3,212.3z M673.8,238.9l-31.7-0.1c0.2,4.4,5.4,5.9,8.3,3.6c0.7,3.7,4.7,4,7,2.1
		c2.8,3.1,7.5,3.4,10-0.1C671.2,245.8,674.2,242.5,673.8,238.9L673.8,238.9z M672.1,262.8l-25.1-0.3c0,4.4,5.2,5,7.6,2.7
		c2.4,2.9,6.2,2.9,8.3,0.6C666.3,268.6,671.4,267.8,672.1,262.8z"/>
	<path class="st13" d="M631.9,300.4c-13.5,0.2-27.3,0.2-36.6-1.2s-12.3-2.7-18.7-6.5c-9.6-5.7-11.9-7.1-25.4-15
		c-2.1-1.2-4.3,0.3-1.4,2.2c13.6,9,18.8,12.3,25.3,16.6c6.8,4.4,11.1,8.4,15.3,13.1c5.4,6.1,9.3,6.2,11.8,5.2
		c2.4-0.9,6.3-2.2,10.1-1.3c3.8,0.9,9,1,11.7,0.6c2.4,2.2,8,1.7,11.2,1c3.1-0.7,5.5-1,7.7-0.6c2.2,0.5,5.6,0.1,7.8-0.2
		s8-0.9,12.1-0.3c4.1,0.6,8.3,0.2,11-0.6c2.7-0.8,7.6-0.6,9.2-0.1c2.3-1.7,3.5-4,4.1-6.3c2.7-0.3,3.7-0.7,4.3-2.3
		c1.1-2.9,2.2-5.8,2.5-7.1h1.1l0.3-2.6l-2.3-2.6l0.8-5l2.4-0.6c0.1-1.5-0.6-3.8-1-4.8c-14.7,0.6-29.1,1-39.4,1.3
		c-1.2,0.9-2.4,3.4-2.7,4.9c-6.3,1-10,1.5-11.7,1.9s-2.5,0.5-3.8,2.2C635.6,295.1,633.6,298.3,631.9,300.4L631.9,300.4z"/>
	<path class="st13" d="M679.1,282.6c0.7-2.5,2.6-9.1,6.1-21.7c0.6-2.1-1.5-2.9-2.2-0.2c-4.1,14.7-5.7,20.2-6.2,22
		C677.6,282.7,678.7,282.6,679.1,282.6L679.1,282.6z"/>
	<path class="st12" d="M701.9,258c-5,2.6-7.3,3.6-9.6,2.7c-2.1-0.8-5.2-1.3-7-0.4c0,0.2,0,0.4-0.1,0.6c-1.5,5.6-3.1,11.3-4.7,16.9
		c3.7,1.3,10,1.5,11.5-0.1c1.5-1.6,5.7-1.3,7.8-1.2c1.3-1.7,1.9-3.9,1.5-5s-0.2-2.9,0.3-4.4S702.8,261,701.9,258z"/>
	<path class="st14" d="M589,215.9c-5.5,15.9-24.5,51.4-36,62.9 M561.9,284c13-10.1,45.9-42.7,51.5-56.5 M581.9,247
		c-1.5,12-5,33.4-6.8,44.7 M587,273.8c-4.4,4.3-10.7,11.8-15.4,15.9 M628.7,249.8c-3.7,3.6-8,7.8-11.7,8.9 M630.9,250.4
		c3.3,3.5,7.9,7.4,11.8,8.5 M628.3,231.1c-3.4,2.9-8.4,6.3-12.9,7.6 M630.2,231.7c2.9,2.4,6,6,9.7,7.7 M616.1,217.5
		c3.6-1,9-3.8,11.8-6.8 M629.5,210.2c3.2,3.6,9.2,6.5,12.3,7.3 M616.8,203c3.7-0.8,8.3-2.8,10.8-6.3 M629,195.7
		c3.1,2.7,8.7,6.6,12.3,6.9 M655.6,206.2c-2,2.1-7,5.9-10.1,5.8 M657.7,206c1.5,2.3,5.1,5.9,7.2,6.2 M643.3,238.7
		c4.1-1.4,9.8-4.7,12.7-8.2 M658.2,230.8c1.2,2.2,5.7,7,8.3,8 M648.2,262.4c1.9-0.4,6.9-2.9,8.3-5.9 M658.9,254.9
		c1.9,2.4,6.6,6.8,9.6,7.8 M584,266.6c5.7-1.8,17.3-8.8,23-15.5 M596.1,259.5c4.8,3.4,10.3,6.8,14.6,7.5 M583,247
		c3.1-1.3,7.3-3.6,10.5-6.9 M595.9,239.6c1.3,1.8,10.7,7.6,14.7,7.6 M593.5,221c-2.4,2-8.3,5.5-11.2,6.3 M595.7,221.2
		c3.3,2.3,9.7,6.3,14.1,6.3 M593.5,202.8c-2.6,3-7.1,7.6-10.7,8.6 M595.6,203.5c2,3.3,7.5,7.7,11.1,8.3 M642.8,223.1
		c8.2,15.1,23.3,33.5,38.7,43.2 M618.2,206.4c12.4,17.8,36.8,57,60,71.4 M682.5,262.5c-5.9,8.1-13.1,15.1-21.5,20.7 M681.1,267.5
		c-7.8-12.5-11.8-28.2-17.7-49 M600,273.9l9.6,26.5 M598.3,273.3l8.5,27 M596.4,272l7.9,28.1 M595.6,272.5l6.1,27.5 M601.5,299h7.6
		 M608.1,296.1h-7.2 M607.3,293.9h-6.9 M606.5,291.6h-6.6 M605.6,289.2h-6.3 M598.9,287.1h6 M598.4,285.1h5.7 M597.9,282.9h5.4
		 M597.5,281h5.1 M597.1,279h4.8 M596.7,277.2h4.6 M596.2,275.5h4.4 M596,274.1h4.1 M588.5,274.1l-5.4,22.1 M590,273.7l-4.7,23.4
		 M591.3,272.8l-3.8,24.9 M592.9,272.3l-2.7,26 M593.5,296.9h-8.6 M593.5,294.5h-10 M593.5,292h-9.4 M593.5,289.7h-8.8 M593.5,287.3
		h-8.2 M593.5,284.7h-7.6 M593.5,282.4h-7 M593.5,280.1H587 M593.5,277.8h-5.9 M593.5,275.8H588 M593.5,274.3h-5 M593.5,299v-26.4
		 M622.5,263.9l-18.1,36.3 M623.6,263.3l-15.4,37 M624.7,262.9l-12.2,37.6 M625.5,263.6l-9.5,37 M616.4,298.8h-11.4 M617.3,295.5
		h-10.6 M617.8,292.8h-9.7 M618.8,289.9h-9.2 M619.2,287.6h-8.5 M620,284.9h-8 M620.8,281.7h-7.3 M621.4,279.3h-6.7 M622.1,276.6h-6
		 M622.6,274.8H617 M623.1,273h-5.1 M623.5,271.2h-4.7 M623.9,269.7h-4.3 M624.3,268.1h-4 M624.8,266.5h-3.6 M625.1,265h-3.2
		 M636.9,264.4l7.9,25 M638.4,265l9.6,24 M639.8,265l11.2,23.5 M653.7,286.5l-12.4-21.9 M653.7,286.5h-9.8 M652,283.5h-9.1
		 M650.3,280.6H642 M648.6,277.6h-7.6 M647,274.6h-6.9 M645.3,271.6h-6.1 M643.6,268.7h-5.4 M641.9,265.7h-4.6 M652,266.4l-7.7,23.2
		 M654.4,265.3l-7.2,23.8 M650.5,288.6l5.3-22.4 M657.2,267l-4.4,21.3 M645.2,286.9h7.8 M646.2,284h7.4 M647.2,281.1h7.1
		 M648.1,278.3h6.7 M649.1,275.4h6.3 M650.1,272.5h6 M651,269.6h5.6 M652,266.7h4.6 M660.7,267.2l3.8,15.9 M662.1,266.4l5.2,16.6
		 M663.9,266.4l5.7,16.6 M666.2,267.3l5.7,15.6 M671.4,281.5h-7.3 M670.6,279.2h-7 M669.7,276.8H663 M668.9,274.5h-6.4 M668,272.2
		h-6.1 M667.1,269.8h-5.8 M666.3,267.5h-5.5"/>
	<path class="st8" d="M592.1,308.7c3.6-2.3,9.8-1.9,12.9,0.5c3.7-2.1,10.5-1.5,13.6,1.3c4.8-3.3,8.9-3.7,13.5-0.6
		c3.6-2.6,9.2-2.8,13.5,0.2c4.2-2,8.9-3.6,12.9,0.7c-2.4-1.8-7.7-3.3-12.9,0.8c-4.1-4.1-11.2-2.6-13.5,0.2c-3-3.6-9.4-4.2-13.3,0.2
		c-4.2-3.5-10.5-3.6-13.9-0.9C602.3,309,598.4,307.3,592.1,308.7L592.1,308.7z"/>
	<path class="st7" d="M655.8,303.7c-18.5,3.2-58.9,0.9-67.8-1.3c-3-0.8-2.2-1.9,0.4-1.3c10.2,2.3,32,2.3,44,1.8
		c2.3-3.1,6-8.3,7.1-9.8s1.6-1.6,3.9-2c4.1-0.7,6.5-1.1,10.1-1.7c0.1,0.5,0.1,1,0.1,1.4c-0.3,0.2-0.6,0.6-0.8,0.8
		c0,2.4,0.5,8.2,0.9,10.3c0.5-0.1,1-0.2,1.3-0.3C655.8,301.4,656.6,303.5,655.8,303.7L655.8,303.7z"/>
	<path class="st7" d="M686.1,304.6c0.7,0,2.1,0,2.5-0.1c0.8,0,1.8-0.5,2.3-1.7s1.9-5.5,2.4-7.3l-1.9-2.8c0.4-2.3,0.9-5.5,1-6.1
		c0.9-0.4,1.9-0.7,2.4-0.9c0.1-0.5-0.1-2-0.6-2.4c-8,0.3-31.9,1.1-36.3,1.2c-1,0-1.5,0-1.9,1.5c-2.2,8.3,0.8,19.9,9.2,26.6
		c0.6,0.5,1.3,0.1,0.3-0.8c-1.4-1.3-3.6-3.9-5-6.5c1.6,0,4.9-0.1,5.9-0.1c0.5,2,2,6.1,2.3,6.8s1,0.8,0.7-0.2
		c-0.8-2.5-1.2-5.2-1.6-6.6c1.5,0,4.4,0,6.1-0.1c0.1,2.2,0.3,5.2,0.4,6s0.8,0.9,0.8-0.1c0-0.9,0-4.9,0-6c2-0.1,4.5-0.1,5.4-0.1
		c-0.1,1.3-0.4,5.3-0.5,6c-0.1,1,0.4,1.4,0.6,0.1s0.7-4.5,0.8-6.1c0.8,0,2.9-0.1,3.7-0.1c-0.1,1.2-1.3,5-1.6,6s0.2,1,0.6,0.1
		C684.7,309.8,686,306,686.1,304.6L686.1,304.6z"/>
	<path d="M659.7,303.7c-0.6-1.3-2.6-5.8-2.8-9.2c1.7,0,5.9-0.1,8-0.2c0.3,2.5,1.1,7.9,1.5,9.2C663.9,303.6,661,303.6,659.7,303.7z
		 M666.2,294.3c0.2,1.9,1.2,8.5,1.4,9.2c1.7-0.1,5.7-0.1,6.4-0.2c-0.1-1.8-0.4-8.3-0.4-9.2C671.8,294.1,667.1,294.3,666.2,294.3z
		 M657.2,286.2c-0.3,1.7-0.4,5.3-0.3,6.8c2,0,7.1-0.1,7.8-0.1c-0.2-1.7-0.4-4.9-0.6-6.9C662.4,286,658.3,286.1,657.2,286.2
		L657.2,286.2z M665.5,285.9c0.1,1.6,0.4,5.6,0.5,6.8c1.8,0,6.1-0.1,7.5-0.2c-0.1-1.5-0.3-6.3-0.3-6.9
		C670.9,285.8,667,285.9,665.5,285.9L665.5,285.9z M674.8,285.7c0.1,1.5,0.3,5.8,0.2,6.9c1.9,0,5.4-0.1,6.6-0.2
		c0.1-1.5,0.3-5.9,0.2-7C679.7,285.5,676.3,285.6,674.8,285.7L674.8,285.7z M683,285.4c0,1.3-0.2,5.8-0.2,7c1.9-0.1,6.1-0.2,7.2-0.2
		c0.3-1.5,0.9-5.4,1-7.1C689.3,285.1,684.3,285.3,683,285.4L683,285.4z M690.3,293.7c-2.4,0.1-6.2,0.2-7.5,0.2
		c-0.2,3-0.6,8.1-0.7,9.2c2.1,0,6.4-0.2,7.3-0.2c0.7-1.4,2.2-5.8,2.6-7.1C691.3,295,690.9,294.5,690.3,293.7L690.3,293.7z
		 M675.1,294.1c0,1,0.2,8.6,0.2,9.2c1.4,0,4.9-0.1,5.4-0.2c0.3-2.9,0.7-8.5,0.7-9.2C679,294,676.7,294,675.1,294.1L675.1,294.1z
		 M644.1,292.3l-3,0.5c-1.4,2.3-6.6,9.3-7.2,10.1c3.6-0.1,9.3-0.2,10.6-0.3C644.4,300.7,644.1,293.2,644.1,292.3L644.1,292.3z
		 M645.5,292c0.1,2.4,0.3,8.8,0.4,10.5c1.8-0.1,5.1-0.3,6.4-0.4c-0.3-3-0.9-10.2-1-11.1C649.7,291.2,646.8,291.8,645.5,292z"/>
	<path class="st13" d="M614.1,266.8c0.4,0,0.5,0.4,0,0.3l-34.4-0.4c-0.5,0-0.4-0.4,0-0.3L614.1,266.8z M641.2,239.2
		c0.4,0,0.5,0.4,0,0.3l-27.3-0.7c-0.5,0-0.4-0.4,0-0.3L641.2,239.2z M612.4,247.1c0.4,0,0.5,0.4,0,0.3l-30.5-0.2
		c-0.5,0-0.4-0.3,0-0.3L612.4,247.1L612.4,247.1z M613.3,227.3c0.4,0,0.5,0.3,0,0.3l-31.9-0.2c-0.5,0-0.4-0.3,0-0.3L613.3,227.3z
		 M611.1,211.6c0.4,0,0.5,0.4,0,0.3l-31-0.5c-0.5,0-0.4-0.4,0-0.3L611.1,211.6z"/>
	<path class="st12" d="M643.3,202.5c0.4,0,0.5,0.3,0,0.3l-26.6,0.3c-0.5,0-0.4-0.3,0-0.3L643.3,202.5z"/>
	<path class="st13" d="M644.9,217.4c0.4,0,0.5,0.3,0,0.3h-29.4c-0.5,0-0.4-0.3,0-0.3H644.9z M673.8,238.6c0.4,0,0.5,0.3,0,0.3h-31.7
		c-0.5,0-0.4-0.3,0-0.3H673.8z M674.3,212.1c0.4,0,0.5,0.4,0,0.3l-32.4-0.3c-0.5,0-0.4-0.4,0-0.3L674.3,212.1z M644.3,258.7
		c0.4,0,0.5,0.4,0,0.3l-28.5-0.2c-0.5,0-0.4-0.4,0-0.3L644.3,258.7z M672.1,262.6c0.4,0,0.5,0.4,0,0.3l-25.1-0.3
		c-0.5,0-0.4-0.4,0-0.3L672.1,262.6z"/>
	<path class="st15" d="M694.8,267.4c0.7-1.6,0.8-5.2,0.4-6.5c-1,0.2-2,0.2-2.9-0.2c-0.5-0.2-1-0.3-1.5-0.5c-0.1,1.8-0.8,6.4-1.6,8.2
		c-1.4,0.4-4.2-0.1-5.9-0.6l-1.2,4.2c2.1,0.4,4.4,0.4,6.5,0c-0.2,2.7-0.5,5.2-2,6.8c2.4,0.1,4.5-0.3,5.3-1.1
		c0.1-0.1,0.2-0.2,0.2-0.2c1.1-1.8,1.1-4.2,1.4-5.9c0.8,0.1,1.9-0.2,2.3-0.6c0.5-0.5,1.2-0.7,2-0.6c0.7,0.1,1.8-0.1,3.1-0.6
		c0-0.8,0.2-1.7,0.5-2.5c0.2-0.4,0.3-1.1,0.5-2C700.2,266,696.4,267.4,694.8,267.4L694.8,267.4z"/>
	<path class="st13" d="M583.5,115.5c-3.5,0.1-11.3,0.2-12.9,1.1c-1.6,0.9-2.3,1.3,0.5,1.8s7.6,1.9,10.3,3.5c2.6,1.6,4.8,4.5,4.1,8.6
		c-2.2,12.3,4.3,24.1,13.6,28.6c0.9,0.4,1.1,0.8,0.9,2.4c-0.2,1.7-0.8,4.5-1.3,5.2c-0.5,0.7-0.8,1.9,0.9,1.3
		c-1.1,2.1-3.6,6.2-4.4,7.3c-7.5-0.9-13.5,0.1-14.1,7.9c-0.1,0.8,0.2,2,1.4,0.1c1.2-1.9,2.5-3.8,5.7-4.3c-1.9,2.9-2.5,5.5-2.2,7.2
		c0.3,1.7,0.8,2.7,1.6,0.6c0.8-2.1,2.3-4.1,3.9-5.3c0.6-0.5,1-0.6,0.6,0.8c-0.5,1.3,0.2,4.2,1.1,5.1c0.9,1,1.4,0.6,1.1-1
		c-0.3-1.6,0.1-4.9,2.1-5.9c2.8-1.5,5.2-0.7,6.3,1.2c1.1,1.9,2.1,0.1,0.9-2.1c-1.2-2.2-2.5-3.7-4.5-3.9c1.8-3.1,3.9-6.9,4.3-7.7
		c0.5-0.8,1.2-1.1,1.8-0.7c0.6,0.5,1,0.4,1.6-0.9c0.6-1.3,1.7-5,3.2-6.5c0.8-0.2,2-0.5,2.4-0.9c2,2.9,3.8,6.1,4.2,6.8
		c0.5,0.7,1,1,0.5,2.5c-0.5,1.5-2,6.1-2.3,7.2c-5.5,0.2-8.1,0.3-9.8,3.4c-0.8,1.4,0.5,1.9,1.8,1.2c1.3-0.7,3.2-1.3,4.2-1.2
		c1,0.2,1.4,0.6,0.5,1.1c-3.4,1.7-5.5,3.8-5.4,6.7c0,1.1,0.5,1.6,1.3,0.2c1.2-2,3.3-4.1,5.9-4.6c-0.2,2.5,0.4,6.1,1.9,6.9
		c1.5,0.8,1.6,0,1.1-1.5c-0.9-2.3,0-4.7,1.2-5.9c2.4-2.6,7.8,1,8.8,1.9c1,0.9,1.9,1.3,1.4-1.1c-0.8-3.1-5.2-5-9-5.5
		c1.1-5.1,3.9-15.5,5.4-19c2.2,1.2,4-2,7.7-0.6c6.3,2.3,15.7,8.2,17.3,9.5c1.6,1.3,2.2,1,3,0.3c0.8-0.7,2.2,0,3.3,0.2
		c1.1,0.2,2.1,0.5,0.7-2.3c-1.4-2.8-4.9-7.8-10.6-11.7c3.4,0.3,8.1,0.3,8.1-0.6c0-0.9-5.4-2.6-7.6-2.8c2.1-0.5,5.4-1.7,6.9-3.5
		c0.9-1-0.2-1.3-3.3-1.3c-9.7-0.2-14.6-0.1-19.7-3c-8.1-4.7-12.7-9.6-16.7-11.7c-2.1-1.1-3.4-3.7-4.2-5.9
		c-2.6-7.1-2.5-10.3-8.7-12.6C593.8,109.7,586.7,112.6,583.5,115.5L583.5,115.5z"/>
	<path class="st12" d="M583.9,117.1c-1.6-0.1-4.7-0.4-7.2-0.2c-0.6,0.1-1.3,0.3,0.1,0.5c1.4,0.2,5.2,1.1,6.5,1.6s0.8,1.2-0.4,0.9
		s-1.6,0.1-0.6,0.8c5,3.5,5.5,4.8,4.2,16.8c0.9,0.6,1.7,1.1,2.5,1.5c0.8,0.4,0.6,1-0.3,0.8c-0.9-0.2-1.7,0.3-0.3,0.6
		c1.4,0.3,2,0.9,0.7,0.9c-1.3-0.1-2.9,1.1-0.3,0.8c2.6-0.3,3.7,0.9,0.6,1c-3.1,0.1-1.9,1-0.3,1c2.9,0,2,0.8,1.3,0.8
		c-0.8,0-1.1,1,0.8,0.8c1.9-0.2,2.7-0.2,3.4-0.1c0.7,0.1,1,0.7-0.1,0.8c-1,0.1-1,0.8,0.6,0.8c1.6,0,2.2,0.5,0.8,0.8
		c-0.6,0.1-1.4,0.4,0.3,0.6c2.9,0.4,3,1.1,2.1,1.2c-0.9,0.1-1,0.6,0.3,0.8c1.3,0.1,2.5,0.5,1.4,0.8c-1.1,0.3-1.7,0.9-0.3,1
		c1.4,0.1,2.6,0.6,1.5,1s-1.3,1,0.1,0.9s1.9,0.7,0.9,1.2c-0.9,0.5-1.6,0.9-2.2-0.1c-0.6-0.9-0.9-1.2-1.1-0.5c-0.2,0.7-0.6,0.2-1-0.8
		c-0.5-1-1.3-1.3-1-0.5c0.2,0.8-0.8,0.9-1.8,0.5c3.7,3.7,9.1,7.1,17.7,3.6c0.7-0.3,0.9,0,1.5,1.2c0.6,1.2,2.2,3.9,2.8,4.9
		c0.6,1,1,0.1,1.3-0.9c1.2-3.8,2-6.7,2.4-7.8c0.3-1,2-2.1,1.5,1.6c1.3-0.9,7-1.7,11.4-0.1c4.8,1.8,9.7,4.6,12.2,6.5
		c0.6,0.5,1.4,0.8,2.2,0.6c1.2-0.1,1.5-0.3-0.8-2.3c-2.2-2-1.3-3,0.1-2c1.4,1,2.2,0.4,1.1-0.8c-1-1.2-3.6-3.6-4.4-4.2
		s-0.9-0.8-2.8-0.9c-1.9-0.1-5.8-0.1-7-0.1s-1.5,0.1,1,1c2.6,0.9,7.8,4.3,9,5.1c1.2,0.8,2,2.7-0.6,1c-2.6-1.6-10.6-6.6-16-8.5
		c-12.2,0.8-21.9,2.4-29.1-5.5c-3.5-3.8-3.6-12.5,2.2-16.1c-1.2-1-1-1.6-0.5-1.8c0.5-0.2,0.6-0.5,0.2-1c-0.5-0.6-0.4-1.1,0-1.3
		c-1.3-0.7-1.9-1.5-1.8-2.4c-1.6-0.3-2.3-2.2-4.4-1.6c-2.1,0.6-3.1,0.1-3.8-0.4c-0.6-0.5-1.2-0.8-2.3-0.6c-1.2,0.1-2.1-0.3-2.2-0.9
		c-0.1-0.6,1-0.9,2.6-0.2c3.3,1.5,6,2.2,8-0.6c2-2.7-0.6-5.3-4.5-6.1C588.2,112.9,585.4,115.8,583.9,117.1L583.9,117.1z"/>
	<path class="st12" d="M603.5,116.1c-1.2-1.3-3.3-2.4-4.3-2.8c-1-0.3-1.2,0.7-0.6,1.2c-0.5,0.7-0.6,2.4,0.2,2.9
		c0.8,0.5,0.8,1.1,0.1,1.5c-1.2,0.6-0.8,3.7,1,2.8c0.6-0.3,1-0.2,0.9,0.3c-0.1,0.5,0.1,1,0.6,1.2c0.5,0.1,0.5,0.9,0.3,1.2
		c-0.1,0.3,0.1,0.4,0.6,0.5c0.6,0.1,0.6,1.5-0.4,1.9c1.3,0,1.6-0.2,2,0.8c0.3,1,1.7,1.3,1.7,2.6s-0.2,1.5-1.7,1.3
		c-1.5-0.2-2.1,0.2-2.6,0.8c-0.5,0.6-0.6,1.2,0.6,1.2c1.2,0.1,1.4,0.6,0.2,1.1s-3.1,0.2-3.4,1.3c-0.3,1.1,0,1.6,0.9,1.2
		c0.9-0.4,2.7-1.2,3.4-1.6c0.7-0.4,1.3-0.5,1.9,0.5c0.6,0.9,0.1,2-0.9,1.2c-1-0.8-1.5-0.1-2,0.4c-0.6,0.5-1.5,0.8-2.4,0.8
		c-0.9,0-1.6,0.1-1.5,2.2c0.3,6.3,5.2,11,14.2,10.8c9-0.1,13.4-0.2,14.8-0.1c-3-1.6-4.8-2.5-5.9-2.4c-1,0.1-1.9,0.3-1.5-0.5
		c0.5-0.8-0.1-0.8-0.5-1.2c-0.5-0.3-1-0.8-2,0.2s-3.1,2.1-4.3,2.3c-1.1,0.2-2.4,0.2-1.4-0.9c1-1,3.4-1.4,4.1-1.9
		c0.7-0.5,0.7-0.8,0.7-1.1s-0.2-1.3,1.2-0.6c2.7,1.5,6.9,3.8,8,3.7c1.1-0.1,1.9-0.5,0.9-1.2c-1-0.6-1.3-1.6-1-1.9
		c0.3-0.3,0.5-0.7,2.2,0.3c1.7,1,4.6,2.3,5.7,2.7s2.4,0.3,0.3-1.3c-2.2-1.6-8.9-6-10.7-7.4s-1,0.3-0.9,0.8c0.2,0.5-1.3,1.2-2,0.5
		c-0.8-0.6-1.3-1.3-0.2-1.9c1-0.6,1.3-0.6-0.3-2c-1.6-1.4-2-1.3-1.7-0.1c0.3,1.2,0.5,2.4-1.2,1.8c-1.6-0.6-2.4-1.4-1.4-2
		c1-0.6,2.4-1,0.6-2.4c-1.7-1.5-1.2,0-1.6,0.8c-0.4,0.8-1.7,0.8-2.5,0.2c-0.8-0.6-1.1-1.3-0.6-1.8s0.5-0.8,1.2-0.4
		c0.8,0.4,1.9,0.2,0.5-1s-1.9-0.7-1.6,0c0.3,0.7-0.8,1.9-2.6,0.3c-0.8-0.8-0.8-1.8,0.1-2c0.9-0.2,1-0.6,0.3-1.5
		C605.6,124.1,607.1,119.9,603.5,116.1L603.5,116.1z"/>
	<path class="st7" d="M604.1,116.8c-0.3,0.5-0.4,0.4-1,0.8c-0.7,0.5-0.9,1.8,0.3,1.6c0.8-0.1,1.3-0.6,1.6-1
		C604.8,117.8,604.5,117.3,604.1,116.8L604.1,116.8z M600.5,113.9c-0.9,0.9-1.1,1.3-0.6,1.3c0.5,0,0.3,0.1-0.1,0.7
		c-0.4,0.6,0.8,0.9,1.2,0.5s0.5-0.6,0.8,0c0.2,0.5,1,0,1.4-0.5C602.4,115.1,601.4,114.4,600.5,113.9z M598.8,118.9
		c-1.2,0.6-0.8,3.7,1,2.8c0.6-0.3,1-0.2,0.9,0.3c-0.1,0.2,0,0.5,0.1,0.8c0.7-0.3,1.4-0.8,1.9-1.4c1.1-1.2,0.1-1.2-1.6-1.2
		c-1.6,0-2.1-0.3-0.5-1.2c1.4-0.8,0.5-1.4-1.4-1.1C599.5,118.2,599.4,118.6,598.8,118.9L598.8,118.9z M605.5,125.8
		c-0.9-0.9-0.3-1.4,0.6-1.9c0.2-0.1,0.4-0.2,0.5-0.4c-0.3-1-0.5-2-0.8-3c-0.5,0.1-1.1,1.2-1.2,1.8c-0.2,0.8-0.5,1.2-1.2,1
		c-0.7-0.2-1.4,0.6-1.5,1.4c0.1,0,0.3,0.1,0.5,0.1c0.3,0,0.5,0.5,0.4,0.9c2.1-0.1,2.5,1.4,2.8,2.4c0.4,1.1,0.9,0.9,1.2,0.3
		C607.1,127.8,606.4,126.7,605.5,125.8L605.5,125.8z"/>
	<path class="st16" d="M606.1,138c-0.4,0.9-0.4,0.8-1.6,0.9c-1.2,0.1-2.8,0.3-3.5,1c-0.4,0.4-2.5,0.5-2.5,1.4c0,1,0,1.8,0.9,1.8
		c0.9,0.1,1,0.2,0.7,0.9c-0.4,0.7-0.6,1.9,1,2c1.6,0.1,2.8-0.4,3.2,0.5c0.4,0.9,0,2.4,0.3,3s1.4,0.9,3.1,1.4
		c1.1,0.4,5.4,0.6,6.8,0.4c1.3-0.2,0.8-0.9-0.5-1.1c-1.3-0.1-2.3-0.3-2.6-1.3c-0.3-1-0.6-1.5,0.2-2.3c0.7-0.8,1.5-1.4,1-2.8
		c-0.4-1.4-1.1-3-2.7-3.4c-1.6-0.4-1.1-2.6-2.6-2.8C606.8,137.6,606.3,137.6,606.1,138L606.1,138z"/>
	<path class="st7" d="M598.6,150.6c1.3,0.1,2.5,0.5,1.4,0.8c-1.1,0.3-1.7,0.9-0.3,1.1c1.4,0.1,2.6,0.6,1.5,1c-1.1,0.3-1.3,1,0.1,0.9
		s1.9,0.7,0.9,1.2c-0.9,0.5-1.6,0.9-2.2-0.1c-0.6-0.9-0.9-1.2-1.1-0.5c-0.2,0.7-0.6,0.2-1-0.8s-1.3-1.3-1-0.5
		c0.2,0.8-0.8,0.9-1.8,0.5c1,1,2.1,2,3.3,2.8c1.4-0.5,3-0.1,3.5,0c0.6,0.1,2.4,0.5,3.4,1c1,0.5,1.6-0.4,1.2-1.5
		c-0.4-1-0.5-0.7-1-0.1c-0.5,0.6-0.6-0.2-0.6-1.5c0-1-0.6-0.8-0.9-0.1c-0.2,0.6-0.8-0.4-0.5-1.1c0.3-0.6-0.1-0.9-0.6-0.7
		c-0.5,0.2-0.6,0-0.6-1.2s-0.6-1-0.8-0.5s-0.6-0.2-1.3-1.1c-0.6-0.8-1.3-0.3-2.5,0.1C597.9,150.5,598.2,150.6,598.6,150.6
		L598.6,150.6z"/>
	<path class="st16" d="M612.7,157.8c-6.4,2.6-11,1.4-14.4-0.9c1.4-0.5,3-0.1,3.6,0c0.6,0.1,2.4,0.5,3.4,1c1,0.5,1.6-0.4,1.2-1.5
		c0.9,1.1,1.5,1.9,2.6,1.8C610.1,158.3,611.9,158.1,612.7,157.8L612.7,157.8z M599.2,128.5c-0.4-1.3-0.8-1.6-1.5-1.6
		c-0.7,0.1-1-0.1-1.8-0.4c-0.8-0.3-1.8,0.1-1.9,1.5s-1,2.1-2.2,3c-1.2,0.9-1.9,1.6-1.9,3s-0.3,1.8-1.1,2.8c-0.3,0.4-0.8,1-1.3,1.5
		c0.5,0.3,1,0.6,1.5,0.8c0.8,0.4,0.6,1-0.3,0.8c-0.9-0.2-1.7,0.3-0.3,0.6c1.4,0.3,2,0.9,0.7,0.9c-1.3-0.1-2.9,1.1-0.3,0.8
		c2.6-0.3,3.7,0.9,0.6,1c-3.1,0.1-1.9,1.1-0.3,1.1c2.9,0,2,0.8,1.3,0.8c-0.8,0-1.1,1,0.8,0.8c0,0,0,0,0.1,0c0.3-0.3,0.5-0.6,0.6-1.1
		c0.3-0.9,0.6-3.7,1.7-4.4c1.1-0.8,1.6-1.9,1.6-2.6s1.6-4.2,2.7-5.1S599.5,129.8,599.2,128.5L599.2,128.5z"/>
	<path class="st7" d="M596.9,128.5c-1.1-0.7-2.2-0.3-2.2,1.1s-0.7,1.8-1.6,2.3c-0.9,0.5-1.8,1.6-1.9,2.7c-0.2,1.1,0.2,1.8-0.6,2.6
		c-0.8,0.9-0.9,1.6-0.3,2c0.5,0.5,0.5,0.5,0.8,1.2c0.2,0.7,1.6-0.1,1.6-0.9s0.3-0.8,1.2-1.2c0.9-0.5,2.3-2.7,1.9-3.3
		c-0.3-0.6-1.1-1.2-0.1-2c1-0.9,2.1-0.9,2.1-1.8c0-0.9,0.3-1.2,0.6-1.5C598.6,129.5,597.6,129,596.9,128.5L596.9,128.5z"/>
	<path d="M596.9,127.4c-0.7-0.3-1.2,1.2-0.2,1.5S597.9,127.8,596.9,127.4z M596.7,129.4c-0.8,0.1-1.6,1.1-0.3,0.9
		C597.6,130.2,598.1,129.2,596.7,129.4z M595.2,131.3c-0.8,0.4-0.6,1.5,0.5,0.7S597.1,130.3,595.2,131.3z M593.9,132.9
		c-0.8,0.4-0.6,1.5,0.5,0.7C595.6,132.8,595.9,131.9,593.9,132.9z"/>
	<path d="M592.3,133.7c-0.8,0.4-0.3,1.5,0.9,0.7C594.3,133.6,594.3,132.7,592.3,133.7L592.3,133.7z M593.3,134.6
		c-0.8,0.4-0.3,1.5,0.9,0.7C595.3,134.6,595.3,133.7,593.3,134.6z"/>
	<path d="M591.9,135.1c-0.8,0.4-0.3,1.5,0.9,0.7S593.9,134.1,591.9,135.1z M592.8,136.2c-0.8,0.4-0.3,1.5,0.9,0.7
		C594.8,136.1,594.8,135.2,592.8,136.2z"/>
	<path d="M591.4,136.8c-0.8,0.4-0.3,1.5,0.9,0.7C593.5,136.8,593.4,135.9,591.4,136.8z"/>
	<path d="M591.5,137.9c-0.8,0.4-0.3,1.5,0.9,0.7S593.5,136.9,591.5,137.9z"/>
	<path class="st7" d="M590.9,147.7c-0.8,0.1-1.3,1.2-0.3,1.5s1.2,0.3,1.2,1.1s0.3,1.9,1.4,1.9c1.1,0.1,2-1.2,1.1-1.6
		c-0.9-0.4-1.8-0.7-1.9-1.6C592.4,148.3,591.5,147.6,590.9,147.7L590.9,147.7z"/>
	<path class="st16" d="M619.5,141c0.1,0.2,0.3,0.4,0.5,0.6c0.8,0.6,2.2,0,2-0.5s-1-2.2,0.9-0.8c1.9,1.4,8.6,5.8,10.7,7.4
		c2.2,1.6,0.8,1.8-0.3,1.3s-3.9-1.8-5.7-2.7c-1.8-1-1.9-0.6-2.2-0.3c-0.2,0.3,0,1,0.6,1.6c-1,0.2-2.7-0.1-3.2-1.2
		c-0.6-1.3-2-3-3-4.3C619.6,141.6,619.5,141.3,619.5,141L619.5,141z"/>
	<path class="st10" d="M677.3,332c-1.5,1-3.4,2.7-2.1,5.2c0.2-0.1,0.3-0.2,0.4-0.3c5.7-6.9,10.6-14.2,14.8-21.7
		c0-0.3,0.1-0.5,0.1-0.7c-1.6,1.4-4.2,2.8-5.2,3.1c0.7,1.9-2.6,4.3-4.3,5c0.7,1.2,0.5,2.9-1,3.3c0.3,1-0.8,1-2.2,1.6s-2.1,1-2.6,1.8
		c0.8-0.4,1.8-0.8,2.4-0.6s0.7,1-0.3,1.3s-1.7,0.8-2.1,1.3C676.6,330.7,678.8,331,677.3,332L677.3,332z"/>
	<path class="st13" d="M608.2,138.9c-1.7-1.5-2.2-0.6-1.5,0.3s0.2,1.4-1.3,1.6c-1.5,0.2-3.8,0.5-4.7,0.5s-2,1.3,0.2,1.2
		c2.2-0.1,5.9-0.9,6.9-1.3C608.8,140.9,609.6,140.1,608.2,138.9L608.2,138.9z M611.6,141.5c-1.4-1.3-1.9-0.9-1.6,0s-0.3,1.1-1.2,1.4
		c-0.9,0.3-4.6,1.5-6.2,1.7c-1.6,0.2-1.9,1.3,0.4,1.2c2.3-0.1,6.8-1.9,7.3-2.3s0.7-1,1.3-0.7S612.7,142.6,611.6,141.5z M612.7,145.2
		c-1,0.6-3.6,1.7-4.7,2c-1,0.3-1.9,1.5,0.3,1.3c2.2-0.2,4.8-2.2,5.5-2.6c0.7-0.4,1-0.7,1.6-0.6s1.6-0.8-0.3-1.8
		c-1.9-1-3.1-0.5-2.2,0.3C613.9,144.6,613.2,144.9,612.7,145.2L612.7,145.2z"/>
	<path d="M594.5,115.9c-2.8-1.9-6.1,2.1-3,4.2C594.3,122,597.2,117.7,594.5,115.9z"/>
	<path class="st1" d="M590.9,117.6l0.8,0.1c-0.2,0.9,0.7,2.2,2,1.9C592.8,120.3,590.7,119.4,590.9,117.6L590.9,117.6z M602,160.1
		c0.9,0.3,3.9,0.6,4.9,0.6c-0.5,1.1-1,1.8-1.3,2.5c-0.3,0.8-0.5,0.8-0.5-0.4c0-1.2-0.7-1.9-1.3-0.7c-0.6,1.2-0.9,1.7-1.2,2.2
		c-0.3,0.5-0.8,0.7-0.6-0.6S602,161.2,602,160.1L602,160.1z"/>
	<path class="st17" d="M714.5,194.3c-0.2,73.3-11.8,152.2-106.6,189.8c-94.8-37.6-106.4-116.5-106.6-189.8H714.5L714.5,194.3z
		 M714.5,194.3c0.1-27.6-1.5-54.4-0.8-77.9c-35.4-15.9-82.1-19.1-105.9-19.1c-23.8,0-70.4,3.3-105.9,19.1
		c0.7,23.5-0.8,50.3-0.8,77.9H714.5z"/>
</g>
</svg>
