<?xml version="1.0" encoding="utf-8"?>
<!-- Generator: Adobe Illustrator 20.0.0, SVG Export Plug-In . SVG Version: 6.00 Build 0)  -->
<!DOCTYPE svg PUBLIC "-//W3C//DTD SVG 1.1//EN" "http://www.w3.org/Graphics/SVG/1.1/DTD/svg11.dtd">
<svg version="1.1" id="Layer_1" xmlns="http://www.w3.org/2000/svg" xmlns:xlink="http://www.w3.org/1999/xlink" x="0px" y="0px"
	 viewBox="0 0 800 480" style="enable-background:new 0 0 800 480;" xml:space="preserve">
<style type="text/css">
	.st0{fill:#FFFFFF;}
	.st1{fill:#FF0000;}
	.st2{fill:#009900;}
</style>
<g>
	<rect class="st0" width="800" height="480"/>
	<rect y="320.7" class="st0" width="480" height="159.3"/>
	<path class="st0" d="M0,0h800v159.3H0V0z M275.1,281l-28.8-20.9l-28.7,21.1l10.7-34.2l-28.6-21.1l35.4-0.3l11-34.1l11.2,34.1
		l35.4,0l-28.5,21.3L275.1,281z M582.8,281l-28.8-20.9l-28.7,21.1l10.7-34.2l-28.6-21.1l35.4-0.3l11-34.1l11.2,34.1l35.4,0
		l-28.5,21.3L582.8,281z"/>
	<rect y="320.7" width="800" height="159.3"/>
	<path class="st1" d="M0,0h800v159.3H0V0z"/>
	<path class="st2" d="M306,281l-28.8-20.9l-28.7,21.1l10.7-34.2l-28.6-21.1l35.4-0.3l11-34.1l11.2,34.1l35.4,0l-28.5,21.3L306,281z
		 M552,281l-28.8-20.9l-28.7,21.1l10.7-34.2l-28.6-21.1l35.4-0.3l11-34.1l11.2,34.1l35.4,0l-28.5,21.3L552,281z"/>
</g>
</svg>
