<?xml version="1.0" encoding="utf-8"?>
<!-- Generator: Adobe Illustrator 20.0.0, SVG Export Plug-In . SVG Version: 6.00 Build 0)  -->
<!DOCTYPE svg PUBLIC "-//W3C//DTD SVG 1.1//EN" "http://www.w3.org/Graphics/SVG/1.1/DTD/svg11.dtd">
<svg version="1.1" id="Layer_1" xmlns="http://www.w3.org/2000/svg" xmlns:xlink="http://www.w3.org/1999/xlink" x="0px" y="0px"
	 viewBox="0 0 800 480" style="enable-background:new 0 0 800 480;" xml:space="preserve">
<style type="text/css">
	.st0{fill:#F31930;}
	.st1{fill:#FFFFFF;}
</style>
<g>
	<path class="st0" d="M0,0h800v480H0V0z"/>
	<path class="st1" d="M315.5,343.4c-53.9,0-97.6-42.9-97.6-95.9c0-53,43.7-95.9,97.6-95.9c28.8,0,54.7,12.3,72.6,31.9
		c-21.6-33.5-59.7-55.8-103.1-55.8c-67.4,0-122,53.7-122,119.9s54.6,119.9,122,119.9c43.4,0,81.5-22.3,103.1-55.9
		C370.3,331.1,344.4,343.4,315.5,343.4z"/>
	<path class="st1" d="M430.7,191.5l-1,44.3L388.4,247l40.8,14.5l-1,40.6l26.6-31.7l40.2,13.9l-23.2-34.1l28.4-33.9l-43.5,12
		L430.7,191.5L430.7,191.5z"/>
</g>
</svg>
