<?xml version="1.0" encoding="utf-8"?>
<!-- Generator: Adobe Illustrator 20.0.0, SVG Export Plug-In . SVG Version: 6.00 Build 0)  -->
<!DOCTYPE svg PUBLIC "-//W3C//DTD SVG 1.1//EN" "http://www.w3.org/Graphics/SVG/1.1/DTD/svg11.dtd">
<svg version="1.1" id="Layer_1" xmlns="http://www.w3.org/2000/svg" xmlns:xlink="http://www.w3.org/1999/xlink" x="0px" y="0px"
	 viewBox="0 0 800 480" style="enable-background:new 0 0 800 480;" xml:space="preserve">
<style type="text/css">
	.st0{fill:#009FCA;}
	.st1{display:none;fill:#FFFFFF;}
	.st2{fill:#FFF40D;}
	.st3{fill:#0000B4;}
	.st4{fill:#FFFFFF;}
	.st5{fill:#CC0000;}
</style>
<g>
	<g>
		<g transform="matrix(.64508 0 0 .92059 0 23.331)">
			<path class="st0" d="M506-19.8h486.2v515.9H506V-19.8z"/>
			<rect y="-25.3" class="st0" width="1240.2" height="521.4"/>
		</g>
		<path class="st1" d="M0,0h395.9v196.6H0V0z"/>
		<g>
			<path class="st2" d="M742.1,87.5l27.6,0l-22.3,15.2l8.5,24.7l-22.3-15.3l-22.3,15.3l8.5-24.7l-22.3-15.2l27.6,0l8.5-24.7
				L742.1,87.5z M672.9,284.2l27.6,0l-22.3,15.2l8.5,24.7l-22.3-15.3l-22.3,15.3l8.5-24.7l-22.3-15.2l27.6,0l8.5-24.7L672.9,284.2z
				 M742.1,239.7l27.6,0l-22.3,15.2l8.5,24.7l-22.3-15.3l-22.3,15.3l8.5-24.7l-22.3-15.2l27.6,0l8.5-24.7L742.1,239.7z M444.6,382.4
				l27.6,0l-22.3,15.2l8.5,24.7L436.1,407l-22.3,15.3l8.5-24.7L400,382.4l27.6,0l8.5-24.7L444.6,382.4z M507.1,305.9l-27.6,0
				l22.3-15.2l-8.5-24.7l22.3,15.3l22.3-15.3l-8.5,24.7l22.3,15.2l-27.6,0l-8.5,24.7L507.1,305.9z M588.4,193.5l-27.6,0l22.3-15.2
				l-8.5-24.7l22.3,15.3l22.3-15.3l-8.5,24.7l22.3,15.2l-27.6,0l-8.5,24.7L588.4,193.5z M656.8,170.1l-27.6,0l22.3-15.2l-8.5-24.7
				l22.3,15.3l22.3-15.3l-8.5,24.7l22.3,15.2l-27.6,0l-8.5,24.7L656.8,170.1z M588.4,364.7l-27.6,0l22.3-15.2l-8.5-24.7l22.3,15.3
				l22.3-15.3l-8.5,24.7l22.3,15.2l-27.6,0l-8.5,24.7L588.4,364.7z M507.1,384.6l-27.6,0l22.3-15.2l-8.5-24.7l22.3,15.3l22.3-15.3
				l-8.5,24.7l22.3,15.2l-27.6,0l-8.5,24.7L507.1,384.6z"/>
		</g>
	</g>
</g>
<g>
	<path class="st3" d="M0.4,0h400v240H0.4V0z"/>
	<path class="st4" d="M0.4,0v26.8L355.7,240h44.7v-26.8L45.1,0H0.4z M400.4,0v26.8L45.1,240H0.4v-26.8L355.7,0H400.4L400.4,0z"/>
	<path class="st4" d="M167.1,0v240h66.7V0H167.1z M0.4,80v80h400V80H0.4z"/>
	<path class="st5" d="M0.4,96v48h400V96H0.4z M180.4,0v240h40V0H180.4z M0.4,240l133.3-80h29.8L30.2,240H0.4z M0.4,0l133.3,80h-29.8
		L0.4,17.9V0z M237.3,80L370.6,0h29.8L267.1,80H237.3z M400.4,240l-133.3-80h29.8l103.5,62.1V240L400.4,240z"/>
</g>
</svg>
