<?xml version="1.0" encoding="utf-8"?>
<!-- Generator: Adobe Illustrator 20.0.0, SVG Export Plug-In . SVG Version: 6.00 Build 0)  -->
<!DOCTYPE svg PUBLIC "-//W3C//DTD SVG 1.1//EN" "http://www.w3.org/Graphics/SVG/1.1/DTD/svg11.dtd">
<svg version="1.1" id="Layer_1" xmlns="http://www.w3.org/2000/svg" xmlns:xlink="http://www.w3.org/1999/xlink" x="0px" y="0px"
	 viewBox="0 0 800 480" style="enable-background:new 0 0 800 480;" xml:space="preserve">
<style type="text/css">
	.st0{fill:#DE2110;}
	.st1{fill:#08399C;}
	.st2{fill:#FFFFFF;}
	.st3{fill:#005387;}
</style>
<g>
	<g transform="scale(.9375)">
		<path class="st0" d="M0,0h853.3v512H0V0z"/>
		<path class="st1" d="M0,0h426.7v256H0V0z"/>
		<path class="st2" d="M302,178.6l-47.3-9.7l10.1,47.3L228.6,184l-14.9,46l-15.2-45.9l-35.9,32.4l9.7-47.3l-47.3,10.1l32.1-36.1
			l-46-14.9l45.9-15.2L124.7,77l47.3,9.7l-10.1-47.3l36.1,32.1l14.9-46l15.2,45.9l35.9-32.4l-9.7,47.3l47.3-10.1l-32.1,36.1l46,14.9
			l-45.9,15.2L302,178.6z"/>
		<path class="st3" d="M258.4,174.9l-14.9,7.9l-14.6,8.6l-16.9-0.6l-16.9,0.2l-14.4-8.9l-14.8-8.3l-8-14.9l-8.6-14.5l0.6-16.9
			l-0.2-16.9l9-14.3l8.3-14.7l14.9-7.9l14.6-8.6l16.9,0.6l16.9-0.2l14.4,8.9l14.7,8.3l8,14.9l8.6,14.5l-0.6,16.9l0.2,16.9l-9,14.3
			L258.4,174.9z"/>
		<path class="st2" d="M264.5,128.3c0,28.6-23.2,51.9-51.9,51.9s-51.9-23.2-51.9-51.9s23.2-51.9,51.9-51.9S264.5,99.6,264.5,128.3
			L264.5,128.3z"/>
	</g>
</g>
</svg>
