<?xml version="1.0" encoding="utf-8"?>
<!-- Generator: Adobe Illustrator 20.0.0, SVG Export Plug-In . SVG Version: 6.00 Build 0)  -->
<!DOCTYPE svg PUBLIC "-//W3C//DTD SVG 1.1//EN" "http://www.w3.org/Graphics/SVG/1.1/DTD/svg11.dtd">
<svg version="1.1" id="Layer_1" xmlns="http://www.w3.org/2000/svg" xmlns:xlink="http://www.w3.org/1999/xlink" x="0px" y="0px"
	 viewBox="0 0 800 480" style="enable-background:new 0 0 800 480;" xml:space="preserve">
<style type="text/css">
	.st0{fill:#BD3D44;}
	.st1{fill:#FFFFFF;}
	.st2{fill:#192F5D;}
</style>
<desc>The United States of America flag, produced by Daniel McRae</desc>
<g>
	<g>
		<g transform="scale(.9375)">
			<g>
				<g>
					<path class="st0" d="M0,0h853.3v39.4H0V0z M0,78.8h853.3v39.4H0V78.8z M0,157.5h853.3v39.4H0V157.5z M0,236.3h853.3v39.4H0
						V236.3z M0,315.1h853.3v39.4H0V315.1z M0,393.9h853.3v39.4H0V393.9z M0,472.6h853.3V512H0V472.6z"/>
				</g>
				<g>
					<path class="st1" d="M0,39.4h853.3v39.4H0V39.4z M0,118.2h853.3v39.4H0V118.2z M0,196.9h853.3v39.4H0V196.9z M0,275.7h853.3
						v39.4H0V275.7z M0,354.5h853.3v39.4H0V354.5z M0,433.2h853.3v39.4H0V433.2z"/>
				</g>
			</g>
			<path class="st2" d="M0,0h389.1v275.7H0V0z"/>
			<g>
				<path class="st1" d="M32.4,11.8L36,22.7h11.5l-9.3,6.7l3.5,10.9l-9.3-6.7l-9.3,6.7l3.5-10.9l-9.3-6.7h11.5L32.4,11.8z
					 M97.3,11.8l3.5,10.9h11.5l-9.3,6.7l3.5,10.9l-9.3-6.7L88,40.3l3.5-10.9l-9.3-6.7h11.5L97.3,11.8z M162.1,11.8l3.5,10.9h11.5
					l-9.3,6.7l3.5,10.9l-9.3-6.7l-9.3,6.7l3.5-10.9l-9.3-6.7h11.5L162.1,11.8z M227,11.8l3.5,10.9H242l-9.3,6.7l3.5,10.9l-9.3-6.7
					l-9.3,6.7l3.5-10.9l-9.3-6.7h11.5L227,11.8z M291.8,11.8l3.5,10.9h11.5l-9.3,6.7l3.5,10.9l-9.3-6.7l-9.3,6.7l3.5-10.9l-9.3-6.7
					h11.5L291.8,11.8z M356.7,11.8l3.5,10.9h11.5l-9.3,6.7l3.5,10.9l-9.3-6.7l-9.3,6.7l3.5-10.9l-9.3-6.7H353L356.7,11.8z"/>
				<g>
					<path class="st1" d="M64.9,39.4l3.5,10.9h11.5L70.6,57l3.5,10.9l-9.3-6.7l-9.3,6.7L59.1,57l-9.3-6.7h11.5L64.9,39.4z
						 M129.7,39.4l3.5,10.9h11.5l-9.3,6.7l3.5,10.9l-9.3-6.7l-9.3,6.7L124,57l-9.3-6.7h11.5L129.7,39.4z M194.6,39.4l3.5,10.9h11.5
						l-9.3,6.7l3.5,10.9l-9.3-6.7l-9.3,6.7l3.5-10.9l-9.3-6.7H191L194.6,39.4z M259.4,39.4l3.5,10.9h11.5l-9.3,6.7l3.5,10.9
						l-9.3-6.7l-9.3,6.7l3.5-10.9l-9.3-6.7h11.5L259.4,39.4z M324.3,39.4l3.5,10.9h11.5L330,57l3.5,10.9l-9.3-6.7l-9.3,6.7l3.5-10.9
						l-9.3-6.7h11.5L324.3,39.4z"/>
				</g>
				<g>
					<path class="st1" d="M32.4,66.9L36,77.8h11.5l-9.3,6.7l3.5,10.9l-9.3-6.7l-9.3,6.7l3.5-10.9l-9.3-6.7h11.5L32.4,66.9z
						 M97.3,66.9l3.5,10.9h11.5l-9.3,6.7l3.5,10.9l-9.3-6.7L88,95.5l3.5-10.9l-9.3-6.7h11.5L97.3,66.9z M162.1,66.9l3.5,10.9h11.5
						l-9.3,6.7l3.5,10.9l-9.3-6.7l-9.3,6.7l3.5-10.9l-9.3-6.7h11.5L162.1,66.9z M227,66.9l3.5,10.9H242l-9.3,6.7l3.5,10.9l-9.3-6.7
						l-9.3,6.7l3.5-10.9l-9.3-6.7h11.5L227,66.9z M291.8,66.9l3.5,10.9h11.5l-9.3,6.7l3.5,10.9l-9.3-6.7l-9.3,6.7l3.5-10.9l-9.3-6.7
						h11.5L291.8,66.9z M356.7,66.9l3.5,10.9h11.5l-9.3,6.7l3.5,10.9l-9.3-6.7l-9.3,6.7l3.5-10.9l-9.3-6.7H353L356.7,66.9z"/>
					<g>
						<path class="st1" d="M64.9,94.5l3.5,10.9h11.5l-9.3,6.7l3.5,10.9l-9.3-6.7l-9.3,6.7l3.5-10.9l-9.3-6.7h11.5L64.9,94.5z
							 M129.7,94.5l3.5,10.9h11.5l-9.3,6.7L139,123l-9.3-6.7l-9.3,6.7l3.5-10.9l-9.3-6.7h11.5L129.7,94.5z M194.6,94.5l3.5,10.9
							h11.5l-9.3,6.7l3.5,10.9l-9.3-6.7l-9.3,6.7l3.5-10.9l-9.3-6.7H191L194.6,94.5z M259.4,94.5l3.5,10.9h11.5l-9.3,6.7l3.5,10.9
							l-9.3-6.7L250,123l3.5-10.9l-9.3-6.7h11.5L259.4,94.5z M324.3,94.5l3.5,10.9h11.5l-9.3,6.7l3.5,10.9l-9.3-6.7L315,123
							l3.5-10.9l-9.3-6.7h11.5L324.3,94.5z"/>
					</g>
				</g>
				<g>
					<path class="st1" d="M32.4,122.1L36,133h11.5l-9.3,6.7l3.5,10.9l-9.3-6.7l-9.3,6.7l3.5-10.9l-9.3-6.7h11.5L32.4,122.1z
						 M97.3,122.1l3.5,10.9h11.5l-9.3,6.7l3.5,10.9l-9.3-6.7l-9.3,6.7l3.5-10.9l-9.3-6.7h11.5L97.3,122.1z M162.1,122.1l3.5,10.9
						h11.5l-9.3,6.7l3.5,10.9l-9.3-6.7l-9.3,6.7l3.5-10.9l-9.3-6.7h11.5L162.1,122.1z M227,122.1l3.5,10.9H242l-9.3,6.7l3.5,10.9
						l-9.3-6.7l-9.3,6.7l3.5-10.9L212,133h11.5L227,122.1z M291.8,122.1l3.5,10.9h11.5l-9.3,6.7l3.5,10.9l-9.3-6.7l-9.3,6.7
						l3.5-10.9l-9.3-6.7h11.5L291.8,122.1z M356.7,122.1l3.5,10.9h11.5l-9.3,6.7l3.5,10.9l-9.3-6.7l-9.3,6.7l3.5-10.9l-9.3-6.7H353
						L356.7,122.1z"/>
					<g>
						<path class="st1" d="M64.9,149.6l3.5,10.9h11.5l-9.3,6.7l3.5,10.9l-9.3-6.7l-9.3,6.7l3.5-10.9l-9.3-6.7h11.5L64.9,149.6z
							 M129.7,149.6l3.5,10.9h11.5l-9.3,6.7l3.5,10.9l-9.3-6.7l-9.3,6.7l3.5-10.9l-9.3-6.7H126L129.7,149.6z M194.6,149.6l3.5,10.9
							h11.5l-9.3,6.7l3.5,10.9l-9.3-6.7l-9.3,6.7l3.5-10.9l-9.3-6.7H191L194.6,149.6z M259.4,149.6l3.5,10.9h11.5l-9.3,6.7l3.5,10.9
							l-9.3-6.7l-9.3,6.7l3.5-10.9l-9.3-6.7h11.5L259.4,149.6z M324.3,149.6l3.5,10.9h11.5l-9.3,6.7l3.5,10.9l-9.3-6.7l-9.3,6.7
							l3.5-10.9l-9.3-6.7h11.5L324.3,149.6z"/>
					</g>
				</g>
				<g>
					<path class="st1" d="M32.4,177.2l3.5,10.9h11.5l-9.3,6.7l3.5,10.9l-9.3-6.7l-9.3,6.7l3.5-10.9l-9.3-6.7h11.5L32.4,177.2z
						 M97.3,177.2l3.5,10.9h11.5l-9.3,6.7l3.5,10.9l-9.3-6.7l-9.3,6.7l3.5-10.9l-9.3-6.7h11.5L97.3,177.2z M162.1,177.2l3.5,10.9
						h11.5l-9.3,6.7l3.5,10.9L162,199l-9.3,6.7l3.5-10.9l-9.3-6.7h11.5L162.1,177.2z M227,177.2l3.5,10.9H242l-9.3,6.7l3.5,10.9
						L227,199l-9.3,6.7l3.5-10.9l-9.3-6.7h11.5L227,177.2z M291.8,177.2l3.5,10.9h11.5l-9.3,6.7l3.5,10.9l-9.3-6.7l-9.3,6.7
						l3.5-10.9l-9.3-6.7h11.5L291.8,177.2z M356.7,177.2l3.5,10.9h11.5l-9.3,6.7l3.5,10.9l-9.3-6.7l-9.3,6.7l3.5-10.9l-9.3-6.7H353
						L356.7,177.2z"/>
					<g>
						<path class="st1" d="M64.9,204.8l3.5,10.9h11.5l-9.3,6.7l3.5,10.9l-9.3-6.7l-9.3,6.7l3.5-10.9l-9.3-6.7h11.5L64.9,204.8z
							 M129.7,204.8l3.5,10.9h11.5l-9.3,6.7l3.5,10.9l-9.3-6.7l-9.3,6.7l3.5-10.9l-9.3-6.7H126L129.7,204.8z M194.6,204.8l3.5,10.9
							h11.5l-9.3,6.7l3.5,10.9l-9.3-6.7l-9.3,6.7l3.5-10.9l-9.3-6.7H191L194.6,204.8z M259.4,204.8l3.5,10.9h11.5l-9.3,6.7l3.5,10.9
							l-9.3-6.7l-9.3,6.7l3.5-10.9l-9.3-6.7h11.5L259.4,204.8z M324.3,204.8l3.5,10.9h11.5l-9.3,6.7l3.5,10.9l-9.3-6.7l-9.3,6.7
							l3.5-10.9l-9.3-6.7h11.5L324.3,204.8z"/>
					</g>
				</g>
				<g>
					<path class="st1" d="M32.4,232.4l3.5,10.9h11.5l-9.3,6.7l3.5,10.9l-9.3-6.7l-9.3,6.7l3.5-10.9l-9.3-6.7h11.5L32.4,232.4z
						 M97.3,232.4l3.5,10.9h11.5L103,250l3.5,10.9l-9.3-6.7l-9.3,6.7l3.5-10.9l-9.3-6.7h11.5L97.3,232.4z M162.1,232.4l3.5,10.9
						h11.5l-9.3,6.7l3.5,10.9l-9.3-6.7l-9.3,6.7l3.5-10.9l-9.3-6.7h11.5L162.1,232.4z M227,232.4l3.5,10.9H242l-9.3,6.7l3.5,10.9
						l-9.3-6.7l-9.3,6.7l3.5-10.9l-9.3-6.7h11.5L227,232.4z M291.8,232.4l3.5,10.9h11.5l-9.3,6.7l3.5,10.9l-9.3-6.7l-9.3,6.7
						l3.5-10.9l-9.3-6.7h11.5L291.8,232.4z M356.7,232.4l3.5,10.9h11.5l-9.3,6.7l3.5,10.9l-9.3-6.7l-9.3,6.7L351,250l-9.3-6.7h11.5
						L356.7,232.4z"/>
				</g>
			</g>
		</g>
	</g>
</g>
</svg>
