<?xml version="1.0" encoding="utf-8"?>
<!-- Generator: Adobe Illustrator 20.0.0, SVG Export Plug-In . SVG Version: 6.00 Build 0)  -->
<!DOCTYPE svg PUBLIC "-//W3C//DTD SVG 1.1//EN" "http://www.w3.org/Graphics/SVG/1.1/DTD/svg11.dtd">
<svg version="1.1" id="Layer_1" xmlns="http://www.w3.org/2000/svg" xmlns:xlink="http://www.w3.org/1999/xlink" x="0px" y="0px"
	 viewBox="0 0 800 480" style="enable-background:new 0 0 800 480;" xml:space="preserve">
<style type="text/css">
	.st0{fill:#FFFFFF;}
	.st1{fill:#0038A8;}
	.st2{fill:#FCD116;stroke:#000000;stroke-width:0.6;stroke-linecap:square;stroke-miterlimit:20;}
	.st3{fill:none;stroke:#000000;stroke-width:0.6;stroke-miterlimit:20;}
	.st4{fill:#FCD116;stroke:#000000;stroke-width:0.6;stroke-miterlimit:20;}
</style>
<path class="st0" d="M0,0h800v480H0V0z"/>
<path class="st1" d="M266,53.3h534v53.3H266V53.3z M266,160h534v53.3H266V160z M0,266.7h800V320H0V266.7z M0,373.3h800v53.3H0V373.3
	z"/>
<g>
	<g>
		<g>
			<g transform="translate(133.333 133.333) scale(2.93333)">
				<g id="b_3_">
					<g id="a_7_">
						<path class="st2" d="M-8.7-2.2L-13.4,1c-8.9-12.4-14.2-4.8-17.1-13.6c5.3,5.5,6.1-0.7,17.2,3.9"/>
						<path class="st3" d="M-10.2-4.2c-11.2-6.8-17.4-2.3-20.3-8.4"/>
						<path class="st4" d="M0,0v6l-33-6L0-6V0h-33"/>
					</g>
					<g transform="rotate(45)">
						<g id="a_6_">
							<path class="st2" d="M-4.6-7.7l-5.5-1c2.4-15.1-6.7-13.5-2.5-21.7c-0.1,7.6,4.8,3.7,9.4,14.8"/>
							<path class="st3" d="M-4.2-10.2c-3.1-12.8-10.7-14-8.4-20.3"/>
							<path class="st4" d="M0,0l-4.2,4.2l-19.1-27.6L4.2-4.2L0,0l-23.3-23.3"/>
						</g>
					</g>
				</g>
				<g id="b_7_">
					<g id="a_15_">
						<path class="st2" d="M-2.2,8.7L1,13.4c-12.4,8.9-4.8,14.2-13.6,17.1c5.5-5.3-0.7-6.1,3.9-17.2"/>
						<path class="st3" d="M-4.2,10.2c-6.8,11.2-2.3,17.4-8.4,20.3"/>
						<path class="st4" d="M0,0h6L0,33L-6,0H0v33"/>
					</g>
					<g transform="rotate(45)">
						<g id="a_14_">
							<path class="st2" d="M-2.2,8.7L1,13.3c-12.4,9-4.8,14.3-13.6,17.1c5.4-5.3-0.8-6,3.8-17.1"/>
							<path class="st3" d="M-4.2,10.2c-6.9,11.2-2.3,17.5-8.4,20.3"/>
							<path class="st4" d="M0,0l5.9,0l-6,33L-5.9,0L0,0l0,33"/>
						</g>
					</g>
				</g>
				<g id="b_8_">
					<g id="a_17_">
						<path class="st2" d="M8.7,2.2L13.4-1c8.9,12.4,14.2,4.8,17.1,13.6c-5.3-5.5-6.1,0.7-17.2-3.9"/>
						<path class="st3" d="M10.2,4.2c11.2,6.8,17.4,2.3,20.3,8.4"/>
						<path class="st4" d="M0,0v-6l33,6L0,6V0h33"/>
					</g>
					<g transform="rotate(45)">
						<g id="a_16_">
							<path class="st2" d="M8.7,2.2L13.3-1c9,12.4,14.3,4.8,17.1,13.6c-5.3-5.4-6,0.8-17.1-3.8"/>
							<path class="st3" d="M10.2,4.2c11.2,6.9,17.5,2.3,20.3,8.4"/>
							<path class="st4" d="M0,0l0-5.9l33,6L0,5.9L0,0l33,0"/>
						</g>
					</g>
				</g>
				<g id="b_9_">
					<g id="a_19_">
						<path class="st2" d="M-4.6-7.7l-5.6-1.1c2.5-15.1-6.6-13.4-2.5-21.7c-0.1,7.6,4.8,3.8,9.4,14.9"/>
						<path class="st3" d="M-4.2-10.2c-3.1-12.7-10.7-13.9-8.4-20.3"/>
						<path class="st4" d="M0,0l-4.2,4.2l-19.1-27.6L4.2-4.2L0,0l-23.3-23.3"/>
					</g>
					<g transform="rotate(45)">
						<g id="a_18_">
							<path class="st2" d="M2.2-8.7L-1-13.3c12.4-9,4.8-14.3,13.6-17.1c-5.4,5.3,0.8,6-3.8,17.1"/>
							<path class="st3" d="M4.2-10.2c6.9-11.2,2.3-17.5,8.4-20.3"/>
							<path class="st4" d="M0,0l-5.9,0l6-33L5.9,0L0,0l0-33"/>
						</g>
					</g>
				</g>
				<circle class="st4" cx="0" cy="0" r="11"/>
			</g>
			<g>
				<path d="M145.6,115.5c-2.4,0.3-9.9,5.7-8.7,6.6c1.2,0.9,2.5-3.6,9.9-3.6c7.5,0,8.7,4.1,10.8,1.8
					C154.9,117.5,148,115.1,145.6,115.5z"/>
				<path d="M147.1,121.3c-4.7,0-7.8,0.6-8.1,4.2v0.3c1.8-1.6,2.6-2.3,3.7-2.7c-0.7,1.9,1.3,4.2,3.2,5c0,0,0,0,0,0
					c-3.2,0-4.7-3.5-6-1.8c-0.9,1.2,3.5,3,6.8,3c3.3,0,8.4-5.1,6.3-3.6c-0.4,0.3-0.8,0.5-1.1,0.7c0.5-1,0.2-1.9-0.3-2.7
					c1.8,0.9,2.9,1.9,4.2,1.9C153.9,124.9,151.8,121.3,147.1,121.3z M151.2,126.9c-0.8,0.4-1.7,0.7-2.6,0.9c1.2-1.1,1.8-3.5,0.5-4.9
					c0.6,0.1,1.2,0.3,1.7,0.5C151.3,124.4,151.8,125.7,151.2,126.9z"/>
				<path d="M149.4,147.7c-0.1,0-0.3,0-0.4,0.1c0,0,0,0.1,0.1,0.1c-0.1,0-0.2,0.1-0.2,0.1c0.1,0,0.2-0.1,0.3-0.1
					c0.7,0.9,0.8,1.1,1.6,2.5c-0.3-2.1-0.9-3-3.3-4.8c0.8,1.1,1.3,1.7,1.6,2.2C149.1,147.7,149.3,147.7,149.4,147.7
					C149.4,147.7,149.4,147.7,149.4,147.7z"/>
				<path d="M149,147.8C149,147.7,149,147.7,149,147.8c-0.4,0-0.7,0.1-1.1,0.1C148.3,147.9,148.6,147.8,149,147.8z"/>
				<path d="M143.1,149.1c-2.8,0.9-5.2,1.9-9.8,1.9c-4.7,0-7-1-10-1.9c-2.1-1.1-2.4-0.9-5.7-1.3c0,0,0,0,0,0
					c9.4,4.1,8.4,5.5,15.7,5.5l0,0c0,0,0,0,0,0c0,0,0,0,0.1,0l0,0c7.2,0,6.3-1.4,15.4-5.4C143.8,148.2,144,148.7,143.1,149.1z"/>
				<path d="M129.7,122c1.2-0.9-6.3-6.3-8.7-6.6c-2.4-0.3-9.2,2.1-11.9,4.8c2.1,2.4,3.2-1.8,10.7-1.8S128.5,122.8,129.7,122z"/>
				<path d="M126.7,126.4c-1.1-1.7-2.6,1.7-5.9,1.7c1.9-0.8,3.9-3.1,3.2-5c1.1,0.4,1.9,1.1,3.7,2.7v-0.3c-0.3-3.6-3.2-4.2-8.1-4.2
					c-4.8,0-6.9,3.6-8.7,4.5c1.3,0,2.4-1.1,4.2-1.9c-0.5,0.8-0.8,1.7-0.3,2.7c-0.4-0.2-0.8-0.5-1.2-0.8c-2-1.5,3.1,3.6,6.3,3.6
					C123.1,129.4,127.6,127.7,126.7,126.4z M115.9,123.5c0.5-0.2,1.1-0.4,1.7-0.5c-1.3,1.4-0.8,3.8,0.5,4.9c-1-0.2-1.8-0.5-2.6-0.9
					C114.9,125.8,115.3,124.4,115.9,123.5z"/>
				<path d="M127.2,138.1c0.3-1.8,1.2-1.5,1.2-2.7c-2.7,0.6-1.8,4.5-4.2,4.8c-2.4,0.3-3.6,3-3.3,2.7c1.5-1.2,4.8-2.1,7.2-2.1
					c2.4,0,3,1.5,5.1,1.5l0-0.9l0,0.9c2.1,0,2.7-1.5,5.1-1.5c2.4,0,5.7,0.9,7.2,2.1c0.3,0.3-0.9-2.4-3.3-2.7
					c-2.4-0.3-1.5-4.2-4.2-4.8c0,1.2,0.9,0.9,1.2,2.7c0,1.5-2.7,1.5-3.3,0c0.6,2.3-1.2,2.4-2.7,2.4c-1.5,0-3.3,0-2.7-2.4
					C130,139.6,127.2,139.6,127.2,138.1z"/>
				<path d="M117.2,147.7c0.1,0.1,0.3,0.1,0.4,0.2c0,0,0,0,0-0.1C117.5,147.7,117.4,147.7,117.2,147.7z"/>
				<path d="M117.7,147.7c0.4-0.5,0.9-1.1,1.6-2.2c-2.5,1.8-3.1,2.7-3.3,4.8C116.8,149,116.9,148.8,117.7,147.7
					c-0.2,0-0.3,0-0.5-0.1C117.4,147.7,117.5,147.7,117.7,147.7z"/>
				<path d="M133.4,148.5L133.4,148.5c5.7,0,8.1,0.4,9.8,0.6c1.3-0.4,2.9-0.9,4.8-1.2c-3.3,0-7.8-2.4-9.8-2.4
					c-2.4,0-3.1,0.6-4.7,0.6c-1.8,0-2.3-0.6-4.7-0.6c-2.1,0-6.6,2.5-9.9,2.4c1.8,0.3,3.3,0.7,4.6,1.2
					C125.1,149,127.4,148.5,133.4,148.5z"/>
				<path d="M118.7,147.9c-0.3-0.1-0.7-0.1-1-0.2c0,0,0,0,0,0C118,147.8,118.4,147.9,118.7,147.9z"/>
			</g>
		</g>
	</g>
</g>
<path d="M133.2,156.4c-2.4,0-8.7,1.5,0,1.5C141.9,157.9,135.6,156.4,133.2,156.4"/>
</svg>
