<?xml version="1.0" encoding="utf-8"?>
<!-- Generator: Adobe Illustrator 20.0.0, SVG Export Plug-In . SVG Version: 6.00 Build 0)  -->
<!DOCTYPE svg PUBLIC "-//W3C//DTD SVG 1.1//EN" "http://www.w3.org/Graphics/SVG/1.1/DTD/svg11.dtd">
<svg version="1.1" id="Layer_1" xmlns="http://www.w3.org/2000/svg" xmlns:xlink="http://www.w3.org/1999/xlink" x="0px" y="0px"
	 viewBox="0 0 800 480" style="enable-background:new 0 0 800 480;" xml:space="preserve">
<style type="text/css">
	.st0{fill:#1EB53A;}
	.st1{fill:#0099B5;}
	.st2{fill:#CE1126;}
	.st3{fill:#FFFFFF;}
</style>
<path class="st0" d="M0,320h800v160H0V320z"/>
<path class="st1" d="M0,0h800v160H0V0z"/>
<path class="st2" d="M0,153.6h800v172.8H0V153.6z"/>
<path class="st3" d="M0,163.2h800v153.6H0V163.2z"/>
<path class="st3" d="M96,76.8c0-28.5,20.8-52.2,48-56.8c-3.1-0.5-6.3-0.8-9.6-0.8c-31.8,0-57.6,25.8-57.6,57.6s25.8,57.6,57.6,57.6
	c3.3,0,6.5-0.3,9.6-0.8C116.8,129,96,105.3,96,76.8z"/>
<g>
	<polygon class="st3" points="260.9,124.2 267.7,119.3 259.3,119.3 256.7,111.4 254.1,119.3 245.8,119.3 252.5,124.2 249.9,132.2 
		256.7,127.3 263.5,132.2 	"/>
	<polygon class="st3" points="214.8,124.2 221.6,119.3 213.2,119.3 210.6,111.4 208,119.3 199.7,119.3 206.5,124.2 203.9,132.2 
		210.6,127.3 217.4,132.2 	"/>
	<polygon class="st3" points="307,124.2 313.8,119.3 305.4,119.3 302.8,111.4 300.2,119.3 291.8,119.3 298.6,124.2 296,132.2 
		302.8,127.3 309.6,132.2 	"/>
	<polygon class="st3" points="353.1,124.2 359.8,119.3 351.5,119.3 348.9,111.4 346.3,119.3 337.9,119.3 344.7,124.2 342.1,132.2 
		348.9,127.3 355.6,132.2 	"/>
	<polygon class="st3" points="168.7,124.2 175.5,119.3 167.1,119.3 164.6,111.4 162,119.3 153.6,119.3 160.4,124.2 157.8,132.2 
		164.6,127.3 171.3,132.2 	"/>
	<polygon class="st3" points="260.9,78.1 267.7,73.2 259.3,73.2 256.7,65.2 254.1,73.2 245.8,73.2 252.5,78.1 249.9,86.1 
		256.7,81.2 263.5,86.1 	"/>
	<polygon class="st3" points="214.8,78.1 221.6,73.2 213.2,73.2 210.6,65.2 208,73.2 199.7,73.2 206.5,78.1 203.9,86.1 210.6,81.2 
		217.4,86.1 	"/>
	<polygon class="st3" points="307,78.1 313.8,73.2 305.4,73.2 302.8,65.2 300.2,73.2 291.8,73.2 298.6,78.1 296,86.1 302.8,81.2 
		309.6,86.1 	"/>
	<polygon class="st3" points="353.1,78.1 359.8,73.2 351.5,73.2 348.9,65.2 346.3,73.2 337.9,73.2 344.7,78.1 342.1,86.1 
		348.9,81.2 355.6,86.1 	"/>
	<polygon class="st3" points="260.9,32 267.7,27.1 259.3,27.1 256.7,19.1 254.1,27.1 245.8,27.1 252.5,32 249.9,40 256.7,35 
		263.5,40 	"/>
	<polygon class="st3" points="307,32 313.8,27.1 305.4,27.1 302.8,19.1 300.2,27.1 291.8,27.1 298.6,32 296,40 302.8,35 309.6,40 	
		"/>
	<polygon class="st3" points="353.1,32 359.8,27.1 351.5,27.1 348.9,19.1 346.3,27.1 337.9,27.1 344.7,32 342.1,40 348.9,35 
		355.6,40 	"/>
</g>
</svg>
