<?xml version="1.0" encoding="utf-8"?>
<!-- Generator: Adobe Illustrator 20.0.0, SVG Export Plug-In . SVG Version: 6.00 Build 0)  -->
<!DOCTYPE svg PUBLIC "-//W3C//DTD SVG 1.1//EN" "http://www.w3.org/Graphics/SVG/1.1/DTD/svg11.dtd">
<svg version="1.1" id="Layer_1" xmlns="http://www.w3.org/2000/svg" xmlns:xlink="http://www.w3.org/1999/xlink" x="0px" y="0px"
	 viewBox="0 0 800 480" style="enable-background:new 0 0 800 480;" xml:space="preserve">
<style type="text/css">
	.st0{fill:#CF142B;}
	.st1{fill:#00247D;}
	.st2{fill:#FFCC00;}
	.st3{fill:#FFFFFF;}
</style>
<path class="st0" d="M0,0h800v480H0V0z"/>
<path class="st1" d="M0,0h800v320H0V0z"/>
<path class="st2" d="M0,0h800v160H0V0z"/>
<g>
	<polygon class="st3" points="432.8,197.8 445.8,191.4 431.5,188.9 429.5,174.5 422.7,187.3 408.3,184.8 418.4,195.3 411.6,208.1 
		424.7,201.7 434.8,212.2 	"/>
	<polygon class="st3" points="478.1,217 492.6,215.5 480,208.2 483,194 472.2,203.7 459.6,196.4 465.5,209.7 454.7,219.4 
		469.2,217.9 475.1,231.2 	"/>
	<polygon class="st3" points="514.2,250.5 528.3,254 518.9,242.9 526.6,230.6 513.2,236 503.8,224.9 504.8,239.4 491.4,244.8 
		505.5,248.3 506.5,262.8 	"/>
	<polygon class="st3" points="543.7,288.9 555.1,279.9 540.6,280.4 535.6,266.8 531.6,280.7 517.1,281.2 529.1,289.4 525.1,303.3 
		536.6,294.4 548.6,302.5 	"/>
	<polygon class="st3" points="367.2,197.8 354.2,191.4 368.5,188.9 370.5,174.5 377.3,187.3 391.7,184.8 381.6,195.3 388.4,208.1 
		375.3,201.7 365.2,212.2 	"/>
	<polygon class="st3" points="321.9,217 307.4,215.5 320,208.2 317,194 327.8,203.7 340.4,196.4 334.5,209.7 345.3,219.4 
		330.8,217.9 324.9,231.2 	"/>
	<polygon class="st3" points="285.8,250.5 271.7,254 281.1,242.9 273.4,230.6 286.8,236 296.2,224.9 295.2,239.4 308.6,244.8 
		294.5,248.3 293.5,262.8 	"/>
	<polygon class="st3" points="256.3,288.9 244.9,279.9 259.4,280.4 264.4,266.8 268.4,280.7 282.9,281.2 270.9,289.4 274.9,303.3 
		263.4,294.4 251.4,302.5 	"/>
</g>
</svg>
