<?xml version="1.0" encoding="utf-8"?>
<!-- Generator: Adobe Illustrator 20.0.0, SVG Export Plug-In . SVG Version: 6.00 Build 0)  -->
<!DOCTYPE svg PUBLIC "-//W3C//DTD SVG 1.1//EN" "http://www.w3.org/Graphics/SVG/1.1/DTD/svg11.dtd">
<svg version="1.1" id="Layer_1" xmlns="http://www.w3.org/2000/svg" xmlns:xlink="http://www.w3.org/1999/xlink" x="0px" y="0px"
	 viewBox="0 0 800 480" style="enable-background:new 0 0 800 480;" xml:space="preserve">
<style type="text/css">
	.st0{fill:#0000CC;}
	.st1{fill:#FF0000;}
	.st2{fill:#FFCC00;}
	.st3{fill:#009933;}
	.st4{fill:#FFFFFF;}
</style>
<g>
	<g transform="translate(67.379 .011) scale(.93748)">
		<g>
			<path d="M-71.9,407.8V104.4L154,256.1L-71.9,407.8L-71.9,407.8z"/>
			<path class="st0" d="M82.2,512.1l253.5-170.6h445.7v170.6H82.2z"/>
			<path class="st1" d="M65.9,0.1l715.6,0v170.7H335.7C335.7,170.7,69.3-1.6,65.9,0.1z"/>
			<path class="st2" d="M-71.9,64.1v40.3L154,256L-71.9,407.8v40.3L212.6,256C212.6,256-71.9,64.1-71.9,64.1z"/>
			<path class="st3" d="M-71.9,64.1v-64H23l301.3,203.9h457.1v104.3H324.3L23,512.1h-94.9v-63.9L212.6,256
				C212.6,256-71.9,64.1-71.9,64.1z"/>
			<path class="st4" d="M23,0.1h59.2l253.5,170.7h445.7v33.2H324.3L23,0.1L23,0.1z M23,512.1h59.2l253.5-170.6h445.7v-33.2H324.3
				L23,512.1L23,512.1z"/>
		</g>
	</g>
</g>
</svg>
