<?xml version="1.0" encoding="utf-8"?>
<!-- Generator: Adobe Illustrator 20.0.0, SVG Export Plug-In . SVG Version: 6.00 Build 0)  -->
<!DOCTYPE svg PUBLIC "-//W3C//DTD SVG 1.1//EN" "http://www.w3.org/Graphics/SVG/1.1/DTD/svg11.dtd">
<svg version="1.1" id="Layer_1" xmlns="http://www.w3.org/2000/svg" xmlns:xlink="http://www.w3.org/1999/xlink" x="0px" y="0px"
	 viewBox="0 0 800 480" style="enable-background:new 0 0 800 480;" xml:space="preserve">
<style type="text/css">
	.st0{fill:#319208;}
	.st1{fill:#DE2010;}
	.st2{fill:#FFD200;}
	.st3{fill:#FFFFFF;}
	.st4{fill:#D62419;}
	.st5{fill:#F7DF00;stroke:#000000;stroke-width:1.4676;}
	.st6{fill:none;stroke:#000000;stroke-width:1.4676;}
</style>
<g>
	<g transform="scale(.9375)">
		<path class="st0" d="M0,438.9h853.3V512H0V438.9z"/>
		<path class="st1" d="M0,292.6h853.3v73.1H0V292.6z"/>
		<path class="st2" d="M0,365.7h853.3v73.1H0V365.7z"/>
		<path class="st1" d="M0,146.3h853.3v73.1H0V146.3z"/>
		<path class="st2" d="M0,73.1h853.3v73.1H0V73.1z"/>
		<path class="st0" d="M0,0h853.3v73.1H0V0z"/>
		<path d="M28.9,0v512l343.8-256L28.9,0z"/>
		<path d="M0,0h29.3v512H0V0z"/>
		<path d="M0,0v512l373-256L0,0z"/>
		<path d="M0,219.4h853.3v73.1H0V219.4z"/>
		<path class="st3" d="M0,0v512l343.8-256L0,0z"/>
		<path class="st4" d="M132,114.7l27.3,90.4l97.4,0.9l-77.5,53.9l29.3,92.9l-75.2-57.1l-79.3,56.6L85,263L6.7,205l94.4,2L132,114.7z
			"/>
		<path class="st5" d="M50,166.2c1.7-3,2-4.6,10.6-8.3c11.3-32.8,40.1-19.9,56,25.5c14.6,6.3,101.8,71.3,100.5,75
			c-0.7,3.3-11.6,0.7-11.6,0.7s-17.2,73.6-17.6,73.6c-32.2-4.3-82.2-5-116.4-4.3c0.3-5.6-9.3-42.5-9.3-42.5s-8.3-2.7,5.6-30.8
			C82.9,219.6,85.9,161.9,50,166.2L50,166.2z"/>
		<path class="st6" d="M79.6,153c0,2-1.6,3.6-3.6,3.6s-3.6-1.6-3.6-3.6c0-2,1.6-3.6,3.7-3.6C77.9,149.3,79.5,150.9,79.6,153
			L79.6,153z M115.7,183.5c0,0-28.5,16.3-36.8,15.9 M205.6,259.1c-2-1.7-105.8-6.6-101.5-41.8 M120.7,259.7c0,0,11.3,6.6,20.9-10.6
			 M133.3,259.4c0,0,8,7.3,19.6-8.6 M62.6,286c0,0,7.3,1,8.6-3.3 M97.1,328.7c0-0.3-7.3-47.1-7.3-47.1c36,3.2,73.4,3.4,108.1,9.6"/>
		<path class="st6" d="M93.5,282.3l9.9,11.6l10.3-10l8.6,9.3 M125,293.6l8.6-7.6l9.3,9 M144.6,294.9l9.6-8.6l7.3,8.6 M165.5,295.2
			l8.6-6l7.6,7.3 M187.7,296.2l6.3-6"/>
		<path class="st6" d="M91.8,292.9l10.6,12.3l10.6-9.6l9.3,10l10.6-9.3l9,10.6l10.9-9.3c0,0,8.3,10.3,9.3,10.3s10.9-8.6,10.9-8.6
			l9.6,10.6l13.3-10.6 M93.5,304.8c0,0,85.6,3.3,99.5,6.6 M107.7,266c0,0,81.3,4.3,94.2,9.3"/>
		<path class="st6" d="M91.2,232.2c0.7,5-5.3,22.2-11.6,28.2c-8.6,7-7.6,21.6-7.6,21.6c1,6,13.9,5.3,15.6,2.3
			c1.3-13.6,15.9-16.6,15.9-16.6s20.2-5.6,28.9-22.6 M131.9,275.3c0,2.4-1.9,4.3-4.3,4.3c-2.4,0-4.3-1.9-4.3-4.3
			c0-2.4,1.9-4.3,4.3-4.3C130,271,131.9,272.9,131.9,275.3L131.9,275.3L131.9,275.3z M151.2,277c0,2.4-1.9,4.3-4.3,4.3
			c-2.4,0-4.3-1.9-4.3-4.3c0,0,0,0,0,0c0-2.4,1.9-4.3,4.3-4.3C149.3,272.7,151.2,274.6,151.2,277L151.2,277z"/>
	</g>
</g>
</svg>
